<?xml version="1.0" encoding="UTF-8"?>
<svg id="svg41" width="893.77pt" height="417.82pt" version="1.1" viewBox="0 0 893.77 417.82" xmlns="http://www.w3.org/2000/svg" xmlns:cc="http://creativecommons.org/ns#" xmlns:dc="http://purl.org/dc/elements/1.1/" xmlns:rdf="http://www.w3.org/1999/02/22-rdf-syntax-ns#">
 <metadata id="metadata47">
  <rdf:RDF>
   <cc:Work rdf:about="">
    <dc:format>image/svg+xml</dc:format>
    <dc:type rdf:resource="http://purl.org/dc/dcmitype/StillImage"/>
    <dc:title/>
   </cc:Work>
  </rdf:RDF>
 </metadata>
 <path id="path26" d="m173.73 126.38-0.04-122.64h94.12v410.9h-91.09l-0.04-24.97c-13.463 13.823-28.429 20.825-43.23 24.88-29.66 6.86-62.26 3.1-88.54-12.72-14.44-8.69-25.99-21.98-32.41-37.58-11.499-32.584-11.791-62.419-12.47-92.9-0.09-24.42-0.17-48.87 2.08-73.19 2.36-20.39 6.69-41.38 18.45-58.61 11.15-16.39 28.78-27.37 47.41-33.38 16.87-5.11 34.82-6.65 52.31-4.4 16.464 1.6315 32.643 7.8023 45.501 18.269l7.9491 6.3506" fill="#31389d"/>
 <path id="path28" d="m447.29 22.38c5.4-8.48 19.23-9.29 25.59-1.54 1.97 2.23 2.99 5.115 3.56 7.995h-6.33c-1.8285-4.4958-4.1822-6.9911-8.5954-7.303-2.5572-0.17287-5.1685 0.17916-7.0846 1.988-2.91 2.29-2.96 6.26-3.34 9.63-0.21 5.54-0.4 11.2 0.98 16.62 2.28 6.28 11.98 7.37 15.87 2.15 1.02-1.21 1.52-2.72 2.2-4.12h6.28c-0.77 5.38-4.42 10.39-9.6 12.28-7.02 2.55-15.87 0.35-19.82-6.3-3.11-4.56-2.1-10.25-2.3-15.43 0.17-5.38-0.81-11.33 2.59-15.97z" fill="#31389d"/>
 <path id="path38-4" d="m501.93 15.67h5.27l16.55 45.12h-6.8l-2.87-8.98h-18.35l-3.46 8.98h-6.29l15.95-45.12m-4.33 30.31h14.31l-7.155-19.87z" fill="#31389d"/>
 <path id="path32" d="m536.81 15.661h14.106c3.381 0 6.6911 0.59264 9.8136 2.0889 5.75 2.83 7.65 9.59 7.9 15.53 0.0393 1.6742 0.18012 7.5685-0.19518 11.318-0.27592 2.757-0.82404 5.4686-1.8748 8.0616-2.21 5.16-7.84 8.005-13.25 8.105h-16.5v-45.104m6.225 6.1081v33.092h6.9252c3.3954 0 6.702-0.21857 9.2098-2.7914 4.188-5.6386 3.7246-23.98-0.01-27.53-2.4894-2.5722-5.7979-2.7708-9.196-2.7708z" fill="#31389d"/>
 <path id="path34" d="m584.62 15.75h28.935v6.065h-22.03v13.245h18.455v5.805h-18.455v13.9h21.34v6.045h-28.245z" fill="#31389d"/>
 <path id="path36" d="m628.75 15.69h5.82l21.4 30.69v-30.69h6.43v45.055h-5.88l-21.4-30.575v30.575h-6.37z" fill="#31389d"/>
 <path id="path38" d="m691.26 15.65h5.27l16.55 45.12h-6.8l-2.87-8.98h-18.35l-3.46 8.98h-6.29l15.95-45.12m-4.33 30.31h14.31l-7.155-19.87z" fill="#31389d"/>
 <path id="path10" d="m54.684 185.79c5.59-7.03 17.72-7.28 23.49-0.36l55.15 65.88c5.12 5.43 4.92 14.58 0.1 20.14l-55.13 65.85c-5.59 7-17.39 7.03-23.17 0.25-5.27-5.36-4.88-14.88 0.14-20.28l46.84-55.77c-12.245-19.874-42.53-42.648-50.03-60.76-1.24-5.01-0.96-10.9 2.61-14.95z" fill="#fff"/>
 <path id="path12" d="m125.71 183.66c5.86-4.79 15.71-4.37 20.89 1.29l56.03 66.87c4.57 5.51 4.27 14.09-0.3 19.51l-55.54 66.47c-4.74 5.08-12.97 6.32-19 2.85-6.28-3.16-9.5-11.31-6.97-17.89 1.94-5.24 6.47-8.87 9.76-13.23l40.35-47.7-47.85-56.99c-4.95-6.3-3.84-16.34 2.63-21.18z" fill="#fff"/>
 <g id="#7bc200ff" transform="translate(-60.686 -299.67)" fill="#7bc200">
  <path id="path17" d="m372.6 299.67h93.93v72.59h-93.93z"/>
  <path id="path19" d="m807.74 303.44h94.53v311.54c-0.22 5.09 0.8 10.58 4.45 14.38 3.58 3.94 9.06 5.395 14.23 5.395h33.505v79.535h-39.425c-11.15 0.13-22.34-0.28-33.34-2.17-12.88-2.45-25.55-6.95-36.35-14.5-11.4-7.93-20.92-18.64-27.07-31.12-6.53-12.16-9.41-25.9-10.53-39.55z"/>
  <path id="path21" d="m581.84 404.77c21.06-4.44 42.73-4.84 64.16-4 17.87 1.08 35.88 3.46 52.83 9.52 17.69 6 34.46 16.03 46.27 30.72 17.26 20.77 22.555 48.66 22.365 75v198.31h-91.995l-0.16-25.37c-9.35 8.02-18.63 16.69-30.35 21.18-15.11 6.54-31.89 7.26-48.1 6.49-20.14-1.32-40.39-7.52-56.59-19.81-15.46-11.34-26.06-28.48-31.26-46.78-5.81-20.36-6.74-42.57 0.04-62.82 4.97-15.84 15.17-29.84 28.38-39.82 20.16-15.08 45.85-20.32 70.56-20.69 21.59 0.04 43.18 0.01 64.77 0.02-0.19-9.48 0.83-19.41-3.32-28.28-3.91-9.29-13.35-14.99-22.97-16.74-14.11-2.67-28.9-2.89-42.86 0.73-10.71 2.92-19.54 10.23-27.1 18.07l-58.54-59.2c5.06-3.97 9.25-8.94 14.5-12.7 14.28-11.69 31.35-19.87 49.37-23.83m18.79 193.77c-5.32 5.65-7.07 14.07-5.29 21.52 1.58 8.22 8.08 14.93 15.81 17.78 9.82 3.69 20.57 2.66 30.79 1.68 10.42-1.05 19.91-7.19 25.88-15.66 6.17-10.4 4.71-22.925 4.92-34.475h-48.79c-8.5 0.05-17.47 2.685-23.32 9.155z"/>
  <path id="path23" d="m372.6 415.87h93.93v298.45h-93.93z"/>
 </g>
</svg>
