<svg id="a" width="697.38pt" height="705.42pt" version="1.1" viewBox="0 0 697.38 705.42" xmlns="http://www.w3.org/2000/svg">
 <g id="b" fill="#19171a">
  <path id="c" d="m274.75 1.08c0.89-0.36 1.79-0.73 2.69-1.08 0.41 1.32 2.8 3.04 0.93 4.14-2.24 1.3-3.39-1.26-3.62-3.06z"/>
  <path id="d" d="m261.74 13.79c4.65 0.13 7.72-4.04 12.01-5.07 1.64-0.23 3.14 0.6 4.67 1.04 2-0.12 4.03 0.09 5.69 1.34-0.57 3.26-0.7 6.8 1.18 9.69 2.88 5.07 7.95 8.41 11.02 13.33 0.7 2 0.12 4.28 1.09 6.21 2.63 0.06 5.79-1.33 7.42 1.51-1.89 1.77-4.29 3.34-4.99 5.99-1.8 5.3 1.66 11.4-1.54 16.35-4.03 4.83-11.23 3.76-16.42 1.62 2.1 2.91 3.32 7.44 0.03 9.99-3.26 2.66-3.59 7.16-1.29 10.55-0.68 0.37-2.03 1.1-2.7 1.47 2.64 2.4 4.81 5.3 5.36 8.94 2.06-3.8 0.4-8.02-0.01-12 4.63 0.21 5.68-4.65 8.34-7.27 4.06-2.25 8.66-3.3 12.96-4.98 0.94 3.18 3.06 5.75 4.76 8.53 1.76 2.66-0.62 5.67-0.05 8.51 0.82 3.88 3.14 7.27 3.75 11.21 0.46 2.39-0.52 4.7-1.16 6.95 0.74 3.65 0.23 7.35-0.49 10.96-3.97-0.05-7.25-3.09-11.31-2.33-2.54-6.33-7.1-12.83-14.39-13.8 1.21 1.93 3.58 3.68 2.84 6.25-1.13 3.74-4.01 6.6-5.92 9.94-1.68 0.8-3.35 1.61-5.01 2.44 3.06 1.69 6.3 3.3 8.42 6.2 1.2-0.56 2.25-2.2 3.74-1.56 1.78 1.2 3.2 2.83 4.82 4.23-3.38 3.71 2.7 7.18 1.7 11.41 1.71-0.58 3.25-0.13 4.43 1.26-1.85 1.46-4.02 1.72-5.86 0.05-0.64 0.79-1.66 1.4-1.83 2.48 1.31 2.05 3.06 3.76 4.57 5.66 1.48-3.84 2.76-7.8 5.32-11.1 1.24 1.78 2.51 3.53 3.89 5.2 6.01 5.21 15.297 4.5119 23.12-0.52 5.87-4.96 1.19-14.01 6.72-19.16-3.82-3.17-0.37-8.19-1.75-12.26 2.3-1.95 4.05-6.27 7.73-4.99 0.58 1.25 0.84 2.62 1.23 3.94 2.1-1.07 4.73-1.89 6.76-0.18 2.35 1.95 5.24 3.82 6.12 6.94 0.9 3.38 4.46 4.82 6.42 7.47 1.14 1.62 0.36 3.62 0 5.36 1.13-0.98 2.28-1.94 3.45-2.88 0.3 1.53 0.59 3.07 0.88 4.61-2.93 0.37-6.58 0.83-6.95 4.46 1.83-0.32 3.61-0.85 5.43-1.21 0.67 3.49-5.57 4.61-4.81 8.52 2.64 1.01 5.84-0.79 6.82-3.38 1.02-1.92 3.68-1.64 5.39-2.65-2.27-10.58-1.82-22.03 3.13-31.82 1.86-3.41 2.95-8.18 7.32-9.17 4.05 2.5 10.33 3.86 10.84 9.53-0.93 1.3-2.7 2.3-2.68 4.08 0.27 2.31 1.43 4.36 2.35 6.45-5.5 2.55-6.52 9.24-4.89 14.53-3.25 3.06-7.67 3.97-11.69 5.53 0.48 0.64 1.44 1.93 1.92 2.57 4.23-4.01 10.27-3.15 15.59-3.68 1.84-6.61 2.45-13.47 3.81-20.18 4-1.09 9.34-3.04 11.87 1.6-0.39 3.03-0.75 6.06-1.05 9.1 11.69 0.69 23.06-4.24 34.76-2.28 3.37-2.59 7.52-3.77 11.71-4.14 0.68-4.4 2.5-9.31 7.17-10.78 0.71 0.33 2.15 0.98 2.87 1.3-1.32 3.27-2.61 6.55-4.05 9.77 5.67-0.14 10.83 3 13.93 7.62 2.99 4.2 5.35 8.79 7.82 13.3-1.37 6.34-5.34 12.7-3.38 19.31 1.01 4.3 6.2 4.04 9.54 5.39 1.16-3.66 1.13-7.52 1.79-11.26 0.39-3.17 3.92-3.97 5.89-5.97 6.17-5.72 15.17-7.36 23.25-5.64 0.82 2.97 1.64 6.04 3.54 8.53 3.09 4.24 7.93 6.63 12.48 8.96-0.76 3.7-2.14 7.51-0.96 11.28 0.73-0.1 2.17-0.29 2.89-0.39 0.5 1 0.93 2.02 1.3 3.07-1.04-0.21-3.11-0.65-4.15-0.87 1.58 5.31-0.92 10.31-3.49 14.79-1.53 2.9-2.16 6.15-3.3 9.2 1.02 0.81 1.76 2.43 3.25 2.43 2.4-0.9 4.54-2.43 7.09-2.94 0.33-3.55 1.31-7.19 4.27-9.47 1.45 0.99 3.25 1.75 4.16 3.36 0.98 2.55-2.17 4.07-3.28 5.95 1.87 0.93 3.94 1.08 6 1.06 4.2 4.04 4.92 11.23 0.9 15.63-3.3 3.42-7.1 6.3-10.65 9.45 2.76 3.37 3.36 7.8 5.45 11.51 1.06 1.99 3.46 1.9 5.41 2.07 1.48 2.39 4.31 2.92 6.74 3.88 1.41-1.04 2.83-2.07 4.26-3.09-0.44 3.25 1.87 5.95 2.04 9.03-1.49 3.22-3.33 6.28-4.7 9.56-1.17 2.49 1.65 4.6 3.85 4.99 4.32-3.19 5.84-8.4 6.74-13.45 0.88 0.91 1.79 1.82 2.71 2.71-0.45-9.15-1.28-19.41 4.48-27.21 6.9-4.26 15.08-0.96 22.12 1.16 4.08 1.7 8.64 0.63 12.82 1.97 0.35 2.04 0.24 4.11-0.33 6.1-2.37 0.5-5.31 0.7-6.55 3.15-1.76 3.51-1.68 7.58-2.52 11.35 8.78-1.61 14.9 5.83 21.01 10.73 4.47 3.6 11.17 7.24 16.64 3.69 3.59-2.26 5.52 3.17 6.71 5.7 1.32 8.34 5.11 17.59 0.56 25.59-1.84 3.33-5.93 0.78-8.76 0.93-6.09 3.74-11.88 7.97-17.87 11.86-3.54-3.12-5.32 2.27-8.25 3.3-4.78-0.91-9.46-3.39-14.42-1.77 0.96 3.81-0.06 7.7-2.62 10.64-1.78 2.55-4.22 4.88-4.84 8.04-0.62 2.94 2.14 4.75 3.44 6.99 0.12 2.71-0.12 5.52 0.86 8.12 2.17 6.19 7.38 10.61 10.12 16.5 1.92 3.85 1.43 8.28 1.91 12.43 0.54 6.3-4.36 10.99-7.75 15.69-1.87 2.21-2.86 5.04-4.7 7.25-5.46 1.92-11.43 0.66-16.93 2.31-3.44 0.91-5.48 4.78-4.61 8.18 2.08 1.22 2.6-2.36 3.89-3.32 1.88 1.36 3.3 3.18 4.3 5.27-2.97-0.28-6.15 0.03-7.64 2.96 3.32 0.37 6.72 0.15 9.93 1.28 2.18-0.71 4.81-0.99 6.55 0.82 4.31 3.08 5.93 8.25 8.36 12.71 1.28 2.42 1.96 5.08 2.37 7.77-1.92 1.06-4.31 1.91-5.18 4.12-1.33 3.48 0.09 7.34-0.98 10.87-0.73 2.57-3.73 2.86-5.85 3.64-0.08 1.64-0.15 3.28-0.19 4.94-7.63 0.47-13.65 6.09-21.12 7.08-2.85 0.48-5.47-0.85-7.81-2.28-2.23 2.48-4.26 5.14-6.69 7.43 1.43 4.11 4.31 7.4 7.45 10.32 3.39 3.22 5.88 7.69 5.74 12.47-1.22 2.51-3.88 3.74-6.08 5.21-1.88-2.9-1.84-6.38-1.91-9.7-2.59 2.42-5.72 5-9.53 4.49-7.77-1.16-13.2-8.58-21.33-8.56-0.71-3.49-3.42-5.84-6.13-7.88-0.82 1.94-1.73 3.85-2.82 5.66-1.38-1.88-2.22-4.07-3.14-6.19-3.43 1.25-6.65 3.33-10.45 3.12 1.47 3.9 5.27 5.64 8.48 7.81 2.03 4.03 3.26 8.44 4.63 12.74-5.41 1.02-5.98-5.93-10.24-7.36-3-0.91-4.45 2.85-7.17 3.26-2.82-0.41-4.56-2.96-6.95-4.22-1.38-0.95-3.03-0.12-4.49 0.09 1.23 3.82 2.75 7.87 1.84 11.95-0.48 2.84-2.48 5.02-4.33 7.09 1.29 4.79 1.99 9.75 3.94 14.35 2.23 0.01 4.53-0.28 6.69 0.44-1.63 2.54-4.76 4.68-3.8 8.14 2.8-2.71 5.2-6.42 9.29-7.21 2.85 1.64 5.7 3.29 8.84 4.33 6.41-6.96 16.13-8.29 24.57-11.46 0.62 3.64 3.95 1.06 6.19 1.57 3.77 3.83 4.82 9.55 4.4 14.75-0.48 5.24-1.38 10.44-1.49 15.72-7.47 4.62-16.51 2.81-24.78 3.89-2.02 0.42-3.42-1.41-4.66-2.67-3.33-3.84-3.5-9.13-4-13.92-0.47 0.67-0.94 1.35-1.39 2.04-2.13-1.37-4.47-2.34-6.82-3.24-0.65 1.65-1.99 3.33-1.29 5.2 0.65 1.1 1.58 2.01 2.43 2.98-0.9 0.38-1.8 0.78-2.69 1.18-1.77-1.59-3.77-4.94-6.46-2.95 0.66 1.3 1.6 2.44 2.33 3.71-0.23 2.81-2.22 5.23-2.1 8.08 0.87 1.22 2.52 1.47 3.73 2.26-1.51 2.2-3.2 4.62-6.04 5.09-3.23-1.63 1.03-4.36 1.52-6.59-2.38 1.23-4.61 2.98-7.35 3.29-3.8 0.79-8.13 0.22-11.42 2.63-2.11 1.68-2.3 4.52-2.76 6.97-2.95 1.96-2.57 7.66-6.86 7.35-2.31-2.27-4.46-5.3-8.06-5.28-6.49-0.43-14.12 2.32-19.29-3.08-5.22 2.25-9.09 6.96-14.61 8.53-2.73 0.75-4.79-1.47-6.52-3.18-2.87 2.95-7.79 2.34-10.18 5.91 5.92 4.55 10.1 11.8 17.81 13.58 1.02-0.63 2.06-1.24 3.1-1.83-0.08 5.54 0.49 11.23 2.58 16.4 0.76 2.2 3.96 3.66 5.72 1.72 2.9-3.2 6.31-5.88 9.36-8.93 1.73 2.11 2.01 4.81 2.3 7.43-1.14 1.92-2.28 3.85-3.52 5.72 4.61 2.2 6.04 7.75 10.28 10.25 1.4-0.74 2.63-1.77 4.04-2.5 3.4-0.28 5.88 2.56 8.98 3.44 2.23 0.24 3.69-1.71 5.27-2.91 3.76 6.94 0.41 14.52-3.02 20.8-3.14 5.51-3.8 12.71 0.29 17.95 0.35 6.71-1.94 13.82-7.17 18.23-4.75 2.68-11.48 2.06-14.4 7.54-2.33-0.65-4.89-1.29-6.38-3.36-3.55-4.7-3.48-11.17-7.18-15.79-1.85-2.38-4.85-3.27-7.53-4.34-0.21 1.85-0.45 3.7-0.73 5.55-3.07-3.64-1.36-8.64-3.2-12.67-1.91-1.73-4.46 0.02-6.53 0.38-1.31-4.21 1.41-7.79 2.74-11.55 1.18-2.72-0.95-5.08-1.92-7.43 2.27-3.99 3.95-8.93 8.6-10.73-1.45-2.73-1.52-5.84-1.43-8.85-4.99 1.62-8.3 6.23-13.48 7.44-1.71-3.25-4.29-5.89-6.22-8.97-1.28-1.86-0.25-3.99 0.42-5.84-2.41-2.37-4.81-5.09-5.14-8.61-0.71-5.49-0.18-11.26-2.66-16.41l1.52-2.68c-1.55-1.39-3.15-2.71-4.67-4.12-2.37 1.57-5.12 1.02-7.71 0.45-3.7 8.55-15.37 11.6-16 21.78-1.14 0.9-3.43 1.3-3.34 3.08 0.72 2.9 2.47 5.65 1.64 8.75 0.24 0.66 0.73 1.97 0.98 2.63 1.1-1.57 2.12-3.19 3.17-4.79 2.33 1.92 5.24 4.01 5.29 7.37-1.34 2.55-4.25 3.48-6.67 4.65-0.57-1.95-1.3-3.84-2.32-5.59-2.44 2.71-2.77 6.37-2.32 9.84l2.29-0.35c-0.73 2.27-0.76 5.17-2.94 6.66-1.75 0.92-3.66 1.48-5.51 2.17 1.64 3.15 0.3 6.82-2.42 8.86-3.18 2.41-7.22 4.59-11.34 3.85-2.6-0.54-3.6-3.21-4.77-5.25-1.2-1.11-2.36-2.24-3.47-3.44 3.24-2.38 7.25-3.84 9.37-7.48 3.4 0.72 4.61 6.37 8.59 4.3-0.67-1.79-1.35-3.58-2.02-5.36 1.43-0.8 2.83-1.66 4.04-2.78-1.44-1.31-2.95-2.53-4.36-3.85 0.77-0.82 1.62-1.56 2.46-2.3-5.99-2.73-0.48-10.82-5.49-14.57 1.41-1.84 2.57-3.85 3.77-5.83-1.2-0.62-2.55-0.99-3.56-1.9-1.52-3.84 2.66-7.55 1.05-11.36-1.18-1.59-3.15-2.46-5.02-2.88-2.89 1.02-5.33 2.95-8.13 4.18-0.2-1.19-0.32-2.37-0.37-3.56 1.85-1.87 4.24-3.06 6.27-4.73-0.34-4.5 0.55-9.11-1.32-13.38l-7.59 1.27c-0.59 0.47-1.76 1.39-2.35 1.85-0.53 2.46-1.17 5.05-3.1 6.83-3.72 3.44-8.67 4.98-13.11 7.24-2.1-2.84-3.23-6.2-2.64-9.74-2.15 0.15-5.09 0.42-5.59 3.05-0.4 2.01-1.6 3.51-3.6 4.1 3.68 3.54 0.68 8.51 0.71 12.83-2.71 1.55-4.82 5.97-8.45 4.28-1.96-3.06 1.05-8.79-3.25-10.17-9.47 0.07-18.21 4.87-27.71 4.88-2.52 3.21-5.77 6.03-9.82 7.04-5.97 1.57-12.2 0.7-18.28 1.28-3-6.94-11.28-8.68-15.31-14.68-2.94-4.36-0.25-9.43 0.26-14.08 0.95-4.3 0.4-8.76-1.41-12.75-3.88-0.66-7.95-0.42-11.43 1.56 0.18 3.98 1.24 7.97 1.19 11.9-2.17 4.03-6.28 6.56-9.53 9.67-4.98 2.82-10.46 5.16-16.22 5.65-3.67-1.68-4.12-6.35-6.29-9.38-1.2 0.75-2.4 1.52-3.59 2.3-0.37-0.82-1.11-2.46-1.48-3.27-6.77 4.48-5.45 14.7-12.87 18.57-1.35 4.62-6.6 4.21-10.38 3.56-0.41-0.39-1.24-1.15-1.65-1.53-1.54 0.23-3.1 0.4-4.65 0.52-0.9-2.05-1.7-4.16-2.11-6.37 1.57 0.01 3.15 0.05 4.73 0.11 0.31 0.35 0.93 1.05 1.23 1.4 0.89-3.08 2.32-6.25 5.37-7.72 5.84-3.1 13.81-3.64 17.12-10.23-1.73-0.5-4.43 0.17-5-2.08-0.92-4.05 0.46-8.32-0.69-12.39-1.03 0.39-2.05 0.79-3.07 1.2-0.58-0.87-1.12-1.75-1.62-2.65 0.87-0.8 1.9-1.01 3.07-0.63 0.14-3.91 0.23-7.83-0.24-11.72 2.9-2.57 3.73-6.41 5.03-9.88-0.74-1.56-1.49-3.12-2.25-4.66-2.91 1.5-5.83 2.97-8.78 4.39 1.44 3.9-0.47 7.57-3.56 9.94-1.17-0.96-2.58-1.7-3.45-2.96-1.23-1.75 0.31-3.64 0.74-5.37-3.92-0.06-7.22-2.67-8.59-6.25-1.88-3.17-0.65-7.02 0.99-10 3.49-5.99 9.36-10.19 12.56-16.38-2.28-0.91-4.57-1.83-6.88-2.68 3.6-2.36 4.74-6.79 7.78-9.63 2.01-1.68 4.28 0.6 6.11 1.41 0.62-1.74 2.41-3.93 0.63-5.57-1.74-1.34-4.01-1.76-5.99-2.63-3.75 3.58-5.58 8.86-9.92 11.83-2.46 1.66-5.3 0.28-7.66-0.82-0.53-2.63-0.4-5.51-1.91-7.83-1.8-1.15-4-1.34-6.03-1.82 1.59 2.92 4.41 4.87 6.07 7.75-4-1.28-7.17 1.61-10.66 2.91-0.14-1.48-0.26-2.95-0.38-4.41-4-5.05 2.39-10.66 2.17-16.05-1.72-2.1-4.84-0.6-7.13-0.46-1.79 4.97-1.73 11.19-6.45 14.54 3.49 8.13 3.25 17.68-0.58 25.64-1.35 1.38-3.28 2.02-5.07 2.62-8.11 2.37-16.46-3.13-24.47 0.21-3.7 2.03-7.53-1.8-7.01-5.54 0.79-2.77 4.07-2.73 6.23-3.77 1.76-0.61 1.28-2.77 1.37-4.18-0.16-5.98 0.6-12.06 2.8-17.65 3.74-4.06 9.29-5.69 14.69-5.5 4.52-2.23 5.19-8.51 9.44-11.2 1.69-1.01 3.72-0.48 5.57-0.5 0.73-3.27 4.01-4.24 6.99-3.66-0.57-1.84-1.12-3.69-1.66-5.53-7.37 1.62-14.95 3.58-22.55 2.41-3.96-0.62-7.85-2.51-10.31-5.76-1.09-4.76 1.08-9.84-0.68-14.54-0.84-2.38-3.31-3.36-5.11-4.85-2.32-1.79-3.68-4.52-4.5-7.26 0.91-4.75 4.68-8.27 6.19-12.82-5.17-5.31-6.01-12.97-9.34-19.3-1.51-2.96-4.48-5.61-8.02-5.17-1.28 0.26-4.33 0-3.46 2.11 0.46 2.23 1.96 4.08 2.59 6.26-0.51 0.99-1.14 1.92-1.9 2.76-1.59-1.66-4-1.5-5.49 0.17-0.74 2.55-0.99 5.22-1.5 7.83-6.63 1.26-9.78-5.95-15.21-7.97-3.38-0.73-4.97 3.06-6.59 5.29-4.95-1.1-11.41-2.53-12.53-8.39-0.75 0.12-2.25 0.37-3 0.5-0.19-0.57-0.56-1.69-0.74-2.25 0.66-0.18 1.32-0.36 1.99-0.53 0.29 0.57 0.88 1.73 1.18 2.31 1.68-0.6 3.36-1.16 5.05-1.73-1.09-1.54-2.26-3.02-3.34-4.56 1.38-0.86 2.79-1.67 4.19-2.49-3.41-1.59-7.78 0.1-10.75-2.37-3.95-5.99 2.7-13.32-1.58-19.29 3.18-2.79 2.91-7.25 4.68-10.75 2.69-3.7 6.9 0.19 10.38-0.49 7.34-1.1 13-7.62 20.78-6.86 1.51-1.44 2.93-3.37 5.17-3.63 3.97 0.16 6.43 3.88 10.09 4.92 3.09 0.39 4.73-2.63 6.36-4.67 6.89-2.72 15.59-1.46 20.98-7.37 0.27-4.01-1.15-8.64-4.49-11.24-1.3 0.87-2.51 1.95-4 2.51-3.16 0.25-6.54-0.93-9.43 0.9-7.72-3.01-13.88-9.42-17.03-17.03-1.42-3.62 1.15-7.24 3.98-9.29 1.35-1.37 3.86-2.18 3.71-4.45 0.3-4.4 0.48-8.8 0.72-13.19 6.59-1.99 11.84-6.72 18.18-9.24 3.33-1.43 7-1.18 10.43-0.33 1.83-2.69 3.22-5.66 5.18-8.26-2.83-7.56-13.28-8.27-15.35-16.31-1.52-3.78 0.78-8.12 4.65-9.19 3.54 0.93 1.64 5.53 2.63 8.22 4.03-2.12 7.53-5.93 12.38-5.96 2.88-0.25 3.87 3.21 6.44 3.84 4.1 1.07 8.43-1.06 12.49 0.39 2.36 0.93 2.79 3.72 3.5 5.86 1.83 0.47 3.65 0.98 5.47 1.52-0.62-2.42 0.1-5.01 3.05-4.79-0.08 1.77-0.19 3.53-0.32 5.3 6.75-1.66 12.01-6.42 18.31-9.05-0.65-1.81-1.91-3.68-1.05-5.65 1.26-3.86 5.43-5.07 8.77-6.5-0.85-1.62-1.74-3.2-2.66-4.77-1.32 0.45-2.66 0.71-4.03 0.77-0.86-1.86 1.65-2.08 2.57-3.01-0.31-1.19-0.65-2.37-0.82-3.59 0.76-2.84 3.31-4.6 5.29-6.58-1.68-8.38-8.69-14.21-11.26-22.23-2.08 3.79-4.48 8.53-9.45 8.7-0.86-3.73-4.89-2.6-7.7-3.32-5.5 9.17-16.56 11.81-25.68 15.89 1.16 3.12 4.19 4.43 7.12 5.46 2.58 0.72 5.49 4.7 2.01 6.31 1.15 1.23 1.87 3.35 3.7 3.68 0.17-0.68 0.52-2.03 0.69-2.7 3.41-0.78 5.62 2.4 8.56 3.44 0.48 1.19 0.95 2.39 1.41 3.59-3.55 2.31-7.47 0.03-10.19-2.49-1.23-1.39-3.25-0.75-4.86-1.05-1.06-1.3-0.06-3.2-0.15-4.72-6.47-1.06-13.02-2.24-19.02-4.99-3.72-1.68-5.52-6.06-5.45-9.95 0.73-3.83 5.34-2.63 8.13-3.11-3.82-7.94-2.8-16.93-1.58-25.35 8.8-2.67 17.43-6.8 26.83-6.55 2.56 4.86 6.95 9.03 7.21 14.83 2.93-1.26 7.21-1.34 8.61 2.15 0.89-0.27 1.79-0.53 2.7-0.8-1.41-2.03-2.68-4.53-1.36-6.95 1.34-1.46 3.32 0.14 4.73 0.72-0.1 1.65-0.62 3.23-1.11 4.79 1.24 0.01 2.48 0.03 3.73 0.06-0.68-3.07-0.52-6.26-1.14-9.32-0.39-1.83-2.56-1.76-3.91-2.4 0.41-2.47 0.74-5.14 2.48-7.09 4.16-4.8 11.28-5.03 15.82-9.32 2.69-2.43 2.24-6.54 4.45-9.3 1.89-2.91 5.6-5.78 9.16-4.01 8.11 3.64 16.85-3.83 24.8 0.55 5.11-3.25 7.79-10.9 14.71-10.65 1.93 1.14 3.62 2.65 5.46 3.94 1.15-3.72 5.1-4.18 8.19-5.5 1.89-0.52 1.54-2.64 1.86-4.13 1.32 0.37 4.29 1.9 4.61-0.52 0.98-3.66-0.17-8.3 3.08-11.03 6.34-0.52 13.69 1.87 19.15-2.54 4.36-2.75 2.82-9.99 8.49-11.21-1.35-5.55-5.04-10.37-5.36-16.17-0.25-3.17 2.63-5.92 1.79-9.04-1.4-1.11-3.04-1.86-4.42-2.99-1.58-4.98 3.11-8.59 4.24-13.01-0.24-2.27-2.68-2.93-4.33-3.93-1.1-2.34-2.34-4.66-4.16-6.54-2.35 2.09-5.56 1.74-8.47 1.5l0.78-0.9c-3.1-2.2-6.87-3.11-10.54-1.86-0.9-2.3-1.81-4.81-1.02-7.3 1.97-6.66 9.16-10.75 9.66-18.01 0.18-2.44 1.59-4.53 2.01-6.92 0.22-4.09-1.37-8.06-1.1-12.16 0.36-3.92 4.13-7.15 8.07-6.83"/>
  <path id="e" d="m297.81 23.38c0.07-1.48 0.94-3.83 2.89-2.85 4.99 1.8 3.93 9.65-0.92 10.73-2.01-1.51-3.37-3.88-5.07-5.77 1.02-0.72 2.05-1.42 3.1-2.11z"/>
  <path id="f" d="m363.09 27.05c1.16-1.08 2.86-1.65 4.25-0.6-0.19 1.98-1.14 3.77-1.88 5.58-1.87-0.57-4.49-3.37-2.37-4.98z"/>
  <path id="g" d="m240.78 32.71c0.23-2.83 3.26-2.88 5.42-3.07 1.85 3.54 3.54 7.21 3.99 11.22-2.41 1.88-4.81 4.34-8.12 4.14-0.1-4.13-1.43-8.16-1.29-12.29z"/>
  <path id="h" d="m357.79 33.97c1.31-0.13 2.63-0.18 3.96-0.15 1.03 1.71 2.2 3.98 1.07 5.93-3.77 2.29-4.93-3.03-5.03-5.78z"/>
  <path id="i" d="m344.35 51.18c2.65-3.44 7.39-1.44 10.9-0.82 3.62 2.63 5.56 7.28 4.58 11.7 3.46-1.75 7.74-6.09 11.52-2.63 2.29 3.01 3.64 6.63 5.37 9.97-3.03 2.36-6.4 4.21-9.58 6.34-1.24-3.7-4.95-4.65-8.39-5.14-3.26-0.03-2.96-4.67-5.99-5.01-2.71-0.91-4.7 2.08-7.19 2.67-0.46-1.8-1.35-3.61-0.85-5.51 1.01-3.88-2.27-7.87-0.37-11.57z"/>
  <path id="j" d="m498.21 64.14c1.96-1.42 4.28-2.25 6.36-3.5-1.52 3.15-1.39 6.74-2.61 9.96-0.97 2.19-3.74 0.95-5.52 1.16 0.02-2.57-0.51-5.8 1.77-7.62z"/>
  <path id="k" d="m394.1 63.13c2.12-2.09 4.66 0.54 6.04 2.21-1.71 1.64-3.58 3.1-5.66 4.24-0.93-1.99-2.18-4.52-0.38-6.45z"/>
  <path id="l" d="m204.91 68.9c1.42-1.01 3.21 1.36 1.88 2.46-1.37 0.85-3.29-1.39-1.88-2.46z"/>
  <path id="m" d="m254.57 67.93c2 2.37 3.82 4.89 6.04 7.06-0.9 1.84-2.56 3.21-4.72 2.55-1.49-2.87-2.12-6.44-1.32-9.61z"/>
  <path id="n" d="m400.09 72.92c0.65-0.71 1.41-1.32 2.14-1.96 1.11 2.11 2.2 4.26 2.77 6.6-2.17-0.88-4.14-2.35-4.91-4.64z"/>
  <path id="o" d="m442.96 83.94c4.27-1.48 4.84-6.44 7.96-9.06 1.81-1.36 1.77 1.2 1.2 2.26-1.49 3.5-3.14 8.6-7.82 8.26-0.34-0.36-1.01-1.09-1.34-1.46z"/>
  <path id="p" d="m361.7 84.61c-1.36-2.45 1.55-4.02 3.07-5.38 4.41 1.87 4.94 6.88 6.36 10.85-0.95 1.06-1.85 2.15-2.85 3.16-1.86-3.13-4.53-5.65-6.58-8.63z"/>
  <path id="q" d="m203.08 81.67c0.84-0.34 1.69-0.67 2.55-1-0.31 2.91 0.17 6.24-1.81 8.67-1.64-0.03-2.76-1.37-4.07-2.14 1.62-1.51 2.69-3.43 3.33-5.53z"/>
  <path id="r" d="m335.36 85.25c2.2-4.78 8.08-2.23 12.08-3.59-0.84 0.81-1.69 1.6-2.55 2.38 2.11 6.17-4.13 10.06-7.25 14.41-3.71-1.1-1.78-5.02-1.15-7.61 0.95-1.99-0.28-3.85-1.13-5.59z"/>
  <path id="s" d="m477.6 86.57c1.38-1.72 2.83-3.79 5.18-4.19 2.15-0.24 4.35 0.13 6.42 0.74 1.15 3.92-0.47 7.85-1.24 11.67-7.93 2.31-10.99 11.42-18.85 13.85 2.5-7.45 3.75-15.59 8.49-22.07z"/>
  <path id="t" d="m162.87 92.82c-3.38-2.85 0.76-6.84 3.85-7.54 2.25 1.47 4.64 2.69 6.92 4.11-3.13 2-6.84 5.02-10.77 3.43z"/>
  <path id="u" d="m183.91 88.15c1.09-0.66 2.31-1.92 3.69-1.1 0.97 1.06 0.23 2.28-0.7 3.04-1.02-0.6-2.02-1.25-2.99-1.94z"/>
  <path id="v" d="m208.09 94.28c4.84-6.8 14.26-8.01 21.87-6.15 0.61 5.49 0.89 11.59-2.85 16.12 0.63 1 1.26 2 1.87 3.01-2.98-1.79-6.07-3.4-9.21-4.89-4.32-2.07-7.3-6.12-11.68-8.09z"/>
  <path id="w" d="m442.69 88.88c1.98-0.43 3.97-0.76 5.99-1.03-0.78 2.5-2 4.88-4.34 6.25-0.6-1.73-1.16-3.46-1.65-5.22z"/>
  <path id="x" d="m192.2 89.69c0.62-0.3 1.85-0.92 2.47-1.22l-0.72 3.16c0.37 0.72 1.1 2.17 1.47 2.89 0.98-0.82 1.85-2.45 3.39-1.65 2.31 0.64 4.68 0.47 7.02 0.05-0.14 2.42-0.39 4.83-0.66 7.24-4.64 0.24-9.05-1.85-13.71-1.37-1.96-2.77 0.16-5.2 2.5-6.76-0.44-0.58-1.32-1.75-1.76-2.34z"/>
  <path id="y" d="m317.93 90.18c1.37-0.54 2.76-1.55 4.31-1.04 0.64 1.82 0.63 3.78 0.4 5.67-3.01 1.54-4.16-2.45-4.71-4.63z"/>
  <path id="z" d="m407.4 98.63c0.73-2.63 4.21 1.82 1.64 2.04-0.41-0.51-1.23-1.53-1.64-2.04z"/>
  <path id="aa" d="m484.53 107.51c-1.17-4.74 2.35-8.82 6.6-10.28-0.53 4.17-2.08 8.95-6.6 10.28z"/>
  <path id="ab" d="m208 100.96c1.13-0.92 3.21-0.89 3.86 0.59 2.92 4.38 3.07 10.86-0.51 14.91-3.36 2.75-8.34 2.85-12.08 0.81-3-1.45-6.78-3.59-6.4-7.49 0.44-2.57-0.84-6.06 1.59-7.83 1.6 2.28 4.03 0.87 6.1 0.35 0.37 0.59 1.09 1.78 1.45 2.38 2.33-0.62 3.97-2.53 5.99-3.72z"/>
  <path id="ac" d="m465.52 104.97c0.98 0.57 1.36 1.75 2.05 2.62-0.78 0.47-1.5 1.01-2.31 1.38-0.76-0.66-1.49-1.36-2.17-2.1 0.61-0.47 1.82-1.42 2.43-1.9z"/>
  <path id="ad" d="m263.46 109.63c-0.16-2.29 1.52-3.79 3.41-4.68 0.62 3.47 2.75 6.44 3.44 9.87 0.04 2.58-4.95 2.29-4.06 5.08 1.13 1.93-0.34 3.69-1.41 5.2-1.28-1.03-2.55-2.09-3.77-3.18 1.31-0.7 2.63-1.37 4.04-1.88 0.2-3.59-1.37-6.89-1.65-10.41z"/>
  <path id="ae" d="m253.51 106.83c1.06 0.43 2.11 0.87 3.17 1.32-0.73 0.96-1.25 2.19-2.45 2.66-0.3-1.32-0.54-2.64-0.72-3.98z"/>
  <path id="af" d="m366.96 108.52c2.3 1.41 2.71 4.08 2.86 6.57-2.13-1.56-3.04-3.98-2.86-6.57z"/>
  <path id="ag" d="m525.25 112.98c4.45-1.29 8.94-2.58 13.48-3.48 4.26 0.38 6.17 4.74 8.67 7.59 1.35 2.03 3.7 2.82 5.82 3.77-0.32 8.66-6.69 15.44-13.43 20.11-3.9 0.33-7.22 2.68-11.05 3.24-3.72 0.27-3.29-4.44-4.9-6.6-3.21-4.09-7.36-8.38-7-13.99 0.64-4.69 3.71-9.25 8.41-10.64z"/>
  <path id="ah" d="m240.93 113.05c1.72-0.79 3.71-0.38 5.48 0.03 0.87 2.01-0.26 4.04-2.44 4.25-2.52 1.19-5.51-2.43-3.04-4.28z"/>
  <path id="ai" d="m286.51 118.47c1.67-1.65 3.2 0.18 4.15 1.55-0.6 0.72-1.21 1.44-1.81 2.16-0.23 0.74-0.47 1.49-0.71 2.24-1.18-1.66-3.64-3.95-1.63-5.95z"/>
  <path id="aj" d="m473.29 121.31c1.2-0.42 2.41-0.8 3.64-1.16-0.4 0.85-0.81 1.68-1.26 2.51-0.82-0.42-1.61-0.87-2.38-1.35z"/>
  <path id="ak" d="m192.69 121.35c0.53-0.27 1.61-0.8 2.15-1.07 0.04 1.48 0.05 2.97-0.06 4.45-0.78-1.07-1.61-2.13-2.09-3.38z"/>
  <path id="al" d="m238.37 121.93c1.16-0.54 2.34-1.07 3.52-1.58 0.22 0.65 0.66 1.94 0.88 2.59-0.14 0.54-0.44 1.63-0.58 2.17-1.31-1.03-2.6-2.06-3.82-3.18z"/>
  <path id="am" d="m113.55 127.32c-0.28-2.76 1.28-4.71 3.58-5.9 0.37 1.31 0.78 2.63 1.19 3.94-0.5 0.05-1.48 0.16-1.98 0.21-0.7 0.43-2.09 1.31-2.79 1.75z"/>
  <path id="an" d="m312.1 122.23c2.99 1.67 3.58 5.19 4.03 8.28 3.37-0.73 5.74-3.34 8.65-4.96 2.98 0.13 3.05 4.02 3.89 6.19 1.17 2.18-1 3.49-2.58 4.45-0.11 1.93-0.25975 3.8498-0.40975 5.7798-1.86 0.28-3.9802-0.12975-5.6602 0.84025-2.04 2.77-3.33 6.74-7.23 7.39-2.6-0.42-5.67-0.8-6.96-3.5 0.69-0.48 1.37-0.95 2.06-1.43l0.16 2.62c-0.85-4.28 4.79-5.85 3.47-9.95 4.52-4.43 1.19-10.47 0.58-15.71m-2.16 24.08c1.84 0.4 4.07 1.5 5.55-0.33-1.87-0.74-3.88-1.19-5.55 0.33z"/>
  <path id="ao" d="m479.65 122.63c0.99 1.11 1.96 2.25 2.89 3.43-1.28 0.78-2.56 1.53-3.84 2.27-0.25-0.67-0.74-1.99-0.99-2.66 0.64-1.01 1.29-2.02 1.94-3.04z"/>
  <path id="ap" d="m222.64 126.99c2.31-0.44 4.93 0.06 6.35 2.08-2.19-0.45-4.38-1-6.35-2.08z"/>
  <path id="aq" d="m200.25 134.13c1.44-2.14 1.43-6.4 4.87-6.14-0.03 3.06-0.13 6.21-1.48 9.03-1.15-0.95-2.27-1.92-3.39-2.89z"/>
  <path id="ar" d="m556.38 140.54c1.39-0.56 2.79-1.12 4.2-1.68 0.6 2 1.19 4 1.79 6.01-0.76 0.36-2.28 1.09-3.04 1.45-0.99-1.93-1.98-3.85-2.95-5.78z"/>
  <path id="as" d="m287 155.99c0.57 0.7 0.57 0.7 0 0z"/>
  <path id="at" d="m148.79 164.13c1.51-0.64 3.33-1.97 4.77-0.44 1.02 1.68-1.45 2.61-2.34 3.69-0.82-1.08-1.63-2.16-2.43-3.25z"/>
  <path id="au" d="m61.41 165.66c3.61-0.53 6.74 1.3 9.89 2.73 2.19 1.07 4.54 0.13 6.75-0.34-0.34 1.01-0.67 2.02-1.01 3.02-5.92 1.35-11.15-1.99-15.63-5.41z"/>
  <path id="av" d="m273.98 173.01c0.61 0.69 0.61 0.69 0 0z"/>
  <path id="aw" d="m150.54 177.53c1.32-1.34 2.81-2.49 4.37-3.54 0.36 0.55 1.09 1.66 1.45 2.21-0.78 2.07-2.08 3.97-4.5 3.99-0.33-0.66-0.99-1.99-1.32-2.66z"/>
  <path id="ax" d="m401.94 179.99c0.57 0.6 0.57 0.6 0 0z"/>
  <path id="ay" d="m58.47 188.66c-0.85-1.81 0.92-2.94 1.97-4.08 3.21 1.28 6.83 2.4 8.69 5.59 1.74 2.91 4.41 5.48 8.11 4.76 1.16 3.98-3.39 5.46-6.5 5.47-2.93-0.51-5.47-2.2-8.17-3.38-0.91-3-2.77-5.55-4.1-8.36z"/>
  <path id="az" d="m84.58 188.18c0.95-0.39 1.91-0.77 2.87-1.14 0.89 1.87 1.57 3.84 2.01 5.87-2.27-0.78-4.63-2.06-4.88-4.73z"/>
  <path id="ba" d="m552.63 196.67c0.97-3.84 5.01-3.66 8.17-3.82 0.99 1.99 1.85 4.04 2.63 6.12-3.44 3.81-7.87 0.12-10.8-2.3z"/>
  <path id="bb" d="m566.49 199.87c2.97-1.78 5.78 1.41 7.79 3.3 1.45 2-1.53 1.39-2.65 1.27-2.53-0.4-4.93-1.72-6.16-4.04z"/>
  <path id="bc" d="m575.38 206.23c1.03-0.59 2.05-1.16 3.11-1.71 0.29 1 0.57 2 0.85 3-1.33-0.4-2.66-0.84-3.96-1.29z"/>
  <path id="bd" d="m78.6 207.03c2.65 1.25 5.52 0.76 8.32 0.92 2.16 0.48 2.06 3.19 2.86 4.82-2.01 1.3-4.51 2.65-6.89 1.37-2.98-1.08-3.47-4.49-4.29-7.11z"/>
  <path id="be" d="m101.12 209.97c1.89-0.75 2.25 1.69 3.16 2.76-1.88 0.67-4.81-0.47-3.16-2.76z"/>
  <path id="bf" d="m615.8 212.99c1.17-0.86 2.47-1.54 3.75-2.24 0.28 0.82 0.57 1.64 0.85 2.47-1.57 0.33-4.72 2.86-4.6-0.23z"/>
  <path id="bg" d="m33.89 220.22c1.13-1.16 2.37-2.99 4.24-2.65 1.75 0.37 2 2.46 2.82 3.77-1.47 0.75-2.96 1.49-4.44 2.22-0.91-1.09-2-2.05-2.62-3.34z"/>
  <path id="bh" d="m141.1 220.73c2.02-1.45 4.07-2.85 6.29-3.98 0.45 3.04-2.16 4.86-4.11 6.66-0.73-0.89-1.46-1.78-2.18-2.68z"/>
  <path id="bi" d="m77.89 226.72c2.21-4.11 7.6-3.36 11.51-3.47 0.56 1.6 0.93 3.26 0.71 4.95-4.27-0.73-7.4 3.51-11.5 2.9-0.57-1.31-1.85-3.04-0.72-4.38z"/>
  <path id="bj" d="m136.4 224.95c1.31-0.25 2.64-0.46 3.96-0.65-0.03 0.58-0.1 1.74-0.13 2.32-1.29-0.53-2.57-1.08-3.83-1.67z"/>
  <path id="bk" d="m53.5 226.33c2.93-1.36 4.98 2.1 6.7 3.92 2.27 2.53 1.67 6.12-0.3 8.61 0.06 1.6 0.1 3.2 0.11 4.81-3.65-2.65-8.18-1.87-12.38-2.06-2.92 0.07-4.87-3.84-3.02-6.1 2.27-3.59 4.48-7.92 8.89-9.18z"/>
  <path id="bl" d="m96.77 229.2c0.42 0.17 1.27 0.52 1.69 0.7 0.44 1.25 0.87 2.51 1.27 3.79-1.05-0.39-2.99 0.38-3.32-1.05-0.51-1.13 0.24-2.31 0.36-3.44z"/>
  <path id="bm" d="m147.35 227.75c2.02 0.74 4.02 1.53 5.96 2.47-1.07 0.83-2.12 1.72-3.36 2.3-2.35-0.05-2.01-3.26-2.6-4.77z"/>
  <path id="bn" d="m95.96 245.51c-0.87-3.39-2.84-7.98 0.81-10.44 0.93 3.14 1.77 6.3 2.57 9.47-1.12 0.34-2.25 0.65-3.38 0.97z"/>
  <path id="bo" d="m71.63 245.25c1.74 0.25 2.53 1.76 3.41 3.08 0.54 0.04 1.61 0.11 2.15 0.15 2 4.25 9.2 6.7 6.61 12.21-6.75-2.17-10.68-8.87-12.17-15.44z"/>
  <path id="bp" d="m623.94 248.24c4.65-1.54 9.46 0 13.95 1.35 0.71 5.6-6.69 8.05-11.22 7.15-1.94-2.35-2.88-5.47-2.73-8.5z"/>
  <path id="bq" d="m71.25 272.29c1.76-1.31 3.71 0.18 5.38 0.88-0.48 2.13-2.96 2.94-4.79 3.57-1.46-0.97-1.55-3.11-0.59-4.45z"/>
  <path id="br" d="m0 275.77c1.22-1.87 3.18-3.18 5.49-2.84 1.32 1.26 1.93 3.04 2.88 4.56-2.93 1.15-6.8 1.79-8.37-1.72z"/>
  <path id="bs" d="m11.75 290.18c0.73-0.77 1.65-2.93 2.74-1.41 1.58 1.91-1.53 2.49-2.74 1.41z"/>
  <path id="bt" d="m10.24 300.03c-2.59 1.91-3.71-3.05-0.54-2.59 1.08 0.64 1.26 1.5 0.54 2.59z"/>
  <path id="bu" d="m28.86 335.36c2.64-1.63 5.39-3.08 8.14-4.52 0.39 1.63 2.17 3.39 1.08 5.08-2.79-0.46-5.33 0.53-7.56 2.12-0.41-0.67-1.24-2.01-1.66-2.68z"/>
  <path id="bv" d="m664.58 336.75c0.47 0.87 0.94 1.74 1.43 2.63-1.33 1.17-2.64 2.35-3.97 3.51 0.84-2.05 1.7-4.09 2.54-6.14z"/>
  <path id="bw" d="m620.71 340.79c1.18-0.73 2.56-2.13 4.02-1.17 0.74 1.37 1.23 2.86 1.81 4.31-1.97-1.01-3.91-2.06-5.83-3.14z"/>
  <path id="bx" d="m606.88 344.12c1.09-0.87 2.19-1.72 3.32-2.55 1.81 2.04 3.42 4.31 3.95 7.05-2.54-1.31-4.96-2.83-7.27-4.5z"/>
  <path id="by" d="m64.77 343.81c1.63-0.68 2.2-0.2 1.72 1.44-1.66 0.65-2.23 0.17-1.72-1.44z"/>
  <path id="bz" d="m622.07 352.98c2.19-4.33 6.53-6.91 10.72-9 1.28 1.09 2.51 2.3 4.06 3.04 3.03 0.74 5.89-1.13 8.89-1.31 1.55 0.23 2.79 1.24 4.14 1.96-0.31 1.12-0.62 2.25-0.91 3.39 4.62 1.04 5.67-4.17 8.3-6.67 0.8 3.04 2.54 6.68-0.44 9.12-0.49-0.49-1.47-1.46-1.96-1.95-1.42 2.98-4.5 4.06-7.57 2.92 1.13 3.52-2.34 5.98-3.74 8.82-1.52-0.78-2.89-2.28-4.72-2.07-4.1 0.86-6.98 4.62-11.16 5.18-2.07 0.3-3.61-1.4-4.57-3.01-1.89-3.07-2.73-7.07-1.04-10.42z"/>
  <path id="ca" d="m670.08 358.15c1.48-1.44 3.28-2.48 5-3.62-0.87 2.27-1.74 4.62-3.42 6.43-1.64-0.02-2.1-1.47-1.58-2.81z"/>
  <path id="cb" d="m649.44 362.2c1.91 0.79 3.84 1.57 5.78 2.35-0.36 1.01-0.74 2.02-1.09 3.05-1.23-0.65-2.49-1.33-3.7-1.97-0.32 0.54-0.95 1.64-1.27 2.18 0.1-1.87 0.19-3.74 0.28-5.61z"/>
  <path id="cc" d="m661.28 371.01c1.33 0.25 2.64 0.53 3.98 0.85-1.06 0.71-2.11 1.42-3.17 2.12-0.29-1-0.56-1.99-0.81-2.97z"/>
  <path id="cd" d="m680.72 372.67c1.7-0.76 3.53-1.16 5.33-1.68 0.56 1.42 1.18 2.86 1.38 4.39-1.31 1.08-2.88 1.74-4.36 2.53-1.12-1.59-2.97-3.06-2.35-5.24z"/>
  <path id="ce" d="m669.87 379.63c1-0.72 3.2 0.37 2.41 1.68-1.2 1.21-4.78-0.27-2.41-1.68z"/>
  <path id="cf" d="m632.25 382.77c-0.58-1.31 1.78-1.99 2.6-1.23 0.67 1.38-1.78 2.01-2.6 1.23z"/>
  <path id="cg" d="m13.23 384.03c1.1-1.58 3.79 0.92 2.32 2.12-1.37 1.15-3.68-0.63-2.32-2.12z"/>
  <path id="ch" d="m694.39 388.31c1.29-1.33 3.75 0.33 2.76 1.98-1.14 0.97-4.01-0.46-2.76-1.98z"/>
  <path id="ci" d="m5.23 399.23 2.52-0.48c-0.16 1.16-0.32 2.33-0.49 3.51-0.43-0.07-1.28-0.21-1.7-0.28-0.11-0.92-0.22-1.84-0.33-2.75z"/>
  <path id="cj" d="m583.37 400.5c4.2 0.24 8.17 1.9 11.39 4.6-2.97 0.45-6.24 1.45-9.09 0.04-1.86-0.74-1.75-3.07-2.3-4.64z"/>
  <path id="ck" d="m605.19 403.14c0.89-0.8 2.97 0.25 2.36 1.51-0.9 0.95-2.92-0.31-2.36-1.51z"/>
  <path id="cl" d="m22.62 411.31c-0.29-1.42-1.04-3.07 0.29-4.27 1.3 0.75 1.61 2.23 2.12 3.53-0.6 0.18-1.81 0.56-2.41 0.74z"/>
  <path id="cm" d="m630.91 418.57c3.08-2.29 7.04-2.1 10.21-0.02-2.58 1.5-5.24 2.85-7.89 4.2-0.82-1.38-1.59-2.78-2.32-4.18z"/>
  <path id="cn" d="m59.11 427.71c2.15-1.36 4.17-3.09 6.69-3.72 1.82-0.28 3.13 1.07 4.39 2.14-0.92 2.16-1.81 4.35-2.75 6.52-3.35-0.24-7.8-0.79-8.33-4.94z"/>
  <path id="co" d="m608.53 448.68c2.46-2.03 5.65-1.65 8.46-0.63 1.16 2.43 2.36 4.84 3.45 7.3-3.66 0.82-6.88-2-10.55-1.12-0.46-1.85-1.26-3.64-1.36-5.55z"/>
  <path id="cp" d="m654.06 457.63c1.11-1.4 3.4 0.41 2.36 1.83-1.05 1.44-3.41-0.49-2.36-1.83z"/>
  <path id="cq" d="m621.93 462.97c3.68-3.02 8.42-6.07 13.28-3.72 3.52 2.7 5.51 6.91 8.2 10.38-0.43 2.09-2.26 3.95-4.52 3.68-3.3-0.86-5.72-3.37-8.24-5.49-2.55-2.23-6.03-2.84-8.72-4.85z"/>
  <path id="cr" d="m648.4 466.75c0.74-1.08 1.67-1.25 2.78-0.51 0.02 0.51 0.05 1.54 0.06 2.05-1.06 0.87-3.11-0.13-2.84-1.54z"/>
  <path id="cs" d="m585.54 473.5c1.6-1.05 3.29-1.95 5.05-2.72 0.28 1.07 0.54 2.16 0.81 3.26-0.49 0.47-1.47 1.39-1.95 1.85-1.32-0.8-2.61-1.59-3.91-2.39z"/>
  <path id="ct" d="m618.33 481.49c0.99-0.92 2.96 0.01 2.72 1.42-0.58 2.47-4.38 0.44-2.72-1.42z"/>
  <path id="cu" d="m574.46 486.63c1.48-0.32 3.38-1.94 4.52-0.11 1.76 2.18 3.38 4.48 5.15 6.67 0.47 2.99 0.64 6.03 1.43 8.99-5.95-3.28-7.36-10.38-11.1-15.55z"/>
  <path id="cv" d="m625.85 490.16c1.78-1.16 3.83-1.72 5.85-2.28l1.8 0.88c-1.68 2.32-6.04 5.28-7.65 1.4z"/>
  <path id="cw" d="m635.5 490.38c1.89-1.04 3.93-1.74 6.12-1.69 0.27 0.84 0.54 1.69 0.82 2.54-2.39 0.87-5.22 1.55-6.94-0.85z"/>
  <path id="cx" d="m500.79 495.19c1.55-0.64 3.13-1.2 4.75-1.66 0.08 0.9 0.23 1.86 0.32 2.79-1.3 0.43-2.39 1.71-3.72 1.83-0.48-0.98-0.93-1.97-1.35-2.96z"/>
  <path id="cy" d="m560.51 497.78c0.99 0.83 2.91 1.2 2.77 2.84-0.78 2.83-2.17 5.45-3.04 8.25-3.09-3.16-0.11-7.47 0.27-11.09z"/>
  <path id="cz" d="m598.21 506.01c1.98-1.12 3.08 1.78 4.49 2.74 4.23-1.41 10.09 1.03 9.95 5.97-1.64 3.29-4.86 5.5-6.44 8.86-3.01 0.03-6.35 0.46-9.02-1.2-1.98-1.19-2.7-3.48-3.57-5.46 4.07-2.18 3.7-7.04 4.59-10.91z"/>
  <path id="da" d="m533.96 510c1.77-0.69 3.31 2.34 1.01 2.61-1.8 0.68-3.24-2.29-1.01-2.61z"/>
  <path id="db" d="m559.69 514.44c-2.34-1.16-2.83-3.88-0.81-5.72 1.2 1.73 1.6 3.74 0.81 5.72z"/>
  <path id="dc" d="m507.5 517.81c2.13-1.27 3.79-5.87 6.55-4.34 1.02 3.47-3.98 4.22-6.26 5.43-0.08-0.27-0.22-0.82-0.29-1.09z"/>
  <path id="dd" d="m567.11 516.24c3.64-0.31 7.3 0.68 10.96 0.12-0.45 1.7-0.51 3.59-1.54 5.09-3.54 1.97-7.62 0.24-11.24-0.51 0.44-1.58-0.5-4.47 1.82-4.7z"/>
  <path id="de" d="m615.04 522.71c0.59-2 4.18-0.13 2.88 1.47-1.07 0.53-2.96-0.1-2.88-1.47z"/>
  <path id="df" d="m112.82 532.02c3.34-0.51 6.61-1.44 9.96-1.95 2.95-0.58 3.44 2.88 4.05 4.93 3.15 0.32 7.29-0.42 8.66 3.27-2 0.51-4.01 1-6.02 1.46 2.3 6.29 2.74 13.52-0.78 19.46-5.31 1.28-10.4 3.72-15.93 3.91-3.96 0.09-8.59-1.73-9.65-5.93-1.3-4.07-6.22-5.47-7.51-9.53 2.45-7.91 10.26-12.21 17.22-15.62z"/>
  <path id="dg" d="m549.82 530.28c0.17-1.64 2.34-0.71 2.95 0.13 0.09 0.42 0.26 1.24 0.35 1.65-1.26 0.91-3-0.52-3.3-1.78z"/>
  <path id="dh" d="m78.24 534.76c1.7-0.98 3.5-3.25 5.65-1.95-0.14 2.7-4.35 5.37-5.65 1.95z"/>
  <path id="di" d="m137.99 538.45c1.52-1.07 3.36-2.71 5.28-1.42 2.05 1.35 5.94 1.51 5.81 4.68-1.62 2.59-5.29 2.23-7.8 3.45-1.1-2.24-2.21-4.47-3.29-6.71z"/>
  <path id="dj" d="m592.77 544.37c-1.04-3.19 1.2-5.47 3.81-6.79 0.22 2.03-0.35 3.98-1.13 5.83-0.9 0.32-1.79 0.64-2.68 0.96z"/>
  <path id="dk" d="m508.37 545.05c0.7-0.93 1.42-1.84 2.17-2.73 0.6 0.69 1.21 1.39 1.82 2.1-1.34 0.21-2.66 0.43-3.99 0.63z"/>
  <path id="dl" d="m560.91 552.54c1.69 0.53 3.33 1.27 4.53 2.66 0.18-0.07 0.55-0.21 0.73-0.28-0.7 1.06-1.39 2.12-2.07 3.2-2.23-1.03-3.17-3.24-3.19-5.58z"/>
  <path id="dm" d="m493.78 568.5c1.64-0.23 3.28-0.41 4.94-0.56 0.17 0.69 0.33 1.39 0.49 2.1-1.13 0.85-2.27 1.69-3.39 2.54-0.68-1.37-1.36-2.73-2.04-4.08z"/>
  <path id="dn" d="m442.4 574.78c-0.29-2.31 2.14-3.06 3.58-4.26-0.21 3.65 2.53 6.18 4.14 9.14-0.21 1.21-0.69 2.37-1.09 3.54-0.7 0.15-2.09 0.45-2.79 0.6-0.69-3.26-2.59-6.01-3.84-9.02z"/>
  <path id="do" d="m153.28 581.95c1.84-3.66 4.77-6.79 8.75-8.09-0.16 4.58-4.1 8.41-8.75 8.09z"/>
  <path id="dp" d="m485 575.5c2.55 2.21 5.84 3.6 9.25 2.73 2.99 3.72 7.84 4.66 12.06 6.29-0.64 1.72-0.69 4.09-2.57 5-2.85 1.49-6.19 2.22-8.38 4.77-3.1-0.74-6.02 0.73-8.98 1.37-3.9-6.13 0.98-13.56-1.38-20.16z"/>
  <path id="dq" d="m542.51 584.93c1.66-3.12 4.53-6.14 8.31-6.12 2.35 0.11 4.9 3.67 2.51 5.39-1.29 1.32-2.69 2.67-4.49 3.24-2.21-0.56-4.24-1.64-6.33-2.51z"/>
  <path id="dr" d="m511.61 589.64c1.36-1.63 4.93-0.91 4.36 1.53-0.83 1.93-2.98 2.89-4.49 4.24-1.67-1.64-2.07-4.37 0.13-5.77z"/>
  <path id="ds" d="m438.44 596.1c1.12-2.19 1.72-4.65 3.2-6.64 1.85-0.16 3.17 1.83 2.4 3.48-1.05 1.81-2.57 3.29-3.91 4.88-0.43-0.43-1.27-1.29-1.69-1.72z"/>
  <path id="dt" d="m343.12 593.74c0.6-0.48 1.2-0.96 1.81-1.42 0.76 1.04 1.52 2.09 2.28 3.15-0.28 0.25-0.84 0.73-1.12 0.98-0.91-1.01-1.56-2.36-2.97-2.71z"/>
  <path id="du" d="m194.37 599.03c0.75-1.5 1.71-2.88 2.58-4.31 0.76 0.36 1.52 0.73 2.28 1.11 0.38 0.86 0.76 1.73 1.15 2.6-0.39-0.04-1.19-0.12-1.59-0.16-1.42 0.37-3.01 2.2-4.42 0.76z"/>
  <path id="dv" d="m228.98 596.39c1.44-0.23 2.89-0.39 4.35-0.5 0.88 2.21 0.2 4.24-2.04 5.17-0.8-1.55-1.57-3.1-2.31-4.67z"/>
  <path id="dw" d="m168.44 607.47c-2.72-1.32-2.62-6.25 0.36-6.6 0.8 2.16 0.17 4.46-0.36 6.6z"/>
  <path id="dx" d="m192.36 603.65c1.1-2.48 5.16-3.59 6.18-0.41-3.49 3.02-6 7.56-10.7 8.89 1.94-2.59 3.13-5.6 4.52-8.48z"/>
  <path id="dy" d="m330.48 613.85c2.16-4.24 6.88-6.17 10.53-8.89 2.46 3.93 0.21 8.37-0.76 12.4-1.84 2.29-4.85 2.86-7.62 3-1.15-1.92-3.4-4.11-2.15-6.51z"/>
  <path id="dz" d="m138.02 608.35c2.24-0.72 4.55-1.18 6.89-1.43-0.32 2.34-0.94 4.62-1.37 6.94 0.92 0.44 1.87 0.85 2.83 1.22 0.98-1.63 2.04-3.23 3.46-4.51-1.01 4.87-0.4 10.02-2.17 14.72-1.11 3.41-0.32 7.07-1.05 10.55-1.63 1.4-4.36 1.87-5.94 0.16-3.69-4.44-7.23-9.33-7.85-15.25-1.3-5.31 6.14-7.08 5.2-12.4z"/>
  <path id="ea" d="m294.84 615.56c3.71-2.91 6.09-7.2 10.15-9.7 1.45 2.08 2.39 4.45 2.43 7.02-1.55 0.3-3.08 0.65-4.6 1.04-0.75 2.34-2.07 4.58-4.54 5.39-2.15 0.56-3.22 2.45-4.36 4.17-0.29-0.95-0.62-1.89-0.84-2.84 0.63-0.22 1.89-0.68 2.51-0.9-0.22-1.41-0.47-2.8-0.75-4.18z"/>
  <path id="eb" d="m385.12 609.82c0.76-1.23 1.55-2.44 2.41-3.61 0.11 1.43 0.16 2.86 0.18 4.3-0.65-0.18-1.94-0.52-2.59-0.69z"/>
  <path id="ec" d="m273.2 619.32c-3.14-3.45-2.5-8.75-1-12.8 0.7 0.37 2.09 1.1 2.79 1.47 0.57 4.23 4.78 7.6 3.18 12.09-1.7 0.13-3.88 1.19-4.97-0.76z"/>
  <path id="ed" d="m317.72 615.77c-0.92-1.86 1.08-3.02 2.37-3.88 1.38 1.82 2.03 4.03 2.14 6.31-1.97 0.55-4.27-0.08-4.51-2.43z"/>
  <path id="ee" d="m118.94 620.9c2.62-1.42 4.6-3.67 6.73-5.69 2.42 4.93-0.29 10.01-3.02 14.14-3.69 0.67-7.01 2.62-10.73 3.14-2.32-0.14-3.13-2.7-2.77-4.66 2.51-3.25 6.34-4.93 9.79-6.93z"/>
  <path id="ef" d="m412.06 626.36c1.2 1.3 2.18 2.77 3.11 4.29-0.96 0.14-1.92 0.29-2.87 0.43-0.34-1.56-0.48-3.15-0.24-4.72z"/>
  <path id="eg" d="m316.13 633.89c1.45 0.31 1.84 1.87 2.57 2.96-0.9 0.82-1.74 1.72-2.65 2.54-0.85-1.87-2.15-4.1 0.08-5.5z"/>
  <path id="eh" d="m280.32 651.02c-3.93-4.28-4.17-12.34 1.49-15.29 3.19 3.07 7.53 0.71 11.28 0.49-0.51 2.18-2.42 4.24-1.63 6.58 1.18 4.07 1.08 9.82-3.5 11.69-2.39-1.46-4.62-3.65-7.64-3.47z"/>
  <path id="ei" d="m474.66 641.57c1.61-1.32 3.66-1.83 5.57-2.55 0.53 4.51 3.33 9.17 1.65 13.68-2.06 3.39-5.43-0.21-6.68-2.39-1.2-2.57-3.52-6.63-0.54-8.74z"/>
  <path id="ej" d="m376.16 641.71c1.4-1.01 4.32-3.7 5.29-0.94-0.12 2.95 4.23 7.31 0 8.81-1.97-2.48-3.6-5.2-5.29-7.87z"/>
  <path id="ek" d="m320.85 645.39c-2.6-2.27 1.96-4.69 3.92-5.41 1.63 1.1 2.07 3.11 2.86 4.8-1.82 1.79-4.96 3.26-6.78 0.61z"/>
  <path id="el" d="m272.39 668.22c-1.88-2.74-2.84-6.69 0.37-8.84 1.06 2.2 4.63 4.92 1.83 7.14-0.55 0.42-1.65 1.28-2.2 1.7z"/>
  <path id="em" d="m279.93 662.38c-0.52-1.17 0.82-3.51 2.19-2.68 0.62 1.18-0.93 3.19-2.19 2.68z"/>
  <path id="en" d="m423.06 665.01c1.31-1.01 3.25 1.06 2.12 2.32-1.28 1.3-3.08-1.15-2.12-2.32z"/>
  <path id="eo" d="m233.17 667.17c1.46-1.17 2.57 0.92 3.48 1.8 0.33 1.85-1.28 3.34-2.85 3.98-2.7-0.57-2.78-4.52-0.63-5.78z"/>
  <path id="ep" d="m264.56 671.01c1.24-1.15 2.31-2.55 3.9-3.23 0.83 1.39 2.43 3.22 1.38 4.88-0.72 0.87-1.6 1.58-2.43 2.35-0.96-1.34-1.9-2.66-2.85-4z"/>
  <path id="eq" d="m340.05 673.12c0.3 0.11 0.88 0.33 1.17 0.44 1.23 0.53 2.48 1.14 3.69 1.76-2.11 0.52-4.27 0.74-6.44 0.77 0.52-1.01 1.04-2 1.58-2.97z"/>
  <path id="er" d="m348.29 676.75c0.36-0.2 1.08-0.59 1.44-0.79 2.01 1.28 1.07 2.95-0.06 4.46-0.44-1.24-0.92-2.46-1.38-3.67z"/>
  <path id="es" d="m251.24 681.06c1.29-4.1 6.41-3.57 9.76-4.39 3.75 2.03 4.88 6.58 8.27 9.04-1.6 2.66-3.19 5.67-6.46 6.51 0.93 3.59 1.68 7.22 2.49 10.84-1.81 1.18-4.18 3.48-6.36 1.73-3.08-3.28-4.05-8.49-8.6-10.3 1.72-4.33 0.33-8.97 0.9-13.43z"/>
  <path id="et" d="m327.67 681.74c0.67-1.69 2.6-2.19 4-3.09 1.81 2.54 4.45 6.08 2.26 9.19-1.23 2.15-3.68 2.31-5.88 2.06-0.46-2.66-1.48-5.53-0.38-8.16z"/>
  <path id="eu" d="m395.47 684.29c0.56-2.06 2.9-2.61 4.64-3.3 0.14 0.71 0.42 2.12 0.56 2.83-1.27 1.28-3 1.96-4.6 2.72-1.05-0.21-0.55-1.53-0.6-2.25z"/>
 </g>
 <g id="ev" fill="#fff">
  <path id="ew" d="m342.18 142.96c0.48 1.74 1.0603 3.4594 1.8003 5.1094-2.07 2.19-4.4206 4.3904-7.5806 4.6904-0.19-0.67-0.58955-2.03-0.78955-2.71-2.1-1.64-4.11-3.431-5.71-5.5811 0.89684-0.70948 1.3581-1.4056 1.8311-2.1644-1.3953-0.31763-3.6455-0.33514-6.051-0.33514-1.0105 0-1.9513 0.0291-2.9592 0.0396-3.7176 0.0387-5.3248 0.79621-5.2231 1.8438 0.15159 1.5613-0.84337 4.2308-5.2227 4.2308-4.2258 0-1.7838-3.8845-2.8953-3.7523-0.94456 0.11237-1.8806 0.24718-2.8016 0.4072-1.7117 0.2974-3.4222 0.4802-4.938 1.1719 0.38 1.22 0.7792 2.4494 1.1792 3.6694-1.12 1.94-2.3991 3.7895-3.8291 5.5195-0.50999-0.29-1.5408-0.85991-2.0508-1.1499-0.57 0.28999-1.7093 0.8599-2.2793 1.1499-0.97-0.46-1.9509-0.90008-2.9209-1.3301-0.96-1.06-1.87-2.1591-2.94-3.0791-1.92 0.69-3.6797 1.7202-5.4697 2.6602-0.59001 2.09-1.3092 4.2999-3.4292 5.3599 0.65-1.58 1.3491-3.1402 2.0991-4.6802-19.52 10.9-35.07 28.769-42.85 49.749-3.51 9.25-5.3208 19.07-6.0308 28.91-0.21 6.54 0.16128 13.09-0.17871 19.62 1.22-0.33 2.4397-0.62966 3.6797-0.90967 0.98001 1.16 1.9695 2.31 2.9795 3.46-0.93 1.32-1.8801 2.6202-2.8301 3.9302 0.12 0.33 0.37071 0.98982 0.49072 1.3198-0.52 0.82001-1.0305 1.6505-1.5205 2.5005-0.58 0.24-1.73 0.74024-2.3101 0.99024-0.81 3.9-0.32982 7.9687 0.18018 11.889 0.55-0.52 1.1202-1.0398 1.6802-1.5498 1.72 0.58999 3.4496 1.2607 4.8296 2.5107l-1.7197 2.6792c-0.62-1.08-1.1107-2.2202-1.4707-3.4102-1.28 0.89-2.5489 1.7909-3.8188 2.6909 0 3.25-0.21116 6.5103 0.0688 9.7603 0.43999 0.4 1.3207 1.2099 1.7607 1.6099-0.39999 0.41001-1.2008 1.2394-1.5908 1.6494 1.7 3.31 4.4613 5.901 6.0513 9.2607-0.51 1.62-1.0003 3.2494-1.5103 4.8794-1.81 0.59-5.9503 1.6197-3.3003 3.9697 0.66-0.26 1.9796-0.76953 2.6396-1.0195 0.99 0.95 1.9104 1.9697 2.9004 2.9297 1.83 0.75 3.9101 0.48023 5.8301 0.99023-1.91 0.47-3.8796 0.25976-5.8096 0.50977-1.68 3.27 2.6393 2.8609 4.5293 3.6709 0.11 1.25 0.2408 2.5298 0.3208 3.7998-1.59-1.32-3.1212-2.7005-4.4912-4.2305-2.13 2.25-4.8692 3.6696-7.8692 4.3696 1.15 0.42 2.309 0.80066 3.479 1.1807-0.53001 1.05-1.03 2.1195-1.5 3.2095-0.39 0.21-1.1701 0.63961-1.5601 0.84961 0 1.02 1e-3 2.0506-9e-3 3.0806 0.93-1.34 1.8092-3.68 3.9492-2.54-0.3 1.11-0.63922 2.2103-1.0093 3.3003-0.87 0.10001-2.621 0.28965-3.501 0.38966 2.83 1.99 3.47 5.4205 4.5 8.5005-1.23-0.31998-2.46-0.61992-3.69-0.91992 0.72 3.99 2.9101 7.469 6.0601 9.999 0.54-1.31 1.0801-2.629 1.6201-3.939 0.96-0.70001 1.8896-1.4502 2.8096-2.2002 0.66 0.26001 1.9606 0.76979 2.6206 1.0298 0.08 2.62-1.4694 4.7403-2.8594 6.8203 5.02 0.72999 10.55 0.95901 15.06-1.771 4.44-2.6 6.5898-7.8989 6.5698-12.879 0.08-10-0.0205-20 0.0395-29.99 0.13-4.14 0.86944-8.581 3.6694-11.811 3.98-4.25 11.15-4.3993 15.75-1.0693 3.19 2.55 4.1209 6.9193 4.1909 10.819 0.07 11.06-0.12065 22.141 0.0894 33.201 0.19 5.52 3.5004 11.05 8.9004 12.85 5.98 1.99 13.32 1.7194 18.35-2.4404 3.6-3.05 4.8698-7.97 4.7798-12.52-0.02-13 0.0207-26-0.0293-39-0.05-8.44-2.5903-17.41-9.0703-23.19-7.81-7.01-19.26-8.2891-29.26-6.5991-7.27 1.27-13.12 6.2503-17.41 12.01 0.06-13.07 0.019-26.141 0.019-39.211-0.22001-17.38 7.3899-34.64 20.19-46.37 2.73-2.54 6.8406-4.9396 5.8506-9.3296 0.88 0.9 1.5307 3.429 3.1406 2.209 10.53-6.64 22.909-10.38 35.379-10.25 14.32-0.05 28.57 5.0004 39.75 13.92 14.82 11.62 24.23 29.999 24.48 48.879 0.17 9.82 9e-3 19.651 0.0893 29.471-4.14 0.23-8.5892-0.63018-12.429 1.3198-4.49 2.75-4.8098 9.3103-2.5898 13.62 3.0799 4.91 9.7102 3.6294 14.61 3.8394-0.03 16.57-0.0412 33.14 9e-3 49.72-0.04 5.12 2.1399 10.65 6.8599 13.15 5.56 2.82 12.691 2.7908 18.081-0.42921 4.62-2.83 6.3701-8.5407 6.23-13.701-0.02-16.25 0.01-32.51-0.0205-48.76 5.73-0.55 12.83 1.6811 17.37-2.8989 3.48-4.55 2.6707-13.31-3.4893-15.18-4.57-1.24-9.3808-0.39013-14.051-0.64013-0.31-17.45 1.3312-35.211-3.0688-52.301-0.73999-0.24-2.2412-0.69897-2.9912-0.93897 0.68-0.68 1.3701-1.36 2.0801-2.02-1.55-5.51-3.6989-10.82-6.1289-15.98-0.9-0.36-1.7904-0.72105-2.6704-1.081-1.06 1.09-2.23 1.4508-3.52 1.0708 0.49999-2.09 1.7794-3.8597 3.1494-5.4697-7.92-13.62-19.28-25.161-32.66-33.441-0.47 0.36-1.4094 1.0902-1.8794 1.4502 0.05-0.67 0.15068-2.0002 0.20068-2.6602-10.87-5.94-22.631-10.469-34.991-11.959zm-37.67 3.999c0.9 1.18 0.68011 1.9109-0.62988 2.1709-0.92-1.2-0.71012-1.9209 0.62988-2.1709zm66.4 8.9912c1.82 0.87 3.6299 1.7688 5.4199 2.7188-1.76 2.28-4.0193 4.3707-7.0093 4.7007-0.39999-2.71-1.4206-5.8894 1.5894-7.4194zm-66.015 5.9824c1.0472 0.10614 1.8506 1.7246 0.92432 2.5371-1.3 0.88001-2.7699-1.3708-1.6699-2.3408 0.24937-0.165 0.50394-0.22078 0.7456-0.19629zm-24.485 0.9668c-0.11 1.79-0.18041 3.5799-0.42041 5.3599-1.23-0.81-3.6404-0.75969-3.6504-2.6396-0.04-0.83001-0.0292-1.6602 0.0308-2.4902 1.34-0.07 2.69-0.13998 4.04-0.22998zm12.86 1.3696c1.58 1.76 2.4904 3.9509 1.1704 6.2109 2.45 1.45-1.4106 0.73993-2.3306 0.91993 0.25999-2.39 0.70015-4.7709 1.1602-7.1309zm-5.5605 7.8106c3.34 0.04-1.4 3.01 0 0zm-15.687 3.4922c1.147 0.0452 2.2047 0.46748 3.0469 1.5776-1.17 1.94-1.0399 4.1406-0.91992 6.3105-0.66-0.57-1.999-1.7005-2.669-2.2705-0.86 1.49-1.6213 3.0306-2.3613 4.5806-0.65-3.06 0.54111-5.7607 1.1411-8.6807-0.3-0.26-0.90117-0.77978-1.2012-1.0298 0.82875-0.25125 1.6646-0.44631 2.4668-0.48487 0.16713-8e-3 0.33274-9e-3 0.49658-3e-3zm22.337 1.3476c1.24 0.7 1.2801 1.4404 0.12011 2.2104-1.28-0.71-1.3201-1.4504-0.12011-2.2104zm109.67 32.99c0.43 1.17 0.89009 2.3407 1.3901 3.4907-0.52002 2.02-1.6496 3.7094-3.3897 4.8794-0.28999-0.34001-0.88041-1.0194-1.1704-1.3594 0.43-1.69 0.76934-3.3908 1.0693-5.1108 0.69-0.63 1.4106-1.2499 2.1006-1.8999zm4.0093 2.3101c3.31 0.3-1.76 2.84 0 0zm-156.56 7.8677c0.49791 0.0196 0.99556 0.0982 1.4868 0.24316 0 2.48-0.0491 4.9497-0.0791 7.4297-1.21 0.73-2.4201 1.4604-3.6401 2.1504-1.87-1.72-4.1298-2.91-6.2798-4.21 1.5225-3.0012 5.0267-5.7501 8.5122-5.6133zm102.61 4.5029c-0.35023-7e-3 -0.70004-5e-3 -1.0503 7e-3 -3.3624 0.11051-6.7004 1.0671-9.5054 2.8521-5.29 3.54-6.2497 10.38-5.9297 16.26 0.24 5.2-0.65901 10.561 1.021 15.601 4.67 0.25999 8.7191-2.5495 13.289-2.9795 4.97-0.56 9.66 1.5899 14.25 3.1699 0.3-1.41 0.73994-2.7712 1.4399-4.0312-0.19 1.15-0.56 3.4408-0.75 4.5908 1.83-0.97001 2.5303-2.8704 3.0703-4.6904-0.8-0.68001-1.5901-1.3591-2.3701-2.0391 0.49999-0.33 1.5098-1.0001 2.0098-1.3301 0.29-6.47 0.80029-13.171-1.1997-19.431 0.43 2.71-0.15984 5.2613-2.5898 6.8013 0.74 1.06 2.0306 1.9 2.1606 3.29-0.71 1.46-1.75 2.73-2.71 4.04-0.95999-0.78-1.9111-1.5401-2.8711-2.3101 0.21-1.6 0.35977-3.2208 0.50976-4.8208 0.79-1.9 0.40086-3.7006-1.1191-5.1006 1.98-1.11 3.9395-2.2786 5.9795-3.2886-3.1934-4.3125-8.3813-6.4871-13.635-6.5903zm-112.04 2.0303c-0.43999 0.66-1.3 1.9796-1.73 2.6396 0.01 0.25 0.0501 0.75953 0.0601 1.0195-0.48-0.64001-1.4612-1.9206-1.9512-2.5606 1.2-0.39999 2.3911-0.77862 3.6211-1.0986zm109.16 1.311c0.80203 0.0192 0.93826 0.63088 0.40576 1.8384-1.66 0.49999-2.1397-0.0497-1.4297-1.6597 0.415-0.125 0.75658-0.18512 1.0239-0.17871zm60.171 4.7871c0.79031-0.0188 0.96563 0.59906 0.51562 1.8516-1.6 0.58-2.1002 0.0399-1.5102-1.6201 0.4-0.14749 0.73119-0.22519 0.99463-0.23144zm-55.605 0.74121c0.52 1.15 1.0406 2.3205 1.5806 3.4805-0.67001 0.20001-2.0004 0.59981-2.6704 0.79981-1.44-0.6-2.8703-1.2198-4.2803-1.8398 1.77-0.84 3.5901-1.6004 5.3701-2.4404zm48.76 0.0806c1.76 0.88001 3.5107 1.7788 5.2207 2.7788-1.98 1.93-3.9798 4.4203-7.0298 4.3403-0.26001-1.7-0.54058-3.3991-0.83057-5.0991 0.87-0.68 1.7496-1.35 2.6396-2.02zm-45.549 9.3296c3.52 1.03-0.34056 4.7202-2.3306 5.2602 0.58001-1.82 1.0906-3.7502 2.3306-5.2602zm-5.6484 20.128c-4.3964-0.0127-8.8474 1.1693-11.982 4.3418-3.24 3.19-4.1196 7.92-4.0796 12.29 0.02 17.69 0.01 35.37 0 53.06-0.06 4.39 0.91066 9.1305 4.1807 12.311 3.91 3.94 9.9295 4.72 15.209 4.04 4.54-0.52 9.0296-3.0009 11.12-7.1909 3.05-6.05 1.4798-13.06 1.8398-19.55-3.93-0.53999-7.16-3.0904-8.71-6.7104 1.23-2.29 2.4708-4.5992 4.0708-6.6592 1.25-1.34 3.1895-0.52002 4.7695-0.52002-0.2-4.43-0.14035-8.8708-0.0703-13.301-1.24-0.63-2.4604-1.2492-3.6504-1.9292 2.02 0.56 3.3307 9e-3 3.9507-1.6406-1.79-1.25-3.7093-2.3003-5.5093-3.5303 1.71-0.27 3.4289-0.50974 5.1489-0.73974-0.05-5.4 0.5602-11.03-1.5498-16.15-1.82-4.21-5.9592-7.0202-10.409-7.7402-1.4025-0.24-2.8632-0.37664-4.3286-0.38085zm13.988 12.012c1.35 0.68 1.3595 1.339 0.0395 1.979-1.34-0.66-1.3496-1.319-0.0395-1.979zm-2.4771 10.455c1.4306-0.12537-0.78253 3.2344-0.85254 0.29443 0.37001-0.18874 0.64817-0.27652 0.85254-0.29443zm-126.11 6.7983c0.36499-0.0212 0.77314 0.26168 1.2231 0.84668-0.6 1.28-1.3299 1.3204-2.19 0.13037 0.28001-0.63 0.6018-0.9558 0.96681-0.97705zm121.74 1.0225c0.39375-0.0163 0.79935 0.34398 1.2144 1.084-0.72 1.49-1.5099 1.5308-2.3599 0.0908 0.37-0.765 0.75176-1.1586 1.1455-1.1748zm-118.02 9.5449c1.44 0.74001 1.4402 1.5487 0.0103 2.4287-1.49-0.78-1.4902-1.5887-0.0103-2.4287zm173.45 3.3999c1.38 0.13001 1.6603 0.78901 0.8203 1.979-1.41-0.13-1.6903-0.789-0.8203-1.979zm-0.83789 5.2793c1.016 0.0311 2.1627 0.78085 3.1377 1.1308 0.22 1.82 0.68065 3.6088 1.4106 5.3188-0.23 0.38-0.70017 1.151-0.93017 1.541 0.81 0.72 1.6092 1.47 2.3892 2.25-2.23-0.42-3.619-2.3702-5.669-3.1802-0.12-0.4-0.38097-1.1908-0.50097-1.5908-1.15-1.14-3.209-2.9402-1.459-4.5103 0.45-0.73875 1.012-0.97816 1.6216-0.95946zm-166.91 0.91406c0.95298 0.1867-0.79659 3.0876-1.0591 0.35596 0.35625-0.21375 0.62761-0.32216 0.83056-0.3545 0.0888-0.0142 0.16499-0.0139 0.22852-1e-3zm8.7612 1.1704c0.24985-0.0133 0.50591-0.0118 0.76904 6e-3 0.49 0.51 1.4905 1.5203 1.9805 2.0303-2.14 2.48-4.4295 4.8289-6.7295 7.1689-0.65-0.86-1.3004-1.7386-1.9204-2.5986-1.17-0.53-2.3395-1.0503-3.4995-1.5703 3.3188-1.3594 5.6522-4.8375 9.3999-5.0361zm157.97 7.3462c3.35-0.06-1.39 3.02 0 0zm-48.87 5.0947c1.8434 0.0379-0.32997 4.4442-1.73 1.7842 0.17001-0.38 0.5097-1.12 0.67969-1.5 0.44126-0.20625 0.78695-0.28959 1.0503-0.28418zm50.489 4.752c0.77954 7e-3 1.018 0.64558 0.71046 1.9131-1.54 0.54-2.0999-0.0309-1.6699-1.7109 0.37999-0.13749 0.69962-0.20464 0.95946-0.20214zm-69.16 1.8032c2.15 0.95 2.9899 4.6797-0.12012 4.6597-0.32-1.55-0.0199-3.1197 0.12012-4.6597zm70.521 1.3301c1.25 2.07 1.9903 4.3689 2.7803 6.6489-0.29 0.56001-0.88041 1.6812-1.1704 2.2412-1.52-0.45-3.0596-0.87115-4.5396-1.4312-0.84-1.41-0.53-3.1597-0.75-4.7197l0.55957 1.9409c1.05-1.55 2.0701-3.1302 3.1201-4.6802z"/>
  <path id="ex" d="m495.01 280.49h10.31l-6.73 9.41-7.06 0.37z"/>
  <path id="ey" d="m562.33 290.82c2.29-7.66 12.75-9.83 19.04-5.81 2.7 1.64 4.86 4.48 4.78 7.77l0.14 19.54-8.64 0.11 0.02-2.58c-4.46 4.09-12.08 3.25-15.35-1.91-3.89 8.13-15.91 9.36-21.94 2.95l1.11 4.4-8.47 2.12-4.5-19.71-7.45 0.82c-1.062-1.6334-2.992-2.4877-4.7932-2.2896-5.1962 1.031-2.7252 4.0323 1.588 4.5588 2.8303 0.60857 5.5727 0.44786 8.0294 1.5167 3.9129 1.7308 5.8522 7.169 3.2357 10.844-5.2 6.96-17.12 7.36-22.3 0.11l0.12 7.73-8.71 0.02 0.22-2.31c-4.43 3.08-10.52 3.04-14.56-0.71l0.65 4.21-8.63 1.01-2.12-19.42c-0.4-3.78-7.25-2.88-6.65 0.85l2 19.34-8.57 1-2.26-19.99c-1.07-3.32-7.42-1.83-6.46 1.78l2.02 19-8.71 0.95-3.04-29.15 8.57-0.96 0.04 2.47c3.89-3.87 10.66-4.74 14.77-0.72 3.28-5.19 11.8-6.16 15.63-1.12 1.44 2.89 1.21 6.28 1.84 9.41-0.11-5.03-0.02-10.06-0.07-15.08l8.61 0.07 0.13 20.25c0.99 3.3 7.09 2.51 6.66-1.11l0.04-19.16 8.65 0.06 0.08 1.61c5.54-5.23 15.21-5.77 20.51 0.08l-1.09-4.53 8.44-2.02c1.08 4.96 2.21 9.92 3.4 14.87-0.07-3.25-1.2-6.83 0.57-9.83 3.73-6.56 13.53-8.29 19.45-3.74 2.4268 2.1258 3.6039 4.412 4.5322 7.3307l-1.9122 0.20927c-2.44 0.2-4.87 0.47-7.29 0.75-0.24607-2.4806-2.4912-3.944-4.5207-3.6459-1.9494 0.27943-2.623 0.9799-2.6186 2.6831 0.0374 3.5222 0.51938 7.448 1.3092 11.063 0.31619 1.18 2.0249 1.5717 3.3111 1.4217 1.0352-0.12078 2.0369-0.62114 2.6389-1.4417 0.42739-0.60477 0.58798-1.7155 0.66-3.19 2.53-0.26 5.07-0.57 7.62-0.84 0.1-3.89-0.36673-10.018 0.24-11.64m10.8-0.62c-1.18 0.24-2.36 1.16-2.32 2.47l0.03 10c0.03 3.71 6.75 3.63 6.7-0.11l-0.15-10.51c0-1.612-2.67-2.28-4.26-1.85m-66.27 13.77 0.17 6.04 6.93-0.74c0.6841 1.6532 3.1412 2.4611 5.2597 2.312 2.8998-0.20404 5.017-2.0328 0.12433-4.0121-3.9528-1.6295-8.8728-0.84566-12.484-3.5999z"/>
  <path id="ez" d="m446.17 330.9 8.15 0.3 0.34 2.27c3.74-2.87 9.59-3.06 12.91 0.55 2.92 2.9 1.45 7.35 1.67 10.99 1.43-4.14 1.64-9.56 6.12-11.7 6.17-3.53 14.23-0.43 17.75 5.41l0.14-6.57 8.54 0.3-0.51 2.69c3.288-3.1709 9.2092-3.3655 12.619-0.59552 1.2464 1.0126 2.5624 2.7311 2.4811 4.2255l-0.5 23.9-8.42-0.27 0.42938-20.269c-0.095-1.4283-1.2281-2.3073-2.7984-2.4856-1.655-0.1636-3.4072 0.69829-3.581 2.5643l-0.6 20.03-8.43-0.23-0.01-13.44c-0.97 4.01-1.22 9.06-5.21 11.38-6.24 3.99-14.9 0.89-18.35-5.35l-0.09 6.79-8.44-0.23 0.43-20.39c-0.37-3.35-6.49-3.16-6.41 0.38l-0.57 19.82-8.44-0.23 0.78-29.84m32.84 10.65c-0.95215 3.1738-1.913 6.3738-2.4352 9.6569-0.30395 1.4996 0.96873 2.4978 2.0797 2.9459 1.6145 0.6224 3.5881 0.2734 4.1255-1.5528 1.13-3.54 2.23-7.12 2.82-10.78 0.0982-0.95521-0.84017-2.2975-2.7-2.6165-1.8363-0.36337-3.3329 0.26759-3.89 2.3465z"/>
  <path id="fa" d="m446.8 367.92c4.93-3.34 11.67-2.36 16.25 1.14l0.27-2.12 20.69 3.64 0.14 2.3c5.73-3.87 13.9-1.98 17.69 3.71v-3.29l8.15 0.01-0.06 2.53c2.07-1.31 4.27-2.78 6.85-2.52 4-0.13 8.16 3.13 7.9 7.36 0 5.38 0.22 10.76 0.03 16.13-0.04 4.04-4.03 7.16-7.92 7.05-2.55 0.27-4.73-1.17-6.79-2.42l0.12 8.22-8.22 0.06-0.06-17.83c-0.59 9.35-13.5 12.47-19.58 6.23-6.07-5.43-2.05-14.06-1.74-20.93l-3.79-0.48-3.63 22.83-8.13-1.39 3.65-22.99-2.6-0.34c0.02 0.69 0.07 2.07 0.09 2.75-2.59-0.33-5.18-0.65-7.77-0.96-0.5292-2.079-2.0586-3.1062-3.8505-3.3792-1.5092-0.16057-2.2535 0.3555-2.7209 0.92168-0.75844 0.91859-0.19301 2.3478 3.4554 4.0578 1.785 0.8754 3.8262 1.4945 5.406 2.5098 5.192 2.9761 5.61 10.03 1.27 13.23-5.33 4.09-14.05 3.13-17.98-2.47-1.47-1.91-1.9606-4.2797-2.13-6.67l8.5028 0.55359c0.10884 2.272 0.998 3.95 3.7938 3.843 3.1325-0.27631 2.9441-1.9268 1.6079-3.3218-0.6964-0.72706-1.7899-1.3335-2.7054-1.7492-3.1262-1.6304-7.1342-2.3931-8.7792-5.7456-1.67-3.5-0.91-8.38 2.59-10.47m41.822 12.017c-0.74272 3.8318-1.4649 7.3836-1.4806 11 0.034 1.8236 1.0559 2.5877 2.726 3.082 1.5611 0.2641 3.3367-0.59206 3.5228-2.2986 0.56-3.63 1.16-7.27 1.26-10.94-4e-3 -1.3078-1.3747-2.3773-2.7393-2.5799-0.9996-0.14841-2.9174 0.35002-3.2889 1.7365zm21.568 2.7734c-0.2597 2.3517-0.0697 9.6678 0.01 11.68 0 1.4958 1.6253 2.1565 2.9743 2.1783 1.2113 0.0196 2.884-0.52049 3.1572-1.6051 0.26792-1.3058 0.30981-11.25 0.24844-12.253 0-1.2316-1.8274-2.0183-3.195-2.0183-1.3129 0-3.0668 0.54995-3.195 2.0183z"/>
 </g>
 <g id="fb" transform="translate(-11.24,-7.29)" fill="#e1017a">
  <path id="fc" d="m430.23 333.27c0.59 0.51 0.59 0.51 0 0z"/>
  <path id="fd" d="m249.89 374.93c6.39-7.97 17.57-8.96 27.04-8.22 4.73 0.74 10.15 1.01 13.68 4.67 4.04 3.65 3.83 10.61 0.37 14.57-4.43 4.07-10.99 2.95-16.4 4.54-0.01 2.92-0.01 5.85 0.01 8.78 3.76-0.04 7.53-0.24 11.28 0.19 3.18 0.26 5.9 3.28 5.94 6.46 0.21 3.24 0.36 7.25-2.65 9.33-4.26 2.93-9.73 1.94-14.59 2.18-0.03 18.83 0.02 37.67-0.05 56.51-0.21 11.15 2.33 22.36 7.47 32.27 12.27 23.92 40.43 38.56 67.06 34.41 18.92-2.41 36.17-14.02 46.35-30.03 6.56-10.28 9.66-22.43 10-34.55 0.08-21.76-0.17-43.53 0.1-65.29 1.66-1.72 3.21-3.56 4.43-5.63-1.47-0.82-2.92-1.64-4.37-2.47-0.7-3.32-0.77-7.24-3.49-9.67-2.74-2.67-6.87-1.33-10.26-1.42 2.49-0.26 4.98-0.52 7.47-0.9-3.28-0.03-7.07-0.58-9.7 1.85-4.56 3.7-5.43 10.02-5.13 15.54 0.06 13.31-0.01 26.62 0.05 39.93-0.04 3.99 0.03 8.47-2.81 11.64-4.87 6.75-14.99 7.35-21.85 3.49-4.67-2.51-6.51-8.16-6.38-13.17 0.01-14.64 0-32.528 0.03-47.168 0.31512-6.0686-3.853-12.589-9.51-12.272-5.83-0.19-10.15 5.26-11.01 10.61-0.85 5.98-0.21 12.05-0.42 18.07-1.33 0.43-2.65 0.86-3.96 1.31 0.82 2.98 1.98 5.88 3.81 8.41 0.18 7.34 0.2 14.7 0.11 22.05 0.01 3.57-1.09 7.15-3.43 9.89-2.07 0.18-3.34-1.55-4.77-2.7 0.12 1.91 0.22 3.84 0.33 5.76-0.94-0.11-1.89-0.22-2.83-0.32-1.12-0.99-2.23-1.96-3.35-2.93-0.01 0.67-0.04 2-0.05 2.67 0.44 0.55 1.3 1.64 1.74 2.19-2.88-0.21-5.74-0.55-8.58-0.96-0.05-0.85-0.13-2.55-0.17-3.4-0.3 0.62-0.9 1.87-1.2 2.49-2.27-1.26-5.05-2.13-6.36-4.55-2.06-3.3-2.36-7.31-2.33-11.1 0.2-22.98-0.08-45.97 0.09-68.96-0.15-5.59 3.72-11.1 9.3-12.27 4.83-0.9 10.39-1.08 14.53 2.01 3.09 2.65 3.94 6.88 5.03 10.6 4.06-3.79 7.55-8.49 12.85-10.67 7.93-3.44 17.33-3.36 25.34-0.19 5.37 1.99 8.75 6.93 11.36 11.77 3.61-4.22 7.29-8.64 12.33-11.22 6.08-3.08 13.11-3.16 19.76-2.59 7.98 0.83 15.66 5.24 19.85 12.15 4.39 7.51 3.99 16.45 3.75 24.83-2.3 0.32-5.44-0.71-6.85 1.69-1.17 1.65-1.4 3.71-1.86 5.63 3.44-0.57 7.12-1.42 8.63-4.95 0.29 18.35 0.16 36.7 0.11 55.05-0.42 0.3-1.26 0.91-1.68 1.21 0.42 0.27 1.27 0.8 1.69 1.07 0 8.62 0.47 17.28-0.91 25.83-0.24 8.88-2.93 17.42-6.09 25.64-11.76 29.53-39.47 51.85-70.73 57.34-2.53 0.43-5.05 0.9-7.59 1.27-10.74 0.69-21.7 0.39-32.1-2.62-22.3-4.94-42.61-18.53-55.67-37.28-7.61-10.84-14.11-23.12-15.47-36.48 1.43-0.22 2.86-0.43 4.3-0.63 0.78-2.04 1.84-4.03 2.07-6.23 0.17-2.62-3.29-2.48-5.04-3.22-0.11-0.76-0.2-1.5-0.3-2.24 1.32-0.31 2.64-0.61 3.97-0.9 0.81-2.32 2.46-4.92 0.88-7.29-1.77-3.17-3.23-6.58-2.67-10.29-1.63-0.34-3.26-0.68-4.88-1.03 2.1-0.51 4.21-0.96 6.31-1.44-0.05-1.2-0.1-2.39-0.14-3.58-2.32 0.49-4.63 1.05-6.92 1.68 1.89-2.69 3.07-5.79 3.16-9.1-0.88 0.05-2.66 0.14-3.54 0.19 0.01-0.97 0.04-2.92 0.06-3.9 2.13-1.35 4.23-2.76 6.3-4.21-0.03-0.56-0.09-1.69-0.12-2.25l-3.78-2.55c1.21-0.17 2.42-0.33 3.63-0.49 0.76 0.83 1.53 1.66 2.3 2.49 1.13-0.52 2.26-1.04 3.39-1.55 1.21-2.3 2.86-4.46 3.45-7.02-0.44-1.07-1.03-2.05-1.57-3.06-2.88 0.24-5.77 0.38-8.66 0.48-0.38 2.11-0.72 4.23-1.06 6.36-1.3 0.61-2.59 1.23-3.88 1.85-0.09-7.1-0.1-14.21 0-21.31-6.6128 0-7.77-0.12-11.35-1.64-6.6738-3.2011-5.3401-15.802 2.2852-16.5 2.2504-0.31009 2.9975-0.21013 8.5993 0l0.13558-1.4203c0.46-7.89-0.13-16.93 5.78-23.12m151.91 14.22c1.75 0.85 3.51 1.68 5.29 2.51 2-1.42 3.96-2.88 5.86-4.44-1.31-1.06-2.47-2.35-3.99-3.11-2.92 0.67-4.89 3.28-7.16 5.04m22.38 7c0.6 1.42 1.21 2.85 1.81 4.28 1.75 0.1 3.49 0.17 5.25 0.23-1.73-2.34-3.9-4.64-7.06-4.51m-108.8 29.84c0.81 2.76 1.7 5.74 0.01 8.39 0.8 0.81 1.6 1.62 2.41 2.44 1.66-0.54 4.15-0.52 4.63-2.65-0.05-3.97-3.01-7.69-7.05-8.18m51.61 2.76c0.09 0.47 0.27 1.4 0.36 1.87-2.02 2.1-3.5 4.7-3.87 7.63 0.51 0.1 1.52 0.31 2.03 0.41-0.68-3.75 0.93-6.93 3.62-9.44 0.2-0.42 0.61-1.24 0.81-1.65-0.97 0.43-1.95 0.83-2.95 1.18m-38.57 18.57c-0.88 2.24-1.09 4.64-1.04 7.03 0.47 0.12 1.42 0.36 1.89 0.48 0.73-2.46 1.54-4.9 2.38-7.31-1.08-0.07-2.16-0.14-3.23-0.2m-17.64 1.25c-1.05 2.27 0.04 4.79 0.35 7.11 1.15-0.09 2.3-0.17 3.45-0.25 0.66-1.15 1.32-2.3 1.99-3.45-0.35-0.6-1.05-1.79-1.4-2.39-1.46-0.38-2.91-0.78-4.39-1.02m112.02 10.13c-0.9 1.65-1.82 3.28-2.73 4.92 2.47-0.02 4.94-0.08 7.42-0.02 0.69-1.2 1.38-2.4 2.09-3.59-0.81-1.24-1.61-2.47-2.41-3.7-1.46 0.8-2.91 1.59-4.37 2.39m-10.56 26.54c-0.62 2.87-1.21 5.75-1.84 8.62 1.6-0.51 3.22-1.02 4.83-1.53 0.35-1.53 0.71-3.06 1.1-4.57-0.28-0.53-0.84-1.6-1.12-2.14-1-0.13-1.99-0.26-2.97-0.38m0.25 37.34c0.92 0.04 2.74 0.12 3.65 0.16 1.9-1.7 5.11-2.93 4.61-6.02-1.9-1.14-3.95-1.98-5.97-2.86-3.07 2-2.61 5.58-2.29 8.72m-94.43 18.76c1.04 2.67 2.47 5.25 4.9 6.9 0.39-1.57 2.24-3.39 0.85-4.92-1.11-2.21-3.7-1.95-5.75-1.98m-27.59 9.35c0.88-0.11 1.77-0.21 2.66-0.3 0.92-1.18 1.84-2.34 2.78-3.5-1.19-2.11-3.34-3.18-5.51-4.01-1.02 2.55-0.44 5.22 0.07 7.81m19.15-5.04c-0.14 2.24-0.13 4.49-0.13 6.75 1 0.03 2.99 0.11 3.99 0.15 0.07-1.51 0.14-3.02 0.21-4.52-1.34-0.83-2.68-1.66-4.07-2.38m75.7 5.15c0.39 2.13 0.81 4.26 1.25 6.39 3.59-0.18 4.53-3.25 4.24-6.29l-2.96-1.28c-0.64 0.29-1.9 0.88-2.53 1.18m-67.8 9.81c-0.02 2.15 0 4.42 1.44 6.19 0.57-2.15 1.02-4.33 1.48-6.5-0.98 0.09-1.95 0.2-2.92 0.31m-12.24 0.69c0.13 1.71 0.25 3.44 0.54 5.14 2.73 1.01 3.71-1.75 4.1-3.85-1.55-0.44-3.09-0.87-4.64-1.29z"/>
 </g>
</svg>
