<svg width="1706.4pt" height="366.58pt" version="1.1" viewBox="0 0 1706.4 366.58" xmlns="http://www.w3.org/2000/svg">
 <defs>
  <linearGradient id="a" x1="1480.2" x2="1901.9" y1="197.13" y2="621.03" gradientUnits="userSpaceOnUse">
   <stop stop-color="#e3177d" offset="0"/>
   <stop stop-color="#eb7277" offset="1"/>
  </linearGradient>
 </defs>
 <g transform="translate(0 -36.243)">
  <path d="m266.15 37.02h94.59l55.17 81.73-60.969 0.0198z"/>
  <path d="m774.6 37.02h87.89v365.8h-114.36c14.36-12.08 22.24-29.825 26.21-47.805 4.2-19.62 4.86-39.91 2.95-59.84-2.14-20.15-7.66-40.8-20.59-56.83-9.84-12.41-24.7-20.36-40.31-22.52-17.24-2.34-35.7-0.34-50.81 8.81-14.03 8.33-23.85 22.33-29.57 37.39-7.64 20.03-9.5 41.8-8.61 63.08 1.14 18.52 5.21 37.13 13.96 53.6 4.82 9.24 11.38 17.395 19.35 24.115h-102.49c-16.49-36.36-21.32-77.255-16.74-116.74 4.49-36.87 18.75-73.68 45.38-100.24 14.71-14.66 33.11-25.55 53.08-31.28 35.38-10.02 75.77-7.07 106.86 13.66 10.81 7.18 20.705 16.62 27.805 27.48z"/>
  <path d="m899.5 37.02h87.28v87.175h-87.28z"/>
  <path d="m154.83 153.61c15.94-4.68 33.325-6.62 49.415-1.55v81.23c-19.57-3.63-40.125-4.77-59.495 0.53-16.02 4.33-30.57 14.29-39.83 28.14-12.56 18.41-16.83 41.11-17.66 63.02v77.845h-87.26v-245.07h83.03v57.635c13.43-29.75 40.7-52.41 71.8-61.78z"/>
  <path d="m318.97 154.09c22.01-4.56 44.61-5.7 67.02-4.78 20.43 0.8 40.96 3.16 60.55 9.18 18.35 5.68 36.33 15.09 48.35 30.47 11.01 13.76 15.71 31.61 15.87 49.01v164.86h-102.14c10.81-13.47 14.52-30.955 14.78-47.875 0.25-11.65 0.01-23.31 0.12-34.96-9 7.1-20.41 9.83-31.45 11.91-22.18 4.12-45.39 4.66-66.35 13.78-9.96 4.26-19.11 11.71-22.98 22.09-4.16 11.25-3.97 23.965 0.61 35.055h-90.04c-2.29-22.09-0.14-45.555 11.74-64.835 9.23-15.12 24.22-25.86 40.37-32.58 22.41-9.42 46.74-12.53 70.66-15.64 18.75-2.47 37.73-3.83 56.12-8.45 9.92-2.67 20.45-6.6 26.66-15.29 4.72-6.6 5.12-15.16 4.16-22.96-0.82-9.16-4.31-18.53-11.48-24.61-7.57-6.62-17.75-8.99-27.48-10.12-11.93-1.16-24.1-1.41-35.89 1-9.49 2-18.82 6.13-25.5 13.33-8.38 8.66-11.98 20.815-13.03 32.565h-87.36c1.3-24.13 9.83-48.525 27.03-65.945 18.36-19.3 44.01-29.79 69.66-35.2z"/>
  <path d="m1090 172.82c24.86-15.22 53.98-22.55 82.96-23.58 38.68-1.69 78.92 7.05 110.54 30.18 25.95 18.67 44.6 46.49 53.87 76.93 7.94 25.71 10.04 53.02 7.8 79.77-1.9 23.15-8.13 45.885-18.44 66.705h-99.32c14.69-11.93 23.12-29.685 27.23-47.835 4.97-22.26 5.24-45.46 1.81-67.96-3.21-19.85-10.46-40.03-25.28-54.2-13.01-12.46-31.34-18.11-49.12-17.85-14.76-0.28-29.92 3.27-42.15 11.79-11.05 7.69-19.22 18.98-24.46 31.28-5.7 13.27-8.46 27.6-9.7 41.93-1.38 17.07-0.77 34.38 2.57 51.2 3.79 19.47 12.22 38.765 27.84 51.645h-98.93c-12.55-24.4-18.51-51.635-19.34-78.955-0.98-31.87 4.29-64.49 18.87-93.1 11.95-23.73 30.48-44.18 53.25-57.95z"/>
  <path d="m899.5 173.02h87.28v229.8h-87.28z"/>
 </g>
 <g transform="matrix(.71856 0 0 .71856 312 -86.759)" fill="url(#a)">
  <path d="m1475.8 120.8c40.49-0.14 80.965-0.01 121.46 0 1.0704 66.065-1.5529 126.82 0 184.64 42.43-23.6 92.64-32.58 140.72-26.4 41.67 5.19 81.7 22.21 114.55 48.36 28.24 22.53 51.33 51.57 66.44 84.42 15.54 32.99 22.6 69.74 21.38 106.11-1.63 5.6-0.01 11.53-1.34 17.2-2 18.51-6.37 36.78-12.89 54.21-5.2275 14.689-11.614 27.705-18.99 40.16l-155.41-0.12c6.2-1.18 11.76-4.42 17.37-7.21 25.54-13.65 46.07-36.29 57.19-63.02 10.88-26.24 13.19-56.18 5.18-83.51-9.94-37.49-38.37-69.45-74.3-83.96-38.99-16.37-86.14-11.6-120.83 12.67-15.2 10.49-28.26 24.18-37.61 40.13-13.15 21.61-19.1 47.36-17.73 72.55 1.97 37.82 21.79 74.47 52.86 96.24 9.55 6.97 20.08 12.92 31.41 16.42l-155.12 0.16c-6.01-7.87-9.96-17.02-14.25-25.87-9.34-21.07-15.52-43.53-18.29-66.4-2.5-19.1-1.615-38.39-1.795-57.6z"/>
  <path d="m1700.5 460.65c9.5-1.27 19.45-0.36 28.19 3.79 17.23 7.54 29.42 25.67 29.11 44.59 0.65 19.79-12.25 39.36-30.85 46.27-5.66 2.49-11.78 3.86-17.97 3.47-17.74 0.95-35.04-9.51-43.67-24.83-6.28-11.03-8.25-24.6-4.82-36.88 4.6-18.63 21.03-33.55 40.01-36.41z"/>
 </g>
</svg>
