<?xml version="1.0" encoding="UTF-8"?>
<!-- Created with Inkscape (http://www.inkscape.org/) -->
<svg id="svg2" width="800" height="741.27" version="1.1" viewBox="0 0 800 741.27" xml:space="preserve" xmlns="http://www.w3.org/2000/svg" xmlns:cc="http://creativecommons.org/ns#" xmlns:dc="http://purl.org/dc/elements/1.1/" xmlns:rdf="http://www.w3.org/1999/02/22-rdf-syntax-ns#" xmlns:xlink="http://www.w3.org/1999/xlink"><metadata id="metadata8"><rdf:RDF><cc:Work rdf:about=""><dc:format>image/svg+xml</dc:format><dc:type rdf:resource="http://purl.org/dc/dcmitype/StillImage"/><dc:title/></cc:Work></rdf:RDF></metadata><g id="g10" transform="matrix(1.3333 0 0 -1.3333 1.4708e-5 741.27)"><path id="path84" d="m0.38424 73.438h596.52v-73.438h-596.52v73.438" fill="#fff" stroke-width=".61978"/><g id="flowRoot1547" transform="matrix(1.4094 0 0 -1.3615 300.02 1068.5)" fill="#231e1f" stroke-width="1px" aria-label="www.radiocaldes.cat"><path id="path1555" d="m-176.98 768.4-6.3477-20.742h3.6328l3.3008 11.973 1.2305 4.4531q0.0781-0.33204 1.0742-4.2774l3.3008-12.148h3.6133l3.1055 12.031 1.0352 3.9648 1.1914-4.0039 3.5547-11.992h3.418l-6.4844 20.742h-3.6524l-3.3008-12.422-0.80078-3.5352-4.1992 15.957z"/><path id="path1557" d="m-148.08 768.4-6.3477-20.742h3.6328l3.3008 11.973 1.2305 4.4531q0.0781-0.33204 1.0742-4.2774l3.3008-12.148h3.6133l3.1055 12.031 1.0352 3.9648 1.1914-4.0039 3.5547-11.992h3.418l-6.4844 20.742h-3.6524l-3.3008-12.422-0.80078-3.5352-4.1992 15.957z"/><path id="path1559" d="m-119.17 768.4-6.3477-20.742h3.6328l3.3008 11.973 1.2305 4.4531q0.0781-0.33204 1.0742-4.2774l3.3008-12.148h3.6133l3.1055 12.031 1.0352 3.9648 1.1914-4.0039 3.5547-11.992h3.418l-6.4844 20.742h-3.6524l-3.3008-12.422-0.80078-3.5352-4.1992 15.957z"/><path id="path1561" d="m-95.283 768.4v-4.0039h4.0039v4.0039z"/><path id="path1563" d="m-85.225 768.4v-20.742h3.1641v3.1445q1.2109-2.207 2.2266-2.9102 1.0352-0.70313 2.2656-0.70313 1.7773 0 3.6133 1.1328l-1.2109 3.2617q-1.2891-0.76172-2.5781-0.76172-1.1523 0-2.0703 0.70312-0.91797 0.6836-1.3086 1.9141-0.58594 1.875-0.58594 4.1016v10.859z"/><path id="path1565" d="m-58.291 765.84q-1.9531 1.6602-3.7695 2.3438-1.7969 0.68359-3.8672 0.68359-3.418 0-5.2539-1.6602-1.8359-1.6797-1.8359-4.2774 0-1.5234 0.68359-2.7734 0.70312-1.2695 1.8164-2.0312 1.1328-0.76171 2.5391-1.1523 1.0352-0.27344 3.125-0.52734 4.2578-0.50782 6.2695-1.2109 0.01953-0.72266 0.01953-0.91797 0-2.1484-0.99609-3.0273-1.3477-1.1914-4.0039-1.1914-2.4805 0-3.6719 0.87891-1.1719 0.85937-1.7383 3.0664l-3.4375-0.46875q0.46875-2.207 1.543-3.5547 1.0742-1.3672 3.1055-2.0898 2.0312-0.74219 4.707-0.74219 2.6562 0 4.3164 0.625 1.6602 0.625 2.4414 1.582 0.78125 0.9375 1.0938 2.3828 0.17578 0.89844 0.17578 3.2422v4.6875q0 4.9023 0.21484 6.2109 0.23438 1.2891 0.89844 2.4805h-3.6719q-0.54688-1.0938-0.70312-2.5586zm-0.29297-7.8516q-1.9141 0.78125-5.7422 1.3281-2.168 0.3125-3.0664 0.70313-0.89844 0.39062-1.3867 1.1523-0.48828 0.74219-0.48828 1.6602 0 1.4062 1.0547 2.3438 1.0742 0.9375 3.125 0.9375 2.0312 0 3.6133-0.87891 1.582-0.89844 2.3242-2.4414 0.56641-1.1914 0.56641-3.5156z"/><path id="path1567" d="m-36.104 768.4v-2.6172q-1.9727 3.0859-5.8008 3.0859-2.4805 0-4.5703-1.3672-2.0703-1.3672-3.2227-3.8086-1.1328-2.4609-1.1328-5.6445 0-3.1055 1.0352-5.625 1.0352-2.5391 3.1055-3.8867 2.0703-1.3477 4.6289-1.3477 1.875 0 3.3398 0.80079 1.4648 0.78125 2.3828 2.0508v-10.273h3.4961v28.633zm-11.113-10.352q0 3.9844 1.6797 5.957 1.6797 1.9727 3.9648 1.9727 2.3047 0 3.9062-1.875 1.6211-1.8945 1.6211-5.7617 0-4.2578-1.6406-6.25t-4.043-1.9922q-2.3438 0-3.9258 1.9141-1.5625 1.9141-1.5625 6.0352z"/><path id="path1569" d="m-27.275 743.81v-4.043h3.5156v4.043zm0 24.59v-20.742h3.5156v20.742z"/><path id="path1571" d="m-19.697 758.02q0-5.7617 3.2031-8.5352 2.6758-2.3047 6.5234-2.3047 4.2773 0 6.9922 2.8125 2.7148 2.793 2.7148 7.7344 0 4.0039-1.2109 6.3086-1.1914 2.2852-3.4961 3.5547-2.2852 1.2695-5 1.2695-4.3555 0-7.0508-2.793-2.6758-2.793-2.6758-8.0469zm3.6133 0q0 3.9844 1.7383 5.9766 1.7383 1.9727 4.375 1.9727 2.6172 0 4.3555-1.9922 1.7383-1.9922 1.7383-6.0742 0-3.8477-1.7578-5.8203-1.7383-1.9922-4.3359-1.9922-2.6367 0-4.375 1.9727-1.7383 1.9726-1.7383 5.957z"/><path id="path1573" d="m17.412 760.8 3.457 0.44921q-0.56641 3.5742-2.9102 5.6055-2.3242 2.0117-5.7227 2.0117-4.2578 0-6.8555-2.7734-2.5781-2.793-2.5781-7.9883 0-3.3594 1.1133-5.8789 1.1133-2.5195 3.3789-3.7695 2.2852-1.2695 4.9609-1.2695 3.3789 0 5.5273 1.7188 2.1484 1.6992 2.7539 4.8438l-3.418 0.52735q-0.48828-2.0898-1.7383-3.1445-1.2305-1.0547-2.9883-1.0547-2.6562 0-4.3164 1.9141-1.6602 1.8945-1.6602 6.0156 0 4.1797 1.6016 6.0742 1.6016 1.8945 4.1797 1.8945 2.0703 0 3.457-1.2695 1.3867-1.2695 1.7578-3.9062z"/><path id="path1575" d="m37.412 765.84q-1.9531 1.6602-3.7695 2.3438-1.7969 0.68359-3.8672 0.68359-3.418 0-5.2539-1.6602-1.8359-1.6797-1.8359-4.2774 0-1.5234 0.68359-2.7734 0.70312-1.2695 1.8164-2.0312 1.1328-0.76171 2.5391-1.1523 1.0352-0.27344 3.125-0.52734 4.2578-0.50782 6.2695-1.2109 0.01953-0.72266 0.01953-0.91797 0-2.1484-0.99609-3.0273-1.3477-1.1914-4.0039-1.1914-2.4805 0-3.6719 0.87891-1.1719 0.85937-1.7383 3.0664l-3.4375-0.46875q0.46875-2.207 1.543-3.5547 1.0742-1.3672 3.1055-2.0898 2.0312-0.74219 4.707-0.74219 2.6562 0 4.3164 0.625 1.6602 0.625 2.4414 1.582 0.78125 0.9375 1.0938 2.3828 0.17578 0.89844 0.17578 3.2422v4.6875q0 4.9023 0.21484 6.2109 0.23438 1.2891 0.89844 2.4805h-3.6719q-0.54688-1.0938-0.70312-2.5586zm-0.29297-7.8516q-1.9141 0.78125-5.7422 1.3281-2.168 0.3125-3.0664 0.70313-0.89844 0.39062-1.3867 1.1523-0.48828 0.74219-0.48828 1.6602 0 1.4062 1.0547 2.3438 1.0742 0.9375 3.125 0.9375 2.0312 0 3.6133-0.87891 1.582-0.89844 2.3242-2.4414 0.56641-1.1914 0.56641-3.5156z"/><path id="path1577" d="m46.064 768.4v-28.633h3.5156v28.633z"/><path id="path1579" d="m68.506 768.4v-2.6172q-1.9727 3.0859-5.8008 3.0859-2.4805 0-4.5703-1.3672-2.0703-1.3672-3.2227-3.8086-1.1328-2.4609-1.1328-5.6445 0-3.1055 1.0352-5.625 1.0352-2.5391 3.1055-3.8867 2.0703-1.3477 4.6289-1.3477 1.875 0 3.3398 0.80079 1.4648 0.78125 2.3828 2.0508v-10.273h3.4961v28.633zm-11.113-10.352q0 3.9844 1.6797 5.957 1.6797 1.9727 3.9648 1.9727 2.3047 0 3.9062-1.875 1.6211-1.8945 1.6211-5.7617 0-4.2578-1.6406-6.25t-4.043-1.9922q-2.3438 0-3.9258 1.9141-1.5625 1.9141-1.5625 6.0352z"/><path id="path1581" d="m91.514 761.72 3.6328 0.44922q-0.85938 3.1836-3.1836 4.9414-2.3242 1.7578-5.9375 1.7578-4.5508 0-7.2266-2.793-2.6562-2.8125-2.6562-7.8711 0-5.2344 2.6953-8.125 2.6953-2.8906 6.9922-2.8906 4.1602 0 6.7969 2.832 2.6367 2.832 2.6367 7.9688 0 0.3125-0.01953 0.9375h-15.469q0.19531 3.418 1.9336 5.2344 1.7383 1.8164 4.3359 1.8164 1.9336 0 3.3008-1.0156 1.3672-1.0156 2.168-3.2422zm-11.543-5.6836h11.582q-0.23438-2.6172-1.3281-3.9258-1.6797-2.0312-4.3555-2.0312-2.4219 0-4.082 1.6211-1.6406 1.6211-1.8164 4.3359z"/><path id="path1583" d="m98.174 762.2 3.4766-0.54688q0.29297 2.0898 1.6211 3.2031 1.3477 1.1133 3.75 1.1133 2.4219 0 3.5938-0.97657 1.1719-0.99609 1.1719-2.3242 0-1.1914-1.0352-1.875-0.72265-0.46875-3.5938-1.1914-3.8672-0.97656-5.3711-1.6797-1.4844-0.72265-2.2656-1.9726-0.76172-1.2695-0.76172-2.793 0-1.3867 0.625-2.5586 0.64453-1.1914 1.7383-1.9726 0.82031-0.60547 2.2266-1.0156 1.4258-0.42969 3.0469-0.42969 2.4414 0 4.2774 0.70313 1.8555 0.70312 2.7344 1.9141 0.87891 1.1914 1.2109 3.2031l-3.4375 0.46875q-0.23437-1.6016-1.3672-2.5-1.1133-0.89844-3.1641-0.89844-2.4219 0-3.457 0.80078t-1.0352 1.875q0 0.68359 0.42969 1.2305 0.42969 0.56641 1.3477 0.9375 0.52734 0.19531 3.1055 0.89844 3.7305 0.99609 5.1953 1.6406 1.4844 0.625 2.3242 1.8359 0.83984 1.2109 0.83984 3.0078 0 1.7578-1.0352 3.3203-1.0156 1.543-2.9492 2.4024-1.9336 0.83984-4.375 0.83984-4.043 0-6.1719-1.6797-2.1094-1.6797-2.6953-4.9805z"/><path id="path1585" d="m120.58 768.4v-4.0039h4.0039v4.0039z"/><path id="path1587" d="m144.21 760.8 3.457 0.44921q-0.56641 3.5742-2.9102 5.6055-2.3242 2.0117-5.7227 2.0117-4.2578 0-6.8555-2.7734-2.5781-2.793-2.5781-7.9883 0-3.3594 1.1133-5.8789t3.3789-3.7695q2.2852-1.2695 4.9609-1.2695 3.3789 0 5.5274 1.7188 2.1484 1.6992 2.7539 4.8438l-3.418 0.52735q-0.48829-2.0898-1.7383-3.1445-1.2305-1.0547-2.9883-1.0547-2.6562 0-4.3164 1.9141-1.6602 1.8945-1.6602 6.0156 0 4.1797 1.6016 6.0742 1.6016 1.8945 4.1797 1.8945 2.0703 0 3.457-1.2695 1.3867-1.2695 1.7578-3.9062z"/><path id="path1589" d="m164.21 765.84q-1.9531 1.6602-3.7695 2.3438-1.7969 0.68359-3.8672 0.68359-3.418 0-5.2539-1.6602-1.8359-1.6797-1.8359-4.2774 0-1.5234 0.6836-2.7734 0.70312-1.2695 1.8164-2.0312 1.1328-0.76171 2.5391-1.1523 1.0352-0.27344 3.125-0.52734 4.2578-0.50782 6.2695-1.2109 0.0195-0.72266 0.0195-0.91797 0-2.1484-0.9961-3.0273-1.3476-1.1914-4.0039-1.1914-2.4805 0-3.6719 0.87891-1.1719 0.85937-1.7383 3.0664l-3.4375-0.46875q0.46875-2.207 1.543-3.5547 1.0742-1.3672 3.1055-2.0898 2.0312-0.74219 4.707-0.74219 2.6562 0 4.3164 0.625 1.6602 0.625 2.4414 1.582 0.78125 0.9375 1.0938 2.3828 0.17578 0.89844 0.17578 3.2422v4.6875q0 4.9023 0.21485 6.2109 0.23437 1.2891 0.89843 2.4805h-3.6719q-0.54688-1.0938-0.70313-2.5586zm-0.29296-7.8516q-1.9141 0.78125-5.7422 1.3281-2.168 0.3125-3.0664 0.70313-0.89844 0.39062-1.3867 1.1523-0.48828 0.74219-0.48828 1.6602 0 1.4062 1.0547 2.3438 1.0742 0.9375 3.125 0.9375 2.0312 0 3.6133-0.87891 1.582-0.89844 2.3242-2.4414 0.56641-1.1914 0.56641-3.5156z"/><path id="path1591" d="m180.62 765.25 0.50782 3.1055q-1.4844 0.3125-2.6562 0.3125-1.9141 0-2.9688-0.60547-1.0547-0.60547-1.4844-1.582-0.42969-0.99609-0.42969-4.1602v-11.934h-2.5781v-2.7344h2.5781v-5.1367l3.4961-2.1094v7.2461h3.5352v2.7344h-3.5352v12.129q0 1.5039 0.17578 1.9336 0.19531 0.42969 0.60547 0.68359 0.42969 0.25391 1.2109 0.25391 0.58593 0 1.543-0.13672z"/></g><g id="g1681" fill="#fff"><path id="path1643" d="m337.1 117.49 9.2751-1.3139q-1.5196-10.454-7.8078-16.396-6.2358-5.8841-15.354-5.8841-11.424 0-18.393 8.1121-6.917 8.1692-6.917 23.365 0 9.8259 2.9869 17.195 2.9869 7.3694 9.0655 11.026 6.131 3.7133 13.31 3.7133 9.0655 0 14.83-5.0272 5.7642-4.9701 7.3886-14.168l-9.1703-1.5425q-1.31 6.1126-4.6638 9.1975-3.3013 3.0849-8.0175 3.0849-7.1266 0-11.581-5.5985-4.4541-5.5414-4.4541-17.595 0-12.225 4.2969-17.767 4.2969-5.5414 11.214-5.5414 5.5546 0 9.2751 3.7133 3.7205 3.7133 4.7161 11.425z"/><path id="path1645" d="m390.76 102.75q-5.2402-4.8558-10.114-6.8553-4.821-1.9994-10.376-1.9994-9.1703 0-14.096 4.8558-4.9258 4.913-4.9258 12.511 0 4.4559 1.834 8.1121 1.8865 3.7133 4.8734 5.9412 3.0393 2.2279 6.8122 3.3705 2.7773 0.79979 8.3843 1.5424 11.424 1.4853 16.821 3.5419 0.0523 2.1137 0.0523 2.685 0 6.284-2.6725 8.8547-3.6157 3.4848-10.742 3.4848-6.655 0-9.8515-2.5707-3.1441-2.5136-4.6637-8.969l-9.2227 1.371q1.2576 6.4554 4.1397 10.397 2.8821 3.9989 8.3318 6.1126 5.4498 2.1708 12.629 2.1708 7.1266 0 11.581-1.8281 4.4542-1.8281 6.5502-4.6274 2.0961-2.7421 2.9345-6.9695 0.47161-2.6279 0.47161-9.4832v-13.711q0-14.339 0.57641-18.166 0.62883-3.7704 2.4105-7.2552h-9.8515q-1.4673 3.1991-1.8865 7.4837zm-0.78603 22.965q-5.1354-2.2851-15.406-3.8846-5.8166-0.91404-8.227-2.0566-2.4105-1.1425-3.7205-3.3705-1.31-2.1708-1.31-4.8558 0-4.1132 2.8297-6.8553 2.8821-2.7421 8.3843-2.7421 5.4498 0 9.6943 2.5708 4.2445 2.6279 6.2358 7.1409 1.5196 3.4848 1.5196 10.283z"/><path id="path1647" d="m413.97 95.268v83.749h9.4324v-83.749z"/><path id="path1649" d="m474.18 95.268v7.6551q-5.2924-9.0261-15.563-9.0261-6.6551 0-12.262 3.9989-5.5546 3.9989-8.6461 11.14-3.0393 7.198-3.0393 16.51 0 9.0832 2.7771 16.453 2.7774 7.4265 8.332 11.368 5.5546 3.9418 12.419 3.9418 5.0306 0 8.9608-2.3422 3.93-2.2851 6.393-5.9984v30.049h9.3799v-83.749zm-29.816 30.277q0-11.654 4.5063-17.424 4.5066-5.7699 10.638-5.7699 6.1834 0 10.48 5.4842 4.3494 5.5414 4.3494 16.853 0 12.454-4.4017 18.281-4.4017 5.827-10.847 5.827-6.2881 0-10.533-5.5985-4.1921-5.5985-4.1921-17.652z"/><path id="path1651" d="m535.91 114.81 9.7467-1.3139q-2.3057-9.3118-8.5415-14.453-6.2358-5.1415-15.93-5.1415-12.21 0-19.389 8.1692-7.1265 8.2263-7.1265 23.022 0 15.31 7.2314 23.765 7.2314 8.4549 18.76 8.4549 11.161 0 18.236-8.2835 7.0744-8.2835 7.0744-23.308 0-0.91404-0.0537-2.7421h-41.502q0.52398-9.9973 5.1878-15.31 4.6635-5.3128 11.633-5.3128 5.1878 0 8.8559 2.9706 3.6682 2.9706 5.8167 9.4831zm-30.969 16.624h31.074q-0.62889 7.6551-3.5632 11.483-4.5066 5.9412-11.686 5.9412-6.4979 0-10.952-4.7416-4.4017-4.7416-4.8733-12.682z"/><path id="path1653" d="m553.78 113.38 9.3276 1.5996q0.78584-6.1126 4.3494-9.3689 3.6156-3.2562 10.061-3.2562 6.4976 0 9.6418 2.8564 3.1442 2.9135 3.1442 6.7981 0 3.4848-2.7774 5.4842-1.9387 1.3711-9.6418 3.4848-10.376 2.8564-14.41 4.913-3.9826 2.1137-6.0785 5.7698-2.0439 3.7133-2.0439 8.1692 0 4.056 1.6769 7.4837 1.7294 3.4848 4.6638 5.7698 2.2008 1.771 5.9739 2.9706 3.8254 1.2568 8.1747 1.2568 6.5502 0 11.476-2.0566 4.9782-2.0566 7.3363-5.5985 2.3581-3.4848 3.2488-9.3689l-9.2227-1.3711q-0.62889 4.6845-3.6682 7.3123-2.9867 2.6279-8.4889 2.6279-6.4979 0-9.2753-2.3422-2.7771-2.3422-2.7771-5.4842 0-1.9994 1.1529-3.599 1.1529-1.6567 3.6156-2.7421 1.415-0.57127 8.332-2.6279 10.009-2.9135 13.939-4.7987 3.9826-1.8281 6.2358-5.37 2.2534-3.5419 2.2534-8.7976 0-5.1415-2.7774-9.7116-2.7248-4.5131-7.9126-7.0267-5.1878-2.4565-11.738-2.4565-10.847 0-16.559 4.913-5.6594 4.9129-7.2314 14.567z"/></g><g id="g1673" fill="#d9011d"><path id="path1633" d="m-1.1031e-5 155.94h19.965v-9.9402q2.8821 6.4554 5.9214 8.8547 3.0917 2.4565 7.5982 2.4565 4.7161 0 10.323-3.1991l-6.6026-16.567q-3.7729 1.7138-5.9738 1.7138-4.1921 0-6.4978-3.7704-3.3013-5.3129-3.3013-19.88v-20.337h-21.432z"/><path id="path1635" d="m68.699 136.29-20.384 2.3422q1.1528 5.827 3.3013 9.1404 2.2009 3.3705 6.2882 5.827 2.9345 1.771 8.0699 2.7421 5.1354 0.97119 11.109 0.97119 9.5895 0 15.406-1.1997 5.8166-1.1426 9.6943-4.8558 2.7249-2.5707 4.2969-7.3123 1.572-4.6844 1.572-8.969v-26.793q0-4.2845 0.47162-6.741 0.52401-2.3993 2.2009-6.1697h-20.017q-1.2052 2.3422-1.572 3.5419-0.36682 1.2568-0.73363 3.8846-4.1921-4.3988-8.3319-6.284-5.6594-2.5136-13.153-2.5136-9.9563 0-15.144 5.0272-5.1354 5.0272-5.1354 12.397 0 6.9124 3.7205 11.368 3.7205 4.4559 13.729 6.6268 12 2.6279 15.563 3.6562 3.5633 1.0854 7.5458 2.7992 0 4.2846-1.6245 5.9984-1.6245 1.7138-5.7118 1.7138-5.2402 0-7.8602-1.8281-2.0437-1.4282-3.3013-5.37zm18.498-12.225q-4.4018-1.7138-9.1703-3.0278-6.4978-1.8852-8.2271-3.7133-1.7816-1.8852-1.7816-4.2845 0-2.7421 1.7293-4.5131 1.7817-1.7138 5.1878-1.7138 3.5633 0 6.6026 1.8852 3.0917 1.8852 4.3494 4.5702 1.31 2.7421 1.31 7.0838z"/><path id="path1637" d="m179.53 179.02v-83.749h-19.965v8.969q-4.1921-5.7127-7.6507-7.7122-4.6113-2.6279-10.271-2.6279-11.371 0-17.397 9.426-5.9738 9.426-5.9738 22.908 0 15.082 6.6026 23.079 6.655 7.9978 16.873 7.9978 4.9782 0 9.0131-1.8281 4.0873-1.8281 7.2314-5.4842v29.021zm-21.38-53.243q0 7.1409-2.7773 10.626-2.7773 3.5419-7.0218 3.5419-3.7205 0-6.2358-3.3705-2.5153-3.3705-2.5153-11.311 0-7.4266 2.5677-10.911 2.6201-3.4276 6.4454-3.4276 4.0873 0 6.8122 3.4848 2.7249 3.4848 2.7249 11.368z"/><path id="path1639" d="m193.41 179.02h21.327v-15.824h-21.327zm0-23.079h21.327v-60.669h-21.327z"/><path id="path1641" d="m225.85 125.43q0 13.882 8.5939 22.851 8.5939 9.0261 23.214 9.0261 16.716 0 25.258-10.569 6.8646-8.512 6.8646-20.966 0-13.996-8.5415-22.965-8.4891-8.9119-23.528-8.9119-13.415 0-21.694 7.4265-10.166 9.1975-10.166 24.108zm21.38 0.057q0-8.1121 2.9869-11.997 3.0393-3.8847 7.5982-3.8847 4.6114 0 7.5458 3.8276 2.9869 3.8275 2.9869 12.282 0 7.8836-2.9869 11.711-2.9869 3.8847-7.3886 3.8847-4.6638 0-7.703-3.9418-3.0393-3.8847-3.0393-11.882z"/><path id="path57" d="m59.108 178.99 19.845 0.031 9.1665-16.994h-10.871z" stroke-width=".61978"/></g><g id="g650" transform="matrix(12.423 0 0 12.423 287.51 206.92)" fill="#231e1f"><path id="path652" d="m0 0c-3.215 0.037-6.608 0.333-9.853 1.569-4.706 1.794-7.414 5.191-8.1 10.187-0.302 2.2-0.318 4.411 0.051 6.597 0.492 2.915 2.175 5.062 4.614 6.65 2.265 1.475 4.769 2.372 7.431 2.673 4.517 0.515 9.05 0.628 13.568-0.067 2.173-0.335 4.26-0.988 6.238-1.96 3.307-1.626 5.278-4.248 5.822-7.904 0.511-3.439 0.13-6.751-1.728-9.747-2.476-3.993-6.055-6.456-10.687-7.35-2.357-0.453-4.74-0.628-7.356-0.648" fill="#fff" fill-rule="evenodd"/></g><g id="g702" transform="matrix(12.423 0 0 12.423 219.53 457.26)"><path id="path704" d="m0 0c0.146-1.673-0.177-3.527-0.476-5.384-0.035-0.229-0.049-0.465-0.045-0.697 6e-3 -0.336 0.073-0.66 0.427-0.813 0.375-0.165 0.74-0.119 1.043 0.156 0.193 0.175 0.347 0.395 0.521 0.593 0.159 0.185 0.355 0.241 0.362-0.067 0.025-1.116 0.122-2.25-0.349-3.301-0.266-0.591-0.791-0.925-1.458-0.916-0.411 6e-3 -0.602-0.172-0.664-0.549-0.117-0.704-0.229-1.41-0.354-2.112-0.261-1.452-1.138-2.448-2.365-3.185-0.184-0.112-0.354-0.066-0.535-0.012-3.992 1.183-6.889 4.742-7.281 8.912-0.192 2.054-0.077 4.07 0.671 6.011 1.128 2.929 3.323 4.765 6.167 5.912 1.159 0.467 2.363 0.754 3.599 0.932 0.276 0.042 0.402 6e-3 0.432-0.327 0.142-1.64 0.239-3.286 0.305-5.153" fill="#231e1f" fill-rule="evenodd"/></g><g id="g706" transform="matrix(12.423 0 0 12.423 512.79 408.92)"><path id="path708" d="m0 0c9e-3 -2.291-0.796-4.302-1.731-6.275-1.322-2.793-3.494-4.709-6.25-6.009-0.265-0.124-0.545-0.224-0.825-0.311-0.602-0.19-1.173-0.174-1.743 0.171-0.717 0.432-1.467 0.811-2.102 1.37-1.017 0.892-1.184 1.732-0.581 2.943 0.26 0.519 0.108 1.161-0.468 1.593-0.309 0.232-0.394 0.48-0.369 0.828 0.017 0.248 3e-3 0.497 9e-3 0.746 0.023 0.747-0.235 1.35-0.832 1.828-0.657 0.527-0.633 0.542-0.187 1.24 0.911 1.419 1.287 3.011 1.486 4.658 0.109 0.909 0.16 1.826 0.36 2.724 0.26 1.163 1.008 1.972 1.912 2.664 0.296 0.227 0.678 0.248 1.029 0.227 3.425-0.208 6.511-1.205 8.911-3.829 0.882-0.965 1.162-2.133 1.302-3.365 0.048-0.417 0.057-0.838 0.079-1.203" fill="#231e1f" fill-rule="evenodd"/></g><g id="g710" transform="matrix(12.423 0 0 12.423 358.56 238.22)"><path id="path712" d="m0 0c-0.24-0.024-0.372-0.013-0.5 0.067-1.326 0.839-2.444 1.849-2.992 3.387-0.212 0.596-0.16 1.164 0.01 1.732 0.212 0.707 0.11 1.313-0.434 1.83-0.38 0.36-0.468 0.797-0.296 1.277 0.26 0.732 0.1 1.356-0.396 1.941-0.371 0.439-0.691 0.916-1.015 1.391-0.206 0.307-0.262 0.671 5e-3 0.953 1.246 1.321 1.58 2.998 1.826 4.694 0.269 1.854 0.991 3.512 2.016 5.055 0.173 0.262 0.601 0.33 0.83 0.136 0.144-0.122 0.01-0.221-0.037-0.318-0.325-0.67-0.642-1.345-0.987-2.003-0.634-1.208-0.895-2.51-0.971-3.852-0.069-1.24-0.477-2.321-1.281-3.273-0.699-0.829-0.68-1.233 8e-3 -2.079 0.147-0.179 0.302-0.355 0.469-0.517 0.48-0.463 0.704-0.945 0.486-1.661-0.218-0.707 0.012-1.395 0.6-1.889 0.383-0.321 0.517-0.567 0.293-1.122-0.333-0.827-0.333-1.732 0.221-2.54 0.632-0.922 1.424-1.673 2.354-2.293 0.244-0.164 0.675-0.312 0.565-0.64-0.107-0.324-0.559-0.236-0.774-0.276" fill="#231e1f" fill-rule="evenodd"/></g><g id="g714" transform="matrix(12.423 0 0 12.423 250.12 459.61)"><path id="path716" d="m0 0c0.043-0.894-0.083-1.963-0.116-3.034-0.02-0.704 0.09-1.299 0.766-1.718 0.498-0.31 0.704-0.872 0.742-1.449 0.108-1.683-6e-3 -3.35-0.396-4.998-0.175-0.731-0.615-1.222-1.292-1.475-0.736-0.275-1.139-0.805-1.39-1.516-0.365-1.039-0.774-2.062-1.142-3.1-0.104-0.297-0.216-0.371-0.527-0.26-0.75 0.267-0.755 0.251-0.38 0.972 0.502 0.962 0.982 1.937 1.377 2.951 0.175 0.449 0.377 0.886 0.668 1.275 0.148 0.202 0.309 0.401 0.577 0.444 0.587 0.093 0.909 0.493 1.153 0.984 0.217 0.435 0.343 0.904 0.397 1.382 0.119 1.05 0.174 2.106 0.127 3.165-0.028 0.607-0.29 1.044-0.844 1.344-0.935 0.505-0.914 0.52-0.788 1.589 0.252 2.142 0.146 4.28-0.102 6.418-0.08 0.694-0.127 1.391-0.202 2.088-0.018 0.179 0.025 0.267 0.216 0.25 0.031-3e-3 0.062-1e-3 0.094 0 0.836 0.031 0.83 0.03 0.89-0.8 0.104-1.442 0.176-2.886 0.172-4.512" fill="#231e1f" fill-rule="evenodd"/></g><g id="flowRoot839" transform="matrix(.94668 0 0 -.94668 408.28 92.35)" fill="#d8031c" stroke-width="1px" aria-label="107.8FM"><path id="path847" d="m36.996-135.35v29.121h-8.0469v-19.082q-1.9531 1.4844-3.7891 2.4023-1.8164 0.91797-4.5703 1.7578v-6.5234q4.0625-1.3086 6.3086-3.1445 2.2461-1.8359 3.5156-4.5312z"/><path id="path849" d="m45.688-120.66q0-8.1641 2.9297-11.426 2.9492-3.2617 8.9648-3.2617 2.8906 0 4.7461 0.72265 1.8555 0.70313 3.0273 1.8555 1.1719 1.1328 1.8359 2.4024 0.68359 1.25 1.0938 2.9297 0.80078 3.2031 0.80078 6.6797 0 7.793-2.6367 11.406-2.6367 3.6133-9.082 3.6133-3.6133 0-5.8398-1.1523-2.2266-1.1523-3.6523-3.3789-1.0352-1.582-1.6211-4.3164-0.56641-2.7539-0.56641-6.0742zm7.8906 0.0195q0 5.4688 0.95703 7.4805 0.97656 1.9922 2.8125 1.9922 1.2109 0 2.0898-0.83985 0.89844-0.85937 1.3086-2.6953 0.42969-1.8359 0.42969-5.7227 0-5.7031-0.97656-7.6562-0.95703-1.9726-2.8906-1.9726-1.9727 0-2.8516 2.0117-0.87891 1.9922-0.87891 7.4023z"/><path id="path851" d="m72.543-134.86h23.223v5.3711q-3.0273 2.7344-5.0586 5.918-2.4609 3.8672-3.8867 8.6133-1.1328 3.6914-1.5234 8.7305h-7.9297q0.9375-7.0117 2.9492-11.758t6.3672-10.156h-14.141z"/><path id="path853" d="m99.906-114.2h8.4961v7.9688h-8.4961z"/><path id="path855" d="m117.27-121.62q-1.875-0.9961-2.7344-2.2266-1.1719-1.6797-1.1719-3.8672 0-3.5938 3.3789-5.8789 2.6367-1.7578 6.9726-1.7578 5.7422 0 8.4766 2.1875 2.7539 2.1875 2.7539 5.5078 0 1.9336-1.0938 3.6133-0.82031 1.25-2.5781 2.4219 2.3242 1.1133 3.457 2.9492 1.1523 1.8359 1.1523 4.0625 0 2.1484-0.99609 4.0234-0.97656 1.8555-2.4219 2.8711-1.4258 1.0156-3.5742 1.4844-2.1289 0.48828-4.5508 0.48828-4.5508 0-6.9531-1.0742-2.4023-1.0742-3.6523-3.1641-1.25-2.0898-1.25-4.668 0-2.5195 1.1719-4.2578 1.1719-1.7578 3.6133-2.7148zm3.5742-5.625q0 1.4844 0.91797 2.4023 0.9375 0.89844 2.4805 0.89844 1.3672 0 2.2461-0.89844 0.87891-0.89844 0.87891-2.3242 0-1.4844-0.91797-2.4023-0.91797-0.9375-2.3438-0.9375-1.4453 0-2.3633 0.91797-0.89844 0.89843-0.89844 2.3438zm-0.42969 12.324q0 1.8945 1.1524 3.1055 1.1523 1.1914 2.6367 1.1914 1.4258 0 2.5586-1.2109 1.1328-1.2305 1.1328-3.1055 0-1.8945-1.1523-3.1055-1.1328-1.2109-2.6367-1.2109-1.4844 0-2.5977 1.1719-1.0938 1.1719-1.0938 3.1641z"/><path id="path857" d="m140.53-134.86h21.875v6.1523h-12.988v5h11.094v5.7812h-11.094v11.699h-8.8867z"/><path id="path859" d="m167.11-134.86h11.641l4.4922 17.422 4.4727-17.422h11.602v28.633h-7.2266v-21.836l-5.6055 21.836h-6.543l-5.5859-21.836v21.836h-7.2461z"/></g><g id="g838" transform="matrix(12.423 0 0 12.423 165.15 412.85)"><path id="path840" d="m0 0c-0.778-0.027-1.614 0.263-2.383 0.774-0.209 0.137-0.393 0.303-0.537 0.507-0.163 0.233-0.221 0.482-0.075 0.742 0.146 0.266 0.399 0.332 0.676 0.309 0.454-0.04 0.877-0.206 1.283-0.39 0.447-0.204 0.883-0.221 1.353-0.104 0.511 0.129 1.031 0.237 1.561 0.218 0.397-0.014 0.789-0.09 0.928-0.549 0.115-0.384-0.082-0.761-0.544-1.025-0.652-0.371-1.371-0.467-2.262-0.482" fill="#fff" fill-rule="evenodd"/></g><g id="g842" transform="matrix(12.423 0 0 12.423 231.81 348)"><path id="path844" d="m0 0c-0.019-0.152-0.021-0.31-0.06-0.458-0.081-0.296-0.267-0.486-0.596-0.494-0.339-7e-3 -0.567 0.153-0.662 0.473-0.134 0.45-0.068 0.892 0.112 1.319 0.096 0.23 0.287 0.313 0.526 0.295 0.245-0.016 0.459-0.087 0.542-0.355 0.076-0.253 0.144-0.509 0.138-0.78" fill="#fff" fill-rule="evenodd"/></g><g id="g846" transform="matrix(12.423 0 0 12.423 390.41 450.13)"><path id="path848" d="m0 0c-0.759-0.216-1.516-0.437-2.277-0.646-0.364-0.098-0.552 7e-3 -0.6 0.436-0.176 1.564 0.205 2.919 1.373 4.023 0.286 0.271 0.595 0.416 1.001 0.397 2.117-0.104 4.122-0.552 6.002-1.606 2.454-1.376 3.647-4.29 3.321-7.053-0.253-2.145-1.127-4.038-2.384-5.781-0.69-0.957-1.437-1.856-2.332-2.619-1.058-0.903-2.179-1.717-3.487-2.237-0.369-0.148-0.71-0.155-1.076 0.022-0.741 0.362-1.466 0.746-2.033 1.363-0.418 0.455-0.448 0.865-0.135 1.398 0.711 1.207 0.52 2.167-0.624 2.964-0.325 0.226-0.486 0.439-0.332 0.842 0.099 0.258 0.14 0.542 0.177 0.817 0.093 0.677-0.02 1.287-0.557 1.784-0.51 0.47-0.481 0.533-0.126 1.139 0.399 0.679 0.78 1.369 1.126 2.076 0.176 0.365 0.339 0.433 0.726 0.28 1.299-0.517 2.608-0.493 3.898 0.062 0.337 0.144 0.595 0.372 0.741 0.703 0.316 0.718-0.042 1.438-0.807 1.621-0.241 0.057-0.491 0.071-0.736 0.105-0.33339 0.024768-0.54241-0.016183-0.859-0.09" fill="#d9001d" fill-rule="evenodd"/></g><g id="g850" transform="matrix(12.423 0 0 12.423 386.45 422.3)"><path id="path852" d="m0 0c-0.596 0.021-1.101 0.089-1.554 0.358-0.195 0.115-0.365 0.283-0.339 0.517 0.031 0.257 0.278 0.322 0.494 0.346 0.817 0.095 1.61 0.307 2.402 0.513 0.148 0.038 0.308 0.048 0.462 0.042 0.336-0.011 0.611-0.146 0.722-0.482 0.118-0.358-0.09-0.6-0.365-0.774-0.578-0.37-1.222-0.508-1.822-0.52" fill="#fff" fill-rule="evenodd"/></g></g></svg>
