<svg clip-rule="evenodd" stroke-linejoin="round" stroke-miterlimit="1.414" version="1.1" viewBox="0 0 800 799.99" xmlns="http://www.w3.org/2000/svg">
 <path d="m791.13 317.34c-46.129-216.37-258.74-355.15-473.34-308.21-216.66 44.903-355.05 257.18-308.92 473.53 46.15 216.35 258.76 355.15 473.36 308.19 216.64-44.882 355.03-257.16 308.9-473.51" fill="#70b3e2" stroke-width="20.779"/>
 <path d="m662.76 242.08a164.3 164.3 0 0 0-42.119 12.218c-8.0206 4.0934-22.067 8.1661-24.062 18.389-2.0156 8.1453 0 16.311 8.0206 20.405 10.015 2.0363 18.057-2.0363 26.077-4.0934 4.0103-2.0363 18.036-8.1661 16.041 0-6.0259 22.441-32.103 38.794-54.15 32.664a15.169 15.169 0 0 1-10.036-4.0727 47.293 47.293 0 0 1-14.047-14.296 62.337 62.337 0 0 1-10.015-42.867c1.9948-20.405 24.062-48.976 46.129-46.96 10.015 0 18.057 4.0934 28.072 6.1506 12.052 2.0363 22.067-4.0934 26.077-14.296 2.0156-4.0727 2.0156-8.1661 0-14.296-4.0103-14.275-22.067-20.405-34.077-24.478-8.0414-2.0571-16.062-2.0571-22.088-2.0571-40.103 4.0934-66.181 32.664-80.206 63.292-2.0156-6.1298-8.0414-18.389-16.062-18.389-10.036 0-22.067 6.1298-22.067 16.332 0 10.202 4.0103 18.369 8.0206 28.571 4.0103 12.26 18.057 59.22 20.052 71.438 0 2.0571 0 2.0571-1.9948 0 0 0 0-2.0363-2.0156-2.0363-1.9948-2.0363-1.9948-4.0727-4.0103-8.1661-1.9948-4.0727-4.0103-10.182-6.0259-14.275-1.9948-6.1298-6.0051-14.296-7.9999-20.426l-12.052-24.478c-1.9948-6.1298-12.031-24.498-26.057-22.441-8.0206 0-22.067 6.109-28.093 12.239-8.0206 10.182-4.0103 18.369-1.9948 28.571 6.0259 22.441 18.036 81.64 20.052 91.843s8.0206 16.332 16.041 16.332c20.072-2.0363 20.072-18.369 16.041-32.664-1.9948-12.26-10.015-42.867-12.031-48.976v-2.0571s2.0156 2.0571 2.0156 4.0934 1.9948 4.0727 1.9948 6.1298c10.036 20.405 16.062 32.644 22.067 42.846 6.0259 8.1661 14.047 20.426 26.077 18.369 8.0206 0 18.057-6.109 24.062-10.182 8.0206-6.1298 10.036-14.296 8.0206-24.519 0 0 4.0311 2.0571 6.0259 4.0934 22.067 14.296 44.134 14.296 54.15 14.296 10.036 0 64.207-6.1298 80.248-61.235 8.0206-18.369 8.0206-53.069-24.083-51.033m-324.94 153.08c-16.041 8.1661-34.077 4.0934-44.114-6.109-8.0206-8.1661-18.057-24.519-18.057-40.83 0-14.296 6.0259-28.571 14.047-36.737 6.0259-6.1298 16.041-10.202 26.077-10.202 52.155 0 66.181 73.474 22.046 93.879m-146.41 57.142c-10.036 6.1298-24.062 6.1298-28.093-6.109-4.0103-10.202-6.0259-22.441-10.015-32.664 0-4.0727-2.0156-8.1661-2.0156-12.26-8.0206-30.607 34.098-38.753 54.171-28.55 6.0259 4.0727 12.031 10.182 14.026 16.332 14.047 34.701-10.015 53.048-28.072 63.272m-56.165-120.46c-4.0103-4.0727-10.036-26.535-12.052-38.773 0-6.1298 2.0156-10.202 4.0311-10.202 8.0206-6.1298 22.067-8.1661 32.083-4.0934 10.036 4.0934 14.047 12.26 12.052 22.441-2.0156 8.1869-6.0259 18.389-14.047 24.519-4.0103 4.0727-16.041 12.239-22.067 6.109m276.8-61.235c-12.052-16.332-44.134 2.0571-30.088 18.369a73.973 73.973 0 0 0-36.093-28.571c-16.062-6.1298-38.108-6.1298-54.171 2.0363-32.083 12.26-48.124 40.83-52.155 69.401-14.026-4.0727-30.067-4.0727-44.114-2.0363 1.9948 0 10.036-10.202 14.047-18.369 8.0206-16.332 8.0206-32.664 0-48.997-20.072-42.846-80.248-26.535-110.34-8.1661-18.036 10.223-24.062 24.519-20.052 44.903 8.0206 46.96 20.072 95.936 34.098 142.88 4.0103 12.26 6.0259 24.519 12.052 36.758 10.015 24.478 42.119 32.644 66.181 22.441 54.15-20.405 78.232-51.033 84.238-79.583 10.036 8.1453 24.062 12.239 40.103 12.239 48.145 2.0363 82.243-30.628 86.253-77.568 4.0103 10.202 4.0103 26.535 18.078 26.535 16.021 2.0363 14.026-14.296 14.026-24.498-2.0156-14.296-14.047-73.474-22.067-87.77m-38.108-22.42c26.077 0 48.145-22.441 48.145-48.997 0-26.535-22.067-48.976-48.145-48.976s-48.145 22.441-48.145 48.976 22.067 48.997 48.145 48.997" fill="#fff" stroke-width="20.779"/>
</svg>
