<svg version="1.1" viewBox="0 0 1e3 437.73" xmlns="http://www.w3.org/2000/svg">
 <g transform="translate(0 -614.64)">
  <g transform="matrix(.21029 0 0 .21029 242.96 223.17)" fill="#ff1e00">
   <path d="m-1153.6 3050 866.83-859.84c246.49-241.33 400.61-328.56 880.81-328.56h2167.1l-450.89 443.9h-1611.3c-377.98 0-469.19 51.911-643.13 220.2l-538.27 524.29z"/>
   <path d="m-360.16 3050 488.55-489.34c128.26-126.42 214.35-181.75 518.66-181.75h1593.3l-415.94 415.24h-1125.5c-171.19 0-225.12 45.541-265.64 85.019l-171.27 170.84z"/>
   <path d="m1668.5 3050 1185.6-1188.4h745.89l-1188.4 1188.4z"/>
   <g transform="matrix(5.153 0 0 5.153 12.736 -195.68)">
    <path d="m533.54 629.92v-24.492h-8.8394v-4.141h22.695v4.141h-9.027v24.492z"/>
    <path d="m551.04 629.92v-28.633h7.3312l6.3572 17.385c0.62499 1.888 1.0807 3.3008 1.3672 4.2383 0.3255-1.0417 0.83332-2.5716 1.5234-4.5898l5.9627-17.033h7.1983v28.633h-4.4401v-22.284l-8.2678 22.284h-4.2582c-2.7604-5.8955-4.7331-14.499-7.4935-21.749v21.749z"/>
   </g>
  </g>
  <path d="m0 1050v-144.86h110.28v19.384h-88.016v42.96h84.48v19.384h-84.48v63.13z" fill="#fff" fill-rule="evenodd"/>
  <path d="m171.05 931.73c-37.916 0-50.557 23.331-50.557 48.33v23.052c0 30.601 16.59 49.247 49.206 49.247h16.74c28.684 0 52.98-12.963 52.98-50.909v-19.556c0-26.458-13.018-50.164-52.128-50.164zm-1.0478 18.206h20.694c21.238 0 26.457 12.521 26.457 26.457v30.648c0 18.583-8.005 26.981-26.981 26.981h-24.1c-14.682 0-23.576-9.5939-23.576-28.029v-28.553c0-19.855 10.301-27.505 27.505-27.505z" fill="#fff"/>
  <path d="m258.02 1050v-85.199c0-19.335 6.942-30.584 35.102-30.584h28.553v19.253h-23.576c-14.884 0-18.861 6.9683-18.861 16.096l-0.26196 80.171z" fill="#fff"/>
  <path d="m339.75 1050v-115.78h21.218v24.623c0.50821-10.575 7.5586-24.623 27.767-24.623h18.075c23.59 0 29.194 19.157 29.194 19.157s1.9398-19.157 26.601-19.157h17.813c26.21 0 34.84 17.065 34.84 39.293v76.49h-21.218v-78.062c0-13.915-6.1709-18.468-18.544-18.468h-18.809c-14.531 0-18.574 7.5241-18.574 18.73v77.8h-21.218v-78.324c0-11.268-3.8067-18.206-18.73-18.206h-18.599c-11.603 0-18.598 4.4749-18.598 18.468v78.062z" fill="#fff"/>
  <path d="m536.74 934.22v76.49c0 22.39 8.8362 39.293 35.364 39.293h67.846v-115.78h-21.218v96.398h-44.008c-11.498 0-16.765-6.4117-16.765-17.623v-78.776z" fill="#fff"/>
  <path d="m665.2 905.14h21.218v144.86h-21.218z" fill="#fff"/>
  <path d="m708.32 934.22v18.337h75.704l-58.153 36.411c-15.689 9.9678-22.863 17.331-22.863 32.548 0 21.31 14.521 28.487 33.08 28.487h75.287v-81.082c0-7.0585-1.2913-18.804-8.2269-25.524-6.9356-6.7205-18.605-9.1766-31.049-9.1766zm81.991 34.578v61.821h-52.914c-7.0536 0-12.254-2.9032-12.254-11.174 0-8.4575 4.6981-12.221 11.731-16.855z" fill="#fff"/>
  <path d="m864.7 1050v-19.384h43.746v-100.59c0-2.4577-1.7767-5.5009-5.501-5.5009h-33.792v-19.227h37.983c17.942 0 23.445 11.012 23.445 23.419v101.9h38.638v19.384z" fill="#fff"/>
 </g>
</svg>
