<svg width="800" height="209.42" version="1.1" viewBox="0 0 211.67 55.41" xmlns="http://www.w3.org/2000/svg" xmlns:xlink="http://www.w3.org/1999/xlink">
 <defs>
  <clipPath id="av">
   <use width="100%" height="100%" overflow="visible" xlink:href="#r"/>
  </clipPath>
  <linearGradient id="z" x1="-1062.7" x2="-1062.7" y1="164.27" y2="164.27" gradientTransform="matrix(235.44,0,0,235.44,250226,-38658)" gradientUnits="userSpaceOnUse">
   <stop stop-color="#DE006B" offset="0"/>
   <stop stop-color="#DE006B" offset=".0034"/>
   <stop stop-color="#DD1D78" offset=".0841"/>
   <stop stop-color="#DC3A84" offset=".1841"/>
   <stop stop-color="#DC4E8D" offset=".2837"/>
   <stop stop-color="#DB5B92" offset=".3817"/>
   <stop stop-color="#DB5F94" offset=".4766"/>
   <stop stop-color="#DB5B92" offset=".5815"/>
   <stop stop-color="#DC4E8D" offset=".69"/>
   <stop stop-color="#DC3A84" offset=".8001"/>
   <stop stop-color="#DD1D78" offset=".9107"/>
   <stop stop-color="#DE006B" offset="1"/>
  </linearGradient>
  <clipPath id="ah">
   <use width="100%" height="100%" overflow="visible" xlink:href="#j"/>
  </clipPath>
  <linearGradient id="v" x1="-1067.2" x2="-1067.1" y1="165.02" y2="165.02" gradientTransform="matrix(0,-513.6,513.6,0,-84737,-548066)" gradientUnits="userSpaceOnUse">
   <stop stop-color="#DC006B" offset="0"/>
   <stop stop-color="#DC0B70" offset=".0491"/>
   <stop stop-color="#DC297D" offset=".2098"/>
   <stop stop-color="#DB4187" offset=".3791"/>
   <stop stop-color="#DB528E" offset=".5585"/>
   <stop stop-color="#DB5C93" offset=".7548"/>
   <stop stop-color="#DB5F94" offset="1"/>
  </linearGradient>
  <clipPath id="w">
   <use width="100%" height="100%" overflow="visible" xlink:href="#b"/>
  </clipPath>
  <linearGradient id="bi" x1="-640.93" x2="-640.86" y1="351.68" y2="351.68" gradientTransform="matrix(1.8968,0,0,1.8968,1248,-652.39)" gradientUnits="userSpaceOnUse">
   <stop stop-color="#C92373" offset="0"/>
   <stop stop-color="#CA2574" offset=".0045"/>
   <stop stop-color="#D65794" offset=".1079"/>
   <stop stop-color="#E184B1" offset=".2156"/>
   <stop stop-color="#EAAAC8" offset=".3268"/>
   <stop stop-color="#F2C9DC" offset=".4417"/>
   <stop stop-color="#F8E1EB" offset=".5616"/>
   <stop stop-color="#FCF1F6" offset=".6884"/>
   <stop stop-color="#FEFBFC" offset=".827"/>
   <stop stop-color="#FFFFFE" offset=".9996"/>
   <stop stop-color="#FFFFFE" offset="1"/>
  </linearGradient>
  <clipPath id="bj">
   <use width="100%" height="100%" overflow="visible" xlink:href="#a"/>
  </clipPath>
  <linearGradient id="bg" x1="-640.93" x2="-640.86" y1="351.68" y2="351.68" gradientTransform="matrix(1.8968,0,0,1.8968,1248,-652.39)" gradientUnits="userSpaceOnUse">
   <stop stop-color="#fff" offset="0"/>
   <stop stop-color="#FBEEF1" offset=".1086"/>
   <stop stop-color="#F6D6DF" offset=".2996"/>
   <stop stop-color="#F2C5D1" offset=".5028"/>
   <stop stop-color="#F0BBCA" offset=".7245"/>
   <stop stop-color="#EFB8C7" offset=".9996"/>
   <stop stop-color="#EFB8C7" offset="1"/>
  </linearGradient>
  <clipPath id="bh">
   <use width="100%" height="100%" overflow="visible" xlink:href="#u"/>
  </clipPath>
  <linearGradient id="be" x1="-1062.4" x2="-1062.3" y1="164.58" y2="164.58" gradientTransform="matrix(189.44,0,0,189.44,201284,-31159)" gradientUnits="userSpaceOnUse">
   <stop stop-color="#C92373" offset="0"/>
   <stop stop-color="#CA2574" offset=".0045"/>
   <stop stop-color="#D65794" offset=".1079"/>
   <stop stop-color="#E184B1" offset=".2157"/>
   <stop stop-color="#EAAAC8" offset=".3269"/>
   <stop stop-color="#F2C9DC" offset=".4419"/>
   <stop stop-color="#F8E1EB" offset=".5618"/>
   <stop stop-color="#FCF1F6" offset=".6887"/>
   <stop stop-color="#FEFBFC" offset=".8274"/>
   <stop stop-color="#FFFFFE" offset="1"/>
  </linearGradient>
  <clipPath id="bf">
   <use width="100%" height="100%" overflow="visible" xlink:href="#t"/>
  </clipPath>
  <linearGradient id="bc" x1="-1062.4" x2="-1062.3" y1="164.58" y2="164.58" gradientTransform="matrix(189.44,0,0,189.44,201284,-31159)" gradientUnits="userSpaceOnUse">
   <stop stop-color="#fff" offset="0"/>
   <stop stop-color="#FBEEF1" offset=".1087"/>
   <stop stop-color="#F6D6DF" offset=".2997"/>
   <stop stop-color="#F2C5D1" offset=".503"/>
   <stop stop-color="#F0BBCA" offset=".7248"/>
   <stop stop-color="#EFB8C7" offset="1"/>
  </linearGradient>
  <clipPath id="bd">
   <use width="100%" height="100%" overflow="visible" xlink:href="#s"/>
  </clipPath>
  <linearGradient id="ba" x1="-640.93" x2="-640.86" y1="351.68" y2="351.68" gradientTransform="matrix(1.8968,0,0,1.8968,1248,-652.39)" gradientUnits="userSpaceOnUse">
   <stop stop-color="#C92373" offset="0"/>
   <stop stop-color="#CA2574" offset=".0045"/>
   <stop stop-color="#D65794" offset=".1079"/>
   <stop stop-color="#E184B1" offset=".2157"/>
   <stop stop-color="#EAAAC8" offset=".3269"/>
   <stop stop-color="#F2C9DC" offset=".4419"/>
   <stop stop-color="#F8E1EB" offset=".5618"/>
   <stop stop-color="#FCF1F6" offset=".6887"/>
   <stop stop-color="#FEFBFC" offset=".8274"/>
   <stop stop-color="#FFFFFE" offset="1"/>
  </linearGradient>
  <clipPath id="bb">
   <use width="100%" height="100%" overflow="visible" xlink:href="#q"/>
  </clipPath>
  <linearGradient id="ay" x1="-640.93" x2="-640.86" y1="351.68" y2="351.68" gradientTransform="matrix(1.8968,0,0,1.8968,1248,-652.39)" gradientUnits="userSpaceOnUse">
   <stop stop-color="#fff" offset="0"/>
   <stop stop-color="#FBEEF1" offset=".1087"/>
   <stop stop-color="#F6D6DF" offset=".2997"/>
   <stop stop-color="#F2C5D1" offset=".503"/>
   <stop stop-color="#F0BBCA" offset=".7248"/>
   <stop stop-color="#EFB8C7" offset="1"/>
  </linearGradient>
  <clipPath id="az">
   <use width="100%" height="100%" overflow="visible" xlink:href="#p"/>
  </clipPath>
  <linearGradient id="aw" x1="-1067.2" x2="-1067.1" y1="164.54" y2="164.54" gradientTransform="matrix(0,-514.52,514.52,0,-84625,-549046)" gradientUnits="userSpaceOnUse">
   <stop stop-color="#DE0075" offset="0"/>
   <stop stop-color="#DE0B78" offset=".0484"/>
   <stop stop-color="#DD2982" offset=".2096"/>
   <stop stop-color="#DC418A" offset=".3793"/>
   <stop stop-color="#DB5290" offset=".5591"/>
   <stop stop-color="#DB5C93" offset=".7554"/>
   <stop stop-color="#DB5F94" offset="1"/>
  </linearGradient>
  <clipPath id="ax">
   <use width="100%" height="100%" overflow="visible" xlink:href="#o"/>
  </clipPath>
  <radialGradient id="at" cx="-1065.2" cy="163.24" r=".0867" gradientTransform="matrix(232.02,0,0,434.48,247204,-70897)" gradientUnits="userSpaceOnUse">
   <stop stop-color="#DB5F94" offset="0"/>
   <stop stop-color="#DB5F94" offset=".0014"/>
   <stop stop-color="#DB5C93" offset=".2456"/>
   <stop stop-color="#DB5290" offset=".4417"/>
   <stop stop-color="#DC418A" offset=".6212"/>
   <stop stop-color="#DD2982" offset=".7907"/>
   <stop stop-color="#DE0B78" offset=".9517"/>
   <stop stop-color="#DE0075" offset="1"/>
  </radialGradient>
  <clipPath id="au">
   <use width="100%" height="100%" overflow="visible" xlink:href="#n"/>
  </clipPath>
  <radialGradient id="ar" cx="-1066.1" cy="163.91" r=".0852" gradientTransform="matrix(211.3,0,0,376.49,225328,-61705)" gradientUnits="userSpaceOnUse">
   <stop stop-color="#DB5F94" offset="0"/>
   <stop stop-color="#DB5F94" offset=".0078"/>
   <stop stop-color="#DB5C93" offset=".2512"/>
   <stop stop-color="#DB528E" offset=".4459"/>
   <stop stop-color="#DC4187" offset=".6239"/>
   <stop stop-color="#DD297D" offset=".7917"/>
   <stop stop-color="#DE0B70" offset=".9512"/>
   <stop stop-color="#DE006B" offset="1"/>
  </radialGradient>
  <clipPath id="as">
   <use width="100%" height="100%" overflow="visible" xlink:href="#m"/>
  </clipPath>
  <linearGradient id="ap" x1="-1067.2" x2="-1067.1" y1="162.91" y2="162.91" gradientTransform="matrix(0,-500.4,500.4,0,-81421,-533979)" gradientUnits="userSpaceOnUse">
   <stop stop-color="#DE006B" offset="0"/>
   <stop stop-color="#DE0B70" offset=".0492"/>
   <stop stop-color="#DD297D" offset=".2099"/>
   <stop stop-color="#DC4187" offset=".3791"/>
   <stop stop-color="#DB528E" offset=".5584"/>
   <stop stop-color="#DB5C93" offset=".7547"/>
   <stop stop-color="#DB5F94" offset="1"/>
  </linearGradient>
  <clipPath id="aq">
   <use width="100%" height="100%" overflow="visible" xlink:href="#l"/>
  </clipPath>
  <linearGradient id="an" x1="-1067" x2="-1067" y1="164.04" y2="164.04" gradientTransform="matrix(285.55,0,0,285.55,304782,-46821)" gradientUnits="userSpaceOnUse">
   <stop stop-color="#C92373" offset="0"/>
   <stop stop-color="#CA2574" offset=".0045"/>
   <stop stop-color="#D65794" offset=".1079"/>
   <stop stop-color="#E184B1" offset=".2157"/>
   <stop stop-color="#EAAAC8" offset=".3269"/>
   <stop stop-color="#F2C9DC" offset=".4419"/>
   <stop stop-color="#F8E1EB" offset=".5618"/>
   <stop stop-color="#FCF1F6" offset=".6887"/>
   <stop stop-color="#FEFBFC" offset=".8274"/>
   <stop stop-color="#FFFFFE" offset="1"/>
  </linearGradient>
  <clipPath id="ao">
   <use width="100%" height="100%" overflow="visible" xlink:href="#k"/>
  </clipPath>
  <linearGradient id="al" x1="-1067" x2="-1067" y1="164.04" y2="164.04" gradientTransform="matrix(285.55,0,0,285.55,304782,-46821)" gradientUnits="userSpaceOnUse">
   <stop stop-color="#fff" offset="0"/>
   <stop stop-color="#FBEEF1" offset=".1087"/>
   <stop stop-color="#F6D6DF" offset=".2997"/>
   <stop stop-color="#F2C5D1" offset=".503"/>
   <stop stop-color="#F0BBCA" offset=".7248"/>
   <stop stop-color="#EFB8C7" offset="1"/>
  </linearGradient>
  <clipPath id="am">
   <use width="100%" height="100%" overflow="visible" xlink:href="#i"/>
  </clipPath>
  <linearGradient id="aj" x1="-1066" x2="-1065.9" y1="163.03" y2="163.03" gradientTransform="matrix(-178,496,-496,-178,-108770,557746)" gradientUnits="userSpaceOnUse">
   <stop stop-color="#DE0075" offset="0"/>
   <stop stop-color="#DE0075" offset=".0024"/>
   <stop stop-color="#DD2181" offset=".1288"/>
   <stop stop-color="#DD3F8D" offset=".2767"/>
   <stop stop-color="#DD5796" offset=".4324"/>
   <stop stop-color="#DC689C" offset=".597"/>
   <stop stop-color="#DC72A0" offset=".7768"/>
   <stop stop-color="#DC75A1" offset="1"/>
  </linearGradient>
  <clipPath id="ak">
   <use width="100%" height="100%" overflow="visible" xlink:href="#h"/>
  </clipPath>
  <radialGradient id="ag" cx="-1069.3" cy="164.21" r=".0861" gradientTransform="matrix(188.06,0,0,183.39,201211,-30095)" gradientUnits="userSpaceOnUse">
   <stop stop-color="#DE006B" offset="0"/>
   <stop stop-color="#DE006B" offset=".0032"/>
   <stop stop-color="#DD1D78" offset=".0809"/>
   <stop stop-color="#DC3A84" offset=".1773"/>
   <stop stop-color="#DC4E8D" offset=".2733"/>
   <stop stop-color="#DB5B92" offset=".3678"/>
   <stop stop-color="#DB5F94" offset=".4592"/>
   <stop stop-color="#DB5C93" offset=".5902"/>
   <stop stop-color="#DB528E" offset=".6966"/>
   <stop stop-color="#DC4187" offset=".7944"/>
   <stop stop-color="#DD297D" offset=".887"/>
   <stop stop-color="#DE0A6F" offset=".9752"/>
   <stop stop-color="#DE006B" offset="1"/>
  </radialGradient>
  <clipPath id="ai">
   <use width="100%" height="100%" overflow="visible" xlink:href="#g"/>
  </clipPath>
  <linearGradient id="ae" x1="-1066" x2="-1065.9" y1="163.91" y2="163.91" gradientTransform="matrix(0,498.37,-498.37,0,81815,531257)" gradientUnits="userSpaceOnUse">
   <stop stop-color="#DE006B" offset="0"/>
   <stop stop-color="#DE0B70" offset=".0492"/>
   <stop stop-color="#DD297D" offset=".2099"/>
   <stop stop-color="#DC4187" offset=".3791"/>
   <stop stop-color="#DB528E" offset=".5584"/>
   <stop stop-color="#DB5C93" offset=".7547"/>
   <stop stop-color="#DB5F94" offset="1"/>
  </linearGradient>
  <clipPath id="af">
   <use width="100%" height="100%" overflow="visible" xlink:href="#f"/>
  </clipPath>
  <linearGradient id="ac" x1="-1069.5" x2="-1069.4" y1="164.47" y2="164.47" gradientTransform="matrix(209.42,0,0,209.42,224095,-34425)" gradientUnits="userSpaceOnUse">
   <stop stop-color="#C92373" offset="0"/>
   <stop stop-color="#D55592" offset=".1042"/>
   <stop stop-color="#E081AF" offset=".2138"/>
   <stop stop-color="#EAA8C7" offset=".3281"/>
   <stop stop-color="#F1C7DB" offset=".4457"/>
   <stop stop-color="#F7E0EB" offset=".5676"/>
   <stop stop-color="#FCF1F5" offset=".6956"/>
   <stop stop-color="#FEFBFC" offset=".8336"/>
   <stop stop-color="#FFFFFE" offset="1"/>
  </linearGradient>
  <clipPath id="ad">
   <use width="100%" height="100%" overflow="visible" xlink:href="#e"/>
  </clipPath>
  <linearGradient id="aa" x1="-1069.5" x2="-1069.4" y1="164.47" y2="164.47" gradientTransform="matrix(209.42,0,0,209.42,224095,-34425)" gradientUnits="userSpaceOnUse">
   <stop stop-color="#fff" offset="0"/>
   <stop stop-color="#FBEFF2" offset=".104"/>
   <stop stop-color="#F6D7DF" offset=".2996"/>
   <stop stop-color="#F2C6D2" offset=".5064"/>
   <stop stop-color="#F0BBCA" offset=".7299"/>
   <stop stop-color="#EFB8C7" offset="1"/>
  </linearGradient>
  <clipPath id="ab">
   <use width="100%" height="100%" overflow="visible" xlink:href="#d"/>
  </clipPath>
  <linearGradient id="x" x1="-1067.2" x2="-1067.1" y1="161.82" y2="161.82" gradientTransform="matrix(0,-508.74,508.74,0,-82185,-542889)" gradientUnits="userSpaceOnUse">
   <stop stop-color="#DE006B" offset="0"/>
   <stop stop-color="#DE006B" offset=".01"/>
   <stop stop-color="#DE0B70" offset=".0587"/>
   <stop stop-color="#DD297D" offset=".2178"/>
   <stop stop-color="#DC4187" offset=".3852"/>
   <stop stop-color="#DB528E" offset=".5628"/>
   <stop stop-color="#DB5C93" offset=".7571"/>
   <stop stop-color="#DB5F94" offset="1"/>
  </linearGradient>
  <clipPath id="y">
   <use width="100%" height="100%" overflow="visible" xlink:href="#c"/>
  </clipPath>
  <rect id="r" x="11.46" y="1" width="133.7" height="34.999"/>
  <path id="j" d="m32.438 15.129c1e-3 0.059 3e-3 0.118 3e-3 0.176 0-0.057-1e-3 -0.117-3e-3 -0.176m-15.849-10.081m10.316-3.118h-4e-3c-4.059 1e-3 -7.406 0.756-10.312 3.118-0.699-0.681-2.458-1.855-5.128-2.533v33.366h7.59v-20.048s0.01-0.179 0.014-0.491c0.204-4.176 3.023-6.524 7.383-6.524 4.023 0 5.866 2.59 5.989 6.271-0.016-0.454-0.069-0.892-0.137-1.31 0.089 0.562 0.12 1.16 0.12 1.793v20.309h7.619l0.042-0.171v-20.332c0-7.987-4.314-13.444-13.169-13.448h-7e-3"/>
  <path id="b" d="m11.46 35.906h7.593v-20.073s0.363-8.029-2.463-10.785c-0.698-0.68-2.459-1.855-5.13-2.533z"/>
  <path id="a" d="m32.443 15.572c4e-3 -0.628-0.04-1.229-0.132-1.793 0.09 0.561 0.132 1.16 0.132 1.793"/>
  <path id="u" d="m32.443 15.572c4e-3 -0.628-0.04-1.229-0.132-1.793 0.09 0.561 0.132 1.16 0.132 1.793"/>
  <path id="t" d="m26.93 1.946s5.514 0.887 5.514 13.625v20.334h7.595l0.067-0.196v-20.331c0-7.99-4.33-13.448-13.191-13.448z"/>
  <path id="s" d="m26.93 1.946s5.514 0.887 5.514 13.625v20.334h7.595l0.067-0.196v-20.331c0-7.99-4.33-13.448-13.191-13.448z"/>
  <path id="q" d="m32.443 15.572c4e-3 -0.628-0.04-1.229-0.132-1.793 0.09 0.561 0.132 1.16 0.132 1.793"/>
  <path id="p" d="m32.443 15.572c4e-3 -0.628-0.04-1.229-0.132-1.793 0.09 0.561 0.132 1.16 0.132 1.793"/>
  <path id="o" d="m26.93 1.946s5.514 0.887 5.514 13.625v20.334h7.595l0.067-0.196v-20.331c0-7.99-4.33-13.448-13.191-13.448z"/>
  <path id="n" d="m55.12 22.905v-8.837c0-4.417 2.727-6.3 6.723-6.3 4.264 0 6.856 2.078 6.856 6.3v8.837c-0.14 4.417-3.057 6.43-7.122 6.43-4.33 0-6.457-2.274-6.457-6.43m-7.66-8.837v8.837c0 7.988 6.188 12.99 14.382 12.99 8.061 0 14.516-4.871 14.516-12.99v-8.837c0-7.6-5.923-13.056-14.516-13.056-7.926 0-14.382 4.872-14.382 13.056"/>
  <path id="m" d="m68.73 14.068v8.837c-0.199 4.417-3.062 6.43-7.127 6.43-4.33 0-6.461-2.274-6.461-6.43 0 11.69 6.728 12.99 6.728 12.99 8.061 0 14.521-4.871 14.521-12.99v-8.837c0-7.6-5.928-13.056-14.521-13.056 0 0 6.86 1.406 6.86 13.056"/>
  <path id="l" d="m104.28 2.337-7.987 22.077-7.896-22.007-0.023-0.07h-8.219l12.457 33.181 0.044 0.018c1.152 0.463 2.472 0.463 3.637 0.463 1.289 0 2.618 0 3.771-0.463l0.043-0.018 12.392-33.181z"/>
  <path id="k" d="m104.28 2.338-7.987 22.076-3.681 11.106 0.044 0.016c1.153 0.464 2.472 0.464 3.637 0.464 1.289 0 2.618 0 3.771-0.464l0.043-0.016 12.392-33.181z"/>
  <path id="i" d="m104.28 2.338-7.987 22.076-3.681 11.106 0.044 0.016c1.153 0.464 2.472 0.464 3.637 0.464 1.289 0 2.618 0 3.771-0.464l0.043-0.016 12.392-33.181z"/>
  <path id="h" d="m104.28 2.338-7.987 22.076-3.681 11.106 0.044 0.016c1.153 0.464 2.472 0.464 3.637 0.464 1.289 0 2.618 0 3.771-0.464l0.043-0.016 12.392-33.181z"/>
  <path id="g" d="m123.78 22.905v-8.837c0-4.417 2.739-6.3 6.736-6.3 3.737 0 6.188 1.597 6.737 4.835 0.026 0.483 0.035 0.984 0.035 1.506v8.738l0.01 0.061s-1e-3 0.275 0.017 0.737c-0.474 3.902-3.235 5.689-7.065 5.689-4.329 1e-3 -6.47-2.273-6.47-6.429m6.795-21.905s0.02 4e-3 0.056 0.014c-0.036-1e-3 -0.077-1e-3 -0.114-1e-3 -7.927 0-14.396 4.872-14.396 13.056v8.837c0 7.988 6.202 12.99 14.396 12.99 3.629 0 6.937-0.986 9.474-2.814 0.021 0.021 0.043 0.044 0.063 0.063 1.033 0.953 2.572 1.7 4.97 2.42l0.134 0.041-0.01-21.495c0-1.876-0.357-3.649-1.063-5.267-0.692-1.583-1.698-2.98-2.992-4.151-1.298-1.176-2.85-2.089-4.607-2.718-1.811-0.647-3.799-0.975-5.911-0.975z"/>
  <path id="f" d="m116.13 14.068v8.837c0 7.988 6.196 12.99 14.39 12.99 0 0-6.729-1.3-6.729-12.99v-8.837c0-4.417 2.732-6.3 6.729-6.3 4.265 0 6.861 2.078 6.861 6.3 0-11.65-6.861-13.056-6.861-13.056-7.927 0-14.39 4.872-14.39 13.056"/>
  <path id="e" d="m130.57 1s6.732 1.346 6.732 13.111v8.737l2e-3 0.061s-0.056 7.504 2.745 10.236c1.034 0.954 2.572 1.701 4.97 2.421l0.134 0.041-0.011-21.495c0-1.876-0.357-3.649-1.063-5.267-0.692-1.583-1.698-2.98-2.992-4.152-1.298-1.175-2.85-2.089-4.607-2.718-1.81-0.647-3.798-0.975-5.91-0.975z"/>
  <path id="d" d="m130.57 1s6.732 1.346 6.732 13.111v8.737l2e-3 0.061s-0.056 7.504 2.745 10.236c1.034 0.954 2.572 1.701 4.97 2.421l0.134 0.041-0.011-21.495c0-1.876-0.357-3.649-1.063-5.267-0.692-1.583-1.698-2.98-2.992-4.152-1.298-1.175-2.85-2.089-4.607-2.718-1.81-0.647-3.798-0.975-5.91-0.975z"/>
  <path id="c" d="m130.57 1s6.732 1.346 6.732 13.111v8.737l2e-3 0.061s-0.056 7.504 2.745 10.236c1.034 0.954 2.572 1.701 4.97 2.421l0.134 0.041-0.011-21.495c0-1.876-0.357-3.649-1.063-5.267-0.692-1.583-1.698-2.98-2.992-4.152-1.298-1.175-2.85-2.089-4.607-2.718-1.81-0.647-3.798-0.975-5.91-0.975z"/>
 </defs>
 <g transform="translate(34.696 -98.053)">
  <g transform="matrix(1.5831 0 0 1.5831 -52.839 96.47)">
   <clipPath>
    <use width="100%" height="100%" overflow="visible" xlink:href="#r"/>
   </clipPath>
   <rect x="7.422" y="-2.133" width="141.63" height="40.935" clip-path="url(#av)" fill="none" stroke="#000" stroke-miterlimit="10"/>
   <clipPath>
    <use width="100%" height="100%" overflow="visible" xlink:href="#j"/>
   </clipPath>
   <path d="m11.46 1.93h28.619v33.951h-28.619z" clip-path="url(#ah)" fill="url(#z)"/>
   <clipPath>
    <use width="100%" height="100%" overflow="visible" xlink:href="#b"/>
   </clipPath>
   <path d="m11.46 2.515h7.956v33.392h-7.956z" clip-path="url(#w)" fill="url(#v)"/>
   <clipPath>
    <use width="100%" height="100%" overflow="visible" xlink:href="#a"/>
   </clipPath>
   <rect x="32.312" y="13.778" width=".136" height="1.793" clip-path="url(#bj)" fill="url(#bi)"/>
   <clipPath>
    <use width="100%" height="100%" overflow="visible" xlink:href="#u"/>
   </clipPath>
   <rect x="32.312" y="13.778" width=".136" height="1.793" clip-path="url(#bh)" fill="url(#bg)"/>
   <clipPath>
    <use width="100%" height="100%" overflow="visible" xlink:href="#t"/>
   </clipPath>
   <rect x="26.915" y="1.93" width="13.191" height="33.976" clip-path="url(#bf)" fill="url(#be)"/>
   <clipPath>
    <use width="100%" height="100%" overflow="visible" xlink:href="#s"/>
   </clipPath>
   <rect x="26.915" y="1.93" width="13.191" height="33.976" clip-path="url(#bd)" fill="url(#bc)"/>
   <clipPath>
    <use width="100%" height="100%" overflow="visible" xlink:href="#q"/>
   </clipPath>
   <rect x="32.312" y="13.778" width=".136" height="1.793" clip-path="url(#bb)" fill="url(#ba)"/>
   <clipPath>
    <use width="100%" height="100%" overflow="visible" xlink:href="#p"/>
   </clipPath>
   <rect x="32.312" y="13.778" width=".136" height="1.793" clip-path="url(#az)" fill="url(#ay)"/>
   <clipPath>
    <use width="100%" height="100%" overflow="visible" xlink:href="#o"/>
   </clipPath>
   <path d="m26.915 1.93h13.191v33.976h-13.191z" clip-path="url(#ax)" fill="url(#aw)"/>
   <clipPath>
    <use width="100%" height="100%" overflow="visible" xlink:href="#n"/>
   </clipPath>
   <path d="m47.46 1.012h28.898v34.883h-28.898z" clip-path="url(#au)" fill="url(#at)"/>
   <clipPath>
    <use width="100%" height="100%" overflow="visible" xlink:href="#m"/>
   </clipPath>
   <path d="m55.142 1.012h21.249v34.883h-21.249z" clip-path="url(#as)" fill="url(#ar)"/>
   <clipPath>
    <use width="100%" height="100%" overflow="visible" xlink:href="#l"/>
   </clipPath>
   <path d="m80.156 2.337h32.341v33.662h-32.341z" clip-path="url(#aq)" fill="url(#ap)"/>
   <clipPath>
    <use width="100%" height="100%" overflow="visible" xlink:href="#k"/>
   </clipPath>
   <rect x="92.613" y="2.338" width="19.884" height="33.661" clip-path="url(#ao)" fill="url(#an)"/>
   <clipPath>
    <use width="100%" height="100%" overflow="visible" xlink:href="#i"/>
   </clipPath>
   <rect x="92.613" y="2.338" width="19.884" height="33.661" clip-path="url(#am)" fill="url(#al)"/>
   <clipPath>
    <use width="100%" height="100%" overflow="visible" xlink:href="#h"/>
   </clipPath>
   <path d="m81.64 32.158 13.243-35.985 28.587 10.006-13.24 35.985z" clip-path="url(#ak)" fill="url(#aj)"/>
   <clipPath>
    <use width="100%" height="100%" overflow="visible" xlink:href="#g"/>
   </clipPath>
   <path d="m116.12 1h29.035v34.896h-29.035z" clip-path="url(#ai)" fill="url(#ag)"/>
   <clipPath>
    <use width="100%" height="100%" overflow="visible" xlink:href="#f"/>
   </clipPath>
   <path d="m116.13 1.012h21.251v34.883h-21.251z" clip-path="url(#af)" fill="url(#ae)"/>
   <clipPath>
    <use width="100%" height="100%" overflow="visible" xlink:href="#e"/>
   </clipPath>
   <rect x="130.57" y="1" width="14.582" height="34.605" clip-path="url(#ad)" fill="url(#ac)"/>
   <clipPath>
    <use width="100%" height="100%" overflow="visible" xlink:href="#d"/>
   </clipPath>
   <rect x="130.57" y="1" width="14.582" height="34.605" clip-path="url(#ab)" fill="url(#aa)"/>
   <clipPath>
    <use width="100%" height="100%" overflow="visible" xlink:href="#c"/>
   </clipPath>
   <path d="m130.57 1h14.582v34.605h-14.582z" clip-path="url(#y)" fill="url(#x)"/>
  </g>
 </g>
</svg>
