<?xml version="1.0" encoding="UTF-8"?>
<!-- Generator: Adobe Illustrator 22.0.1, SVG Export Plug-In . SVG Version: 6.00 Build 0)  -->
<svg id="Capa_1" width="800" height="644.55" version="1.1" viewBox="0 0 800 644.55" xml:space="preserve" xmlns="http://www.w3.org/2000/svg" xmlns:cc="http://creativecommons.org/ns#" xmlns:dc="http://purl.org/dc/elements/1.1/" xmlns:rdf="http://www.w3.org/1999/02/22-rdf-syntax-ns#"><metadata id="metadata69"><rdf:RDF><cc:Work rdf:about=""><dc:format>image/svg+xml</dc:format><dc:type rdf:resource="http://purl.org/dc/dcmitype/StillImage"/><dc:title/></cc:Work></rdf:RDF></metadata>
<style id="style2" type="text/css">
	.st0{fill:#C0E5A1;}
	.st1{fill:#A7D859;}
	.st2{fill:#8CC73F;}
	.st3{fill:#29A449;}
	.st4{fill:#227D45;}
	.st5{fill:#D8D9DA;}
	.st6{fill:#F5F5F6;}
	.st7{opacity:0.15;}
	.st8{fill:url(#SVGID_1_);}
</style>
<g id="g36" transform="matrix(11.639 0 0 11.639 -33.364 -31.036)">
		<g id="g6">
			<path id="path4" class="st0" d="m54.9 24.9c0.6 1.3 0 2.7-1.3 3.3l-38 16.9c-1.3 0.6-2.7 0-3.3-1.3l-9.2-20.7c-0.6-1.3 0-2.7 1.3-3.3l38-16.9c1.3-0.6 2.7 0 3.3 1.3z" fill="#c0e5a1"/>
		</g>
		<g id="g10">
			<path id="path8" class="st1" d="m57.3 30c0.4 1.3-0.3 2.7-1.6 3.1l-39.6 12.9c-1.3 0.4-2.7-0.3-3.1-1.6l-7-21.7c-0.4-1.3 0.3-2.7 1.6-3.1l39.5-12.9c1.3-0.4 2.7 0.3 3.1 1.6z" fill="#a7d859"/>
		</g>
		<g id="g14">
			<path id="path12" class="st2" d="m59.2 35.2c0.3 1.3-0.6 2.7-1.9 3l-40.7 8.6c-1.3 0.3-2.7-0.6-3-1.9l-4.6-22.3c-0.3-1.3 0.6-2.7 1.9-3l40.6-8.6c1.3-0.3 2.7 0.6 3 1.9z" fill="#8cc73f"/>
		</g>
		<g id="g18">
			<path id="path16" class="st3" d="m60.9 40.7c0.1 1.4-0.9 2.6-2.2 2.7l-41.3 4.3c-1.4 0.1-2.6-0.9-2.7-2.2l-2.4-22.7c-0.1-1.4 0.9-2.6 2.2-2.7l41.3-4.3c1.4-0.1 2.6 0.9 2.7 2.2z" fill="#29a449"/>
		</g>
		<path id="path20" class="st4" d="m59.3 20.7h-41.5c-1.4 0-2.5 1.1-2.5 2.5v22.8c0 1.4 1.1 2.5 2.5 2.5h41.6c1.4 0 2.5-1.1 2.5-2.5v-22.8c-0.1-1.4-1.2-2.5-2.6-2.5z" fill="#227d45"/>
		<path id="path22" class="st5" d="m40.5 30.6v12.6h-4.7v-12.6h-4.1l0.1-4h12.8l0.1 4z" fill="#d8d9da"/>
		<path id="path24" class="st6" d="m53.9 26.6-2.7 10.2-0.4 1.7h-0.1l-0.4-1.7-2-7.8c-0.3-1.4-1.7-2.4-3.5-2.4h-5 0.1c1.5 0 2.9 0.7 3.3 1.9 1.2 3.7 4.8 14.7 4.8 14.7h5.1l5.5-16.5z" fill="#f5f5f6"/>
		<path id="A_1_" class="st6" d="m30.5 28.5c-0.4-1.2-1.8-2-3.3-2h-2.8l-5.5 16.5h4.9l0.7-2.8h5.1l0.7 2.8h5.1zm-5.1 8.1 1.2-4.6 0.4-1.7 0.4 1.8 1.2 4.6z" fill="#f5f5f6"/>
		<g id="g34" class="st7" opacity=".15">
				<linearGradient id="SVGID_1_" x1="-206.28" x2="-204.61" y1="757.06" y2="771.71" gradientTransform="translate(244 -736.33)" gradientUnits="userSpaceOnUse">
				<stop id="stop27" stop-color="#fff" offset="0"/>
				<stop id="stop29" stop-color="#F4F4F4" stop-opacity="0" offset="1"/>
			</linearGradient>
			<path id="path32" class="st8" d="m47.6 25.9c5 0 9.7 0.4 14.3 1.2v-3.9c0-1.4-1.1-2.5-2.5-2.5h-41.6c-1.4 0-2.5 1.1-2.5 2.5v9.8c8.8-4.5 20-7.1 32.3-7.1z" fill="url(#SVGID_1_)"/>
		</g>
	</g><g id="g60" transform="matrix(11.639 0 0 11.639 -33.364 -31.036)">
		<path id="path38" d="m5.7 57.9 2.3-6.4h1.7l2.2 6.4h-1.6l-0.4-1.2h-2.3l-0.4 1.2zm2.3-2.5h1.5l-0.7-2.3z"/>
		<path id="path40" d="m12.5 57.9v-6.4h1.6l2.4 3.6v-3.6h1.5v6.4h-1.5l-2.5-3.8v3.8z"/>
		<path id="path42" d="m19.1 57.9v-6.4h2.7c0.8 0 1.4 0.2 1.9 0.6s0.7 0.9 0.7 1.7v1.8c0 0.8-0.3 1.3-0.8 1.7s-1.1 0.6-1.8 0.6zm1.7-1.3h1c0.3 0 0.6-0.1 0.8-0.3s0.3-0.4 0.3-0.8v-1.8c0-0.3-0.1-0.5-0.3-0.7s-0.5-0.3-0.8-0.3h-0.9v3.9z"/>
		<path id="path44" d="m24.7 57.9 2.3-6.4h1.7l2.2 6.4h-1.6l-0.4-1.2h-2.3l-0.4 1.2zm2.3-2.5h1.5l-0.7-2.3z"/>
		<path id="path46" d="m31.6 57.9v-6.4h1.6v5.1h3.1v1.3z"/>
		<path id="path48" d="m39.5 58c-0.8 0-1.5-0.2-1.9-0.6-0.5-0.4-0.7-1-0.7-1.8v-4.1h1.6v4c0 0.4 0.1 0.7 0.3 0.9s0.5 0.3 0.8 0.3 0.6-0.1 0.8-0.3 0.3-0.5 0.3-0.9v-4h1.6v4.1c0 0.8-0.3 1.4-0.8 1.8s-1.2 0.6-2 0.6z"/>
		<path id="path50" d="m45.9 58c-0.5 0-0.9-0.1-1.3-0.2s-0.7-0.4-1-0.8-0.4-0.8-0.4-1.3v-2c0-0.8 0.3-1.3 0.8-1.7s1.2-0.6 1.9-0.6c0.3 0 0.6 0 0.9 0.1s0.6 0.2 0.8 0.4 0.5 0.4 0.6 0.7c0.2 0.3 0.2 0.6 0.2 0.9v0.3h-1.5v-0.1c0-0.3-0.1-0.5-0.3-0.7s-0.5-0.2-0.7-0.2c-0.3 0-0.6 0.1-0.8 0.3s-0.3 0.4-0.3 0.8v1.9c0 0.3 0.1 0.6 0.3 0.8s0.5 0.3 0.8 0.3 0.5-0.1 0.7-0.2 0.3-0.4 0.3-0.7v-0.2h1.5v0.3c0 0.5-0.1 0.9-0.4 1.2s-0.6 0.6-1 0.7-0.7 0-1.1 0z"/>
		<path id="path52" d="m49.4 57.9v-6.4h1.6v6.4zm0.3-7 0.8-1.6h1.5l-1.2 1.6z"/>
		<path id="path54" d="m51.6 57.9 2.3-6.4h1.7l2.2 6.4h-1.6l-0.4-1.2h-2.3l-0.4 1.2zm2.3-2.5h1.5l-0.7-2.3z"/>
		<path id="path56" d="m62 57.9v-5.1h-1.8v-1.3h5.2v1.3h-1.8v5.1z"/>
		<path id="path58" d="m67.8 57.9-2-6.4h1.7l1.3 4.5 1.3-4.5h1.5l-2.1 6.4z"/>
	</g>
</svg>
