<svg id="a" width="871.7pt" height="584.18pt" version="1.1" viewBox="0 0 871.7 584.18" xmlns="http://www.w3.org/2000/svg">
 <polygon id="b" transform="matrix(11.647 0 0 11.647 -10.133 -5.8934)" points="17.474 35.1 0.87 35.1 0.87 0.506 17.474 0.506" fill="#dc4811"/>
 <polygon id="c" transform="matrix(11.647 0 0 11.647 -10.133 -5.8934)" points="33.656 32.808 19.711 32.808 19.711 3.412 33.656 3.412" fill="#dc4811"/>
 <polygon id="d" transform="matrix(11.647 0 0 11.647 -10.133 -5.8934)" points="52.386 35.028 36.008 35.028 36.008 0.506 52.386 0.506" fill="#dc4811"/>
 <g id="e" transform="translate(-.0012288 -.014449)" fill="#dc4811">
  <path id="f" d="m37.109 536.17h-7.6404l3.8086-28.896zm9.9931-76.218h-27.464l-12.369 78.279-5.8468 44.014h21.931l3.366-25.018h13.254l3.2728 25.018h22.024l-5.8584-44.259z" stroke-width="11.647"/>
  <polygon id="g" transform="matrix(11.647 0 0 11.647 -10.132 -5.8788)" points="6.535 39.994 6.535 41.795 7.905 41.795 7.905 50.493 9.777 50.493 9.777 41.795 11.147 41.795 11.147 39.994"/>
  <path id="h" d="m151.19 480.97h3.6339c3.4242 0 5.0664 1.8752 5.0664 5.9982v17.727c0 2.9118-1.0599 4.7636-3.2146 5.6022-0.27952 0.12811-1.2113 0.30282-3.9017 0.30282h-1.549zm30.469 23.725v-17.727c0-17.832-8.479-26.928-25.076-26.94h-27.184v122.29h21.792v-50.105l13.266 50.105h23.76l-19.45-55.882c8.5489-3.4941 12.893-10.785 12.893-21.745z" stroke-width="11.647"/>
  <polygon id="i" transform="matrix(11.647 0 0 11.647 -10.132 -5.8788)" points="19.6 48.695 19.6 46.147 21.605 46.147 21.605 44.344 19.6 44.344 19.6 41.795 21.931 41.795 21.931 39.994 17.728 39.994 17.728 50.493 21.931 50.493 21.931 48.695"/>
  <path id="j" d="m282.43 458.14c-17.762 0-26.835 9.0148-26.835 26.893v11.076c0 11.449 5.6721 21.349 16.865 29.304 9.9465 7.1746 15.048 13.359 15.048 18.367v13.487c0 4.0532-1.6306 5.9283-5.0664 5.9283-3.4708 0-5.1014-1.8752-5.1014-5.9283v-17.971h-21.792v17.971c0 17.82 9.0381 26.905 26.893 26.928 17.797 0 26.846-9.0148 26.846-26.928v-14.92c0-11.204-5.6721-20.93-16.853-28.873-9.9698-7.1629-15.048-13.149-15.048-17.715v-10.715c0-5.311 2.8302-5.9283 5.0897-5.9283 3.4359 0.0466 5.0781 1.9218 5.0781 5.9283v17.971h21.792v-17.971c-0.0349-17.855-9.073-26.905-26.916-26.905" stroke-width="11.647"/>
  <polygon id="k" transform="matrix(11.647 0 0 11.647 -10.132 -5.8788)" points="30.442 48.695 30.442 46.147 32.448 46.147 32.448 44.344 30.442 44.344 30.442 41.795 32.773 41.795 32.773 39.994 28.571 39.994 28.571 50.493 32.773 50.493 32.773 48.695"/>
  <path id="l" d="m404.89 480.97h3.6339c3.4359 0 5.0315 1.8752 5.0315 5.9982v17.727c0 2.9118-1.0599 4.7636-3.1913 5.6022-0.29118 0.12811-1.2113 0.30282-3.9017 0.30282h-1.5374zm30.457 23.725v-17.727c0-17.832-8.4557-26.928-25.041-26.94h-27.172v122.29h21.792v-50.105l13.266 50.105h23.748l-19.45-55.882c8.514-3.4941 12.858-10.785 12.858-21.745z" stroke-width="11.647"/>
  <polygon id="m" transform="matrix(11.647 0 0 11.647 -10.132 -5.8788)" points="39.536 50.494 39.536 39.994 41.408 39.994 41.408 50.494"/>
  <polygon id="n" transform="matrix(11.647 0 0 11.647 -10.132 -5.8788)" points="44.551 48.695 44.551 46.147 46.557 46.147 46.557 44.344 44.551 44.344 44.551 41.795 46.883 41.795 46.883 39.994 42.681 39.994 42.681 50.493 46.883 50.493 46.883 48.695"/>
  <path id="o" d="m599.93 502.98v-17.971c0-17.843-9.0497-26.893-26.928-26.893-17.785 0-26.823 9.0031-26.823 26.893v11.076c0 11.449 5.6604 21.349 16.853 29.304 9.9465 7.1746 15.048 13.359 15.048 18.367v13.487c0 4.0532-1.6422 5.9283-5.0664 5.9283-3.4708 0-5.1014-1.8752-5.1014-5.9283v-17.971h-21.792v17.971c0 17.797 9.0031 26.905 26.893 26.928 17.785 0 26.823-9.0148 26.823-26.928v-14.92c0-11.204-5.6372-20.93-16.83-28.873-9.9698-7.1396-15.048-13.126-15.048-17.715v-10.715c0-5.311 2.8186-5.9283 5.0897-5.9283 3.4359 0.0349 5.0781 1.9218 5.0781 5.9283v17.971z" stroke-width="11.647"/>
 </g>
 <g id="p" transform="matrix(4.9139 0 0 4.9139 91.621 459.94)" fill="#9ca0a1">
  <path id="q" d="m136.74 24.88v-24.88h-4.8573v10.169h-8.4216v-10.169h-4.8573v24.88h4.8573v-10.413h8.4216v10.413z"/>
  <path id="r" d="m158.75 12.34q0-1.3978 0-2.7257 0-1.3628-0.20967-2.6208t-0.73383-2.4112q-0.52417-1.1532-1.5725-2.2015-1.223-1.223-2.9353-1.7822-1.6773-0.59405-3.6342-0.59405h-8.9807v24.88h8.9807q1.9569 0 3.6342-0.55911 1.7123-0.59406 2.9353-1.8171 1.0483-1.0483 1.5725-2.2364 0.52416-1.1881 0.73383-2.481t0.20967-2.6558q0-1.3978 0-2.7956zm-4.8573 0q0 2.8305-0.20966 4.3331-0.17473 1.5026-0.83867 2.3413-0.629 0.76877-1.5026 1.1532-0.8736 0.38439-2.1316 0.38439h-3.6692v-16.214h3.6692q1.258 0 2.1316 0.38439 0.87361 0.38439 1.5026 1.1532 0.34944 0.41933 0.55911 0.9435 0.20966 0.52416 0.3145 1.2929 0.10483 0.76877 0.13978 1.8171 0.0349 1.0134 0.0349 2.4112z"/>
 </g>
 <g id="s" transform="matrix(11.647 0 0 11.647 -408.89 -3734.2)" fill="#fff">
  <path id="t" d="m44.222 341.2h-1.757l0.904-7.062zm5.806 9.357-3.754-25.286c-0.021-0.132-0.135-0.23-0.269-0.229h-5.258c-0.134 0-0.249 0.097-0.271 0.229l-3.691 25.286c-0.011 0.079 0.013 0.158 0.064 0.218s0.126 0.095 0.206 0.095h4.249c0.135-1e-3 0.25-0.1 0.269-0.234l0.635-4.742c0.019-0.135 0.134-0.235 0.27-0.234h1.816c0.135 0 0.249 0.102 0.269 0.231l0.69 4.749c0.021 0.133 0.134 0.23 0.27 0.23h4.24c0.079-2e-3 0.152-0.037 0.203-0.097s0.073-0.138 0.062-0.216z"/>
  <path id="u" d="m65.407 331.59c0-2.049-1.336-4.594-4.304-4.594s-4.671 1.884-4.671 4.436v2.665c0 0.316 0.192 0.476 0.581 0.476h2.85c0.39 0 0.581-0.177 0.581-0.525v-2.665c0-0.317 0.158-0.479 0.478-0.479 0.314 0 0.476 0.144 0.476 0.424v4.695c4e-3 0.141-0.049 0.277-0.149 0.377-0.099 0.1-0.235 0.154-0.376 0.151h-0.848c-0.313 0.044-0.476 0.202-0.476 0.476v2.405c0 0.272 0.158 0.431 0.476 0.476h0.848c0.141-4e-3 0.277 0.05 0.377 0.15 0.099 0.1 0.153 0.237 0.148 0.377v4.697c0 0.28-0.158 0.422-0.476 0.422-0.316 0-0.478-0.158-0.478-0.476v-2.8c0-0.353-0.191-0.525-0.581-0.525h-2.85c-0.389 0-0.581 0.156-0.581 0.475v2.798c0 2.555 1.703 4.438 4.671 4.438s4.304-2.544 4.304-4.594v-4.013c0-1.086-0.476-1.945-1.107-2.626 0.635-0.68 1.107-1.541 1.107-2.626z"/>
  <path id="v" d="m79.613 334.34h3.948c0.117 0 0.229-0.046 0.312-0.129s0.129-0.195 0.129-0.312l-3e-3 -3.477c0-3.84-1.878-5.761-5.639-5.761-5.029 0-5.499 3.671-5.499 5.375v3.104c0 1.87 0.688 3.66 2.653 5.238 2.446 1.787 3.67 2.789 3.67 4.109v2.779c0 0.507-0.123 1.08-0.756 1.08-0.547 0-0.825-0.354-0.825-1.07v-3.496c0-0.203-0.165-0.368-0.368-0.369h-4.03c-0.091 0-0.178 0.036-0.243 0.1-0.064 0.064-0.101 0.152-0.101 0.243v3.964c0 3.917 2.455 5.375 5.375 5.375 2.924 0 5.763-0.995 5.763-5.76v-2.97c0-2.271-0.876-4.31-2.848-5.814-2.362-1.668-3.547-3.039-3.547-4.109v-2.045c0-0.555 0.224-0.993 0.834-0.993 0.432 0 0.792 0.373 0.794 0.97v3.594c5e-3 0.207 0.174 0.373 0.381 0.374"/>
 </g>
</svg>
