<?xml version="1.0" encoding="UTF-8"?>
<!-- Created with Inkscape (http://www.inkscape.org/) -->
<svg id="svg2" width="242" height="215" version="1.0" xmlns="http://www.w3.org/2000/svg" xmlns:cc="http://creativecommons.org/ns#" xmlns:dc="http://purl.org/dc/elements/1.1/" xmlns:rdf="http://www.w3.org/1999/02/22-rdf-syntax-ns#">
 <metadata id="metadata44">
  <rdf:RDF>
   <cc:Work rdf:about="">
    <dc:format>image/svg+xml</dc:format>
    <dc:type rdf:resource="http://purl.org/dc/dcmitype/StillImage"/>
    <dc:title/>
   </cc:Work>
  </rdf:RDF>
 </metadata>
 <g id="layer1" transform="matrix(.83457 0 0 .83457 -31.455 -78.341)">
  <g id="g2427" transform="matrix(.18927 0 0 .18927 111.7 62.604)">
   <g id="g2263" transform="translate(2.4852 13.596)">
    <g id="g2279">
     <path id="path2239" d="m74.644 174.45c50.082 21.983 132.28 19.38 187.41-22.228 77.09 56.484 151.28 50.686 222.03 0 47.165 34.092 119.78 48.648 187.92 22.944l30.545 42.44c-79.649 106.44-50.166 208.19 31.988 297.73l-34.498 34.979c7.8148 229.58-170 284.39-272.1 290.08l-54.897 44.915-54.487-44.246c-182.29-15.742-278.53-111.91-272.58-290.16l-35.47-35.836c69.304-74.963 121.38-177.4 32.355-297.49z" fill-rule="evenodd" stroke="#000" stroke-width="1px"/>
     <path id="path5105" d="m78.794 546.28h586.55c15.416 162.31-87.705 249.98-244.51 258.6l-99.643 0.2519c-150.02-10.785-261.8-89.993-242.39-258.85z" fill="#004d98" fill-rule="evenodd"/>
     <rect id="rect6076" x="331.65" y="548.23" width="83.086" height="259.36" fill="#a50044"/>
     <g id="g6100" transform="translate(-.132)" fill="#a50044">
      <rect id="rect6088" x="166.42" y="548.23" width="83.086" height="231.8"/>
      <rect id="rect6092" x="195.39" y="768.15" width="54.117" height="23.877"/>
     </g>
     <g id="g6096" transform="translate(-.132)" fill="#a50044">
      <rect id="rect6090" x="496.2" y="548.23" width="83.086" height="231.8"/>
      <rect id="rect6094" x="496.2" y="768.15" width="54.117" height="23.877"/>
     </g>
     <path id="path4130" d="m370.49 228.08v230.37l-279.99 2.0253 28.86-110.88-35.948-132.65 177.21-22.784z" fill="#fff" fill-rule="evenodd"/>
     <path id="path2187" d="m374.54 228.08v230.37l279.99 2.0253-28.86-110.88 35.948-132.65-177.21-22.784z" fill="#ffed02" fill-rule="evenodd"/>
     <rect id="rect2169" x="208.7" y="200.72" width="80.278" height="256.31" fill="#db0030"/>
     <rect id="rect3143" transform="rotate(90)" x="296.32" y="-370.49" width="80.278" height="249.8" fill="#db0030"/>
     <g id="g2174" transform="translate(-.132)" fill="#db0030">
      <rect id="rect4118" x="399.8" y="218.89" width="29.691" height="236.47"/>
      <rect id="rect4120" x="456.16" y="201.95" width="29.691" height="253.97"/>
      <rect id="rect4122" x="512.89" y="216.26" width="29.691" height="240.18"/>
      <rect id="rect4124" x="569.1" y="225.06" width="29.691" height="231.17"/>
     </g>
     <path id="path4181" d="m261.59 170.47c-51.707 37.899-133.53 41.887-180.5 22.938l-18.812 24.219c80.707 113.56 34.337 227.81-29.656 297.78l29.469 31.188c-11.958 171.17 87.93 270.16 263.53 280.34l47.594 39.75 47.5-40.375c102.26-1.7636 281.57-59.115 262.25-279.97l29.625-30.688c-75.153-83.347-101.06-197.51-28.438-298.03l-17.656-24.062c-64.255 21.117-137.77 9.4116-182-22.562-66.348 47.537-150.61 52.444-222.91-0.53125zm223.5 32.531c39.892 24.769 83.975 31.818 159.97 25.156-38.054 65.84-42.164 144.27-8.4688 220l-527.38-0.3125c28.364-67.666 34.872-145.53-9.5938-221.19 54.813 7.9579 108.36 6.0512 161.75-23 72.423 42.515 146.93 43.293 223.72-0.65625zm-394.59 345.84h565.53c14.863 156.49-84.563 241-235.75 249.31l-96.094 0.25c-144.64-10.398-252.39-86.759-233.69-249.56z" fill="#edbb00" fill-rule="evenodd" stroke="#deb405" stroke-width=".93788px"/>
     <path id="path7096" d="m99.008 227.48c44.466 75.657 37.953 153.52 9.589 221.19l527.36 0.31174c-33.695-75.726-29.571-154.16 8.483-220-75.994 6.6613-120.07-0.38002-159.96-25.149-76.79 43.949-151.32 43.154-223.74 0.63926-53.394 29.051-106.92 30.972-161.73 23.014z" fill="none" stroke="#000" stroke-width="4"/>
     <path id="path4112" d="m90.488 548.84h565.52c14.863 156.49-84.561 241.02-235.75 249.33l-96.071 0.2428c-144.64-10.398-252.41-86.767-233.7-249.57z" fill="none" stroke="#000" stroke-width="4"/>
     <path id="path4134" d="m372.7 235.39v213.68" fill="none" stroke="#000" stroke-width="4"/>
     <g id="g6097" stroke="#000">
      <path id="path2185" transform="matrix(1.34 0 0 1.34 -73.999 -209.21)" d="m391.55 656.71a57.378 57.378 0 1 1-114.76 0 57.378 57.378 0 1 1 114.76 0z" fill="#edbb00" stroke-width="3"/>
      <g id="g4131" fill="none" stroke-width="3.5">
       <path id="path3158" d="m329.45 608.16c-8.9744 32.709-14.54 64.916 11.349 80.392 18.09 10.814 30.323-11.24 33.712-19.784"/>
       <path id="path3160" d="m302.65 701.79c15.156-0.69168 23.065-1.9384 32.787-16.709"/>
      </g>
      <path id="path4141" d="m373.87 669.34c15.21-9.3492 28.738-4.8253 35.022 18.579 14.803-5.9484 29.07 5.4764 32.787 17.024" fill="none" stroke-width="3.5"/>
      <path id="path4143" d="m409.21 687.92c-11.236 27.128-40.792 39.686-82.283 43.821" fill="none" stroke-width="3.5"/>
      <path id="path2191" d="m373.89 670.45c-9.3352-8.5483-23.697-18.331-2.7742-43.462-8.8782-11.25-11.297-22.242 0.30824-32.673" fill="none" stroke-width="3.5"/>
      <path id="path2193" d="m450.34 675.39c-13.655-24.138-45.436-57.585-79.218-48.702" fill="none" stroke-width="3.5"/>
     </g>
    </g>
    <path id="rect2194" d="m266.3 461.88v0.28125h-13.969v72.656h15.094v-30.156h21.531v-15.375h-21.531v-11.781h37.156v-15.625z"/>
    <path id="path3176" d="m380.57 484.64 13.547-7.0748c-8.6473-19.12-43.71-24.558-55.244 0-11.901 29.292 0.74911 56.506 23.783 59.157 14.636 2.1313 26.235-5.0336 31.159-17.762l-13.397-7.6769c-3.5682 8.8902-17.172 15.009-27.547 0.15052-3.1951-6.6392-4.0144-16.859-0.45158-26.794 8.5083-11.69 20.945-10.425 28.149 0z" fill-rule="evenodd" stroke="#000" stroke-width=".2"/>
    <path id="path5116" d="m432.36 462.07 0.28125 73.312 39.906-0.15625c12.985-1.8183 30.008-23.074 10.062-39.594 10.545-9.2932 9.2233-29.172-11.875-33.406zm15.344 14.438h19.875c8.7402 2.5153 6.1467 10.918 0.28125 12.344h-20.156zm0.15625 26.656 20.906 0.28125c10.341 3.0784 8.006 14.863 0.3125 16.875l-21.062-0.15625z" fill-rule="evenodd" stroke="#000" stroke-width="1px"/>
   </g>
  </g>
 </g>
 <g id="flowRoot849" transform="matrix(1.2282 0 0 1.2303 264.63 -34.649)" stroke-width="1px" aria-label="BARÇA TV">
  <path id="path858" d="m-215.46 165.15h12.285q2.5586 0 4.2969 0.64453t2.793 1.6992q1.0742 1.0547 1.5234 2.4023 0.46875 1.3477 0.46875 2.7734 0 0.89844-0.19532 1.7383-0.17578 0.83984-0.58593 1.582-0.41016 0.72266-1.0547 1.3477-0.64453 0.60547-1.5625 1.0547 1.1914 0.44921 2.0117 1.1719 0.83984 0.70313 1.3476 1.5625 0.52735 0.85938 0.76172 1.8164 0.23438 0.95703 0.23438 1.8945 0 1.4844-0.50781 2.9688-0.48829 1.4844-1.6211 2.6758-1.1133 1.1914-2.9297 1.9336-1.7969 0.74219-4.4141 0.74219h-12.852zm13.125 22.969q1.0938 0 1.8164-0.29297 0.72265-0.3125 1.1328-0.78125 0.42969-0.46875 0.60547-1.0547t0.17578-1.1523q0-0.6836-0.21485-1.3281-0.19531-0.66406-0.74218-1.1719-0.54688-0.50781-1.4844-0.82031t-2.4023-0.3125h-6.6016v6.9141zm-1.4844-11.953q2.1484 0 3.1836-0.82031 1.0547-0.83984 1.0547-2.1875 0-0.52734-0.13672-1.0547-0.13672-0.52734-0.52735-0.95703-0.37109-0.42969-1.0547-0.68359-0.6836-0.27344-1.7969-0.27344h-6.9531v5.9766z"/>
  <path id="path860" d="m-168.13 193.16-2.168-5.8008h-10.801l-2.1484 5.8008h-5.8008l10.723-28.008h5.2734l10.723 28.008zm-6.6797-18.008q-0.21484-0.50781-0.46875-1.2109-0.23437-0.70312-0.41016-1.3086-0.15625 0.60547-0.41015 1.3086-0.25391 0.70313-0.46875 1.2109l-2.7734 7.2852h7.2852z"/>
  <path id="path862" d="m-157.25 193.16v-28.008h13.008q2.6562 0 4.4336 0.74219 1.7969 0.72265 2.8906 1.9336t1.5625 2.793 0.46875 3.3008q0 1.1914-0.35157 2.4219-0.33203 1.2109-1.0156 2.3047-0.6836 1.0938-1.6992 1.9922-1.0156 0.87891-2.3633 1.3672l5.4297 11.152h-6.0742l-5.2344-10.449h-5.6445v10.449zm13.086-15.566q1.0352 0 1.7383-0.29296 0.70313-0.3125 1.1328-0.82032 0.42968-0.50781 0.60546-1.1719 0.19532-0.66406 0.19532-1.3867 0-0.66406-0.17578-1.3086-0.15625-0.66407-0.56641-1.1719-0.41016-0.52734-1.1328-0.83984-0.70313-0.3125-1.7969-0.3125h-7.6758v7.3047z"/>
  <path id="path864" d="m-118.21 202.92q-1.6992 0-2.7539-0.54688-1.0352-0.52734-1.6406-1.3477l2.2266-1.6797q0.25391 0.3125 0.66407 0.52734 0.41015 0.23438 0.97656 0.23438 0.9375 0 1.4258-0.41016 0.50781-0.41016 0.50781-1.1523 0-0.72266-0.52734-1.1328-0.50781-0.41015-1.4453-0.41015-0.48829 0-0.91797 0.13672-0.41016 0.13671-0.80078 0.41015l-1.0742-1.3086 2.2461-2.7344q-1.9141-0.17578-3.4375-0.85937-1.5039-0.6836-2.6562-1.7383t-1.9531-2.4024q-0.80078-1.3672-1.3086-2.8906-0.50781-1.543-0.74218-3.1836-0.23438-1.6406-0.23438-3.2812 0-1.6016 0.27344-3.2812 0.27344-1.6992 0.83984-3.3008 0.58594-1.6016 1.5039-3.0273 0.9375-1.4258 2.2266-2.5 1.3086-1.0742 3.0273-1.6992t3.8867-0.625q2.0117 0 3.6524 0.54688 1.6406 0.54687 2.8906 1.4453 1.25 0.8789 2.1094 2.0117 0.8789 1.1328 1.3476 2.3047l-4.8438 2.207q-0.50781-0.78125-1.0352-1.4062-0.52735-0.625-1.1328-1.0352-0.60547-0.42969-1.3476-0.64453-0.72266-0.23438-1.6406-0.23438-1.1719 0-2.0898 0.41016-0.91797 0.39062-1.6016 1.0742-0.6836 0.68359-1.1524 1.6016t-0.76172 1.9531q-0.29297 1.0156-0.42968 2.1094-0.11719 1.0742-0.11719 2.0898 0 1.6406 0.35156 3.2812t1.0938 2.9688q0.74219 1.3281 1.8945 2.168 1.1719 0.82032 2.8125 0.82032 0.85938 0 1.582-0.25391 0.72266-0.27344 1.3281-0.74219 0.625-0.46875 1.1523-1.1328 0.54688-0.66406 1.0156-1.4648l4.9609 1.875q-0.60546 1.4062-1.4258 2.5781-0.80078 1.1719-1.8555 2.0703-1.0547 0.87891-2.3633 1.4453-1.2891 0.5664-2.8711 0.74218l-0.91797 1.4844q1.1719 0 2.0117 0.27344 0.85937 0.27343 1.4062 0.76171 0.56641 0.48829 0.82031 1.1524 0.27344 0.66406 0.27344 1.4258 0 0.9375-0.37109 1.7188-0.35157 0.80078-1.0547 1.3672-0.6836 0.58593-1.6992 0.89843-0.99609 0.33204-2.3047 0.33204z"/>
  <path id="path866" d="m-83.445 193.16-2.168-5.8008h-10.801l-2.1484 5.8008h-5.8008l10.723-28.008h5.2734l10.723 28.008zm-6.6797-18.008q-0.21484-0.50781-0.46875-1.2109-0.23438-0.70312-0.41016-1.3086-0.15625 0.60547-0.41016 1.3086t-0.46875 1.2109l-2.7734 7.2852h7.2852z"/>
  <path id="path868" d="m-53.055 169.15v24.004h-4.1602v-24.004h-7.9297v-4.0039h20v4.0039z"/>
  <path id="path870" d="m-27.996 193.16h-4.1602l-9.5898-28.008h4.4727l6.3672 19.531q0.17578 0.5664 0.41016 1.4062 0.25391 0.82031 0.46875 1.7969 0.21484-0.97656 0.44922-1.7969 0.25391-0.83985 0.42969-1.4062l6.2891-19.531h4.4336z"/>
 </g>
 <flowRoot id="flowRoot861" transform="translate(4.0963 71)" fill="#000000" font-family="Overpass" font-size="40px" letter-spacing="0px" stroke-width="1px" word-spacing="0px" style="line-height:25px" xml:space="preserve"><flowRegion id="flowRegion863" font-family="Overpass"><rect id="rect865" x="-168.41" y="225.15" width="226.37" height="90.915"/></flowRegion><flowPara id="flowPara867"/></flowRoot>
</svg>
