<?xml version="1.0" encoding="UTF-8"?>
<!-- Generator: Adobe Illustrator 21.0.0, SVG Export Plug-In . SVG Version: 6.00 Build 0)  -->
<svg id="Layer_1" width="286.22" height="36.375" version="1.1" viewBox="0 0 286.22 36.375" xml:space="preserve" xmlns="http://www.w3.org/2000/svg" xmlns:cc="http://creativecommons.org/ns#" xmlns:dc="http://purl.org/dc/elements/1.1/" xmlns:rdf="http://www.w3.org/1999/02/22-rdf-syntax-ns#" xmlns:xlink="http://www.w3.org/1999/xlink"><metadata id="metadata32"><rdf:RDF><cc:Work rdf:about=""><dc:format>image/svg+xml</dc:format><dc:type rdf:resource="http://purl.org/dc/dcmitype/StillImage"/></cc:Work></rdf:RDF></metadata><defs id="defs30"><linearGradient id="linearGradient1988" x1="178.3" x2="178.3" y1="36.367" y2=".0011364" gradientUnits="userSpaceOnUse" xlink:href="#linearGradient4179"/><linearGradient id="linearGradient4179"><stop id="stop4181" stop-color="#26255b" offset="0"/><stop id="stop4195" stop-color="#2d2662" offset=".13914"/><stop id="stop4191" stop-color="#4a3581" offset=".29121"/><stop id="stop4187" stop-color="#7a52ae" offset=".47554"/><stop id="stop4189" stop-color="#693b9e" offset=".69213"/><stop id="stop4193" stop-color="#673896" offset=".83038"/><stop id="stop4183" stop-color="#7d509d" offset="1"/></linearGradient><linearGradient id="linearGradient1986" x1="178.3" x2="178.3" y1="36.367" y2=".0011364" gradientUnits="userSpaceOnUse" xlink:href="#linearGradient1728"/><linearGradient id="linearGradient1728"><stop id="stop1714" stop-color="#d0d2d3" offset="0"/><stop id="stop1716" stop-color="#bababc" offset=".13914"/><stop id="stop1718" stop-color="#cbcbcd" offset=".29121"/><stop id="stop1720" stop-color="#f4f4f5" offset=".47554"/><stop id="stop1722" stop-color="#e9e9ea" offset=".69213"/><stop id="stop1724" stop-color="#fefefe" offset=".83038"/><stop id="stop1726" stop-color="#fdfdfd" offset="1"/></linearGradient></defs>
<path id="path4-6" d="m286.19 0.0026517h-30.32c-5.185-0.122-9.487 3.981-9.609 9.166 0 0.018-1e-3 0.036-1e-3 0.054v27.15h30.35c5.185 0.122 9.487-3.981 9.609-9.166 0-0.018 1e-3 -0.036 1e-3 -0.054v-27.15z" fill="url(#linearGradient1988)" stroke-width="1.1365" style="font-variant-east_asian:normal"/><path id="path16" class="cls-2" d="m266.25 23.593a7.2244 7.2244 0 0 1-7.1909-6.4718h3.5955a3.6624 3.6624 0 0 0 7.2412-0.7526 3.7125 3.7125 0 0 0-3.5118-3.6959 1.8562 1.8562 0 0 1-1.4214-3.0602l3.3446-4.1975h-6.9066l-0.98664-3.562h9.783a5.0169 5.0169 0 0 1 1.1038 0.11695 2.4583 2.4583 0 0 1 1.1706 0.53533 2.6423 2.6423 0 0 1 0.86959 1.9231 2.1238 2.1238 0 0 1-0.4178 1.388l-3.1941 4.1474a7.2244 7.2244 0 0 1-3.3446 13.613z" fill="url(#linearGradient1986)" stroke-width="1.1365" style="font-variant-east_asian:normal"/><path id="path8-5" d="m270.16 26.593c-1.072-1.145-2.869-1.204-4.014-0.132-0.606 0.568-0.933 1.372-0.896 2.202v5c0 0.276 0.224 0.5 0.5 0.5s0.5-0.224 0.5-0.5v-2h3.67v2c-0.056 0.276 0.123 0.545 0.399 0.6 0.276 0.056 0.545-0.123 0.601-0.4 0.013-0.066 0.013-0.135 0-0.201v-5c0.036-0.763-0.238-1.51-0.76-2.069zm-0.24 4.08h-3.67v-2c0-1.013 0.822-1.835 1.835-1.835s1.835 0.822 1.835 1.835zm8.29 2.69-2.34-3.35 2.27-3.24c0.16-0.245 0.092-0.573-0.153-0.734-0.082-0.054-0.178-0.084-0.277-0.086-0.173 1e-3 -0.334 0.087-0.43 0.23l-2.05 2.93-2.05-2.93c-0.096-0.143-0.257-0.229-0.43-0.23-0.287-3e-3 -0.522 0.228-0.525 0.515-1e-3 0.109 0.032 0.216 0.095 0.305l2.27 3.24-2.34 3.35c-0.166 0.237-0.107 0.564 0.13 0.73s0.564 0.107 0.73-0.13l2.12-3 2.12 3c0.083 0.276 0.374 0.433 0.65 0.35s0.433-0.374 0.35-0.65c-0.016-0.106-0.065-0.204-0.14-0.28zm-15.13-7.22c-0.263-0.122-0.55-0.187-0.84-0.19-0.65-0.01-1.235 0.39-1.46 1-0.22 0.52-1.33 3.15-1.39 3.29s-0.15 0.29-0.3 0.29-0.2 0-0.3-0.29-1.16-2.77-1.39-3.29c-0.225-0.61-0.81-1.01-1.46-1-0.29 2e-3 -0.577 0.066-0.84 0.19-0.549 0.28-0.904 0.834-0.93 1.45v6c0 0.298 0.242 0.54 0.54 0.54s0.54-0.242 0.54-0.54v-5.81c-0.01-0.273 0.155-0.522 0.41-0.62 0.298-0.108 0.628 0.043 0.74 0.34 0.18 0.45 0.79 1.89 1.11 2.74l0.1 0.26c0.237 0.828 1.1 1.308 1.928 1.072 0.518-0.148 0.923-0.553 1.072-1.072l0.1-0.26c0.32-0.85 0.93-2.29 1.11-2.74 0.112-0.291 0.435-0.442 0.73-0.34 0.255 0.098 0.42 0.347 0.41 0.62v5.87c0 0.298 0.242 0.54 0.54 0.54s0.54-0.242 0.54-0.54v-6.06c-0.039-0.615-0.406-1.161-0.96-1.43z" fill="url(#linearGradient1986)" stroke-width="1.1365" style="font-variant-east_asian:normal"/>
<g id="g909" transform="translate(-.0151 7.6e-6)"><path id="path32-8-9" d="m244.63 0.0011364v27.173c-0.0307 2.4366-1.0024 4.6391-2.5696 6.2676l2e-3 -0.0034c-1.7421 1.8115-4.1855 2.9366-6.8926 2.9366h-225.62c-5.8983 0-9.5486-4.8641-9.5486-9.3963v-26.979z" fill="url(#linearGradient1988)" stroke-width="1.1365"/><g id="g1490" fill="url(#linearGradient1986)" stroke-width="1.1365"><path id="path22-6-2-4" d="m214.48 1.3569c-2.6798 0-5.124 1.0167-6.8832 2.8612-1.4903 1.5498-2.428 3.6361-2.5105 5.9399v24.847l28.74 2.19e-4c5.8256 0 9.4314-4.6333 9.4314-9.0474l-5e-3 -24.601z"/><path id="path22-6-28" d="m1.3695 1.3615v24.627c0.030685 2.3934 0.98639 4.5599 2.5238 6.1596l0.00452 0.0046c1.7612 1.8416 4.1989 2.8567 6.8765 2.8567h71.553c5.8255 0 9.4314-4.6333 9.4314-9.0474l-0.01135-24.601z"/></g><g id="g1976" fill="url(#linearGradient1986)" stroke-width="1.1365"><path id="path6-1" d="m118.63 27.443c0.6637 0 1.2012-0.53755 1.2024-1.2001v-4.7436h4.0242c3.5674 0 6.4597-2.8923 6.4597-6.4597s-2.8923-6.4597-6.4597-6.4597c-3.7901 0-6.4381 2.6582-6.4381 6.4597l0.0159 11.195v8e-3c0 0.66142 0.53527 1.1978 1.1956 1.2001zm5.205-16.525c0.0602-0.0034 0.12956-0.0045 0.20002-0.0045 2.2707 0 4.1106 1.8399 4.1106 4.1106s-1.8399 4.1106-4.1106 4.1106c-0.0705 0-0.14092-0.0023-0.21025-0.0057h0.0102-4.0072v-4.089c0-2.4661 1.6092-4.1231 4.0072-4.1231z"/><path id="path8-4" d="m108.24 19.25c1.724 0 2.9616 0.3739 3.6765 1.1115 0.3989 0.40231 0.64438 0.95691 0.64438 1.5683 0 0.01932 0 0.03978-1e-3 0.0591v-0.0034c1e-3 0.03068 1e-3 0.06705 1e-3 0.10228 0 0.85008-0.3273 1.624-0.86258 2.2013l2e-3 -0.0023c-0.73188 0.75348-1.8854 1.1376-3.4253 1.1376h-0.0239c-1.3854 0-2.4548-0.39208-3.1696-1.1535-0.58528-0.64665-0.94327-1.5092-0.94327-2.4548 0-0.0375 1e-3 -0.07501 1e-3 -0.11251v0.0057c0-0.65688-0.533-1.1899-1.1899-1.1899s-1.1899 0.533-1.1899 1.1899c-2e-3 0.05569-3e-3 0.1216-3e-3 0.18752 0 1.5581 0.61824 2.9719 1.6229 4.0095l-1e-3 -0.0011c1.1978 1.2274 2.915 1.9025 4.8311 1.9025 4.9721 0 6.7359-3.1321 6.7359-5.8199 0-3.1162-2.6423-5.1312-6.7256-5.1312-1.6479 0-2.831-0.35458-3.5231-1.0535-0.33867-0.32048-0.55801-0.76484-0.58756-1.2592v-0.0057c0-0.01364-0.0898-1.4195 0.88077-2.465 0.70688-0.76144 1.8024-1.1467 3.248-1.1467 1.3706 0 2.4252 0.39208 3.1219 1.1376 1.0569 1.1467 0.93418 2.7934 0.93418 2.8287 0 0.64892 0.52619 1.174 1.174 1.174s1.174-0.52619 1.174-1.174c0-6.2347-6.1506-6.3074-6.4108-6.3074h-0.0318c-6.2529 0-6.4347 5.3085-6.4347 5.9142-6e-3 1.7638 1.3581 4.7493 6.4733 4.7493z"/><path id="path14-8" d="m183.22 20.542h-0.0159c-0.64438 0-1.1683 0.51937-1.174 1.1626v0.0011c-2e-3 0.05569-3e-3 0.1216-3e-3 0.18638 0 1.5615 0.62051 2.9776 1.6297 4.0151l-1e-3 -0.0011c1.1956 1.2274 2.9105 1.9047 4.8289 1.9047 4.9721 0 6.7381-3.1321 6.7381-5.8221 0-3.1162-2.6423-5.1312-6.7324-5.1312-1.6445 0-2.8287-0.35458-3.5231-1.0546-0.33867-0.32162-0.55801-0.76484-0.58756-1.2592v-0.0057c0-0.01364-0.0921-1.4195 0.88077-2.465 0.70688-0.76144 1.8013-1.1467 3.248-1.1467 1.3706 0 2.4275 0.39208 3.1219 1.1376 1.0569 1.1467 0.93532 2.7934 0.93191 2.8264 0 0.64892 0.52618 1.174 1.174 1.174s1.174-0.52618 1.174-1.174c0-6.2347-6.1506-6.3051-6.4131-6.3051h-0.0295c-6.2506 0-6.4324 5.3073-6.4324 5.9142 0 1.7615 1.3706 4.7504 6.4779 4.7504 1.7252 0 2.9616 0.3739 3.6765 1.1115 0.3989 0.40345 0.64438 0.95918 0.64438 1.5717 0 0.01932 0 0.0375-1e-3 0.05569v-0.0023c1e-3 0.02955 1e-3 0.06478 1e-3 0.10001 0 0.85122-0.32731 1.6252-0.86259 2.2048l2e-3 -0.0023c-0.72848 0.75348-1.8809 1.1376-3.4219 1.1376h-0.0273c-1.3865 0-2.4514-0.39208-3.1696-1.1535-0.58415-0.64892-0.941-1.5126-0.941-2.4582 0-0.03637 0-0.07273 1e-3 -0.1091v0.0057c-3e-3 -0.64665-0.52732-1.1694-1.174-1.1694h-0.0227 1e-3z"/><path id="path16-5" d="m168.72 11.368h4.1731v14.878c0.0273 0.64552 0.55687 1.1592 1.2069 1.1592s1.1797-0.51368 1.2069-1.1569v-14.88h4.1754c0.66598 0 1.2069-0.53982 1.2069-1.2069 0-0.66711-0.53982-1.2069-1.2069-1.2069h-10.767c-0.66597 0-1.2069 0.53982-1.2069 1.2069 0 0.66711 0.53983 1.2069 1.2069 1.2069z"/><path id="path20" d="m141.77 27.807c5.3084 0 9.6111-4.3027 9.6111-9.6111 0-5.3085-4.3027-9.6111-9.6111-9.6111s-9.6111 4.3027-9.6111 9.6111v0.0045c7e-3 5.305 4.3061 9.6032 9.6111 9.6077zm0-16.889c4.0174 0.0023 7.2745 3.2594 7.2745 7.278 0 4.0197-3.2582 7.278-7.278 7.278-4.0186 0-7.2757-3.256-7.278-7.2745 1e-3 -4.0208 3.2605-7.2814 7.2814-7.2825z"/><path id="path26" d="m154.45 27.446c0.6637 0 1.2024-0.53641 1.2058-1.2001v-4.6732h3.8333l3.206 5.213c0.21479 0.36935 0.60915 0.61369 1.0592 0.61369 0.22274 0 0.43072-0.0591 0.61028-0.16252l-6e-3 0.0034c0.27957-0.16252 0.48527-0.42618 0.56937-0.73871l2e-3 -0.0091c0.0273-0.09546 0.0432-0.20456 0.0432-0.31708 0-0.22275-0.0614-0.43186-0.16706-0.61028l3e-3 0.0057-2.715-4.4595c2.4298-0.97396 4.114-3.3105 4.114-6.0392 0-3.5844-2.9048-6.4892-6.4892-6.4892h-3e-3c-3.8117 0-6.4756 2.6741-6.4756 6.5029l0.0113 11.158c2e-3 0.66142 0.53641 1.1978 1.1978 1.2024zm5.2346-16.516c0.0273-0.0011 0.058-0.0011 0.0898-0.0011 2.282 0 4.1322 1.8502 4.1322 4.1322s-1.8502 4.1322-4.1322 4.1322c-0.0318 0-0.0636 0-0.0943-0.0011h5e-3 -4.0367v-4.1106c0-2.4877 1.6206-4.1538 4.0367-4.1538z"/></g><path id="path32-2-8" d="m30.719 18.356c0-5.2198 4.2311-9.4509 9.4509-9.4509s9.4509 4.2311 9.4509 9.4509c0 0.01136 0.0011 0.02386 0.0011 0.0375 0 0.48186-0.39095 0.87281-0.87281 0.87281-0.02161 0-0.04319-0.0011-0.06478-0.0023h0.0022-9.835c-0.4955-0.02387-0.88872-0.43072-0.88872-0.93077s0.39322-0.9069 0.88644-0.93077h8.8542c-0.49095-3.764-3.6765-6.6404-7.5348-6.6404-4.1947 0-7.595 3.4003-7.595 7.595s3.4003 7.595 7.595 7.595c2.7332 0 5.1289-1.4433 6.4665-3.6094l0.01931-0.03296c0.13296-0.20343 0.3398-0.3489 0.58073-0.40004l0.0057-0.0011c0.05455-0.01137 0.11705-0.01818 0.18184-0.01818 0.18979 0 0.36708 0.0591 0.51141 0.15911l-0.0033-0.0023c0.25229 0.16706 0.41708 0.45004 0.41708 0.77166 0 0.18752-0.05569 0.3614-0.15115 0.50573l0.0022-0.0034c-1.6933 2.7093-4.6595 4.4856-8.0417 4.4856-5.2198 0-9.4509-4.2311-9.4509-9.4509v-0.0034zm-19.967 0.27616v-15.187c0-0.4955 0.40118-0.89668 0.89668-0.89668s0.89668 0.40117 0.89668 0.89668v9.2691c1.7502-2.3229 4.5038-3.8094 7.6041-3.8094h0.03182-0.0011c4.5334 0 9.427 3.5878 9.427 9.3861 0 4.5959-3.7856 9.5157-9.427 9.5157h-0.10115c-5.0959 0-9.2372-4.0913-9.3191-9.1679v-8e-3zm1.8206-0.33867c0.02387 4.1708 3.4094 7.5428 7.5837 7.5428 4.1879 0 7.5837-3.3958 7.5837-7.5837s-3.3958-7.5837-7.5837-7.5837h-0.0023c-4.1879 0.02273-7.5734 3.4219-7.5734 7.6132v0.01023zm45.788 9.5157c0.96486 0 1.7752-0.75916 1.7752-1.6547v-11.379c0-0.0841-0.1216-2.0479 2.2298-2.2604 1.3706-0.07842 2.0491 1.3467 2.0695 1.3706 0.27162 0.44436 6.6188 10.469 7.2893 11.493 1.0694 1.4604 2.7719 2.4036 4.6948 2.4218h0.0033c0.89326-8e-3 1.7399-0.19434 2.5105-0.52505l-0.04205 0.01591c3.6606-1.4899 3.4844-5.1891 3.4822-5.2164v-11.653c-0.05912-0.7262-0.78305-1.5058-1.7911-1.5092-0.97851 0-1.7365 0.80008-1.7911 1.5331v11.649c-0.04773 0.77735-0.50232 1.4399-1.1512 1.7797l-0.01135 0.0057c-1.9831 0.94098-2.9991-0.69895-3.0423-0.77168l-7.2642-11.444c-0.95577-1.6558-3.6628-3.6424-7.2154-2.3218-3.4821 1.4308-3.5662 5.0891-3.5662 5.1209v11.892c0.06819 0.69666 0.77962 1.449 1.8286 1.4524zm-5.2857 0c1.0024 0 1.7615-0.80462 1.8104-1.5229v-15.819c-0.05341-0.71598-0.80803-1.5149-1.8104-1.5206-1.0103 0-1.7524 0.78303-1.8093 1.5365v15.803c0.0625 0.73189 0.80462 1.5149 1.8149 1.5206z" fill="url(#linearGradient1988)" stroke-width="1.1365"/><g id="g1333" fill="url(#linearGradient1988)" stroke-width=".11345"><g id="g1319"><path id="path4-1" class="st0" d="m215.82 6.9876c1.3614 0.79415 2.7342 1.5883 4.1069 2.3824 0.10211 0.079415 0.20421-0.02269 0.24959-0.1248 0.77146-1.3274 2.1329-2.2917 3.6531-2.564 0.11345 0 0.2269-0.079415 0.18152-0.20421-0.28362-1.5429-0.57859-3.0972-0.86222-4.6401-0.034-0.18152-0.23824-0.1021-0.35169-0.079415-2.8362 0.5559-5.4002 2.3484-6.8864 4.833-0.0794 0.1248-0.24959 0.29497-0.0908 0.39708z"/><path id="path6-8-4" class="st1" d="m224.85 7.8725c0.0114 0.11345 0.13614 0.1248 0.2269 0.1021 1.5202-0.23824 3.1199 0.2269 4.2884 1.2253 0.0567 0.04538 0.1248 0.1248 0.20421 0.09076 0.0681-0.034035 0.11345-0.1021 0.15883-0.14748 0.99836-1.1572 2.0081-2.3144 3.0064-3.4716 0.13614-0.14748-0.0794-0.26094-0.17018-0.3517-2.1442-1.8039-5.0258-2.6888-7.8167-2.3711-0.17018 0.02269-0.3517 0.034035-0.52187 0.079415-0.0794 0.04538-0.0681 0.13614-0.0567 0.21556z"/><path id="path8-8-1" class="st2" d="m213.63 15.882c1.4635-0.56725 2.927-1.1232 4.3905-1.6904 0.1248-0.02269 0.1248-0.15883 0.0794-0.24959-0.56725-1.4295-0.46515-3.0972 0.26093-4.4359 0.034-0.06807 0.0908-0.14748 0.0454-0.2269-0.0681-0.06807-0.15883-0.1021-0.23824-0.15883-1.316-0.70339-2.6207-1.4068-3.9367-2.1102-0.0681-0.034035-0.14748-0.079415-0.21555-0.034035-1.5089 2.6547-1.7131 6.0015-0.5786 8.8264 0.0113 0.1021 0.11345 0.1248 0.19287 0.07942z"/><path id="path10-4-5" class="st3" d="m235.86 15.451c0.19286-3.0405-1.0437-6.1376-3.29-8.1911-0.0681-0.056725-0.1248-0.056725-0.19287 0.011345-1.0778 1.1232-2.1442 2.2577-3.222 3.3808-0.0567 0.05673-0.12479 0.13614-0.0794 0.21556 0.13614 0.15883 0.30631 0.29497 0.44245 0.46514 0.89626 1.021 1.3841 2.3938 1.316 3.7552 0 0.07941-0.0227 0.19286 0.0681 0.2269 0.1248 0.03403 0.26094 0.02269 0.38573 0.03403 1.4522 0.06807 2.9043 0.13614 4.3565 0.21556 0.0908 0 0.20421-0.01135 0.21556-0.11345z"/><g id="g1307"><path id="path12-1-6" class="st4" d="m222.12 17.107c1.248 0.6807 2.8589 0.60128 4.0275-0.20421 0.74877-0.49918 1.316-1.2593 1.577-2.1215 0.27228-0.87356 0.21556-1.8492-0.14748-2.7001-0.36304-0.83953-1.0324-1.5543-1.8492-1.9627-0.71473-0.36304-1.5429-0.49918-2.3371-0.37438-1.3614 0.18152-2.5867 1.1458-3.0858 2.4278-0.36304 0.88491-0.37438 1.906-0.034 2.8136 0.329 0.9076 0.99836 1.6791 1.8492 2.1215zm-1.7698-3.5623c0.0567 0.15883 0.1248 0.30632 0.21556 0.4538 0.0794-0.41976 0.26093-0.82818 0.5559-1.1458 0.36304 0.06807 0.72608 0.15883 1.1005 0.21556-0.34035-0.15883-0.6807-0.30632-1.021-0.46514-0.0454-0.41976 0.0454-0.85088 0.2269-1.2253-0.15883 0.06807-0.30632 0.15883-0.44246 0.23824 0.47649-0.69204 1.1912-1.2139 1.9967-1.4522-0.13614 0.11345-0.26093 0.2269-0.38573 0.3517 0.41977-0.05673 0.86222 0 1.248 0.17018 0.0454 0.37438 0.0794 0.74877 0.1248 1.1232 0.0567-0.37438 0.0794-0.74877 0.13614-1.1232 0.39707-0.15883 0.82818-0.21556 1.248-0.15883-0.1248-0.1248-0.24959-0.23824-0.37439-0.3517 0.8055 0.23824 1.5202 0.74877 1.9854 1.4408-0.14749-0.09076-0.29497-0.17018-0.44246-0.23824 0.18152 0.37438 0.27228 0.8055 0.23825 1.2253-0.34035 0.15883-0.69205 0.30632-1.021 0.47649 0.36304-0.06807 0.73742-0.14748 1.1005-0.21556 0.28363 0.31766 0.46515 0.72608 0.54456 1.1458 0.0794-0.14748 0.14749-0.29497 0.21556-0.4538 0.0113 0.82818-0.24959 1.645-0.74877 2.303 0.034-0.15883 0.0681-0.31766 0.0908-0.47649-0.30632 0.29497-0.6807 0.49918-1.1005 0.60128-0.26093-0.28362-0.51052-0.56725-0.77146-0.83953 0.17018 0.34035 0.37439 0.65801 0.55591 0.99836-0.21556 0.36304-0.54456 0.64666-0.89626 0.86222 0.15883 0.03403 0.31766 0.05673 0.47649 0.06807-0.77146 0.26094-1.6337 0.26094-2.4165 0 0.15883-0.01134 0.31766-0.03403 0.48783-0.06807-0.37438-0.20421-0.69204-0.49918-0.91894-0.86222 0.18152-0.329 0.37438-0.65801 0.5559-0.99836-0.27228 0.27228-0.52187 0.56725-0.7828 0.83953-0.40842-0.09076-0.79415-0.30632-1.1005-0.60128 0.0227 0.15883 0.0567 0.30632 0.0794 0.46514-0.52187-0.66936-0.79415-1.4862-0.76012-2.303z"/><path id="path16-0-2" class="st4" d="m224.95 14.997c0.20421-0.62398 0.40842-1.248 0.61263-1.8606-0.53322-0.38573-1.0551-0.77146-1.5883-1.1572-0.53322 0.38573-1.0551 0.77146-1.5883 1.1572 0.20421 0.62398 0.40842 1.248 0.60128 1.8606z"/></g><path id="path18-1-0" class="st6" d="m219.07 23.222c0.1021 0.03403 0.14748-0.09076 0.17017-0.15883 0.46515-1.4862 0.93029-2.9724 1.3954-4.4699 0.0454-0.1248-0.0908-0.17018-0.18152-0.20421-1.4748-0.4538-2.7228-1.577-3.3241-2.9951-0.034-0.13614-0.18152-0.15883-0.28362-0.09076-1.4181 0.61263-2.8362 1.2253-4.2657 1.8379-0.0681 0.02269-0.13614 0.07942-0.11345 0.15883 1.1799 2.8362 3.6758 5.0712 6.6028 5.9221z"/><path id="path20-1-5" class="st7" d="m230.07 24.084c2.4846-1.7585 4.1182-4.6741 4.2998-7.7259 0-0.07941-0.0794-0.1248-0.15883-0.1248-1.4862-0.1248-2.9724-0.2269-4.4586-0.3517-0.1021 0-0.21555-0.02269-0.31766-0.01135-0.11345 0.05673-0.0681 0.21556-0.1021 0.31766-0.14749 1.4862-0.95298 2.9043-2.1669 3.7779-0.0908 0.04538-0.17017 0.17018-0.0794 0.26094 0.91894 1.2593 1.8492 2.5186 2.7682 3.7665 0.0454 0.07942 0.13614 0.15883 0.21555 0.09076z"/><path id="path22-7-7" class="st8" d="m219.62 24.867c2.8589 0.81684 6.0582 0.329 8.5428-1.3047 0.0908-0.06807 0.28363-0.14748 0.20421-0.29497-0.87356-1.3047-1.7471-2.6094-2.632-3.914-0.034-0.07942-0.14748-0.14748-0.2269-0.06807-1.2933 0.88491-2.9724 1.1799-4.4926 0.76012-0.1021-0.04538-0.23824-0.01134-0.23824 0.11345-0.41977 1.4975-0.82819 3.0064-1.248 4.504-0.034 0.07941 0 0.18152 0.0908 0.20421z"/></g><path id="path24-1-0" class="st5" d="m225.06 27.125c-0.39708 0.1248-0.61263 0.60128-0.47649 0.98702 0.11345 0.36304 0.53321 0.60128 0.89625 0.49918 0.40842-0.07942 0.69205-0.54456 0.5786-0.95298-0.0794-0.43111-0.58994-0.69204-0.99836-0.53322zm-11.141 0.76012h-1.3728v5.2641h3.0291v-1.2026h-1.6564zm8.5314 0h-1.3728v5.2641h3.0291v-1.2026h-1.6564zm-3.3922 1.0437v0.41976c-0.29497-0.27228-0.64666-0.48784-1.0551-0.49918-0.60129-0.05673-1.2139 0.20421-1.611 0.64666-0.40842 0.4538-0.61263 1.0664-0.58994 1.6677 0.0113 0.5559 0.19286 1.1345 0.58994 1.5429 0.69204 0.70339 1.94 0.72608 2.6434 0.03403v0.40842h1.282v-4.2203c-0.40842-0.01134-0.83953 0-1.2593 0zm-0.19286 2.8136c-0.30632 0.36304-0.89626 0.47649-1.3047 0.21556-0.37438-0.24959-0.52187-0.74877-0.41976-1.1685 0.0681-0.31766 0.30631-0.58994 0.61263-0.69204 0.329-0.11345 0.72608-0.05672 0.99836 0.17018 0.41976 0.3517 0.46514 1.0551 0.11345 1.4748zm10.721-2.3484c-0.60128-0.71474-1.7925-0.72608-2.4392-0.07942-0.77146 0.76012-0.86222 2.0875-0.26094 2.9724 0.37439 0.5559 1.1005 0.83953 1.7585 0.69204 0.329-0.06807 0.62397-0.23824 0.88491-0.44246 0 0.23824 0.034 0.51052-0.13614 0.70339-0.23825 0.26094-0.61263 0.29497-0.94164 0.24959-0.19286-0.02269-0.34035-0.17018-0.44245-0.329h-1.4295c0.0567 0.36304 0.2269 0.70339 0.49918 0.94164 0.47649 0.41976 1.1458 0.56725 1.7698 0.53322 0.56725-0.03403 1.1572-0.24959 1.5316-0.69204 0.29497-0.34035 0.44246-0.8055 0.44246-1.2593v-3.7438h-1.2253c-0.0114 0.13614-0.0114 0.29497-0.0114 0.4538zm-0.29497 2.2803c-0.36304 0.36304-1.0664 0.3517-1.3614-0.09076-0.35169-0.51052-0.20421-1.4181 0.44246-1.611 0.36304-0.1021 0.79415 0 1.021 0.29497 0.29497 0.41976 0.27228 1.0551-0.10211 1.4068zm5.3208-2.3257c-0.1248-0.1021-0.23825-0.20421-0.37439-0.28362-0.46514-0.28362-1.0551-0.27228-1.5543-0.07942-0.76012 0.30632-1.2593 1.1005-1.316 1.906-0.034 0.63532 0.11345 1.316 0.54456 1.7812 0.6807 0.73742 1.9627 0.7828 2.6774 0.07942v0.39708h1.282v-4.2203h-1.2593zm-0.20421 2.4051c-0.32901 0.37438-0.94164 0.46514-1.3501 0.15883-0.34035-0.26094-0.4538-0.73742-0.36304-1.1345 0.0681-0.329 0.31766-0.60128 0.64667-0.70339 0.31766-0.1021 0.69204-0.04538 0.95298 0.17018 0.43111 0.36304 0.48783 1.0891 0.11345 1.5089zm-9.734 1.3954h1.282v-4.2203h-1.282z"/></g><path id="path32-8-1" d="m0.0012-6.4e-5v26.979c0 4.5322 3.6486 9.3965 9.5469 9.3965h225.62c2.7071 0 5.1505-1.126 6.8926-2.9375 1.5655-1.6282 2.5377-3.8286 2.5684-6.2637v-27.174zm243.25 1.3574 6e-3 24.6c0 4.4141-3.606 9.0488-9.4316 9.0488l-223.05 0.0039c-2.6776 2e-6 -5.1138-1.0158-6.875-2.8574l-0.0059-0.0039c-1.5374-1.5997-2.4928-3.7668-2.5234-6.1602v-24.627z" fill="#d0d2d3" stroke-width="1.1365"/></g></svg>
