<?xml version="1.0" encoding="UTF-8"?>
<svg id="svg34" width="1250" height="296.81" version="1.1" viewBox="0 0 1250 296.81" xmlns="http://www.w3.org/2000/svg" xmlns:cc="http://creativecommons.org/ns#" xmlns:dc="http://purl.org/dc/elements/1.1/" xmlns:rdf="http://www.w3.org/1999/02/22-rdf-syntax-ns#">
 <path id="path32-8" d="m1250 0.00768v138.85c-0.1569 12.45-5.122 23.705-13.13 32.026l0.011-0.0173c-8.9017 9.2564-21.387 15.005-35.22 15.005h-1152.9c-30.139-7e-5 -48.791-24.855-48.791-48.013v-137.86z" fill="#5c2d91" stroke-width="5.8073"/>
 <path id="path22-6-2" d="m1095.9 6.9353c-13.693 0-26.182 5.1951-35.172 14.62-7.6151 7.9191-12.407 18.58-12.828 30.352v126.96l146.86 1e-3c29.768 0 48.192-23.675 48.192-46.23l-0.025-125.71z" fill="#fff" stroke-width="5.8073"/>
 <path id="path22-6" d="m6.9917 6.9588v125.84c0.15679 12.23 5.0402 23.3 12.896 31.474l0.02309 0.0234c8.9994 9.4102 21.455 14.597 35.137 14.597h365.62c29.767 0 48.192-23.675 48.192-46.23l-0.058-125.71z" fill="#fff" stroke-width="5.8073"/>
 <path id="path32-2" d="m156.96 93.797c0-26.672 21.62-48.292 48.292-48.292 26.672 0 48.292 21.62 48.292 48.292 0 0.05805 6e-3 0.12192 6e-3 0.19162 0 2.4622-1.9977 4.4599-4.4599 4.4599-0.11047 0-0.22069-0.0056-0.33102-0.01172h0.0109-50.255c-2.5319-0.12197-4.5412-2.2009-4.5412-4.756s2.0093-4.6341 4.5295-4.756h45.243c-2.5086-19.233-18.786-33.931-38.501-33.931-21.434 0-38.809 17.375-38.809 38.809 0 21.434 17.375 38.809 38.809 38.809 13.966 0 26.208-7.375 33.042-18.443l0.0987-0.16841c0.67939-1.0395 1.7363-1.7828 2.9674-2.0441l0.0291-6e-3c0.27874-0.0581 0.59809-0.0929 0.92916-0.0929 0.96978 0 1.8757 0.30198 2.6132 0.81301l-0.0169-0.0117c1.2892 0.85364 2.1312 2.2996 2.1312 3.943 0 0.95819-0.28457 1.8467-0.77235 2.5842l0.0109-0.0174c-8.6524 13.844-23.809 22.92-41.091 22.92-26.672 0-48.292-21.62-48.292-48.292v-0.01738zm-102.03 1.4111v-77.602c0-2.5319 2.0499-4.5818 4.5818-4.5818 2.5319 0 4.5818 2.0499 4.5818 4.5818v47.363c8.9431-11.87 23.013-19.465 38.855-19.465h0.16259-6e-3c23.165 0 48.17 18.333 48.17 47.961 0 23.484-19.344 48.623-48.17 48.623h-0.51686c-26.039 0-47.2-20.906-47.619-46.846v-0.04087zm9.3029-1.7305c0.12197 21.312 17.421 38.542 38.751 38.542 21.399 0 38.751-17.352 38.751-38.751 0-21.399-17.352-38.751-38.751-38.751h-0.0117c-21.399 0.11609-38.698 17.485-38.698 38.902v0.05227zm233.97 48.623c4.9302 0 9.0709-3.8791 9.0709-8.4552v-58.144c0-0.42973-0.62134-10.464 11.394-11.55 7.0035-0.4007 10.47 6.8813 10.575 7.0035 1.3879 2.2706 33.821 53.494 37.247 58.727 5.4644 7.4623 14.164 12.282 23.989 12.375h0.0169c4.5644-0.0409 8.8905-0.99303 12.828-2.6829l-0.21488 0.0813c18.705-7.6131 17.805-26.515 17.793-26.655v-59.544c-0.30209-3.7107-4.0012-7.6943-9.1521-7.7117-5 0-8.8731 4.0882-9.1521 7.8338v59.524c-0.2439 3.9721-2.5668 7.3576-5.8824 9.0939l-0.058 0.0291c-10.133 4.8082-15.325-3.5715-15.546-3.9431l-37.118-58.476c-4.8838-8.4608-18.716-18.612-36.869-11.864-17.793 7.3111-18.222 26.004-18.222 26.167v60.766c0.34843 3.5598 3.9837 7.4041 9.3438 7.4214zm-27.009 0c5.122 0 9.0009-4.1114 9.2508-7.7817v-80.832c-0.27292-3.6585-4.1289-7.7408-9.2508-7.7699-5.1624 0-8.9544 4.0011-9.2451 7.8512v80.75c0.31936 3.7398 4.1114 7.7408 9.2738 7.7699z" fill="#5c2d91" stroke-width="5.8073"/>
 <g id="g881" transform="matrix(1.5625 0 0 1.5625 -.001875 239.97)" fill="#fff" stroke-width="3.7167">
  <path id="path6" d="m387.95-63.835c2.1705 0 3.9282-1.7579 3.9322-3.9246v-15.513h13.16c11.666 0 21.125-9.4586 21.125-21.125 0-11.666-9.4586-21.125-21.125-21.125-12.395 0-21.054 8.693-21.054 21.125l0.052 36.611v0.02616c0 2.163 1.7505 3.9171 3.9099 3.9246zm17.022-54.041c0.19687-0.0111 0.4237-0.0147 0.65412-0.0147 7.4258 0 13.443 6.017 13.443 13.443 0 7.4258-6.017 13.443-13.443 13.443-0.23055 0-0.46084-0.0075-0.68757-0.01864h0.0334-13.105v-13.372c0-8.0648 5.2625-13.484 13.105-13.484z"/>
  <path id="path8" d="m353.97-90.628c5.6379 0 9.6852 1.2228 12.023 3.6349 1.3045 1.3157 2.1073 3.1293 2.1073 5.1288 0 0.06318 0 0.13009-3e-3 0.19327v-0.01112c3e-3 0.10033 3e-3 0.21927 3e-3 0.33448 0 2.78-1.0704 5.3109-2.8209 7.1988l7e-3 -0.0075c-2.3934 2.4641-6.1658 3.7202-11.202 3.7202h-0.0781c-4.5306 0-8.0278-1.2822-10.365-3.7722-1.914-2.1147-3.0847-4.9355-3.0847-8.0278 0-0.12263 3e-3 -0.2453 3e-3 -0.36794v0.01864c0-2.1482-1.743-3.8913-3.8913-3.8913-2.1482 0-3.8913 1.743-3.8913 3.8913-7e-3 0.18212-0.01 0.39766-0.01 0.61324 0 5.0954 2.0218 9.7189 5.3073 13.112l-3e-3 -0.0036c3.9171 4.0139 9.5328 6.2217 15.799 6.2217 16.26 0 22.028-10.243 22.028-19.033 0-10.191-8.641-16.78-21.994-16.78-5.3891 0-9.2581-1.1596-11.521-3.4452-1.1075-1.0481-1.8248-2.5012-1.9215-4.1179v-0.0186c0-0.0446-0.29367-4.6421 2.8803-8.0612 2.3117-2.4901 5.8943-3.75 10.622-3.75 4.4822 0 7.931 1.2822 10.209 3.7202 3.4563 3.75 3.055 9.1352 3.055 9.2506 0 2.1221 1.7208 3.8393 3.8393 3.8393s3.8393-1.7208 3.8393-3.8393c0-20.389-20.114-20.627-20.965-20.627h-0.104c-20.449 0-21.043 17.36-21.043 19.341-0.0196 5.7681 4.4413 15.531 21.169 15.531z"/>
  <path id="path14" d="m599.17-86.403h-0.052c-2.1073 0-3.8206 1.6985-3.8393 3.802v0.0036c-7e-3 0.18212-0.01 0.39766-0.01 0.60951 0 5.1065 2.0292 9.7375 5.3296 13.13l-3e-3 -0.0036c3.9099 4.0139 9.5181 6.2289 15.792 6.2289 16.26 0 22.035-10.243 22.035-19.04 0-10.191-8.641-16.78-22.017-16.78-5.3779 0-9.2506-1.1596-11.521-3.4488-1.1075-1.0518-1.8248-2.5012-1.9215-4.1179v-0.0186c0-0.0446-0.30119-4.6421 2.8804-8.0612 2.3117-2.4901 5.8907-3.75 10.622-3.75 4.4822 0 7.9386 1.2822 10.209 3.7202 3.4563 3.75 3.0587 9.1351 3.0476 9.2431 0 2.1221 1.7208 3.8393 3.8393 3.8393s3.8393-1.7208 3.8393-3.8393c0-20.389-20.114-20.619-20.973-20.619h-0.0965c-20.441 0-21.036 17.356-21.036 19.341 0 5.7606 4.4822 15.535 21.184 15.535 5.6418 0 9.6852 1.2228 12.023 3.6349 1.3045 1.3194 2.1073 3.1368 2.1073 5.1399 0 0.06318 0 0.12264-3e-3 0.18212v-0.0075c3e-3 0.09664 3e-3 0.21185 3e-3 0.32706 0 2.7837-1.0704 5.3148-2.8209 7.2103l7e-3 -0.0075c-2.3823 2.4641-6.151 3.7202-11.191 3.7202h-0.0893c-4.5342 0-8.0167-1.2822-10.365-3.7722-1.9103-2.1221-3.0773-4.9466-3.0773-8.039 0-0.11894 0-0.23785 3e-3 -0.35678v0.01864c-0.01-2.1147-1.7245-3.8242-3.8393-3.8242h-0.0742 3e-3z"/>
  <path id="path16" d="m551.76-116.4h13.647v48.655c0.0893 2.111 1.8211 3.7909 3.9469 3.7909s3.8579-1.6799 3.9469-3.7834v-48.661h13.655c2.1779 0 3.9469-1.7654 3.9469-3.9469 0-2.1816-1.7654-3.9469-3.9469-3.9469h-35.211c-2.1779 0-3.9469 1.7654-3.9469 3.9469 0 2.1816 1.7654 3.9469 3.9469 3.9469z"/>
  <path id="path20" d="m463.62-62.644c17.36 0 31.431-14.071 31.431-31.431 0-17.36-14.071-31.431-31.431-31.431-17.36 0-31.431 14.071-31.431 31.431v0.01472c0.0229 17.349 14.082 31.405 31.431 31.42zm0-55.231c13.138 8e-3 23.79 10.659 23.79 23.801 0 13.145-10.655 23.801-23.801 23.801-13.142 0-23.793-10.648-23.801-23.79 3e-3 -13.149 10.663-23.812 23.812-23.816z"/>
  <path id="path26" d="m505.09-63.825c2.1705 0 3.9322-1.7542 3.9433-3.9246v-15.283h12.536l10.484 17.048c0.70242 1.2079 1.9921 2.0069 3.4639 2.0069 0.72842 0 1.4086-0.19327 1.9958-0.53148l-0.0196 0.01112c0.91427-0.53148 1.587-1.3937 1.862-2.4158l7e-3 -0.02976c0.0893-0.31218 0.14128-0.66896 0.14128-1.0369 0-0.72845-0.2008-1.4123-0.54633-1.9958l0.01 0.01864-8.8788-14.584c7.9461-3.1851 13.454-10.826 13.454-19.75 0-11.722-9.4994-21.221-21.221-21.221h-0.01c-12.465 0-21.177 8.745-21.177 21.266l0.037 36.49c7e-3 2.163 1.7542 3.9171 3.9171 3.9322zm17.119-54.012c0.0893-4e-3 0.18967-4e-3 0.29367-4e-3 7.4627 0 13.513 6.0506 13.513 13.513 0 7.4627-6.0506 13.513-13.513 13.513-0.104 0-0.20799 0-0.30839-0.0036h0.0163-13.201v-13.443c0-8.1354 5.2998-13.584 13.201-13.584z"/>
 </g>
 <g id="g843" transform="matrix(1.25 0 0 1.25 814.12 231.18)" fill="#fff">
  <path id="path6-0" class="st0" d="m55.2 49.1v-0.4l-5.4-42.8c-0.4-3.2-3.2-5.4-6.4-5.1-2.4 0.3-4.3 1.9-4.9 4.2l-10.9 36.5-10.8-36.5c-0.9-3.1-4.1-4.8-7.2-3.9-2.2 0.6-3.8 2.5-4.1 4.8l-5.5 42.8c-0.3 1.8 0.9 3.4 2.7 3.7h0.6c1.6 0 3-1.2 3.2-2.9l5-39.2 11.7 38.8c0.7 2.4 3.3 3.8 5.7 3.1 1.5-0.4 2.6-1.6 3.1-3.1l11.7-38.8 5 39.2c0.2 1.8 1.8 3.1 3.6 2.9 1.7-0.2 2.9-1.6 2.9-3.3z"/>
  <path id="path8-86" class="st0" d="m78.9 0c-5.4 0-10 1.7-13.2 4.9s-4.9 7.8-4.9 13.2v31.1c0.1 1.8 1.7 3.2 3.5 3.2s3.5-1.4 3.5-3.2v-12.9h22.7v12.9c0.2 1.9 1.9 3.4 3.8 3.2 1.7-0.2 3-1.5 3.2-3.2v-31.1c0.1-4.9-1.7-9.7-5.2-13.2-3.2-3.2-8-4.9-13.4-4.9zm11.6 30.1h-22.7v-11.8c0-10.2 7-11.7 11.3-11.7 4.4 0 11.3 1.6 11.3 11.7v11.8z"/>
  <path id="path10" class="st0" d="m139.4 47.3-14.7-21 14.3-20.3c0.4-0.6 0.6-1.2 0.6-1.9 0-1.8-1.5-3.3-3.3-3.3-1.1 0-2.1 0.5-2.7 1.4l-12.9 18.4-12.8-18.4c-1-1.5-3.1-1.9-4.6-0.8-0.9 0.6-1.4 1.6-1.4 2.7 0 0.7 0.2 1.3 0.6 1.9l14.2 20.3-14.7 21c-0.4 0.5-0.6 1.2-0.6 1.9 0 1.8 1.5 3.3 3.3 3.3 1.1 0 2.1-0.5 2.7-1.4l13.3-19 13.3 18.9c0.6 0.9 1.6 1.4 2.7 1.4 1.8 0 3.3-1.5 3.3-3.3 0-0.6-0.2-1.3-0.6-1.8z"/>
 </g>
 <path id="path13-4" class="cls-4" d="m1147.9 152.81a38.539 38.539 0 0 1-38.322-34.523h19.216a19.514 19.514 0 0 0 38.648-3.9896c0-10.666-7.6536-17.994-19.27-19.514a9.9333 9.9333 0 0 1-7.6266-16.284l17.56-22.391h-36.965l-4.5325-19.297h52.191a27.14 27.14 0 0 1 5.9166 0.65139 13.082 13.082 0 0 1 6.2422 2.8769 14.032 14.032 0 0 1 4.6682 10.232 11.345 11.345 0 0 1-2.2798 7.4634l-17.343 22.201a38.539 38.539 0 0 1-18.103 72.576z" fill="#5c2d91" stroke-width="2.714"/>
</svg>
