<?xml version="1.0" encoding="UTF-8"?>
<!-- Generator: Adobe Illustrator 21.0.0, SVG Export Plug-In . SVG Version: 6.00 Build 0)  -->
<svg id="Layer_1" width="206.37" height="36.375" version="1.1" viewBox="0 0 206.37 36.375" xml:space="preserve" xmlns="http://www.w3.org/2000/svg" xmlns:cc="http://creativecommons.org/ns#" xmlns:dc="http://purl.org/dc/elements/1.1/" xmlns:rdf="http://www.w3.org/1999/02/22-rdf-syntax-ns#">
<path id="path32-8" d="m206.37 0.0015v27.173c-0.0307 2.4366-1.0024 4.6391-2.5696 6.2676l2e-3 -0.0034c-1.7421 1.8115-4.1859 2.9366-6.893 2.9366h-187.36c-5.8983 0-9.5486-4.8641-9.5486-9.3963v-26.979z" fill="#5c2d91" stroke-width="1.1365"/><path id="path22-6" d="m1.3683 1.3619v24.627c0.030685 2.3934 0.98639 4.5599 2.5238 6.1596l0.00452 0.0046c1.7612 1.8416 4.1989 2.8567 6.8765 2.8567h71.553c5.8255 0 9.4314-4.6333 9.4314-9.0474l-0.01135-24.601z" fill="#fff" stroke-width="1.1365"/><path id="path32-2" d="m30.718 18.356c0-5.2198 4.2311-9.4509 9.4509-9.4509s9.4509 4.2311 9.4509 9.4509c0 0.01136 0.0011 0.02386 0.0011 0.0375 0 0.48186-0.39095 0.87281-0.87281 0.87281-0.02161 0-0.04319-0.0011-0.06478-0.0023h0.0022-9.835c-0.4955-0.02387-0.88872-0.43072-0.88872-0.93077s0.39322-0.9069 0.88644-0.93077h8.8542c-0.49095-3.764-3.6765-6.6404-7.5348-6.6404-4.1947 0-7.595 3.4003-7.595 7.595s3.4003 7.595 7.595 7.595c2.7332 0 5.1289-1.4433 6.4665-3.6094l0.01931-0.03296c0.13296-0.20343 0.3398-0.3489 0.58073-0.40004l0.0057-0.0011c0.05455-0.01137 0.11705-0.01818 0.18184-0.01818 0.18979 0 0.36708 0.0591 0.51141 0.15911l-0.0033-0.0023c0.25229 0.16706 0.41708 0.45004 0.41708 0.77166 0 0.18752-0.05569 0.3614-0.15115 0.50573l0.0022-0.0034c-1.6933 2.7093-4.6595 4.4856-8.0417 4.4856-5.2198 0-9.4509-4.2311-9.4509-9.4509v-0.0034zm-19.967 0.27616v-15.187c0-0.4955 0.40118-0.89668 0.89668-0.89668s0.89668 0.40117 0.89668 0.89668v9.2691c1.7502-2.3229 4.5038-3.8094 7.6041-3.8094h0.03182-0.0011c4.5334 0 9.427 3.5878 9.427 9.3861 0 4.5959-3.7856 9.5157-9.427 9.5157h-0.10115c-5.0959 0-9.2372-4.0913-9.3191-9.1679v-8e-3zm1.8206-0.33867c0.02387 4.1708 3.4094 7.5428 7.5837 7.5428 4.1879 0 7.5837-3.3958 7.5837-7.5837s-3.3958-7.5837-7.5837-7.5837h-0.0023c-4.1879 0.02273-7.5734 3.4219-7.5734 7.6132v0.01023zm45.788 9.5157c0.96486 0 1.7752-0.75916 1.7752-1.6547v-11.379c0-0.0841-0.1216-2.0479 2.2298-2.2604 1.3706-0.07842 2.0491 1.3467 2.0695 1.3706 0.27162 0.44436 6.6188 10.469 7.2893 11.493 1.0694 1.4604 2.7719 2.4036 4.6948 2.4218h0.0033c0.89326-8e-3 1.7399-0.19434 2.5105-0.52505l-0.04205 0.01591c3.6606-1.4899 3.4844-5.1891 3.4822-5.2164v-11.653c-0.05912-0.7262-0.78305-1.5058-1.7911-1.5092-0.97851 0-1.7365 0.80008-1.7911 1.5331v11.649c-0.04773 0.77735-0.50232 1.4399-1.1512 1.7797l-0.01135 0.0057c-1.9831 0.94098-2.9991-0.69895-3.0423-0.77168l-7.2642-11.444c-0.95577-1.6558-3.6628-3.6424-7.2154-2.3218-3.4821 1.4308-3.5662 5.0891-3.5662 5.1209v11.892c0.06819 0.69666 0.77962 1.449 1.8286 1.4524zm-5.2857 0c1.0024 0 1.7615-0.80462 1.8104-1.5229v-15.819c-0.05341-0.71598-0.80803-1.5149-1.8104-1.5206-1.0103 0-1.7524 0.78303-1.8093 1.5365v15.803c0.0625 0.73189 0.80462 1.5149 1.8149 1.5206z" fill="#5c2d91" stroke-width="1.1365"/><g id="g865" transform="translate(.010427 .0004936)" fill="#fff" stroke-width="1.1365"><path id="path6" d="m118.62 27.443c0.6637 0 1.2012-0.53755 1.2024-1.2001v-4.7436h4.0242c3.5674 0 6.4597-2.8923 6.4597-6.4597s-2.8923-6.4597-6.4597-6.4597c-3.7901 0-6.4381 2.6582-6.4381 6.4597l0.0159 11.195v8e-3c0 0.66142 0.53527 1.1978 1.1956 1.2001zm5.205-16.525c0.0602-0.0034 0.12956-0.0045 0.20002-0.0045 2.2707 0 4.1106 1.8399 4.1106 4.1106s-1.8399 4.1106-4.1106 4.1106c-0.0705 0-0.14092-0.0023-0.21025-0.0057h0.0102-4.0072v-4.089c0-2.4661 1.6092-4.1231 4.0072-4.1231z"/><path id="path8" d="m108.23 19.25c1.724 0 2.9616 0.3739 3.6765 1.1115 0.3989 0.40231 0.64438 0.95691 0.64438 1.5683 0 0.01932 0 0.03978-1e-3 0.0591v-0.0034c1e-3 0.03068 1e-3 0.06705 1e-3 0.10228 0 0.85008-0.3273 1.624-0.86258 2.2013l2e-3 -0.0023c-0.73188 0.75348-1.8854 1.1376-3.4253 1.1376h-0.0239c-1.3854 0-2.4548-0.39208-3.1696-1.1535-0.58528-0.64665-0.94327-1.5092-0.94327-2.4548 0-0.0375 1e-3 -0.07501 1e-3 -0.11251v0.0057c0-0.65688-0.533-1.1899-1.1899-1.1899s-1.1899 0.533-1.1899 1.1899c-2e-3 0.05569-3e-3 0.1216-3e-3 0.18752 0 1.5581 0.61824 2.9719 1.6229 4.0095l-1e-3 -0.0011c1.1978 1.2274 2.915 1.9025 4.8311 1.9025 4.9721 0 6.7359-3.1321 6.7359-5.8199 0-3.1162-2.6423-5.1312-6.7256-5.1312-1.6479 0-2.831-0.35458-3.5231-1.0535-0.33867-0.32048-0.55801-0.76484-0.58756-1.2592v-0.0057c0-0.01364-0.0898-1.4195 0.88077-2.465 0.70688-0.76144 1.8024-1.1467 3.248-1.1467 1.3706 0 2.4252 0.39208 3.1219 1.1376 1.0569 1.1467 0.93418 2.7934 0.93418 2.8287 0 0.64892 0.52619 1.174 1.174 1.174s1.174-0.52619 1.174-1.174c0-6.2347-6.1506-6.3074-6.4108-6.3074h-0.0318c-6.2529 0-6.4347 5.3085-6.4347 5.9142-6e-3 1.7638 1.3581 4.7493 6.4733 4.7493z"/><path id="path14-21" d="m183.21 20.542h-0.0159c-0.64438 0-1.1683 0.51937-1.174 1.1626v0.0011c-2e-3 0.05569-3e-3 0.1216-3e-3 0.18638 0 1.5615 0.62051 2.9776 1.6297 4.0151l-1e-3 -0.0011c1.1956 1.2274 2.9105 1.9047 4.8289 1.9047 4.9721 0 6.7381-3.1321 6.7381-5.8221 0-3.1162-2.6423-5.1312-6.7324-5.1312-1.6445 0-2.8287-0.35458-3.5231-1.0546-0.33867-0.32162-0.55801-0.76484-0.58756-1.2592v-0.0057c0-0.01364-0.0921-1.4195 0.88077-2.465 0.70688-0.76144 1.8013-1.1467 3.248-1.1467 1.3706 0 2.4275 0.39208 3.1219 1.1376 1.0569 1.1467 0.93532 2.7934 0.93191 2.8264 0 0.64892 0.52618 1.174 1.174 1.174s1.174-0.52618 1.174-1.174c0-6.2347-6.1506-6.3051-6.4131-6.3051h-0.0295c-6.2506 0-6.4324 5.3073-6.4324 5.9142 0 1.7615 1.3706 4.7504 6.4779 4.7504 1.7252 0 2.9616 0.3739 3.6765 1.1115 0.3989 0.40345 0.64438 0.95918 0.64438 1.5717 0 0.01932 0 0.0375-1e-3 0.05569v-0.0023c1e-3 0.02955 1e-3 0.06478 1e-3 0.10001 0 0.85122-0.32731 1.6252-0.86259 2.2048l2e-3 -0.0023c-0.72848 0.75348-1.8809 1.1376-3.4219 1.1376h-0.0273c-1.3865 0-2.4514-0.39208-3.1696-1.1535-0.58415-0.64892-0.941-1.5126-0.941-2.4582 0-0.03637 0-0.07273 1e-3 -0.1091v0.0057c-3e-3 -0.64665-0.52732-1.1694-1.174-1.1694h-0.0227 1e-3z"/><path id="path16" d="m168.71 11.368h4.1731v14.878c0.0273 0.64552 0.55687 1.1592 1.2069 1.1592s1.1797-0.51368 1.2069-1.1569v-14.88h4.1754c0.66598 0 1.2069-0.53982 1.2069-1.2069 0-0.66711-0.53982-1.2069-1.2069-1.2069h-10.767c-0.66597 0-1.2069 0.53982-1.2069 1.2069 0 0.66711 0.53983 1.2069 1.2069 1.2069z"/><path id="path20-8" d="m141.76 27.807c5.3084 0 9.6111-4.3027 9.6111-9.6111 0-5.3085-4.3027-9.6111-9.6111-9.6111s-9.6111 4.3027-9.6111 9.6111v0.0045c7e-3 5.305 4.3061 9.6032 9.6111 9.6077zm0-16.889c4.0174 0.0023 7.2745 3.2594 7.2745 7.278 0 4.0197-3.2582 7.278-7.278 7.278-4.0186 0-7.2757-3.256-7.278-7.2745 1e-3 -4.0208 3.2605-7.2814 7.2814-7.2825z"/><path id="path26-4" d="m154.44 27.446c0.6637 0 1.2024-0.53641 1.2058-1.2001v-4.6732h3.8333l3.206 5.213c0.21479 0.36935 0.60915 0.61369 1.0592 0.61369 0.22274 0 0.43072-0.0591 0.61028-0.16252l-6e-3 0.0034c0.27957-0.16252 0.48527-0.42618 0.56937-0.73871l2e-3 -0.0091c0.0273-0.09546 0.0432-0.20456 0.0432-0.31708 0-0.22275-0.0614-0.43186-0.16706-0.61028l3e-3 0.0057-2.715-4.4595c2.4298-0.97396 4.114-3.3105 4.114-6.0392 0-3.5844-2.9048-6.4892-6.4892-6.4892h-3e-3c-3.8117 0-6.4756 2.6741-6.4756 6.5029l0.0113 11.158c2e-3 0.66142 0.53641 1.1978 1.1978 1.2024zm5.2346-16.516c0.0273-0.0011 0.058-0.0011 0.0898-0.0011 2.282 0 4.1322 1.8502 4.1322 4.1322s-1.8502 4.1322-4.1322 4.1322c-0.0318 0-0.0636 0-0.0943-0.0011h5e-3 -4.0367v-4.1106c0-2.4877 1.6206-4.1538 4.0367-4.1538z"/></g></svg>
