<?xml version="1.0" encoding="UTF-8"?>
<svg id="svg34" width="1250" height="296.81" version="1.1" viewBox="0 0 1250 296.81" xmlns="http://www.w3.org/2000/svg" xmlns:cc="http://creativecommons.org/ns#" xmlns:dc="http://purl.org/dc/elements/1.1/" xmlns:rdf="http://www.w3.org/1999/02/22-rdf-syntax-ns#">
 <path id="path32-8" d="m1251-0.22976v138.96c-0.157 12.46-5.1261 23.724-13.141 32.052l0.011-0.0173c-8.9088 9.2638-21.404 15.017-35.248 15.017h-1153.8c-30.163-8e-5 -48.83-24.874-48.83-48.052v-137.97z" fill="#5c2d91" stroke-width="5.8119"/>
 <path id="path22-6-2" d="m1096.8 6.7034c-13.704 0-26.204 5.1993-35.2 14.632-7.6212 7.9255-12.416 18.595-12.838 30.376v127.06l146.97 1e-3c29.792 0 48.231-23.694 48.231-46.267l-0.025-125.81z" fill="#fff" stroke-width="5.8119"/>
 <path id="path22-6" d="m6.9973 6.727v125.94c0.15692 12.24 5.0443 23.319 12.906 31.499l0.02311 0.0234c9.0065 9.4177 21.473 14.609 35.166 14.609h365.91c29.791 0 48.231-23.694 48.231-46.267l-0.058-125.81z" fill="#fff" stroke-width="5.8119"/>
 <path id="path32-2" d="m157.09 93.635c0-26.693 21.637-48.331 48.331-48.331s48.331 21.637 48.331 48.331c0 0.0581 6e-3 0.12202 6e-3 0.19177 0 2.4642-1.9993 4.4634-4.4634 4.4634-0.11056 0-0.22086-0.0056-0.33128-0.01173h0.0109-50.295c-2.5339-0.12207-4.5448-2.2026-4.5448-4.7598s2.0109-4.6378 4.5331-4.7598h45.279c-2.5106-19.249-18.801-33.958-38.532-33.958-21.451 0-38.84 17.389-38.84 38.84 0 21.451 17.389 38.84 38.84 38.84 13.977 0 26.229-7.3808 33.069-18.458l0.0988-0.16855c0.67993-1.0403 1.7377-1.7842 2.9698-2.0458l0.0291-6e-3c0.27896-0.0581 0.59857-0.093 0.9299-0.093 0.97056 0 1.8772 0.30222 2.6153 0.81366l-0.0169-0.0117c1.2902 0.85432 2.1329 2.3014 2.1329 3.9462 0 0.95896-0.28479 1.8482-0.77296 2.5862l0.0109-0.0174c-8.6593 13.855-23.828 22.939-41.124 22.939-26.693 0-48.331-21.637-48.331-48.331v-0.01739zm-102.11 1.4122v-77.664c0-2.5339 2.0516-4.5855 4.5855-4.5855s4.5855 2.0515 4.5855 4.5855v47.401c8.9503-11.879 23.032-19.481 38.886-19.481h0.16272-6e-3c23.183 0 48.208 18.348 48.208 47.999 0 23.503-19.359 48.662-48.208 48.662h-0.51728c-26.06 0-47.238-20.922-47.657-46.883v-0.0409zm9.3103-1.7319c0.12207 21.329 17.435 38.573 38.782 38.573 21.416 0 38.782-17.366 38.782-38.782 0-21.416-17.366-38.782-38.782-38.782h-0.0117c-21.416 0.11619-38.729 17.499-38.729 38.933v0.05231zm234.15 48.662c4.9342 0 9.0782-3.8822 9.0782-8.4619v-58.191c0-0.43008-0.62184-10.473 11.403-11.559 7.0091-0.40102 10.479 6.8868 10.583 7.0091 1.389 2.2724 33.848 53.537 37.277 58.774 5.4688 7.4683 14.175 12.292 24.009 12.385h0.0169c4.568-0.0409 8.8976-0.99383 12.838-2.685l-0.21505 0.0814c18.72-7.6192 17.819-26.536 17.808-26.676v-59.592c-0.30233-3.7137-4.0044-7.7005-9.1595-7.7179-5.004 0-8.8802 4.0915-9.1594 7.8401v59.571c-0.2441 3.9752-2.5688 7.3634-5.8871 9.1011l-0.058 0.0291c-10.141 4.8121-15.337-3.5743-15.558-3.9463l-37.148-58.523c-4.8877-8.4675-18.731-18.627-36.899-11.873-17.807 7.3169-18.237 26.025-18.237 26.188v60.814c0.34871 3.5626 3.9869 7.41 9.3512 7.4274zm-27.03 0c5.1261 0 9.0081-4.1147 9.2582-7.7879v-80.896c-0.27314-3.6614-4.1322-7.747-9.2582-7.7762-5.1666 0-8.9616 4.0043-9.2525 7.8575v80.814c0.31962 3.7428 4.1147 7.747 9.2812 7.7762z" fill="#5c2d91" stroke-width="5.8119"/>
 <g id="g881" transform="matrix(1.5638 0 0 1.5638 -.0018765 239.93)" fill="#fff" stroke-width="3.7167">
  <path id="path6" d="m387.95-63.835c2.1705 0 3.9282-1.7579 3.9322-3.9246v-15.513h13.16c11.666 0 21.125-9.4586 21.125-21.125 0-11.666-9.4586-21.125-21.125-21.125-12.395 0-21.054 8.693-21.054 21.125l0.052 36.611v0.02616c0 2.163 1.7505 3.9171 3.9099 3.9246zm17.022-54.041c0.19687-0.0111 0.4237-0.0147 0.65412-0.0147 7.4258 0 13.443 6.017 13.443 13.443 0 7.4258-6.017 13.443-13.443 13.443-0.23055 0-0.46084-0.0075-0.68757-0.01864h0.0334-13.105v-13.372c0-8.0648 5.2625-13.484 13.105-13.484z"/>
  <path id="path8" d="m353.97-90.628c5.6379 0 9.6852 1.2228 12.023 3.6349 1.3045 1.3157 2.1073 3.1293 2.1073 5.1288 0 0.06318 0 0.13009-3e-3 0.19327v-0.01112c3e-3 0.10033 3e-3 0.21927 3e-3 0.33448 0 2.78-1.0704 5.3109-2.8209 7.1988l7e-3 -0.0075c-2.3934 2.4641-6.1658 3.7202-11.202 3.7202h-0.0781c-4.5306 0-8.0278-1.2822-10.365-3.7722-1.914-2.1147-3.0847-4.9355-3.0847-8.0278 0-0.12263 3e-3 -0.2453 3e-3 -0.36794v0.01864c0-2.1482-1.743-3.8913-3.8913-3.8913-2.1482 0-3.8913 1.743-3.8913 3.8913-7e-3 0.18212-0.01 0.39766-0.01 0.61324 0 5.0954 2.0218 9.7189 5.3073 13.112l-3e-3 -0.0036c3.9171 4.0139 9.5328 6.2217 15.799 6.2217 16.26 0 22.028-10.243 22.028-19.033 0-10.191-8.641-16.78-21.994-16.78-5.3891 0-9.2581-1.1596-11.521-3.4452-1.1075-1.0481-1.8248-2.5012-1.9215-4.1179v-0.0186c0-0.0446-0.29367-4.6421 2.8803-8.0612 2.3117-2.4901 5.8943-3.75 10.622-3.75 4.4822 0 7.931 1.2822 10.209 3.7202 3.4563 3.75 3.055 9.1352 3.055 9.2506 0 2.1221 1.7208 3.8393 3.8393 3.8393s3.8393-1.7208 3.8393-3.8393c0-20.389-20.114-20.627-20.965-20.627h-0.104c-20.449 0-21.043 17.36-21.043 19.341-0.0196 5.7681 4.4413 15.531 21.169 15.531z"/>
  <path id="path14" d="m599.17-86.403h-0.052c-2.1073 0-3.8206 1.6985-3.8393 3.802v0.0036c-7e-3 0.18212-0.01 0.39766-0.01 0.60951 0 5.1065 2.0292 9.7375 5.3296 13.13l-3e-3 -0.0036c3.9099 4.0139 9.5181 6.2289 15.792 6.2289 16.26 0 22.035-10.243 22.035-19.04 0-10.191-8.641-16.78-22.017-16.78-5.3779 0-9.2506-1.1596-11.521-3.4488-1.1075-1.0518-1.8248-2.5012-1.9215-4.1179v-0.0186c0-0.0446-0.30119-4.6421 2.8804-8.0612 2.3117-2.4901 5.8907-3.75 10.622-3.75 4.4822 0 7.9386 1.2822 10.209 3.7202 3.4563 3.75 3.0587 9.1351 3.0476 9.2431 0 2.1221 1.7208 3.8393 3.8393 3.8393s3.8393-1.7208 3.8393-3.8393c0-20.389-20.114-20.619-20.973-20.619h-0.0965c-20.441 0-21.036 17.356-21.036 19.341 0 5.7606 4.4822 15.535 21.184 15.535 5.6418 0 9.6852 1.2228 12.023 3.6349 1.3045 1.3194 2.1073 3.1368 2.1073 5.1399 0 0.06318 0 0.12264-3e-3 0.18212v-0.0075c3e-3 0.09664 3e-3 0.21185 3e-3 0.32706 0 2.7837-1.0704 5.3148-2.8209 7.2103l7e-3 -0.0075c-2.3823 2.4641-6.151 3.7202-11.191 3.7202h-0.0893c-4.5342 0-8.0167-1.2822-10.365-3.7722-1.9103-2.1221-3.0773-4.9466-3.0773-8.039 0-0.11894 0-0.23785 3e-3 -0.35678v0.01864c-0.01-2.1147-1.7245-3.8242-3.8393-3.8242h-0.0742 3e-3z"/>
  <path id="path16" d="m551.76-116.4h13.647v48.655c0.0893 2.111 1.8211 3.7909 3.9469 3.7909s3.8579-1.6799 3.9469-3.7834v-48.661h13.655c2.1779 0 3.9469-1.7654 3.9469-3.9469 0-2.1816-1.7654-3.9469-3.9469-3.9469h-35.211c-2.1779 0-3.9469 1.7654-3.9469 3.9469 0 2.1816 1.7654 3.9469 3.9469 3.9469z"/>
  <path id="path20" d="m463.62-62.644c17.36 0 31.431-14.071 31.431-31.431 0-17.36-14.071-31.431-31.431-31.431-17.36 0-31.431 14.071-31.431 31.431v0.01472c0.0229 17.349 14.082 31.405 31.431 31.42zm0-55.231c13.138 8e-3 23.79 10.659 23.79 23.801 0 13.145-10.655 23.801-23.801 23.801-13.142 0-23.793-10.648-23.801-23.79 3e-3 -13.149 10.663-23.812 23.812-23.816z"/>
  <path id="path26" d="m505.09-63.825c2.1705 0 3.9322-1.7542 3.9433-3.9246v-15.283h12.536l10.484 17.048c0.70242 1.2079 1.9921 2.0069 3.4639 2.0069 0.72842 0 1.4086-0.19327 1.9958-0.53148l-0.0196 0.01112c0.91427-0.53148 1.587-1.3937 1.862-2.4158l7e-3 -0.02976c0.0893-0.31218 0.14128-0.66896 0.14128-1.0369 0-0.72845-0.2008-1.4123-0.54633-1.9958l0.01 0.01864-8.8788-14.584c7.9461-3.1851 13.454-10.826 13.454-19.75 0-11.722-9.4994-21.221-21.221-21.221h-0.01c-12.465 0-21.177 8.745-21.177 21.266l0.037 36.49c7e-3 2.163 1.7542 3.9171 3.9171 3.9322zm17.119-54.012c0.0893-4e-3 0.18967-4e-3 0.29367-4e-3 7.4627 0 13.513 6.0506 13.513 13.513 0 7.4627-6.0506 13.513-13.513 13.513-0.104 0-0.20799 0-0.30839-0.0036h0.0163-13.201v-13.443c0-8.1354 5.2998-13.584 13.201-13.584z"/>
 </g>
 <g id="g843" transform="matrix(1.251 0 0 1.251 814.77 231.13)" fill="#fff">
  <path id="path6-0" class="st0" d="m55.2 49.1v-0.4l-5.4-42.8c-0.4-3.2-3.2-5.4-6.4-5.1-2.4 0.3-4.3 1.9-4.9 4.2l-10.9 36.5-10.8-36.5c-0.9-3.1-4.1-4.8-7.2-3.9-2.2 0.6-3.8 2.5-4.1 4.8l-5.5 42.8c-0.3 1.8 0.9 3.4 2.7 3.7h0.6c1.6 0 3-1.2 3.2-2.9l5-39.2 11.7 38.8c0.7 2.4 3.3 3.8 5.7 3.1 1.5-0.4 2.6-1.6 3.1-3.1l11.7-38.8 5 39.2c0.2 1.8 1.8 3.1 3.6 2.9 1.7-0.2 2.9-1.6 2.9-3.3z"/>
  <path id="path8-86" class="st0" d="m78.9 0c-5.4 0-10 1.7-13.2 4.9s-4.9 7.8-4.9 13.2v31.1c0.1 1.8 1.7 3.2 3.5 3.2s3.5-1.4 3.5-3.2v-12.9h22.7v12.9c0.2 1.9 1.9 3.4 3.8 3.2 1.7-0.2 3-1.5 3.2-3.2v-31.1c0.1-4.9-1.7-9.7-5.2-13.2-3.2-3.2-8-4.9-13.4-4.9zm11.6 30.1h-22.7v-11.8c0-10.2 7-11.7 11.3-11.7 4.4 0 11.3 1.6 11.3 11.7v11.8z"/>
  <path id="path10" class="st0" d="m139.4 47.3-14.7-21 14.3-20.3c0.4-0.6 0.6-1.2 0.6-1.9 0-1.8-1.5-3.3-3.3-3.3-1.1 0-2.1 0.5-2.7 1.4l-12.9 18.4-12.8-18.4c-1-1.5-3.1-1.9-4.6-0.8-0.9 0.6-1.4 1.6-1.4 2.7 0 0.7 0.2 1.3 0.6 1.9l14.2 20.3-14.7 21c-0.4 0.5-0.6 1.2-0.6 1.9 0 1.8 1.5 3.3 3.3 3.3 1.1 0 2.1-0.5 2.7-1.4l13.3-19 13.3 18.9c0.6 0.9 1.6 1.4 2.7 1.4 1.8 0 3.3-1.5 3.3-3.3 0-0.6-0.2-1.3-0.6-1.8z"/>
 </g>
 <path id="path6-5" d="m1147.3 151.81c-18.217-0.11301-33.674-13.39-36.542-31.376h18.621c3.6542 9.8325 14.59 14.843 24.428 11.189 9.8325-3.6542 14.843-14.59 11.189-24.428-2.7501-7.4-9.7948-12.33-17.695-12.378h-21.85c-8.9338 0-14.423-6.9425-14.423-18.029v-27.232c0-9.0414 6.781-14.746 17.652-14.746h50.804l-5.3818 19.374h-42.731v22.281h16.145c20.806 0 37.672 16.867 37.672 37.672s-16.866 37.672-37.672 37.672z" fill="#5c2d91" stroke-width="5.3818"/>
</svg>
