<?xml version="1.0" encoding="UTF-8"?>
<svg id="svg34" width="800" height="189.96" version="1.1" viewBox="0 0 800 189.96" xmlns="http://www.w3.org/2000/svg" xmlns:cc="http://creativecommons.org/ns#" xmlns:dc="http://purl.org/dc/elements/1.1/" xmlns:rdf="http://www.w3.org/1999/02/22-rdf-syntax-ns#">
 <path id="path32-8" d="m800 0.00491v88.863c-0.1004 7.9683-3.2781 15.171-8.4033 20.497l7e-3 -0.0111c-5.6971 5.9241-13.688 9.6034-22.541 9.6034h-737.84c-19.289-2e-5 -31.226-15.907-31.226-30.728v-88.228z" fill="#5c2d91" stroke-width="3.7167"/>
 <path id="path22-6-2" d="m701.4 4.4386c-8.7636 0-16.757 3.3249-22.51 9.3569-4.8737 5.0682-7.9402 11.891-8.21 19.425v81.256l93.987 7.2e-4c19.051 0 30.843-15.152 30.843-29.587l-0.0163-80.452z" fill="#fff" stroke-width="3.7167"/>
 <path id="path22-6" d="m4.4747 4.4536v80.537c0.10035 7.827 3.2258 14.912 8.2535 20.143l0.01478 0.015c5.7596 6.0225 13.731 9.3422 22.488 9.3422h234c19.051 0 30.843-15.152 30.843-29.587l-0.0371-80.452z" fill="#fff" stroke-width="3.7167"/>
 <path id="path32-2" d="m100.46 60.03c0-17.07 13.837-30.907 30.907-30.907s30.907 13.837 30.907 30.907c0 0.03715 4e-3 0.07803 4e-3 0.12264 0 1.5758-1.2785 2.8543-2.8543 2.8543-0.0707 0-0.14124-0.0036-0.21185-0.0075h7e-3 -32.163c-1.6204-0.07806-2.9064-1.4086-2.9064-3.0439s1.2859-2.9658 2.8989-3.0439h28.956c-1.6055-12.309-12.023-21.716-24.641-21.716-13.718 0-24.838 11.12-24.838 24.838 0 13.718 11.12 24.838 24.838 24.838 8.9383 0 16.773-4.72 21.147-11.804l0.0632-0.10779c0.43481-0.66527 1.1112-1.141 1.8991-1.3082l0.0186-0.0036c0.17839-0.03718 0.38278-0.05945 0.59466-0.05945 0.62066 0 1.2004 0.19327 1.6724 0.52033l-0.0108-0.0075c0.82506 0.54633 1.364 1.4717 1.364 2.5235 0 0.61324-0.18212 1.1819-0.4943 1.6539l7e-3 -0.01112c-5.5375 8.8601-15.238 14.669-26.298 14.669-17.07 0-30.907-13.837-30.907-30.907v-0.01112zm-65.297 0.90312v-49.665c0-1.6204 1.312-2.9324 2.9324-2.9324 1.6204 0 2.9324 1.3119 2.9324 2.9324v30.312c5.7236-7.5965 14.729-12.458 24.867-12.458h0.10406-0.0036c14.825 0 30.829 11.733 30.829 30.695 0 15.03-12.38 31.119-30.829 31.119h-0.33079c-16.665 0-30.208-13.38-30.476-29.981v-0.02616zm5.9538-1.1075c0.07806 13.64 11.15 24.667 24.801 24.667 13.696 0 24.801-11.105 24.801-24.801 0-13.696-11.105-24.801-24.801-24.801h-0.0075c-13.696 0.0743-24.767 11.191-24.767 24.897v0.03345zm149.74 31.119c3.1554 0 5.8054-2.4827 5.8054-5.4113v-37.212c0-0.27503-0.39766-6.6972 7.292-7.3921 4.4822-0.25645 6.7011 4.4041 6.7678 4.4822 0.88827 1.4532 21.645 34.236 23.838 37.585 3.4972 4.7759 9.0648 7.8604 15.353 7.9199h0.0108c2.9212-0.02616 5.6899-0.63554 8.21-1.717l-0.13752 0.05203c11.971-4.8724 11.395-16.97 11.388-17.059v-38.108c-0.19334-2.3749-2.5608-4.9244-5.8574-4.9355-3.2 0-5.6788 2.6165-5.8574 5.0136v38.095c-0.15609 2.5421-1.6427 4.7088-3.7647 5.8201l-0.0371 0.01864c-6.4853 3.0772-9.8078-2.2857-9.9491-2.5236l-23.756-37.425c-3.1256-5.4149-11.978-11.912-23.596-7.5929-11.387 4.6791-11.662 16.643-11.662 16.747v38.89c0.223 2.2783 2.5496 4.7386 5.98 4.7497zm-17.286 0c3.2781 0 5.7606-2.6313 5.9205-4.9803v-51.732c-0.17467-2.3414-2.6425-4.9541-5.9205-4.9728-3.304 0-5.7308 2.5607-5.9169 5.0248v51.68c0.20439 2.3935 2.6313 4.9541 5.9352 4.9728z" fill="#5c2d91" stroke-width="3.7167"/>
 <g id="g881" transform="translate(-.0012 153.58)" fill="#fff" stroke-width="3.7167">
  <path id="path6" d="m387.95-63.835c2.1705 0 3.9282-1.7579 3.9322-3.9246v-15.513h13.16c11.666 0 21.125-9.4586 21.125-21.125 0-11.666-9.4586-21.125-21.125-21.125-12.395 0-21.054 8.693-21.054 21.125l0.052 36.611v0.02616c0 2.163 1.7505 3.9171 3.9099 3.9246zm17.022-54.041c0.19687-0.0111 0.4237-0.0147 0.65412-0.0147 7.4258 0 13.443 6.017 13.443 13.443 0 7.4258-6.017 13.443-13.443 13.443-0.23055 0-0.46084-0.0075-0.68757-0.01864h0.0334-13.105v-13.372c0-8.0648 5.2625-13.484 13.105-13.484z"/>
  <path id="path8" d="m353.97-90.628c5.6379 0 9.6852 1.2228 12.023 3.6349 1.3045 1.3157 2.1073 3.1293 2.1073 5.1288 0 0.06318 0 0.13009-3e-3 0.19327v-0.01112c3e-3 0.10033 3e-3 0.21927 3e-3 0.33448 0 2.78-1.0704 5.3109-2.8209 7.1988l7e-3 -0.0075c-2.3934 2.4641-6.1658 3.7202-11.202 3.7202h-0.0781c-4.5306 0-8.0278-1.2822-10.365-3.7722-1.914-2.1147-3.0847-4.9355-3.0847-8.0278 0-0.12263 3e-3 -0.2453 3e-3 -0.36794v0.01864c0-2.1482-1.743-3.8913-3.8913-3.8913-2.1482 0-3.8913 1.743-3.8913 3.8913-7e-3 0.18212-0.01 0.39766-0.01 0.61324 0 5.0954 2.0218 9.7189 5.3073 13.112l-3e-3 -0.0036c3.9171 4.0139 9.5328 6.2217 15.799 6.2217 16.26 0 22.028-10.243 22.028-19.033 0-10.191-8.641-16.78-21.994-16.78-5.3891 0-9.2581-1.1596-11.521-3.4452-1.1075-1.0481-1.8248-2.5012-1.9215-4.1179v-0.0186c0-0.0446-0.29367-4.6421 2.8803-8.0612 2.3117-2.4901 5.8943-3.75 10.622-3.75 4.4822 0 7.931 1.2822 10.209 3.7202 3.4563 3.75 3.055 9.1352 3.055 9.2506 0 2.1221 1.7208 3.8393 3.8393 3.8393s3.8393-1.7208 3.8393-3.8393c0-20.389-20.114-20.627-20.965-20.627h-0.104c-20.449 0-21.043 17.36-21.043 19.341-0.0196 5.7681 4.4413 15.531 21.169 15.531z"/>
  <path id="path14" d="m599.17-86.403h-0.052c-2.1073 0-3.8206 1.6985-3.8393 3.802v0.0036c-7e-3 0.18212-0.01 0.39766-0.01 0.60951 0 5.1065 2.0292 9.7375 5.3296 13.13l-3e-3 -0.0036c3.9099 4.0139 9.5181 6.2289 15.792 6.2289 16.26 0 22.035-10.243 22.035-19.04 0-10.191-8.641-16.78-22.017-16.78-5.3779 0-9.2506-1.1596-11.521-3.4488-1.1075-1.0518-1.8248-2.5012-1.9215-4.1179v-0.0186c0-0.0446-0.30119-4.6421 2.8804-8.0612 2.3117-2.4901 5.8907-3.75 10.622-3.75 4.4822 0 7.9386 1.2822 10.209 3.7202 3.4563 3.75 3.0587 9.1351 3.0476 9.2431 0 2.1221 1.7208 3.8393 3.8393 3.8393s3.8393-1.7208 3.8393-3.8393c0-20.389-20.114-20.619-20.973-20.619h-0.0965c-20.441 0-21.036 17.356-21.036 19.341 0 5.7606 4.4822 15.535 21.184 15.535 5.6418 0 9.6852 1.2228 12.023 3.6349 1.3045 1.3194 2.1073 3.1368 2.1073 5.1399 0 0.06318 0 0.12264-3e-3 0.18212v-0.0075c3e-3 0.09664 3e-3 0.21185 3e-3 0.32706 0 2.7837-1.0704 5.3148-2.8209 7.2103l7e-3 -0.0075c-2.3823 2.4641-6.151 3.7202-11.191 3.7202h-0.0893c-4.5342 0-8.0167-1.2822-10.365-3.7722-1.9103-2.1221-3.0773-4.9466-3.0773-8.039 0-0.11894 0-0.23785 3e-3 -0.35678v0.01864c-0.01-2.1147-1.7245-3.8242-3.8393-3.8242h-0.0742 3e-3z"/>
  <path id="path16" d="m551.76-116.4h13.647v48.655c0.0893 2.111 1.8211 3.7909 3.9469 3.7909s3.8579-1.6799 3.9469-3.7834v-48.661h13.655c2.1779 0 3.9469-1.7654 3.9469-3.9469 0-2.1816-1.7654-3.9469-3.9469-3.9469h-35.211c-2.1779 0-3.9469 1.7654-3.9469 3.9469 0 2.1816 1.7654 3.9469 3.9469 3.9469z"/>
  <path id="path20" d="m463.62-62.644c17.36 0 31.431-14.071 31.431-31.431 0-17.36-14.071-31.431-31.431-31.431-17.36 0-31.431 14.071-31.431 31.431v0.01472c0.0229 17.349 14.082 31.405 31.431 31.42zm0-55.231c13.138 8e-3 23.79 10.659 23.79 23.801 0 13.145-10.655 23.801-23.801 23.801-13.142 0-23.793-10.648-23.801-23.79 3e-3 -13.149 10.663-23.812 23.812-23.816z"/>
  <path id="path26" d="m505.09-63.825c2.1705 0 3.9322-1.7542 3.9433-3.9246v-15.283h12.536l10.484 17.048c0.70242 1.2079 1.9921 2.0069 3.4639 2.0069 0.72842 0 1.4086-0.19327 1.9958-0.53148l-0.0196 0.01112c0.91427-0.53148 1.587-1.3937 1.862-2.4158l7e-3 -0.02976c0.0893-0.31218 0.14128-0.66896 0.14128-1.0369 0-0.72845-0.2008-1.4123-0.54633-1.9958l0.01 0.01864-8.8788-14.584c7.9461-3.1851 13.454-10.826 13.454-19.75 0-11.722-9.4994-21.221-21.221-21.221h-0.01c-12.465 0-21.177 8.745-21.177 21.266l0.037 36.49c7e-3 2.163 1.7542 3.9171 3.9171 3.9322zm17.119-54.012c0.0893-4e-3 0.18967-4e-3 0.29367-4e-3 7.4627 0 13.513 6.0506 13.513 13.513 0 7.4627-6.0506 13.513-13.513 13.513-0.104 0-0.20799 0-0.30839-0.0036h0.0163-13.201v-13.443c0-8.1354 5.2998-13.584 13.201-13.584z"/>
 </g>
 <path id="path6-4" d="m744.92 34.537v63.419h-13.761v-62.054h-17.155l5.3126-13.946h15.311c6.3456 0 10.293 4.7961 10.293 12.581z" fill="#5c2d91" stroke-width="3.6893"/>
 <g id="g843" transform="matrix(.8 0 0 .8 521.04 147.96)" fill="#fff">
  <path id="path6-0" class="st0" d="m55.2 49.1v-0.4l-5.4-42.8c-0.4-3.2-3.2-5.4-6.4-5.1-2.4 0.3-4.3 1.9-4.9 4.2l-10.9 36.5-10.8-36.5c-0.9-3.1-4.1-4.8-7.2-3.9-2.2 0.6-3.8 2.5-4.1 4.8l-5.5 42.8c-0.3 1.8 0.9 3.4 2.7 3.7h0.6c1.6 0 3-1.2 3.2-2.9l5-39.2 11.7 38.8c0.7 2.4 3.3 3.8 5.7 3.1 1.5-0.4 2.6-1.6 3.1-3.1l11.7-38.8 5 39.2c0.2 1.8 1.8 3.1 3.6 2.9 1.7-0.2 2.9-1.6 2.9-3.3z"/>
  <path id="path8-86" class="st0" d="m78.9 0c-5.4 0-10 1.7-13.2 4.9s-4.9 7.8-4.9 13.2v31.1c0.1 1.8 1.7 3.2 3.5 3.2s3.5-1.4 3.5-3.2v-12.9h22.7v12.9c0.2 1.9 1.9 3.4 3.8 3.2 1.7-0.2 3-1.5 3.2-3.2v-31.1c0.1-4.9-1.7-9.7-5.2-13.2-3.2-3.2-8-4.9-13.4-4.9zm11.6 30.1h-22.7v-11.8c0-10.2 7-11.7 11.3-11.7 4.4 0 11.3 1.6 11.3 11.7v11.8z"/>
  <path id="path10" class="st0" d="m139.4 47.3-14.7-21 14.3-20.3c0.4-0.6 0.6-1.2 0.6-1.9 0-1.8-1.5-3.3-3.3-3.3-1.1 0-2.1 0.5-2.7 1.4l-12.9 18.4-12.8-18.4c-1-1.5-3.1-1.9-4.6-0.8-0.9 0.6-1.4 1.6-1.4 2.7 0 0.7 0.2 1.3 0.6 1.9l14.2 20.3-14.7 21c-0.4 0.5-0.6 1.2-0.6 1.9 0 1.8 1.5 3.3 3.3 3.3 1.1 0 2.1-0.5 2.7-1.4l13.3-19 13.3 18.9c0.6 0.9 1.6 1.4 2.7 1.4 1.8 0 3.3-1.5 3.3-3.3 0-0.6-0.2-1.3-0.6-1.8z"/>
 </g>
</svg>
