<?xml version="1.0" encoding="UTF-8"?>
<svg id="svg44" width="1077.4pt" height="252.59pt" version="1.1" viewBox="0 0 1077.4 252.59" xmlns="http://www.w3.org/2000/svg" xmlns:cc="http://creativecommons.org/ns#" xmlns:dc="http://purl.org/dc/elements/1.1/" xmlns:rdf="http://www.w3.org/1999/02/22-rdf-syntax-ns#">
 <metadata id="metadata50">
  <rdf:RDF>
   <cc:Work rdf:about="">
    <dc:format>image/svg+xml</dc:format>
    <dc:type rdf:resource="http://purl.org/dc/dcmitype/StillImage"/>
    <dc:title/>
   </cc:Work>
  </rdf:RDF>
 </metadata>
 <g id="#ffffffff" transform="translate(-54.451 -70.218)" fill="#00a652">
  <path id="path21" d="m171.49 70.67c7.85-0.74 15.81-0.62 23.59 0.72 28.45 3.12 55.65 16.38 75.62 36.88 19.36 19.44 31.97 45.45 35.26 72.69 1.6695 16.531 0.91 29.01-2.04 43.14-6.29 28.88-23.33 55.16-46.9 72.95-20.3 15.57-45.49 24.4-70.99 25.66-18.73 0.73-37.6-2.79-54.85-10.11-28.16-11.93-51.63-34.52-64.64-62.2-6.01-12.68-9.83-26.38-11.31-40.33-0.92975-10.1-1.1999-17.98 0.16-28.2 3.13-27.92 16.13-54.59 36.09-74.35 17.17-17.28 39.48-29.36 63.34-34.27 5.48-1.3 11.12-1.69 16.67-2.58m-53.05 29.74c-24.14 15.49-42.05 40.39-48.97 68.23-6 23.98-4.08 49.88 5.55 72.66l67.37-38.92c4.13-12.16 12.71-22.73 23.89-29.08 11.02-6.3 24.41-8.79 36.86-5.96l69.04-39.7c-20.94-28.37-55.87-45.87-91.16-45.49-22.07-0.33-44.08 6.29-62.58 18.26m98.74 72.72c13.02 7.21 22.83 20.09 25.75 34.74 3.37 15.3-0.96 32.02-11.1 43.93-8.94 10.63-22.34 17.38-36.22 18.16-14.98 1.02-30.29-4.96-40.61-15.89-9.44-9.7-14.47-23.26-14.39-36.74l-58.77 33.83 152.38 40.44 41.61-152.23-58.65 33.76m68.14-23-38.04 139.92c11.39-8.36 21.5-18.56 29.25-30.4 14.88-22.38 21.43-50.13 18.08-76.8-1.5-11.25-4.12-22.57-9.29-32.72m-100.76 29.64c-12.51 2.42-23.53 11.33-28.45 23.09-5.32 12.04-3.99 26.72 3.44 37.59 7.96 12.23 23.1 19.05 37.56 17.21 13.59-1.45 26.03-10.65 31.4-23.23 7.59-16.41 1.97-37.6-12.92-47.92-8.82-6.38-20.35-9.02-31.03-6.74m-95.59 85.7c16.34 21.62 40.42 37.33 66.96 43.04 23.4 5.3 48.32 2.71 70.38-6.6z"/>
  <path id="path23" d="m172.09 104.05c10.24-3.76 23.1-1.04 29.76 7.96 6.52 8.56 4.75 21.15-1.43 29.37-3.6 3.93-10.95-0.28-9.33-5.32 2.12-4.68 5.06-9.88 2.97-15.13-2.51-6-9.67-7.88-15.61-7.21 4.27 6.45 4.66 14.8 2 21.95-1.11 2.8-2.14 6.04-4.85 7.7-3.07 1.63-7.17-0.15-8.11-3.48-0.88-2.72 1.13-5.1 2.01-7.53 2.16-4.83 1.79-11.64-3.13-14.66-7.7-4.78-17.4-2.8-25.38 0.2l13.19 22.95c1.91 3.55-1.27 8.19-5.19 8.09-2.35 0.16-4.41-1.37-5.47-3.37l-12.61-21.85c-6.44 5.28-12.82 12.49-12.82 21.3-0.25 4.43 3.13 8.21 7.13 9.62 3.37 1.49 7.34 0.67 10.62 2.29 4.01 2.49 2.81 9.36-1.92 10.13-9.84 1-20.68-3.77-25.29-12.86-2.69 3.65-4.67 8.25-3.56 12.85 0.98 5 6.03 8.14 10.85 8.49 3.01 0.32 6.8-0.07 8.67 2.88 2.56 3.41-0.24 8.6-4.4 8.72-8.15 0.14-16.94-2.49-22.12-9.14-6.04-7.58-5.8-18.72-0.92-26.83 2.25-4.29 6.07-7.3 9.6-10.46 2.85-14.11 13.76-25.25 26.3-31.56 10.04-4.89 21.94-7.62 32.85-4.06 2.14 1.08 4.18-0.41 6.19-1.04z"/>
  <path id="path25" d="m724.57 107.62h41.195v31.57h-41.195z"/>
  <path id="path27" d="m377.18 109.76h67.83c13.1 0.29 27.07 3.115 37.08 12.145 8.8 7.68 12.94 19.61 12.81 31.09 0.5 11.76-2.87 24.13-11.05 32.85-4.52 4.9-10.61 8.16-17.1 9.55 3.8104 0.88472 6.438 1.5609 9.32 2.6 8.63 2.65 15.93 9.14 19.52 17.42 4.07 9.32 4.91 19.74 4.38 29.8-0.57 11.79-4.99 23.78-13.9 31.8-8.31 7.75-19.54 11.41-30.58 13.05-8.11 1.12-16.32 0.88-24.48 0.94h-53.83m42.56-149.72v40.921h8.9435c2.3632 0 4.7237-0.0603 7.0765-0.32125 5.01-0.57 10.1-2.86 12.96-7.17 3.41-5.14 4.09-11.69 3.31-17.69-0.76-5.94-4.56-11.51-10.14-13.87-3.4907-1.5253-7.1862-1.87-10.931-1.87h-11.219m0 69.26v49.03h12.598c5.1531 0 10.198-0.75982 14.652-3.63 6.91-4.43 9.24-13.22 8.87-20.99 0.05-7.93-2.52-16.8-9.64-21.16-4.2939-2.613-9.0863-3.2498-13.974-3.2498z"/>
  <path id="path29" d="m897.88 109.74h113.66v19.85h-45.755v161.33h-22.355v-161.33h-45.555z"/>
  <path id="path31" d="m1013.1 109.74h23.36l35.14 155.84 36.62-155.84h23.65l-45.95 181.12h-28.64z"/>
  <path id="path33" d="m648.84 113.5h41.33v40.15h18.835v28.5h-18.835v70.865c0 3.5753 1.035 7.63 4.375 9.45 4.51 2.28 9.62 1.77 14.46 1.18v27.51c-12.94 1.24-26.18 2.25-39.11 0.46-6.06-0.83-12.49-3.19-15.91-8.58-4.34-6.82-5.145-16.13-5.145-23.04v-77.845h-17.055v-28.5h17.055z"/>
  <path id="path35" d="m146.99 163.94c14.02-11.75 32.78-17.72 51.01-16.12 4.34 0.62 8.92 0.7 12.89 2.76l-3.53 11.9c-15.2-4.1-32.01-1.81-45.38 6.55-12.72 7.6-21.71 20.42-25.81 34.54l-12.26-3.33c3.64-14.13 11.85-27 23.08-36.3z"/>
  <path id="path37" d="m528.03 168.97c8.41-12.29 23.53-17.93 37.93-18.65 14.09-0.73 29.35 0.17 41.41 8.29 9.26 6.22 14.36 16.85 16.67 27.48 3.14 14.13 3.08 28.705 3.26 43.105h-69.47c-0.02 8.03-0.08 16.085 0.9 24.065 0.8 4.94 2.08 10.41 6.22 13.66 5.69 4.02 15.14 3.12 18.77-3.27 3.3-5.89 3.64-12.87 4.13-19.46h38.08c-0.08 13.82-3.87 28.65-14.42 38.23-10.09 9.19-24.23 12.06-37.49 12.2-13.04 0.16-26.96-1.76-37.65-9.84-7.98-5.92-12.93-15.08-15.56-24.51-3.63-13.07-4.07-26.75-4.13-40.23-0.1-17.45 1.18-36.23 11.35-51.07m33.21 13.26c-3.57 7.11-3.03 15.315-3.45 23.035h29.8c-0.24-7.93 0.07-16.255-3.36-23.605-4.23-8.91-18.89-8.01-22.99 0.57z"/>
  <path id="path39" d="m794.76 164.72c8.88-9.77 22.47-13.44 35.23-14.34 12.89-0.79 26.4-0.16 38.27 5.4 7.84 3.69 14.42 10.36 17.23 18.65 2.27 6 2.35 12.515 2.32 18.855h-36.55c0-5.26 0.08-11.575-4.27-15.315-4.51-3.27-10.7-2.88-15.85-1.65-8.45 2.24-10.12 14.91-3.71 20.22 4.89 4.23 11.35 5.87 17.37 7.82 11.49 3.52 23.7 6.78 32.82 15.06 6.53 5.75 10.38 14.08 11.44 22.64 1.84 13.21-0.88 27.81-10.22 37.8-8.9 9.57-22.16 13.58-34.87 14.53-11.86 0.63-24.02 0.12-35.35-3.7-7.86-2.66-15.14-7.78-19.16-15.17-4.79-8.49-5.13-18.54-4.95-28.04h36.72c0.36 6.62 0.22 14.83 6.16 19.18 6.61 4.4 17.28 3.52 21.87-3.4 3.5-5.64 2.88-13.85-2.15-18.41-5.44-5.21-13.11-6.67-19.93-9.25-10.69-3.92-21.87-7.65-30.65-15.17-6.53-5.58-9.99-13.99-10.68-22.43-1.28-11.6 0.72-24.43 8.91-33.28z"/>
  <path id="path41" d="m724.57 153.64h41.195v137.36h-41.195z"/>
 </g>
</svg>
