<?xml version="1.0" encoding="UTF-8"?>
<!-- Generator: Adobe Illustrator 15.0.0, SVG Export Plug-In . SVG Version: 6.00 Build 0)  -->
<svg id="Layer_1" width="800" height="798.72" enable-background="new 0 0 69.333 68.667" version="1.1" viewBox="0 0 800 798.72" xml:space="preserve" xmlns="http://www.w3.org/2000/svg" xmlns:cc="http://creativecommons.org/ns#" xmlns:dc="http://purl.org/dc/elements/1.1/" xmlns:rdf="http://www.w3.org/1999/02/22-rdf-syntax-ns#"><metadata id="metadata45"><rdf:RDF><cc:Work rdf:about=""><dc:format>image/svg+xml</dc:format><dc:type rdf:resource="http://purl.org/dc/dcmitype/StillImage"/><dc:title/></cc:Work></rdf:RDF></metadata><defs id="defs43">
	<linearGradient id="SVGID_1_" x1="35.428" x2="65.914" y1="16.666" y2="16.666" gradientUnits="userSpaceOnUse">
		<stop id="stop2" stop-color="#26A9E0" offset="0"/>
		<stop id="stop4" stop-color="#0099D8" offset="1"/>
	</linearGradient>
	<linearGradient id="SVGID_2_" x1="8.1802" x2="62.463" y1="33.676" y2="33.676" gradientUnits="userSpaceOnUse">
		<stop id="stop11" stop-color="#26A9E0" offset="0"/>
		<stop id="stop13" stop-color="#0099D8" offset="1"/>
	</linearGradient>
</defs>
<g id="g889" transform="matrix(12.415 0 0 12.415 -18.325 -25.252)"><path id="polygon7" d="m35.428 4.066 27.233 27.232 3.253-29.264z" fill="url(#SVGID_1_)"/></g>
<g id="g938" transform="matrix(12.415 0 0 12.415 -18.325 -25.252)"><path id="path16" d="m33.57 4.189-18.599 1.24-6.791 47.544 50.939 10.19 3.344-30.08z" fill="url(#SVGID_2_)" opacity=".65"/><g id="g36" fill="#fff">
		<path id="path18" d="m33.397 41.331c-1.324 4.286-5.409 4.123-5.409 4.123-3.09 0-5.596-2.505-5.596-5.595 0-3.091 2.506-5.597 5.596-5.597 0 0 4.085-0.16 5.409 4.125l5.153-2.356c-3.049-7.659-10.562-7.366-10.562-7.366-6.181 0-11.192 5.013-11.192 11.195 0 6.18 5.012 11.191 11.192 11.191 0 0 7.514 0.296 10.562-7.363z"/>
		<path id="path20" d="m30.788 26.015v-12.668h-5.596v12.667c2.796-0.668 5.596 1e-3 5.596 1e-3z"/>
		<path id="path22" d="m25.192 53.702v12.667h5.596v-12.667c-2.8 0.669-5.596 0-5.596 0z"/>
		<path id="path24" d="m14.144 37.061h-12.668v5.596h12.668c-0.669-2.798 0-5.596 0-5.596z"/>
		<path id="path26" d="m41.833 37.061c0.67 2.799 0 5.596 0 5.596h12.67v-5.596z"/>
		<path id="path28" d="m39.757 32.049 8.957-8.958-3.957-3.958-8.957 8.956c2.45 1.508 3.957 3.96 3.957 3.96z"/>
		<path id="path30" d="m16.221 47.668-8.958 8.957 3.957 3.958 8.957-8.957c-2.45-1.507-3.956-3.958-3.956-3.958z"/>
		<path id="path32" d="m20.177 28.089-8.957-8.956-3.957 3.958 8.958 8.958c1.506-2.452 3.956-3.96 3.956-3.96z"/>
		<path id="path34" d="m35.8 51.626 8.957 8.957 3.957-3.958-8.957-8.957c-1.507 2.451-3.957 3.958-3.957 3.958z"/>
	</g></g><g id="g865" transform="matrix(.42837 0 0 .42837 396.64 -32.535)" fill="#fff"><path id="path11" d="m593.26 197.32h75.745l-2e-5 154.32 103.14-154.32h73.6l-78.92 117.46 98.71 211.24h-84.71l-65.7-142.8-46.12 67.27-2e-5 75.525h-75.745z"/><g id="#0fa0dbff-3" transform="translate(-292.17 -298.74)"><path id="path2-6" d="m707.19 490.87-119.47 180.22 77.782 77.788h52.784v52.789l23.111 23.112h53.773v-75.901h45.94v-57.665h-45.94v-200.34zm15.19 60.004v140.33h-89.72z" fill="#fff"/></g></g></svg>
