<?xml version="1.0" encoding="UTF-8"?>
<!-- Generator: Adobe Illustrator 22.0.1, SVG Export Plug-In . SVG Version: 6.00 Build 0)  -->
<svg id="Capa_1" width="800" height="798.53" version="1.1" viewBox="0 0 800 798.53" xml:space="preserve" xmlns="http://www.w3.org/2000/svg" xmlns:cc="http://creativecommons.org/ns#" xmlns:dc="http://purl.org/dc/elements/1.1/" xmlns:rdf="http://www.w3.org/1999/02/22-rdf-syntax-ns#"><metadata id="metadata47"><rdf:RDF><cc:Work rdf:about=""><dc:format>image/svg+xml</dc:format><dc:type rdf:resource="http://purl.org/dc/dcmitype/StillImage"/><dc:title/></cc:Work></rdf:RDF></metadata>
<g id="g40" transform="matrix(14.733 0 0 14.733 -45.672 -53.039)">
		<linearGradient id="SVGID_1_" x1="-235.3" x2="-189.55" y1="766.59" y2="766.59" gradientTransform="translate(244 -736.33)" gradientUnits="userSpaceOnUse">
		<stop id="stop4" stop-color="#80C461" offset="0"/>
		<stop id="stop6" stop-color="#4BB649" offset="1"/>
	</linearGradient>
	<path id="path9" class="st0" d="m30.1 5.4-15.7 1-5.7 40.1 42.9 8.6 2.8-25.3z" enable-background="new" fill="url(#SVGID_1_)" opacity=".65"/>
	<g id="g29">
		<path id="path11" class="st1" d="m30 36.7c-1.1 3.6-4.6 3.5-4.6 3.5-2.6 0-4.7-2.1-4.7-4.7s2.1-4.7 4.7-4.7c0 0 3.4-0.1 4.6 3.5l4.3-2c-2.6-6.5-8.9-6.2-8.9-6.2-5.2 0-9.4 4.2-9.4 9.4s4.2 9.4 9.4 9.4c0 0 6.3 0.3 8.9-6.2z"/>
		<path id="path13" class="st1" d="m27.8 23.8v-10.7h-4.8v10.7c2.4-0.6 4.8 0 4.8 0z"/>
		<path id="path15" class="st1" d="m23 47.1v10.7h4.7v-10.7c-2.3 0.6-4.7 0-4.7 0z"/>
		<path id="path17" class="st1" d="m13.7 33.1h-10.6v4.7h10.7c-0.6-2.3-0.1-4.7-0.1-4.7z"/>
		<path id="path19" class="st1" d="m37.1 33.1c0.6 2.4 0 4.7 0 4.7h10.7v-4.7z"/>
		<path id="path21" class="st1" d="m35.3 28.9 7.5-7.5-3.3-3.4-7.5 7.5c2 1.3 3.3 3.4 3.3 3.4z"/>
		<path id="path23" class="st1" d="m15.5 42-7.5 7.5 3.3 3.3 7.5-7.5c-2.1-1.2-3.3-3.3-3.3-3.3z"/>
		<path id="path25" class="st1" d="m18.8 25.5-7.5-7.5-3.3 3.3 7.5 7.5c1.2-2 3.3-3.3 3.3-3.3z"/>
		<path id="path27" class="st1" d="m32 45.4 7.5 7.5 3.3-3.3-7.5-7.6c-1.3 2.1-3.3 3.4-3.3 3.4z"/>
	</g>
		<linearGradient id="SVGID_2_" x1="-212.34" x2="-186.65" y1="752.26" y2="752.26" gradientTransform="translate(244 -736.33)" gradientUnits="userSpaceOnUse">
		<stop id="stop31" stop-color="#80C461" offset="0"/>
		<stop id="stop33" stop-color="#4BB649" offset="1"/>
	</linearGradient>
	<path id="polygon36" d="m31.7 5.3 22.9 23 2.8-24.7z" fill="url(#SVGID_2_)"/>
	<path id="polygon38" d="m48.2 17.5h-2.1v2.1l0.7 0.6h6.7v-2.7h-2.1v-11.5h-1.9l-4.2 2.7 0.3 2.6 2.6-1.5z" fill="#fff"/>
</g>
</svg>
