<?xml version="1.0" encoding="UTF-8"?>
<svg id="svg13" width="627.31pt" height="569.78pt" version="1.1" viewBox="0 0 627.31 569.78" xmlns="http://www.w3.org/2000/svg" xmlns:cc="http://creativecommons.org/ns#" xmlns:dc="http://purl.org/dc/elements/1.1/" xmlns:rdf="http://www.w3.org/1999/02/22-rdf-syntax-ns#">
 <metadata id="metadata19">
  <rdf:RDF>
   <cc:Work rdf:about="">
    <dc:format>image/svg+xml</dc:format>
    <dc:type rdf:resource="http://purl.org/dc/dcmitype/StillImage"/>
    <dc:title/>
   </cc:Work>
  </rdf:RDF>
 </metadata>
 <g id="#000000ff" transform="translate(-136.29 -105.18)">
  <path id="path3" d="m136.29 105.18h627.31v56.57h-627.31z"/>
  <path id="path5" d="m610.38 219.47c30.72-3.62 63.97 3.68 87.33 24.81 14.92 13.11 25.19 30.9 31.04 49.75 4.44 13.88 5.84 28.48 6.53 42.97v84c-0.22 10.37 0.55 20.8-0.63 31.13-1.19 24.33-8.52 48.75-23.04 68.51-9.17 12.55-21.47 22.77-35.44 29.59-22.19 10.79-47.83 13.21-72.01 9.45-21.2-3.16-41.54-12.88-56.64-28.2-14.47-14.62-23.87-33.69-28.66-53.57-3.07-13.39-4.38-27.18-4.13-40.91v-86c-0.23-13.61 0.03-27.27 2.48-40.69 3.69-21.02 12.4-41.43 26.52-57.59 16.72-19.28 41.37-30.93 66.65-33.25m2.08 58.46c-9.4 2.32-18.05 7.96-23.42 16.08-8.79 12.79-10.905 28.79-10.755 43.97v105.05c-0.1 9.22 0.725 18.51 3.235 27.41 3.23 11.47 10.14 22.47 20.89 28.2 9.88 5.48 21.64 5.96 32.59 4.4 12.48-2.16 23.57-10.49 29.11-21.88 8.23-15.7 7.595-33.94 7.505-51.16v-92c0.1-8.74-0.645-17.51-2.785-26-2.84-11.08-8.76-21.94-18.48-28.38-11.03-7.3-25.21-8.79-37.89-5.69z"/>
  <path id="path7" d="m136.29 618.29h627.31v56.665h-627.31z"/>
 </g>
 <g id="#52b5eeff" transform="translate(-136.29 -105.18)" fill="#5fbaef">
  <path id="path10" d="m270.82 221.87c6.76-3.1 14.76-4.29 21.83-1.47 11.34 3.87 19.58 15.52 18.63 27.61-1.43 16.62-4.8 33.005-7.02 49.525h65.41c2.76-16.09 4.97-32.265 7.51-48.395 0.78-4.89 1.16-10 3.48-14.47 4.06-8.36 12.44-14.44 21.7-15.52 15.76-2.59 31.74 10.84 32.01 26.8-0.16 10.11-2.69 20-3.9 30.01-0.84 7.23-2.54 14.315-3.21 21.575h22.984c2.1926 0 4.381 0.2368 6.5662 0.43505 13.57 1.42 24.81 14.38 23.99 28.04 0.46 11.32-7.21 22.01-17.49 26.31-6.45 2.59-13.53 2-20.31 2.05h-24.4l-10.52 71.795h29.82c8.49 1.27 16.24 7.165 20.04 14.895 3.5 5.94 2.98 13.11 2.53 19.72-2.05 12.08-13.21 22-25.42 22.61h-35.94c-3.03 17.78-5.53 35.66-8.38 53.47-0.78 5.53-3.16 10.8-6.9 14.95-6.74 7.79-18.08 11.31-28.02 8.52-9.5-2.02-17.32-9.73-20.17-18.92-2.97-9.34 0.29-19.02 1.37-28.4 1.25-9.9 3.43-19.66 4.14-29.62h-64.79c-2.89 17.58-5.52 35.25-8.04 52.89-0.84 6.77-3.81 13.4-9 17.94-7.14 6.05-17.28 8.58-26.36 6.05-12.94-2.94-22.3-16.09-21.08-29.26 1.92-15.91 4.99-31.71 6.84-47.62h-22.804c-2.7093 0-5.4072-0.44911-8.0956-0.87-8.99-1.28-16.66-7.83-20.41-15.94-2.77-5.42-2.21-11.72-1.93-17.58 1.74-12.6 13.7-23.155 26.48-22.835h35.66l10.55-71.795h-27.22c-9.19-0.31-17.78-5.99-22.43-13.82-6.75-11.27-4.67-27.02 5.07-35.91 5.07-4.33 11.7-6.895 18.36-7.105h35.34c2.84-17.94 5.33-36.035 8.16-53.975 1.24-9.18 7.01-17.61 15.37-21.69m25.26 132.5-10.92 71.795h64.74l10.87-71.795z" fill="#5fbaef"/>
 </g>
 <g id="#52b5eeff-3" transform="translate(-136.29 -105.18)" fill="#27a3e9">
  <path id="path10-5" d="m285.16 426.16-8.7998 57.225h-57.64l8.9-57.225z" fill="#27a3e9"/>
 </g>
 <g id="#52b5eeff-9" transform="translate(-136.29 -105.18)" fill="#27a3e9">
  <path id="path10-0" d="m349.9 426.16h58.18l-8.97 57.225h-57.96" fill="#27a3e9"/>
 </g>
 <g id="#52b5eeff-6" transform="translate(-136.29 -105.18)" fill="#27a3e9">
  <path id="path10-8" d="m304.26 297.53-8.1802 56.835-57.91 2.2e-4 9.12-56.835" fill="#27a3e9"/>
 </g>
 <g id="#52b5eeff-0" transform="translate(-136.29 -105.18)" fill="#27a3e9">
  <path id="path10-04" d="m369.67 297.53h57.59l-8.66 56.835-57.83-2.2e-4" fill="#27a3e9"/>
 </g>
</svg>
