<svg id="a" version="1.1" viewBox="0 0 800 404.57" xmlns="http://www.w3.org/2000/svg">
 <g id="b" transform="matrix(20.02 0 0 20.02 -20.021 -122.15)" fill="#bead61" fill-rule="evenodd">
  <g id="c" fill="#bead61">
   <g id="d" transform="translate(1,6)" fill="#bead61">
    <path id="e" d="m1.08 13.455h4.2959v0.7904h-3.4364v2.1969h2.9288v0.75182h-2.9288v2.2656h3.4364v0.7903h-4.2959zm7.716 6.8538c-0.85889 0-1.9035-0.31273-2.6066-0.92748l0.54667-0.69333c0.53707 0.51778 1.2888 0.8005 2.099 0.8005 0.85939 0 1.5136-0.34172 1.5136-1.1813 0-0.77101-0.72283-0.95677-1.572-1.1228-1.0645-0.20505-2.197-0.4-2.197-1.8842 0-1.2497 1.0446-1.9136 2.2554-1.9136 0.91778 0 1.6111 0.20454 2.1777 0.65424l-0.47879 0.73202c-0.49788-0.33202-1.0644-0.54677-1.6989-0.54677-0.90818 0-1.4062 0.40061-1.4062 1.0741 0 0.71273 0.67424 0.90818 1.9041 1.1523 0.86899 0.17566 1.8943 0.43909 1.904 1.8644 0 1.2401-0.99596 1.9919-2.4411 1.9919zm6.1067-2.7924h-1.767v2.7334h-0.85939v-6.7948h2.4898c1.1228 0 2.2457 0.59535 2.2457 2.0598 0 0.94727-0.77152 2.0016-2.1091 2.0016zm-0.11727-3.2711h-1.6497v2.4802h1.6888c0.86899 0 1.2888-0.64465 1.2888-1.2402 0-0.8298-0.56596-1.24-1.3279-1.24zm6.6302 6.0093-0.54667-1.5619h-2.8218l-0.54677 1.5619h-0.89848l2.4899-6.7947h0.74212l2.4898 6.7947zm-1.4452-4.2075-0.49798-1.4453h-0.0295l-0.47818 1.4056-0.67354 1.9432h2.3335zm6.3363-3.5695c0.17283 0 0.34566-0.11222 0.52697-0.38828l0.44879 0.25c-0.2504 0.52656-0.56101 0.76838-0.92364 0.76838-0.41424 0-0.81152-0.36263-1.1482-0.36263-0.19879 0-0.32808 0.08667-0.54394 0.34515l-0.44889-0.2499c0.23303-0.48394 0.58717-0.76848 0.93232-0.76848 0.41414 0 0.85454 0.40576 1.1566 0.40576zm1.1374 7.7722-2.4802-3.8274-0.89798-1.4838-0.0295 0.0097v5.3015h-0.85879v-6.7948h0.84929l2.3917 3.7 0.98636 1.6309 0.0295-0.0198v-5.3111h0.84919v6.7948zm6.9362-4.335v1.875c0 1.5422-0.94737 2.5189-2.4214 2.5189-1.6208 0-2.4116-1.162-2.4116-2.5189v-1.875c0-1.328 0.79081-2.5092 2.4116-2.5092 1.4939 0 2.4214 1.0645 2.4214 2.5092zm-3.9838 0.0198v1.8061c0 0.89848 0.51778 1.767 1.5721 1.767 0.95677 0 1.5522-0.76141 1.5522-1.767v-1.8061c0-0.94727-0.58576-1.7183-1.5522-1.7183-1.0543 0-1.5721 0.84919-1.5721 1.7183zm5.5054 4.3152v-6.795h0.8595v6.0046h3.1981v0.7903zm1.6985-20.022h2.359v10.401h-1.8348c-0.1004 0-0.19556-0.04434-0.2601-0.12101l-5.4201-6.4325v6.5535h-2.353v-10.401h1.862c0.10141 0 0.19768 0.044444 0.26333 0.12172l5.3837 6.3243zm-30.323 8.1372c0.38455-0.12343 0.86525-0.33788 1.4233-0.62929l0.72081 2.003-0.11495 0.061212c-0.64505 0.34242-1.2483 0.5897-1.7925 0.73505-0.54707 0.14667-1.1916 0.22091-1.9156 0.22091-1.0608 0-2.0241-0.21889-2.8633-0.6503-0.84717-0.43576-1.5223-1.072-2.0066-1.8913-0.48374-0.81727-0.72889-1.7251-0.72889-2.6976 0-1.0386 0.25253-1.9862 0.75061-2.816 0.49818-0.8305 1.1929-1.4793 2.0645-1.9284 0.86505-0.44596 1.8508-0.67182 2.9297-0.67182 0.56889 0 1.134 0.066465 1.6799 0.19808 0.54414 0.13081 1.1381 0.35646 1.7653 0.6701l0.14343 0.071919-0.96404 1.8735c-0.022929-0.011616-0.016364-0.0079798-0.039091-0.019293-0.35343-0.17515-0.67364-0.30626-0.98667-0.40222-0.48121-0.14768-0.99091-0.22232-1.5153-0.22232-0.64657 0-1.2366 0.13667-1.7539 0.40616-0.51 0.26596-0.91162 0.64535-1.1935 1.1279-0.28313 0.48444-0.42657 1.0322-0.42657 1.6274 0 0.60919 0.14232 1.1615 0.42293 1.6414 0.2796 0.47758 0.67939 0.85192 1.1887 1.113 0.51758 0.26525 1.1105 0.3999 1.7624 0.3999 0.50444 0 0.99202-0.074445 1.4493-0.22111zm12.018-3.0178c0.05697 2.02e-4 0.10303 0.046364 0.10303 0.10333v4.0984l-0.1099 0.077778c-0.49939 0.35495-1.1048 0.63525-1.7994 0.83313-0.68909 0.19636-1.4155 0.29606-2.1594 0.29606-1.0608 0-2.0373-0.22596-2.9019-0.67172-0.87192-0.44929-1.5616-1.0883-2.0503-1.8998-0.48909-0.81081-0.73687-1.7276-0.73687-2.7243 0-1.0105 0.2501-1.939 0.74343-2.7596 0.49364-0.82061 1.1905-1.467 2.0716-1.9211 0.87434-0.45061 1.8599-0.67879 2.9297-0.67879 1.2276 0 2.4614 0.28152 3.6672 0.83636l0.13657 0.062929-0.9595 1.8743c-0.93323-0.39899-1.8595-0.60394-2.7607-0.60394-0.66475 0-1.2617 0.13545-1.775 0.40263-0.50434 0.26293-0.9004 0.64596-1.1773 1.1384-0.28 0.49747-0.42202 1.0618-0.42202 1.6771 0 0.94101 0.29697 1.6746 0.90808 2.2435 0.60848 0.56687 1.429 0.85424 2.4383 0.85424 0.2802 0 0.55081-0.024748 0.80444-0.073232 0.21475-0.04101 0.55222-0.13475 0.91596-0.31141v-2.4706h-2.02e-4v-0.38414h0.55556v0.00182zm9.6668-5.1195h0.10404v2.0142h-3.3156v8.3867h-2.4314v-8.3867h-3.3853v-2.0142h8.3859z" fill="#bead61"/>
   </g>
  </g>
 </g>
</svg>
