<?xml version="1.0" encoding="UTF-8"?>
<!-- Created with Inkscape (http://www.inkscape.org/) -->
<svg id="svg3087" width="800" height="774.1" version="1.1" xmlns="http://www.w3.org/2000/svg" xmlns:cc="http://creativecommons.org/ns#" xmlns:dc="http://purl.org/dc/elements/1.1/" xmlns:rdf="http://www.w3.org/1999/02/22-rdf-syntax-ns#">
 <metadata id="metadata3093">
  <rdf:RDF>
   <cc:Work rdf:about="">
    <dc:format>image/svg+xml</dc:format>
    <dc:type rdf:resource="http://purl.org/dc/dcmitype/StillImage"/>
    <dc:title/>
   </cc:Work>
  </rdf:RDF>
 </metadata>
 <path id="path3120" d="m391.73 0c-125.99 0-235.67 69.881-292.39 172.99l63.42 33.993c44.677-79.903 130.12-133.94 228.17-133.94 144.27 0 261.22 116.95 261.22 261.22s-116.95 261.22-261.22 261.22c-99.304 0-185.67-55.424-229.86-137.01l-62.726 33.646c56.423 104.11 166.64 174.83 293.38 174.83 184.17 0 333.48-149.3 333.48-333.48 0-184.17-149.3-333.48-333.48-333.48zm-0.7934 173.09c-89.018 0-161.18 72.163-161.18 161.18 0 89.018 72.163 161.18 161.18 161.18 61.566 0 115.08-34.517 142.22-85.255l-65.653-35.184c-14.71 28.166-44.183 47.391-78.159 47.391-48.675 0-88.133-39.459-88.133-88.133s39.459-88.133 88.133-88.133c32.738 0 61.274 17.865 76.471 44.364l65.653-35.233c-27.635-49.054-80.222-82.178-140.54-82.178z" fill="#dfe300"/>
 <path id="path3062" d="m142.9 718.61c-0.85958 0.04-1.7693 0.54092-1.9662 1.6988l-8.5568 50.333c-0.23288 1.3721 0.48418 2.5167 1.5101 2.5167h8.6825c1.027 0 1.707-1.1446 1.8875-2.5167l3.0199-22.965 13.087 24.978c0.67091 1.2799 3.3363 1.2799 4.0268 0l13.244-24.538 3.0514 22.524c0.186 1.3721 0.28668 2.5167 1.7302 2.5167h9.3117c0.78595 0 1.2281-1.1448 0.99099-2.5167l-8.6982-50.333c-0.35508-2.0547-2.9509-2.0564-3.5234-1.0068l-18.12 33.22-18.12-33.22c-0.25056-0.45952-0.88863-0.71856-1.5572-0.69164zm-115.47 0.1884c-15.05-0.0692-27.273 12.12-27.432 27.133v0.59792c0.15832 15.013 12.382 27.198 27.432 27.133 6.2873-0.024 13.435-2.1652 18.906-7.55 0.50646-0.49792 0.49953-0.9794-0.0308-1.51l-7.0467-7.0467c-0.46263-0.4624-0.95587-0.4498-1.4628 0-2.5183 2.2325-6.3661 3.8996-10.366 4.0266-8.3736 0.266-15.194-6.7071-15.352-15.053v-0.59792c0.15677-8.3458 6.9781-15.319 15.352-15.053 3.9995 0.1268 7.8473 1.7942 10.366 4.0266 0.50721 0.4498 1.0001 0.4624 1.4628 0l7.0467-7.0467c0.53104-0.53116 0.53798-1.0119 0.0308-1.5099-5.4711-5.385-12.619-7.5228-18.906-7.5502zm61.407 0c-15.15 0-27.432 12.282-27.432 27.432s12.282 27.432 27.432 27.432 27.432-12.282 27.432-27.432-12.282-27.432-27.432-27.432zm125.77 0.50364c-0.94112 0-1.6988 0.7578-1.6988 1.6988v50.459c0 0.94128 0.75775 1.6988 1.6988 1.6988h31.333c0.94119 0 1.6988-0.75772 1.6988-1.6988v-8.1792c0-0.94104-0.75775-1.6987-1.6988-1.6987h-20.951v-10.067h17.428c0.94103 0 1.6986-0.75772 1.6986-1.6986v-8.1793c0-0.94096-0.75775-1.6988-1.6986-1.6988h-17.428v-9.0599h20.951c0.94119 0 1.6988-0.7578 1.6988-1.6988v-8.1792c0-0.9412-0.75775-1.6988-1.6988-1.6988zm55.304 0c-1.1462 0-2.0763 0.93012-2.0763 2.0763v49.704c0 1.1463 0.93005 2.0763 2.0763 2.0763h19.441c0.22364 0 0.42808-0.046 0.62941-0.1104 13.781-1.1817 24.601-12.731 24.601-26.818s-10.82-25.637-24.601-26.818c-0.20136-0.0692-0.40579-0.11-0.62941-0.11h-19.441zm56.94 0c-1.3761 0-1.8624 0.93012-1.101 2.0763l13.637 20.542 2.847 4.2784 0.53488 0.80212v23.672c0 1.3762 1.1091 2.4853 2.4853 2.4853h7.6129c1.3761 0 2.4852-1.1091 2.4852-2.4853v-23.578l0.5979-0.89656 2.7684-4.184 0.0784-0.0944 13.637-20.542c0.7616-1.1462 0.25972-2.0762-1.1168-2.0762h-8.7454c-1.376 0-3.0923 0.92996-3.8537 2.0762l-9.6262 14.487-9.6263-14.487c-0.7616-1.1462-2.4934-2.0762-3.8694-2.0762h-8.7454zm-238.01 11.577c8.4786 0 15.352 6.8731 15.352 15.352 0 8.4785-6.8732 15.352-15.352 15.352-8.4784 0-15.352-6.8732-15.352-15.352 0-8.4785 6.8732-15.352 15.352-15.352zm191.02 0h6.7951c8.4785 0 15.352 6.8731 15.352 15.352 0 8.4785-6.8731 15.352-15.352 15.352h-6.7951z" fill="#fff"/>
 <path id="rect3041" d="m636.46 718.58c-1.4008-0.046-3.3819 0.82408-3.3819 1.8561v50.239c0 1.3762 1.1092 2.4853 2.4853 2.4853h7.613c1.376 0 2.4851-1.1091 2.4851-2.4853v-26.362l29.728 29.193c0.9818 0.96412 4.4986-0.102 4.4986-1.4786v-50.239c0-1.376-1.1092-2.4852-2.4853-2.4852h-7.6128c-1.3761 0-2.4852 1.1092-2.4852 2.4852v27.306l-29.728-30.137c-0.2412-0.2452-0.65008-0.362-1.1166-0.378zm135.7 0.2204c-6.2874 0.024-13.435 2.165-18.906 7.55-0.50652 0.49792-0.49964 0.97924 0.028 1.51l7.0466 7.0467c0.4624 0.4624 0.95584 0.44976 1.4628 0 2.5182-2.2326 6.3662-3.8998 10.366-4.0268 8.3736-0.266 15.195 6.7071 15.352 15.053 4e-3 0.1908 4e-3 0.392 0 0.59792-0.1576 8.3456-6.978 15.319-15.352 15.053-3.9994-0.1264-7.8474-1.7943-10.366-4.0267-0.50712-0.44976-1.0003-0.4624-1.4628 0l-7.0466 7.0468c-0.53 0.53-0.53804 1.0118-0.028 1.5099 5.4711 5.3849 12.619 7.5226 18.906 7.55 15.05 0.0692 27.273-12.12 27.432-27.133v-0.59792c-0.1592-15.013-12.382-27.198-27.432-27.133zm-363.42 0.50364c-0.91496 0-1.6516 0.73624-1.6516 1.6515v8.2736c0 0.915 0.73704 1.6515 1.6516 1.6515h17.979v40.629c0 0.91488 0.73704 1.6515 1.6514 1.6515h9.2804c0.915 0 1.6514-0.73628 1.6514-1.6515 0-12.184 2.4e-4 -34.192 0-50.554 0.0612-0.91284-0.73624-1.6515-1.6514-1.6515zm47.376 0c-1.009 0-1.4794 0.73624-1.0538 1.6515l24.254 52.205c0.58256 1.2534 2.736 1.2534 3.3189 0l24.27-52.205c0.42572-0.91488-0.046-1.6515-1.0537-1.6515h-8.6354c-1.0091 0-2.1698 0.73624-2.5954 1.6515l-2.9728 6.4017h-21.266l-2.9728-6.4017c-0.42576-0.91488-1.5706-1.6515-2.5796-1.6515zm65.355 0c-1.1461 0-1.6292 0.81552-1.0854 1.8246l10.822 20.086c-6.5959 2.1088-11.372 8.2922-11.372 15.588 0 9.0344 7.324 16.358 16.358 16.358h22.839c1.1463 0 2.0763-0.93004 2.0763-2.0762v-49.704c0-1.1461-0.93-2.0762-2.0763-2.0762h-7.9275c-1.146 0-2.0762 0.93004-2.0762 2.0762v19.064h-4.6872l-10.413-19.315c-0.54436-1.009-1.9053-1.8246-3.0515-1.8246zm71.489 0c-0.9148 0-1.6514 0.73624-1.6514 1.6515v40.629h-10.932c-0.915 0-1.6515 0.73624-1.6515 1.6515v8.2736c0 0.91488 0.73624 1.6515 1.6515 1.6515h33.944c0.915 0 1.6515-0.73628 1.6515-1.6515v-8.2736c0-0.915-0.73624-1.6515-1.6515-1.6515h-10.932v-40.629c0-0.91488-0.73624-1.6515-1.6515-1.6515zm108.77 0c-0.941 0-1.6988 0.7578-1.6988 1.6986v8.1793c0 0.94112 0.75776 1.6987 1.6988 1.6987h20.951v10.067h-17.428c-0.9412 0-1.6988 0.75776-1.6988 1.6989v8.1791c0 0.94124 0.75772 1.6988 1.6988 1.6988h17.428v9.0601h-20.951c-0.941 0-1.6988 0.75776-1.6988 1.6987v8.1792c0 0.94112 0.75776 1.6987 1.6988 1.6987h31.333c0.94116 0 1.6988-0.7578 1.6988-1.6987v-50.459c0-0.941-0.75776-1.6986-1.6988-1.6986zm-226.42 18.623h11.42l-5.7098 12.285zm62.65 12.08h11.073v12.08h-11.073c-3.3358 0-6.0401-2.7042-6.0401-6.0399s2.7043-6.04 6.0401-6.04z" fill="#fff"/>
 <rect id="rect3043" x="177.69" y="623.58" width="0" height=".87504" ry=".012868"/>
 <path id="path3175" d="m695.07 6.6462c-1.2976 0-2.3278 1.0301-2.3278 2.3278v52.464c0 1.2977 1.0301 2.5068 2.3278 2.5068h9.6692c1.2976 0 2.3277-1.2091 2.3277-2.5068v-19.338h21.129v19.338c0 1.2977 1.0301 2.5068 2.3278 2.5068h9.6691c1.2976 0 2.3278-1.2091 2.3278-2.5068v-52.464c0-1.2977-1.0301-2.3278-2.3278-2.3278h-9.6691c-1.2976 0-2.3278 1.0301-2.3278 2.3278v20.234h-21.129v-20.234c0-1.2977-1.0301-2.3278-2.3277-2.3278zm56.582 0c-0.79272 0.33547-1.4324 1.2342-1.4324 2.1487v52.822c0 1.2196 1.1082 2.3278 2.3277 2.3278h20.592c0.2376 0 0.50196-0.11012 0.71624-0.17904 14.661-1.2572 26.142-13.483 26.142-28.47s-11.481-27.392-26.142-28.649c-0.2136-0.0738-0.47784 0-0.71624 0h-20.592c-0.3048 0-0.631-0.11183-0.89528 0zm11.46 12.176h7.1623c9.0203 0 16.294 7.4531 16.294 16.473 0 9.0202-7.274 16.294-16.294 16.294h-7.1623z" fill="#dfe300"/>
</svg>
