<?xml version="1.0" encoding="UTF-8"?>
<!-- Created with Inkscape (http://www.inkscape.org/) -->
<svg id="svg2" width="621" height="296" version="1.1" xmlns="http://www.w3.org/2000/svg" xmlns:cc="http://creativecommons.org/ns#" xmlns:dc="http://purl.org/dc/elements/1.1/" xmlns:rdf="http://www.w3.org/1999/02/22-rdf-syntax-ns#">
 <metadata id="metadata19">
  <rdf:RDF>
   <cc:Work rdf:about="">
    <dc:format>image/svg+xml</dc:format>
    <dc:type rdf:resource="http://purl.org/dc/dcmitype/StillImage"/>
   </cc:Work>
  </rdf:RDF>
 </metadata>
 <g id="layer1" transform="translate(-230.92 -402.02)">
  <path id="path1475" transform="matrix(19.712 0 0 19.712 -3814.6 -1673.9)" d="m229.93 105.31h-22.799c-1.706 0-1.894 1.38-1.894 2.124v6.375s-0.424 6.518 6.801 6.518h13.458v-1e-3h9.343c1.705 0 1.892-1.38 1.892-2.125v-6.374s0.424-6.517-6.801-6.517" fill="#c60753"/>
  <path id="path1485" transform="matrix(19.712 0 0 19.712 -3814.6 -1673.9)" d="m210.53 108.2c-1.753 1e-3 -2.61 1.805-2.607 5.395 3e-3 3.336 0.738 4.926 2.492 4.926h2e-3c1.527 0 2.316-1.239 2.402-3.74-6e-3 -0.085-0.012-0.171-0.017-0.26l-1.597 2e-3v0.141c1e-3 1.449-0.2 2.154-0.682 2.154-0.629 0-0.725-0.984-0.725-3.097-2e-3 -2.759 0.078-4.028 0.706-4.028h2e-3c0.441 0 0.548 0.579 0.548 1.759 1e-3 0.156 1e-3 0.296 1e-3 0.466l1.763-1e-3c9e-3 -0.116 0.019-0.23 0.031-0.341-0.029-2.22-0.843-3.376-2.319-3.376" fill="#7d1324"/>
  <path id="path1495" transform="matrix(19.712 0 0 19.712 -3814.6 -1673.9)" d="m215.41 108.21c-1.565 1e-3 -2.327 1.085-2.557 3.365-0.012 0.111-0.021 0.224-0.03 0.341-0.033 0.442-0.049 0.925-0.048 1.45 0 0.41 0.01 0.795 0.031 1.154 5e-3 0.088 0.011 0.174 0.017 0.259 0.19 2.536 0.958 3.738 2.604 3.738h2e-3c1.421-1e-3 2.17-0.978 2.445-2.988-1e-3 -0.06-2e-3 -0.12-2e-3 -0.181h0.025c0.069-0.58 0.101-1.242 0.101-1.985-2e-3 -3.479-0.727-5.153-2.588-5.153m5e-3 8.646c-0.656 0-0.724-1.056-0.726-3.421-1e-3 -2.478 0.039-3.618 0.708-3.62 0.629 0 0.684 1.226 0.686 3.901 0 2.111-0.12 3.139-0.668 3.14" fill="#7d1324"/>
  <path id="path1497" transform="matrix(19.712 0 0 19.712 -3814.6 -1673.9)" d="m220.35 108.21h-3e-3c-1.352 0-2.368 1.114-2.367 2.746 0 0.718 0.214 1.395 0.603 1.971 0.456 0.662 1.018 1.112 1.488 1.578 0.562 0.548 0.898 0.928 0.898 1.533 1e-3 0.578-0.294 0.916-0.71 0.916-0.495 0-0.736-0.408-0.736-1.21 0-0.127 0-0.254 0.012-0.395l-1.635 1e-3h-0.025c0 0.061 1e-3 0.122 2e-3 0.181 0.045 1.99 0.807 2.986 2.301 2.986h2e-3c1.442-1e-3 2.39-0.964 2.504-2.473v-0.611c-0.061-0.729-0.349-1.354-0.846-2.001-0.308-0.408-0.858-0.858-1.501-1.477-0.483-0.464-0.737-0.858-0.737-1.336-1e-3 -0.48 0.307-0.846 0.668-0.846h3e-3c0.441 0 0.695 0.367 0.695 1.056-1e-3 0.14-0.014 0.294-0.028 0.449h1.608c0-0.114 0.014-0.212 0.014-0.309-2e-3 -1.761-0.873-2.759-2.21-2.759" fill="#7d1324"/>
  <polygon id="polygon1499" transform="matrix(19.712 0 0 19.712 -3814.6 -1673.9)" points="222.68 108.39 222.68 115.43 222.68 116.04 222.68 118.33 224.05 118.33 224.04 111.26 225.19 118.33 226.2 118.33 227.39 111.26 227.4 118.32 229.04 118.32 229.04 108.38 226.64 108.38 225.84 113.22 225.04 108.39" fill="#7d1324"/>
  <path id="path1509" transform="matrix(19.712 0 0 19.712 -3814.6 -1673.9)" d="m231.68 108.2c-1.928 1e-3 -2.637 1.65-2.636 5.156 3e-3 3.504 0.726 5.151 2.654 5.151h2e-3c1.86-1e-3 2.57-1.676 2.567-5.153-2e-3 -3.479-0.725-5.154-2.587-5.154m7e-3 8.646c-0.656 0-0.724-1.056-0.726-3.421-1e-3 -2.479 0.037-3.62 0.708-3.62 0.629 0 0.684 1.226 0.685 3.901 1e-3 2.111-0.12 3.139-0.667 3.14" fill="#7d1324"/>
  <path id="path1519" transform="matrix(19.712 0 0 19.712 -3814.6 -1673.9)" d="m210.42 118.02c-1.756 1e-3 -2.492-1.589-2.494-4.927-3e-3 -3.59 0.853-5.393 2.607-5.394 1.5 0 2.318 1.195 2.319 3.49 0 0.072 0 0.155 1e-3 0.226l-1.795 1e-3v-0.465c-1e-3 -1.183-0.109-1.761-0.55-1.76-0.629 1e-3 -0.709 1.268-0.708 4.028 1e-3 2.112 0.096 3.097 0.726 3.097 0.481 0 0.682-0.705 0.681-2.154v-0.141l1.621-1e-3c-0.04 2.675-0.829 3.999-2.408 4" fill="#fff"/>
  <path id="path1521" transform="matrix(19.712 0 0 19.712 -3814.6 -1673.9)" d="m216.08 113.22c-2e-3 -2.675-0.057-3.9-0.686-3.899-0.669 0-0.709 1.14-0.707 3.619 1e-3 2.365 0.068 3.421 0.725 3.42 0.548-1e-3 0.668-1.028 0.668-3.14m-0.673-5.505c1.861-1e-3 2.585 1.674 2.588 5.152 1e-3 3.477-0.708 5.153-2.569 5.155-1.928 1e-3 -2.652-1.646-2.654-5.151-4e-3 -3.507 0.705-5.155 2.635-5.156" fill="#fff"/>
  <path id="path1523" transform="matrix(19.712 0 0 19.712 -3814.6 -1673.9)" d="m219.53 114.85c-0.013 0.141-0.013 0.267-0.013 0.395 1e-3 0.802 0.242 1.21 0.737 1.21 0.415 0 0.71-0.338 0.71-0.916-1e-3 -0.605-0.336-0.985-0.899-1.534-0.469-0.465-1.032-0.915-1.488-1.576-0.388-0.577-0.602-1.253-0.602-1.971-1e-3 -1.633 1.015-2.747 2.368-2.747 1.338-1e-3 2.21 0.998 2.211 2.758 0 0.098-0.014 0.196-0.014 0.309l-1.607 1e-3c0.013-0.155 0.027-0.309 0.028-0.449-1e-3 -0.69-0.256-1.057-0.698-1.056-0.361 0-0.669 0.366-0.668 0.845 0 0.479 0.254 0.873 0.737 1.337 0.643 0.619 1.192 1.07 1.5 1.478 0.563 0.732 0.858 1.435 0.858 2.295 2e-3 1.688-0.975 2.788-2.516 2.789-1.539 1e-3 -2.303-1.055-2.304-3.167l1.66-1e-3z" fill="#fff"/>
  <polygon id="polygon1525" transform="matrix(19.712 0 0 19.712 -3814.6 -1673.9)" points="227.39 110.76 226.2 117.83 225.19 117.83 224.04 110.76 224.05 117.83 222.68 117.83 222.68 107.89 225.05 107.89 225.84 112.72 226.64 107.89 229.04 107.89 229.04 117.83 227.4 117.83" fill="#fff"/>
  <path id="path1535" transform="matrix(19.712 0 0 19.712 -3814.6 -1673.9)" d="m232.35 113.21c-1e-3 -2.675-0.056-3.9-0.685-3.9-0.67 0-0.709 1.141-0.708 3.619 2e-3 2.366 0.07 3.422 0.726 3.421 0.549-1e-3 0.668-1.028 0.667-3.14m-0.673-5.505c1.861-1e-3 2.585 1.674 2.588 5.153 2e-3 3.477-0.707 5.153-2.568 5.154-1.929 1e-3 -2.652-1.646-2.655-5.151-2e-3 -3.507 0.707-5.155 2.635-5.156" fill="#fff"/>
 </g>
</svg>
