<svg width="263.37mm" height="79.375mm" version="1.1" viewBox="0 0 263.37 79.375" xmlns="http://www.w3.org/2000/svg">
 <path class="logo-icon-bg" d="m79.375 79.375h184v-79.375h-184z" fill="#fff" stroke-width="1.8865"/>
 <path class="logo-icon-bg" d="m0 79.375h79.375v-79.375h-79.375z" fill="#56c0b4" stroke-width="1.3431"/>
 <g transform="matrix(1.3431 0 0 1.3431 0 .00028)" fill="#56c0b4">
  <path class="logo-icon-letters" d="m141.1 23.7c-1.1 0.8-1.8 1.9-2 3.2-0.3 1.8 0 3.1 0.9 4 0.4 0.4 0.8 0.7 1.2 1s0.8 0.6 1.3 0.8c0.4 0.2 0.8 0.4 1.2 0.7 0.4 0.2 0.7 0.4 1 0.7 0.2 0.1 0.7 0.5 0.4 1.9-0.1 0.6-0.4 1.1-0.9 1.4-0.5 0.4-1.1 0.5-1.7 0.4s-1-0.4-1.4-0.8l-0.6-0.8-2.9 2.1 0.6 0.8c1 1.3 2.2 2 3.8 2.2h0.1c1.5 0.1 2.9-0.2 4.1-0.8l0.1-0.1c1.4-0.9 2.1-2.2 2.4-3.8 0.3-1.9 0-3.3-0.8-4.3-0.7-0.8-1.5-1.4-2.5-2.1-0.8-0.5-1.6-0.9-2.3-1.4-0.2-0.2-0.5-0.5-0.4-1.4 0.1-0.4 0.2-0.6 0.6-0.9 0.3-0.2 0.7-0.3 1.1-0.2s0.7 0.3 1 0.6l0.5 0.7 2.9-2.1-0.5-0.8c-0.8-1.1-1.9-1.8-3.3-2.1-1.5 0-2.8 0.3-3.9 1.1"/>
  <path class="logo-icon-letters" d="m79.1 17.6h3.6v15.8c0 2.3-0.8 4.2-2.4 5.8-1.6 1.4-3.6 2.2-5.8 2.2s-4.2-0.7-5.8-2.2c-1.6-1.6-2.4-3.5-2.4-5.8v-2.4c0-2.3 0.8-4.2 2.4-5.8s3.6-2.4 5.8-2.4c1.3 0 2.5 0.3 3.5 0.9 0.4 0.2 0.7 0.4 1.1 0.7zm-7.8 19c0.9 0.9 2 1.4 3.3 1.4s2.3-0.4 3.2-1.3 1.4-2 1.4-3.3v-2.4c0-1.3-0.4-2.3-1.4-3.2-0.9-0.9-2-1.4-3.2-1.4-1.3 0-2.3 0.4-3.3 1.4-0.9 0.9-1.4 2-1.4 3.2v2.3c0 1.3 0.5 2.4 1.4 3.3zm15.7-11.3c-1.6 1.6-2.4 3.5-2.4 5.8v2.3c0 2.3 0.8 4.2 2.4 5.8 1.6 1.4 3.5 2.2 5.8 2.2s4.3-0.8 5.9-2.3l0.7-0.7-2.6-2.6-0.7 0.7c-0.9 1-2.1 1.5-3.4 1.5-1.2 0-2.3-0.4-3.3-1.3-0.8-0.8-1.2-1.6-1.3-2.6h12.9v-3c0-2.3-0.8-4.2-2.4-5.8s-3.5-2.4-5.8-2.4c-2.2-0.1-4.2 0.7-5.8 2.4m2.6 2.5c0.9-0.9 2-1.4 3.3-1.4s2.3 0.4 3.2 1.4c0.8 0.8 1.2 1.6 1.3 2.6h-9.1c0.1-1 0.5-1.9 1.3-2.6m15.6-2.5c-1.6 1.6-2.4 3.5-2.4 5.8v2.3c0 2.3 0.8 4.2 2.4 5.8 1.6 1.4 3.5 2.2 5.8 2.2s4.3-0.8 5.9-2.3l0.7-0.7-2.6-2.6-0.7 0.7c-1 1-2.1 1.5-3.4 1.5s-2.3-0.4-3.3-1.3c-0.9-0.9-1.4-2-1.4-3.3v-2.4c0-1.3 0.4-2.3 1.4-3.2 0.9-0.9 2-1.4 3.3-1.4 1.4 0 2.5 0.5 3.4 1.5l0.7 0.7 2.5-2.5-0.6-0.7c-1.6-1.7-3.6-2.6-5.9-2.6-2.2 0-4.2 0.8-5.8 2.5m15.8 0c-1.6 1.6-2.4 3.5-2.4 5.8v2.3c0 2.3 0.8 4.2 2.4 5.8 1.6 1.4 3.5 2.2 5.8 2.2 1.2 0 2.4-0.3 3.5-0.7 0.6-0.3 1.2-0.7 1.8-1.1 0.2 0.3 0.4 0.6 0.7 0.9 0.7 0.6 1.6 0.9 2.6 0.9h1.3v-3.6h-0.7c-0.9 0-1-1-1-1.7v-5c0-2.3-0.8-4.2-2.4-5.8s-3.5-2.4-5.8-2.4c-2.2-0.1-4.2 0.7-5.8 2.4m1.2 8v-2.3c0-1.3 0.4-2.3 1.4-3.2 0.9-0.9 2-1.4 3.3-1.4s2.3 0.4 3.2 1.4c0.9 0.9 1.4 2 1.4 3.2v2.3c0 1.3-0.4 2.3-1.4 3.3-0.9 0.9-2 1.4-3.2 1.4s-2.3-0.4-3.3-1.3c-1-1-1.4-2.1-1.4-3.4"/>
  <path class="logo-icon-letters" d="m152.8 25.3c-1.6 1.6-2.4 3.5-2.4 5.8v2.3c0 2.3 0.8 4.2 2.4 5.8 1.6 1.4 3.5 2.2 5.8 2.2 1.2 0 2.4-0.2 3.5-0.7 0.6-0.3 1.2-0.7 1.8-1.1 0.2 0.3 0.4 0.6 0.7 0.9 0.7 0.6 1.6 0.9 2.6 0.9h1.3v-3.6h-0.7c-0.9 0-1-1-1-1.7v-5c0-2.3-0.8-4.2-2.4-5.8s-3.6-2.4-5.8-2.4c-2.2-0.1-4.1 0.7-5.8 2.4m1.2 8v-2.3c0-1.3 0.4-2.3 1.4-3.2 0.9-0.9 2-1.4 3.3-1.4s2.3 0.4 3.2 1.4c0.9 0.9 1.4 2 1.4 3.2v2.3c0 1.3-0.4 2.3-1.4 3.3-0.9 0.9-2 1.4-3.2 1.4-1.3 0-2.3-0.4-3.3-1.3-0.9-1-1.4-2.1-1.4-3.4"/>
 </g>
 <path class="logo-icon-icon" d="m39.621 30.22 9.9389 8.9986v9.133h-4.5663v-8.7301h-10.342v8.7301h-4.9695v-9.133zm-0.13432-4.2979-12.894 11.819v13.699h11.148v-8.8642h4.0291v8.8642h10.745v-13.699zm0.32235-10.933c-13.699 0-24.793 11.107-24.793 24.793 0 13.699 11.094 24.807 24.793 24.807 13.686 0 24.793-11.107 24.793-24.807 0-13.686-11.107-24.793-24.793-24.793zm0 46.201c-11.819 0-21.395-9.5896-21.395-21.407 0-11.806 9.5763-21.395 21.395-21.395s21.395 9.5896 21.395 21.395c0 11.818-9.5763 21.407-21.395 21.407z" fill="#fff" stroke-width="1.3431"/>
 <path d="m229.58 47.677v-14.065h2.2624v5.9524h5.8953v-5.9524l2.3197-1.28e-4v14.065l-2.3197 2.12e-4v-6.1451h-5.8953v6.1451z" fill="#6d6d70" stroke-width=".47581"/>
 <path d="m242.07 33.612h3.6508c1.5436 0 3.072 0.15537 4.4952 0.78998 4.0301 2.0222 4.525 8.1269 1.6844 11.324-1.6859 1.7046-3.9678 1.9406-6.2669 1.9506h-3.5634v-14.065m2.2958 2.1222v9.8589h1.9379c1.3837 0 2.7632-0.17684 3.779-1.1991 1.8319-2.027 1.8033-5.4861-0.0476-7.4846-0.93134-0.97956-2.1938-1.1753-3.4782-1.1753z" fill="#6d6d70" stroke-width=".47581"/>
</svg>
