<svg width="174.98pt" height="45.841pt" version="1.1" viewBox="0 0 174.98 45.841" xmlns="http://www.w3.org/2000/svg">
 <g transform="translate(-2.35 -.78091)" fill="#b4252d">
  <path d="m2.38 1.61c11.06 0.57 23.04-1.89 33.21 3.68 10.86 5.86 12.65 21.64 5.89 31.23-4.49 6.09-12.2 8.78-19.52 9.16-6.53 0.2-13.07 0.04-19.61 0.08 0.03-14.71-0.02-29.43 0.03-44.15z"/>
  <path d="m111.72 2.73c8.86-3.69 19.93-2 27.3 4.15-2.06 2.85-4.09 5.73-6.07 8.63-4.31-2.68-9.33-5.13-14.56-4.05-1.76 0.33-2.43 2.08-2.01 3.71 1.44 1.74 3.8 2.11 5.86 2.69 4.95 1.21 10.28 2.19 14.3 5.58 4.52 3.83 4.53 10.9 1.93 15.84-3.49 5.42-10.28 7.52-16.44 7.33-7.25-0.14-14.93-2.27-20.17-7.52 2.39-2.48 4.14-6.08 7.06-7.75 5.26 3.6 12.16 6.68 18.44 3.88 0.32-1.58 0.74-3.77-1.32-4.34-6.33-2.74-14.14-2.56-19.28-7.72-5.73-6.16-2.72-17.35 4.96-20.43z"/>
  <path d="m146.87 3.79c7.29-4.46 16.74-3.49 24.28-0.16 1.55 1.01 3.93 1.6 4.63 3.41-1.71 2.97-3.94 5.6-5.8 8.47-4.31-2.74-9.41-5.13-14.64-4.03-2.26 0.35-2.81 3.89-0.64 4.77 6.1 2.83 13.61 2.52 18.86 7.2 5.72 4.88 4.59 14.67-1.05 19.16-4.87 3.9-11.52 4.45-17.51 3.75-5.89-0.88-11.87-2.99-16.16-7.28 2.47-2.41 4.21-6.07 7.11-7.75 5.25 3.56 12.15 6.7 18.42 3.9 0.38-1.59 0.73-3.78-1.31-4.35-5.9-2.58-12.98-2.49-18.14-6.73-6.48-5.11-4.87-16.28 1.95-20.36z"/>
  <path d="m46.46 45.76c0.02-14.71-0.02-29.43 0.02-44.14 4.05 0.01 8.11 0.01 12.17-0.01 0.06 5.91-0.03 11.82 0.06 17.73 5.07-5.86 10-11.85 15.06-17.72 4.82 0.02 9.64-0.03 14.47 0.05-5.34 6.25-10.68 12.5-16.28 18.52 0.89 2.8 2.96 4.98 4.52 7.41 3.95 5.95 8.19 11.71 11.96 17.78 0.36-14.58 0.13-29.18 0.12-43.77 4.19 0.02 8.38 0 12.56 0.04-0.01 14.69 0.05 29.38 0 44.07-9.05 0.08-18.09 0.07-27.14 0-3.57-5.41-7.2-10.8-10.89-16.14-1.48 1.68-2.97 3.34-4.45 5.02 0.04 3.72 0.03 7.44 0.02 11.17-4.07 0-8.13 0-12.2-0.01z"/>
 </g>
</svg>
