<svg id="a" width="158.75mm" height="35.717mm" version="1.1" viewBox="0 0 158.75 35.717" xmlns="http://www.w3.org/2000/svg">
 <g id="b" transform="translate(-93.738 -183.14)">
  <path id="c" d="m93.738 183.14h107.16v35.717h-107.16z" fill="#dc5013" stroke-width=".26473"/>
  <path id="d" d="m200.84 183.22h51.646v35.54h-51.646z" fill="#1a1a1a" opacity=".75" stroke-opacity="0"/>
  <g id="e" transform="translate(-1.248e-5 -1.4489e-5)" fill="#fff" fill-rule="evenodd" stroke-width="4.6058">
   <path id="f" d="m100.89 212.59h9.4c6.66 0 10.74-3.86 10.74-11.03 0-6.78-4.02-10.86-10.74-10.86h-9.4z"/>
   <path id="g" d="m122.51 212.59h24.4v-21.89h-8.39l-3.83 11.97-3.78-11.97h-8.4z"/>
   <path id="h" d="m147.59 212.59h22.17l-8.19-21.89h-5.79z"/>
   <path id="i" d="m170.29 212.59h22.07l-7.72-11.49 7.08-10.4h-20.78l7.14 10.4z"/>
  </g>
  <g id="j" fill="#fff">
   <g id="k" transform="translate(19.019 -1.5545e-5)">
    <path id="l" d="m213.49 190.75v21.83h4.37c4.87 0 8-2.86 8-10.97 0-8.03-3.05-10.86-8-10.86zm2.9 3.18h1.76c3.4 0 4.8 2.13 4.8 7.68 0 5.72-1.4 7.87-4.77 7.87h-1.79z"/>
    <path id="m" d="m209.63 212.58h-2.89v-9.85h-6.37v9.85h-2.89v-21.83h2.89v8.76h6.37v-8.76h2.89v21.83"/>
   </g>
  </g>
 </g>
</svg>
