<svg width="600pt" height="386.5pt" version="1.1" viewBox="0 0 600 386.5" xmlns="http://www.w3.org/2000/svg">
 <g transform="matrix(1.4898 0 0 1.4898 -150.13 -65.109)">
  <path d="m240.92 66.84c15.88-14.14 36.81-22.47 58.07-23.07 20.69-0.8 41.55 5.68 58.13 18.09 19.35 14.23 32.8 36.28 36.33 60.06 2.72 17.43 0.34999 35.61-6.82 51.73-9.34 21.21-26.98 38.66-48.36 47.63-13.87 6.08-29.22 8.14-44.27 7.72h-84v-76.98c0.2-9.98-1.08-20.04 0.72-29.94 3.12-21.22 14.19-41.04 30.2-55.24" fill="#03a2b0"/>
  <g transform="matrix(.25194 0 0 -.25194 289.93 314.4)" fill="#fff">
   <path d="m67.453 530.81c-5.7827 4.7305-27.838 22.382-24.984 49.836 0.69677 4.9438 8.968 10.997 1.3888 24.562-11.471 20.491-29.776 46.314-28.331 71.976 0.88163 15.822 5.8917 36.071 18.026 61.572-10.343 2.0998-31.004 7.437-43.641 15.168-16.595 10.115-46.371 30.829-41.93 72.009 4.0384 19.448 4.9248 31.426 15.926 50.163 9.8306-1.4315 10.722-16.452 10.456-22.671 1.4646-37.152 20.244-63.989 100.36-52.77 13.722 0.72047 54.595 7.7403 85.826-0.12798 38.545-9.769 62.738-48.717 92.566-50.694 81.333-11.395 57.112 43.498 88.281 39.342 0 0-0.97643-56.694-22.306-74.099-23.292-18.974-62.07-23.904-87.485-19.59 0 0-62.487-119.09-63.904-128.33 3.4459-18.846-17.391-44.503-35.275-51.371-12.338-4.7589-54.505 6.3989-64.975 15.026"/>
   <path d="m223.88 786.41c-5.996 3.5929-35.365 36.806-71.568 39.507-26.634 4.1048-53.576-1.2087-78.56-2.8203-23.614-1.5073-44.361-2.6164-58.225 2.2325-22.861 8.0152-17.561 38.19-18.472 45.949 17.296 3.3369 51.035 44.484 76.394 48.627 14.997 2.4648 37.948-15.632 53.585-21.093 40.982-14.372 70.649 5.3609 88.371-45.987 5.4746-15.817 7.6692-63.24 8.475-66.416"/>
   <path d="m-72.375 811.62c-1.7206-14.457 8.4466-39.048 19.922-50.689 16.642-18.87 42.323-31.445 56.239-37.014-7.655-20.287-9.2429-31.961-10.352-47.632-0.047399-39.953 27.402-66.776 30.757-77.896-21.316 4.9106-93.287 51.68-96.51 49.433-31.758-22.202-60.7-45.958-76.593-82.854-4.1143-9.5083-20.889-62.97-16.249-72.147-2.5027-26.634-78.493-27.188-92.799-10.84-2.5833 2.9625 5.6642 36.929 13.812 45.176 8.4229 8.4987 57.088 48.091 64.894 65.539 4.5314 10.091 31.284 96.979 38.531 121.42 1.787 5.9534 66.065 95.315 68.345 97.505"/>
  </g>
 </g>
 <g transform="matrix(1.0368 0 0 1.0368 -11.684 288.5)" fill="#fff">
  <path transform="scale(.75)" d="m734.35 7.2129v6.0078h7.6211v15.619h7.6074v-15.619h7.6191v-6.0078z" stroke-width="1.3333"/>
  <path transform="scale(.75)" d="m760.32 7.2129 8.0938 21.627h10.146l8.0918-21.627h-7.6914l-5.4746 15.031-5.4727-15.031z" stroke-width="1.3333"/>
  <path d="m11.27 7.72h61.96v20.465h-36.73v13.035h36.73v16.995h-36.73v13.17h36.73v20.4h-61.96z"/>
  <path d="m85.195 7.72h25.26v62.985h30.23v21.08h-55.49z"/>
  <path transform="scale(.75)" d="m187.63 11.693v36.053h38.793v74.613h43.734v-74.613h38.793v-36.053z" stroke-width="1.3333"/>
  <path d="m345.42 91.77 0.02-83h48.54c24.267 0 40.83 9.6676 40.83 33.29 0 9.288-3.73 17.66-10.68 23.14l14.13 26.57h-33.78l-9.75-19.205h-16.635v19.205h-32.675m32.675-55.98v12.62h15.885c3.7328 0.04864 6.4097-2.5904 6.4097-6.31 0-3.8372-2.9105-6.31-6.4097-6.31z"/>
  <path d="m550.93 27.335h38.96v5.485h-38.96z"/>
  <path d="m490.62 5.9405a48.156 44.288 0 0 0-48.155 44.288 48.156 44.288 0 0 0 48.155 44.288 48.156 44.288 0 0 0 48.157-44.288 48.156 44.288 0 0 0-48.157-44.288zm0 28.072a15.701 16.216 0 0 1 15.702 16.216 15.701 16.216 0 0 1-15.702 16.216 15.701 16.216 0 0 1-15.7-16.216 15.701 16.216 0 0 1 15.7-16.216z" style="paint-order:markers stroke fill"/>
  <path d="m287.5 5.9405a48.156 44.288 0 0 0-48.155 44.288 48.156 44.288 0 0 0 48.155 44.288 48.156 44.288 0 0 0 48.157-44.288 48.156 44.288 0 0 0-48.157-44.288zm0 28.072a15.701 16.216 0 0 1 15.702 16.216 15.701 16.216 0 0 1-15.702 16.216 15.701 16.216 0 0 1-15.7-16.216 15.701 16.216 0 0 1 15.7-16.216z" style="paint-order:markers stroke fill"/>
 </g>
</svg>
