<?xml version="1.0" encoding="UTF-8"?>
<svg id="svg28" width="600" height="184.86" version="1.1" viewBox="0 0 158.75 48.91" xmlns="http://www.w3.org/2000/svg" xmlns:cc="http://creativecommons.org/ns#" xmlns:dc="http://purl.org/dc/elements/1.1/" xmlns:rdf="http://www.w3.org/1999/02/22-rdf-syntax-ns#">
 <metadata id="metadata34">
  <rdf:RDF>
   <cc:Work rdf:about="">
    <dc:format>image/svg+xml</dc:format>
    <dc:type rdf:resource="http://purl.org/dc/dcmitype/StillImage"/>
    <dc:title/>
   </cc:Work>
  </rdf:RDF>
 </metadata>
 <defs id="defs32">
  <linearGradient id="linearGradient834" x1="-252.88" x2="-220.53" y1="-154" y2="-184.18" gradientTransform="translate(257.91 190.61)" gradientUnits="userSpaceOnUse">
   <stop id="stop828" stop-color="#4f7680" offset="0"/>
   <stop id="stop836" stop-color="#26535c" offset=".45604"/>
   <stop id="stop830" stop-color="#02353d" offset="1"/>
  </linearGradient>
 </defs>
 <path id="path2" d="m42.69 9.9797v22.74c0 4.14-2.52 7.69-6.11 9.2l-10.8 0.78h-9.52l-2.2 6.21-2.84-6.21h-1.25c-5.51 0-9.97-4.47-9.97-9.98v-22.74c0-5.51 4.46-9.98 9.97-9.98h22.75c5.51 0 9.97 4.47 9.97 9.98" fill="url(#linearGradient834)" fill-rule="evenodd"/>
 <g id="g24" transform="matrix(1.0179 0 0 1.0179 238.79 90.47)" fill="#136f7a">
  <path id="path4" d="m-89.868-69.504 5.499 11.933h0.274l5.459-11.933h-1.642l-3.957 8.69-3.998-8.69z" fill-rule="evenodd"/>
  <path id="path6" d="m-99.609-72.178h3.635v14.663h1.66v-14.663h3.623v-1.58h-8.918z" fill-rule="evenodd"/>
  <path id="path8" d="m-184.66-74.119h1.62v16.243h-1.62z"/>
  <path id="path10" d="m-173.29-59.061c0.86 0 1.65-0.207 2.38-0.627 0.73-0.425 1.31-1.024 1.74-1.791s0.65-1.573 0.65-2.429c0-0.851-0.22-1.668-0.65-2.44-0.44-0.773-1.02-1.372-1.76-1.797-0.73-0.437-1.51-0.655-2.34-0.655-0.85 0-1.65 0.218-2.42 0.655-0.75 0.425-1.34 1.002-1.76 1.729-0.4 0.734-0.6 1.551-0.6 2.463 0 1.394 0.45 2.552 1.37 3.487 0.92 0.94 2.05 1.405 3.39 1.405m-6.19 1.181v-16.646h1.54v6.7c0.64-0.795 1.37-1.388 2.17-1.78 0.81-0.397 1.69-0.593 2.64-0.593 1.7 0 3.15 0.615 4.35 1.852 1.21 1.232 1.81 2.726 1.81 4.484 0 1.735-0.6 3.218-1.82 4.449-1.21 1.232-2.67 1.842-4.38 1.842-0.98 0-1.87-0.207-2.66-0.627s-1.5-1.047-2.11-1.886v2.205z" fill-rule="evenodd"/>
  <path id="path12" d="m-154.04-65.099c-0.21-0.823-0.51-1.483-0.91-1.976-0.39-0.492-0.9-0.89-1.55-1.192s-1.33-0.453-2.04-0.453c-1.18 0-2.19 0.38-3.04 1.136-0.62 0.554-1.08 1.382-1.4 2.485zm0 3.235 1.31 0.683c-0.44 0.839-0.93 1.517-1.49 2.032s-1.18 0.912-1.88 1.181c-0.7 0.268-1.49 0.397-2.38 0.397-1.96 0-3.48-0.638-4.59-1.92-1.11-1.287-1.65-2.742-1.65-4.36 0-1.522 0.46-2.883 1.4-4.075 1.18-1.517 2.77-2.272 4.75-2.272 2.05 0 3.69 0.772 4.91 2.328 0.86 1.097 1.31 2.463 1.32 4.109h-10.79c0.02 1.399 0.47 2.546 1.33 3.442 0.86 0.89 1.92 1.338 3.19 1.338 0.61 0 1.2-0.107 1.78-0.325 0.58-0.213 1.07-0.493 1.48-0.845 0.4-0.359 0.84-0.924 1.31-1.713" fill-rule="evenodd"/>
  <path id="path14" d="m-150.04-69.891h1.58v1.758c0.47-0.694 0.96-1.209 1.48-1.545 0.53-0.347 1.07-0.521 1.64-0.521l1.37 0.409-0.81 1.304-0.81-0.213c-0.52 0-1.02 0.213-1.5 0.638-0.47 0.42-0.84 1.081-1.09 1.965-0.19 0.688-0.28 2.071-0.28 4.153v4.064h-1.58z"/>
  <path id="path16" d="m-136.87-68.709c-0.87 0-1.66 0.212-2.39 0.638-0.73 0.42-1.31 1.013-1.74 1.78-0.43 0.766-0.64 1.572-0.64 2.429 0 0.845 0.22 1.657 0.65 2.429s1.02 1.377 1.74 1.808c0.74 0.431 1.53 0.644 2.37 0.644s1.65-0.213 2.4-0.644c0.76-0.426 1.34-1.002 1.75-1.73 0.41-0.727 0.61-1.55 0.61-2.462 0-1.394-0.45-2.553-1.38-3.487-0.9-0.935-2.04-1.405-3.37-1.405m6.18-1.181v12.011h-1.53v-2.065c-0.64 0.789-1.37 1.382-2.18 1.78-0.8 0.397-1.68 0.593-2.64 0.593-1.7 0-3.15-0.616-4.36-1.841-1.2-1.237-1.8-2.737-1.8-4.506 0-1.73 0.61-3.207 1.82-4.439 1.22-1.225 2.68-1.841 4.38-1.841 0.99 0 1.88 0.207 2.68 0.627s1.5 1.052 2.1 1.892v-2.211z" fill-rule="evenodd"/>
  <path id="path18" d="m-127.44-74.527h1.54v16.645h-1.54z"/>
  <path id="path20" d="m-122.92-69.893h1.56v12.011h-1.56zm0.78-4.942 0.9 0.375 0.37 0.906-0.37 0.89-0.9 0.375-0.9-0.375-0.37-0.89 0.37-0.906z" fill-rule="evenodd"/>
  <path id="path22" d="m-112.38-68.709c-0.86 0-1.65 0.212-2.38 0.638-0.73 0.42-1.31 1.013-1.75 1.78-0.42 0.766-0.63 1.572-0.63 2.429 0 0.845 0.21 1.657 0.65 2.429 0.43 0.772 1.01 1.377 1.74 1.808s1.52 0.644 2.36 0.644c0.85 0 1.65-0.213 2.41-0.644 0.76-0.426 1.34-1.002 1.75-1.73 0.41-0.727 0.61-1.55 0.61-2.462 0-1.394-0.46-2.553-1.37-3.487-0.92-0.935-2.05-1.405-3.39-1.405m6.19-1.181v12.011h-1.52v-2.065c-0.66 0.789-1.39 1.382-2.19 1.78-0.81 0.397-1.69 0.593-2.64 0.593-1.7 0-3.15-0.616-4.36-1.841-1.2-1.237-1.8-2.737-1.8-4.506 0-1.73 0.6-3.207 1.82-4.439 1.21-1.225 2.67-1.841 4.38-1.841 0.99 0 1.88 0.207 2.68 0.627s1.5 1.052 2.11 1.892v-2.211z" fill-rule="evenodd"/>
 </g>
 <path id="path2-8" d="m17.078 5.1953c-1.1873 0.04078-2.8658 0.34437-3.9083 1.2444-1.03 0.89-4.1698 1.6401-5.2198 1.9001-1.05 0.27-1.9298 0.65019-3.5998 1.1002 0.79-0.01 4.0598 0.09006 4.9398 0.31006 0.88 0.23 4.8799 0.72991 5.7299 0.65991 2.02-0.16 4.31 1.47 3.5 3.22-0.99 2.13-2.4799 2.4597-3.8799 4.7997-5.32 8.9 5.9 16.64 6.21 18.27 0.39 2.13 4.9299 6.0002 4.9299 6.0002h6.9401c1.3698 0 2.6741-0.27683 3.8613-0.77721l-0.0036-0.0031h0.0021c0.10998-4.19-0.72966-11.76-8.0497-19.16-5.11-5.18-8.9403-1.5004-9.7503-1.0904-0.58 0.29-1.2597-1.1398-1.2397-1.9198 0.05-2.49 3.2396-3.0899 4.6896-6.0699 0.67-1.39 0.36016-3.3202-0.54984-4.6902 0.85 0.5 2.4 4.41 2.62 6.72 0.1-10.44-5.3799-10.36-6.2399-10.48-0.245-0.0325-0.58607-0.04822-0.98185-0.03462z" fill="#fff" fill-rule="evenodd"/>
</svg>
