<?xml version="1.0" encoding="UTF-8"?>
<!-- Created with Inkscape (http://www.inkscape.org/) -->
<svg id="svg2" width="2084" height="1779" version="1.0" xmlns="http://www.w3.org/2000/svg" xmlns:cc="http://creativecommons.org/ns#" xmlns:dc="http://purl.org/dc/elements/1.1/" xmlns:rdf="http://www.w3.org/1999/02/22-rdf-syntax-ns#" xmlns:xlink="http://www.w3.org/1999/xlink">
 <metadata id="metadata7">
  <rdf:RDF>
   <cc:Work rdf:about="">
    <dc:format>image/svg+xml</dc:format>
    <dc:type rdf:resource="http://purl.org/dc/dcmitype/StillImage"/>
    <dc:title/>
   </cc:Work>
  </rdf:RDF>
 </metadata>
 <defs id="defs5">
  <radialGradient id="radialGradient3288" cx="-822.27" cy="348.03" r="100.18" gradientTransform="matrix(1 0 0 .82468 0 61.019)" gradientUnits="userSpaceOnUse">
   <stop id="stop3184" stop-color="#0055d4" offset="0"/>
   <stop id="stop3186" stop-color="#0055d4" stop-opacity="0" offset="1"/>
  </radialGradient>
  <radialGradient id="radialGradient3286" cx="-822.27" cy="348.03" r="100.18" gradientTransform="matrix(1 0 0 .82468 0 61.019)" gradientUnits="userSpaceOnUse">
   <stop id="stop3231" stop-color="#00aad4" offset="0"/>
   <stop id="stop3233" stop-color="#00aad4" stop-opacity="0" offset="1"/>
  </radialGradient>
  <radialGradient id="radialGradient3284" cx="-822.27" cy="348.03" r="100.18" gradientTransform="matrix(1 0 0 .82468 0 61.019)" gradientUnits="userSpaceOnUse">
   <stop id="stop3210" stop-color="#60f" offset="0"/>
   <stop id="stop3212" stop-color="#5500d4" stop-opacity="0" offset="1"/>
  </radialGradient>
 </defs>
 <g id="g2331" transform="translate(-439.09 -87.84)" fill-rule="evenodd">
  <path id="path3164" transform="matrix(9.3015 -2.4923 2.4923 9.3015 8175.5 -4371.8)" d="m-722.09 348.03a100.18 82.617 0 1 1-200.36 0 100.18 82.617 0 1 1 200.36 0z" fill="url(#radialGradient3288)"/>
  <path id="path3192" transform="matrix(9.3015 -2.4923 2.4923 9.3015 8195.7 -4319)" d="m-722.09 348.03a100.18 82.617 0 1 1-200.36 0 100.18 82.617 0 1 1 200.36 0z" fill="url(#radialGradient3288)"/>
  <path id="path3196" transform="matrix(9.3015 -2.4923 2.4923 9.3015 8214.2 -4287.2)" d="m-722.09 348.03a100.18 82.617 0 1 1-200.36 0 100.18 82.617 0 1 1 200.36 0z" fill="url(#radialGradient3288)"/>
  <path id="path3198" transform="matrix(9.3015 -2.4923 2.4923 9.3015 8234.5 -4234.3)" d="m-722.09 348.03a100.18 82.617 0 1 1-200.36 0 100.18 82.617 0 1 1 200.36 0z" fill="url(#radialGradient3288)"/>
  <path id="path3204" transform="matrix(3.8796 7.0186 -6.8691 4.1385 6766 5418.3)" d="m-722.09 348.03a100.18 82.617 0 1 1-200.36 0 100.18 82.617 0 1 1 200.36 0z" fill="url(#radialGradient3284)"/>
  <path id="path3224" transform="matrix(3.8796 7.0186 -6.8691 4.1385 7416.8 5202.8)" d="m-722.09 348.03a100.18 82.617 0 1 1-200.36 0 100.18 82.617 0 1 1 200.36 0z" fill="url(#radialGradient3286)"/>
  <path id="path3235" transform="matrix(8.588 -2.3012 2.3012 8.588 7724.7 -3900.3)" d="m-722.09 348.03a100.18 82.617 0 1 1-200.36 0 100.18 82.617 0 1 1 200.36 0z" fill="url(#radialGradient3288)"/>
  <path id="path2161" d="m1186.4 673.17 82.853 136.71 89.067-66.282 4e-4 546.83-132.56 49.712-5e-4 99.423c0 6.7096 4.7635 6.0381 10.459 6.038l421.15 1e-4c6.4777-1e-4 10.742-2.4501 10.743-10.705l-3e-4 -94.756-119.23-49.712-1e-4 -772.6c0-8.1921-3.5119-12.076-13.149-12.076l-111.13 5e-5 -238.2 167.43z" fill="#fff"/>
 </g>
</svg>
