<svg width="5349.7" height="965.98" version="1.1" viewBox="0 0 5349.7 965.98" xml:space="preserve" xmlns="http://www.w3.org/2000/svg"><defs><linearGradient id="a-1" x1="798.43" x2="867.92" y1="707.66" y2="707.66" gradientTransform="matrix(1.3333,0,0,-1.3333,-357.22,1030.5)" gradientUnits="userSpaceOnUse"><stop stop-color="#ff0900" offset="0"/><stop stop-color="#ff7900" offset=".19679"/><stop stop-color="#ffe300" offset=".41744"/><stop stop-color="#00a62d" offset=".60171"/><stop stop-color="#0002ff" offset="1"/></linearGradient>
</defs><g transform="matrix(5.5561 0 0 5.5561 .045271 -.32337)"><g transform="matrix(11.782,0,0,-11.782,84.662,59.124)" fill="#fff"><path d="m0 0c-1.357 0-2.461-1.104-2.461-2.461 0-1.358 1.104-2.462 2.461-2.462s2.461 1.104 2.461 2.462c0 1.357-1.104 2.461-2.461 2.461" fill="#fff" fill-rule="evenodd"/></g><g transform="matrix(11.782,0,0,-11.782,24.197,37.631)" fill="#963583"><path d="m0 0 4e-3 -0.085 0.032-0.028 2.572-1.495 6e-3 -3e-3 0.087 6e-3 0.021 0.021 7e-3 0.012c0.237 0.421 0.568 0.796 0.988 1.094 0.421 0.298 0.888 0.485 1.365 0.568l0.01 2e-3 0.029 0.014 0.034 0.081-1e-3 5e-3 -0.544 2.925-1e-3 6e-3 -0.015 0.033-0.076 0.033-7e-3 -2e-3c-0.909-0.165-1.809-0.528-2.612-1.096-0.805-0.57-1.441-1.287-1.899-2.091" fill="#963583" fill-rule="evenodd"/></g><g transform="matrix(11.782,0,0,-11.782,6.8776,104.22)" fill="#004ad0"><path d="m0 0 0.07-0.05 0.041 8e-3 2.775 1.07 7e-3 1e-3 0.051 0.073-4e-3 0.029-5e-3 0.014c-0.18 0.448-0.266 0.94-0.235 1.454 0.031 0.516 0.177 0.997 0.411 1.421l5e-3 9e-3 8e-3 0.031-0.042 0.078-5e-3 2e-3 -2.622 1.406-5e-3 3e-3 -0.034 9e-3 -0.075-0.039-3e-3 -7e-3 1e-3 1e-3c-0.442-0.812-0.722-1.74-0.781-2.723-0.06-0.984 0.102-1.93 0.442-2.789" fill="#004ad0" fill-rule="evenodd"/></g><g transform="matrix(11.782,0,0,-11.782,48.463,158.91)" fill="#028ffd"><path d="m0 0 0.082 0.023 0.019 0.037 0.885 2.841 2e-3 6e-3 -0.024 0.084-0.026 0.015-0.013 4e-3c-0.462 0.138-0.903 0.377-1.287 0.72-0.384 0.344-0.67 0.758-0.858 1.204l-3e-3 9e-3 -0.019 0.026-0.088 0.015-5e-3 -2e-3 -2.73-1.181-6e-3 -3e-3 -0.028-0.021-0.015-0.083 2e-3 -6e-3c0.363-0.85 0.917-1.646 1.651-2.303 0.733-0.658 1.576-1.118 2.461-1.385" fill="#028ffd" fill-rule="evenodd"/></g><g transform="matrix(11.782,0,0,-11.782,116.81,160.55)" fill="#0a0"><path d="m0 0 0.033 0.079-0.016 0.038-1.658 2.47-4e-3 6e-3 -0.081 0.034-0.028-0.01-0.011-8e-3c-0.397-0.275-0.86-0.468-1.367-0.552-0.51-0.083-1.011-0.047-1.477 0.087l-0.01 3e-3 -0.031 1e-3 -0.067-0.059-1e-3 -5e-3 -0.791-2.869-2e-3 -4e-3 -1e-3 -0.037 0.055-0.063 7e-3 -2e-3h-1e-3c0.889-0.25 1.857-0.317 2.829-0.157 0.972 0.159 1.859 0.526 2.622 1.048" fill="#0a0" fill-rule="evenodd"/></g><g transform="matrix(11.782,0,0,-11.782,161.3,108.34)" fill="#ffe500"><path d="m0 0-0.041 0.075-0.04 0.01-2.966 0.232-6e-3 1e-3 -0.077-0.043-0.01-0.029v-0.014c-0.032-0.482-0.166-0.964-0.416-1.414-0.251-0.452-0.59-0.823-0.983-1.104l-9e-3 -7e-3 -0.021-0.024 5e-3 -0.088 3e-3 -5e-3 1.76-2.399 2e-3 -4e-3 0.029-0.024 0.083 4e-3 5e-3 4e-3c0.749 0.543 1.401 1.26 1.879 2.121 0.478 0.862 0.739 1.785 0.803 2.707" fill="#ffe500" fill-rule="evenodd"/></g><g transform="matrix(11.782,0,0,-11.782,148.1,40.898)" fill="#ff7d00"><path d="m0 0-0.084 0.015-0.034-0.024-2.048-2.159-5e-3 -5e-3 -0.014-0.086 0.016-0.025 0.01-0.01c0.355-0.328 0.644-0.736 0.838-1.213 0.193-0.479 0.267-0.976 0.238-1.46l-1e-3 -0.01 7e-3 -0.031 0.071-0.052h5e-3l2.973-0.144h4e-3l0.036 6e-3 0.05 0.067v8e-3c0.05 0.922-0.096 1.88-0.465 2.794s-0.921 1.698-1.597 2.329" fill="#ff7d00" fill-rule="evenodd"/></g><g transform="matrix(11.782,0,0,-11.782,86.809,9.5522)" fill="#f00"><path d="m0 0-0.063-0.058-3e-3 -0.041 0.435-2.944 1e-3 -6e-3 0.059-0.065 0.03-3e-3 0.014 2e-3c0.476 0.077 0.976 0.053 1.47-0.09 0.497-0.143 0.934-0.392 1.297-0.713l7e-3 -6e-3 0.028-0.015 0.085 0.024 4e-3 4e-3 1.948 2.25 3e-3 3e-3 0.016 0.033-0.021 0.081-6e-3 4e-3h1e-3c-0.696 0.608-1.541 1.085-2.486 1.359-0.947 0.273-1.905 0.324-2.819 0.181" fill="#f00" fill-rule="evenodd"/></g><g transform="matrix(11.782,0,0,-11.782,84.662,59.124)"><path d="m0 0c-1.357 0-2.461-1.104-2.461-2.461 0-1.358 1.104-2.462 2.461-2.462s2.461 1.104 2.461 2.462c0 1.357-1.104 2.461-2.461 2.461m1.788-3.848c0.037 0.099 0.049 0.216 0.061 0.306l-0.16-0.134c-0.169-0.122-0.352-0.203-0.527-0.24l-0.477 0.519-6e-3 -4e-3 0.345-0.612c-0.09-0.157-0.223-0.308-0.396-0.433l-0.176-0.111c0.089-0.016 0.203-0.04 0.309-0.036-0.237-0.086-0.494-0.132-0.761-0.132-0.268 0-0.524 0.046-0.763 0.132 0.107-5e-3 0.221 0.02 0.311 0.036l-0.177 0.111c-0.171 0.125-0.305 0.276-0.395 0.433l0.345 0.612-6e-3 4e-3 -0.477-0.518c-0.176 0.036-0.358 0.117-0.528 0.239l-0.159 0.134c0.012-0.091 0.023-0.208 0.062-0.308-0.299 0.384-0.477 0.864-0.477 1.389l2e-3 0.074c0.027-0.107 0.089-0.212 0.133-0.295l0.051 0.202c0.066 0.203 0.169 0.378 0.293 0.513l0.681-0.138 2e-3 7e-3 -0.636 0.291c-0.019 0.178 1e-3 0.376 0.065 0.574l0.078 0.194c-0.087-0.042-0.203-0.093-0.289-0.166 0.297 0.444 0.746 0.776 1.272 0.924-0.098-0.058-0.183-0.155-0.252-0.227l0.208 0.015c0.211 0 0.408-0.044 0.573-0.118l0.08-0.689h7e-3l0.08 0.689c0.164 0.074 0.361 0.118 0.572 0.118l0.208-0.015c-0.069 0.071-0.154 0.168-0.252 0.226 0.526-0.148 0.974-0.479 1.27-0.922-0.085 0.072-0.2 0.123-0.287 0.165l0.078-0.194c0.064-0.199 0.084-0.396 0.065-0.575l-0.635-0.291 2e-3 -7e-3 0.681 0.138c0.123-0.134 0.226-0.31 0.292-0.512l0.05-0.202c0.045 0.083 0.107 0.187 0.133 0.293l2e-3 -0.072c0-0.524-0.178-1.005-0.475-1.387" fill-rule="evenodd"/></g><g transform="matrix(11.782,0,0,-11.782,72.943,84.297)"><path d="m0 0 0.38-1.17h1.23l0.38 1.17-0.995 0.723" fill-rule="evenodd"/></g><g fill="#da3432"><g transform="matrix(11.782,0,0,-11.782,230.5,121.34)"><path d="m0 0h-2.807v4.949h1.27v-3.825h1.537" fill="#da3432" fill-rule="evenodd"/></g><g transform="matrix(11.782,0,0,-11.782,232.98,98.19)"><path d="m0 0c0 1.105 0.807 2.081 1.893 2.081 0.477 0 0.775-0.162 1.125-0.485v0.406h1.169v-3.967h-1.189v0.388s-0.425-0.484-1.168-0.484c-1.087 0-1.83 0.788-1.83 2.061m2.129 0.969c-0.566 0-0.928-0.426-0.928-0.949 0-0.55 0.343-1.003 0.889-1.003 0.528 0 0.966 0.395 0.966 0.97 0 0.581-0.406 0.982-0.927 0.982" fill="#da3432" fill-rule="evenodd"/></g><g transform="matrix(11.782,0,0,-11.782,323.62,121.34)"><path d="m0 0h-2.809v4.949h1.272v-3.825h1.537" fill="#da3432" fill-rule="evenodd"/></g><path d="m328.48 62.711c0-4.7127 3.7348-8.6006 8.3884-8.6006 4.6302 0 8.4593 3.723 8.4593 8.4593 0 4.7833-3.829 8.6595-8.6242 8.6595-4.5595 0-8.2235-3.723-8.2235-8.5181m1.3432 58.625h13.914v-46.75h-13.914z" fill-rule="evenodd" stroke-width="1.3333"/><g transform="matrix(11.782,0,0,-11.782,349.74,97.043)"><path d="m0 0c0 1.072 0.673 1.983 1.703 1.983 0.495 0 0.832-0.161 1.168-0.523v0.446h1.132v-3.496c0-1.227-0.909-1.867-2.002-1.867-0.96 0-1.798 0.491-1.924 1.383h1.327c0.165-0.272 0.33-0.323 0.623-0.323 0.413 0 0.793 0.193 0.793 0.626 0 0.104 7e-3 0.195-6e-3 0.298-0.229-0.207-0.654-0.459-1.118-0.459-1.009 0-1.696 0.853-1.696 1.932m1.976 0.956c-0.553 0-0.826-0.458-0.826-0.949 0-0.511 0.298-0.932 0.819-0.932 0.591 0 0.909 0.48 0.909 0.925 0 0.53-0.293 0.956-0.902 0.956" fill="#da3432" fill-rule="evenodd"/></g><g transform="matrix(11.782,0,0,-11.782,402.89,98.19)"><path d="m0 0c0 1.105 0.806 2.081 1.893 2.081 0.476 0 0.775-0.162 1.125-0.485v0.406h1.169v-3.967h-1.189v0.388s-0.426-0.484-1.168-0.484c-1.087 0-1.83 0.788-1.83 2.061m2.128 0.969c-0.566 0-0.927-0.426-0.927-0.949 0-0.55 0.342-1.003 0.889-1.003 0.527 0 0.965 0.395 0.965 0.97 0 0.581-0.406 0.982-0.927 0.982" fill="#da3432" fill-rule="evenodd"/></g><g transform="matrix(11.782,0,0,-11.782,504.8,121.19)"><path d="m0 0v6.857h-1.045l-2.02-0.55 0.274-1.068 1.441 0.437v-5.676" fill="#da3432" fill-rule="evenodd"/></g><path d="m518.9 121.15h4.3828v-80.787h-4.3828z" stroke-width="1.3333"/><path d="m621.85 121.15h4.3828v-80.787h-4.3828z" stroke-width="1.3333"/><g transform="matrix(11.782,0,0,-11.782,656.11,122.63)"><path d="m0 0c1.725 0 2.943 0.844 2.943 2.166 0 1.019-0.893 1.598-1.695 1.69v0.021c0.7 0.193 1.471 0.722 1.471 1.596 0 0.926-0.801 1.547-2.131 1.547-1.024 0-1.765-0.407-2.131-0.723l0.538-0.874c0.275 0.233 0.782 0.498 1.33 0.498 0.568 0 0.984-0.234 0.984-0.712 0-0.641-0.812-1.048-1.826-1.069v-0.936c1.187 0 2.009-0.264 2.009-1.047 0-0.692-0.619-1.069-1.512-1.069-0.497 0-1.004 0.102-1.208 0.173l-0.233-1.068c0.253-0.082 0.792-0.193 1.461-0.193" fill="#da3432" fill-rule="evenodd"/></g><g transform="matrix(11.782,0,0,-11.782,529.84,137.58)"><path d="m0 0 4.566 5.42c0.412 0.487 0.85 1.056 0.85 1.628 0 0.9-0.844 1.69-1.805 1.69-0.929 0-1.705-0.713-1.767-1.624l-0.01-0.139h-1.548l0.02 0.167c0.214 1.847 1.48 2.995 3.305 2.995 1.846 0 3.292-1.335 3.292-3.038 0-0.735-0.282-1.492-0.775-2.076l-3.067-3.625h3.842v-1.398h-6.903" fill="#da3432" fill-rule="evenodd"/></g></g><path d="m717.39 52.858v11.169h-10.073v14.821h10.073v25.861c0 10.509 6.586 17.849 18.438 17.849 3.6287 0 5.29-0.41236 9.4371-1.1782v-12.842c-1.373 0.14366-2.7866 0.26998-4.4652 0.28271-4.9366 0-7.3989-2.4859-7.3989-6.6448v-23.327h18.132l12.972 40.635h17.849l17.613-55.456h-17.166l-8.7302 35.568h-0.12959l-9.6138-35.568h-30.927v-12.63l-16.012 1.4609" fill="url(#a-1)" stroke-width="1.3333"/></g><g transform="translate(-.0934 .027953)" fill="#da3432"><path d="m4937.3 70.51a412.48 412.48 0 0 0-412.5 412.5 412.48 412.48 0 0 0 412.5 412.5 412.48 412.48 0 0 0 412.5-412.5 412.48 412.48 0 0 0-412.5-412.5zm0 33.359a379.14 379.14 0 0 1 379.14 379.14 379.14 379.14 0 0 1-379.14 379.14 379.14 379.14 0 0 1-379.14-379.14 379.14 379.14 0 0 1 379.14-379.14z" stroke-width="1.3333" style="paint-order:normal"/><g transform="matrix(1.3333,0,0,-1.3333,-357.22,1822.6)"><path d="m3741.9 1124.6h50.582l72.34-117.01 72.4 117.01h50.544l-0.097-244.25h-46.195l-0.2099 169.41-60.128-96.045h-32.629l-60.106 96.045-0.2174-169.41h-46.18z" stroke-width=".74991"/><path d="m4045 1124.6h142.36v-41.642l-47.621-53.948 0.5117-0.1137c16.231-3.3226 31.621-11.843 42.016-24.871 11.715-13.95 16.868-32.401 17.161-50.379-0.36-11.745-3.1726-23.513-8.9928-33.781-8.4828-15.758-22.643-28.104-38.949-35.274-18.143-8.0403-38.649-9.9604-58.157-6.9528-21.796 3.4951-42.579 14.678-56.424 32.034-2.0026 2.5426-4.1327 5.0552-5.5427 7.9953l30.854 28.042 0.3845-0.47845c5.7077-7.7328 12.376-15.023 20.723-19.943 7.7478-4.7927 16.913-7.4328 26.048-6.9378 18.031-0.53252 35.379 12.773 39.564 30.316 2.4376 10.058 1.2975 21.136-3.8477 30.196-4.9276 8.4603-12.893 15.158-22.171 18.346-6.5702 2.4451-13.756 2.7076-20.641 1.8451-2.3251-0.27151-4.0254-0.6901-5.56-1.1476l-18.508 23.446 52.254 61.285-85.458 0.1125z" stroke-width=".75003"/></g></g></svg>
