<svg id="b" version="1.1" viewBox="0 0 5349.9 966" xml:space="preserve" xmlns="http://www.w3.org/2000/svg"><defs id="c"><linearGradient id="a" x1="798.43" x2="867.92" y1="707.66" y2="707.66" gradientTransform="matrix(7.4081 0 0 -7.4081 -1984.8 5725.3)" gradientUnits="userSpaceOnUse"><stop id="d" stop-color="#ff0900" offset="0"/><stop id="e" stop-color="#ff7900" offset=".19679"/><stop id="f" stop-color="#ffe300" offset=".41744"/><stop id="g" stop-color="#00a62d" offset=".60171"/><stop id="h" stop-color="#0002ff" offset="1"/></linearGradient>
</defs><path id="i" d="m3986 293.44v62.057h-55.969v82.35h55.969v143.69c0 58.391 36.592 99.172 102.45 99.172 20.162 0 29.391-2.2911 52.433-6.546v-71.352c-7.6291 0.7982-15.484 1.5001-24.81 1.5708-27.429 0-41.11-13.812-41.11-36.919v-129.61h100.74l72.072 225.78h99.172l97.863-308.13h-95.376l-48.507 197.62h-0.7201l-53.416-197.62h-171.84v-70.174l-88.96 8.1171" fill="url(#a)" stroke-width="1.3333"/><g id="j" fill="#fff"><g id="k" transform="matrix(7.4081 0 0 -7.4081 -1984.8 5725.3)"><g id="l" transform="matrix(8.8364,0,0,8.8364,286.07,744.67)"><path id="m" d="m0 0 4e-3 -0.085 0.032-0.028 2.572-1.495 6e-3 -3e-3 0.087 6e-3 0.021 0.021 7e-3 0.012c0.237 0.421 0.568 0.796 0.988 1.094 0.421 0.298 0.888 0.485 1.365 0.568l0.01 2e-3 0.029 0.014 0.034 0.081-1e-3 5e-3 -0.544 2.925-1e-3 6e-3 -0.015 0.033-0.076 0.033-7e-3 -2e-3c-0.909-0.165-1.809-0.528-2.612-1.096-0.805-0.57-1.441-1.287-1.899-2.091" fill="#fff" fill-rule="evenodd"/></g><g id="n" transform="matrix(8.8364,0,0,8.8364,273.08,694.73)"><path id="o" d="m0 0 0.07-0.05 0.041 8e-3 2.775 1.07 7e-3 1e-3 0.051 0.073-4e-3 0.029-5e-3 0.014c-0.18 0.448-0.266 0.94-0.235 1.454 0.031 0.516 0.177 0.997 0.411 1.421l5e-3 9e-3 8e-3 0.031-0.042 0.078-5e-3 2e-3 -2.622 1.406-5e-3 3e-3 -0.034 9e-3 -0.075-0.039-3e-3 -7e-3 1e-3 1e-3c-0.442-0.812-0.722-1.74-0.781-2.723-0.06-0.984 0.102-1.93 0.442-2.789" fill="#fff" fill-rule="evenodd"/></g><g id="p" transform="matrix(8.8364,0,0,8.8364,304.27,653.71)"><path id="q" d="m0 0 0.082 0.023 0.019 0.037 0.885 2.841 2e-3 6e-3 -0.024 0.084-0.026 0.015-0.013 4e-3c-0.462 0.138-0.903 0.377-1.287 0.72-0.384 0.344-0.67 0.758-0.858 1.204l-3e-3 9e-3 -0.019 0.026-0.088 0.015-5e-3 -2e-3 -2.73-1.181-6e-3 -3e-3 -0.028-0.021-0.015-0.083 2e-3 -6e-3c0.363-0.85 0.917-1.646 1.651-2.303 0.733-0.658 1.576-1.118 2.461-1.385" fill="#fff" fill-rule="evenodd"/></g><g id="r" transform="matrix(8.8364,0,0,8.8364,355.53,652.48)"><path id="s" d="m0 0 0.033 0.079-0.016 0.038-1.658 2.47-4e-3 6e-3 -0.081 0.034-0.028-0.01-0.011-8e-3c-0.397-0.275-0.86-0.468-1.367-0.552-0.51-0.083-1.011-0.047-1.477 0.087l-0.01 3e-3 -0.031 1e-3 -0.067-0.059-1e-3 -5e-3 -0.791-2.869-2e-3 -4e-3 -1e-3 -0.037 0.055-0.063 7e-3 -2e-3h-1e-3c0.889-0.25 1.857-0.317 2.829-0.157 0.972 0.159 1.859 0.526 2.622 1.048" fill="#fff" fill-rule="evenodd"/></g><g id="t" transform="matrix(8.8364,0,0,8.8364,388.9,691.64)"><path id="u" d="m0 0-0.041 0.075-0.04 0.01-2.966 0.232-6e-3 1e-3 -0.077-0.043-0.01-0.029v-0.014c-0.032-0.482-0.166-0.964-0.416-1.414-0.251-0.452-0.59-0.823-0.983-1.104l-9e-3 -7e-3 -0.021-0.024 5e-3 -0.088 3e-3 -5e-3 1.76-2.399 2e-3 -4e-3 0.029-0.024 0.083 4e-3 5e-3 4e-3c0.749 0.543 1.401 1.26 1.879 2.121 0.478 0.862 0.739 1.785 0.803 2.707" fill="#fff" fill-rule="evenodd"/></g><g id="v" transform="matrix(8.8364,0,0,8.8364,379,742.22)"><path id="w" d="m0 0-0.084 0.015-0.034-0.024-2.048-2.159-5e-3 -5e-3 -0.014-0.086 0.016-0.025 0.01-0.01c0.355-0.328 0.644-0.736 0.838-1.213 0.193-0.479 0.267-0.976 0.238-1.46l-1e-3 -0.01 7e-3 -0.031 0.071-0.052h5e-3l2.973-0.144h4e-3l0.036 6e-3 0.05 0.067v8e-3c0.05 0.922-0.096 1.88-0.465 2.794s-0.921 1.698-1.597 2.329" fill="#fff" fill-rule="evenodd"/></g><g id="x" transform="matrix(8.8364,0,0,8.8364,333.03,765.73)"><path id="y" d="m0 0-0.063-0.058-3e-3 -0.041 0.435-2.944 1e-3 -6e-3 0.059-0.065 0.03-3e-3 0.014 2e-3c0.476 0.077 0.976 0.053 1.47-0.09 0.497-0.143 0.934-0.392 1.297-0.713l7e-3 -6e-3 0.028-0.015 0.085 0.024 4e-3 4e-3 1.948 2.25 3e-3 3e-3 0.016 0.033-0.021 0.081-6e-3 4e-3h1e-3c-0.696 0.608-1.541 1.085-2.486 1.359-0.947 0.273-1.905 0.324-2.819 0.181" fill="#fff" fill-rule="evenodd"/></g><g id="z" transform="matrix(8.8364,0,0,8.8364,331.42,728.55)"><path id="aa" d="m0 0c-1.357 0-2.461-1.104-2.461-2.461 0-1.358 1.104-2.462 2.461-2.462s2.461 1.104 2.461 2.462c0 1.357-1.104 2.461-2.461 2.461m1.788-3.848c0.037 0.099 0.049 0.216 0.061 0.306l-0.16-0.134c-0.169-0.122-0.352-0.203-0.527-0.24l-0.477 0.519-6e-3 -4e-3 0.345-0.612c-0.09-0.157-0.223-0.308-0.396-0.433l-0.176-0.111c0.089-0.016 0.203-0.04 0.309-0.036-0.237-0.086-0.494-0.132-0.761-0.132-0.268 0-0.524 0.046-0.763 0.132 0.107-5e-3 0.221 0.02 0.311 0.036l-0.177 0.111c-0.171 0.125-0.305 0.276-0.395 0.433l0.345 0.612-6e-3 4e-3 -0.477-0.518c-0.176 0.036-0.358 0.117-0.528 0.239l-0.159 0.134c0.012-0.091 0.023-0.208 0.062-0.308-0.299 0.384-0.477 0.864-0.477 1.389l2e-3 0.074c0.027-0.107 0.089-0.212 0.133-0.295l0.051 0.202c0.066 0.203 0.169 0.378 0.293 0.513l0.681-0.138 2e-3 7e-3 -0.636 0.291c-0.019 0.178 1e-3 0.376 0.065 0.574l0.078 0.194c-0.087-0.042-0.203-0.093-0.289-0.166 0.297 0.444 0.746 0.776 1.272 0.924-0.098-0.058-0.183-0.155-0.252-0.227l0.208 0.015c0.211 0 0.408-0.044 0.573-0.118l0.08-0.689h7e-3l0.08 0.689c0.164 0.074 0.361 0.118 0.572 0.118l0.208-0.015c-0.069 0.071-0.154 0.168-0.252 0.226 0.526-0.148 0.974-0.479 1.27-0.922-0.085 0.072-0.2 0.123-0.287 0.165l0.078-0.194c0.064-0.199 0.084-0.396 0.065-0.575l-0.635-0.291 2e-3 -7e-3 0.681 0.138c0.123-0.134 0.226-0.31 0.292-0.512l0.05-0.202c0.045 0.083 0.107 0.187 0.133 0.293l2e-3 -0.072c0-0.524-0.178-1.005-0.475-1.387" fill="#fff" fill-rule="evenodd"/></g><g id="ab" transform="matrix(8.8364,0,0,8.8364,322.63,709.67)"><path id="ac" d="m0 0 0.38-1.17h1.23l0.38 1.17-0.995 0.723" fill="#fff" fill-rule="evenodd"/></g><g id="ad" transform="matrix(8.8364,0,0,8.8364,440.8,681.89)"><path id="ae" d="m0 0h-2.807v4.949h1.27v-3.825h1.537" fill="#fff" fill-rule="evenodd"/></g><g id="af" transform="matrix(8.8364,0,0,8.8364,442.66,699.25)"><path id="ag" d="m0 0c0 1.105 0.807 2.081 1.893 2.081 0.477 0 0.775-0.162 1.125-0.485v0.406h1.169v-3.967h-1.189v0.388s-0.425-0.484-1.168-0.484c-1.087 0-1.83 0.788-1.83 2.061m2.129 0.969c-0.566 0-0.928-0.426-0.928-0.949 0-0.55 0.343-1.003 0.889-1.003 0.528 0 0.966 0.395 0.966 0.97 0 0.581-0.406 0.982-0.927 0.982" fill="#fff" fill-rule="evenodd"/></g><g id="ah" transform="matrix(8.8364,0,0,8.8364,510.64,681.89)"><path id="ai" d="m0 0h-2.809v4.949h1.272v-3.825h1.537" fill="#fff" fill-rule="evenodd"/></g><path id="aj" d="m514.29 725.86c0 3.5346 2.8012 6.4506 6.2915 6.4506 3.4727 0 6.3446-2.7923 6.3446-6.3446 0-3.5876-2.8718-6.4948-6.4683-6.4948-3.4197 0-6.1678 2.7923-6.1678 6.3887m1.0074-43.97h10.436v35.063h-10.436z" fill-rule="evenodd"/><g id="ak" transform="matrix(8.8364,0,0,8.8364,530.23,700.11)"><path id="al" d="m0 0c0 1.072 0.673 1.983 1.703 1.983 0.495 0 0.832-0.161 1.168-0.523v0.446h1.132v-3.496c0-1.227-0.909-1.867-2.002-1.867-0.96 0-1.798 0.491-1.924 1.383h1.327c0.165-0.272 0.33-0.323 0.623-0.323 0.413 0 0.793 0.193 0.793 0.626 0 0.104 7e-3 0.195-6e-3 0.298-0.229-0.207-0.654-0.459-1.118-0.459-1.009 0-1.696 0.853-1.696 1.932m1.976 0.956c-0.553 0-0.826-0.458-0.826-0.949 0-0.511 0.298-0.932 0.819-0.932 0.591 0 0.909 0.48 0.909 0.925 0 0.53-0.293 0.956-0.902 0.956" fill="#fff" fill-rule="evenodd"/></g><g id="am" transform="matrix(8.8364,0,0,8.8364,570.1,699.25)"><path id="an" d="m0 0c0 1.105 0.806 2.081 1.893 2.081 0.476 0 0.775-0.162 1.125-0.485v0.406h1.169v-3.967h-1.189v0.388s-0.426-0.484-1.168-0.484c-1.087 0-1.83 0.788-1.83 2.061m2.128 0.969c-0.566 0-0.927-0.426-0.927-0.949 0-0.55 0.342-1.003 0.889-1.003 0.527 0 0.965 0.395 0.965 0.97 0 0.581-0.406 0.982-0.927 0.982" fill="#fff" fill-rule="evenodd"/></g><g id="ao" transform="matrix(8.8364,0,0,8.8364,646.53,682)"><path id="ap" d="m0 0v6.857h-1.045l-2.02-0.55 0.274-1.068 1.441 0.437v-5.676" fill="#fff" fill-rule="evenodd"/></g><path id="aq" d="m657.11 682.03h3.2872v60.592h-3.2872z"/><path id="ar" d="m734.32 682.03h3.2872v60.592h-3.2872z"/><g id="as" transform="matrix(8.8364,0,0,8.8364,760.02,680.92)"><path id="at" d="m0 0c1.725 0 2.943 0.844 2.943 2.166 0 1.019-0.893 1.598-1.695 1.69v0.021c0.7 0.193 1.471 0.722 1.471 1.596 0 0.926-0.801 1.547-2.131 1.547-1.024 0-1.765-0.407-2.131-0.723l0.538-0.874c0.275 0.233 0.782 0.498 1.33 0.498 0.568 0 0.984-0.234 0.984-0.712 0-0.641-0.812-1.048-1.826-1.069v-0.936c1.187 0 2.009-0.264 2.009-1.047 0-0.692-0.619-1.069-1.512-1.069-0.497 0-1.004 0.102-1.208 0.173l-0.233-1.068c0.253-0.082 0.792-0.193 1.461-0.193" fill="#fff" fill-rule="evenodd"/></g><g id="au" transform="matrix(8.8364,0,0,8.8364,665.31,669.71)"><path id="av" d="m0 0 4.566 5.42c0.412 0.487 0.85 1.056 0.85 1.628 0 0.9-0.844 1.69-1.805 1.69-0.929 0-1.705-0.713-1.767-1.624l-0.01-0.139h-1.548l0.02 0.167c0.214 1.847 1.48 2.995 3.305 2.995 1.846 0 3.292-1.335 3.292-3.038 0-0.735-0.282-1.492-0.775-2.076l-3.067-3.625h3.842v-1.398h-6.903" fill="#fff" fill-rule="evenodd"/></g></g><g id="aw"><path id="ax" d="m4937.3 70.51a412.5 412.5 0 0 0-412.5 412.5 412.5 412.5 0 0 0 412.5 412.5 412.5 412.5 0 0 0 412.5-412.5 412.5 412.5 0 0 0-412.5-412.5zm0 17.855a394.65 394.64 0 0 1 394.64 394.64 394.65 394.64 0 0 1-394.64 394.64 394.65 394.64 0 0 1-394.65-394.64 394.65 394.64 0 0 1 394.65-394.64z" style="paint-order:stroke fill markers"/><g id="ay"><path id="az" d="m4793.6 317.88h63.977v214.25h35.616v57.181h-35.616v61.082l-65.1 0.013v-61.091h-142.81v-55.978l143.94-215.44m-79.138 214.25h77.606v-116.41z" stroke-width="1.0213"/><path id="ba" d="m4955.4 317.91h67.403v135.69h19.014l83.495-135.69 74.278-3.3e-4 -101.81 163.81 120.25 168.66h-75.692l-98.511-138.72h-21.022v138.72h-67.403z" stroke-width=".86565"/></g></g></g></svg>
