<svg id="a" version="1.0" viewBox="0 0 485.5 265.8" xml:space="preserve" xmlns="http://www.w3.org/2000/svg">
<g id="b">
	<g id="c">
		<g id="d" fill="#d90042">
			<path id="e" d="m470.6 127h-4.5l-2.5 11.7h-1.8l2.5-11.7h-4.4l0.3-1.5h10.7z"/>
			<path id="f" d="m472.4 125.5h2.4l1.8 11.4 6.5-11.4h2.4l-2.8 13.2h-1.7l2.7-11.6-6.7 11.6h-1.7l-1.7-11.6-2.3 11.6h-1.7z"/>
		</g>
	</g>
	<g id="g">
		<g id="h" clip-rule="evenodd" fill="#fff" fill-rule="evenodd">
			<path id="i" d="m47.5 23.1c6.8-12.8 22.7-23.1 35.4-23.1h89.3l-59.8 113.1h-112.4z"/>
			<path id="j" d="m229.9 56.7c4.8-9 16-16.3 25-16.3h61.1l-29.5 56.5c-4.8 9-16 16.3-25 16.3h-61.1z"/>
			<path id="k" d="m332.3 8.9c2.6-4.8 8.5-8.6 13.3-8.6h32l-17.1 31.9c-2.6 4.8-8.5 8.6-13.3 8.6h-32z"/>
			<path id="l" d="m153.4 201.2h-88.2l47.1-88.1h88.3z"/>
			<path id="m" d="m153.4 201.2h61.9l-28.2 52.6c-3.5 6.6-11.8 12-18.4 12h-49.9z"/>
		</g>
		<path id="n" d="m321 141.2-16.9 31.9c-1.1 2.1 0.3 3.6 2.4 3.8 1.5 0.1 3.1 0 5.2-0.9l-6.8 12.8c-2.4 0.6-3.7 1-6 1-10 0-14.7-6.8-10.3-15.2l28.5-53.6c1.9-3.5 6.2-6.3 9.7-6.3h8.3l-6.7 12.6h8.6l-7.3 13.8zm-85.7 2.4-0.3 0.6-7 13.2-13.1 24.7c-1.1 2.1-3.1 3.9-5.3 5.1-1.5 0.8-3.1 1.3-4.5 1.3h-8.5l16.5-31.1 7.3-13.8c0-0.2 0.1-0.4 0.2-0.5 0.7-1.9-0.1-3.3-2-3.3-2.1 0-4.7 1.7-5.9 3.8l-7.3 13.8-13.1 24.7c-1.9 3.5-6.3 6.4-9.8 6.4h-8.5l23.9-44.9c5.1-10.5 11.1-17.7 28.4-17.7h22.5c8.6 0 15.8 5 9.1 17.7l-20.5 38.5c-1.9 3.5-6.3 6.4-9.8 6.4h-8.5l16.5-31.1 7.3-13.8c1.1-2.1 0.3-3.8-1.8-3.8-2 0-4.6 1.7-5.8 3.8zm176.6-2.7-5.3 10h-14.4l4.3-8.1c1.1-2.1 0.3-3.8-1.8-3.8s-4.7 1.7-5.8 3.8l-14.5 27.2-1.3 2.4c-1.1 2.1-0.3 3.8 1.8 3.8s4.7-1.4 6.9-5.9l2-3.7h-3.6l5.8-10.9h18l-9.9 18.6-0.1 0.2c-4.5 8.4-16.2 15.2-26.3 15.2-10 0-14.6-6.8-10.1-15.2l2.4-4.6 15.6-29.4c4.5-8.4 16.2-15.2 26.3-15.2s14.6 6.8 10.1 15.2zm-80.8 31.6c-1.1 2.1-0.3 3.8 1.8 3.8s4.7-1.7 5.8-3.8l15.7-29.5c1.1-2.1 0.3-3.8-1.8-3.8s-4.7 1.7-5.8 3.8zm38.7-31.4-17.8 33.3-0.1 0.2c-4.5 8.4-16.2 15.2-26.3 15.2-10 0-14.6-6.8-10.1-15.2l18-33.9c4.5-8.4 16.2-15.2 26.3-15.2s14.6 6.8 10.1 15.2zm-106.9 31.4c-1.1 2.1-0.3 3.8 1.8 3.8s4.7-1.7 5.8-3.8l15.8-29.5c1.1-2.1 0.3-3.8-1.8-3.8s-4.7 1.7-5.8 3.8zm38.1-31.4-17.8 33.3-0.1 0.2c-4.5 8.4-16.2 15.2-26.3 15.2-10 0-14.6-6.8-10.1-15.2l18.1-33.9c4.5-8.4 16.2-15.2 26.3-15.2s14.6 6.8 10.1 15.2zm130 1.8-0.7 1.3-6.3 11.9h2.5c2.8 0 6.3-2.3 7.8-5.1l4.3-8.1c1.1-2.1 0.3-3.8-1.8-3.8s-4.7 1.7-5.8 3.8zm-14.1 26.5-6.8 12.8c-1.9 3.5-6.2 6.3-9.7 6.3h-8.5l18.2-34.2 5.5-10.3c7.8-15.2 17.3-18.5 28.4-18.5 12.6 0 14.2 8.3 8.7 18.6l-0.4 0.7-4.8 9-0.3 0.6c-4.5 8.5-16.5 15.4-26.8 15.4-1.2-0.1-2.4-0.2-3.5-0.4z" fill="#d90042"/>
	</g>
</g>
</svg>
