<?xml version="1.0" encoding="UTF-8"?>
<!-- Generator: Adobe Illustrator 16.0.0, SVG Export Plug-In . SVG Version: 6.00 Build 0)  -->
<!DOCTYPE svg  PUBLIC '-//W3C//DTD SVG 1.1//EN'  'http://www.w3.org/Graphics/SVG/1.1/DTD/svg11.dtd'>
<svg id="Capa_1" width="600px" height="209.06px" enable-background="new 0 0 600 209.061" version="1.1" viewBox="0 0 600 209.06" xml:space="preserve" xmlns="http://www.w3.org/2000/svg">
	<path d="m219.12 47.031v144.93c0 9.474 7.626 17.102 17.101 17.102h346.67c9.474 0 17.101-7.627 17.101-17.102v-127.83c0-9.474-7.627-17.1-17.101-17.1h-363.77l-2e-3 -2e-3z" fill="#01DA95"/>
	<path d="m219.12 47.031-0.035 1e-3 0.035-1e-3z" fill="#ff0"/>
	<path d="m170 44.454c-1.005-8.182-6.372-45.429-30.484-44.435-20.813 1.101-26.864 20.62-33.305 35.887-7.676 20.891-10.34 25.154-21.217 25.154-11.762-0.548-18.867-16.947-23.606-23.841-3.848-5.728-14.06-23.396-28.622-22.846-7.931 0-20.325 4.036-28.144 24.084-7.077 21.547-4.396 43.271-2.544 52.591 6.19 23.088 9.822 36.686 20.705 35.119 11.697-0.819 5.188-18.55 2.158-27.846-1.938-5.787-8.738-25.066-0.952-29.562 8.175-5.274 15.586 14.716 23.323 26.548 6.972 12.128 11.576 26.149 35.306 26.6 14.833 0 23.54-8.551 27.844-16.697 6.358-13.135 14.08-57.575 30.852-57.999 12.234 0.487 8.956 20.901 8.786 28.311-0.481 8.22-5.969 25.278 7.764 26.954 15.983 0.277 14.142-43.077 12.136-58.022z" fill="#fff"/>
<g fill="#fff">
	<path d="m309.35 89.818v13.476h-35.149v17.968h28.299v13.477h-28.299v33.689h-14.601v-78.612l49.75 2e-3z"/>
	<path d="m346.29 167.53v-9.097c-2.097 2.995-4.642 5.428-7.637 7.3-2.919 1.797-6.214 2.695-9.882 2.695-5.091 0-9.283-1.422-12.578-4.268-3.219-2.845-4.829-7.112-4.829-12.802v-40.428h13.926v36.272c0 3.369 0.749 5.766 2.246 7.188 1.497 1.423 3.443 2.134 5.84 2.134 1.646 0 3.256-0.486 4.828-1.46 1.572-1.048 2.958-2.545 4.155-4.491 1.198-1.947 2.134-4.343 2.808-7.188 0.749-2.845 1.123-6.14 1.123-9.883v-22.572h13.925v56.601l-13.925-1e-3zm-11.117-79.508h18.866l-15.386 16.621h-10.668l7.188-16.621z"/>
	<path d="m402.52 167.19c-0.973 0.299-2.133 0.562-3.48 0.786-1.273 0.299-2.92 0.449-4.941 0.449-5.915 0-10.706-1.723-14.375-5.166-3.594-3.444-5.391-8.685-5.391-15.722v-24.706h-8.76v-11.904h8.76v-14.149l13.926-8.76v22.909h14.936v11.904h-14.936v24.481c0 3.519 0.636 5.951 1.909 7.299 1.272 1.273 3.106 1.909 5.503 1.909 1.272 0 2.433-0.149 3.48-0.449 1.049-0.299 2.172-0.748 3.369-1.348v12.467z"/>
	<path d="m464.27 139.23c0 4.342-0.562 8.31-1.685 11.903-1.048 3.594-2.657 6.663-4.829 9.208-2.171 2.546-4.866 4.53-8.085 5.952-3.22 1.423-6.963 2.134-11.23 2.134-1.722 0-3.332-0.225-4.829-0.674-1.497-0.374-2.845-0.898-4.043-1.572-1.197-0.674-2.208-1.385-3.032-2.134-0.823-0.823-1.422-1.609-1.797-2.358v5.84h-13.925v-79.512h13.925v28.075c1.273-1.572 3.145-2.957 5.615-4.155 2.546-1.272 5.241-1.908 8.086-1.908 4.268 0 8.011 0.711 11.23 2.133 3.219 1.423 5.914 3.407 8.085 5.952 2.172 2.546 3.781 5.615 4.829 9.209 1.123 3.594 1.685 7.562 1.685 11.903v4e-3zm-14.599 0c0-5.615-1.273-9.883-3.818-12.803-2.546-2.994-5.652-4.492-9.321-4.492-3.668 0-6.775 1.498-9.32 4.492-2.471 2.92-3.706 7.188-3.706 12.803 0 5.614 1.235 9.919 3.706 12.914 2.545 2.92 5.652 4.38 9.32 4.38 3.669 0 6.775-1.46 9.321-4.38 2.545-2.994 3.818-7.299 3.818-12.914z"/>
	<path d="m469.18 139.23c0-4.118 0.637-7.937 1.909-11.455 1.273-3.594 3.145-6.7 5.615-9.32 2.471-2.621 5.466-4.68 8.984-6.177 3.594-1.498 7.674-2.246 12.24-2.246 4.567 0 8.61 0.748 12.129 2.246 3.594 1.497 6.626 3.556 9.097 6.177 2.47 2.62 4.342 5.727 5.614 9.32 1.273 3.519 1.909 7.337 1.909 11.455 0 4.117-0.636 7.973-1.909 11.566-1.272 3.519-3.145 6.588-5.614 9.209-2.471 2.62-5.503 4.679-9.097 6.177-3.519 1.497-7.562 2.245-12.129 2.245-4.566 0-8.646-0.748-12.24-2.245-3.519-1.498-6.514-3.557-8.984-6.177-2.471-2.621-4.342-5.69-5.615-9.209-1.272-3.593-1.909-7.449-1.909-11.566zm14.599 0c0 2.32 0.3 4.529 0.898 6.625 0.674 2.097 1.609 3.931 2.808 5.503 1.197 1.572 2.657 2.845 4.379 3.818 1.797 0.898 3.818 1.348 6.064 1.348s4.229-0.449 5.952-1.348c1.797-0.973 3.294-2.246 4.492-3.818 1.197-1.572 2.096-3.406 2.695-5.503 0.674-2.096 1.011-4.305 1.011-6.625 0-2.321-0.337-4.53-1.011-6.626-0.6-2.097-1.498-3.931-2.695-5.503-1.198-1.572-2.695-2.808-4.492-3.706-1.723-0.973-3.706-1.46-5.952-1.46s-4.268 0.487-6.064 1.46c-1.722 0.898-3.182 2.134-4.379 3.706-1.198 1.572-2.134 3.406-2.808 5.503-0.598 2.096-0.898 4.305-0.898 6.626z"/>
	<path d="m549.16 88.919v79.507h-13.925v-79.507h13.925z"/>
</g>
</svg>
