<?xml version="1.0" encoding="UTF-8"?>
<!-- Created with Inkscape (http://www.inkscape.org/) -->
<svg id="svg5785" width="800" height="227.08" version="1.1" viewBox="0 0 211.67 60.082" xmlns="http://www.w3.org/2000/svg" xmlns:cc="http://creativecommons.org/ns#" xmlns:dc="http://purl.org/dc/elements/1.1/" xmlns:rdf="http://www.w3.org/1999/02/22-rdf-syntax-ns#" xmlns:xlink="http://www.w3.org/1999/xlink">
 <defs id="defs5779">
  <clipPath id="clipPath4200">
   <path id="path4198" d="M 0,1275.59 H 595.28 V 0 H 0 Z"/>
  </clipPath>
  <clipPath id="clipPath4240">
   <path id="path4238" d="m416.79 559.35h65.421v-20.746h-65.421z"/>
  </clipPath>
  <clipPath id="clipPath3124">
   <path id="path3122" d="m426.14 558.64c-3.621 0-6.721-2.487-7.35-5.898l-0.93-5.047c-0.806-4.371 2.709-8.377 7.35-8.377h55.325c3.621 0 6.721 2.487 7.35 5.898l0.93 5.047c0.807 4.371-2.709 8.377-7.349 8.377z"/>
  </clipPath>
  <clipPath id="clipPath3048">
   <path id="path3046" d="M 0,1275.59 H 595.28 V 0 H 0 Z"/>
  </clipPath>
  <clipPath id="clipPath3056">
   <path id="path3054" d="m422.37 555.2h61.932v-7.572h-61.932z"/>
  </clipPath>
  <linearGradient id="linearGradient3038" x2="1" gradientTransform="matrix(0 19.322 19.322 0 453.33 539.32)" gradientUnits="userSpaceOnUse">
   <stop id="stop3034" stop-color="#1a1a1a" offset="0"/>
   <stop id="stop3036" stop-color="#333" offset="1"/>
  </linearGradient>
  <linearGradient id="linearGradient2968" x2="1" gradientTransform="matrix(0 20.746 20.746 0 453.33 538.61)" gradientUnits="userSpaceOnUse">
   <stop id="stop2964" stop-color="#333" offset="0"/>
   <stop id="stop2966" stop-color="#4e4d4d" offset="1"/>
  </linearGradient>
 </defs>
 <metadata id="metadata5782">
  <rdf:RDF>
   <cc:Work rdf:about="">
    <dc:format>image/svg+xml</dc:format>
    <dc:type rdf:resource="http://purl.org/dc/dcmitype/StillImage"/>
    <dc:title/>
   </cc:Work>
  </rdf:RDF>
 </metadata>
 <g id="layer1" transform="translate(20.251 -82.341)">
  <g id="g2952" transform="matrix(2.8962 0 0 -2.8962 -1227.3 1702.3)">
   <g id="g2954">
    <g id="g2960">
     <g id="g2962">
      <path id="path2970" d="m425.41 559.35c-3.719 0-6.9-2.67-7.546-6.332l-0.955-5.421c-0.828-4.69 2.782-8.992 7.546-8.992h56.8c3.719 0 6.9 2.67 7.546 6.332l0.956 5.42c0.827 4.691-2.782 8.993-7.546 8.993z" fill="url(#linearGradient2968)"/>
     </g>
    </g>
   </g>
  </g>
  <g id="g3022" transform="matrix(2.8962 0 0 -2.8962 -1227.3 1702.3)">
   <g id="g3024">
    <g id="g3030">
     <g id="g3032">
      <path id="path3040" d="m426.14 558.64c-3.621 0-6.721-2.487-7.35-5.898l-0.93-5.047c-0.806-4.371 2.709-8.377 7.35-8.377h55.325c3.621 0 6.721 2.487 7.35 5.898l0.93 5.047c0.807 4.371-2.709 8.377-7.349 8.377z" fill="url(#linearGradient3038)"/>
     </g>
    </g>
   </g>
  </g>
  <g id="g3042" transform="matrix(2.8962 0 0 -2.8962 -1227.3 1702.3)">
   <g id="g3044" clip-path="url(#clipPath3048)">
    <g id="g3050">
     <g id="g3116">
      <g id="g3114" clip-path="url(#clipPath3056)" opacity=".12">
       <g id="g3060" transform="translate(437.5 550.37)">
        <path id="path3058" d="m0 0c-0.075 1.213-0.312 2.319-0.727 3.277-0.396 0.915-1.033 1.502-1.848 1.554-0.904 0.058-1.941-0.542-2.485-1.705-0.502-1.072-0.903-2.173-1.146-2.734-0.247-0.571-0.609-0.921-1.167-0.98-0.682-0.072-1.27 0.423-1.699 1.129-0.375 0.615-1.119 1.786-1.517 2.18-0.374 0.37-0.801 0.833-1.689 0.818-0.702-0.011-1.999-0.357-2.591-2.775-0.171-0.697-0.27-1.413-0.255-2.197 0.012 0.673 0.105 1.3 0.255 1.911 0.592 2.418 1.889 2.764 2.591 2.776 0.888 0.014 1.315-0.449 1.689-0.818 0.398-0.394 1.142-1.566 1.517-2.181 0.429-0.705 1.017-1.2 1.699-1.129 0.558 0.06 0.92 0.41 1.167 0.979 0.243 0.563 0.644 1.664 1.146 2.736 0.544 1.163 1.581 1.763 2.485 1.705 0.815-0.052 1.452-0.639 1.848-1.555 0.415-0.957 0.652-2.063 0.727-3.276 0.018-0.28 0.027-0.533 0.029-0.775 5e-3 0.328-5e-3 0.668-0.029 1.06" fill="#010101"/>
       </g>
       <g id="g3064" transform="translate(444.7 552)">
        <path id="path3062" d="m0 0c-1.9 0-3.209-1.115-3.586-3.294-0.065-0.376-0.097-0.736-0.082-1.072 8e-3 0.252 0.034 0.514 0.082 0.786 0.377 2.179 1.686 3.294 3.586 3.294 1.51 0 2.334-0.642 2.393-2.032 0.045 1.588-0.784 2.318-2.393 2.318" fill="#010101"/>
       </g>
       <g id="g3068" transform="translate(451.93 554.16)">
        <path id="path3066" d="m0 0c0.796 0 1.638-0.116 2.262-0.323l0.096 0.254c-0.631 0.228-1.521 0.354-2.358 0.354-1.85 0-3.364-0.772-3.669-2.533-0.046-0.262-0.058-0.494-0.046-0.705 7e-3 0.132 0.02 0.269 0.046 0.419 0.305 1.762 1.819 2.534 3.669 2.534" fill="#010101"/>
       </g>
       <g id="g3072" transform="translate(460.36 551.46)">
        <path id="path3070" d="m0 0c-0.296 0.342-0.77 0.532-1.391 0.532-0.752 0-1.452-0.273-2.042-0.623l-0.018-0.297c0.594 0.356 1.301 0.634 2.06 0.634 0.621 0 1.095-0.189 1.391-0.532 0.296-0.349 0.439-0.855 0.463-1.458 0.016 0.729-0.122 1.342-0.463 1.744" fill="#010101"/>
       </g>
       <g id="g3076" transform="translate(465.33 552)">
        <path id="path3074" d="m0 0c-2.154 0-3.379-1.293-3.724-3.281-0.059-0.348-0.084-0.672-0.074-0.974 9e-3 0.219 0.033 0.448 0.074 0.688 0.345 1.989 1.57 3.281 3.724 3.281 1.777 0 2.615-0.882 2.66-2.309 0.063 1.594-0.766 2.595-2.66 2.595" fill="#010101"/>
       </g>
       <g id="g3080" transform="translate(472.97 551.98)">
        <path id="path3078" d="m0 0c-0.591 0-1.443-0.226-2.002-0.662l-0.015-0.295c0.559 0.443 1.421 0.671 2.017 0.671 0.083 0 0.187-9e-3 0.265-0.019l0.047 0.28c-0.074 0.012-0.21 0.025-0.312 0.025" fill="#010101"/>
       </g>
       <g id="g3084" transform="translate(476.78 552.11)">
        <path id="path3082" d="m0 0-0.05-0.537h1.56l0.049 0.537z" fill="#010101"/>
       </g>
       <g id="g3088" transform="translate(474.92 551.53)">
        <path id="path3086" d="m0 0 0.239 1.382c0.558 0.16 1.235 0.258 1.808 0.264l0.05 0.288c-0.583 0-1.285-0.102-1.858-0.267l-0.239-1.381-1.085-0.127-0.171-0.926h0.05l0.121 0.64z" fill="#010101"/>
       </g>
       <g id="g3092" transform="translate(482.3 551.71)">
        <path id="path3090" d="m0 0c0.598 0 1.316-0.108 1.933-0.319l0.073 0.262c-0.632 0.229-1.385 0.343-2.006 0.343-1.862 0-2.846-0.849-3.045-2.002-0.036-0.206-0.043-0.386-0.031-0.547 6e-3 0.083 0.014 0.169 0.031 0.261 0.199 1.153 1.183 2.002 3.045 2.002" fill="#010101"/>
       </g>
       <g id="g3096" transform="translate(456.93 551.38)">
        <path id="path3094" d="m0 0 0.01 0.166h-0.018l-0.011-0.174c6e-3 4e-3 0.013 5e-3 0.019 8e-3" fill="#010101"/>
       </g>
       <g id="g3100" transform="translate(470.97 551.33)">
        <path id="path3098" d="m0 0 0.01 0.217h-0.014l-0.011-0.224c5e-3 3e-3 0.01 3e-3 0.015 7e-3" fill="#010101"/>
       </g>
       <g id="g3104" transform="translate(476.78 552.11)">
        <path id="path3102" d="m0 0 0.235 1.217c-0.015 0-0.033 0.07-0.049 0.07l-0.236-1.287z" fill="#010101"/>
       </g>
       <g id="g3108" transform="translate(455.37 552.11)">
        <path id="path3106" d="m0 0-0.055-0.537h1.608l0.017 0.537z" fill="#010101"/>
       </g>
       <g id="g3112" transform="translate(469.41 552.11)">
        <path id="path3110" d="m0 0-0.055-0.537h1.612l0.013 0.537z" fill="#010101"/>
       </g>
      </g>
     </g>
    </g>
   </g>
  </g>
  <g id="g3118" transform="matrix(2.8962 0 0 -2.8962 -1227.3 1702.3)">
   <g id="g3120" clip-path="url(#clipPath3124)">
    <g id="g3126" transform="translate(483.86 541.43)">
     <path id="path3128" d="m0 0 1e-3 1e-3 -1e-3 2e-3s1e-3 2e-3 1e-3 3e-3c1e-3 3e-3 1e-3 6e-3 0 7e-3l-1e-3 1e-3 -0.031 0.022 0.028-0.03c0-3e-3 -1e-3 -6e-3 -2e-3 -9e-3 -0.227-0.128-0.4-0.293-0.423-0.635 0.324 0.146 0.361 0.403 0.428 0.638" fill="#68b430"/>
    </g>
    <g id="g3130" transform="translate(483.86 541.44)">
     <path id="path3132" d="m0 0c-1e-3 -2e-3 -1e-3 -4e-3 -2e-3 -6e-3v-5e-3z" fill="#68b430"/>
    </g>
    <g id="g3134" transform="translate(463.82 538.89)">
     <path id="path3136" d="m0 0c-0.196 0.085-0.394 0.171-0.59 0.256-0.017-0.039-0.035-0.078-0.054-0.118 0.194-0.1 0.388-0.2 0.582-0.299 0.02 0.054 0.041 0.107 0.062 0.161" fill="#68b430"/>
    </g>
    <g id="g3138" transform="translate(468.3 538.37)">
     <path id="path3140" d="m0 0-0.04 9e-3 0.012-0.041z" fill="#68b430"/>
    </g>
    <g id="g3142" transform="translate(444.02 543.03)">
     <path id="path3144" d="m0 0-0.044 0.015 0.01-0.044z" fill="#68b430"/>
    </g>
    <g id="g3146" transform="translate(488.86 543.79)">
     <path id="path3148" d="m0 0c-0.016 3e-3 -0.041 0.012-0.044 8e-3 -9e-3 -0.017-0.011-0.037-0.015-0.056 0.016 3e-3 0.034 3e-3 0.046 0.012 8e-3 6e-3 9e-3 0.024 0.013 0.036" fill="#68b430"/>
    </g>
    <g id="g3150" transform="translate(488.07 543.51)">
     <path id="path3152" d="m0 0c-7e-3 0.044-0.015 0.088-0.022 0.132-0.104-0.04-0.208-0.081-0.313-0.121 0.011-0.032 0.023-0.063 0.033-0.094 0.101 0.027 0.201 0.055 0.302 0.083" fill="#68b430"/>
    </g>
    <g id="g3154" transform="translate(443.19 543.78)">
     <path id="path3156" d="m0 0c0.01-0.012 0.019-0.025 0.027-0.038 1e-3 -2e-3 2e-3 -3e-3 3e-3 -5e-3 0.011-0.014 0.022-0.025 0.035-0.03 0.018-6e-3 0.049 0.03 0.075 0.048-0.022 0.026-0.038 0.063-0.067 0.074-8e-3 3e-3 -0.019-5e-3 -0.033-0.016s-0.027-0.024-0.04-0.033" fill="#68b430"/>
    </g>
    <g id="g3158" transform="translate(483.89 538.84)">
     <path id="path3160" d="m0 0c0.035-0.015 0.074-0.032 0.121-0.053 0.025 0.09 0.043 0.151 0.061 0.211-0.047 0.013-0.11 0.05-0.139 0.032-0.028-0.016-0.052-0.041-0.074-0.067s-0.043-0.056-0.066-0.081c0.032-0.013 0.062-0.026 0.097-0.042" fill="#68b430"/>
    </g>
    <g id="g3162" transform="translate(462.51 540.18)">
     <path id="path3164" d="m0 0c-4e-3 0.047 7e-3 0.122-0.016 0.134-0.061 0.032-0.136 0.037-0.207 0.053 4e-3 -0.046 8e-3 -0.094 0.013-0.166 0.067-6e-3 0.139-0.013 0.21-0.021" fill="#68b430"/>
    </g>
    <g id="g3166" transform="translate(483.05 542.47)">
     <path id="path3168" d="m0 0c-0.087-0.039-0.174-0.076-0.26-0.119-0.015-8e-3 -0.02-0.038-0.03-0.058 0.075-0.031 0.15-0.061 0.226-0.093z" fill="#68b430"/>
    </g>
    <g id="g3170" transform="translate(487.3 554.62)">
     <path id="path3172" d="m0 0c6e-3 0.021 0.017 0.046 0.023 0.068 8e-3 0.023 0.012 0.044 6e-3 0.062-0.012 0.032-0.072 0.045-0.111 0.066l-0.053-0.175c0.045-7e-3 0.09-0.014 0.135-0.022z" fill="#68b430"/>
    </g>
    <g id="g3174" transform="translate(486.59 539.59)">
     <path id="path3176" d="m0 0-0.073 0.176c-0.131-0.049-0.262-0.098-0.392-0.148l0.085-0.199c0.127 0.058 0.253 0.114 0.38 0.171" fill="#68b430"/>
    </g>
    <g id="g3178" transform="translate(480.47 548.82)">
     <path id="path3180" d="m0 0c-0.036 4e-3 -0.071 8e-3 -0.107 0.013-0.014-0.11-0.029-0.219-0.042-0.328 0.038-4e-3 0.076-9e-3 0.114-0.013z" fill="#68b430"/>
    </g>
    <g id="g3182" transform="translate(480.19 542.36)">
     <path id="path3184" d="m0 0c-0.022 0.036-0.047 0.071-0.069 0.107l-0.323-0.213 0.071-0.109c0.107 0.072 0.215 0.144 0.321 0.215" fill="#68b430"/>
    </g>
    <g id="g3186" transform="translate(476.89 543.89)">
     <path id="path3188" d="m0 0c-0.024 0.154-0.034 0.272-0.069 0.382-6e-3 0.017-0.188 3e-3 -0.19-9e-3 -0.013-0.115-0.014-0.235 4e-3 -0.35 3e-3 -0.016 0.127-0.012 0.255-0.023" fill="#68b430"/>
    </g>
    <g id="g3190" transform="translate(458.92 550.19)">
     <path id="path3192" d="m0 0c0.247-0.634 0.433-1.111 0.617-1.588 0.187 0.644 0.026 1.143-0.617 1.588" fill="#68b430"/>
    </g>
    <g id="g3194" transform="translate(489.58 538.12)">
     <path id="path3196" d="m0 0c-2e-3 -1e-3 0.019-2e-3 0.019-2e-3s-0.017 3e-3 -0.019 2e-3" fill="#68b430"/>
    </g>
    <g id="g3198" transform="translate(488.58 541.83)">
     <path id="path3200" d="m0 0c0 9e-3 1e-3 0.017 1e-3 0.025 0-8e-3 -1e-3 -0.016-2e-3 -0.025z" fill="#68b430"/>
    </g>
    <g id="g3202" transform="translate(488.6 542.08)">
     <path id="path3204" d="m0 0 0.021-1e-3s-0.02 1e-3 -0.021 1e-3" fill="#68b430"/>
    </g>
    <g id="g3206" transform="translate(488.6 542.08)">
     <path id="path3208" d="m0 0c3e-3 0 0.021-1e-3 0.021-1e-3z" fill="#68b430"/>
    </g>
    <g id="g3210" transform="translate(488.6 542.08)">
     <path id="path3212" d="m0 0h2e-3z" fill="#68b430"/>
    </g>
    <g id="g3214" transform="translate(488.59 541.83)">
     <path id="path3216" d="m0 0c6e-3 -2e-3 0.011-3e-3 0.011-3e-3 5e-3 0.083 0.01 0.167 0.013 0.251-3e-3 -0.084-8e-3 -0.168-0.013-0.25 0 0-5e-3 1e-3 -0.011 2e-3" fill="#68b430"/>
    </g>
    <g id="g3218" transform="translate(488.58 541.83)">
     <path id="path3220" d="M 0,0 C 0,0 0.004,-0.002 0.007,-0.003 0.004,-0.001 0,0 0,0" fill="#68b430"/>
    </g>
    <g id="g3222" transform="translate(488.58 541.83)">
     <path id="path3224" d="m0 0s7e-3 -3e-3 0.013-5e-3l-4e-3 2e-3c-4e-3 1e-3 -9e-3 3e-3 -9e-3 3e-3" fill="#68b430"/>
    </g>
    <g id="g3226" transform="translate(488.59 542.08)">
     <path id="path3228" d="m0 0c-4e-3 -0.072-8e-3 -0.144-0.012-0.217 4e-3 0.072 8e-3 0.145 0.015 0.217z" fill="#68b430"/>
    </g>
    <g id="g3230" transform="translate(488.59 541.83)">
     <path id="path3232" d="m0 0 2e-3 -1e-3c7e-3 -1e-3 0.015-4e-3 0.015-4e-3 0 1e-3 -0.01 3e-3 -0.017 5e-3" fill="#68b430"/>
    </g>
    <g id="g3234" transform="translate(480.58 540.2)">
     <path id="path3236" d="m0 0c-0.017 4e-3 -0.038 0.015-0.049 9e-3s-0.01-0.031-0.013-0.048l0.051-0.012c4e-3 0.017 7e-3 0.034 0.011 0.051" fill="#68b430"/>
    </g>
    <g id="g3238" transform="translate(429.44 543.54)">
     <path id="path3240" d="m0 0c0.193 0.099 0.213 0.259 0.089 0.446-0.228 5e-3 -0.352-0.095-0.307-0.317 0.012-0.059 0.174-0.15 0.218-0.129" fill="#68b430"/>
    </g>
    <g id="g3242" transform="translate(427.81 542.88)">
     <path id="path3244" d="m0 0c0.01-0.026 0.051-0.041 0.079-0.06 0.011 0.031 0.037 0.067 0.028 0.09-9e-3 0.027-0.051 0.04-0.08 0.06-9e-3 -0.031-0.036-0.068-0.027-0.09" fill="#68b430"/>
    </g>
    <g id="g3246" transform="translate(423.8 541.43)">
     <path id="path3248" d="m0 0h1e-3c4e-3 0.017 0.012 0.035 0.017 0.053 4e-3 0.016 8e-3 0.033 3e-3 0.046-0.01 0.024-0.055 0.033-0.085 0.048-0.012-0.044-0.025-0.088-0.038-0.133 0.035-4e-3 0.069-9e-3 0.102-0.014" fill="#68b430"/>
    </g>
    <g id="g3250" transform="translate(468.63 543.73)">
     <path id="path3252" d="m0 0c-0.021 0.024-0.045 0.045-0.068 0.067-0.011-0.013-0.034-0.037-0.032-0.039 0.021-0.024 0.045-0.045 0.068-0.067 0.011 0.014 0.034 0.037 0.032 0.039" fill="#68b430"/>
    </g>
    <g id="g3254" transform="translate(420.43 553.72)">
     <path id="path3256" d="m0 0s-1e-3 0.011-2e-3 0.017v-2e-3c1e-3 -7e-3 3e-3 -0.015 2e-3 -0.015" fill="#68b430"/>
    </g>
    <g id="g3258" transform="translate(420.73 553.82)">
     <path id="path3260" d="m0 0c-0.1-0.024-0.199-0.049-0.3-0.074 0 0 0-4e-3 1e-3 -7e-3 -1e-3 3e-3 -1e-3 7e-3 -1e-3 7e-3 0.101 0.025 0.2 0.05 0.3 0.074" fill="#68b430"/>
    </g>
    <g id="g3262" transform="translate(420.43 553.72)">
     <path id="path3264" d="M 0,0 C 0,0 -0.001,0.006 -0.002,0.011 -0.001,0.006 -0.001,0 -0.001,0 0.1,0.024 0.199,0.049 0.3,0.074 0.376,0.091 0.45,0.106 0.524,0.122 0.562,0.111 0.599,0.1 0.614,0.094 0.599,0.1 0.562,0.111 0.526,0.123 L 0.522,0.146 0.525,0.122 C 0.45,0.106 0.376,0.091 0.301,0.074 L 0.297,0.098 0.301,0.074 C 0.199,0.049 0.1,0.024 0,0" fill="#68b430"/>
    </g>
    <g id="g3266" transform="translate(420.43 553.74)">
     <path id="path3268" d="m0 0s1e-3 -7e-3 2e-3 -0.013v4e-3c-1e-3 4e-3 -2e-3 9e-3 -2e-3 9e-3" fill="#68b430"/>
    </g>
    <g id="g3270" transform="translate(452.67 560.01)">
     <path id="path3272" d="m0 0s8e-3 1e-3 0.01 1e-3l-0.027-3e-3s0.023 1e-3 0.025 2e-3z" fill="#68b430"/>
    </g>
    <g id="g3274" transform="translate(443.63 538.67)">
     <path id="path3276" d="m0 0c-0.01 0.017-0.02 0.034-0.029 0.051-0.018-9e-3 -0.036-0.018-0.054-0.028 0.01-0.016 0.018-0.044 0.03-0.047 0.015-4e-3 0.035 0.015 0.053 0.024" fill="#68b430"/>
    </g>
    <g id="g3278" transform="translate(428.8 545)">
     <path id="path3280" d="m0 0c0.014 0.035-0.021 0.09-0.036 0.136v1e-3c-0.021-0.012-0.047-0.021-0.069-0.031-0.023-0.01-0.042-0.022-0.049-0.039-0.014-0.034 0.02-0.088 0.034-0.133 0.042 0.021 0.107 0.033 0.12 0.066" fill="#68b430"/>
    </g>
    <g id="g3282" transform="translate(437.06 538.41)">
     <path id="path3284" d="m0 0c0.024-1e-3 0.046 2e-3 0.059 0.014 0.011 9e-3 0.013 0.031 0.013 0.054 0 0.024-3e-3 0.05-2e-3 0.073-0.011-1e-3 -0.023-1e-3 -0.036-2e-3 -0.033-2e-3 -0.065-4e-3 -0.098-5e-3h-1e-3c-2e-3 -0.035-4e-3 -0.071-6e-3 -0.105 0-9e-3 -1e-3 -0.018-1e-3 -0.027 0.022 1e-3 0.049-2e-3 0.072-2e-3" fill="#68b430"/>
    </g>
    <g id="g3286" transform="translate(433.5 541.75)">
     <path id="path3288" d="m0 0c0.02-0.047 0.038-0.095 0.058-0.142 0.145 0.095 0.292 0.19 0.438 0.285 0.016 4e-3 0.032 8e-3 0.048 0.013l-9e-3 0.012c2e-3 1e-3 4e-3 2e-3 6e-3 4e-3 0 1e-3 0 3e-3 -1e-3 3e-3l-3e-3 3e-3h1e-3l-0.02 0.011 0.012-0.016c-0.017-0.013-0.036-0.024-0.053-0.036-0.16-0.046-0.318-0.091-0.477-0.137" fill="#68b430"/>
    </g>
    <g id="g3290" transform="translate(434.05 541.92)">
     <path id="path3292" d="m0 0-1e-3 -1e-3c1e-3 -6e-3 2e-3 -0.016 2e-3 -0.016z" fill="#68b430"/>
    </g>
    <g id="g3294" transform="translate(439.88 539.28)">
     <path id="path3296" d="m0 0c-0.022-0.045-0.036-0.072-0.05-0.099 0.022 4e-3 0.053 2e-3 0.061 0.015 9e-3 0.013-4e-3 0.041-0.011 0.084" fill="#68b430"/>
    </g>
    <g id="g3298" transform="translate(470.58 553.17)">
     <path id="path3300" d="m0 0-0.041-0.039 0.053-0.015z" fill="#68b430"/>
    </g>
    <g id="g3302" transform="translate(471.09 538.28)">
     <path id="path3304" d="m0 0c-0.196 0.086-0.393 0.171-0.59 0.257-0.017-0.04-0.035-0.079-0.053-0.118l0.581-0.299c0.02 0.053 0.041 0.106 0.062 0.16" fill="#68b430"/>
    </g>
    <g id="g3306" transform="translate(451.29 542.43)">
     <path id="path3308" d="m0 0-0.043 0.016 9e-3 -0.045z" fill="#68b430"/>
    </g>
    <g id="g3310" transform="translate(450.46 543.17)">
     <path id="path3312" d="m0 0c0.01-0.012 0.019-0.025 0.027-0.038 1e-3 -2e-3 2e-3 -3e-3 3e-3 -5e-3 0.011-0.014 0.022-0.025 0.035-0.03 0.018-6e-3 0.05 0.03 0.076 0.048-0.022 0.026-0.039 0.063-0.067 0.074-9e-3 3e-3 -0.02-5e-3 -0.034-0.015-0.013-0.011-0.027-0.024-0.04-0.033z" fill="#68b430"/>
    </g>
    <g id="g3314" transform="translate(469.77 539.57)">
     <path id="path3316" d="m0 0c-4e-3 0.046 7e-3 0.121-0.016 0.133-0.061 0.032-0.136 0.038-0.207 0.054 4e-3 -0.047 8e-3 -0.095 0.014-0.166 0.067-7e-3 0.138-0.014 0.209-0.021" fill="#68b430"/>
    </g>
    <g id="g3318" transform="translate(487.74 548.21)">
     <path id="path3320" d="m0 0c-0.035 4e-3 -0.071 9e-3 -0.107 0.013-0.014-0.11-0.028-0.219-0.042-0.328 0.038-4e-3 0.076-9e-3 0.114-0.013z" fill="#68b430"/>
    </g>
    <g id="g3322" transform="translate(487.46 541.75)">
     <path id="path3324" d="m0 0-0.07 0.108c-0.108-0.072-0.215-0.143-0.323-0.214 0.024-0.037 0.047-0.072 0.071-0.108z" fill="#68b430"/>
    </g>
    <g id="g3326" transform="translate(484.16 543.28)">
     <path id="path3328" d="m0 0c-0.024 0.154-0.033 0.271-0.069 0.382-5e-3 0.016-0.188 2e-3 -0.19-0.01-0.013-0.115-0.013-0.234 4e-3 -0.35 3e-3 -0.015 0.128-0.012 0.255-0.022" fill="#68b430"/>
    </g>
    <g id="g3330" transform="translate(466.18 549.59)">
     <path id="path3332" d="m0 0c0.247-0.634 0.433-1.11 0.618-1.587 0.186 0.644 0.025 1.142-0.618 1.587" fill="#68b430"/>
    </g>
    <g id="g3334" transform="translate(487.85 539.6)">
     <path id="path3336" d="m0 0c-0.017 4e-3 -0.038 0.016-0.049 9e-3 -0.011-6e-3 -9e-3 -0.031-0.013-0.048 0.017-4e-3 0.035-8e-3 0.051-0.012 4e-3 0.018 8e-3 0.034 0.011 0.051" fill="#68b430"/>
    </g>
    <g id="g3338" transform="translate(435.87 543.85)">
     <path id="path3340" d="m0 0c0.035 0.057-1e-3 0.209-0.057 0.257-0.054 0.049-0.226 0.06-0.259 0.019-0.222-0.276-0.572-0.495-0.496-1.02 0.439 0.148 0.629 0.448 0.812 0.744" fill="#68b430"/>
    </g>
    <g id="g3342" transform="translate(436.71 542.94)">
     <path id="path3344" d="m0 0c0.193 0.098 0.214 0.259 0.089 0.445-0.228 5e-3 -0.352-0.094-0.307-0.317 0.012-0.059 0.175-0.15 0.218-0.128" fill="#68b430"/>
    </g>
    <g id="g3346" transform="translate(435.08 542.27)">
     <path id="path3348" d="m0 0c0.01-0.026 0.052-0.04 0.079-0.06 0.011 0.031 0.037 0.068 0.028 0.09-9e-3 0.027-0.051 0.04-0.079 0.06-0.01-0.03-0.037-0.068-0.028-0.09" fill="#68b430"/>
    </g>
    <g id="g3350" transform="translate(431.07 540.82)">
     <path id="path3352" d="m0 0c4e-3 0.018 0.012 0.035 0.017 0.053 5e-3 0.017 8e-3 0.033 3e-3 0.047-9e-3 0.023-0.055 0.032-0.084 0.047-0.013-0.043-0.026-0.088-0.039-0.132z" fill="#68b430"/>
    </g>
    <g id="g3354" transform="translate(475.89 543.12)">
     <path id="path3356" d="m0 0c-0.021 0.024-0.045 0.046-0.068 0.067-0.011-0.013-0.034-0.036-0.032-0.039 0.021-0.024 0.045-0.045 0.069-0.066 0.01 0.013 0.033 0.036 0.031 0.038" fill="#68b430"/>
    </g>
    <g id="g3358" transform="translate(427.7 553.12)">
     <path id="path3360" d="m0 0s-2e-3 0.01-3e-3 0.017v-3e-3c1e-3 -7e-3 3e-3 -0.014 3e-3 -0.014" fill="#68b430"/>
    </g>
    <g id="g3362" transform="translate(428 553.21)">
     <path id="path3364" d="m0 0c-0.101-0.025-0.2-0.05-0.301-0.075 0 0 0-4e-3 1e-3 -6e-3 0 2e-3 -1e-3 6e-3 -1e-3 6e-3 0.101 0.025 0.2 0.05 0.301 0.075" fill="#68b430"/>
    </g>
    <g id="g3366" transform="translate(427.7 553.12)">
     <path id="path3368" d="m0 0s-2e-3 5e-3 -3e-3 0.01c1e-3 -5e-3 2e-3 -0.011 2e-3 -0.011 0.1 0.025 0.2 0.05 0.3 0.074 0.076 0.017 0.15 0.032 0.224 0.048 0.039-0.011 0.075-0.022 0.091-0.027-0.016 5e-3 -0.052 0.016-0.089 0.028l-4e-3 0.024 3e-3 -0.024c-0.075-0.017-0.149-0.032-0.223-0.048l-4e-3 0.024 3e-3 -0.025c-0.101-0.024-0.201-0.049-0.3-0.073" fill="#68b430"/>
    </g>
    <g id="g3370" transform="translate(427.69 553.14)">
     <path id="path3372" d="m0 0s1e-3 -6e-3 2e-3 -0.013v4e-3c-1e-3 4e-3 -2e-3 9e-3 -2e-3 9e-3" fill="#68b430"/>
    </g>
    <g id="g3374" transform="translate(420.06 559.07)">
     <path id="path3376" d="m0 0c9e-3 0.013-5e-3 0.042-9e-3 0.06-0.022-4e-3 -0.045-8e-3 -0.067-0.011l0.012-0.068c0.022 6e-3 0.053 5e-3 0.064 0.019" fill="#68b430"/>
    </g>
    <g id="g3378" transform="translate(422.06 545.42)">
     <path id="path3380" d="m0 0c-3e-3 -1e-3 -0.047-0.01-0.047-0.01l0.065 1e-3s-0.015 9e-3 -0.018 9e-3" fill="#68b430"/>
    </g>
    <g id="g3382" transform="translate(459.94 559.4)">
     <path id="path3384" d="m0 0s8e-3 1e-3 9e-3 2e-3l-0.027-3e-3s0.023 0 0.025 1e-3z" fill="#68b430"/>
    </g>
    <g id="g3386" transform="translate(436.07 544.39)">
     <path id="path3388" d="m0 0c0.014 0.036-0.021 0.09-0.035 0.137h-1e-3c-0.021-0.011-0.047-0.02-0.069-0.031-0.023-9e-3 -0.042-0.021-0.049-0.038-0.014-0.035 0.02-0.089 0.034-0.134 0.042 0.021 0.107 0.034 0.12 0.066" fill="#68b430"/>
    </g>
    <g id="g3390" transform="translate(440.77 541.14)">
     <path id="path3392" d="m0 0c0.02-0.047 0.038-0.095 0.058-0.142l0.438 0.285c0.016 4e-3 0.032 9e-3 0.048 0.013l-9e-3 0.012c2e-3 1e-3 4e-3 3e-3 6e-3 4e-3v3e-3s-3e-3 2e-3 -4e-3 3e-3h1e-3l-0.02 0.011 0.013-0.016c-0.017-0.012-0.037-0.024-0.054-0.036-0.159-0.045-0.318-0.091-0.477-0.137" fill="#68b430"/>
    </g>
    <g id="g3394" transform="translate(441.31 541.32)">
     <path id="path3396" d="m0 0c-1e-3 0-1e-3 -1e-3 -1e-3 -1e-3 1e-3 -6e-3 2e-3 -0.016 2e-3 -0.016z" fill="#68b430"/>
    </g>
    <g id="g3398" transform="translate(447.15 538.68)">
     <path id="path3400" d="m0 0c-0.022-0.045-0.036-0.072-0.05-0.099 0.022 4e-3 0.053 2e-3 0.061 0.015 9e-3 0.014-4e-3 0.041-0.011 0.084" fill="#68b430"/>
    </g>
    <g id="g3402" transform="translate(477.85 552.57)">
     <path id="path3404" d="m0 0-0.04-0.039 0.052-0.015z" fill="#68b430"/>
    </g>
    <g id="g3406" transform="translate(462.12 538.87)">
     <path id="path3408" d="m0 0-0.031 0.011 6e-3 -0.034z" fill="#fff"/>
    </g>
    <g id="g3410" transform="translate(461.09 538.94)">
     <path id="path3412" d="m0 0-0.034-8e-3 0.021-0.025z" fill="#fff"/>
    </g>
    <g id="g3414" transform="translate(464.26 555.41)">
     <path id="path3416" d="m0 0-0.029-0.022 0.033-0.015z" fill="#fff"/>
    </g>
    <g id="g3418" transform="translate(462.95 551.09)">
     <path id="path3420" d="m0 0c8e-3 0.013-0.047 0.087-0.055 0.084-0.046-0.016-0.086-0.047-0.129-0.074 0.034-0.051 0.054-0.082 0.074-0.114 0.038 0.035 0.084 0.063 0.11 0.104" fill="#fff"/>
    </g>
    <g id="g3422" transform="translate(458.96 538.63)">
     <path id="path3424" d="m0 0-0.047-0.011 0.031-0.035z" fill="#fff"/>
    </g>
    <g id="g3426" transform="translate(466.89 541.95)">
     <path id="path3428" d="m0 0-0.024-0.026 0.033-7e-3z" fill="#fff"/>
    </g>
    <g id="g3430" transform="translate(469.45 540.47)">
     <path id="path3432" d="m0 0c-0.016 0.021-0.03 0.04-0.046 0.061-9e-3 -0.015-0.025-0.029-0.025-0.043-1e-3 -0.014 0.016-0.027 0.026-0.04 0.015 7e-3 0.029 0.014 0.045 0.022" fill="#fff"/>
    </g>
    <g id="g3434" transform="translate(448.24 553.98)">
     <path id="path3436" d="m0 0c2e-3 0.012-0.018 0.028-0.026 0.042-0.015-0.01-0.037-0.019-0.04-0.031-2e-3 -0.012 0.016-0.029 0.026-0.042 0.015 0.01 0.037 0.018 0.04 0.031" fill="#fff"/>
    </g>
    <g id="g3438" transform="translate(448.2 550.08)">
     <path id="path3440" d="m0 0c-6e-3 0.011-0.03 0.013-0.047 0.019l-0.015-0.05c0.017-6e-3 0.034-0.011 0.05-0.017 5e-3 0.016 0.018 0.037 0.012 0.048" fill="#fff"/>
    </g>
    <g id="g3442" transform="translate(450.59 549.42)">
     <path id="path3444" d="m0 0c-9e-3 -0.015-0.019-0.028-0.033-0.053 0.028 0.011 0.05 0.02 0.071 0.028-0.013 8e-3 -0.025 0.016-0.038 0.025" fill="#fff"/>
    </g>
    <g id="g3446" transform="translate(450.62 539.47)">
     <path id="path3448" d="m0 0c-0.031 0.013-0.062 0.025-0.092 0.038-0.048-0.089-0.095-0.177-0.143-0.266l0.126-0.055c0.036 0.095 0.073 0.189 0.109 0.283" fill="#fff"/>
    </g>
    <g id="g3450" transform="translate(455.38 554.58)">
     <path id="path3452" d="m0 0c-0.019 6e-3 -0.036 0.012-0.054 0.018-0.011-0.033-0.023-0.064-0.035-0.096 0.019-6e-3 0.051-0.019 0.052-0.017 0.015 0.031 0.025 0.063 0.037 0.095" fill="#fff"/>
    </g>
    <g id="g3454" transform="translate(455.83 556.92)">
     <path id="path3456" d="m0 0c-0.013 0.013-0.025 0.034-0.04 0.035-0.014 0-0.029-0.019-0.043-0.03 3e-3 -0.019 7e-3 -0.037 0.011-0.056 0.024 0.018 0.049 0.034 0.072 0.051" fill="#fff"/>
    </g>
    <g id="g3458" transform="translate(452.21 549.03)">
     <path id="path3460" d="m0 0c-7e-3 0.029-0.021 0.057-0.031 0.085-0.015-7e-3 -0.031-0.015-0.045-0.023 0.012-0.028 0.022-0.055 0.034-0.083 0.015 6e-3 0.043 0.018 0.042 0.021" fill="#fff"/>
    </g>
    <g id="g3462" transform="translate(451.65 539.19)">
     <path id="path3464" d="m0 0c1e-3 0.033-0.011 0.065-0.018 0.1-0.027-0.026-0.059-0.046-0.077-0.076-5e-3 -7e-3 0.037-0.043 0.057-0.065 0.014 0.014 0.038 0.027 0.038 0.041" fill="#fff"/>
    </g>
    <g id="g3466" transform="translate(442.3 538.44)">
     <path id="path3468" d="m0 0 0.035-0.022 1e-3 0.042z" fill="#fff"/>
    </g>
    <g id="g3470" transform="translate(442.59 547.51)">
     <path id="path3472" d="m0 0c5e-3 -0.013 0.03-0.019 0.046-0.027 0.015 0.012 0.028 0.024 0.043 0.036-0.025 0.014-0.05 0.028-0.074 0.043-6e-3 -0.018-0.02-0.038-0.015-0.052" fill="#fff"/>
    </g>
    <g id="g3474" transform="translate(442.88 539.5)">
     <path id="path3476" d="m0 0c-0.05-1e-3 -0.1-2e-3 -0.148-3e-3 2e-3 -0.138 5e-3 -0.276 7e-3 -0.415 0.047 0 0.093 1e-3 0.139 2e-3 1e-3 0.139 2e-3 0.277 2e-3 0.416" fill="#fff"/>
    </g>
    <g id="g3478" transform="translate(433.57 548.12)">
     <path id="path3480" d="m0 0 1e-3 1e-3 -1e-3 1e-3s1e-3 2e-3 1e-3 3e-3c1e-3 3e-3 1e-3 6e-3 0 7e-3l-1e-3 1e-3v1e-3l-0.031 0.021 0.028-0.03c0-3e-3 -1e-3 -6e-3 -2e-3 -8e-3 -0.227-0.129-0.4-0.294-0.423-0.636 0.324 0.146 0.361 0.403 0.428 0.639" fill="#fff"/>
    </g>
    <g id="g3482" transform="translate(433.57 548.13)">
     <path id="path3484" d="m0 0c-1e-3 -2e-3 -1e-3 -4e-3 -2e-3 -6e-3v-4e-3z" fill="#fff"/>
    </g>
    <g id="g3486" transform="translate(434.17 539.04)">
     <path id="path3488" d="m0 0-0.028-0.031 0.045-8e-3z" fill="#fff"/>
    </g>
    <g id="g3490" transform="translate(429.28 538.53)">
     <path id="path3492" d="m0 0-0.043 8e-3 0.017-0.041z" fill="#fff"/>
    </g>
    <g id="g3494" transform="translate(418.02 545.07)">
     <path id="path3496" d="m0 0-0.04 9e-3 0.012-0.04z" fill="#fff"/>
    </g>
    <g id="g3498" transform="translate(428.81 543.78)">
     <path id="path3500" d="m0 0c5e-3 0.01-8e-3 0.028-0.013 0.042-0.013-5e-3 -0.027-0.01-0.042-0.016 5e-3 -0.013 0.01-0.028 0.015-0.043 0.014 6e-3 0.035 8e-3 0.04 0.017" fill="#fff"/>
    </g>
    <g id="g3502" transform="translate(440.35 539.15)">
     <path id="path3504" d="m0 0c-0.017 7e-3 -0.035 0.023-0.048 0.02-0.014-5e-3 -0.023-0.027-0.035-0.041 0.024-0.011 0.05-0.022 0.074-0.033l9e-3 0.054" fill="#fff"/>
    </g>
    <g id="g3506" transform="translate(443.54 540.14)">
     <path id="path3508" d="m0 0c0.026 0.01 0.04 0.052 0.059 0.08-0.032 0.01-0.07 0.035-0.093 0.025-0.026-9e-3 -0.038-0.052-0.056-0.081 0.028-8e-3 0.066-0.034 0.09-0.024" fill="#fff"/>
    </g>
    <g id="g3510" transform="translate(441.17 539.65)">
     <path id="path3512" d="m0 0c0.014-2e-3 0.033-0.012 0.044-6e-3 0.012 7e-3 0.016 0.027 0.022 0.041-0.025 5e-3 -0.05 9e-3 -0.076 0.013 3e-3 -0.016 6e-3 -0.031 0.01-0.048" fill="#fff"/>
    </g>
    <g id="g3514" transform="translate(438.58 550.49)">
     <path id="path3516" d="m0 0c-0.016 3e-3 -0.041 0.012-0.044 7e-3 -9e-3 -0.016-0.011-0.037-0.015-0.056 0.016 4e-3 0.034 3e-3 0.046 0.012 8e-3 6e-3 9e-3 0.024 0.013 0.037" fill="#fff"/>
    </g>
    <g id="g3518" transform="translate(437.78 550.21)">
     <path id="path3520" d="m0 0c-7e-3 0.044-0.015 0.088-0.022 0.132-0.104-0.04-0.208-0.081-0.313-0.121 0.011-0.032 0.023-0.063 0.033-0.094 0.101 0.027 0.201 0.056 0.302 0.083" fill="#fff"/>
    </g>
    <g id="g3522" transform="translate(441.2 539.09)">
     <path id="path3524" d="m0 0 5e-3 -0.039 0.03 0.024z" fill="#fff"/>
    </g>
    <g id="g3526" transform="translate(442.43 539.37)">
     <path id="path3528" d="m0 0c0 4e-3 -0.049 0.012-0.051 7e-3 -0.026-0.064-0.05-0.128-0.073-0.194 0.042-5e-3 0.085-0.012 0.128-0.018-1e-3 0.068 0 0.137-4e-3 0.205" fill="#fff"/>
    </g>
    <g id="g3530" transform="translate(444.48 542.96)">
     <path id="path3532" d="m0 0-0.017 0.035-0.022-0.035z" fill="#fff"/>
    </g>
    <g id="g3534" transform="translate(433.22 539.45)">
     <path id="path3536" d="m0 0c0.022-0.335 0.043-0.631 0.062-0.927 0.071-0.086 0.249 0.102 0.285 0.435 0.033 0.302-0.068 0.52-0.347 0.492" fill="#fff"/>
    </g>
    <g id="g3538" transform="translate(472.02 547.3)">
     <path id="path3540" d="m0 0s-0.022 5e-3 -0.022 6e-3c0.018 0.105 0.036 0.211 0.054 0.314 0.012 0.075 0.023 0.149 0.034 0.222-0.011-0.073-0.022-0.147-0.034-0.221-0.018-0.104-0.036-0.21-0.054-0.314-0.02-0.068-0.04-0.133-0.06-0.198 0.02 0.065 0.04 0.13 0.06 0.196z" fill="#fff"/>
    </g>
    <g id="g3542" transform="translate(472.05 547.62)">
     <path id="path3544" d="m0 0c0-1e-3 0.022-6e-3 0.022-7e-3 -0.018-0.105-0.036-0.209-0.054-0.313l0.054 0.312c0.012 0.075 0.024 0.15 0.036 0.223-0.012-0.074-0.024-0.148-0.036-0.221 0 0-0.022 5e-3 -0.022 6e-3" fill="#fff"/>
    </g>
    <g id="g3546" transform="translate(472.11 547.84)">
     <path id="path3548" d="m0 0v-1e-3z" fill="#fff"/>
    </g>
    <g id="g3550" transform="translate(470.42 541.99)">
     <path id="path3552" d="m0 0c0.036-0.02 0.071-0.041 0.11-0.054 7e-3 -3e-3 0.043 0.04 0.038 0.049-0.017 0.035-0.045 0.067-0.07 0.099-0.025-0.032-0.052-0.063-0.078-0.094" fill="#fff"/>
    </g>
    <g id="g3554" transform="translate(472.1 547.87)">
     <path id="path3556" d="m0 0c-9e-3 0.052-0.01 0.061-8e-3 0.048 0-3e-3 2e-3 -0.014 8e-3 -0.048" fill="#fff"/>
    </g>
    <g id="g3558" transform="translate(472.09 547.92)">
     <path id="path3560" d="m0 0c-1e-3 6e-3 5e-3 -0.034 0.012-0.079h1e-3c-6e-3 0.033-0.011 0.066-0.013 0.079" fill="#fff"/>
    </g>
    <g id="g3562" transform="translate(472.1 547.84)">
     <path id="path3564" d="m0 0-0.022 5e-3s0.022-5e-3 0.023-6e-3z" fill="#fff"/>
    </g>
    <g id="g3566" transform="translate(477.97 540.9)">
     <path id="path3568" d="m0 0c-0.011 0.019-0.017 0.044-0.032 0.053-9e-3 6e-3 -0.033-0.013-0.051-0.02 0.01-0.018 0.02-0.038 0.03-0.056z" fill="#fff"/>
    </g>
    <g id="g3570" transform="translate(474.75 544.3)">
     <path id="path3572" d="m0 0c-3e-3 0.019-0.124 0.045-0.129 0.036-0.03-0.059-0.043-0.128-0.062-0.192 0.046-0.013 0.093-0.026 0.169-0.046 9e-3 0.07 0.03 0.139 0.022 0.202" fill="#fff"/>
    </g>
    <g id="g3574" transform="translate(433.6 545.53)">
     <path id="path3576" d="m0 0c0.035-0.015 0.074-0.032 0.121-0.053 0.025 0.09 0.043 0.151 0.061 0.211-0.047 0.013-0.11 0.05-0.139 0.032-0.028-0.016-0.052-0.041-0.074-0.067s-0.043-0.055-0.066-0.08c0.032-0.014 0.062-0.027 0.097-0.043" fill="#fff"/>
    </g>
    <g id="g3578" transform="translate(465.21 545.41)">
     <path id="path3580" d="m0 0c0.019 0.013 0.037 0.025 0.056 0.037-0.024 0.025-0.047 0.05-0.071 0.074-9e-3 -0.02-0.027-0.042-0.025-0.062 1e-3 -0.017 0.025-0.032 0.04-0.049" fill="#fff"/>
    </g>
    <g id="g3582" transform="translate(434.21 541.04)">
     <path id="path3584" d="m0 0-0.046 0.01 0.019-0.046z" fill="#fff"/>
    </g>
    <g id="g3586" transform="translate(432.76 549.17)">
     <path id="path3588" d="m0 0c-0.087-0.039-0.174-0.076-0.259-0.119-0.016-8e-3 -0.021-0.038-0.031-0.058 0.075-0.031 0.15-0.061 0.226-0.093z" fill="#fff"/>
    </g>
    <g id="g3590" transform="translate(432.58 541.51)">
     <path id="path3592" d="M 0,0 C 0.287,0.249 0.424,0.431 0.276,0.749 -0.113,0.632 -0.137,0.407 0,0" fill="#fff"/>
    </g>
    <g id="g3594" transform="translate(458.7 550.93)">
     <path id="path3596" d="m0 0c-0.04 0.058-0.106 0.096-0.163 0.141-0.035-0.056-0.069-0.113-0.125-0.201 0.105-0.032 0.171-0.061 0.238-0.065 0.016-1e-3 0.065 0.104 0.05 0.125" fill="#fff"/>
    </g>
    <g id="g3598" transform="translate(460.4 542.34)">
     <path id="path3600" d="m0 0c-0.021 2e-3 -0.047 0.012-0.059 3e-3 -0.013-0.011-0.014-0.039-0.02-0.06 0.031-2e-3 0.063-4e-3 0.096-5e-3 -6e-3 0.021-0.011 0.041-0.017 0.062" fill="#fff"/>
    </g>
    <g id="g3602" transform="translate(436.3 546.29)">
     <path id="path3604" d="m0 0-0.073 0.176c-0.131-0.049-0.262-0.098-0.392-0.147l0.085-0.199c0.127 0.057 0.253 0.113 0.38 0.17" fill="#fff"/>
    </g>
    <g id="g3606" transform="translate(430.19 555.51)">
     <path id="path3608" d="m0 0c-0.036 4e-3 -0.071 9e-3 -0.107 0.013-0.014-0.11-0.029-0.219-0.042-0.328 0.038-4e-3 0.076-9e-3 0.114-0.013z" fill="#fff"/>
    </g>
    <g id="g3610" transform="translate(429.91 549.05)">
     <path id="path3612" d="m0 0c-0.023 0.036-0.047 0.072-0.07 0.107l-0.323-0.213c0.024-0.037 0.047-0.073 0.071-0.108z" fill="#fff"/>
    </g>
    <g id="g3614" transform="translate(445.28 550.76)">
     <path id="path3616" d="m0 0-0.039-0.033 0.048-0.016z" fill="#fff"/>
    </g>
    <g id="g3618" transform="translate(431.95 544.19)">
     <path id="path3620" d="m0 0c-0.047-8e-3 -0.112 2e-3 -0.136-0.025-0.04-0.048-0.052-0.118-0.078-0.178h0.23c-7e-3 0.084-0.012 0.143-0.016 0.203" fill="#fff"/>
    </g>
    <g id="g3622" transform="translate(426.61 550.58)">
     <path id="path3624" d="m0 0c-0.024 0.154-0.034 0.272-0.069 0.382-6e-3 0.017-0.188 3e-3 -0.19-9e-3 -0.013-0.115-0.014-0.234 4e-3 -0.35 3e-3 -0.015 0.128-0.012 0.255-0.023" fill="#fff"/>
    </g>
    <g id="g3626" transform="translate(483.58 540.13)">
     <path id="path3628" d="m0 0-0.049 0.026v-0.06z" fill="#fff"/>
    </g>
    <g id="g3630" transform="translate(482.8 541.33)">
     <path id="path3632" d="m0 0c5e-3 0.021 0.01 0.041 0.016 0.062-0.032-2e-3 -0.063-4e-3 -0.093-6e-3 5e-3 -0.021 5e-3 -0.049 0.018-0.06 0.011-9e-3 0.038 2e-3 0.059 4e-3" fill="#fff"/>
    </g>
    <g id="g3634" transform="translate(482.03 543.58)">
     <path id="path3636" d="m0 0-0.018-0.061 0.062 0.013z" fill="#fff"/>
    </g>
    <g id="g3638" transform="translate(482.04 542.18)">
     <path id="path3640" d="m 0,0 c 0.067,0.02 0.163,0.019 0.196,0.063 0.05,0.07 0.057,0.17 0.096,0.304 C 0.157,0.349 0.037,0.354 0.029,0.328 0,0.224 0.007,0.11 0,0" fill="#fff"/>
    </g>
    <g id="g3642" transform="translate(445.16 555.76)">
     <path id="path3644" d="m0 0c0.012 0.066 0.024 0.137 0.036 0.208-0.061-2e-3 -0.162 0.018-0.177-0.01-0.029-0.055-0.012-0.135-0.014-0.205 0.046 2e-3 0.091 4e-3 0.155 7e-3" fill="#fff"/>
    </g>
    <g id="g3646" transform="translate(439.29 544.82)">
     <path id="path3648" d="m0 0c-2e-3 -1e-3 0.019-2e-3 0.019-2e-3s-0.017 4e-3 -0.019 2e-3" fill="#fff"/>
    </g>
    <g id="g3650" transform="translate(438.3 548.53)">
     <path id="path3652" d="M 0,0 C 0,0.009 0.001,0.018 0.001,0.025 0.001,0.018 0,0.009 0,0" fill="#fff"/>
    </g>
    <g id="g3654" transform="translate(456.42 551.03)">
     <path id="path3656" d="m0 0-0.058-0.021 0.045-0.039z" fill="#fff"/>
    </g>
    <g id="g3658" transform="translate(437.73 544.75)">
     <path id="path3660" d="m0 0c-0.047 0.021-0.094 0.041-0.14 0.062-0.054-0.123-0.108-0.244-0.162-0.365 0.047-0.02 0.094-0.042 0.142-0.062 0.053 0.122 0.106 0.243 0.16 0.365" fill="#fff"/>
    </g>
    <g id="g3662" transform="translate(438.31 548.77)">
     <path id="path3664" d="m0 0 0.021-1e-3s-0.02 1e-3 -0.021 1e-3" fill="#fff"/>
    </g>
    <g id="g3666" transform="translate(438.31 548.77)">
     <path id="path3668" d="m0 0v-1e-3c3e-3 0 0.021-1e-3 0.021-1e-3z" fill="#fff"/>
    </g>
    <g id="g3670" transform="translate(438.31 548.77)">
     <path id="path3672" d="m0 0h2e-3z" fill="#fff"/>
    </g>
    <g id="g3674" transform="translate(438.31 548.52)">
     <path id="path3676" d="m0 0c6e-3 -2e-3 0.011-4e-3 0.011-4e-3 5e-3 0.084 0.01 0.167 0.013 0.251-3e-3 -0.084-8e-3 -0.167-0.013-0.25 0-1e-3 -5e-3 1e-3 -0.011 3e-3" fill="#fff"/>
    </g>
    <g id="g3678" transform="translate(438.3 548.53)">
     <path id="path3680" d="M 0,0 C 0,0 0.004,-0.001 0.007,-0.002 0.004,-0.001 0,0 0,0" fill="#fff"/>
    </g>
    <g id="g3682" transform="translate(438.3 548.53)">
     <path id="path3684" d="m0 0s7e-3 -2e-3 0.013-4e-3c-2e-3 0-2e-3 1e-3 -4e-3 1e-3 -4e-3 2e-3 -9e-3 3e-3 -9e-3 3e-3" fill="#fff"/>
    </g>
    <g id="g3686" transform="translate(438.31 548.77)">
     <path id="path3688" d="m0 0c-4e-3 -0.071-8e-3 -0.144-0.012-0.217 4e-3 0.072 8e-3 0.145 0.015 0.217z" fill="#fff"/>
    </g>
    <g id="g3690" transform="translate(438.3 548.53)">
     <path id="path3692" d="m0 0 2e-3 -2e-3c7e-3 -1e-3 0.015-3e-3 0.015-3e-3s-0.01 3e-3 -0.017 5e-3" fill="#fff"/>
    </g>
    <g id="g3694" transform="translate(451.15 542.59)">
     <path id="path3696" d="m0 0c-0.011 9e-3 -0.035 0-0.054-1e-3 2e-3 -0.019 4e-3 -0.036 6e-3 -0.055 0.019 1e-3 0.037 2e-3 0.056 4e-3 -2e-3 0.018 2e-3 0.044-8e-3 0.052" fill="#fff"/>
    </g>
    <g id="g3698" transform="translate(445.9 549.84)">
     <path id="path3700" d="m0 0c-0.02 0.011-0.056 0.032-0.057 0.029-0.022-0.031-0.04-0.066-0.058-0.1 0.019-0.011 0.039-0.021 0.059-0.032z" fill="#fff"/>
    </g>
    <g id="g3702" transform="translate(457.44 550.13)">
     <path id="path3704" d="m0 0c0.02 0.039 0.038 0.078 0.057 0.118-0.042 0.019-0.114 0.063-0.121 0.053-0.037-0.043-0.054-0.101-0.078-0.152 0.047-7e-3 0.094-0.013 0.142-0.019" fill="#fff"/>
    </g>
    <g id="g3706" transform="translate(443.68 542.33)">
     <path id="path3708" d="m0 0c-0.045-5e-3 -0.09-0.011-0.135-0.016-6e-3 -0.045-0.012-0.089-0.018-0.135 0.045 6e-3 0.103-2e-3 0.13 0.023 0.025 0.024 0.017 0.084 0.023 0.128" fill="#fff"/>
    </g>
    <g id="g3710" transform="translate(457.25 543.5)">
     <path id="path3712" d="m0 0c-0.024 0.029-0.041 0.049-0.057 0.068-4e-3 -0.018-8e-3 -0.036-0.012-0.053 0.018-4e-3 0.036-8e-3 0.069-0.015" fill="#fff"/>
    </g>
    <g id="g3714" transform="translate(444.25 543.39)">
     <path id="path3716" d="m0 0c0.011 1e-3 0.027 2e-3 0.04 3e-3 0.014 2e-3 0.024 3e-3 0.024 5e-3 4e-3 0.042-1e-3 0.084-2e-3 0.126-0.022-3e-3 -0.063-3e-3 -0.064-8e-3 -3e-3 -0.042 0-0.084 1e-3 -0.126z" fill="#fff"/>
    </g>
    <g id="g3718" transform="translate(441.17 542.41)">
     <path id="path3720" d="m0 0c9e-3 0.015 0.019 0.028 0.027 0.043-0.024 0.015-0.048 0.031-0.073 0.043-2e-3 1e-3 -0.026-0.037-0.024-0.038 0.021-0.019 0.046-0.032 0.07-0.048" fill="#fff"/>
    </g>
    <g id="g3722" transform="translate(430.29 546.9)">
     <path id="path3724" d="m0 0c-0.017 4e-3 -0.038 0.016-0.049 9e-3 -0.011-6e-3 -0.01-0.031-0.013-0.048l0.051-0.012c4e-3 0.018 7e-3 0.034 0.011 0.051" fill="#fff"/>
    </g>
    <g id="g3726" transform="translate(418.34 550.42)">
     <path id="path3728" d="m0 0c-0.021 0.024-0.045 0.046-0.068 0.067-0.011-0.013-0.034-0.037-0.032-0.039 0.021-0.024 0.045-0.045 0.068-0.067 0.011 0.014 0.034 0.037 0.032 0.039" fill="#fff"/>
    </g>
    <g id="g3730" transform="translate(420.59 543.06)">
     <path id="path3732" d="m0 0c-0.012 8e-3 -0.023 0.021-0.034 0.021-9e-3 -1e-3 -0.016-0.02-0.024-0.031 0.012-7e-3 0.024-0.02 0.035-0.019 8e-3 0 0.015 0.018 0.023 0.029" fill="#fff"/>
    </g>
    <g id="g3734" transform="translate(420.3 559.87)">
     <path id="path3736" d="m0 0-0.041-0.039 0.053-0.015z" fill="#fff"/>
    </g>
    <g id="g3738" transform="translate(465.94 541.96)">
     <path id="path3740" d="m0 0c-0.02 0.027-0.039 0.054-0.059 0.081-0.045-8e-3 -0.092-0.017-0.138-0.025 0.011-0.044 0.023-0.126 0.035-0.126 0.062 0 0.125 0.02 0.188 0.034-8e-3 0.012-0.017 0.024-0.026 0.036" fill="#68b430"/>
    </g>
    <g id="g3742" transform="translate(441.99 541.42)">
     <path id="path3744" d="m0 0c-0.133 0.1-0.26 0.208-0.4 0.294-0.037 0.021-0.116-0.029-0.254-0.07 0.228-0.148 0.388-0.251 0.549-0.354 0.035 0.043 0.07 0.087 0.105 0.13" fill="#68b430"/>
    </g>
    <g id="g3746" transform="translate(440.54 550.41)">
     <path id="path3748" d="m0 0c4e-3 0.019-0.017 0.041-0.027 0.062-0.024-3e-3 -0.047-6e-3 -0.071-0.01 0.016-0.033 0.033-0.067 0.049-0.1 0.018 0.016 0.046 0.029 0.049 0.048" fill="#68b430"/>
    </g>
    <g id="g3750" transform="translate(418.71 558.06)">
     <path id="path3752" d="m0 0c0.011 0.036 0.017 0.073 0.023 0.11-0.022 4e-3 -0.044 8e-3 -0.067 0.013-6e-3 -0.037-0.014-0.074-0.016-0.112 0-2e-3 0.06-0.013 0.06-0.011" fill="#68b430"/>
    </g>
    <g id="g3754" transform="translate(418.75 542.49)">
     <path id="path3756" d="m0 0c0.013-0.01 0.043 5e-3 0.065 9e-3 -3e-3 0.022-8e-3 0.045-0.012 0.068-0.023-4e-3 -0.045-9e-3 -0.068-0.013 4e-3 -0.022 1e-3 -0.054 0.015-0.064" fill="#68b430"/>
    </g>
    <g id="g3758" transform="translate(438.16 549.62)">
     <path id="path3760" d="M 0,0 C -0.327,0.243 -0.571,0.425 -0.816,0.606 -0.592,0.074 -0.592,0.074 0,0" fill="#68b430"/>
    </g>
    <g id="g3762" transform="translate(433.31 538.85)">
     <path id="path3764" d="m0 0c0.018-6e-3 0.043 0.013 0.065 0.021-3e-3 0.024-5e-3 0.048-7e-3 0.073-0.036-0.014-0.071-0.027-0.106-0.039 0.016-0.02 0.028-0.048 0.048-0.055" fill="#68b430"/>
    </g>
    <g id="g3766" transform="translate(434.14 539.09)">
     <path id="path3768" d="m0 0c-0.021-0.045-0.035-0.072-0.049-0.1 0.022 4e-3 0.056 2e-3 0.062 0.014 8e-3 0.016-5e-3 0.043-0.013 0.086" fill="#68b430"/>
    </g>
    <g id="g3770" transform="translate(476.37 538.83)">
     <path id="path3772" d="m 0,0 0.144,-0.094 c 0.05,0.079 0.103,0.157 0.148,0.24 C 0.294,0.15 0.194,0.222 0.187,0.214 0.119,0.148 0.062,0.073 0,0" fill="#68b430"/>
    </g>
    <g id="g3774" transform="translate(473.13 550.07)">
     <path id="path3776" d="M 0,0 C 0,0 -0.021,0.001 -0.023,-0.001 -0.026,-0.003 0,0 0,0" fill="#68b430"/>
    </g>
    <g id="g3778" transform="translate(475.07 539.26)">
     <path id="path3780" d="m0 0c-1e-3 -1e-3 0.021 4e-3 0.021 4e-3s-0.02-2e-3 -0.021-4e-3" fill="#68b430"/>
    </g>
    <g id="g3782" transform="translate(475.51 538.42)">
     <path id="path3784" d="m0 0c3e-3 0.017-9e-3 0.034-0.024 0.054-0.015 0.018-0.035 0.039-0.048 0.057-0.044-0.018-0.088-0.036-0.132-0.053 0.035-0.051 0.07-0.101 0.105-0.152 0.036 0.032 0.092 0.059 0.099 0.094" fill="#68b430"/>
    </g>
    <g id="g3786" transform="translate(468.06 544.51)">
     <path id="path3788" d="m0 0c-0.024 0.024-0.05 0.048-0.075 0.072-0.074-0.051-0.175-0.086-0.216-0.156-0.045-0.078-0.034-0.187-0.048-0.282 0.03-6e-3 0.062-0.012 0.092-0.017 0.083 0.128 0.165 0.255 0.247 0.383" fill="#68b430"/>
    </g>
    <g id="g3790" transform="translate(472.42 538.18)">
     <path id="path3792" d="m0 0c-0.022-1e-3 -0.052 7e-3 -0.065-5e-3 -0.015-0.012-0.015-0.041-0.022-0.063 0.036 2e-3 0.073 3e-3 0.109 4e-3 -7e-3 0.021-0.014 0.043-0.022 0.064" fill="#68b430"/>
    </g>
    <g id="g3794" transform="translate(466.57 543.18)">
     <path id="path3796" d="m0 0-0.01 0.018s8e-3 -0.02 0.01-0.018" fill="#68b430"/>
    </g>
    <g id="g3798" transform="translate(468.71 545.47)">
     <path id="path3800" d="m0 0-0.055 1e-3 0.029-0.048z" fill="#68b430"/>
    </g>
    <g id="g3802" transform="translate(470.19 546.96)">
     <path id="path3804" d="m0 0c-0.037 0.021-0.075 0.044-0.112 0.065-0.1-0.172-0.2-0.344-0.298-0.516 0.029-0.017 0.057-0.034 0.087-0.051 0.108 0.167 0.216 0.335 0.323 0.502" fill="#68b430"/>
    </g>
    <g id="g3806" transform="translate(469.8 540.99)">
     <path id="path3808" d="m0 0c0.016 0.033 0.018 0.073 0.025 0.109-0.048 0-0.097-1e-3 -0.154-1e-3 0.02-0.038 0.033-0.078 0.059-0.106 0.011-0.013 0.065-0.011 0.07-2e-3" fill="#68b430"/>
    </g>
    <g id="g3810" transform="translate(481.65 539.8)">
     <path id="path3812" d="m0 0c3e-3 -0.017 8e-3 -0.034 0.012-0.051-4e-3 0.017-8e-3 0.033-0.012 0.051" fill="#68b430"/>
    </g>
    <g id="g3814" transform="translate(481.66 539.74)">
     <path id="path3816" d="m0 0c0.02-0.087 0.039-0.173 0.06-0.259v-0.043 0.041l0.023 4e-3s-0.023-4e-3 -0.023-3e-3c-0.021 0.087-0.04 0.174-0.06 0.26" fill="#68b430"/>
    </g>
    <g id="g3818" transform="translate(481.67 539.8)">
     <path id="path3820" d="m0 0c5e-3 1e-3 9e-3 2e-3 9e-3 2e-3s-7e-3 -1e-3 -0.013-2e-3z" fill="#68b430"/>
    </g>
    <g id="g3822" transform="translate(481.65 539.8)">
     <path id="path3824" d="m0 0s0.01 1e-3 0.017 2e-3h-3e-3c-7e-3 -1e-3 -0.014-3e-3 -0.014-3e-3z" fill="#68b430"/>
    </g>
    <g id="g3826" transform="translate(481.36 545.76)">
     <path id="path3828" d="m0 0-0.052 0.017 0.012-0.056z" fill="#68b430"/>
    </g>
    <g id="g3830" transform="translate(481.65 539.8)">
     <path id="path3832" d="m0 0 0.01 2e-3c-5e-3 -1e-3 -0.011-1e-3 -0.011-1e-3z" fill="#68b430"/>
    </g>
    <g id="g3834" transform="translate(477.68 542.65)">
     <path id="path3836" d="m0 0-0.048 0.025 1e-3 -0.054z" fill="#68b430"/>
    </g>
    <g id="g3838" transform="translate(477.1 540.46)">
     <path id="path3840" d="m0 0c-0.572-0.304-1.325-0.391-1.562-1.256 0.695 0.215 1.395 0.742 1.562 1.256" fill="#68b430"/>
    </g>
    <g id="g3842" transform="translate(478.54 541.64)">
     <path id="path3844" d="m0 0c4e-3 -0.012 0.029-0.017 0.046-0.023 7e-3 0.015 0.022 0.036 0.017 0.047-3e-3 0.013-0.029 0.017-0.045 0.025-7e-3 -0.017-0.023-0.037-0.018-0.049" fill="#68b430"/>
    </g>
    <g id="g3846" transform="translate(478.93 543.31)">
     <path id="path3848" d="m0 0v4e-3l-1e-3 -6e-3c0.037-0.058 0.074-0.116 0.111-0.175-0.037 0.059-0.074 0.117-0.11 0.177" fill="#68b430"/>
    </g>
    <g id="g3850" transform="translate(478.25 538.67)">
     <path id="path3852" d="M 0,0 C 0.035,0.164 0.082,0.265 0.068,0.355 0.056,0.44 -0.021,0.517 -0.106,0.657 -0.297,0.366 -0.307,0.195 0,0" fill="#68b430"/>
    </g>
    <g id="g3854" transform="translate(478.37 543.52)">
     <path id="path3856" d="m0 0c-0.032-0.03-0.066-0.06-0.094-0.094-4e-3 -5e-3 0.029-0.037 0.043-0.057 0.032 0.031 0.068 0.06 0.095 0.094 3e-3 5e-3 -0.028 0.037-0.044 0.057" fill="#68b430"/>
    </g>
    <g id="g3858" transform="translate(460.14 545.46)">
     <path id="path3860" d="m0 0c-0.056-0.045-0.111-0.089-0.167-0.13l-0.011 0.018 0.011-0.022c0.056 0.045 0.111 0.089 0.167 0.134" fill="#68b430"/>
    </g>
    <g id="g3862" transform="translate(455.23 545.4)">
     <path id="path3864" d="m0 0c-0.021-5e-3 -0.041-0.011-0.062-0.016-4e-3 -0.019-0.019-0.045-0.012-0.057 9e-3 -0.014 0.036-0.015 0.055-0.022 7e-3 0.032 0.013 0.064 0.019 0.095" fill="#68b430"/>
    </g>
    <g id="g3866" transform="translate(465.41 543.36)">
     <path id="path3868" d="m0 0c6e-3 0.013-4e-3 0.031-0.019 0.053-0.013 0.02-0.032 0.043-0.043 0.063-0.048-0.012-0.095-0.023-0.143-0.035 0.029-0.053 0.059-0.105 0.089-0.158 0.041 0.024 0.101 0.041 0.116 0.077" fill="#68b430"/>
    </g>
    <g id="g3870" transform="translate(466.8 542.7)">
     <path id="path3872" d="m0 0c-0.63 0.185-1.263 0.426-1.857-0.047 0.628-0.152 1.256-0.314 1.857 0.047" fill="#68b430"/>
    </g>
    <g id="g3874" transform="translate(481.65 539.8)">
     <path id="path3876" d="m0 0z" fill="#68b430"/>
    </g>
    <g id="g3878" transform="translate(486.44 540.18)">
     <path id="path3880" d="m0 0 0.023 0.018 0.035 0.024-0.059-0.037c-0.118-0.472-0.507-0.858-0.468-1.378 0.048 0.048 0.094 0.097 0.137 0.146 0.308 0.346 0.515 0.724 0.332 1.227" fill="#68b430"/>
    </g>
    <g id="g3882" transform="translate(485.75 557.15)">
     <path id="path3884" d="m0 0-0.042-0.011 0.029-0.034z" fill="#68b430"/>
    </g>
    <g id="g3886" transform="translate(484.72 558.72)">
     <path id="path3888" d="m0 0c0.021 0.063 0.024 0.132 0.033 0.198-0.079 0.013-0.128 0.021-0.177 0.029 0-0.07-9e-3 -0.143 9e-3 -0.207 5e-3 -0.02 0.131-0.029 0.135-0.02" fill="#68b430"/>
    </g>
    <g id="g3890" transform="translate(481.67 539.8)">
     <path id="path3892" d="m0 0c0.023-0.104 0.047-0.206 0.071-0.31-0.024 0.104-0.048 0.206-0.071 0.31" fill="#68b430"/>
    </g>
    <g id="g3894" transform="translate(481.67 539.8)">
     <path id="path3896" d="m0 0s-4e-3 0-7e-3 -1e-3c3e-3 0 7e-3 1e-3 7e-3 1e-3" fill="#68b430"/>
    </g>
    <g id="g3898" transform="translate(484.05 553.61)">
     <path id="path3900" d="m0 0c-0.037 0.024-0.071 0.053-0.111 0.068-0.017 7e-3 -0.045-0.014-0.068-0.023 0.018-0.035 0.038-0.102 0.053-0.101 0.042 4e-3 0.083 0.035 0.126 0.056" fill="#68b430"/>
    </g>
    <g id="g3902" transform="translate(489.08 556.7)">
     <path id="path3904" d="m0 0c-0.036 0.019-0.071 0.037-0.107 0.056l-0.179-0.34c0.043-0.023 0.087-0.045 0.13-0.068 0.052 0.118 0.104 0.235 0.156 0.352" fill="#68b430"/>
    </g>
    <g id="g3906" transform="translate(445.82 542.92)">
     <path id="path3908" d="m0 0 0.029 0.036-0.048 7e-3z" fill="#68b430"/>
    </g>
    <g id="g3910" transform="translate(445.83 551.65)">
     <path id="path3912" d="m0 0-0.057-5e-3 0.032-0.045z" fill="#68b430"/>
    </g>
    <g id="g3914" transform="translate(442.31 540.6)">
     <path id="path3916" d="m0 0-0.056-1e-3 0.03-0.047z" fill="#68b430"/>
    </g>
    <g id="g3918" transform="translate(453.8 549.59)">
     <path id="path3920" d="m0 0-0.057-0.029 0.053-0.033z" fill="#68b430"/>
    </g>
    <g id="g3922" transform="translate(419.36 543.54)">
     <path id="path3924" d="m0 0c6e-3 0.016 0.019 0.045 0.018 0.046-0.028 0.014-0.056 0.022-0.083 0.033-6e-3 -0.016-0.012-0.031-0.018-0.048 0.027-0.01 0.056-0.02 0.083-0.031" fill="#68b430"/>
    </g>
    <g id="g3926" transform="translate(420.27 545.65)">
     <path id="path3928" d="m0 0c-0.029 0.018-0.059 0.034-0.089 0.052-8e-3 -0.034-0.031-0.074-0.021-0.103 9e-3 -0.024 0.055-0.036 0.085-0.053 8e-3 0.035 0.016 0.069 0.025 0.104" fill="#68b430"/>
    </g>
    <g id="g3930" transform="translate(419.62 546.33)">
     <path id="path3932" d="m0 0-0.031 0.012 5e-3 -0.035z" fill="#68b430"/>
    </g>
    <g id="g3934" transform="translate(418.59 546.41)">
     <path id="path3936" d="m0 0-0.034-7e-3 0.021-0.025z" fill="#68b430"/>
    </g>
    <g id="g3938" transform="translate(417.91 543.88)">
     <path id="path3940" d="m0 0h-1e-3c0.031-0.013 0.069-0.044 0.091-0.034 0.028 0.011 0.045 0.054 0.066 0.083-0.04 0.017-0.079 0.035-0.119 0.052-0.013-0.034-0.025-0.067-0.038-0.101z" fill="#68b430"/>
    </g>
    <g id="g3942" transform="translate(418.79 542.4)">
     <path id="path3944" d="M 0,0 C 0.015,0.22 0.027,0.427 0.047,0.747 -0.361,0.298 -0.36,0.232 0,0" fill="#68b430"/>
    </g>
    <g id="g3946" transform="translate(422.38 541.78)">
     <path id="path3948" d="m0 0c-0.157 0.604-0.266 1.062-0.396 1.514-0.083 0.285-0.272 0.429-0.654 0.329 0.534-0.49 0.326-1.332 1.05-1.843" fill="#68b430"/>
    </g>
    <g id="g3950" transform="translate(420.46 558.56)">
     <path id="path3952" d="m0 0c8e-3 0.013-0.046 0.087-0.055 0.084-0.046-0.017-0.086-0.048-0.129-0.074 0.034-0.051 0.054-0.082 0.075-0.114 0.038 0.034 0.083 0.063 0.109 0.104" fill="#68b430"/>
    </g>
    <g id="g3954" transform="translate(422.77 538.4)">
     <path id="path3956" d="m0 0c0.031-0.014 0.063-0.028 0.095-0.042-1e-3 0.034 2e-3 0.069-7e-3 0.102-1e-3 5e-3 -9e-3 9e-3 -0.019 0.014-9e-3 4e-3 -0.021 7e-3 -0.029 0.012-7e-3 -0.015-0.014-0.028-0.02-0.043-7e-3 -0.014-0.013-0.028-0.02-0.043" fill="#68b430"/>
    </g>
    <g id="g3958" transform="translate(416.46 546.09)">
     <path id="path3960" d="m0 0-0.046-0.01 0.03-0.036z" fill="#68b430"/>
    </g>
    <g id="g3962" transform="translate(415.46 537.6)">
     <path id="path3964" d="m0 0-0.034 0.026-8e-3 -0.043z" fill="#68b430"/>
    </g>
    <g id="g3966" transform="translate(417.71 542.08)">
     <path id="path3968" d="m0 0-0.037-0.02 0.036-0.023z" fill="#68b430"/>
    </g>
    <g id="g3970" transform="translate(416.51 544.56)">
     <path id="path3972" d="m0 0c0.011-1e-3 0.022 0.014 0.033 0.022-8e-3 0.011-0.015 0.03-0.024 0.031-0.01 0-0.022-0.015-0.033-0.023 8e-3 -0.01 0.015-0.029 0.024-0.03" fill="#68b430"/>
    </g>
    <g id="g3974" transform="translate(417.35 542.24)">
     <path id="path3976" d="m0 0c9e-3 0.035 0.018 0.07 0.027 0.106-0.043 0.01-0.087 0.021-0.13 0.031 1e-3 -0.037-0.01-0.082 7e-3 -0.11 0.013-0.02 0.063-0.019 0.096-0.027" fill="#68b430"/>
    </g>
    <g id="g3978" transform="translate(416.5 541.98)">
     <path id="path3980" d="m0 0c-5e-3 -0.015-9e-3 -0.03-0.014-0.045 0.015-5e-3 0.031-0.011 0.045-0.016 5e-3 0.015 0.017 0.035 0.012 0.044-6e-3 0.01-0.028 0.012-0.043 0.017" fill="#68b430"/>
    </g>
    <g id="g3982" transform="translate(423.34 538.51)">
     <path id="path3984" d="m0 0-0.378 0.586c-0.046-0.033-0.092-0.065-0.138-0.098 0.131-0.191 0.261-0.383 0.391-0.574 0.042 0.028 0.084 0.057 0.125 0.086" fill="#68b430"/>
    </g>
    <g id="g3986" transform="translate(424.39 549.41)">
     <path id="path3988" d="m0 0-0.024-0.026 0.033-8e-3z" fill="#68b430"/>
    </g>
    <g id="g3990" transform="translate(426.95 547.93)">
     <path id="path3992" d="m0 0c-0.016 0.02-0.03 0.04-0.045 0.061-0.01-0.015-0.025-0.03-0.026-0.044 0-0.013 0.016-0.027 0.026-0.039 0.015 6e-3 0.029 0.014 0.045 0.022" fill="#68b430"/>
    </g>
    <g id="g3994" transform="translate(424.37 544.33)">
     <path id="path3996" d="m0 0c0.018 0 0.042-7e-3 0.051 2e-3s3e-3 0.033 3e-3 0.051h-0.052c-1e-3 -0.018-1e-3 -0.035-2e-3 -0.053" fill="#68b430"/>
    </g>
    <g id="g3998" transform="translate(425.72 540.95)">
     <path id="path4000" d="m0 0-0.038-0.011 0.028-0.028z" fill="#68b430"/>
    </g>
    <g id="g4002" transform="translate(429.52 554.76)">
     <path id="path4004" d="m0 0s-0.023 6e-3 -0.022 7e-3c0.017 0.105 0.036 0.21 0.053 0.313 0.012 0.076 0.024 0.149 0.034 0.223-0.01-0.074-0.022-0.147-0.034-0.222-0.017-0.104-0.036-0.209-0.053-0.313-0.021-0.068-0.041-0.133-0.061-0.199 0.02 0.066 0.04 0.131 0.06 0.197z" fill="#68b430"/>
    </g>
    <g id="g4006" transform="translate(429.55 555.08)">
     <path id="path4008" d="m0 0c0-1e-3 0.022-5e-3 0.022-6e-3 -0.017-0.105-0.036-0.21-0.053-0.314 0.017 0.104 0.036 0.209 0.053 0.313 0.012 0.075 0.024 0.149 0.036 0.222v1e-3c-0.012-0.074-0.024-0.148-0.036-0.221 0 0-0.022 4e-3 -0.022 5e-3" fill="#68b430"/>
    </g>
    <g id="g4010" transform="translate(429.61 555.3)">
     <path id="path4012" d="m0 0z" fill="#68b430"/>
    </g>
    <g id="g4014" transform="translate(427.92 549.45)">
     <path id="path4016" d="m0 0c0.037-0.019 0.072-0.041 0.11-0.053 8e-3 -3e-3 0.043 0.04 0.038 0.048-0.017 0.036-0.044 0.067-0.069 0.1l-0.079-0.094z" fill="#68b430"/>
    </g>
    <g id="g4018" transform="translate(430.11 539.58)">
     <path id="path4020" d="m0 0c-0.073 0.029-0.156 0.032-0.235 0.046 0.069-0.077 0.138-0.154 0.277-0.308-0.025 0.172-0.02 0.252-0.042 0.262" fill="#68b430"/>
    </g>
    <g id="g4022" transform="translate(429.6 555.33)">
     <path id="path4024" d="m0 0c-9e-3 0.052-0.01 0.061-8e-3 0.048 0-3e-3 2e-3 -0.015 8e-3 -0.048" fill="#68b430"/>
    </g>
    <g id="g4026" transform="translate(429.6 555.38)">
     <path id="path4028" d="m0 0c-1e-3 6e-3 5e-3 -0.034 0.013-0.08-6e-3 0.034-0.011 0.067-0.013 0.08" fill="#68b430"/>
    </g>
    <g id="g4030" transform="translate(429.61 555.3)">
     <path id="path4032" d="m0 0-0.023 6e-3s0.022-6e-3 0.023-7e-3z" fill="#68b430"/>
    </g>
    <g id="g4034" transform="translate(435.47 548.36)">
     <path id="path4036" d="m0 0c-0.01 0.019-0.017 0.044-0.031 0.054-0.01 6e-3 -0.034-0.013-0.052-0.021 0.01-0.018 0.02-0.037 0.03-0.055 0.018 7e-3 0.035 0.015 0.053 0.022" fill="#68b430"/>
    </g>
    <g id="g4038" transform="translate(432.25 551.76)">
     <path id="path4040" d="m0 0c-2e-3 0.019-0.124 0.045-0.129 0.036-0.03-0.059-0.043-0.128-0.062-0.193 0.046-0.013 0.093-0.026 0.169-0.045 0.01 0.07 0.031 0.138 0.022 0.202" fill="#68b430"/>
    </g>
    <g id="g4042" transform="translate(420.67 538.33)">
     <path id="path4044" d="m0 0c0.045 0 0.09-1e-3 0.135-1e-3 -9e-3 0.042-4e-3 0.103-0.03 0.12-0.03 0.022-0.086 6e-3 -0.131 6e-3 8e-3 -0.041 0.017-0.083 0.026-0.125" fill="#68b430"/>
    </g>
    <g id="g4046" transform="translate(422.71 552.88)">
     <path id="path4048" d="m0 0c0.019 0.012 0.037 0.024 0.056 0.037-0.024 0.025-0.047 0.05-0.071 0.074-8e-3 -0.02-0.027-0.043-0.025-0.062 1e-3 -0.018 0.025-0.032 0.04-0.049" fill="#68b430"/>
    </g>
    <g id="g4050" transform="translate(422.71 544.96)">
     <path id="path4052" d="m0 0c-0.017-8e-3 -0.033-0.015-0.051-0.022 8e-3 -0.017 0.016-0.035 0.029-0.063 9e-3 0.034 0.016 0.06 0.022 0.085" fill="#68b430"/>
    </g>
    <g id="g4054" transform="translate(417.9 549.8)">
     <path id="path4056" d="m0 0c-0.02 1e-3 -0.047 0.012-0.059 2e-3 -0.013-0.011-0.014-0.038-0.02-0.059 0.032-2e-3 0.063-4e-3 0.096-5e-3 -5e-3 0.02-0.011 0.041-0.017 0.062" fill="#68b430"/>
    </g>
    <g id="g4058" transform="translate(453.04 543.18)">
     <path id="path4060" d="m0 0h1e-3c0.02 0.037 0.043 0.073 0.056 0.113 3e-3 9e-3 -0.04 0.047-0.048 0.043-0.036-0.018-0.069-0.047-0.103-0.071z" fill="#68b430"/>
    </g>
    <g id="g4062" transform="translate(443.32 538.18)">
     <path id="path4064" d="m0 0c0.016-0.018 0.031-0.036 0.046-0.055 0.013 0.015 0.038 0.034 0.035 0.044-6e-3 0.021-0.027 0.037-0.043 0.055z" fill="#68b430"/>
    </g>
    <g id="g4066" transform="translate(443.33 539.69)">
     <path id="path4068" d="m0 0c-1e-3 0.081 0.01 0.155-9e-3 0.222-7e-3 0.025-0.079 0.034-0.121 0.049-6e-3 -0.07-0.021-0.142-0.011-0.21 4e-3 -0.024 0.078-0.035 0.141-0.061" fill="#68b430"/>
    </g>
    <g id="g4070" transform="translate(458.08 553.84)">
     <path id="path4072" d="m0 0c0.016 7e-3 1e-3 0.081 0 0.146-0.07-8e-3 -0.148 1e-3 -0.202-0.03-0.026-0.014-3e-3 -0.109-2e-3 -0.167 0.068 0.015 0.141 0.023 0.204 0.051" fill="#68b430"/>
    </g>
    <g id="g4074" transform="translate(459.32 540.7)">
     <path id="path4076" d="m0 0h-0.046l0.021-0.041z" fill="#68b430"/>
    </g>
    <g id="g4078" transform="translate(459.85 545.07)">
     <path id="path4080" d="m0 0c0.034 0.023 0.019 0.116 0.037 0.261-0.227-0.152-0.386-0.256-0.544-0.362 0.026-0.049 0.051-0.099 0.077-0.149 0.145 0.082 0.295 0.155 0.43 0.25" fill="#68b430"/>
    </g>
    <g id="g4082" transform="translate(458.57 544.91)">
     <path id="path4084" d="m0 0-0.055-9e-3 0.034-0.043z" fill="#68b430"/>
    </g>
    <g id="g4086" transform="translate(460.36 553.04)">
     <path id="path4088" d="m0 0c-5e-3 -0.021-0.021-0.052-0.012-0.062 0.011-0.014 0.041-0.012 0.083-0.022-0.031 0.037-0.051 0.061-0.071 0.084" fill="#68b430"/>
    </g>
    <g id="g4090" transform="translate(460.61 553.82)">
     <path id="path4092" d="m0 0c-0.023-7e-3 -0.055-7e-3 -0.068-0.021s-6e-3 -0.045-7e-3 -0.069c0.022-7e-3 0.046-0.014 0.069-0.021z" fill="#68b430"/>
    </g>
    <g id="g4094" transform="translate(455.87 549.14)">
     <path id="path4096" d="m0 0c-0.053 0.038-0.105 0.077-0.159 0.115-0.076-0.121-0.153-0.243-0.23-0.364 0.037-0.026 0.074-0.053 0.11-0.079 0.093 0.109 0.186 0.219 0.279 0.328" fill="#68b430"/>
    </g>
    <g id="g4098" transform="translate(444.96 544.35)">
     <path id="path4100" d="m0 0c0.021 0.039 0.041 0.078 0.062 0.118-0.041 0.02-0.088 0.063-0.119 0.053-0.03-0.01-0.043-0.073-0.062-0.113 0.04-0.02 0.079-0.039 0.119-0.058" fill="#68b430"/>
    </g>
    <g id="g4102" transform="translate(444.7 542.49)">
     <path id="path4104" d="M 0,0 C 0.003,0.024 0.007,0.061 0.011,0.099 0.007,0.062 0.003,0.024 0,0" fill="#68b430"/>
    </g>
    <g id="g4106" transform="translate(444.71 542.59)">
     <path id="path4108" d="m0 0 0.022-5e-3s-0.022 5e-3 -0.022 6e-3z" fill="#68b430"/>
    </g>
    <g id="g4110" transform="translate(446.04 540.02)">
     <path id="path4112" d="m0 0c0.018 0.037 0.057 0.081 0.047 0.109-0.011 0.037-0.062 0.06-0.095 0.089-0.018-0.037-0.057-0.081-0.048-0.11 0.011-0.035 0.062-0.059 0.096-0.088" fill="#68b430"/>
    </g>
    <g id="g4114" transform="translate(444.78 542.92)">
     <path id="path4116" d="m0 0c-1e-3 -5e-3 -2e-3 -9e-3 -4e-3 -0.014v-1e-3c0-1e-3 0.02-5e-3 0.022-6e-3l-1e-3 1e-3h2e-3c-5e-3 7e-3 -0.012 0.014-0.018 0.021v-1e-3z" fill="#68b430"/>
    </g>
    <g id="g4118" transform="translate(444.78 542.92)">
     <path id="path4120" d="m0 0 1e-3 1e-3c0.056 0.184 0.098 0.325 0.12 0.436 0.046 0.231 9e-3 0.34-0.154 0.462-0.081 0.061-0.195 0.124-0.345 0.207-0.041-0.068-0.068-0.13-0.086-0.19-0.017-0.06-0.025-0.115-0.023-0.168 8e-3 -0.307 0.302-0.509 0.487-0.748" fill="#68b430"/>
    </g>
    <g id="g4122" transform="translate(444.71 542.59)">
     <path id="path4124" d="m0 0z" fill="#68b430"/>
    </g>
    <g id="g4126" transform="translate(444.18 544.68)">
     <path id="path4128" d="m0 0-0.062-0.013 0.043-0.049z" fill="#68b430"/>
    </g>
    <g id="g4130" transform="translate(444.71 542.59)">
     <path id="path4132" d="M 0,0 V 0 C 0.011,0.055 0.021,0.11 0.032,0.165 0.021,0.11 0.011,0.055 0,0" fill="#68b430"/>
    </g>
    <g id="g4134" transform="translate(444.78 542.9)">
     <path id="path4136" d="m0 0c-0.01-0.048-0.019-0.097-0.028-0.146 9e-3 0.049 0.018 0.097 0.028 0.146" fill="#68b430"/>
    </g>
    <g id="g4138" transform="translate(444.74 542.59)">
     <path id="path4140" d="m0 0c0.021 0.104 0.04 0.207 0.061 0.312h-1e-3v-1e-3c-0.02-0.104-0.039-0.207-0.06-0.311" fill="#68b430"/>
    </g>
    <g id="g4142" transform="translate(438.26 542.18)">
     <path id="path4144" d="m0 0c-0.056 0.01-0.135 0.048-0.161 0.025-0.051-0.045-0.071-0.123-0.101-0.178 0.118-0.029 0.196-0.054 0.199-0.047 0.029 0.063 0.043 0.133 0.063 0.2" fill="#68b430"/>
    </g>
    <g id="g4146" transform="translate(437.03 543.44)">
     <path id="path4148" d="m0 0s-0.021 3e-3 -0.022 4e-3l1e-3 -1e-3z" fill="#68b430"/>
    </g>
    <g id="g4150" transform="translate(437.03 543.4)">
     <path id="path4152" d="m0 0s-0.019 0.039-0.019 0.044h-2e-3z" fill="#68b430"/>
    </g>
    <g id="g4154" transform="translate(439.26 551.95)">
     <path id="path4156" d="m0 0c4e-3 0.229 9e-3 0.459 0.013 0.688-0.084-6e-3 -0.167-0.014-0.251-0.021 0.016-0.226 0.033-0.451 0.049-0.676l0.189 9e-3" fill="#68b430"/>
    </g>
    <g id="g4158" transform="translate(437.11 543.72)">
     <path id="path4160" d="m0 0c-0.028-0.081-0.06-0.163-0.091-0.245 0.031 0.082 0.063 0.163 0.094 0.244z" fill="#68b430"/>
    </g>
    <g id="g4162" transform="translate(437.02 543.47)">
     <path id="path4164" d="m0 0c-5e-3 -0.011-9e-3 -0.021-0.013-0.031h1e-3v1e-3c4e-3 9e-3 8e-3 0.02 0.012 0.03" fill="#68b430"/>
    </g>
    <g id="g4166" transform="translate(437.11 543.72)">
     <path id="path4168" d="m0 0v-1e-3h-2e-3l2e-3 -1e-3h-1e-3c5e-3 -1e-3 0.018-2e-3 0.018-2e-3z" fill="#68b430"/>
    </g>
    <g id="g4170" transform="translate(468.32 542.56)">
     <path id="path4172" d="m0 0c7e-3 0.022 0.013 0.046 0.02 0.068-0.038-1e-3 -0.075-3e-3 -0.112-5e-3 8e-3 -0.022 9e-3 -0.053 0.024-0.064s0.045 0 0.068 1e-3" fill="#68b430"/>
    </g>
    <g id="g4174" transform="translate(441.08 547.59)">
     <path id="path4176" d="m0 0-0.05 0.026 1e-3 -0.059z" fill="#68b430"/>
    </g>
    <g id="g4178" transform="translate(484.11 559.5)">
     <path id="path4180" d="m0 0c-0.032 0.021-0.062 0.042-0.096 0.059-3e-3 1e-3 -0.036-0.049-0.034-0.051 0.028-0.024 0.061-0.044 0.092-0.065 0.013 0.019 0.025 0.038 0.038 0.057" fill="#68b430"/>
    </g>
    <g id="g4182" transform="translate(440.3 548.8)">
     <path id="path4184" d="m0 0c5e-3 0.021 0.011 0.042 0.016 0.062-0.032-1e-3 -0.063-3e-3 -0.093-6e-3 5e-3 -0.021 5e-3 -0.048 0.018-0.059 0.011-0.01 0.038 1e-3 0.059 3e-3" fill="#68b430"/>
    </g>
    <g id="g4186" transform="translate(439.54 551.04)">
     <path id="path4188" d="m0 0-0.019-0.061 0.062 0.013z" fill="#68b430"/>
    </g>
    <g id="g4190" transform="translate(439.54 549.64)">
     <path id="path4192" d="m 0,0 c 0.067,0.02 0.163,0.018 0.196,0.062 0.05,0.07 0.058,0.17 0.096,0.305 C 0.157,0.349 0.037,0.354 0.03,0.327 0.001,0.224 0.007,0.109 0,0" fill="#68b430"/>
    </g>
   </g>
  </g>
  <g id="g4194" transform="matrix(2.8962 0 0 -2.8962 -1227.3 1702.3)">
   <g id="g4196" clip-path="url(#clipPath4200)">
    <g id="g4202" transform="translate(445.31 549.34)">
     <path id="path4204" d="m0 0c0.137 0.786-0.144 1.293-0.865 1.293-0.735 0-1.15-0.494-1.326-1.293zm-3.794-3.104c-0.518 0.596-0.579 1.483-0.407 2.471 0.377 2.179 1.685 3.294 3.586 3.294 1.862 0 2.68-0.975 2.307-3.13l-0.098-0.57c-0.018-0.101-0.075-0.139-0.176-0.139h-3.814c-0.131-1.051 0.464-1.343 1.68-1.343 0.444 0 1.088 0.063 1.572 0.152l-0.088-1.318c-0.616-0.114-1.356-0.214-2.128-0.214-1.165 0-1.99 0.291-2.434 0.797" fill="#15a9e1"/>
    </g>
    <g id="g4206" transform="translate(447.23 545.88)">
     <path id="path4208" d="m0 0 0.565 1.507c0.714-0.266 1.687-0.431 2.32-0.431 1.166 0 1.763 0.305 1.901 1.103 0.281 1.622-4.344 0.443-3.753 3.851 0.305 1.761 1.82 2.533 3.669 2.533 0.837 0 1.727-0.125 2.359-0.354l-0.559-1.47c-0.677 0.191-1.417 0.305-2.025 0.305-1.064 0-1.472-0.381-1.567-0.925-0.294-1.698 4.329-0.532 3.743-3.915-0.133-0.772-0.507-1.393-1.039-1.824-0.706-0.57-1.574-0.823-2.815-0.823-1.103 0-1.978 0.138-2.799 0.443" fill="#15a9e1"/>
    </g>
    <g id="g4210" transform="translate(458.83 548.78)">
     <path id="path4212" d="m0 0c0.23 1.331 0.024 1.749-0.799 1.749-0.291 0-0.786-0.076-1.105-0.165l-0.575-3.319c0.269-0.127 0.704-0.177 1.096-0.177 0.76 0 1.124 0.418 1.383 1.912m-3.463 3.041h1.57l-0.028-0.456c0.594 0.354 1.301 0.634 2.061 0.634 0.621 0 1.094-0.191 1.39-0.532 0.484-0.571 0.566-1.559 0.366-2.712-0.423-2.445-1.588-3.319-2.995-3.319-0.557 0-1.163 0.164-1.581 0.456l-0.542-3.13h-1.811z" fill="#15a9e1"/>
    </g>
    <g id="g4214" transform="translate(466.03 548.72)">
     <path id="path4216" d="m0 0c0.222 1.279-0.025 1.9-0.937 1.9-0.913 0-1.376-0.621-1.597-1.9-0.222-1.28 0.025-1.9 0.937-1.9s1.374 0.62 1.597 1.9m-4.422 0c0.345 1.988 1.569 3.281 3.724 3.281 2.153 0 2.93-1.293 2.586-3.281-0.346-1.989-1.571-3.281-3.724-3.281-2.154 0-2.931 1.292-2.586 3.281" fill="#15a9e1"/>
    </g>
    <g id="g4218" transform="translate(469.41 551.82)">
     <path id="path4220" d="m0 0h1.57l-0.024-0.507c0.558 0.444 1.421 0.672 2.017 0.672 0.101 0 0.238-0.013 0.312-0.025l-0.274-1.584c-0.199 0.025-0.498 0.05-0.789 0.05-0.482 0-0.861-0.063-1.269-0.152l-0.808-4.662h-1.811z" fill="#15a9e1"/>
    </g>
    <g id="g4222" transform="translate(474.17 547.49)">
     <path id="path4224" d="m0 0 0.547 3.155h-1.052l0.171 0.988 1.085 0.19 0.239 1.381c0.573 0.165 1.276 0.266 1.858 0.266l-0.285-1.647h1.608l-0.204-1.178h-1.609l-0.503-2.901c-0.121-0.697-0.025-0.95 0.709-0.95 0.254 0 0.668 0.05 0.888 0.076l-0.159-1.28c-0.42-0.089-1.064-0.152-1.609-0.152-1.546 0-1.921 0.684-1.684 2.052" fill="#15a9e1"/>
    </g>
    <g id="g4226" transform="translate(478.65 545.78)">
     <path id="path4228" d="m0 0 0.372 1.343c0.442-0.153 1.279-0.291 1.951-0.291 0.684 0 1.137 0.126 1.213 0.569 0.192 1.103-3.378 0.025-2.932 2.598 0.2 1.152 1.183 2.002 3.045 2.002 0.622 0 1.374-0.115 2.006-0.343l-0.37-1.33c-0.615 0.178-1.357 0.279-1.864 0.279-0.647 0-1.027-0.152-1.089-0.507-0.183-1.051 3.387-0.05 2.94-2.623-0.223-1.292-1.291-2.039-3.153-2.039-0.734 0-1.656 0.164-2.119 0.342" fill="#15a9e1"/>
    </g>
    <g id="g4230" transform="translate(425.22 553.91)">
     <path id="path4232" d="m0 0c-0.702-0.011-1.999-0.357-2.591-2.776-0.258-1.054-0.357-2.152-0.137-3.459 0.204-1.206 0.565-2.247 0.808-2.821 0.084-0.198 0.214-0.404 0.314-0.531 0.289-0.364 0.769-0.341 0.97-0.242 0.221 0.108 0.474 0.37 0.382 0.968-0.044 0.288-0.172 0.71-0.244 0.945-0.22 0.72-0.514 1.588-0.539 2.207-0.034 0.827 0.292 0.936 0.509 0.983 0.364 0.08 0.67-0.319 0.961-0.821 0.345-0.599 0.939-1.659 1.423-2.47 0.438-0.731 1.245-1.513 2.54-1.46 1.322 0.055 2.295 0.559 2.796 2.146 0.376 1.186 0.632 2.073 1.043 2.982 0.474 1.044 1.106 1.604 1.637 1.433 0.494-0.158 0.617-0.641 0.623-1.351 6e-3 -0.627-0.067-1.319-0.124-1.827-0.02-0.184-0.058-0.555-0.042-0.761 0.029-0.405 0.205-0.81 0.661-0.874 0.486-0.069 0.875 0.319 1.031 0.788 0.062 0.185 0.114 0.468 0.142 0.669 0.143 1.014 0.18 1.696 0.115 2.733-0.075 1.213-0.312 2.319-0.726 3.277-0.397 0.915-1.033 1.502-1.849 1.554-0.904 0.058-1.94-0.542-2.484-1.705-0.502-1.072-0.904-2.173-1.147-2.734-0.247-0.571-0.609-0.921-1.167-0.98-0.681-0.072-1.269 0.423-1.699 1.129-0.375 0.615-1.119 1.786-1.517 2.18-0.374 0.37-0.8 0.833-1.689 0.818" fill="#15a9e1"/>
    </g>
    <g id="g4234">
     <g id="g4248">
      <g id="g4246" clip-path="url(#clipPath4240)" opacity=".029999">
       <g id="g4244" transform="translate(424.46 538.61)">
        <path id="path4242" d="m0 0c-0.192 0-0.382 7e-3 -0.57 0.021-4.478 0.326-7.771 4.469-6.977 8.972l0.956 5.42c0.646 3.662 3.827 6.332 7.546 6.332h56.801z" fill="#fff"/>
       </g>
      </g>
     </g>
    </g>
   </g>
  </g>
 </g>
</svg>
