<?xml version="1.0" encoding="UTF-8"?>
<svg id="svg45" width="507.01pt" height="125.33pt" version="1.1" viewBox="0 0 507.01 125.33" xmlns="http://www.w3.org/2000/svg" xmlns:cc="http://creativecommons.org/ns#" xmlns:dc="http://purl.org/dc/elements/1.1/" xmlns:rdf="http://www.w3.org/1999/02/22-rdf-syntax-ns#">
 <metadata id="metadata51">
  <rdf:RDF>
   <cc:Work rdf:about="">
    <dc:format>image/svg+xml</dc:format>
    <dc:type rdf:resource="http://purl.org/dc/dcmitype/StillImage"/>
    <dc:title/>
   </cc:Work>
  </rdf:RDF>
 </metadata>
 <path id="path2-6" d="m131.35 28.207v86.875c0 5.6788 4.5714 10.251 10.25 10.251h355.16c5.6788 0 10.25-4.5719 10.25-10.251v-76.625c0-5.6788-4.5716-10.25-10.25-10.25h-365.43z" fill="#01da95" stroke-width="2.8371"/>
 <g id="g22" transform="matrix(2.8346 0 0 2.8346 137.14 388.63)" fill="#fff" stroke-width="1.0009">
  <path id="path4" d="m9.5872-107.97v6.4998h-3.0838v-16.606h6.2626q1.3047 0 2.2773 0.37956 0.99632 0.37956 1.6368 1.0675 0.6405 0.66422 0.94888 1.5894 0.3321 0.92516 0.3321 2.0164t-0.3321 2.0164q-0.30839 0.92515-0.94888 1.6131-0.6405 0.66422-1.6368 1.0438-0.9726 0.37955-2.2773 0.37955zm3.0601-2.8467q1.0201 0 1.5894-0.52187 0.59305-0.54561 0.59305-1.6843t-0.59305-1.6606q-0.56933-0.54562-1.5894-0.54562h-3.0598v4.4123z"/>
  <path id="path6" d="m18.349-107.64q0-1.3759 0.37956-2.5146 0.37955-1.1387 1.115-1.9452 0.73537-0.80655 1.7792-1.2573 1.0675-0.45071 2.4197-0.45071 0.99632 0 1.8503 0.42699 0.87771 0.40327 1.281 0.90143v-1.1387h2.9415v11.956h-2.943v-1.2336q-0.427 0.59304-1.2336 1.0201-0.78282 0.40328-1.8978 0.40328-1.3522 0-2.4197-0.45073-1.0438-0.45072-1.7792-1.2573-0.73539-0.80655-1.115-1.9452-0.37956-1.1387-0.37956-2.5146zm3.0838 0q0 0.90143 0.23722 1.5893 0.26093 0.66423 0.68793 1.1387 0.427 0.45072 0.9726 0.68794t1.115 0.23722q0.56932 0 1.115-0.23722 0.5456-0.23722 0.94888-0.68794 0.42699-0.47443 0.6642-1.1387 0.26095-0.68792 0.26095-1.5893 0-0.87771-0.26095-1.5657-0.23721-0.68794-0.6642-1.1387-0.40327-0.47445-0.94888-0.71167-0.54561-0.23721-1.115-0.23721-0.56933 0-1.115 0.23721-0.5456 0.23722-0.9726 0.71167-0.427 0.45071-0.68793 1.1387-0.23722 0.68794-0.23722 1.5657z"/>
  <path id="path8" d="m32.538-101.47v-11.956h2.9415v1.9452q0.64049-1.0675 1.5657-1.5894 0.94887-0.54559 1.969-0.54559 0.18978 0 0.427 0.0237 0.26094 0.0237 0.47444 0.0712v2.8703q-0.5456-0.33211-1.2336-0.33211-0.6405 0-1.2336 0.28467-0.56933 0.28467-1.0201 0.90143-0.42699 0.61678-0.68793 1.6368-0.26094 0.99633-0.26094 2.4433v4.2462z"/>
  <path id="path10" d="m48.29-101.73q-0.30839 0.0949-0.73537 0.16605-0.40328 0.0949-1.0438 0.0949-1.8741 0-3.0364-1.0912-1.1387-1.0912-1.1387-3.321v-5.2188h-1.85v-2.5146h1.8503v-2.989l2.9415-1.8503v4.8393h3.155v2.5146h-3.155v5.1714q0 1.115 0.40327 1.542 0.40328 0.40327 1.1624 0.40327 0.40327 0 0.73537-0.0949 0.33212-0.0949 0.71166-0.28466z"/>
  <path id="path12" d="m49.48-116.87q0-0.80656 0.52188-1.3522 0.5456-0.54562 1.3759-0.54562 0.83027 0 1.3522 0.54562 0.5456 0.54559 0.5456 1.3522 0 0.80654-0.5456 1.3522-0.52187 0.5456-1.3522 0.5456-0.83026 0-1.3759-0.5456-0.52188-0.54561-0.52188-1.3522zm3.3685 3.4396v11.956h-2.9415v-11.956z"/>
  <path id="path14" d="m54.328-107.64q0-1.3759 0.33211-2.5146 0.35584-1.1387 1.0438-1.9452 0.68793-0.80655 1.708-1.2573 1.0201-0.45072 2.3722-0.45072 0.90143 0 1.6843 0.40328 0.80653 0.37954 1.2098 0.87771v-5.9305h2.9415v16.795h-2.9415v-1.2336q-0.11861 0.23723-0.37955 0.49816-0.26094 0.23722-0.6405 0.45072t-0.854 0.3321q-0.47444 0.14235-1.0201 0.14235-1.3522 0-2.3722-0.45073-1.0201-0.45072-1.708-1.2573-0.68793-0.80655-1.0438-1.9452-0.33212-1.1387-0.33212-2.5146zm3.0838 0q0 1.7791 0.80654 2.728 0.80653 0.92516 1.969 0.92516 1.1624 0 1.9452-0.92516 0.80654-0.94888 0.80654-2.728 0-1.7792-0.80654-2.7044-0.78282-0.94888-1.9452-0.94888t-1.969 0.94888q-0.80654 0.92515-0.80654 2.7044z"/>
  <path id="path16" d="m67.463-107.64q0-1.3759 0.37955-2.5146 0.37956-1.1387 1.1149-1.9452 0.73539-0.80655 1.7792-1.2573 1.0675-0.45071 2.4197-0.45071 0.99632 0 1.8504 0.42699 0.87771 0.40327 1.281 0.90143v-1.1387h2.9415v11.956h-2.9415v-1.2336q-0.427 0.59304-1.2336 1.0201-0.78283 0.40328-1.8978 0.40328-1.3522 0-2.4197-0.45073-1.0438-0.45072-1.7792-1.2573-0.73537-0.80655-1.1149-1.9452-0.37955-1.1387-0.37955-2.5146zm3.0838 0q0 0.90143 0.23723 1.5893 0.26094 0.66423 0.68794 1.1387 0.42699 0.45072 0.97259 0.68794 0.54561 0.23722 1.1149 0.23722 0.56934 0 1.115-0.23722 0.54559-0.23722 0.94887-0.68794 0.42699-0.47443 0.6642-1.1387 0.26094-0.68792 0.26094-1.5893 0-0.87771-0.26094-1.5657-0.23722-0.68794-0.6642-1.1387-0.40328-0.47445-0.94887-0.71167-0.5456-0.23721-1.115-0.23721-0.56932 0-1.1149 0.23721-0.5456 0.23722-0.97259 0.71167-0.42701 0.45071-0.68794 1.1387-0.23723 0.68794-0.23723 1.5657z"/>
  <path id="path18" d="m81.063-113.43h8.445v1.1387l-5.1239 8.3026h5.4561v2.5146h-9.1567v-1.1387l5.1714-8.3026h-4.7918z"/>
  <path id="path20-5" d="m90.422-107.64q0-1.3047 0.40327-2.4197 0.40327-1.1387 1.1861-1.969 0.78282-0.83027 1.8978-1.3047 1.1387-0.47443 2.5856-0.47443 1.4471 0 2.5619 0.47443 1.1387 0.47444 1.9215 1.3047 0.78282 0.83027 1.1861 1.969 0.40328 1.115 0.40328 2.4197t-0.40328 2.4433q-0.40328 1.115-1.1861 1.9452-0.78282 0.83027-1.9215 1.3047-1.1149 0.47444-2.5619 0.47444-1.4471 0-2.5856-0.47444-1.115-0.47444-1.8978-1.3047-0.78282-0.83027-1.1861-1.9452-0.40327-1.1387-0.40327-2.4433zm3.0838 0q0 0.73538 0.18978 1.3996 0.2135 0.66421 0.59306 1.1624 0.37955 0.49816 0.92514 0.80654 0.56935 0.28467 1.281 0.28467 0.71166 0 1.2573-0.28467 0.56933-0.30838 0.94887-0.80654 0.37955-0.49816 0.56933-1.1624 0.2135-0.66421 0.2135-1.3996 0-0.73538-0.2135-1.3996-0.18978-0.66422-0.56933-1.1624-0.37955-0.49816-0.94887-0.78283-0.54561-0.30838-1.2573-0.30838-0.71164 0-1.281 0.30838-0.54559 0.28467-0.92514 0.78283-0.37957 0.49815-0.59306 1.1624-0.18978 0.66422-0.18978 1.3996z"/>
 </g>
 <g id="g990" transform="translate(0 26.276)" fill="#fff" stroke-width="1.2664">
  <path id="path36" d="m451.64 39.736 4.5589-2e-6v23.06h4.3689v4.0017h-4.3689v7.3451h-4.2929v-7.3451h-15.298l15.032-27.062m-9.0164 23.06h9.3963v-15.842l-9.3963 15.842z"/>
  <path id="path38" d="m464.1 39.831h4.4892v13.835l12.505-13.835h5.8759l-14.069 15.38 15.374 18.938h-5.6479l-14.038-17.33v17.33h-4.4892z"/>
 </g>
 <path id="path24-9" d="m101.9 26.648c-0.60204-4.905-3.8188-27.233-18.274-26.636-12.474 0.6593-16.103 12.36-19.963 21.511-4.6008 12.524-6.197 15.078-12.717 15.078-7.0502-0.32966-11.31-10.158-14.152-14.291-2.3049-3.4333-8.427-14.024-17.157-13.694-4.7536 0-12.184 2.4195-16.87 14.437-4.2423 12.916-2.6355 25.937-1.5251 31.526 3.711 13.84 5.888 21.991 12.411 21.052 7.0114-0.49095 3.1096-11.12 1.2936-16.692-1.1612-3.4687-5.238-15.026-0.5708-17.72 4.9007-3.1614 9.3428 8.8216 13.981 15.914 4.179 7.2699 6.9388 15.675 21.164 15.945 8.8913 0 14.111-5.1252 16.69-10.009 3.8117-7.8737 8.44-34.514 18.494-34.766 7.3334 0.29165 5.3684 12.529 5.2664 16.97-0.2885 4.9274-3.5775 15.153 4.6536 16.157 9.5812 0.16525 8.478-25.822 7.2747-34.78z" fill="#004e7e" stroke-width="2.8371"/>
</svg>
