<?xml version="1.0" encoding="UTF-8"?>
<svg id="svg24" width="317.5mm" height="138.31mm" version="1.1" viewBox="0 0 317.5 138.31" xmlns="http://www.w3.org/2000/svg" xmlns:cc="http://creativecommons.org/ns#" xmlns:dc="http://purl.org/dc/elements/1.1/" xmlns:rdf="http://www.w3.org/1999/02/22-rdf-syntax-ns#">
 <metadata id="metadata30">
  <rdf:RDF>
   <cc:Work rdf:about="">
    <dc:format>image/svg+xml</dc:format>
    <dc:type rdf:resource="http://purl.org/dc/dcmitype/StillImage"/>
    <dc:title/>
   </cc:Work>
  </rdf:RDF>
 </metadata>
 <g id="g937" transform="translate(29.804 147.86)">
  <path id="path2-6" d="m275.22-127.29c6.9126 0 12.478 5.9293 12.478 13.295v91.15c0 7.3651-5.5649 13.295-12.478 13.295h-199.68c-6.9126 0-12.478-5.9293-12.478-13.295l-2.24e-4 -104.44z" fill="#a83e8f" fill-rule="evenodd" stroke-width="1.9264"/>
  <g id="Layer_2" transform="matrix(1.0812 0 0 1.0812 78.462 -113.01)" fill="#fff" data-name="Layer 2">
   <g id="Layer_1-2" fill="#fff" data-name="Layer 1">
    <path id="path8" class="cls-1" d="m81.94 18.06c-0.74-3-3.47-6.85-7.52-10-7.21-5.65-19.19-10-29-7.15a3.9 3.9 0 0 0-1.85 2.45c-0.07 0.93 1.54 1.29 2.8 1.06 0.33-0.08 1-0.12 0.81-0.62-0.47-0.66-1.32-0.41-1.77-0.77 0.16-0.3 0.63-0.31 1-0.45 6.33-0.92 11.09 0.1 16.54 2.36 6 2.58 12.94 6.1 15.39 12.72 0.74 2.44 0.21 5.78-1.94 7.33-4 3-10.24 3.3-15.07 2.21-0.08-3 0.15-5.82 0.15-9 3.43 0.07 8.38 0.73 9.15 2.13 0.13 0.24-0.12 0.68-0.48 0.86-0.73 0.37-1.44 0.78-1.29 1a2.81 2.81 0 0 0 2.35 0.69 4 4 0 0 0 2-2.2 2.8 2.8 0 0 0-0.72-2.68c-2.35-2.3-8.91-2.91-11-2.83 0 0-0.09-3.05-0.16-4.12-0.12-1.8-1.46-3.1-1.72-2.5a23.33 23.33 0 0 0-1.23 6.66 25.2 25.2 0 0 0-4.95 1.17 11.61 11.61 0 0 0-4.06 2.14 2.26 2.26 0 0 0-0.5 2.21c0.84 2.27 5.25 6 9 7.73 0.13 1.12 0.11 2.79 0.83 3.14a2.24 2.24 0 0 0 1.75 0.22c0.77-0.22 0.81-1.67 0.85-2.08 5.6 1.57 12.18 1.38 16.94-1.89a9.19 9.19 0 0 0 3.72-9.76m-24.11 8.08c-2.68-1-6.13-3-7.74-5.32-0.43-0.64-0.53-1.19 0.72-1.66a24.18 24.18 0 0 1 7.38-1c-0.12 2.15-0.3 5.42-0.36 8"/>
    <path id="path10" class="cls-1" d="m86.45 17.58c0.42 3.48 0.41 10.21 0 11-0.3 0.6-1.23 0.61-1.85 0.41-1.29-0.35-0.95-1.94-1.07-3.06a53.85 53.85 0 0 1 0.79-9.54c0.12-0.58 0.33-0.8 0.82-0.79s1.2 1.15 1.29 2"/>
    <path id="path12" class="cls-1" d="m89.9 25.39c0.54 1.07 3.62 1.31 4.88 1.15 2.73-0.33 4.27-1.36 4.47-2.2 0.31-1.24-1.61-1.65-3-2-2.41-0.57-4.6-0.24-7-0.83a1.17 1.17 0 0 1-1-1.09 3.52 3.52 0 0 1 1.1-3.13c2.4-1.81 9.9-2.15 12.28-0.9 0.42 0.23 0.24 0.89 0 1.24-0.54 0.72-1.63 0.49-2.6 0.58-2.74 0.24-5.6 0-8.1 0.82-0.41 0.14-0.34 0.86 0.47 1 3.3 0.53 8.36 0.23 9.4 2.59 0.54 1.2 0.38 3.75-0.5 4.63-1.94 1.94-5.67 1.81-7.27 1.47-1.08-0.23-3.73-1.17-4.44-3.47a1.87 1.87 0 0 1 0.7-1.91c1.44-1.06 3.18-0.76 5.08-0.48a7.31 7.31 0 0 1 3 1.14c0.25 0.51 0.11 1-2.08 1.25s-3.42-1.87-5.09-1.07a1.21 1.21 0 0 0-0.38 1.17"/>
    <path id="path14" class="cls-1" d="m105.52 17.15c1.7 1.63 3.51 5.48 4.82 7.43 0.24 0.37 0.67 0.14 0.68-0.23 0.07-3.41-1.27-6.1-1.68-9.26 0-0.3-0.17-0.94 0.16-1 0.78-0.1 1.47 0.9 1.95 1.49 1.67 2.09 2.49 6.16 2.06 9.31-0.14 1-0.7 3.15-1.64 3.53a2.85 2.85 0 0 1-2 0c-1.66-1.2-3.77-7.14-4.43-7.09-0.17 0-0.3 0.24-0.37 0.74-0.21 1.66-0.42 6.08-0.42 6.08-0.13 1-0.9 0.93-1.26 0.92a1.19 1.19 0 0 1-1.2-0.74 21.1 21.1 0 0 1 0.07-5.1 19 19 0 0 1 1.62-5.77 1 1 0 0 1 1.58-0.36"/>
    <path id="path16" class="cls-1" d="m116.38 21.63 1-2.23c-0.67-0.15-2.12-0.78-2.37-1.93 0-0.18 1-0.45 1.42-0.5a47.47 47.47 0 0 1 7.95-0.44c0.58 0 2.17 1.86 1.74 2.52-0.29 0.47-2.56 0.39-3.47 0.35s-2.57 0.11-2.57 0.11l-0.82 2.12c1.32 0 3.45-0.23 4 0.14 0.24 0.15 0.25 1.24 0.14 1.5-0.29 0.63-1.76 0.41-2.64 0.41s-2.45 0.06-2.45 0.06-1.15 2.3-0.89 2.83 4.64-0.76 5.73-0.55c0.71 0.13 1.19 1.31 0.75 1.7-2.06 1.79-5.4 3.25-7.24 2.68a3.12 3.12 0 0 1-2.1-3.68c0.27-1.09 0.92-3.07 0.92-3.07s-0.32-0.19-0.42-1.45c0-0.48 1.34-0.56 1.33-0.56"/>
    <path id="path18" class="cls-1" d="m137.77 18.45a2.18 2.18 0 0 0-2.17-0.64c-2 0.7-3.16 2.12-4.68 3.72-1 1.1-2 2.87-2.76 3.85a2 2 0 0 1-0.3-1.33c0.38-2.88 3.5-5.07 3.19-7.61-0.06-0.5-1.27 0.58-1.59 0.91-2.07 2.24-3.93 5.08-3.56 8.35a6.45 6.45 0 0 0 0.76 2.21 41.38 41.38 0 0 0-3 7.48 7.41 7.41 0 0 0 0 4.18c0.47 1 2.27 2.42 2.45 1.59a94.12 94.12 0 0 1 3.32-11.23 4.56 4.56 0 0 0 1.65 0.19 8.62 8.62 0 0 0 7.16-6.38c0.55-1.9 0.63-3.8-0.49-5.28m-2.83 7.09a6 6 0 0 1-3.92 1.51 40.77 40.77 0 0 1 2.36-3.66 12.72 12.72 0 0 1 3.09-3c0.32-0.18 0.55 0.22 0.53 0.77a5.82 5.82 0 0 1-2.06 4.4"/>
    <path id="path20-0" class="cls-1" d="m93.34 5.62a2.54 2.54 0 0 0-1.83-0.45c-0.28-1.72-3.81-1.58-5.18-1.26a8 8 0 0 0-5.33 4.09c-0.68 1.28-0.36 3.2 0.56 3.78a2.45 2.45 0 0 0-0.11 1.2c0.11 0.71 0.74 1.38 1.23 1.4s0.87-1.05 1-1.2a8.08 8.08 0 0 0 4 0.28 8.59 8.59 0 0 0 5.91-4.46 2.89 2.89 0 0 0-0.24-3.33m-10.62 4.33a1.44 1.44 0 0 1 0-1.46 4.36 4.36 0 0 1 0.81-1.07 6 6 0 0 1 1.64-1.09 2.33 2.33 0 0 1 1.41-0.15 13.59 13.59 0 0 0-3.86 3.77m6.08 1a6.7 6.7 0 0 1-3.91 0.1c1.34-2.17 3.78-4.1 5.42-4.37 0.9-0.14 1.66-0.13 1.83 0.55 0.27 1-0.58 2.75-3.35 3.76"/>
    <path id="path22" class="cls-1" d="m179.28 66.25c0.22-7.48-7.68-12.13-13.13-15.74-4.52-3-3.3-7.39-1.47-8.78 2.6-2 7.89-2.31 11.23 4.27v-6.31s-0.74 1.64-1.9 1a13.16 13.16 0 0 0-6.01-2.52c-3.74-0.37-9.74 1.79-9.44 8 0.25 5.18 5.69 7.71 10.69 10.95 3.81 2.46 7.17 5.16 6.63 11.31-1.19 6.4-7.12 7.19-9.41 7.09-3.39-0.15-7.94-2.73-7.48-7.81 0.41-4.29 5.21-5.67 8.1-4.09a4.19 4.19 0 0 1 2.12 3.69c-0.05 1.68-1.31 3.39-3.9 3.58a5 5 0 0 1-3.71-2.08 4.46 4.46 0 0 0 5 3.1c5.37-1 5-5.77 4.15-7.57-1.63-3.65-6.36-4.72-10.05-3.24a7.75 7.75 0 0 0-4.86 6.28c-0.79 6.42 4.6 10.92 10.41 11.18 6.23 0.28 13-3.77 13-12.29"/>
    <path id="path24" class="cls-1" d="m143.48 63.45z"/>
    <path id="path26" class="cls-1" d="m141.48 61.38a4.94 4.94 0 0 1 4.72-3.61 3.78 3.78 0 0 1 3.9 3.19 2.84 2.84 0 0 1-2.63 3.41c-1.51 0-2-1.36-2.32-1.94 0.68 0.48 1.12 1 1.88 1a1.66 1.66 0 0 0 1.48-1.22 1.93 1.93 0 0 0-1.89-2.25 2.84 2.84 0 0 0-3 2.75c-0.24 1.45 0.91 3.85 4.06 3.85 3.42 0 5-3.23 4.72-6-0.45-3.12-2.63-4.16-3.66-4.83-3.25-2.1-6.06-3.91-6.2-7.49a5.8 5.8 0 0 1 1.51-4.42 7.06 7.06 0 0 1 9.16-0.39 1.75 1.75 0 0 0 0.77 0.41c0.53 0 0.88-1.65 0.88-1.65v6.81l-0.36-0.95s-1.62-4.21-5.31-4a3.36 3.36 0 0 0-3 2.36c-1.1 3.35 2.65 5.46 3.69 6.19 2.23 1.59 4.77 3.39 5.42 6.28 1.23 5.45-2.24 9.5-5.76 10.2-5.25 1-9.49-3.3-8.06-7.71"/>
    <path id="path28" class="cls-1" d="m137.81 48.65 1.29-4.34h-17.3s1.69 0.42 1.69 1.7v18.29c-0.21 1.08-1.66 1.44-1.66 1.44l-0.22 0.05h17.48l-1.29-4.34s-0.35 1.61-1.29 1.61h-9.38v-16.06h9.38c0.94 0 1.29 1.61 1.29 1.61"/>
    <polygon id="polygon30" class="cls-1" points="132.03 56.72 135.99 54.97 132.03 53.23 128.08 54.97"/>
    <path id="path32" class="cls-1" d="m119.07 45.54a2.86 2.86 0 0 1-1.82-0.57 8.79 8.79 0 0 0-5.25-1.52c-5.63 0-9.81 5.21-9.81 11.63s4.21 11.24 9.81 11.63c3.89 0.27 7.71-2.38 7.71-5.83-1.14 2.64-3.15 3.33-5.77 3.33-4.65 0-7.32-4.09-7.32-9.13s2.7-9.08 7.38-9.08a7.5 7.5 0 0 1 6.14 3.33v-4.97s-0.43 1.13-1 1.18"/>
    <path id="path34" class="cls-1" d="m70.8 65.75h7s-1.69-0.42-1.69-1.7v-18.05c0-1.29 1.69-1.7 1.69-1.7h-7s1.45 0.36 1.66 1.44v18.57c-0.21 1.08-1.66 1.44-1.66 1.44"/>
    <path id="path36" class="cls-1" d="m95.46 47.2v11.18l-9.54-14.07h-5.31s1.45 0.36 1.66 1.44v18.56c-0.21 1.08-1.66 1.44-1.66 1.44h7s-1.69-0.42-1.69-1.7v-15.81l13 19.33s0.18-18.57 0.18-21.57c0-2.2 1.82-1.87 1.82-1.87s-5.46-1.13-5.46 3.07"/>
    <path id="path38" class="cls-1" d="m72.11 68.59c-8.24-2.75-11.11-12.23-11.11-12.23s8 0 8-5.78c0-3.75-2.72-6.21-7.46-6.21h-12.83a0.94 0.94 0 0 1 0.18 0s1.69 0.41 1.69 1.7v18.21c-0.21 1.08-1.66 1.44-1.66 1.44h7s-1.69-0.42-1.69-1.7v-17.02h5.77c2.89 0 4.93 1 4.93 3.74 0 4.91-8.8 4.39-8.8 4.39l1.23 0.57c0.78 3.19 4.4 12.17 13.81 15.1 15.31 4.76 23-5.63 23-5.63s-8.19 8-22 3.38"/>
    <path id="path40" class="cls-1" d="m37.45 53.41 1.86-4.41s-1.62 2.71-3.24 1.46-2.07-5.6-2.07-5.6-0.28 4.53-2 5.56-3.3-1.42-3.3-1.42l1.86 4.45z"/>
    <path id="path42" class="cls-1" d="m46.72 48.41a17.2 17.2 0 0 0-7.36-12.64 25.41 25.41 0 0 0-12.16-4.2 17.79 17.79 0 0 1 0.67-2.26 8.17 8.17 0 0 0-2.55 2.13c-3.65-0.15-10.26 0.14-16.12 3.22a18.41 18.41 0 0 0-7.64 7.28c-4.1 7.56 0.36 15.62 7.53 15.52a7.16 7.16 0 0 0 6.77-9.21 5.34 5.34 0 0 0-5-4.07 4.72 4.72 0 0 0-5 3.47 4.59 4.59 0 0 1 7-1.21c2.59 2.44 1 8.57-3.74 8.36s-7.82-5.51-4.63-11.27c4.76-8.53 17.74-8.53 18.73-8.59a21.66 21.66 0 0 0-1.47 8.36v27c0 4-1.37 7.16-4.8 8.47a6 6 0 0 1-4 0c-5-1.88-3.38-8.18 0.72-8.38a2.89 2.89 0 0 1 3.21 2.13 2.31 2.31 0 0 1-2.5 2.87 3.35 3.35 0 0 1-1.59-0.74 2.79 2.79 0 0 0 1.35 1.35 3.33 3.33 0 0 0 4.11-1.75 4.32 4.32 0 0 0-0.43-4.09c-1.24-2.1-4.63-2.52-6.68-1.71-3.43 1.36-4.35 5.13-4.08 7.22 0.24 2.82 3.86 7.93 10.44 6.59 4.91-1 8.62-4.81 8.62-12.62v-27.79a49.64 49.64 0 0 1 0.43-6.85c6.68 0.49 9.44 2.39 11.66 4.81a15.09 15.09 0 0 1 3.63 14.07 13.84 13.84 0 0 1-5.65 7.69c-3.69 2.49-8.15 3-9.78 3.4a25.09 25.09 0 0 0 12.59-2.55c8.34-4.41 7.8-11.86 7.7-14"/>
   </g>
  </g>
 </g>
 <path id="path20" d="m72.211 18.884c-0.42662-3.4762-2.7062-19.298-12.949-18.876-8.8394 0.46694-11.411 8.7587-14.147 15.244-3.2605 8.8747-4.391 10.685-9.0116 10.685-4.9959-0.23383-8.0145-7.1987-10.029-10.127-1.6332-2.4334-5.9716-9.9381-12.157-9.7046-3.3684 0-8.6334 1.7145-11.955 10.23-3.0065 9.1527-1.8678 18.381-1.081 22.341 2.6297 9.8079 4.1724 15.584 8.7947 14.918 4.9684-0.34739 2.2035-7.8786 0.91691-11.828-0.82317-2.4575-3.7118-10.647-0.40504-12.557 3.473-2.2403 6.6207 6.2514 9.9077 11.277 2.9616 5.1516 4.917 11.108 14.997 11.299 6.3009 0 9.9993-3.6319 11.827-7.0926 2.7009-5.5792 5.9804-24.457 13.105-24.636 5.1965 0.20657 3.8042 8.8787 3.732 12.025-0.20446 3.4918-2.5352 10.738 3.2976 11.45 6.7893 0.11711 6.0076-18.299 5.1551-24.647z" fill="#fff" stroke-width=".35374"/>
</svg>
