<?xml version="1.0" encoding="UTF-8"?>
<svg id="svg34" width="773.08" height="167.11" version="1.1" viewBox="0 0 204.54 44.215" xmlns="http://www.w3.org/2000/svg" xmlns:cc="http://creativecommons.org/ns#" xmlns:dc="http://purl.org/dc/elements/1.1/" xmlns:rdf="http://www.w3.org/1999/02/22-rdf-syntax-ns#">
 <metadata id="metadata40">
  <rdf:RDF>
   <cc:Work rdf:about="">
    <dc:format>image/svg+xml</dc:format>
    <dc:type rdf:resource="http://purl.org/dc/dcmitype/StillImage"/>
    <dc:title/>
   </cc:Work>
  </rdf:RDF>
 </metadata>
 <g id="g10" transform="matrix(1.0749 0 0 1.0749 .00081681 -4.4549e-5)" stroke-width=".93132">
  <path id="path2" d="m43.114 9.2544v28.516c0 1.8641 1.5012 3.3653 3.3653 3.3653h140.45c1.8641 0 3.3653-1.5012 3.3653-3.3653v-25.152c0-1.8641-1.5013-3.3639-3.3653-3.3639h-143.81z" fill="#01da95"/>
  <path id="path4" d="m43.114 9.2538-0.0055 9.5e-4h0.0055z" fill="#ff0"/>
  <path id="path6" d="m43.114 9.254-0.0066 1.93e-4h0.0066z" fill="#ff0"/>
  <path id="path8" d="m33.448 8.747c-0.198-1.61-1.253-8.9391-5.998-8.7431-4.095 0.21638-5.286 4.0572-6.554 7.061-1.509 4.1101-2.033 4.9501-4.173 4.9501-2.315-0.109-3.713-3.3351-4.645-4.6916-0.757-1.127-2.7669-4.6034-5.6324-4.4952-1.5603 0-3.9993 0.79421-5.5375 4.7389-1.3926 4.2389-0.86514 8.5136-0.50064 10.349 1.2181 4.5427 1.9327 7.2178 4.074 6.9104 2.3015-0.16115 1.0206-3.6509 0.42461-5.4799-0.38121-1.1379-1.7194-4.9312-0.18744-5.817 1.6087-1.0377 3.0668 2.8956 4.5892 5.2236 1.3718 2.3863 2.2777 5.1453 6.9469 5.2337 2.9186 0 4.6317-1.6823 5.4785-3.2852 1.2512-2.5845 2.7704-11.329 6.0706-11.412 2.4073 0.09574 1.7622 4.1126 1.7287 5.5704-0.0947 1.6174-1.1744 4.9739 1.5275 5.3036 3.145 0.05427 2.7829-8.476 2.3879-11.416z" fill="#004e7e"/>
 </g>
 <g id="g32" transform="matrix(1.0749 0 0 1.0749 .00081681 -4.4549e-5)" fill="#fff">
  <g id="g28" stroke-width=".9415">
   <path id="path12" d="m60.863 17.785v2.6528h-6.9196v3.5371h5.571v2.6528h-5.571v6.6322h-2.875v-15.475z"/>
   <path id="path14" d="m60.972 27.512q0-1.2159 0.37583-2.255 0.37583-1.0612 1.1054-1.8349 0.72954-0.77376 1.7686-1.2159 1.0612-0.44214 2.4096-0.44214 1.3486 0 2.3876 0.44214 1.0612 0.44215 1.7908 1.2159 0.72955 0.77376 1.1054 1.8349 0.37583 1.039 0.37583 2.255 0 1.2159-0.37583 2.2771-0.37583 1.039-1.1054 1.8128-0.72954 0.77376-1.7908 1.2159-1.039 0.44215-2.3876 0.44215-1.3485 0-2.4096-0.44215-1.04-0.442-1.769-1.216-0.73-0.774-1.106-1.813-0.375-1.061-0.375-2.277zm2.8739 0q0 0.68533 0.17684 1.3044 0.19896 0.619 0.55268 1.0833 0.35372 0.46425 0.86219 0.75165 0.53057 0.26528 1.1938 0.26528 0.66322 0 1.1717-0.26528 0.53058-0.28739 0.88428-0.75165 0.35372-0.46425 0.53058-1.0833 0.19896-0.61901 0.19896-1.3044 0-0.68532-0.19896-1.3044-0.17684-0.619-0.53058-1.0833-0.35371-0.46425-0.88428-0.72954-0.50847-0.2874-1.1717-0.2874t-1.1938 0.2874q-0.50846 0.26528-0.86219 0.72954-0.35372 0.46425-0.55268 1.0833-0.17684 0.61901-0.17684 1.3044z"/>
   <path id="path16" d="m73.869 33.261v-11.143h2.7413v1.8128q0.5969-0.99484 1.4591-1.4811 0.88428-0.50847 1.8349-0.50847 0.17684 0 0.39793 0.02223 0.24318 0.02223 0.44214 0.06631v2.675q-0.50845-0.3095-1.1496-0.3095-0.59689 0-1.1496 0.26528-0.53058 0.26528-0.95064 0.84008-0.39793 0.57479-0.64111 1.5254-0.24318 0.92851-0.24318 2.2771v3.9572z"/>
   <path id="path18" d="m88.5 33.261v-7.4281q0-0.84008-0.37583-1.1938t-0.99484-0.35372q-1.0169 0-1.7243 1.1938-0.68511 1.1942-0.68511 3.6925v4.089h-2.741v-11.142h2.7413v1.7908q0.619-0.92851 1.3706-1.437 0.75166-0.53058 1.8349-0.53058 1.039 0 1.8792 0.55268 0.8622 0.53058 1.2379 1.7465 0.5969-1.0833 1.4811-1.6802 0.88429-0.619 1.9233-0.619 1.5696 0 2.4318 0.90641 0.88429 0.90641 0.88429 2.5202v7.8924h-2.7413v-7.4281q0-0.84008-0.37583-1.1938-0.37581-0.35372-0.99484-0.35372-0.99484 0-1.7022 1.1496-0.70744 1.1274-0.70744 3.493v4.3331z"/>
   <path id="path20" d="m106.64 33.084v-1.7908q-0.619 0.8843-1.5033 1.437-0.8622 0.53057-1.9454 0.53057-1.5033 0-2.4761-0.84008-0.95064-0.84008-0.95064-2.5203v-7.9586h2.7413v7.1406q0 0.99484 0.44214 1.4149 0.44214 0.42004 1.1496 0.42004 0.48636 0 0.95064-0.28739 0.46425-0.3095 0.81797-0.88429t0.55268-1.4149q0.22109-0.84008 0.22109-1.9454v-4.4436h2.7413v11.142z"/>
   <path id="path22" d="m114.24 17.608v15.652h-2.7413v-15.652z"/>
   <path id="path24" d="m115.83 27.512q0-1.2822 0.35372-2.3434 0.35373-1.0612 1.039-1.8128 0.68533-0.75165 1.6581-1.1717 0.99474-0.42004 2.255-0.42004 0.92851 0 1.7243 0.39793 0.81795 0.37583 1.1938 0.84007v-1.0612h2.7413v11.142h-2.7413v-1.1496q-0.39794 0.55268-1.1496 0.95064-0.72954 0.37583-1.7686 0.37583-1.2601 0-2.255-0.42004-0.97276-0.42004-1.6581-1.1717-0.68531-0.75165-1.039-1.8128-0.35372-1.0612-0.35372-2.3434zm2.8739 0q0 0.84008 0.22109 1.4811 0.24318 0.61901 0.6411 1.0612 0.39793 0.42004 0.9064 0.64112 0.50846 0.22108 1.039 0.22108 0.53057 0 1.039-0.22108 0.50848-0.22108 0.88431-0.64112 0.39791-0.44215 0.61899-1.0612 0.24318-0.64112 0.24318-1.4811 0-0.81796-0.24318-1.4591-0.22109-0.64111-0.61899-1.0612-0.37583-0.44215-0.88431-0.66322-0.50848-0.22108-1.039-0.22108-0.53059 0-1.039 0.22108-0.50847 0.22108-0.9064 0.66322-0.39793 0.42004-0.6411 1.0612-0.22109 0.64111-0.22109 1.4591z"/>
   <path id="path26" d="m138.9 17.784v15.476h-2.7855v-11.585l-2.9624 1.7686v-3.0066l4.532-2.6528z"/>
  </g>
  <path id="path30" d="m144.78 21.783c0-0.56742 0.0957-1.0938 0.28713-1.5792 0.19826-0.49222 0.47172-0.91609 0.82038-1.2716 0.34865-0.36233 0.75882-0.64263 1.2305-0.84088 0.47854-0.20509 0.99811-0.30764 1.5587-0.30764s1.0768 0.10255 1.5485 0.30764c0.47855 0.19825 0.89215 0.47855 1.2408 0.84088 0.34865 0.3555 0.61869 0.77937 0.81011 1.2716 0.19825 0.48539 0.29734 1.0118 0.29734 1.5792 0 0.56742-0.0991 1.0973-0.29734 1.5895-0.19142 0.48539-0.46146 0.90925-0.81011 1.2716-0.34866 0.35549-0.76226 0.63237-1.2408 0.83063-0.47171 0.20509-0.98787 0.30764-1.5485 0.30764-0.56059 0-1.0802-0.10255-1.5587-0.30764-0.47172-0.19825-0.88189-0.47513-1.2305-0.83063-0.34866-0.36233-0.62212-0.7862-0.82038-1.2716-0.19142-0.49222-0.28713-1.0221-0.28713-1.5895zm0.82039 0c0 0.45121 0.0718 0.87504 0.21534 1.2715 0.15041 0.38968 0.35892 0.72808 0.62553 1.0152 0.26663 0.28713 0.58795 0.51615 0.96395 0.68706 0.38285 0.16408 0.80671 0.24612 1.2716 0.24612 0.46488 0 0.88535-0.08204 1.2614-0.24612 0.38284-0.17091 0.70757-0.39993 0.97418-0.68706 0.26663-0.28713 0.47172-0.62553 0.61527-1.0152 0.15041-0.39651 0.22561-0.82035 0.22561-1.2715 0-0.4512-0.0752-0.87167-0.22561-1.2614-0.14356-0.39651-0.34865-0.73835-0.61527-1.0255-0.26661-0.28713-0.59134-0.51273-0.97418-0.6768-0.37601-0.17091-0.79647-0.25636-1.2614-0.25636-0.46487 0-0.88874 0.08545-1.2716 0.25636-0.376 0.16408-0.69732 0.38968-0.96395 0.6768-0.26661 0.28713-0.47512 0.62897-0.62553 1.0255-0.14356 0.38967-0.21534 0.81014-0.21534 1.2614zm2.7688 0.3179h-0.38968v1.8663h-0.74v-4.3685h1.5689c0.4512 0 0.7896 0.11622 1.0152 0.34866 0.22559 0.23243 0.33839 0.53323 0.33839 0.9024 0 0.32131-0.0923 0.59135-0.27686 0.81012-0.17774 0.21193-0.40676 0.34524-0.68706 0.39993l1.3023 1.9073h-0.84088zm-0.38968-1.7843v1.0665h0.82036c0.22561 0 0.38626-0.04444 0.48197-0.13331 0.0957-0.0957 0.1435-0.22901 0.1435-0.39993 0-0.17091-0.0478-0.3008-0.1435-0.38968-0.0957-0.0957-0.25632-0.14355-0.48197-0.14355z" stroke-width=".98861"/>
 </g>
 <g id="flowRoot842" transform="matrix(.38911 0 0 .38911 -61.516 -33.957)" fill="#fff" stroke-width="1px" aria-label="UHD">
  <path id="path874" d="m608.47 147.4h-3.32v18.44c0 6.76-2.92 9.72-7.32 9.72-4 0-7.04-2.8-7.04-9.72v-18.44h-3.32v18.4c0 9.2 4.52 12.52 10.2 12.52 6.08 0 10.8-3.56 10.8-12.72z"/>
  <path id="path876" d="m636.48 147.4h-3.32v13h-14.56v-13h-3.32v30.44h3.32v-14.56h14.56v14.56h3.32z"/>
  <path id="path878" d="m643.25 177.76c1.92 0.24 4.08 0.32 6.6 0.32 5.56 0 10-1.52 12.68-4.28 2.88-3 4.16-7.12 4.16-11.96 0-7.48-3.52-14.72-15.76-14.72-2.84 0-5.44 0.28-7.68 0.64zm3.32-27.56c1.04-0.2 2.56-0.4 4.48-0.4 7.92 0 12.16 4.28 12.16 12.2 0 8.72-4.52 13.4-12.76 13.4-1.44 0-2.88-0.04-3.88-0.2z"/>
 </g>
</svg>
