<?xml version="1.0" encoding="UTF-8"?>
<svg id="svg24" width="800.47" height="404.09" version="1.1" viewBox="0 0 211.79 106.92" xmlns="http://www.w3.org/2000/svg" xmlns:cc="http://creativecommons.org/ns#" xmlns:dc="http://purl.org/dc/elements/1.1/" xmlns:rdf="http://www.w3.org/1999/02/22-rdf-syntax-ns#">
 <metadata id="metadata30">
  <rdf:RDF>
   <cc:Work rdf:about="">
    <dc:format>image/svg+xml</dc:format>
    <dc:type rdf:resource="http://purl.org/dc/dcmitype/StillImage"/>
    <dc:title/>
   </cc:Work>
  </rdf:RDF>
 </metadata>
 <path id="path4" d="m57.547 12.352-0.0089 2.59e-4h0.0089z" fill="#ff544d" stroke-width="1.2432"/>
 <path id="path6" d="m44.645 11.676c-0.264-2.1494-1.673-11.932-8.007-11.671-5.466 0.28902-7.056 5.4158-8.747 9.4255-2.016 5.4875-2.715 6.6065-5.572 6.6065-3.089-0.144-4.955-4.451-6.201-6.2616-1.01-1.5043-3.692-6.1447-7.5168-6.0003-2.0828 0-5.3384 1.0601-7.3917 6.3256-1.8587 5.659-1.1548 11.364-0.66824 13.813 1.626 6.0639 2.5799 9.6353 5.4381 9.2239 3.0721-0.2151 1.3625-4.872 0.56678-7.3135-0.50879-1.5198-2.295-6.5836-0.25011-7.7643 2.1473-1.3852 4.0936 3.8652 6.1259 6.9727 1.831 3.1853 3.0403 6.8681 9.2729 6.9862 3.8957 0 6.1826-2.2456 7.3129-4.3853 1.6701-3.4499 3.698-15.122 8.1031-15.233 3.2132 0.1278 2.3523 5.4896 2.3075 7.4355-0.1264 2.159-1.5676 6.6392 2.039 7.0794 4.1981 0.07243 3.7147-11.314 3.1875-15.239z" fill="#004e7e" stroke-width="1.2432"/>
 <g id="#de554dff" transform="matrix(.35279 0 0 .35279 58.972 10.06)">
  <g id="g1741" fill="#ff544d">
   <path id="path2" transform="matrix(2.8346 0 0 2.8346 -167.16 -28.516)" d="m57.547 12.353v42.719c0 2.4882 2.003 4.4915 4.4913 4.4915h145.26c2.4882 0 4.4912-2.0032 4.4912-4.4915v-38.228c0-2.4882-2.0031-4.4913-4.4913-4.4913h-149.76z" stroke-width="1.2432"/>
   <path id="path3" d="m420.45 140.32c-9.9992 0-19.349 0.41395-23.69 1.99-6.53 2.12-11.67 7.59-13.78 14.08-2.42 6.48-1.72 13.65-4.09 20.12-1.09 3.39-5.27 4.26-8.39 3.82-3.58-0.74-5.44-4.17-8.05-6.36-3.93-3.27-10.46-4.08-14.44-0.48-6.34 5.81-5.64 15.3-9.67 22.39-1.71 3.29-6.85 4.71-9.34 1.52-5.09-6.45-5.04-15.45-10-21.97-2.49-3.39-7.2-3.76-10.96-2.7-4.89 1.48-8.57 5.57-10.8 10.03-3.05 5.95-3.74 12.7-4.79 19.2-0.21692 2.2054-0.40521 4.44-0.56865 6.4288-0.73521 13.107-1.0711 24.344-1.0711 36.691 0 2.5518 5.8601 14.506 5.0898 22.435 0 3.5108-2.7619 7.0372-7.7 7.0372-4.6858 0-7.7-3.8782-7.7-7.0372-1.1904-8.0313 4.62-19.796 4.62-22.435-0.08-12.19-0.63018-23.331-0.95-36.691-0.22-10.69-2.46-21.149-5.92-31.249-4.08-11.57-11.25-22.47-21.82-29.03-8.66-5.28-18.86-7.62-28.92-7.79l96.47-34.173z"/>
  </g>
 </g>
 <g id="g992" fill="#fff">
  <path id="path8-2-1" d="m67.083 23.493h4.3081v8.1739h9.7382l5.9e-5 -8.1739h4.3081v20.656h-4.3081l-1.2e-4 -8.1739h-9.7382v8.1739l-4.308 1.3e-4z" stroke-width="1.5218"/>
  <path id="path24-1-3" d="m133.1 36.719q0-1.623-0.50167-3.01-0.50166-1.4165-1.4755-2.4493-0.97383-1.0328-2.3608-1.623-1.4165-0.59021-3.2165-0.59021t-3.1871 0.59021q-1.4165 0.59019-2.3904 1.623-0.97388 1.0328-1.4755 2.4493-0.50167 1.387-0.50167 3.01 0 1.6231 0.50167 3.0396 0.50167 1.387 1.4755 2.4197 0.97383 1.0328 2.3904 1.6231 1.387 0.59019 3.1871 0.59019t3.2165-0.59019q1.387-0.59021 2.3608-1.6231 0.97382-1.0328 1.4755-2.4197 0.50167-1.4165 0.50167-3.0396zm-3.8364 0q0 0.91482-0.23608 1.7411-0.26559 0.82627-0.73773 1.446-0.47217 0.6197-1.1509 1.0033-0.70824 0.35413-1.5935 0.35413-0.88531 0-1.564-0.35413-0.70824-0.38362-1.1804-1.0033-0.47217-0.61972-0.70825-1.446-0.26558-0.82627-0.26558-1.7411 0-0.9148 0.26558-1.7411 0.23608-0.82627 0.70825-1.446 0.47216-0.61972 1.1804-0.97383 0.67871-0.38364 1.564-0.38364t1.5935 0.38364q0.67873 0.35411 1.1509 0.97383 0.47214 0.6197 0.73773 1.446 0.23608 0.82629 0.23608 1.7411z" stroke-width="1.2296px"/>
  <path id="path26-6-8" d="m111.37 23.256v20.893h3.6593v-20.893z" stroke-width="1.2296px"/>
  <path id="path28-9-8" d="m104.79 23.256v20.893h3.6593v-20.893z" stroke-width="1.2296px"/>
  <path id="path20-8-8" d="m87.198 36.711c0-1.1408 0.1573-2.1836 0.47224-3.1278 0.31494-0.94449 0.77687-1.751 1.3871-2.4202 0.60989-0.66856 1.3478-1.1898 2.213-1.5641 0.8855-0.37361 1.8887-0.56057 3.0101-0.56057 0.82619 0 1.5934 0.17729 2.3019 0.53092 0.72788 0.3346 1.2591 0.70821 1.5934 1.1215v-1.4161h3.6597v14.873h-3.6597v-1.5347c-0.35394 0.49159-0.86551 0.91484-1.5344 1.2694-0.64922 0.33428-1.4361 0.50158-2.3606 0.50158-1.1215 0-2.125-0.18696-3.0101-0.56057-0.86584-0.37393-1.6037-0.89517-2.2133-1.5641-0.60989-0.6692-1.0722-1.4757-1.3871-2.4202-0.31494-0.94417-0.47224-1.987-0.47224-3.1278zm3.8366 0c0 0.74754 0.0983 1.4064 0.29495 1.9773 0.2163 0.55058 0.50191 1.0228 0.85553 1.4164 0.35426 0.37393 0.75785 0.65921 1.2101 0.85585s0.91484 0.29495 1.3871 0.29495c0.47225 0 0.93418-0.09832 1.3871-0.29495 0.45226-0.19664 0.84585-0.48192 1.1801-0.85585 0.35427-0.39359 0.62956-0.86584 0.82619-1.4164 0.21662-0.57089 0.32461-1.2295 0.32461-1.9773 0-0.72787-0.10799-1.3768-0.32461-1.9473-0.19663-0.57089-0.47224-1.0428-0.82619-1.4167-0.33428-0.39359-0.72787-0.68887-1.1801-0.88518-0.45258-0.19696-0.91484-0.29528-1.3871-0.29528-0.47224 0-0.9345 0.09832-1.3871 0.29528-0.45226 0.19631-0.85585 0.49159-1.2101 0.88518-0.35395 0.37393-0.63923 0.84585-0.85553 1.4167-0.19696 0.57024-0.29495 1.2195-0.29495 1.9473z" stroke-width=".32235"/>
  <path id="path18" d="m186.74 37.656h-10.24q0.0295 0.6197 0.26559 1.2394 0.23607 0.59019 0.67871 1.0623 0.44264 0.47216 1.0624 0.76726 0.64921 0.2951 1.5049 0.2951 1.2689 0 2.0657-0.53118 0.79676-0.56069 1.4459-1.5936l2.951 1.0919q-0.44265 0.9148-1.0328 1.6821-0.59019 0.76725-1.3869 1.3279-0.79676 0.53118-1.859 0.85578-1.0328 0.2951-2.3903 0.2951-1.9182 0-3.2756-0.70823t-2.2133-1.8q-0.85577-1.1214-1.2689-2.4788-0.38362-1.3574-0.38362-2.6854t0.38362-2.6854q0.41313-1.3574 1.2689-2.4493 0.85579-1.1214 2.2133-1.8295 1.3574-0.70823 3.2756-0.70823 1.859 0 3.1575 0.70823 1.3279 0.67872 2.1542 1.7706 0.85578 1.0623 1.2394 2.3608 0.38362 1.2984 0.38362 2.5083zm-6.9347-5.7249q-0.70824 0-1.269 0.26559-0.53117 0.23608-0.94431 0.64921-0.38362 0.38362-0.64921 0.88529-0.26558 0.50167-0.35412 1.0328h6.4036q-0.11804-0.56068-0.35412-1.0623t-0.6197-0.88529q-0.38362-0.41313-0.94431-0.64921-0.53116-0.23608-1.2689-0.23608z" stroke-width="1.166"/>
  <path id="path20-22" d="m192.49 29.276v2.3903c0.55085-0.78688 1.2099-1.4164 1.9772-1.8887 0.78696-0.49183 1.6624-0.73774 2.6264-0.73774 1.3378 0 2.4296 0.37379 3.2756 1.1214 0.86563 0.74758 1.2984 1.8689 1.2984 3.3641l1e-5 10.623h-3.6592v-9.5316c0-0.8853-0.19673-1.5148-0.5902-1.8887-0.39346-0.37379-0.90494-0.56069-1.5344-0.56069-0.45248 0-0.8853 0.13771-1.2984 0.41313-0.39346 0.25575-0.74758 0.63937-1.0624 1.1509s-0.57052 1.1411-0.76725 1.8887c-0.17705 0.74758-0.26558 1.6132-0.26558 2.5969v5.9314h-3.6592v-14.872z" stroke-width="1.166"/>
  <path id="path16-3" d="m170.24 37.657h-10.24q0.0295 0.6197 0.26559 1.2394 0.23607 0.59019 0.67872 1.0623 0.44264 0.47215 1.0623 0.76725 0.64921 0.2951 1.505 0.2951 1.2689 0 2.0657-0.53117 0.79675-0.56068 1.446-1.5935l2.951 1.0919q-0.44265 0.9148-1.0328 1.682-0.59019 0.76725-1.387 1.3279-0.79675 0.53117-1.8591 0.85578-1.0328 0.2951-2.3903 0.2951-1.9181 0-3.2756-0.70823-1.3574-0.70823-2.2132-1.8001-0.85577-1.1214-1.2689-2.4788-0.38362-1.3574-0.38362-2.6854 0-1.3279 0.38362-2.6854 0.41314-1.3574 1.2689-2.4493 0.85578-1.1214 2.2132-1.8296 1.3574-0.70823 3.2756-0.70823 1.8591 0 3.1575 0.70823 1.3279 0.67872 2.1542 1.7706 0.85578 1.0623 1.2394 2.3608 0.38362 1.2984 0.38362 2.5083zm-6.9347-5.7249q-0.70823 0-1.2689 0.26559-0.53117 0.23608-0.94431 0.64921-0.38362 0.38362-0.64921 0.88529-0.26558 0.50166-0.35411 1.0328h6.4036q-0.11804-0.56068-0.35411-1.0623-0.23608-0.50166-0.6197-0.88529-0.38363-0.41313-0.94431-0.64921-0.53117-0.23608-1.2689-0.23608z"/>
  <path id="path26-6-8-8" d="m133.61 29.356 4.5364 14.713h3.6594l2.7069-8.7792 2.7064 8.7792h3.6594l4.5364-14.713h-3.6594l-2.7064 8.7792-2.7069-8.7792h-3.6594l-2.7064 8.7792-2.7069-8.7792z" stroke-width="1.2296px"/>
 </g>
</svg>
