<?xml version="1.0" encoding="UTF-8"?>
<svg id="svg26" width="137.93pt" height="97.209pt" version="1.1" viewBox="0 0 137.93 97.209" xmlns="http://www.w3.org/2000/svg" xmlns:cc="http://creativecommons.org/ns#" xmlns:dc="http://purl.org/dc/elements/1.1/" xmlns:rdf="http://www.w3.org/1999/02/22-rdf-syntax-ns#">
 <metadata id="metadata32">
  <rdf:RDF>
   <cc:Work rdf:about="">
    <dc:format>image/svg+xml</dc:format>
    <dc:type rdf:resource="http://purl.org/dc/dcmitype/StillImage"/>
    <dc:title/>
   </cc:Work>
  </rdf:RDF>
 </metadata>
 <g id="#004f7cff" transform="translate(-1.1269 -1.5001)" fill="#fff">
  <path id="path2" d="m70.41 2.67c3.79-1.73 8.56-1.64 11.9 1.01 4.66 3.61 6.44 9.56 7.91 15.02 2.42 10.61 2.7 21.87 0.19 32.49-0.75 3.77-6.02 6.66-8.88 3.25-2.59-3.98-0.63-9-0.59-13.39 0.08-4.33 1.3-9.53-1.73-13.14-2.89-2.75-6.81-0.01-8.58 2.64-5.7 8.11-6.89 18.29-10.9 27.18-5.03 10.65-22.01 11.82-28.73 2.25-4.35-6.18-7.49-13.12-11.62-19.44-1-1.35-2.43-3.18-4.35-2.69-2.43 0.31-3.06 3.1-2.98 5.14 0.21 7.24 4.01 13.78 4.8 20.92 0.4 2.73-1.96 5.56-4.82 5.02-3.29-0.22-4.75-3.64-5.84-6.27-3.87-10.31-6.35-21.56-4.36-32.56 1.12-6.29 2.98-12.98 7.85-17.45 4.35-4.05 11.78-4.66 16.37-0.66 6.37 5.22 9.19 13.35 14.63 19.35 3.33 3.84 10.21 3.78 12.79-0.88 3.53-6.71 5.49-14.17 9.22-20.79 1.81-3.01 4.48-5.57 7.72-7z"/>
  <path id="path4" d="m113.92 1.56c2.94-0.09 5.89-0.08 8.83 0.04 0 5.41-0.01 10.81 0.01 16.22 0 2.97-0.01 5.94-0.03 8.9-2.95 0.03-5.9 0.04-8.84 0.04-5.38-0.02-10.76 0.01-16.14-0.03-0.16-2.96-0.16-5.92-0.07-8.88 5.4-0.08 10.79-0.01 16.19-0.05 0.03-5.41-0.03-10.82 0.05-16.24z"/>
  <path id="path6" d="m96.15 76.2h3.93c0.02 1.22 0.04 2.45 0.06 3.67 1.26 0.01 2.53 0.02 3.79 0.03 0 0.81 0 2.44 0.01 3.26-1.27 0.01-2.54 0.03-3.81 0.04 0.04 3.21-0.21 6.43 0.15 9.62 0.17 1.95 2.49 1.87 3.88 2.32v3.28c-2.94-0.06-6.94-0.48-7.67-4-0.81-6.02-0.18-12.15-0.34-18.22z"/>
  <path id="path8" d="m3.7 82.89c2.54-4.59 9.09-3.84 13.19-2.01 4.1-1.88 10.81-2.56 13.16 2.2 0.94 5 0.24 10.15 0.44 15.21-0.99 0-2.97 0-3.96 0.01-0.1-4.11 0.1-8.22-0.1-12.32 0.2-3.64-5.27-3.78-7.18-1.73-0.87 4.61-0.26 9.36-0.44 14.03-1.32 0.01-2.65 0.02-3.97 0.03-0.2-4.6 0.34-9.26-0.32-13.83-1.66-2.39-7.49-2.18-7.28 1.47-0.26 4.11-0.06 8.24-0.13 12.36-1.31-0.01-2.61-0.02-3.92-0.02 0.27-5.12-0.61-10.38 0.51-15.4z"/>
  <path id="path10" d="m37.31 80.39c2.98-1.21 6.48-1.19 9.51-0.13 3.41 1.38 3.82 5.56 3.79 8.76-0.03 3-0.19 6.77-3.06 8.52-2.91 1.5-6.49 1.42-9.57 0.53-3.39-1.05-4.2-4.98-4.17-8.08-0.05-3.38-0.04-7.88 3.5-9.6m2.04 3.14c-2.33 2.41-1.55 6.38-1.15 9.4 0.58 2.55 3.75 2.41 5.77 2.09 2.74-0.45 2.54-3.86 2.64-5.97-0.16-1.95 0.15-4.71-1.96-5.72-1.71-0.47-3.67-0.57-5.3 0.2z"/>
  <path id="path12" d="m52.58 79.9c1.39-0.01 2.77-0.01 4.16-0.01 0.45 5 1.86 9.84 3.91 14.41 2.56-4.38 3.61-9.43 4.19-14.41 1.38 0 2.75 0 4.13 0.01-0.46 6.54-3.02 12.67-6.05 18.4-1.42 0-2.84 0.01-4.26 0.02-3.16-5.69-5.69-11.85-6.08-18.42z"/>
  <path id="path14" d="m72.07 79.89h3.93c0 6.14 0.01 12.27-0.01 18.41-1.31 0-2.62 0-3.92-0.01-0.01-6.13-0.02-12.27 0-18.4z"/>
  <path id="path16" d="m82.31 80.39c3.03-1.44 6.47-0.71 9.67-0.37 0 0.82 0.02 2.47 0.03 3.29-2.8-0.06-6.21-1.43-8.56 0.68 0.09 3.12 4.3 2.83 6.34 4.26 3.78 1.09 4.48 6.61 1.45 8.87-3.28 2.29-7.53 1.51-11.19 0.79-0.02-0.85-0.05-2.55-0.07-3.4 2.99 0.31 8.04 2.38 9.48-1.42-1.93-3.2-6.8-2.46-9.01-5.44-1.56-2.35-0.76-6.03 1.86-7.26z"/>
  <path id="path18" d="m108.53 79.96c3.76-0.34 8.09-1.19 11.41 1.15 2.68 2.1 2.03 5.88 2.16 8.87-0.14 2.41 0.26 5.43-1.87 7.12-2.92 2.06-6.92 1.88-10.18 0.85-4.42-1.42-4.64-8.52-0.53-10.44 2.74-1.36 5.88-0.75 8.8-0.61-0.03-5.36-6.32-3.94-9.82-3.69 0.01-0.82 0.02-2.44 0.03-3.25m1.99 12.01c-0.45 3.68 4.7 4.15 6.97 2.56 0.77-1.31 0.5-2.94 0.75-4.38-2.55-0.01-6.52-1.36-7.72 1.82z"/>
  <path id="path20" d="m125.65 83.68c0.92-4.14 5.85-4.31 9.27-4.2 0.01 0.84 0.02 2.51 0.02 3.35-1.75 0.39-4.37-0.33-5.31 1.66-0.58 4.57-0.1 9.21-0.27 13.8-0.99 0.01-2.98 0.01-3.97 0.01 0.12-4.87-0.35-9.78 0.26-14.62z"/>
 </g>
 <g id="#20a5d5ff" transform="translate(-1.1269 -1.5001)">
  <path id="path23" d="m122.76 17.82c5.4 0 10.81-0.05 16.21 0.04 0.12 2.94 0.12 5.88-0.01 8.82-5.4 0.14-10.8 0.04-16.2 0.08-0.04 5.41 0.05 10.82-0.07 16.23-2.92 0.1-5.85 0.09-8.77-0.04-0.07-5.4-0.03-10.79-0.03-16.19 2.94 0 5.89-0.01 8.84-0.04 0.02-2.96 0.03-5.93 0.03-8.9z" fill="#fff" opacity=".5"/>
 </g>
</svg>
