<?xml version="1.0" encoding="UTF-8"?>
<!-- Generator: Adobe Illustrator 16.0.0, SVG Export Plug-In . SVG Version: 6.00 Build 0)  -->
<!DOCTYPE svg  PUBLIC '-//W3C//DTD SVG 1.1//EN'  'http://www.w3.org/Graphics/SVG/1.1/DTD/svg11.dtd'>
<svg id="Capa_1" width="600px" height="253.29px" enable-background="new 0 0 600 253.29" version="1.1" viewBox="0 0 600 253.29" xml:space="preserve" xmlns="http://www.w3.org/2000/svg">
	<path d="m265.49 56.981v175.59c0 11.479 9.239 20.719 20.719 20.719h293.07c11.478 0 20.718-9.24 20.718-20.719v-154.87c0-11.478-9.24-20.718-20.718-20.718l-313.79-1e-3z" fill="#FF544D"/>
	<path d="m265.49 56.981-0.042 1e-3h0.042v-1e-3z" fill="#FF544D"/>
	<path d="m205.97 53.86c-1.214-9.914-7.718-55.043-36.933-53.837-25.212 1.333-32.548 24.983-40.353 43.478-9.297 25.314-12.524 30.477-25.699 30.477-14.251-0.666-22.861-20.53-28.606-28.883-4.656-6.942-17.029-28.346-34.675-27.68-9.608 0-24.626 4.891-34.098 29.179-8.574 26.108-5.327 52.424-3.082 63.72 7.5 27.972 11.9 44.445 25.085 42.548 14.173-0.99 6.285-22.472 2.615-33.734-2.348-7.011-10.588-30.371-1.154-35.817 9.905-6.39 18.884 17.83 28.259 32.165 8.446 14.693 14.024 31.682 42.774 32.227 17.972 0 28.521-10.359 33.734-20.229 7.704-15.915 17.059-69.76 37.379-70.27 14.822 0.589 10.851 25.323 10.645 34.299-0.583 9.959-7.23 30.626 9.406 32.657 19.366 0.334 17.136-52.19 14.703-70.3z" fill="#fff"/>
<g fill="#fff">
	<path d="m378.7 109.02-25.184 43.833 29.676 51.456h-19.593l-19.738-34.439-19.737 34.439h-19.603l29.676-51.456-25.184-43.833h19.33l15.519 26.954 15.519-26.954h19.319z"/>
	<path d="m422.05 202.81c-1.18 0.363-2.586 0.681-4.22 0.953-1.543 0.362-3.539 0.544-5.989 0.544-7.169 0-12.978-2.087-17.424-6.262-4.356-4.174-6.534-10.526-6.534-19.057v-29.946h-10.618v-14.43h10.618v-17.152l16.879-10.618v27.77h18.104v14.43h-18.104v29.675c0 4.266 0.771 7.215 2.314 8.849 1.543 1.543 3.766 2.314 6.67 2.314 1.543 0 2.949-0.182 4.22-0.545s2.632-0.908 4.084-1.634v15.109z"/>
	<path d="m431.35 204.3v-68.607h16.88v11.162c2.45-4.083 5.444-7.123 8.984-9.119 3.63-2.088 7.396-3.131 11.298-3.131 0.727 0 1.543 0.045 2.45 0.135 0.999 0.092 1.906 0.228 2.723 0.409v16.472c-2.087-1.271-4.446-1.906-7.079-1.906-2.45 0-4.81 0.545-7.078 1.633-2.178 1.09-4.129 2.814-5.854 5.174-1.633 2.359-2.949 5.49-3.947 9.393-0.998 3.812-1.497 8.485-1.497 14.021v24.365h-16.88z"/>
	<path d="m477.88 168.91c0-5.264 0.727-10.072 2.179-14.429 1.451-4.356 3.584-8.077 6.397-11.162 2.813-3.086 6.217-5.491 10.209-7.215 4.084-1.725 8.713-2.587 13.885-2.587 3.812 0 7.352 0.816 10.618 2.451 3.357 1.542 5.808 3.267 7.351 5.172v-6.533h16.88v68.606h-16.88v-7.079c-1.633 2.27-3.992 4.221-7.078 5.854-2.995 1.543-6.625 2.314-10.891 2.314-5.172 0-9.801-0.861-13.884-2.586-3.993-1.725-7.396-4.129-10.21-7.215s-4.946-6.807-6.397-11.162c-1.452-4.356-2.179-9.166-2.179-14.429zm17.698 0c0 3.449 0.453 6.489 1.361 9.121 0.998 2.541 2.313 4.719 3.947 6.534 1.633 1.724 3.494 3.04 5.581 3.947s4.22 1.361 6.397 1.361c2.179 0 4.311-0.454 6.398-1.361s3.902-2.224 5.444-3.947c1.634-1.815 2.904-3.993 3.812-6.534 0.998-2.632 1.498-5.672 1.498-9.121 0-3.357-0.5-6.352-1.498-8.984-0.907-2.631-2.178-4.809-3.812-6.533-1.543-1.815-3.357-3.177-5.444-4.084-2.088-0.907-4.221-1.361-6.398-1.361s-4.311 0.454-6.397 1.361c-2.087 0.908-3.947 2.269-5.581 4.084-1.634 1.725-2.949 3.902-3.947 6.533-0.908 2.632-1.361 5.626-1.361 8.984z"/>
</g>
</svg>
