<?xml version="1.0" encoding="UTF-8"?>
<!-- Generator: Adobe Illustrator 16.0.0, SVG Export Plug-In . SVG Version: 6.00 Build 0)  -->
<!DOCTYPE svg  PUBLIC '-//W3C//DTD SVG 1.1//EN'  'http://www.w3.org/Graphics/SVG/1.1/DTD/svg11.dtd'>
<svg id="Capa_1" width="600px" height="214px" enable-background="new 0 0 600 214" version="1.1" viewBox="0 0 600 214" xml:space="preserve" xmlns="http://www.w3.org/2000/svg">
	<path d="m224.3 48.143v148.35c0 9.697 7.807 17.505 17.504 17.505h340.7c9.697 0 17.504-7.807 17.504-17.505v-130.85c0-9.697-7.807-17.504-17.504-17.504h-358.2l2e-3 -2e-3z" fill="#FF544D"/>
	<path d="m224.3 48.143-0.035 1e-3 0.035-1e-3z" fill="#FF544D"/>
	<path d="m174.01 45.505c-1.027-8.376-6.523-46.502-31.207-45.486-21.301 1.127-27.499 21.108-34.091 36.735-7.857 21.385-10.582 25.747-21.717 25.747-12.038-0.559-19.313-17.344-24.166-24.404-3.935-5.862-14.389-23.947-29.296-23.384-8.118 0-20.806 4.131-28.809 24.653-7.244 22.056-4.501 44.292-2.604 53.835 6.337 23.633 10.055 37.553 21.194 35.949 11.974-0.838 5.311-18.988 2.209-28.504-1.983-5.923-8.944-25.659-0.975-30.26 8.369-5.398 15.954 15.064 23.875 27.175 7.137 12.415 11.85 26.768 36.141 27.228 15.183 0 24.096-8.752 28.501-17.091 6.509-13.446 14.412-58.938 31.581-59.368 12.522 0.498 9.167 21.395 8.993 28.979-0.493 8.414-6.11 25.876 7.946 27.591 16.362 0.283 14.479-44.095 12.425-59.395z" fill="#fff"/>
<g fill="#fff">
	<path d="m265.67 171.61v-80.51h25.188c4.754 0 9.354 0.767 13.801 2.3 4.523 1.533 8.549 3.949 12.076 7.246 3.526 3.297 6.325 7.476 8.396 12.536 2.146 5.061 3.221 11.118 3.221 18.172s-1.074 13.11-3.221 18.171c-2.07 5.061-4.869 9.24-8.396 12.537s-7.553 5.712-12.076 7.245c-4.447 1.534-9.047 2.3-13.801 2.3l-25.188 3e-3zm20.472-13.8c3.221 0 6.44-0.385 9.661-1.15 3.22-0.768 6.096-2.109 8.626-4.025 2.606-1.994 4.715-4.678 6.325-8.051 1.61-3.451 2.415-7.859 2.415-13.227s-0.805-9.738-2.415-13.111c-1.61-3.45-3.719-6.134-6.325-8.051-2.53-1.993-5.406-3.374-8.626-4.14-3.221-0.767-6.44-1.15-9.661-1.15h-5.521v52.905h5.521z"/>
	<path d="m392.46 118.01c-1.534-4.063-3.834-7.398-6.901-10.006-3.066-2.683-7.398-4.025-12.996-4.025-3.144 0-6.095 0.575-8.855 1.725-2.76 1.074-5.176 2.761-7.245 5.061-2.07 2.224-3.719 5.06-4.946 8.511-1.227 3.373-1.84 7.398-1.84 12.076 0 4.677 0.613 8.74 1.84 12.191 1.228 3.373 2.876 6.21 4.946 8.51 2.069 2.225 4.485 3.91 7.245 5.061 2.761 1.074 5.712 1.61 8.855 1.61 5.598 0 9.93-1.304 12.996-3.91 3.067-2.685 5.367-6.058 6.901-10.121l13.456 3.45c-1.917 7.744-5.751 13.763-11.501 18.057-5.751 4.217-13.035 6.326-21.853 6.326-5.061 0-9.891-0.883-14.491-2.646-4.523-1.764-8.549-4.37-12.076-7.82-3.526-3.451-6.325-7.744-8.396-12.881-2.07-5.138-3.105-11.08-3.105-17.827s1.035-12.689 3.105-17.827c2.07-5.137 4.869-9.43 8.396-12.88 3.527-3.451 7.553-6.058 12.076-7.821 4.601-1.763 9.431-2.645 14.491-2.645 8.817 0 16.102 2.147 21.853 6.44 5.75 4.217 9.584 10.198 11.501 17.941l-13.456 3.45z"/>
	<path d="m410.15 97.885c0-2.607 0.844-4.792 2.53-6.556 1.764-1.763 3.987-2.645 6.671-2.645s4.868 0.882 6.556 2.645c1.763 1.764 2.645 3.949 2.645 6.556s-0.882 4.792-2.645 6.555c-1.688 1.764-3.872 2.646-6.556 2.646s-4.907-0.882-6.671-2.646c-1.687-1.763-2.53-3.948-2.53-6.555zm16.331 16.676v57.967h-14.261v-57.967h14.261z"/>
	<path d="m451.58 114.56v9.315c2.147-3.066 4.716-5.52 7.706-7.36 3.066-1.917 6.479-2.875 10.235-2.875 5.214 0 9.47 1.456 12.767 4.37 3.374 2.914 5.061 7.283 5.061 13.111v41.404h-14.262v-37.148c0-3.451-0.767-5.904-2.3-7.361-1.533-1.456-3.527-2.185-5.98-2.185-1.764 0-3.45 0.536-5.061 1.61-1.533 0.996-2.913 2.492-4.141 4.485-1.227 1.993-2.224 4.446-2.99 7.36-0.689 2.914-1.035 6.287-1.035 10.121v23.117h-14.261v-57.964h14.261z"/>
	<path d="m550.03 147.22h-39.907c0.077 1.609 0.422 3.22 1.035 4.83 0.613 1.533 1.495 2.914 2.646 4.141s2.53 2.223 4.141 2.99c1.687 0.766 3.642 1.149 5.865 1.149 3.297 0 5.98-0.69 8.051-2.069 2.07-1.457 3.948-3.527 5.636-6.211l11.501 4.256c-1.15 2.377-2.492 4.562-4.025 6.555-1.534 1.994-3.336 3.719-5.405 5.176-2.07 1.38-4.485 2.492-7.246 3.336-2.684 0.766-5.789 1.149-9.315 1.149-4.984 0-9.239-0.92-12.767-2.761-3.527-1.84-6.402-4.178-8.626-7.016-2.224-2.912-3.872-6.133-4.945-9.66-0.997-3.527-1.495-7.016-1.495-10.466s0.498-6.938 1.495-10.466c1.073-3.527 2.722-6.709 4.945-9.545 2.224-2.914 5.099-5.291 8.626-7.131 3.527-1.841 7.782-2.761 12.767-2.761 4.83 0 8.933 0.92 12.306 2.761 3.45 1.764 6.249 4.063 8.396 6.9 2.224 2.76 3.834 5.826 4.831 9.201 0.997 3.373 1.495 6.631 1.495 9.775l-5e-3 5.867zm-27.028-22.313c-1.84 0-3.488 0.345-4.945 1.035-1.38 0.613-2.606 1.457-3.68 2.529-0.997 0.997-1.841 2.147-2.53 3.451-0.69 1.303-1.15 2.645-1.381 4.025h24.957c-0.307-1.457-0.767-2.838-1.38-4.141-0.613-1.304-1.418-2.453-2.415-3.45-0.997-1.073-2.224-1.917-3.681-2.53-1.379-0.612-3.028-0.919-4.945-0.919z"/>
</g>
</svg>
