<?xml version="1.0" encoding="UTF-8"?>
<!-- Generator: Adobe Illustrator 16.0.0, SVG Export Plug-In . SVG Version: 6.00 Build 0)  -->
<!DOCTYPE svg  PUBLIC '-//W3C//DTD SVG 1.1//EN'  'http://www.w3.org/Graphics/SVG/1.1/DTD/svg11.dtd'>
<svg id="Capa_1" width="600px" height="158.78px" enable-background="new 0 0 600 158.779" version="1.1" viewBox="0 0 600 158.78" xml:space="preserve" xmlns="http://www.w3.org/2000/svg">
	<path d="m166.48 35.698v110.09c0 7.197 5.797 12.993 12.993 12.993h407.5c7.196 0 12.993-5.796 12.993-12.993v-97.108c0-7.197-5.797-12.984-12.993-12.984h-420.5l8e-3 5e-3z" fill="#FF8C1F"/>
	<path d="m166.48 35.698-0.033 1e-3 0.033-1e-3z" fill="#FF8C1F"/>
	<path d="m129.14 33.771c-0.763-6.216-4.837-34.512-23.156-33.756-15.81 0.835-20.409 15.664-25.303 27.262-5.828 15.869-7.851 19.108-16.115 19.108-8.935-0.42-14.332-12.874-17.934-18.11-2.922-4.352-10.681-17.773-21.742-17.355-6.024 0-15.44 3.066-21.38 18.296-5.376 16.369-3.34 32.87-1.933 39.952 4.703 17.539 7.462 27.868 15.729 26.68 8.886-0.622 3.941-14.093 1.64-21.153-1.473-4.396-6.639-19.045-0.724-22.457 6.21-4.007 11.84 11.179 17.718 20.167 5.297 9.213 8.794 19.865 26.821 20.207 11.269 0 17.883-6.495 21.152-12.685 4.83-9.978 10.695-43.739 23.438-44.061 9.293 0.37 6.804 15.879 6.674 21.506-0.365 6.245-4.534 19.204 5.897 20.477 12.143 0.211 10.744-32.724 9.22-44.079l-2e-3 1e-3z" fill="#fff"/>
<g fill="#fff">
		<path d="m221.44 83.959c-1.139-2.219-2.361-3.812-3.671-4.779-1.309-1.024-2.845-1.536-4.608-1.536-1.65 0-3.016 0.512-4.097 1.536s-1.622 2.333-1.622 3.926c0 1.707 0.626 3.158 1.878 4.354 1.252 1.194 2.816 2.305 4.694 3.328 1.935 0.968 3.983 1.963 6.146 2.987 2.219 1.024 4.268 2.248 6.145 3.67 1.936 1.366 3.528 3.045 4.78 5.036 1.252 1.992 1.878 4.467 1.878 7.426 0 2.902-0.455 5.521-1.366 7.854-0.91 2.275-2.219 4.21-3.926 5.804-1.65 1.594-3.67 2.816-6.061 3.67-2.333 0.854-4.922 1.28-7.767 1.28-2.731 0-5.264-0.427-7.597-1.28-2.276-0.91-4.296-2.134-6.061-3.67-1.764-1.536-3.243-3.3-4.438-5.292-1.194-2.048-2.02-4.211-2.475-6.487l8.961-5.633c0.456 1.594 1.024 3.13 1.707 4.609 0.684 1.479 1.509 2.788 2.476 3.926 0.968 1.081 2.077 1.963 3.329 2.646 1.251 0.626 2.702 0.939 4.353 0.939 2.333 0 4.211-0.598 5.634-1.793 1.423-1.252 2.134-3.243 2.134-5.975 0-1.65-0.626-3.016-1.878-4.097-1.194-1.081-2.731-2.077-4.608-2.987-1.878-0.968-3.898-1.935-6.061-2.902-2.105-1.024-4.097-2.247-5.975-3.67-1.878-1.479-3.443-3.243-4.694-5.292-1.195-2.105-1.793-4.751-1.793-7.938 0-2.276 0.398-4.382 1.195-6.316 0.854-1.992 1.991-3.699 3.414-5.122 1.479-1.479 3.215-2.646 5.206-3.499 1.992-0.854 4.154-1.28 6.487-1.28 3.983 0 7.426 0.938 10.327 2.816 2.959 1.878 5.264 4.553 6.914 8.023l-8.96 5.718z"/>
		<path d="m276.05 109.74h-29.617c0.057 1.194 0.313 2.39 0.768 3.585 0.455 1.138 1.11 2.162 1.964 3.072s1.877 1.65 3.072 2.219c1.252 0.569 2.703 0.854 4.354 0.854 2.446 0 4.438-0.512 5.975-1.536 1.536-1.081 2.931-2.617 4.183-4.608l8.535 3.157c-0.854 1.765-1.85 3.386-2.987 4.865-1.139 1.479-2.476 2.76-4.012 3.842-1.536 1.023-3.329 1.849-5.377 2.475-1.992 0.569-4.297 0.854-6.914 0.854-3.698 0-6.856-0.683-9.474-2.049-2.617-1.365-4.751-3.101-6.401-5.206-1.65-2.162-2.874-4.552-3.67-7.17-0.74-2.617-1.11-5.206-1.11-7.767s0.37-5.149 1.11-7.768c0.796-2.617 2.02-4.979 3.67-7.084 1.649-2.162 3.783-3.926 6.401-5.292 2.617-1.365 5.775-2.048 9.474-2.048 3.585 0 6.629 0.683 9.133 2.048 2.561 1.309 4.638 3.017 6.23 5.122 1.65 2.048 2.846 4.324 3.585 6.828 0.74 2.504 1.109 4.922 1.109 7.255v4.352zm-20.058-16.559c-1.365 0-2.589 0.256-3.67 0.768-1.024 0.456-1.935 1.082-2.731 1.878-0.739 0.74-1.365 1.594-1.877 2.561-0.513 0.968-0.854 1.964-1.024 2.987h18.521c-0.228-1.081-0.569-2.105-1.024-3.072-0.455-0.968-1.053-1.821-1.792-2.561-0.74-0.797-1.65-1.423-2.731-1.878-1.026-0.455-2.25-0.683-3.672-0.683z"/>
		<path d="m281.45 128.52v-43.018h10.584v6.999c1.536-2.561 3.414-4.467 5.633-5.719 2.276-1.309 4.638-1.963 7.084-1.963 0.455 0 0.967 0.028 1.536 0.086 0.626 0.057 1.195 0.142 1.707 0.256v10.327c-1.309-0.796-2.788-1.194-4.438-1.194-1.536 0-3.016 0.341-4.438 1.024-1.365 0.683-2.589 1.764-3.67 3.243-1.024 1.479-1.849 3.442-2.475 5.89-0.626 2.39-0.939 5.32-0.939 8.791v15.278h-10.584z"/>
		<path d="m309.98 73.113c0-1.935 0.626-3.557 1.878-4.864 1.309-1.31 2.959-1.964 4.951-1.964 1.991 0 3.613 0.654 4.865 1.964 1.309 1.309 1.963 2.93 1.963 4.864s-0.654 3.557-1.963 4.865c-1.252 1.309-2.874 1.963-4.865 1.963-1.992 0-3.643-0.654-4.951-1.963-1.252-1.309-1.878-2.931-1.878-4.865zm12.12 12.376v43.018h-10.578v-43.018h10.578z"/>
		<path d="m367.36 109.74h-29.617c0.057 1.194 0.313 2.39 0.768 3.585 0.455 1.138 1.109 2.162 1.963 3.072s1.878 1.65 3.073 2.219c1.252 0.569 2.703 0.854 4.353 0.854 2.447 0 4.438-0.512 5.976-1.536 1.536-1.081 2.93-2.617 4.182-4.608l8.536 3.157c-0.854 1.765-1.85 3.386-2.987 4.865-1.139 1.479-2.476 2.76-4.012 3.842-1.536 1.023-3.329 1.849-5.378 2.475-1.991 0.569-4.296 0.854-6.913 0.854-3.698 0-6.856-0.683-9.474-2.049-2.618-1.365-4.752-3.101-6.402-5.206-1.649-2.162-2.873-4.552-3.67-7.17-0.739-2.617-1.109-5.206-1.109-7.767s0.37-5.149 1.109-7.768c0.797-2.617 2.021-4.979 3.67-7.084 1.65-2.162 3.784-3.926 6.402-5.292 2.617-1.365 5.775-2.048 9.474-2.048 3.585 0 6.629 0.683 9.133 2.048 2.561 1.309 4.637 3.017 6.23 5.122 1.65 2.048 2.845 4.324 3.585 6.828 0.739 2.504 1.109 4.922 1.109 7.255v4.352zm-20.058-16.559c-1.366 0-2.59 0.256-3.671 0.768-1.023 0.456-1.935 1.082-2.73 1.878-0.74 0.74-1.366 1.594-1.878 2.561-0.513 0.968-0.854 1.964-1.024 2.987h18.521c-0.228-1.081-0.568-2.105-1.023-3.072-0.456-0.968-1.053-1.821-1.793-2.561-0.739-0.797-1.65-1.423-2.731-1.878-1.024-0.455-2.248-0.683-3.671-0.683z"/>
		<path d="m385.77 84.111c2.902 0 5.548 0.654 7.938 1.963 2.39 1.252 4.239 2.931 5.548 5.036l-6.316 5.805c-0.967-1.309-2.104-2.248-3.414-2.816-1.309-0.626-2.561-0.939-3.755-0.939-1.024 0-1.935 0.313-2.731 0.939-0.797 0.568-1.195 1.451-1.195 2.646 0 0.968 0.342 1.793 1.024 2.476 0.74 0.683 1.764 1.252 3.073 1.707 1.479 0.512 3.101 1.081 4.865 1.707 1.82 0.569 3.527 1.337 5.121 2.305 1.593 0.91 2.902 2.105 3.927 3.585 1.081 1.479 1.621 3.357 1.621 5.633 0 1.935-0.369 3.784-1.109 5.548-0.683 1.707-1.707 3.215-3.072 4.524-1.309 1.309-2.902 2.361-4.78 3.157-1.878 0.74-3.983 1.11-6.316 1.11-2.219 0-4.268-0.342-6.145-1.024-1.878-0.74-3.528-1.65-4.95-2.731-1.423-1.138-2.646-2.39-3.671-3.756-1.024-1.422-1.792-2.788-2.304-4.097l8.449-4.523c0.797 2.105 1.906 3.813 3.329 5.121s3.187 1.963 5.292 1.963c1.65 0 2.931-0.369 3.841-1.109 0.968-0.739 1.451-1.906 1.451-3.499 0-0.911-0.313-1.65-0.939-2.22-0.626-0.568-1.45-1.081-2.475-1.536-1.024-0.513-2.191-0.968-3.5-1.366-1.252-0.397-2.532-0.882-3.841-1.45-1.195-0.513-2.333-1.081-3.414-1.707-1.024-0.626-1.935-1.395-2.731-2.305-0.797-0.911-1.423-1.992-1.878-3.244-0.455-1.251-0.683-2.702-0.683-4.353s0.313-3.215 0.939-4.694c0.683-1.536 1.621-2.874 2.816-4.012 1.194-1.195 2.617-2.134 4.268-2.816 1.706-0.686 3.612-1.027 5.717-1.028z"/>
		<path d="m467.03 67.662-16.076 27.983 18.944 32.849h-12.508l-12.601-21.986-12.601 21.986h-12.514l18.945-32.849-16.077-27.983h12.34l9.907 17.207 9.906-17.207h12.335z"/>
		<path d="m494.73 127.56c-0.753 0.231-1.651 0.435-2.693 0.608-0.985 0.231-2.26 0.348-3.824 0.348-4.577 0-8.284-1.333-11.123-3.998-2.781-2.664-4.171-6.72-4.171-12.165v-19.119h-6.779v-9.211h6.779v-10.95l10.775-6.778v17.729h11.558v9.211h-11.558v18.945c0 2.723 0.492 4.605 1.477 5.648 0.985 0.984 2.404 1.478 4.259 1.478 0.984 0 1.883-0.116 2.694-0.348s1.68-0.58 2.606-1.043v9.645z"/>
		<path d="m500.67 128.51v-43.795h10.776v7.126c1.564-2.607 3.476-4.548 5.735-5.823 2.317-1.332 4.722-1.998 7.213-1.998 0.464 0 0.985 0.028 1.564 0.086 0.638 0.058 1.217 0.145 1.738 0.261v10.516c-1.333-0.812-2.839-1.217-4.52-1.217-1.564 0-3.07 0.348-4.519 1.043-1.391 0.695-2.637 1.796-3.737 3.302-1.043 1.507-1.883 3.505-2.52 5.996-0.638 2.434-0.956 5.418-0.956 8.951v15.556l-10.774-4e-3z"/>
		<path d="m530.37 105.91c0-3.36 0.464-6.431 1.391-9.212 0.928-2.78 2.289-5.156 4.085-7.126s3.969-3.505 6.518-4.605c2.607-1.101 5.562-1.651 8.864-1.651 2.434 0 4.692 0.521 6.778 1.564 2.144 0.984 3.708 2.085 4.693 3.302v-4.171h10.775v43.8h-10.775v-4.52c-1.043 1.448-2.55 2.694-4.52 3.737-1.911 0.984-4.229 1.477-6.952 1.477-3.303 0-6.257-0.55-8.864-1.65-2.55-1.101-4.722-2.637-6.519-4.606-1.796-1.97-3.157-4.345-4.084-7.126s-1.39-5.852-1.39-9.213zm11.298 0c0 2.201 0.289 4.143 0.869 5.822 0.637 1.622 1.477 3.013 2.52 4.172 1.043 1.101 2.23 1.94 3.563 2.52 1.332 0.58 2.693 0.869 4.084 0.869s2.752-0.289 4.085-0.869c1.332-0.579 2.491-1.419 3.476-2.52 1.043-1.159 1.854-2.55 2.434-4.172 0.637-1.68 0.956-3.621 0.956-5.822 0-2.144-0.319-4.056-0.956-5.735-0.58-1.681-1.391-3.07-2.434-4.172-0.984-1.158-2.144-2.027-3.476-2.606-1.333-0.58-2.694-0.869-4.085-0.869s-2.752 0.289-4.084 0.869c-1.333 0.579-2.521 1.448-3.563 2.606-1.043 1.101-1.883 2.491-2.52 4.172-0.58 1.68-0.869 3.592-0.869 5.735z"/>
</g>
</svg>
