<?xml version="1.0" encoding="UTF-8"?>
<!-- Creator: CorelDRAW X6 -->
<svg id="svg20" width="897.86" height="898.66" clip-rule="evenodd" fill-rule="evenodd" image-rendering="optimizeQuality" shape-rendering="geometricPrecision" text-rendering="geometricPrecision" version="1.1" viewBox="0 0 23756 23777" xml:space="preserve" xmlns="http://www.w3.org/2000/svg" xmlns:cc="http://creativecommons.org/ns#" xmlns:dc="http://purl.org/dc/elements/1.1/" xmlns:rdf="http://www.w3.org/1999/02/22-rdf-syntax-ns#"><metadata id="metadata24"><rdf:RDF><cc:Work rdf:about=""><dc:format>image/svg+xml</dc:format><dc:type rdf:resource="http://purl.org/dc/dcmitype/StillImage"/><dc:title/></cc:Work></rdf:RDF></metadata>
 <defs id="defs4">
  <style id="style2" type="text/css">
   <![CDATA[
    .fil4 {fill:#3F3F41;fill-rule:nonzero}
    .fil2 {fill:#6D6E70;fill-rule:nonzero}
    .fil1 {fill:#DBDDDD;fill-rule:nonzero}
    .fil3 {fill:#ED1C28;fill-rule:nonzero}
    .fil0 {fill:white;fill-rule:nonzero}
   ]]>
  </style>
 </defs>
 <g id="Слой_x0020_1" transform="translate(-24873,-625)" fill-rule="nonzero">
  <polygon id="polygon7" class="fil0" points="24873 625 24873 24389 48627 24389 48627 625" fill="#fff"/>
  <polygon id="polygon9" class="fil1" points="24877 625 24877 4734 36816 4734 36816 625" fill="#dbdddd"/>
  <polygon id="polygon11" class="fil2" points="36816 625 36816 4734 48627 4734 48627 625" fill="#6d6e70"/>
  <polygon id="polygon13" class="fil3" points="24877 19247 24877 24402 48629 24402 48629 19247" fill="#ed1c28"/>
  <path id="path15" class="fil4" d="m27214 13752 440 2944h12l469-2944h770l469 2944h11l441-2944h768l-724 3981h-897l-446-2888h-12l-446 2888h-897l-726-3981h770zm4604 1157c-27 255-41 533-41 833 0 306 14 584 41 836 29 254 91 471 185 653 95 182 232 322 411 418 177 96 417 145 719 145s541-49 720-145 315-236 410-418c94-182 155-399 184-653 28-252 41-530 41-836 0-300-13-579-41-833-28-255-90-473-184-655-95-182-231-324-410-426s-418-154-720-154-541 51-719 154c-179 102-316 244-411 426-93 182-155 400-185 655zm762 833c0-267 7-494 19-679 13-186 39-339 78-457 38-120 95-205 167-261 74-53 168-80 288-80 119 0 214 27 287 80 73 55 129 141 167 261 39 118 65 271 77 457 13 186 19 412 19 679 0 268-6 495-19 684-13 187-38 340-77 457s-94 202-167 256c-73 55-168 82-287 82s-214-28-288-82c-72-53-129-139-167-256-39-117-65-270-78-457-12-189-19-416-19-684zm5086-1990h-1483v3981h803v-1684h427c168 0 288 45 358 135 70 89 109 211 118 368l22 764c4 78 11 153 22 226s37 137 78 192h869v-33c-75-41-123-117-145-229-15-111-25-273-34-485-3-107-7-205-10-292-4-87-9-168-16-242-22-223-80-384-174-486-93-100-239-165-439-195v-10c227-48 394-158 501-327 108-168 162-387 162-655 0-345-93-603-279-773-186-168-447-252-780-252zm-680 1739v-1149h378c372 0 558 184 558 551 0 216-52 371-156 461-104 91-253 136-447 136h-334zm3673-1739v3981h2224v-658h-1421v-3323zm5081 0h-1316v3981h1266c268 0 489-40 663-122 176-82 314-207 419-374 103-168 176-380 219-638 44-258 65-562 65-912 0-294-16-560-50-798s-99-441-192-610c-96-169-228-299-401-391-170-91-395-136-674-136zm-512 3389v-2798h340c152 0 274 29 365 86 92 59 159 144 206 258s77 255 92 427 22 370 22 596c0 273-9 498-24 681-18 182-51 330-101 440-51 112-118 192-203 240-88 48-201 72-342 72h-356zm-12872-10800c-447-154-934 82-1088 529l-766 2208-1446-2323c-97-186-262-335-476-410-446-154-933 82-1088 529l-1299 3748c-154 447 83 934 530 1089 445 154 933-83 1087-529l766-2208 1449 2329c98 182 262 331 472 403 446 154 935-82 1089-528l1299-3748c155-447-82-934-529-1089zm13968 3952-1091-1143 2009-1278c382-244 497-750 253-1132-241-382-749-495-1132-253l-2712 1726 272-787c154-448-83-935-529-1090-446-154-934 82-1089 529l-1298 3748c-154 446 83 934 529 1090 445 154 933-82 1088-529l590-1704 1894 1984c322 334 854 348 1189 28 336-321 347-854 27-1189zm-6544-3956c-446-154-934 82-1090 529l-476 1368-1961 2 280-805c155-447-83-933-528-1089-449-154-934 82-1090 529l-1299 3749c-153 446 83 934 530 1088 447 155 933-82 1087-528l481-1387 1961-1-283 824c-155 446 82 934 529 1090 446 154 934-82 1088-529l1299-3747c155-448-82-935-528-1090zm-7424 4c-447-154-934 82-1088 529l-766 2208-1446-2323c-97-186-262-335-476-410-446-154-933 82-1088 529l-1299 3748c-154 447 83 934 530 1089 445 154 933-83 1087-529l766-2208 1449 2329c98 182 262 331 472 403 446 154 935-82 1089-528l1299-3748c155-447-82-934-529-1089zm13968 3952-1091-1143 2009-1278c382-244 497-750 253-1132-241-382-749-495-1132-253l-2712 1726 272-787c154-448-83-935-529-1090-446-154-934 82-1089 529l-1298 3748c-154 446 83 934 529 1090 445 154 933-82 1088-529l590-1704 1894 1984c322 334 854 348 1189 28 336-321 347-854 27-1189zm-6544-3956c-446-154-934 82-1090 529l-476 1368-1961 2 280-805c155-447-83-933-528-1089-449-154-934 82-1090 529l-1299 3749c-153 446 83 934 530 1088 447 155 933-82 1087-528l481-1387 1961-1-283 824c-155 446 82 934 529 1090 446 154 934-82 1088-529l1299-3747c155-448-82-935-528-1090z" fill="#3f3f41"/>
  <path id="path17" class="fil0" d="m26850 21759h-342v-282h342v-176c0-359 223-472 624-472 105 0 196 4 269 11v292h-137c-182 0-264 53-264 180v165h401v282h-401v1613h-492zm1129-282v1894h492v-1134c0-352 269-430 492-430 82 0 168 14 205 21v-387c-32-7-64-14-118-14-278 0-460 134-569 345h-9v-296h-492zm2263-49c-710 0-911 409-911 997s232 996 911 996c683 0 915-409 915-996 0-588-200-997-915-997zm-419 997c0-419 64-715 419-715 360 0 423 296 423 715 0 482-64 715-423 715-355 0-419-232-419-715zm1748-947v1894h492v-1271c0-247 191-370 387-370 205 0 300 95 300 342v1299h492v-1271c0-247 191-370 392-370 200 0 296 95 296 342v1299h492v-1440c0-366-250-504-596-504-296 0-478 106-619 289-73-158-219-289-569-289-232 0-464 102-587 271h-14v-222h-464zm4794 1137h-492v162c9 331 164 641 829 644 519 4 874-190 874-743v-1820h-519v1760c0 254 0 500-346 500-291-4-346-173-346-380zm2353-1757-924 2514h542l209-616h952l200 616h542l-856-2514zm-77 1577 387-1239h9l373 1239zm1839-1577v2514h519v-1039h455c610 0 951-292 951-743 0-430-273-732-897-732h-1029zm519 303h332c414 0 555 165 555 436 0 317-241 433-519 433h-369v-870zm2217-303-924 2514h542l209-616h952l200 616h542l-856-2514zm-77 1577 387-1239h9l373 1239zm1839-1577v2514h492v-1922h9l942 1922h633v-2514h-492v1873h-9l-942-1873z" fill="#fff"/>
 </g>
</svg>
