<svg id="bk" width="800" height="209.42" version="1.1" viewBox="0 0 211.67 55.41" xmlns="http://www.w3.org/2000/svg" xmlns:xlink="http://www.w3.org/1999/xlink">
 <defs id="bl">
  <clipPath id="av">
   <use id="bm" width="100%" height="100%" overflow="visible" xlink:href="#r"/>
  </clipPath>
  <linearGradient id="z" x1="-1062.7" x2="-1062.7" y1="164.27" y2="164.27" gradientTransform="matrix(235.44,0,0,235.44,250226,-38658)" gradientUnits="userSpaceOnUse">
   <stop id="bn" stop-color="#DE006B" offset="0"/>
   <stop id="bo" stop-color="#DE006B" offset=".0034"/>
   <stop id="bp" stop-color="#DD1D78" offset=".0841"/>
   <stop id="bq" stop-color="#DC3A84" offset=".1841"/>
   <stop id="br" stop-color="#DC4E8D" offset=".2837"/>
   <stop id="bs" stop-color="#DB5B92" offset=".3817"/>
   <stop id="bt" stop-color="#DB5F94" offset=".4766"/>
   <stop id="bu" stop-color="#DB5B92" offset=".5815"/>
   <stop id="bv" stop-color="#DC4E8D" offset=".69"/>
   <stop id="bw" stop-color="#DC3A84" offset=".8001"/>
   <stop id="bx" stop-color="#DD1D78" offset=".9107"/>
   <stop id="by" stop-color="#DE006B" offset="1"/>
  </linearGradient>
  <clipPath id="ah">
   <use id="bz" width="100%" height="100%" overflow="visible" xlink:href="#j"/>
  </clipPath>
  <linearGradient id="v" x1="-1067.2" x2="-1067.1" y1="165.02" y2="165.02" gradientTransform="matrix(0,-513.6,513.6,0,-84737,-548066)" gradientUnits="userSpaceOnUse">
   <stop id="ca" stop-color="#DC006B" offset="0"/>
   <stop id="cb" stop-color="#DC0B70" offset=".0491"/>
   <stop id="cc" stop-color="#DC297D" offset=".2098"/>
   <stop id="cd" stop-color="#DB4187" offset=".3791"/>
   <stop id="ce" stop-color="#DB528E" offset=".5585"/>
   <stop id="cf" stop-color="#DB5C93" offset=".7548"/>
   <stop id="cg" stop-color="#DB5F94" offset="1"/>
  </linearGradient>
  <clipPath id="w">
   <use id="ch" width="100%" height="100%" overflow="visible" xlink:href="#b"/>
  </clipPath>
  <linearGradient id="bi" x1="-640.93" x2="-640.86" y1="351.68" y2="351.68" gradientTransform="matrix(1.8968,0,0,1.8968,1248,-652.39)" gradientUnits="userSpaceOnUse">
   <stop id="ci" stop-color="#C92373" offset="0"/>
   <stop id="cj" stop-color="#CA2574" offset=".0045"/>
   <stop id="ck" stop-color="#D65794" offset=".1079"/>
   <stop id="cl" stop-color="#E184B1" offset=".2156"/>
   <stop id="cm" stop-color="#EAAAC8" offset=".3268"/>
   <stop id="cn" stop-color="#F2C9DC" offset=".4417"/>
   <stop id="co" stop-color="#F8E1EB" offset=".5616"/>
   <stop id="cp" stop-color="#FCF1F6" offset=".6884"/>
   <stop id="cq" stop-color="#FEFBFC" offset=".827"/>
   <stop id="cr" stop-color="#FFFFFE" offset=".9996"/>
   <stop id="cs" stop-color="#FFFFFE" offset="1"/>
  </linearGradient>
  <clipPath id="bj">
   <use id="ct" width="100%" height="100%" overflow="visible" xlink:href="#a"/>
  </clipPath>
  <linearGradient id="bg" x1="-640.93" x2="-640.86" y1="351.68" y2="351.68" gradientTransform="matrix(1.8968,0,0,1.8968,1248,-652.39)" gradientUnits="userSpaceOnUse">
   <stop id="cu" stop-color="#fff" offset="0"/>
   <stop id="cv" stop-color="#FBEEF1" offset=".1086"/>
   <stop id="cw" stop-color="#F6D6DF" offset=".2996"/>
   <stop id="cx" stop-color="#F2C5D1" offset=".5028"/>
   <stop id="cy" stop-color="#F0BBCA" offset=".7245"/>
   <stop id="cz" stop-color="#EFB8C7" offset=".9996"/>
   <stop id="da" stop-color="#EFB8C7" offset="1"/>
  </linearGradient>
  <clipPath id="bh">
   <use id="db" width="100%" height="100%" overflow="visible" xlink:href="#u"/>
  </clipPath>
  <linearGradient id="be" x1="-1062.4" x2="-1062.3" y1="164.58" y2="164.58" gradientTransform="matrix(189.44,0,0,189.44,201284,-31159)" gradientUnits="userSpaceOnUse">
   <stop id="dc" stop-color="#C92373" offset="0"/>
   <stop id="dd" stop-color="#CA2574" offset=".0045"/>
   <stop id="de" stop-color="#D65794" offset=".1079"/>
   <stop id="df" stop-color="#E184B1" offset=".2157"/>
   <stop id="dg" stop-color="#EAAAC8" offset=".3269"/>
   <stop id="dh" stop-color="#F2C9DC" offset=".4419"/>
   <stop id="di" stop-color="#F8E1EB" offset=".5618"/>
   <stop id="dj" stop-color="#FCF1F6" offset=".6887"/>
   <stop id="dk" stop-color="#FEFBFC" offset=".8274"/>
   <stop id="dl" stop-color="#FFFFFE" offset="1"/>
  </linearGradient>
  <clipPath id="bf">
   <use id="dm" width="100%" height="100%" overflow="visible" xlink:href="#t"/>
  </clipPath>
  <linearGradient id="bc" x1="-1062.4" x2="-1062.3" y1="164.58" y2="164.58" gradientTransform="matrix(189.44,0,0,189.44,201284,-31159)" gradientUnits="userSpaceOnUse">
   <stop id="dn" stop-color="#fff" offset="0"/>
   <stop id="do" stop-color="#FBEEF1" offset=".1087"/>
   <stop id="dp" stop-color="#F6D6DF" offset=".2997"/>
   <stop id="dq" stop-color="#F2C5D1" offset=".503"/>
   <stop id="dr" stop-color="#F0BBCA" offset=".7248"/>
   <stop id="ds" stop-color="#EFB8C7" offset="1"/>
  </linearGradient>
  <clipPath id="bd">
   <use id="dt" width="100%" height="100%" overflow="visible" xlink:href="#s"/>
  </clipPath>
  <linearGradient id="ba" x1="-640.93" x2="-640.86" y1="351.68" y2="351.68" gradientTransform="matrix(1.8968,0,0,1.8968,1248,-652.39)" gradientUnits="userSpaceOnUse">
   <stop id="du" stop-color="#C92373" offset="0"/>
   <stop id="dv" stop-color="#CA2574" offset=".0045"/>
   <stop id="dw" stop-color="#D65794" offset=".1079"/>
   <stop id="dx" stop-color="#E184B1" offset=".2157"/>
   <stop id="dy" stop-color="#EAAAC8" offset=".3269"/>
   <stop id="dz" stop-color="#F2C9DC" offset=".4419"/>
   <stop id="ea" stop-color="#F8E1EB" offset=".5618"/>
   <stop id="eb" stop-color="#FCF1F6" offset=".6887"/>
   <stop id="ec" stop-color="#FEFBFC" offset=".8274"/>
   <stop id="ed" stop-color="#FFFFFE" offset="1"/>
  </linearGradient>
  <clipPath id="bb">
   <use id="ee" width="100%" height="100%" overflow="visible" xlink:href="#q"/>
  </clipPath>
  <linearGradient id="ay" x1="-640.93" x2="-640.86" y1="351.68" y2="351.68" gradientTransform="matrix(1.8968,0,0,1.8968,1248,-652.39)" gradientUnits="userSpaceOnUse">
   <stop id="ef" stop-color="#fff" offset="0"/>
   <stop id="eg" stop-color="#FBEEF1" offset=".1087"/>
   <stop id="eh" stop-color="#F6D6DF" offset=".2997"/>
   <stop id="ei" stop-color="#F2C5D1" offset=".503"/>
   <stop id="ej" stop-color="#F0BBCA" offset=".7248"/>
   <stop id="ek" stop-color="#EFB8C7" offset="1"/>
  </linearGradient>
  <clipPath id="az">
   <use id="el" width="100%" height="100%" overflow="visible" xlink:href="#p"/>
  </clipPath>
  <linearGradient id="aw" x1="-1067.2" x2="-1067.1" y1="164.54" y2="164.54" gradientTransform="matrix(0,-514.52,514.52,0,-84625,-549046)" gradientUnits="userSpaceOnUse">
   <stop id="em" stop-color="#DE0075" offset="0"/>
   <stop id="en" stop-color="#DE0B78" offset=".0484"/>
   <stop id="eo" stop-color="#DD2982" offset=".2096"/>
   <stop id="ep" stop-color="#DC418A" offset=".3793"/>
   <stop id="eq" stop-color="#DB5290" offset=".5591"/>
   <stop id="er" stop-color="#DB5C93" offset=".7554"/>
   <stop id="es" stop-color="#DB5F94" offset="1"/>
  </linearGradient>
  <clipPath id="ax">
   <use id="et" width="100%" height="100%" overflow="visible" xlink:href="#o"/>
  </clipPath>
  <radialGradient id="at" cx="-1065.2" cy="163.24" r=".0867" gradientTransform="matrix(232.02,0,0,434.48,247204,-70897)" gradientUnits="userSpaceOnUse">
   <stop id="eu" stop-color="#DB5F94" offset="0"/>
   <stop id="ev" stop-color="#DB5F94" offset=".0014"/>
   <stop id="ew" stop-color="#DB5C93" offset=".2456"/>
   <stop id="ex" stop-color="#DB5290" offset=".4417"/>
   <stop id="ey" stop-color="#DC418A" offset=".6212"/>
   <stop id="ez" stop-color="#DD2982" offset=".7907"/>
   <stop id="fa" stop-color="#DE0B78" offset=".9517"/>
   <stop id="fb" stop-color="#DE0075" offset="1"/>
  </radialGradient>
  <clipPath id="au">
   <use id="fc" width="100%" height="100%" overflow="visible" xlink:href="#n"/>
  </clipPath>
  <radialGradient id="ar" cx="-1066.1" cy="163.91" r=".0852" gradientTransform="matrix(211.3,0,0,376.49,225328,-61705)" gradientUnits="userSpaceOnUse">
   <stop id="fd" stop-color="#DB5F94" offset="0"/>
   <stop id="fe" stop-color="#DB5F94" offset=".0078"/>
   <stop id="ff" stop-color="#DB5C93" offset=".2512"/>
   <stop id="fg" stop-color="#DB528E" offset=".4459"/>
   <stop id="fh" stop-color="#DC4187" offset=".6239"/>
   <stop id="fi" stop-color="#DD297D" offset=".7917"/>
   <stop id="fj" stop-color="#DE0B70" offset=".9512"/>
   <stop id="fk" stop-color="#DE006B" offset="1"/>
  </radialGradient>
  <clipPath id="as">
   <use id="fl" width="100%" height="100%" overflow="visible" xlink:href="#m"/>
  </clipPath>
  <linearGradient id="ap" x1="-1067.2" x2="-1067.1" y1="162.91" y2="162.91" gradientTransform="matrix(0,-500.4,500.4,0,-81421,-533979)" gradientUnits="userSpaceOnUse">
   <stop id="fm" stop-color="#DE006B" offset="0"/>
   <stop id="fn" stop-color="#DE0B70" offset=".0492"/>
   <stop id="fo" stop-color="#DD297D" offset=".2099"/>
   <stop id="fp" stop-color="#DC4187" offset=".3791"/>
   <stop id="fq" stop-color="#DB528E" offset=".5584"/>
   <stop id="fr" stop-color="#DB5C93" offset=".7547"/>
   <stop id="fs" stop-color="#DB5F94" offset="1"/>
  </linearGradient>
  <clipPath id="aq">
   <use id="ft" width="100%" height="100%" overflow="visible" xlink:href="#l"/>
  </clipPath>
  <linearGradient id="an" x1="-1067" x2="-1067" y1="164.04" y2="164.04" gradientTransform="matrix(285.55,0,0,285.55,304782,-46821)" gradientUnits="userSpaceOnUse">
   <stop id="fu" stop-color="#C92373" offset="0"/>
   <stop id="fv" stop-color="#CA2574" offset=".0045"/>
   <stop id="fw" stop-color="#D65794" offset=".1079"/>
   <stop id="fx" stop-color="#E184B1" offset=".2157"/>
   <stop id="fy" stop-color="#EAAAC8" offset=".3269"/>
   <stop id="fz" stop-color="#F2C9DC" offset=".4419"/>
   <stop id="ga" stop-color="#F8E1EB" offset=".5618"/>
   <stop id="gb" stop-color="#FCF1F6" offset=".6887"/>
   <stop id="gc" stop-color="#FEFBFC" offset=".8274"/>
   <stop id="gd" stop-color="#FFFFFE" offset="1"/>
  </linearGradient>
  <clipPath id="ao">
   <use id="ge" width="100%" height="100%" overflow="visible" xlink:href="#k"/>
  </clipPath>
  <linearGradient id="al" x1="-1067" x2="-1067" y1="164.04" y2="164.04" gradientTransform="matrix(285.55,0,0,285.55,304782,-46821)" gradientUnits="userSpaceOnUse">
   <stop id="gf" stop-color="#fff" offset="0"/>
   <stop id="gg" stop-color="#FBEEF1" offset=".1087"/>
   <stop id="gh" stop-color="#F6D6DF" offset=".2997"/>
   <stop id="gi" stop-color="#F2C5D1" offset=".503"/>
   <stop id="gj" stop-color="#F0BBCA" offset=".7248"/>
   <stop id="gk" stop-color="#EFB8C7" offset="1"/>
  </linearGradient>
  <clipPath id="am">
   <use id="gl" width="100%" height="100%" overflow="visible" xlink:href="#i"/>
  </clipPath>
  <linearGradient id="aj" x1="-1066" x2="-1065.9" y1="163.03" y2="163.03" gradientTransform="matrix(-178,496,-496,-178,-108770,557746)" gradientUnits="userSpaceOnUse">
   <stop id="gm" stop-color="#DE0075" offset="0"/>
   <stop id="gn" stop-color="#DE0075" offset=".0024"/>
   <stop id="go" stop-color="#DD2181" offset=".1288"/>
   <stop id="gp" stop-color="#DD3F8D" offset=".2767"/>
   <stop id="gq" stop-color="#DD5796" offset=".4324"/>
   <stop id="gr" stop-color="#DC689C" offset=".597"/>
   <stop id="gs" stop-color="#DC72A0" offset=".7768"/>
   <stop id="gt" stop-color="#DC75A1" offset="1"/>
  </linearGradient>
  <clipPath id="ak">
   <use id="gu" width="100%" height="100%" overflow="visible" xlink:href="#h"/>
  </clipPath>
  <radialGradient id="ag" cx="-1069.3" cy="164.21" r=".0861" gradientTransform="matrix(188.06,0,0,183.39,201211,-30095)" gradientUnits="userSpaceOnUse">
   <stop id="gv" stop-color="#DE006B" offset="0"/>
   <stop id="gw" stop-color="#DE006B" offset=".0032"/>
   <stop id="gx" stop-color="#DD1D78" offset=".0809"/>
   <stop id="gy" stop-color="#DC3A84" offset=".1773"/>
   <stop id="gz" stop-color="#DC4E8D" offset=".2733"/>
   <stop id="ha" stop-color="#DB5B92" offset=".3678"/>
   <stop id="hb" stop-color="#DB5F94" offset=".4592"/>
   <stop id="hc" stop-color="#DB5C93" offset=".5902"/>
   <stop id="hd" stop-color="#DB528E" offset=".6966"/>
   <stop id="he" stop-color="#DC4187" offset=".7944"/>
   <stop id="hf" stop-color="#DD297D" offset=".887"/>
   <stop id="hg" stop-color="#DE0A6F" offset=".9752"/>
   <stop id="hh" stop-color="#DE006B" offset="1"/>
  </radialGradient>
  <clipPath id="ai">
   <use id="hi" width="100%" height="100%" overflow="visible" xlink:href="#g"/>
  </clipPath>
  <linearGradient id="ae" x1="-1066" x2="-1065.9" y1="163.91" y2="163.91" gradientTransform="matrix(0,498.37,-498.37,0,81815,531257)" gradientUnits="userSpaceOnUse">
   <stop id="hj" stop-color="#DE006B" offset="0"/>
   <stop id="hk" stop-color="#DE0B70" offset=".0492"/>
   <stop id="hl" stop-color="#DD297D" offset=".2099"/>
   <stop id="hm" stop-color="#DC4187" offset=".3791"/>
   <stop id="hn" stop-color="#DB528E" offset=".5584"/>
   <stop id="ho" stop-color="#DB5C93" offset=".7547"/>
   <stop id="hp" stop-color="#DB5F94" offset="1"/>
  </linearGradient>
  <clipPath id="af">
   <use id="hq" width="100%" height="100%" overflow="visible" xlink:href="#f"/>
  </clipPath>
  <linearGradient id="ac" x1="-1069.5" x2="-1069.4" y1="164.47" y2="164.47" gradientTransform="matrix(209.42,0,0,209.42,224095,-34425)" gradientUnits="userSpaceOnUse">
   <stop id="hr" stop-color="#C92373" offset="0"/>
   <stop id="hs" stop-color="#D55592" offset=".1042"/>
   <stop id="ht" stop-color="#E081AF" offset=".2138"/>
   <stop id="hu" stop-color="#EAA8C7" offset=".3281"/>
   <stop id="hv" stop-color="#F1C7DB" offset=".4457"/>
   <stop id="hw" stop-color="#F7E0EB" offset=".5676"/>
   <stop id="hx" stop-color="#FCF1F5" offset=".6956"/>
   <stop id="hy" stop-color="#FEFBFC" offset=".8336"/>
   <stop id="hz" stop-color="#FFFFFE" offset="1"/>
  </linearGradient>
  <clipPath id="ad">
   <use id="ia" width="100%" height="100%" overflow="visible" xlink:href="#e"/>
  </clipPath>
  <linearGradient id="aa" x1="-1069.5" x2="-1069.4" y1="164.47" y2="164.47" gradientTransform="matrix(209.42,0,0,209.42,224095,-34425)" gradientUnits="userSpaceOnUse">
   <stop id="ib" stop-color="#fff" offset="0"/>
   <stop id="ic" stop-color="#FBEFF2" offset=".104"/>
   <stop id="id" stop-color="#F6D7DF" offset=".2996"/>
   <stop id="ie" stop-color="#F2C6D2" offset=".5064"/>
   <stop id="if" stop-color="#F0BBCA" offset=".7299"/>
   <stop id="ig" stop-color="#EFB8C7" offset="1"/>
  </linearGradient>
  <clipPath id="ab">
   <use id="ih" width="100%" height="100%" overflow="visible" xlink:href="#d"/>
  </clipPath>
  <linearGradient id="x" x1="-1067.2" x2="-1067.1" y1="161.82" y2="161.82" gradientTransform="matrix(0,-508.74,508.74,0,-82185,-542889)" gradientUnits="userSpaceOnUse">
   <stop id="ii" stop-color="#DE006B" offset="0"/>
   <stop id="ij" stop-color="#DE006B" offset=".01"/>
   <stop id="ik" stop-color="#DE0B70" offset=".0587"/>
   <stop id="il" stop-color="#DD297D" offset=".2178"/>
   <stop id="im" stop-color="#DC4187" offset=".3852"/>
   <stop id="in" stop-color="#DB528E" offset=".5628"/>
   <stop id="io" stop-color="#DB5C93" offset=".7571"/>
   <stop id="ip" stop-color="#DB5F94" offset="1"/>
  </linearGradient>
  <clipPath id="y">
   <use id="iq" width="100%" height="100%" overflow="visible" xlink:href="#c"/>
  </clipPath>
  <rect id="r" x="11.46" y="1" width="133.7" height="34.999"/>
  <path id="j" d="m32.438 15.129c1e-3 0.059 3e-3 0.118 3e-3 0.176 0-0.057-1e-3 -0.117-3e-3 -0.176m-15.849-10.081m10.316-3.118h-4e-3c-4.059 1e-3 -7.406 0.756-10.312 3.118-0.699-0.681-2.458-1.855-5.128-2.533v33.366h7.59v-20.048s0.01-0.179 0.014-0.491c0.204-4.176 3.023-6.524 7.383-6.524 4.023 0 5.866 2.59 5.989 6.271-0.016-0.454-0.069-0.892-0.137-1.31 0.089 0.562 0.12 1.16 0.12 1.793v20.309h7.619l0.042-0.171v-20.332c0-7.987-4.314-13.444-13.169-13.448h-7e-3"/>
  <path id="b" d="m11.46 35.906h7.593v-20.073s0.363-8.029-2.463-10.785c-0.698-0.68-2.459-1.855-5.13-2.533z"/>
  <path id="a" d="m32.443 15.572c4e-3 -0.628-0.04-1.229-0.132-1.793 0.09 0.561 0.132 1.16 0.132 1.793"/>
  <path id="u" d="m32.443 15.572c4e-3 -0.628-0.04-1.229-0.132-1.793 0.09 0.561 0.132 1.16 0.132 1.793"/>
  <path id="t" d="m26.93 1.946s5.514 0.887 5.514 13.625v20.334h7.595l0.067-0.196v-20.331c0-7.99-4.33-13.448-13.191-13.448z"/>
  <path id="s" d="m26.93 1.946s5.514 0.887 5.514 13.625v20.334h7.595l0.067-0.196v-20.331c0-7.99-4.33-13.448-13.191-13.448z"/>
  <path id="q" d="m32.443 15.572c4e-3 -0.628-0.04-1.229-0.132-1.793 0.09 0.561 0.132 1.16 0.132 1.793"/>
  <path id="p" d="m32.443 15.572c4e-3 -0.628-0.04-1.229-0.132-1.793 0.09 0.561 0.132 1.16 0.132 1.793"/>
  <path id="o" d="m26.93 1.946s5.514 0.887 5.514 13.625v20.334h7.595l0.067-0.196v-20.331c0-7.99-4.33-13.448-13.191-13.448z"/>
  <path id="n" d="m55.12 22.905v-8.837c0-4.417 2.727-6.3 6.723-6.3 4.264 0 6.856 2.078 6.856 6.3v8.837c-0.14 4.417-3.057 6.43-7.122 6.43-4.33 0-6.457-2.274-6.457-6.43m-7.66-8.837v8.837c0 7.988 6.188 12.99 14.382 12.99 8.061 0 14.516-4.871 14.516-12.99v-8.837c0-7.6-5.923-13.056-14.516-13.056-7.926 0-14.382 4.872-14.382 13.056"/>
  <path id="m" d="m68.73 14.068v8.837c-0.199 4.417-3.062 6.43-7.127 6.43-4.33 0-6.461-2.274-6.461-6.43 0 11.69 6.728 12.99 6.728 12.99 8.061 0 14.521-4.871 14.521-12.99v-8.837c0-7.6-5.928-13.056-14.521-13.056 0 0 6.86 1.406 6.86 13.056"/>
  <path id="l" d="m104.28 2.337-7.987 22.077-7.896-22.007-0.023-0.07h-8.219l12.457 33.181 0.044 0.018c1.152 0.463 2.472 0.463 3.637 0.463 1.289 0 2.618 0 3.771-0.463l0.043-0.018 12.392-33.181z"/>
  <path id="k" d="m104.28 2.338-7.987 22.076-3.681 11.106 0.044 0.016c1.153 0.464 2.472 0.464 3.637 0.464 1.289 0 2.618 0 3.771-0.464l0.043-0.016 12.392-33.181z"/>
  <path id="i" d="m104.28 2.338-7.987 22.076-3.681 11.106 0.044 0.016c1.153 0.464 2.472 0.464 3.637 0.464 1.289 0 2.618 0 3.771-0.464l0.043-0.016 12.392-33.181z"/>
  <path id="h" d="m104.28 2.338-7.987 22.076-3.681 11.106 0.044 0.016c1.153 0.464 2.472 0.464 3.637 0.464 1.289 0 2.618 0 3.771-0.464l0.043-0.016 12.392-33.181z"/>
  <path id="g" d="m123.78 22.905v-8.837c0-4.417 2.739-6.3 6.736-6.3 3.737 0 6.188 1.597 6.737 4.835 0.026 0.483 0.035 0.984 0.035 1.506v8.738l0.01 0.061s-1e-3 0.275 0.017 0.737c-0.474 3.902-3.235 5.689-7.065 5.689-4.329 1e-3 -6.47-2.273-6.47-6.429m6.795-21.905s0.02 4e-3 0.056 0.014c-0.036-1e-3 -0.077-1e-3 -0.114-1e-3 -7.927 0-14.396 4.872-14.396 13.056v8.837c0 7.988 6.202 12.99 14.396 12.99 3.629 0 6.937-0.986 9.474-2.814 0.021 0.021 0.043 0.044 0.063 0.063 1.033 0.953 2.572 1.7 4.97 2.42l0.134 0.041-0.01-21.495c0-1.876-0.357-3.649-1.063-5.267-0.692-1.583-1.698-2.98-2.992-4.151-1.298-1.176-2.85-2.089-4.607-2.718-1.811-0.647-3.799-0.975-5.911-0.975z"/>
  <path id="f" d="m116.13 14.068v8.837c0 7.988 6.196 12.99 14.39 12.99 0 0-6.729-1.3-6.729-12.99v-8.837c0-4.417 2.732-6.3 6.729-6.3 4.265 0 6.861 2.078 6.861 6.3 0-11.65-6.861-13.056-6.861-13.056-7.927 0-14.39 4.872-14.39 13.056"/>
  <path id="e" d="m130.57 1s6.732 1.346 6.732 13.111v8.737l2e-3 0.061s-0.056 7.504 2.745 10.236c1.034 0.954 2.572 1.701 4.97 2.421l0.134 0.041-0.011-21.495c0-1.876-0.357-3.649-1.063-5.267-0.692-1.583-1.698-2.98-2.992-4.152-1.298-1.175-2.85-2.089-4.607-2.718-1.81-0.647-3.798-0.975-5.91-0.975z"/>
  <path id="d" d="m130.57 1s6.732 1.346 6.732 13.111v8.737l2e-3 0.061s-0.056 7.504 2.745 10.236c1.034 0.954 2.572 1.701 4.97 2.421l0.134 0.041-0.011-21.495c0-1.876-0.357-3.649-1.063-5.267-0.692-1.583-1.698-2.98-2.992-4.152-1.298-1.175-2.85-2.089-4.607-2.718-1.81-0.647-3.798-0.975-5.91-0.975z"/>
  <path id="c" d="m130.57 1s6.732 1.346 6.732 13.111v8.737l2e-3 0.061s-0.056 7.504 2.745 10.236c1.034 0.954 2.572 1.701 4.97 2.421l0.134 0.041-0.011-21.495c0-1.876-0.357-3.649-1.063-5.267-0.692-1.583-1.698-2.98-2.992-4.152-1.298-1.175-2.85-2.089-4.607-2.718-1.81-0.647-3.798-0.975-5.91-0.975z"/>
 </defs>
 <g id="ir" transform="translate(34.696 -98.053)">
  <g id="is" transform="matrix(1.5831 0 0 1.5831 -52.839 96.47)">
   <g id="it">
    <g id="iu">
     <clipPath id="iv">
      <use id="iw" width="100%" height="100%" overflow="visible" xlink:href="#r"/>
     </clipPath>
     <rect id="ix" x="7.422" y="-2.133" width="141.63" height="40.935" clip-path="url(#av)" fill="none" stroke="#000" stroke-miterlimit="10"/>
    </g>
   </g>
   <g id="iy">
    <g id="iz">
     <clipPath id="ja">
      <use id="jb" width="100%" height="100%" overflow="visible" xlink:href="#j"/>
     </clipPath>
     <path id="jc" d="m11.46 1.93h28.619v33.951h-28.619z" clip-path="url(#ah)" fill="url(#z)"/>
    </g>
   </g>
   <g id="jd">
    <g id="je">
     <clipPath id="jf">
      <use id="jg" width="100%" height="100%" overflow="visible" xlink:href="#b"/>
     </clipPath>
     <path id="jh" d="m11.46 2.515h7.956v33.392h-7.956z" clip-path="url(#w)" fill="url(#v)"/>
    </g>
   </g>
   <g id="ji">
    <g id="jj">
     <clipPath id="jk">
      <use id="jl" width="100%" height="100%" overflow="visible" xlink:href="#a"/>
     </clipPath>
     <rect id="jm" x="32.312" y="13.778" width=".136" height="1.793" clip-path="url(#bj)" fill="url(#bi)"/>
    </g>
   </g>
   <g id="jn">
    <g id="jo">
     <clipPath id="jp">
      <use id="jq" width="100%" height="100%" overflow="visible" xlink:href="#u"/>
     </clipPath>
     <rect id="jr" x="32.312" y="13.778" width=".136" height="1.793" clip-path="url(#bh)" fill="url(#bg)"/>
    </g>
   </g>
   <g id="js">
    <g id="jt">
     <clipPath id="ju">
      <use id="jv" width="100%" height="100%" overflow="visible" xlink:href="#t"/>
     </clipPath>
     <rect id="jw" x="26.915" y="1.93" width="13.191" height="33.976" clip-path="url(#bf)" fill="url(#be)"/>
    </g>
   </g>
   <g id="jx">
    <g id="jy">
     <clipPath id="jz">
      <use id="ka" width="100%" height="100%" overflow="visible" xlink:href="#s"/>
     </clipPath>
     <rect id="kb" x="26.915" y="1.93" width="13.191" height="33.976" clip-path="url(#bd)" fill="url(#bc)"/>
    </g>
   </g>
   <g id="kc">
    <g id="kd">
     <clipPath id="ke">
      <use id="kf" width="100%" height="100%" overflow="visible" xlink:href="#q"/>
     </clipPath>
     <rect id="kg" x="32.312" y="13.778" width=".136" height="1.793" clip-path="url(#bb)" fill="url(#ba)"/>
    </g>
   </g>
   <g id="kh">
    <g id="ki">
     <clipPath id="kj">
      <use id="kk" width="100%" height="100%" overflow="visible" xlink:href="#p"/>
     </clipPath>
     <rect id="kl" x="32.312" y="13.778" width=".136" height="1.793" clip-path="url(#az)" fill="url(#ay)"/>
    </g>
   </g>
   <g id="km">
    <g id="kn">
     <clipPath id="ko">
      <use id="kp" width="100%" height="100%" overflow="visible" xlink:href="#o"/>
     </clipPath>
     <path id="kq" d="m26.915 1.93h13.191v33.976h-13.191z" clip-path="url(#ax)" fill="url(#aw)"/>
    </g>
   </g>
   <g id="kr">
    <g id="ks">
     <clipPath id="kt">
      <use id="ku" width="100%" height="100%" overflow="visible" xlink:href="#n"/>
     </clipPath>
     <path id="kv" d="m47.46 1.012h28.898v34.883h-28.898z" clip-path="url(#au)" fill="url(#at)"/>
    </g>
   </g>
   <g id="kw">
    <g id="kx">
     <clipPath id="ky">
      <use id="kz" width="100%" height="100%" overflow="visible" xlink:href="#m"/>
     </clipPath>
     <path id="la" d="m55.142 1.012h21.249v34.883h-21.249z" clip-path="url(#as)" fill="url(#ar)"/>
    </g>
   </g>
   <g id="lb">
    <g id="lc">
     <clipPath id="ld">
      <use id="le" width="100%" height="100%" overflow="visible" xlink:href="#l"/>
     </clipPath>
     <path id="lf" d="m80.156 2.337h32.341v33.662h-32.341z" clip-path="url(#aq)" fill="url(#ap)"/>
    </g>
   </g>
   <g id="lg">
    <g id="lh">
     <clipPath id="li">
      <use id="lj" width="100%" height="100%" overflow="visible" xlink:href="#k"/>
     </clipPath>
     <rect id="lk" x="92.613" y="2.338" width="19.884" height="33.661" clip-path="url(#ao)" fill="url(#an)"/>
    </g>
   </g>
   <g id="ll">
    <g id="lm">
     <clipPath id="ln">
      <use id="lo" width="100%" height="100%" overflow="visible" xlink:href="#i"/>
     </clipPath>
     <rect id="lp" x="92.613" y="2.338" width="19.884" height="33.661" clip-path="url(#am)" fill="url(#al)"/>
    </g>
   </g>
   <g id="lq">
    <g id="lr">
     <clipPath id="ls">
      <use id="lt" width="100%" height="100%" overflow="visible" xlink:href="#h"/>
     </clipPath>
     <path id="lu" d="m81.64 32.158 13.243-35.985 28.587 10.006-13.24 35.985z" clip-path="url(#ak)" fill="url(#aj)"/>
    </g>
   </g>
   <g id="lv">
    <g id="lw">
     <clipPath id="lx">
      <use id="ly" width="100%" height="100%" overflow="visible" xlink:href="#g"/>
     </clipPath>
     <path id="lz" d="m116.12 1h29.035v34.896h-29.035z" clip-path="url(#ai)" fill="url(#ag)"/>
    </g>
   </g>
   <g id="ma">
    <g id="mb">
     <clipPath id="mc">
      <use id="md" width="100%" height="100%" overflow="visible" xlink:href="#f"/>
     </clipPath>
     <path id="me" d="m116.13 1.012h21.251v34.883h-21.251z" clip-path="url(#af)" fill="url(#ae)"/>
    </g>
   </g>
   <g id="mf">
    <g id="mg">
     <clipPath id="mh">
      <use id="mi" width="100%" height="100%" overflow="visible" xlink:href="#e"/>
     </clipPath>
     <rect id="mj" x="130.57" y="1" width="14.582" height="34.605" clip-path="url(#ad)" fill="url(#ac)"/>
    </g>
   </g>
   <g id="mk">
    <g id="ml">
     <clipPath id="mm">
      <use id="mn" width="100%" height="100%" overflow="visible" xlink:href="#d"/>
     </clipPath>
     <rect id="mo" x="130.57" y="1" width="14.582" height="34.605" clip-path="url(#ab)" fill="url(#aa)"/>
    </g>
   </g>
   <g id="mp">
    <g id="mq">
     <clipPath id="mr">
      <use id="ms" width="100%" height="100%" overflow="visible" xlink:href="#c"/>
     </clipPath>
     <path id="mt" d="m130.57 1h14.582v34.605h-14.582z" clip-path="url(#y)" fill="url(#x)"/>
    </g>
   </g>
  </g>
 </g>
</svg>
