<?xml version="1.0" encoding="UTF-8"?>
<!-- Created with Inkscape (http://www.inkscape.org/) -->
<svg id="svg1952" width="800" height="209.42" version="1.1" viewBox="0 0 211.67 55.41" xmlns="http://www.w3.org/2000/svg" xmlns:cc="http://creativecommons.org/ns#" xmlns:dc="http://purl.org/dc/elements/1.1/" xmlns:rdf="http://www.w3.org/1999/02/22-rdf-syntax-ns#" xmlns:xlink="http://www.w3.org/1999/xlink">
 <defs id="defs1946">
  <clipPath id="SVGID_2_">
   <use id="use5" width="100%" height="100%" overflow="visible" xlink:href="#SVGID_1_"/>
  </clipPath>
  <linearGradient id="SVGID_5_" x1="-1062.7" x2="-1062.7" y1="164.27" y2="164.27" gradientTransform="matrix(235.44,0,0,235.44,250226,-38658)" gradientUnits="userSpaceOnUse">
   <stop id="stop20" stop-color="#DE006B" offset="0"/>
   <stop id="stop22" stop-color="#DE006B" offset=".0034"/>
   <stop id="stop24" stop-color="#DD1D78" offset=".0841"/>
   <stop id="stop26" stop-color="#DC3A84" offset=".1841"/>
   <stop id="stop28" stop-color="#DC4E8D" offset=".2837"/>
   <stop id="stop30" stop-color="#DB5B92" offset=".3817"/>
   <stop id="stop32" stop-color="#DB5F94" offset=".4766"/>
   <stop id="stop34" stop-color="#DB5B92" offset=".5815"/>
   <stop id="stop36" stop-color="#DC4E8D" offset=".69"/>
   <stop id="stop38" stop-color="#DC3A84" offset=".8001"/>
   <stop id="stop40" stop-color="#DD1D78" offset=".9107"/>
   <stop id="stop42" stop-color="#DE006B" offset="1"/>
  </linearGradient>
  <clipPath id="SVGID_4_">
   <use id="use17" width="100%" height="100%" overflow="visible" xlink:href="#SVGID_3_"/>
  </clipPath>
  <linearGradient id="SVGID_8_" x1="-1067.2" x2="-1067.1" y1="165.02" y2="165.02" gradientTransform="matrix(0,-513.6,513.6,0,-84737,-548066)" gradientUnits="userSpaceOnUse">
   <stop id="stop57" stop-color="#DC006B" offset="0"/>
   <stop id="stop59" stop-color="#DC0B70" offset=".0491"/>
   <stop id="stop61" stop-color="#DC297D" offset=".2098"/>
   <stop id="stop63" stop-color="#DB4187" offset=".3791"/>
   <stop id="stop65" stop-color="#DB528E" offset=".5585"/>
   <stop id="stop67" stop-color="#DB5C93" offset=".7548"/>
   <stop id="stop69" stop-color="#DB5F94" offset="1"/>
  </linearGradient>
  <clipPath id="SVGID_7_">
   <use id="use54" width="100%" height="100%" overflow="visible" xlink:href="#SVGID_6_"/>
  </clipPath>
  <linearGradient id="SVGID_11_" x1="-640.93" x2="-640.86" y1="351.68" y2="351.68" gradientTransform="matrix(1.8968,0,0,1.8968,1248,-652.39)" gradientUnits="userSpaceOnUse">
   <stop id="stop84" stop-color="#C92373" offset="0"/>
   <stop id="stop86" stop-color="#CA2574" offset=".0045"/>
   <stop id="stop88" stop-color="#D65794" offset=".1079"/>
   <stop id="stop90" stop-color="#E184B1" offset=".2156"/>
   <stop id="stop92" stop-color="#EAAAC8" offset=".3268"/>
   <stop id="stop94" stop-color="#F2C9DC" offset=".4417"/>
   <stop id="stop96" stop-color="#F8E1EB" offset=".5616"/>
   <stop id="stop98" stop-color="#FCF1F6" offset=".6884"/>
   <stop id="stop100" stop-color="#FEFBFC" offset=".827"/>
   <stop id="stop102" stop-color="#FFFFFE" offset=".9996"/>
   <stop id="stop104" stop-color="#FFFFFE" offset="1"/>
  </linearGradient>
  <clipPath id="SVGID_10_">
   <use id="use81" width="100%" height="100%" overflow="visible" xlink:href="#SVGID_9_"/>
  </clipPath>
  <linearGradient id="SVGID_14_" x1="-640.93" x2="-640.86" y1="351.68" y2="351.68" gradientTransform="matrix(1.8968,0,0,1.8968,1248,-652.39)" gradientUnits="userSpaceOnUse">
   <stop id="stop119" stop-color="#fff" offset="0"/>
   <stop id="stop121" stop-color="#FBEEF1" offset=".1086"/>
   <stop id="stop123" stop-color="#F6D6DF" offset=".2996"/>
   <stop id="stop125" stop-color="#F2C5D1" offset=".5028"/>
   <stop id="stop127" stop-color="#F0BBCA" offset=".7245"/>
   <stop id="stop129" stop-color="#EFB8C7" offset=".9996"/>
   <stop id="stop131" stop-color="#EFB8C7" offset="1"/>
  </linearGradient>
  <clipPath id="SVGID_13_">
   <use id="use116" width="100%" height="100%" overflow="visible" xlink:href="#SVGID_12_"/>
  </clipPath>
  <linearGradient id="SVGID_17_" x1="-1062.4" x2="-1062.3" y1="164.58" y2="164.58" gradientTransform="matrix(189.44,0,0,189.44,201284,-31159)" gradientUnits="userSpaceOnUse">
   <stop id="stop146" stop-color="#C92373" offset="0"/>
   <stop id="stop148" stop-color="#CA2574" offset=".0045"/>
   <stop id="stop150" stop-color="#D65794" offset=".1079"/>
   <stop id="stop152" stop-color="#E184B1" offset=".2157"/>
   <stop id="stop154" stop-color="#EAAAC8" offset=".3269"/>
   <stop id="stop156" stop-color="#F2C9DC" offset=".4419"/>
   <stop id="stop158" stop-color="#F8E1EB" offset=".5618"/>
   <stop id="stop160" stop-color="#FCF1F6" offset=".6887"/>
   <stop id="stop162" stop-color="#FEFBFC" offset=".8274"/>
   <stop id="stop164" stop-color="#FFFFFE" offset="1"/>
  </linearGradient>
  <clipPath id="SVGID_16_">
   <use id="use143" width="100%" height="100%" overflow="visible" xlink:href="#SVGID_15_"/>
  </clipPath>
  <linearGradient id="SVGID_20_" x1="-1062.4" x2="-1062.3" y1="164.58" y2="164.58" gradientTransform="matrix(189.44,0,0,189.44,201284,-31159)" gradientUnits="userSpaceOnUse">
   <stop id="stop179" stop-color="#fff" offset="0"/>
   <stop id="stop181" stop-color="#FBEEF1" offset=".1087"/>
   <stop id="stop183" stop-color="#F6D6DF" offset=".2997"/>
   <stop id="stop185" stop-color="#F2C5D1" offset=".503"/>
   <stop id="stop187" stop-color="#F0BBCA" offset=".7248"/>
   <stop id="stop189" stop-color="#EFB8C7" offset="1"/>
  </linearGradient>
  <clipPath id="SVGID_19_">
   <use id="use176" width="100%" height="100%" overflow="visible" xlink:href="#SVGID_18_"/>
  </clipPath>
  <linearGradient id="SVGID_23_" x1="-640.93" x2="-640.86" y1="351.68" y2="351.68" gradientTransform="matrix(1.8968,0,0,1.8968,1248,-652.39)" gradientUnits="userSpaceOnUse">
   <stop id="stop204" stop-color="#C92373" offset="0"/>
   <stop id="stop206" stop-color="#CA2574" offset=".0045"/>
   <stop id="stop208" stop-color="#D65794" offset=".1079"/>
   <stop id="stop210" stop-color="#E184B1" offset=".2157"/>
   <stop id="stop212" stop-color="#EAAAC8" offset=".3269"/>
   <stop id="stop214" stop-color="#F2C9DC" offset=".4419"/>
   <stop id="stop216" stop-color="#F8E1EB" offset=".5618"/>
   <stop id="stop218" stop-color="#FCF1F6" offset=".6887"/>
   <stop id="stop220" stop-color="#FEFBFC" offset=".8274"/>
   <stop id="stop222" stop-color="#FFFFFE" offset="1"/>
  </linearGradient>
  <clipPath id="SVGID_22_">
   <use id="use201" width="100%" height="100%" overflow="visible" xlink:href="#SVGID_21_"/>
  </clipPath>
  <linearGradient id="SVGID_26_" x1="-640.93" x2="-640.86" y1="351.68" y2="351.68" gradientTransform="matrix(1.8968,0,0,1.8968,1248,-652.39)" gradientUnits="userSpaceOnUse">
   <stop id="stop237" stop-color="#fff" offset="0"/>
   <stop id="stop239" stop-color="#FBEEF1" offset=".1087"/>
   <stop id="stop241" stop-color="#F6D6DF" offset=".2997"/>
   <stop id="stop243" stop-color="#F2C5D1" offset=".503"/>
   <stop id="stop245" stop-color="#F0BBCA" offset=".7248"/>
   <stop id="stop247" stop-color="#EFB8C7" offset="1"/>
  </linearGradient>
  <clipPath id="SVGID_25_">
   <use id="use234" width="100%" height="100%" overflow="visible" xlink:href="#SVGID_24_"/>
  </clipPath>
  <linearGradient id="SVGID_29_" x1="-1067.2" x2="-1067.1" y1="164.54" y2="164.54" gradientTransform="matrix(0,-514.52,514.52,0,-84625,-549046)" gradientUnits="userSpaceOnUse">
   <stop id="stop262" stop-color="#DE0075" offset="0"/>
   <stop id="stop264" stop-color="#DE0B78" offset=".0484"/>
   <stop id="stop266" stop-color="#DD2982" offset=".2096"/>
   <stop id="stop268" stop-color="#DC418A" offset=".3793"/>
   <stop id="stop270" stop-color="#DB5290" offset=".5591"/>
   <stop id="stop272" stop-color="#DB5C93" offset=".7554"/>
   <stop id="stop274" stop-color="#DB5F94" offset="1"/>
  </linearGradient>
  <clipPath id="SVGID_28_">
   <use id="use259" width="100%" height="100%" overflow="visible" xlink:href="#SVGID_27_"/>
  </clipPath>
  <radialGradient id="SVGID_32_" cx="-1065.2" cy="163.24" r=".0867" gradientTransform="matrix(232.02,0,0,434.48,247204,-70897)" gradientUnits="userSpaceOnUse">
   <stop id="stop289" stop-color="#DB5F94" offset="0"/>
   <stop id="stop291" stop-color="#DB5F94" offset=".0014"/>
   <stop id="stop293" stop-color="#DB5C93" offset=".2456"/>
   <stop id="stop295" stop-color="#DB5290" offset=".4417"/>
   <stop id="stop297" stop-color="#DC418A" offset=".6212"/>
   <stop id="stop299" stop-color="#DD2982" offset=".7907"/>
   <stop id="stop301" stop-color="#DE0B78" offset=".9517"/>
   <stop id="stop303" stop-color="#DE0075" offset="1"/>
  </radialGradient>
  <clipPath id="SVGID_31_">
   <use id="use286" width="100%" height="100%" overflow="visible" xlink:href="#SVGID_30_"/>
  </clipPath>
  <radialGradient id="SVGID_35_" cx="-1066.1" cy="163.91" r=".0852" gradientTransform="matrix(211.3,0,0,376.49,225328,-61705)" gradientUnits="userSpaceOnUse">
   <stop id="stop318" stop-color="#DB5F94" offset="0"/>
   <stop id="stop320" stop-color="#DB5F94" offset=".0078"/>
   <stop id="stop322" stop-color="#DB5C93" offset=".2512"/>
   <stop id="stop324" stop-color="#DB528E" offset=".4459"/>
   <stop id="stop326" stop-color="#DC4187" offset=".6239"/>
   <stop id="stop328" stop-color="#DD297D" offset=".7917"/>
   <stop id="stop330" stop-color="#DE0B70" offset=".9512"/>
   <stop id="stop332" stop-color="#DE006B" offset="1"/>
  </radialGradient>
  <clipPath id="SVGID_34_">
   <use id="use315" width="100%" height="100%" overflow="visible" xlink:href="#SVGID_33_"/>
  </clipPath>
  <linearGradient id="SVGID_38_" x1="-1067.2" x2="-1067.1" y1="162.91" y2="162.91" gradientTransform="matrix(0,-500.4,500.4,0,-81421,-533979)" gradientUnits="userSpaceOnUse">
   <stop id="stop347" stop-color="#DE006B" offset="0"/>
   <stop id="stop349" stop-color="#DE0B70" offset=".0492"/>
   <stop id="stop351" stop-color="#DD297D" offset=".2099"/>
   <stop id="stop353" stop-color="#DC4187" offset=".3791"/>
   <stop id="stop355" stop-color="#DB528E" offset=".5584"/>
   <stop id="stop357" stop-color="#DB5C93" offset=".7547"/>
   <stop id="stop359" stop-color="#DB5F94" offset="1"/>
  </linearGradient>
  <clipPath id="SVGID_37_">
   <use id="use344" width="100%" height="100%" overflow="visible" xlink:href="#SVGID_36_"/>
  </clipPath>
  <linearGradient id="SVGID_41_" x1="-1067" x2="-1067" y1="164.04" y2="164.04" gradientTransform="matrix(285.55,0,0,285.55,304782,-46821)" gradientUnits="userSpaceOnUse">
   <stop id="stop374" stop-color="#C92373" offset="0"/>
   <stop id="stop376" stop-color="#CA2574" offset=".0045"/>
   <stop id="stop378" stop-color="#D65794" offset=".1079"/>
   <stop id="stop380" stop-color="#E184B1" offset=".2157"/>
   <stop id="stop382" stop-color="#EAAAC8" offset=".3269"/>
   <stop id="stop384" stop-color="#F2C9DC" offset=".4419"/>
   <stop id="stop386" stop-color="#F8E1EB" offset=".5618"/>
   <stop id="stop388" stop-color="#FCF1F6" offset=".6887"/>
   <stop id="stop390" stop-color="#FEFBFC" offset=".8274"/>
   <stop id="stop392" stop-color="#FFFFFE" offset="1"/>
  </linearGradient>
  <clipPath id="SVGID_40_">
   <use id="use371" width="100%" height="100%" overflow="visible" xlink:href="#SVGID_39_"/>
  </clipPath>
  <linearGradient id="SVGID_44_" x1="-1067" x2="-1067" y1="164.04" y2="164.04" gradientTransform="matrix(285.55,0,0,285.55,304782,-46821)" gradientUnits="userSpaceOnUse">
   <stop id="stop407" stop-color="#fff" offset="0"/>
   <stop id="stop409" stop-color="#FBEEF1" offset=".1087"/>
   <stop id="stop411" stop-color="#F6D6DF" offset=".2997"/>
   <stop id="stop413" stop-color="#F2C5D1" offset=".503"/>
   <stop id="stop415" stop-color="#F0BBCA" offset=".7248"/>
   <stop id="stop417" stop-color="#EFB8C7" offset="1"/>
  </linearGradient>
  <clipPath id="SVGID_43_">
   <use id="use404" width="100%" height="100%" overflow="visible" xlink:href="#SVGID_42_"/>
  </clipPath>
  <linearGradient id="SVGID_47_" x1="-1066" x2="-1065.9" y1="163.03" y2="163.03" gradientTransform="matrix(-178,496,-496,-178,-108770,557746)" gradientUnits="userSpaceOnUse">
   <stop id="stop432" stop-color="#DE0075" offset="0"/>
   <stop id="stop434" stop-color="#DE0075" offset=".0024"/>
   <stop id="stop436" stop-color="#DD2181" offset=".1288"/>
   <stop id="stop438" stop-color="#DD3F8D" offset=".2767"/>
   <stop id="stop440" stop-color="#DD5796" offset=".4324"/>
   <stop id="stop442" stop-color="#DC689C" offset=".597"/>
   <stop id="stop444" stop-color="#DC72A0" offset=".7768"/>
   <stop id="stop446" stop-color="#DC75A1" offset="1"/>
  </linearGradient>
  <clipPath id="SVGID_46_">
   <use id="use429" width="100%" height="100%" overflow="visible" xlink:href="#SVGID_45_"/>
  </clipPath>
  <radialGradient id="SVGID_50_" cx="-1069.3" cy="164.21" r=".0861" gradientTransform="matrix(188.06,0,0,183.39,201211,-30095)" gradientUnits="userSpaceOnUse">
   <stop id="stop461" stop-color="#DE006B" offset="0"/>
   <stop id="stop463" stop-color="#DE006B" offset=".0032"/>
   <stop id="stop465" stop-color="#DD1D78" offset=".0809"/>
   <stop id="stop467" stop-color="#DC3A84" offset=".1773"/>
   <stop id="stop469" stop-color="#DC4E8D" offset=".2733"/>
   <stop id="stop471" stop-color="#DB5B92" offset=".3678"/>
   <stop id="stop473" stop-color="#DB5F94" offset=".4592"/>
   <stop id="stop475" stop-color="#DB5C93" offset=".5902"/>
   <stop id="stop477" stop-color="#DB528E" offset=".6966"/>
   <stop id="stop479" stop-color="#DC4187" offset=".7944"/>
   <stop id="stop481" stop-color="#DD297D" offset=".887"/>
   <stop id="stop483" stop-color="#DE0A6F" offset=".9752"/>
   <stop id="stop485" stop-color="#DE006B" offset="1"/>
  </radialGradient>
  <clipPath id="SVGID_49_">
   <use id="use458" width="100%" height="100%" overflow="visible" xlink:href="#SVGID_48_"/>
  </clipPath>
  <linearGradient id="SVGID_53_" x1="-1066" x2="-1065.9" y1="163.91" y2="163.91" gradientTransform="matrix(0,498.37,-498.37,0,81815,531257)" gradientUnits="userSpaceOnUse">
   <stop id="stop500" stop-color="#DE006B" offset="0"/>
   <stop id="stop502" stop-color="#DE0B70" offset=".0492"/>
   <stop id="stop504" stop-color="#DD297D" offset=".2099"/>
   <stop id="stop506" stop-color="#DC4187" offset=".3791"/>
   <stop id="stop508" stop-color="#DB528E" offset=".5584"/>
   <stop id="stop510" stop-color="#DB5C93" offset=".7547"/>
   <stop id="stop512" stop-color="#DB5F94" offset="1"/>
  </linearGradient>
  <clipPath id="SVGID_52_">
   <use id="use497" width="100%" height="100%" overflow="visible" xlink:href="#SVGID_51_"/>
  </clipPath>
  <linearGradient id="SVGID_56_" x1="-1069.5" x2="-1069.4" y1="164.47" y2="164.47" gradientTransform="matrix(209.42,0,0,209.42,224095,-34425)" gradientUnits="userSpaceOnUse">
   <stop id="stop527" stop-color="#C92373" offset="0"/>
   <stop id="stop529" stop-color="#D55592" offset=".1042"/>
   <stop id="stop531" stop-color="#E081AF" offset=".2138"/>
   <stop id="stop533" stop-color="#EAA8C7" offset=".3281"/>
   <stop id="stop535" stop-color="#F1C7DB" offset=".4457"/>
   <stop id="stop537" stop-color="#F7E0EB" offset=".5676"/>
   <stop id="stop539" stop-color="#FCF1F5" offset=".6956"/>
   <stop id="stop541" stop-color="#FEFBFC" offset=".8336"/>
   <stop id="stop543" stop-color="#FFFFFE" offset="1"/>
  </linearGradient>
  <clipPath id="SVGID_55_">
   <use id="use524" width="100%" height="100%" overflow="visible" xlink:href="#SVGID_54_"/>
  </clipPath>
  <linearGradient id="SVGID_59_" x1="-1069.5" x2="-1069.4" y1="164.47" y2="164.47" gradientTransform="matrix(209.42,0,0,209.42,224095,-34425)" gradientUnits="userSpaceOnUse">
   <stop id="stop558" stop-color="#fff" offset="0"/>
   <stop id="stop560" stop-color="#FBEFF2" offset=".104"/>
   <stop id="stop562" stop-color="#F6D7DF" offset=".2996"/>
   <stop id="stop564" stop-color="#F2C6D2" offset=".5064"/>
   <stop id="stop566" stop-color="#F0BBCA" offset=".7299"/>
   <stop id="stop568" stop-color="#EFB8C7" offset="1"/>
  </linearGradient>
  <clipPath id="SVGID_58_">
   <use id="use555" width="100%" height="100%" overflow="visible" xlink:href="#SVGID_57_"/>
  </clipPath>
  <linearGradient id="SVGID_62_" x1="-1067.2" x2="-1067.1" y1="161.82" y2="161.82" gradientTransform="matrix(0,-508.74,508.74,0,-82185,-542889)" gradientUnits="userSpaceOnUse">
   <stop id="stop583" stop-color="#DE006B" offset="0"/>
   <stop id="stop585" stop-color="#DE006B" offset=".01"/>
   <stop id="stop587" stop-color="#DE0B70" offset=".0587"/>
   <stop id="stop589" stop-color="#DD297D" offset=".2178"/>
   <stop id="stop591" stop-color="#DC4187" offset=".3852"/>
   <stop id="stop593" stop-color="#DB528E" offset=".5628"/>
   <stop id="stop595" stop-color="#DB5C93" offset=".7571"/>
   <stop id="stop597" stop-color="#DB5F94" offset="1"/>
  </linearGradient>
  <clipPath id="SVGID_61_">
   <use id="use580" width="100%" height="100%" overflow="visible" xlink:href="#SVGID_60_"/>
  </clipPath>
  <rect id="SVGID_1_" x="11.46" y="1" width="133.7" height="34.999"/>
  <path id="SVGID_3_" d="m32.438 15.129c1e-3 0.059 3e-3 0.118 3e-3 0.176 0-0.057-1e-3 -0.117-3e-3 -0.176m-15.849-10.081m10.316-3.118h-4e-3c-4.059 1e-3 -7.406 0.756-10.312 3.118-0.699-0.681-2.458-1.855-5.128-2.533v33.366h7.59v-20.048s0.01-0.179 0.014-0.491c0.204-4.176 3.023-6.524 7.383-6.524 4.023 0 5.866 2.59 5.989 6.271-0.016-0.454-0.069-0.892-0.137-1.31 0.089 0.562 0.12 1.16 0.12 1.793v20.309h7.619l0.042-0.171v-20.332c0-7.987-4.314-13.444-13.169-13.448h-7e-3"/>
  <path id="SVGID_6_" d="m11.46 35.906h7.593v-20.073s0.363-8.029-2.463-10.785c-0.698-0.68-2.459-1.855-5.13-2.533z"/>
  <path id="SVGID_9_" d="m32.443 15.572c4e-3 -0.628-0.04-1.229-0.132-1.793 0.09 0.561 0.132 1.16 0.132 1.793"/>
  <path id="SVGID_12_" d="m32.443 15.572c4e-3 -0.628-0.04-1.229-0.132-1.793 0.09 0.561 0.132 1.16 0.132 1.793"/>
  <path id="SVGID_15_" d="m26.93 1.946s5.514 0.887 5.514 13.625v20.334h7.595l0.067-0.196v-20.331c0-7.99-4.33-13.448-13.191-13.448z"/>
  <path id="SVGID_18_" d="m26.93 1.946s5.514 0.887 5.514 13.625v20.334h7.595l0.067-0.196v-20.331c0-7.99-4.33-13.448-13.191-13.448z"/>
  <path id="SVGID_21_" d="m32.443 15.572c4e-3 -0.628-0.04-1.229-0.132-1.793 0.09 0.561 0.132 1.16 0.132 1.793"/>
  <path id="SVGID_24_" d="m32.443 15.572c4e-3 -0.628-0.04-1.229-0.132-1.793 0.09 0.561 0.132 1.16 0.132 1.793"/>
  <path id="SVGID_27_" d="m26.93 1.946s5.514 0.887 5.514 13.625v20.334h7.595l0.067-0.196v-20.331c0-7.99-4.33-13.448-13.191-13.448z"/>
  <path id="SVGID_30_" d="m55.12 22.905v-8.837c0-4.417 2.727-6.3 6.723-6.3 4.264 0 6.856 2.078 6.856 6.3v8.837c-0.14 4.417-3.057 6.43-7.122 6.43-4.33 0-6.457-2.274-6.457-6.43m-7.66-8.837v8.837c0 7.988 6.188 12.99 14.382 12.99 8.061 0 14.516-4.871 14.516-12.99v-8.837c0-7.6-5.923-13.056-14.516-13.056-7.926 0-14.382 4.872-14.382 13.056"/>
  <path id="SVGID_33_" d="m68.73 14.068v8.837c-0.199 4.417-3.062 6.43-7.127 6.43-4.33 0-6.461-2.274-6.461-6.43 0 11.69 6.728 12.99 6.728 12.99 8.061 0 14.521-4.871 14.521-12.99v-8.837c0-7.6-5.928-13.056-14.521-13.056 0 0 6.86 1.406 6.86 13.056"/>
  <path id="SVGID_36_" d="m104.28 2.337-7.987 22.077-7.896-22.007-0.023-0.07h-8.219l12.457 33.181 0.044 0.018c1.152 0.463 2.472 0.463 3.637 0.463 1.289 0 2.618 0 3.771-0.463l0.043-0.018 12.392-33.181z"/>
  <path id="SVGID_39_" d="m104.28 2.338-7.987 22.076-3.681 11.106 0.044 0.016c1.153 0.464 2.472 0.464 3.637 0.464 1.289 0 2.618 0 3.771-0.464l0.043-0.016 12.392-33.181z"/>
  <path id="SVGID_42_" d="m104.28 2.338-7.987 22.076-3.681 11.106 0.044 0.016c1.153 0.464 2.472 0.464 3.637 0.464 1.289 0 2.618 0 3.771-0.464l0.043-0.016 12.392-33.181z"/>
  <path id="SVGID_45_" d="m104.28 2.338-7.987 22.076-3.681 11.106 0.044 0.016c1.153 0.464 2.472 0.464 3.637 0.464 1.289 0 2.618 0 3.771-0.464l0.043-0.016 12.392-33.181z"/>
  <path id="SVGID_48_" d="m123.78 22.905v-8.837c0-4.417 2.739-6.3 6.736-6.3 3.737 0 6.188 1.597 6.737 4.835 0.026 0.483 0.035 0.984 0.035 1.506v8.738l0.01 0.061s-1e-3 0.275 0.017 0.737c-0.474 3.902-3.235 5.689-7.065 5.689-4.329 1e-3 -6.47-2.273-6.47-6.429m6.795-21.905s0.02 4e-3 0.056 0.014c-0.036-1e-3 -0.077-1e-3 -0.114-1e-3 -7.927 0-14.396 4.872-14.396 13.056v8.837c0 7.988 6.202 12.99 14.396 12.99 3.629 0 6.937-0.986 9.474-2.814 0.021 0.021 0.043 0.044 0.063 0.063 1.033 0.953 2.572 1.7 4.97 2.42l0.134 0.041-0.01-21.495c0-1.876-0.357-3.649-1.063-5.267-0.692-1.583-1.698-2.98-2.992-4.151-1.298-1.176-2.85-2.089-4.607-2.718-1.811-0.647-3.799-0.975-5.911-0.975z"/>
  <path id="SVGID_51_" d="m116.13 14.068v8.837c0 7.988 6.196 12.99 14.39 12.99 0 0-6.729-1.3-6.729-12.99v-8.837c0-4.417 2.732-6.3 6.729-6.3 4.265 0 6.861 2.078 6.861 6.3 0-11.65-6.861-13.056-6.861-13.056-7.927 0-14.39 4.872-14.39 13.056"/>
  <path id="SVGID_54_" d="m130.57 1s6.732 1.346 6.732 13.111v8.737l2e-3 0.061s-0.056 7.504 2.745 10.236c1.034 0.954 2.572 1.701 4.97 2.421l0.134 0.041-0.011-21.495c0-1.876-0.357-3.649-1.063-5.267-0.692-1.583-1.698-2.98-2.992-4.152-1.298-1.175-2.85-2.089-4.607-2.718-1.81-0.647-3.798-0.975-5.91-0.975z"/>
  <path id="SVGID_57_" d="m130.57 1s6.732 1.346 6.732 13.111v8.737l2e-3 0.061s-0.056 7.504 2.745 10.236c1.034 0.954 2.572 1.701 4.97 2.421l0.134 0.041-0.011-21.495c0-1.876-0.357-3.649-1.063-5.267-0.692-1.583-1.698-2.98-2.992-4.152-1.298-1.175-2.85-2.089-4.607-2.718-1.81-0.647-3.798-0.975-5.91-0.975z"/>
  <path id="SVGID_60_" d="m130.57 1s6.732 1.346 6.732 13.111v8.737l2e-3 0.061s-0.056 7.504 2.745 10.236c1.034 0.954 2.572 1.701 4.97 2.421l0.134 0.041-0.011-21.495c0-1.876-0.357-3.649-1.063-5.267-0.692-1.583-1.698-2.98-2.992-4.152-1.298-1.175-2.85-2.089-4.607-2.718-1.81-0.647-3.798-0.975-5.91-0.975z"/>
 </defs>
 <metadata id="metadata1949">
  <rdf:RDF>
   <cc:Work rdf:about="">
    <dc:format>image/svg+xml</dc:format>
    <dc:type rdf:resource="http://purl.org/dc/dcmitype/StillImage"/>
    <dc:title/>
   </cc:Work>
  </rdf:RDF>
 </metadata>
 <g id="layer1" transform="translate(34.696 -98.053)">
  <g id="g606" transform="matrix(1.5831 0 0 1.5831 -52.839 96.47)">
   <g id="g12">
    <g id="g10">
     <clipPath id="clipPath1388">
      <use id="use1386" width="100%" height="100%" overflow="visible" xlink:href="#SVGID_1_"/>
     </clipPath>
     <rect id="rect8" x="7.422" y="-2.133" width="141.63" height="40.935" clip-path="url(#SVGID_2_)" fill="none" stroke="#000" stroke-miterlimit="10"/>
    </g>
   </g>
   <g id="g49">
    <g id="g47">
     <clipPath id="clipPath1397">
      <use id="use1395" width="100%" height="100%" overflow="visible" xlink:href="#SVGID_3_"/>
     </clipPath>
     <path id="rect45" d="m11.46 1.93h28.619v33.951h-28.619z" clip-path="url(#SVGID_4_)" fill="url(#SVGID_5_)"/>
    </g>
   </g>
   <g id="g76">
    <g id="g74">
     <clipPath id="clipPath1432">
      <use id="use1430" width="100%" height="100%" overflow="visible" xlink:href="#SVGID_6_"/>
     </clipPath>
     <path id="rect72" d="m11.46 2.515h7.956v33.392h-7.956z" clip-path="url(#SVGID_7_)" fill="url(#SVGID_8_)"/>
    </g>
   </g>
   <g id="g111">
    <g id="g109">
     <clipPath id="clipPath1457">
      <use id="use1455" width="100%" height="100%" overflow="visible" xlink:href="#SVGID_9_"/>
     </clipPath>
     <rect id="rect107" x="32.312" y="13.778" width=".136" height="1.793" clip-path="url(#SVGID_10_)" fill="url(#SVGID_11_)"/>
    </g>
   </g>
   <g id="g138">
    <g id="g136">
     <clipPath id="clipPath1490">
      <use id="use1488" width="100%" height="100%" overflow="visible" xlink:href="#SVGID_12_"/>
     </clipPath>
     <rect id="rect134" x="32.312" y="13.778" width=".136" height="1.793" clip-path="url(#SVGID_13_)" fill="url(#SVGID_14_)"/>
    </g>
   </g>
   <g id="g171">
    <g id="g169">
     <clipPath id="clipPath1515">
      <use id="use1513" width="100%" height="100%" overflow="visible" xlink:href="#SVGID_15_"/>
     </clipPath>
     <rect id="rect167" x="26.915" y="1.93" width="13.191" height="33.976" clip-path="url(#SVGID_16_)" fill="url(#SVGID_17_)"/>
    </g>
   </g>
   <g id="g196">
    <g id="g194">
     <clipPath id="clipPath1546">
      <use id="use1544" width="100%" height="100%" overflow="visible" xlink:href="#SVGID_18_"/>
     </clipPath>
     <rect id="rect192" x="26.915" y="1.93" width="13.191" height="33.976" clip-path="url(#SVGID_19_)" fill="url(#SVGID_20_)"/>
    </g>
   </g>
   <g id="g229">
    <g id="g227">
     <clipPath id="clipPath1569">
      <use id="use1567" width="100%" height="100%" overflow="visible" xlink:href="#SVGID_21_"/>
     </clipPath>
     <rect id="rect225" x="32.312" y="13.778" width=".136" height="1.793" clip-path="url(#SVGID_22_)" fill="url(#SVGID_23_)"/>
    </g>
   </g>
   <g id="g254">
    <g id="g252">
     <clipPath id="clipPath1600">
      <use id="use1598" width="100%" height="100%" overflow="visible" xlink:href="#SVGID_24_"/>
     </clipPath>
     <rect id="rect250" x="32.312" y="13.778" width=".136" height="1.793" clip-path="url(#SVGID_25_)" fill="url(#SVGID_26_)"/>
    </g>
   </g>
   <g id="g281">
    <g id="g279">
     <clipPath id="clipPath1623">
      <use id="use1621" width="100%" height="100%" overflow="visible" xlink:href="#SVGID_27_"/>
     </clipPath>
     <path id="rect277" d="m26.915 1.93h13.191v33.976h-13.191z" clip-path="url(#SVGID_28_)" fill="url(#SVGID_29_)"/>
    </g>
   </g>
   <g id="g310">
    <g id="g308">
     <clipPath id="clipPath1648">
      <use id="use1646" width="100%" height="100%" overflow="visible" xlink:href="#SVGID_30_"/>
     </clipPath>
     <path id="rect306" d="m47.46 1.012h28.898v34.883h-28.898z" clip-path="url(#SVGID_31_)" fill="url(#SVGID_32_)"/>
    </g>
   </g>
   <g id="g339">
    <g id="g337">
     <clipPath id="clipPath1675">
      <use id="use1673" width="100%" height="100%" overflow="visible" xlink:href="#SVGID_33_"/>
     </clipPath>
     <path id="rect335" d="m55.142 1.012h21.249v34.883h-21.249z" clip-path="url(#SVGID_34_)" fill="url(#SVGID_35_)"/>
    </g>
   </g>
   <g id="g366">
    <g id="g364">
     <clipPath id="clipPath1702">
      <use id="use1700" width="100%" height="100%" overflow="visible" xlink:href="#SVGID_36_"/>
     </clipPath>
     <path id="rect362" d="m80.156 2.337h32.341v33.662h-32.341z" clip-path="url(#SVGID_37_)" fill="url(#SVGID_38_)"/>
    </g>
   </g>
   <g id="g399">
    <g id="g397">
     <clipPath id="clipPath1727">
      <use id="use1725" width="100%" height="100%" overflow="visible" xlink:href="#SVGID_39_"/>
     </clipPath>
     <rect id="rect395" x="92.613" y="2.338" width="19.884" height="33.661" clip-path="url(#SVGID_40_)" fill="url(#SVGID_41_)"/>
    </g>
   </g>
   <g id="g424">
    <g id="g422">
     <clipPath id="clipPath1758">
      <use id="use1756" width="100%" height="100%" overflow="visible" xlink:href="#SVGID_42_"/>
     </clipPath>
     <rect id="rect420" x="92.613" y="2.338" width="19.884" height="33.661" clip-path="url(#SVGID_43_)" fill="url(#SVGID_44_)"/>
    </g>
   </g>
   <g id="g453">
    <g id="g451">
     <clipPath id="clipPath1781">
      <use id="use1779" width="100%" height="100%" overflow="visible" xlink:href="#SVGID_45_"/>
     </clipPath>
     <path id="polygon449" d="m81.64 32.158 13.243-35.985 28.587 10.006-13.24 35.985z" clip-path="url(#SVGID_46_)" fill="url(#SVGID_47_)"/>
    </g>
   </g>
   <g id="g492">
    <g id="g490">
     <clipPath id="clipPath1808">
      <use id="use1806" width="100%" height="100%" overflow="visible" xlink:href="#SVGID_48_"/>
     </clipPath>
     <path id="rect488" d="m116.12 1h29.035v34.896h-29.035z" clip-path="url(#SVGID_49_)" fill="url(#SVGID_50_)"/>
    </g>
   </g>
   <g id="g519">
    <g id="g517">
     <clipPath id="clipPath1845">
      <use id="use1843" width="100%" height="100%" overflow="visible" xlink:href="#SVGID_51_"/>
     </clipPath>
     <path id="rect515" d="m116.13 1.012h21.251v34.883h-21.251z" clip-path="url(#SVGID_52_)" fill="url(#SVGID_53_)"/>
    </g>
   </g>
   <g id="g550">
    <g id="g548">
     <clipPath id="clipPath1870">
      <use id="use1868" width="100%" height="100%" overflow="visible" xlink:href="#SVGID_54_"/>
     </clipPath>
     <rect id="rect546" x="130.57" y="1" width="14.582" height="34.605" clip-path="url(#SVGID_55_)" fill="url(#SVGID_56_)"/>
    </g>
   </g>
   <g id="g575">
    <g id="g573">
     <clipPath id="clipPath1899">
      <use id="use1897" width="100%" height="100%" overflow="visible" xlink:href="#SVGID_57_"/>
     </clipPath>
     <rect id="rect571" x="130.57" y="1" width="14.582" height="34.605" clip-path="url(#SVGID_58_)" fill="url(#SVGID_59_)"/>
    </g>
   </g>
   <g id="g604">
    <g id="g602">
     <clipPath id="clipPath1922">
      <use id="use1920" width="100%" height="100%" overflow="visible" xlink:href="#SVGID_60_"/>
     </clipPath>
     <path id="rect600" d="m130.57 1h14.582v34.605h-14.582z" clip-path="url(#SVGID_61_)" fill="url(#SVGID_62_)"/>
    </g>
   </g>
  </g>
 </g>
</svg>
