<svg id="a" width="1e3pt" height="404pt" version="1.1" viewBox="0 0 1e3 404" xmlns="http://www.w3.org/2000/svg">
 <g id="b">
  <path id="c" d="m0 0h499.96v404h-499.96v-404" fill="#0077be"/>
 </g>
 <g id="d">
  <path id="e" d="m499.96 0h500.04v404h-500.04v-404" fill="#f77b21"/>
 </g>
 <path id="f" d="m202.99 160.28c-1.1898-2.0869-5.4928-7.9316-18.986-15.204-21.145-11.405-33.866-10.547-39.365-10.547l-25.533-7e-3v134.46h35.831v-42.247c14.816 31.808 48.326 56.574 94.709 56.721-32.777 4.1914-60.571-4.1352-81.152-20.698v19.77h-62.952v-161.56h44.573c7.1487 0.60458 19.773 0.13501 42.062 13.105 15.919 9.2585 21.494 17.11 22.874 19.393 10.344-4.6297 22.332-7.2768 35.113-7.2768 27.164 0 50.749 11.954 62.629 29.494l-13.976 8.1681c-8.6613-13.845-27.031-23.414-48.309-23.414-29.517 0-53.446 18.421-53.446 41.146 0 22.726 23.93 41.147 53.446 41.147 21.613 0 40.234-9.8739 48.653-24.081l13.818 7.9197c-11.739 17.731-35.463 29.854-62.816 29.854-39.023 0-70.654-24.675-70.654-55.117 0-16.297 9.0646-30.94 23.476-41.031zm12.065-6.8097c-2.0857 0.93354-4.1045 1.9477-6.0495 3.037zm92.854 115.96c-18.096-10.529-22.833-19.235-23.223-20.013 4.3456-1.899 8.4154-4.1524 12.133-6.7059 0.68967 1.424 4.3965 7.7004 19.258 15.715 21.148 11.4 33.873 10.553 39.368 10.553l25.535 5e-3v-134.46h-35.836v42.249c-14.813-31.815-48.325-56.58-94.709-56.732 32.776-4.1805 60.574 4.1415 81.159 20.703v-19.77h62.947v161.56h-44.571c-7.1505-0.60461-19.77-0.12843-42.057-13.1z" fill="#fefefe" fill-rule="evenodd" stroke-width=".74092"/>
 <g id="g" fill="#fff">
  <g id="h">
   <path id="i" d="m544.74 122.14h25.805l25.67 51.475v-51.475h18.455v75.9h-25.335l-26.23-51.455v51.455h-18.365z"/>
   <path id="j" d="m813.51 128.74 19.55-6.03v18.75h13.695v13.665h-13.695l-0.01 21.925c0.04 3.04 0.45 6.85 3.45 8.45 3.25 1.61 6.94 0.61 10.36 0.24l0.63 12.59c-8.43 1.12-17.54 2.28-25.55-1.3-5.66-2.53-8.1-8.92-8.39-14.75-0.44-9.04 0.09-18.095-0.04-27.155h-11.345v-13.665h11.345z"/>
   <path id="k" d="m713.85 140.81c9.71-1.8 21.05-0.35 28.08 7.21 6.84 7.32 8.21 17.94 7.89 27.56h-39.44c0.92 3.82 3.02 7.66 6.9 9.11 8.91 3.39 18.99 1.5 27.36-2.58v13.78c-8.47 3.1-17.67 4.15-26.62 3.18-8.94-1.05-17.85-5.46-22.78-13.21-5.53-8.66-5.77-20.11-1.86-29.46 3.5-8.35 11.68-14.07 20.47-15.59m-1.1 15.96c-1.6 2.21-1.95 4.995-2.55 7.585h22.09c-0.38-3.25-0.82-6.875-3.4-9.195-4.5-4-12.7-3.59-16.14 1.61z"/>
   <path id="l" d="m755.02 152.01c2.84-6.78 10.17-10.29 17.07-11.4 8.64-1.2 17.53-0.11 25.78 2.65l-1.47 13.59c-6.26-3.02-13.46-4.52-20.35-3.19-1.73 0.4-3.88 1.27-4.03 3.32-0.03 2.73 2.86 3.94 5.06 4.62 7.12 2.15 15.49 2.68 20.76 8.57 5.89 7.29 4.2 19.78-3.89 24.81-4.16 2.68-9.11 3.79-13.98 4.23-8.62 0.62-17.36-0.02-25.7-2.33l0.97-14.3c6.94 2.5 14.37 4.53 21.81 3.58 2.2-0.19 4.7-1.67 4.63-4.16 0.2-2.41-1.97-4.05-3.97-4.81-6.42-2.54-13.91-2.87-19.34-7.54-4.98-4.24-5.62-11.83-3.35-17.64z"/>
   <path id="m" d="m878.89 141.83c4.48-2.32 9.68-1.75 14.5-1.13l-0.94 16.2c-4.89-0.53-10.41-1.17-14.69 1.84-4.55 3.15-6.08 9.01-6.22 14.26v25.04h-19.675v-56.55h17.875l0.01 10.51c2.23-3.98 4.82-8.17 9.14-10.17z"/>
   <path id="n" d="m901.01 144.08c10.83-3.96 23.02-5.42 34.25-2.32 8.18 2.17 14.54 9.56 15.13 18.05 0.73 12.74-0.69 25.6 1.24 38.27h-17.78c-0.29-3-0.47-6-0.55-9.01-2.98 4.44-7.02 8.57-12.44 9.73-7.26 1.46-15.5 0.47-21.39-4.31-8.37-7-7.28-22.26 2.39-27.62 9.23-5.24 20.43-5.18 30.68-3.9-0.3-3.94-2.45-7.95-6.54-8.92-8.24-2.04-17.18-0.46-24.71 3.29l-0.28-13.26m14.39 30.43c-3.7 1.88-4.48 7.71-1 10.18 4.14 2.91 10.26 2 13.76-1.53 2.88-2.62 3.85-6.54 4.4-10.24-5.7 0.05-11.91-1.26-17.16 1.59z"/>
   <path id="o" d="m624.58 141.44c6.46-0.03 13.015 0.1 19.475 0 0.27 9.89-0.33 19.77 0 29.66 0.25 4.18 1.26 9.35 5.49 11.33 4.29 1.63 9.84 0.46 12.58-3.4 2.69-3.77 3.12-8.59 3.21-13.08 0.06-8.16-0.03-16.35 0-24.51 6.53-0.01 13.08 0.04 19.62 0 0.06 18.88-0.01 37.765 0 56.645-5.94 0-11.88 0.02-17.81 0-0.01-3.46-0.02-6.925-0.01-10.385-2.73 4.64-6.73 8.74-12 10.34-7.38 2.29-16.18 2.06-22.59-2.65-5.38-3.99-7.885-10.85-7.965-17.38-0.03-12.18 0.01-24.39 0-36.57z"/>
  </g>
  <g id="p">
   <path id="q" d="m664.96 211.42h20.705v86.185h-20.705z"/>
   <path id="r" d="m542.68 217.42h60.84v15.86h-19.705v64.32h-21.4v-64.32h-19.735z"/>
   <path id="s" d="m718.57 237.08c10.245-1.8992 22.21-0.36928 29.627 7.6072 7.2168 7.7232 8.6623 18.928 8.3246 29.078h-41.613c0.97068 4.0304 3.1864 8.082 7.2801 9.6118 9.4008 3.5767 20.036 1.5826 28.867-2.7221v14.539c-8.9366 3.2708-18.643 4.3786-28.086 3.3552-9.4325-1.1078-18.833-5.7608-24.035-13.938-5.8346-9.137-6.0878-21.218-1.9625-31.083 3.6928-8.81 12.323-14.845 21.598-16.449m-1.1606 16.839c-1.6881 2.3317-2.0574 5.2702-2.6905 8.0028h23.307c-0.40093-3.429-0.86517-7.2537-3.5873-9.7015-4.7479-4.2204-13.4-3.7878-17.029 1.6987z" stroke-width="1.0551"/>
   <path id="t" d="m617.71 237.08c10.245-1.8992 22.21-0.36928 29.627 7.6072 7.2168 7.7232 8.6623 18.928 8.3246 29.078h-41.613c0.97068 4.0304 3.1864 8.082 7.2801 9.6118 9.4008 3.5767 20.036 1.5826 28.867-2.7221v14.539c-8.9366 3.2708-18.643 4.3786-28.086 3.3552-9.4325-1.1078-18.833-5.7608-24.035-13.938-5.8346-9.137-6.0878-21.218-1.9625-31.083 3.6928-8.81 12.323-14.845 21.598-16.449m-1.1606 16.839c-1.6881 2.3317-2.0574 5.2702-2.6905 8.0028h23.307c-0.40093-3.429-0.86517-7.2537-3.5873-9.7015-4.7479-4.2204-13.4-3.7878-17.029 1.6987z" stroke-width="1.0551"/>
  </g>
 </g>
 <g id="u" fill="#fff">
  <path id="v" d="m938 319.41h6.67v53.07h-6.67z"/>
  <path id="w" d="m547.08 323.16h7v49.32h-7z"/>
  <path id="x" d="m607.91 328.04 6.6625-2.1v10.46h9.54v5.355h-9.54v19.255c-0.06 2.24 0.51 4.75 2.56 6.02 2.27 1.61 5.12 0.48 7.57-0.04l-0.08 5.47c-4.26 0.85-9.15 1.51-12.94-1.11-2.73-1.8-3.7725-5.2-3.7725-8.33v-21.265h-8.1525v-5.355h8.1525z"/>
  <path id="y" d="m563.82 336.46h6.545l-0.23 5.645c4.08-6.69 13.69-8.57 20.21-4.43 3.98 2.66 5.305 7.74 5.445 12.27v22.54h-6.72v-20.42c-0.14-3.23-0.385-6.88-2.775-9.32-3.49-3.11-9.33-2.11-12.32 1.23-2.67 2.99-3.36 7.16-3.41 11.04v17.47h-6.745z"/>
  <path id="z" d="m631.22 342.27c4.97-7.34 16.24-8.92 23.33-3.84 5.22 4.12 5.98 11.275 6.27 17.455h-26.1c0.49 4.11 2.25 8.365 6.08 10.395 5.43 3.21 12.07 1.02 17.19-1.79l-0.07 6.53c-6.5 2.54-14.07 3.27-20.6 0.45-4.5-1.93-7.57-6.26-8.66-10.95-1.4-6.08-1.11-12.98 2.56-18.25m6.61 1.54c-1.77 1.94-2.7385 4.59-3.08 7.03l19.06 0.05c-0.24618-2.5113-0.76-5.17-2.54-7.09-3.3-3.97-10.12-3.87-13.44 0.01z"/>
  <path id="aa" d="m667.5 336.41h6.215l-0.07 5.55c1.56-2.18 3.2-4.49 5.76-5.56 2.58-1.31 5.52-0.78 8.28-0.51l0.09 5.86c-2.51-0.39-5.22-0.91-7.55 0.43-4.25 2.21-5.765 7.3-6.095 11.75v18.555h-6.63z"/>
  <path id="ab" d="m735.59 338.8c5.92-3.24 13.22-4.52 19.61-1.9 4.33 1.78 6.5 6.55 6.63 11.01 0.28 8.19-0.11 16.39 0.34 24.57h-6.23l0.11-4.58c-4.88 6.04-14.29 7.06-20.63 2.85-5.38-3.96-5.28-13.29 0.31-17.04 5.72-4.12 13.1-3.67 19.79-3.48-0.25119-2.91-0.63-6.55-3.56-8.14-5.22-2.62-11.44-0.75-16.05 2.29l-0.32-5.58m5.11 18.83c-2.85 2-2.86 6.67-0.02 8.69 4.35 3.22 11.66 1.37 13.83-3.66 1.04-2.35 0.75-4.99 0.87-7.49-4.93 0-10.43-0.55-14.68 2.46z"/>
  <path id="ac" d="m775.65 338.74c5.48-3.93 12.69-3.76 18.92-1.96l-0.52 5.51c-4.3-1.36-9.42-2.43-13.37 0.42-7.05 5.09-7.41 16.93-1 22.67 4.13 3.51 10.15 2.88 14.75 0.66l0.41 5.96c-6.41 1.94-13.97 1.95-19.45-2.35-9.75-7.17-9.76-23.99 0.26-30.91z"/>
  <g id="ad">
   <path id="ae" d="m800.7 320.85h7.495v7.44h-7.495z"/>
   <path id="af" d="m801.19 336.41h6.645v36.07h-6.645z"/>
  </g>
  <path id="ag" d="m827.36 336.53c6.69-2.2 14.82-0.9 19.76 4.36 7.2 7.6 6.65 21.1-1.3 27.98-7.4 6.69-20.34 5.61-26.35-2.42-7.65-9.38-4.21-26.19 7.89-29.92m2.97 4.94c-8.45 3.31-9.98 15.3-5.07 22.16 3.56 5.3 12.17 5.74 16.32 0.93 3.97-4.66 4.52-11.74 1.94-17.19-2.1-4.93-8.08-7.9-13.19-5.9z"/>
  <path id="ah" d="m692.81 336.46h6.545l-0.23 5.645c4.08-6.69 13.69-8.57 20.21-4.43 3.98 2.66 5.305 7.74 5.445 12.27v22.54h-6.72v-20.42c-0.14-3.23-0.385-6.88-2.775-9.32-3.49-3.11-9.33-2.11-12.32 1.23-2.67 2.99-3.36 7.16-3.41 11.04v17.47h-6.745z"/>
  <path id="ai" d="m858.92 336.46h6.545l-0.23 5.645c4.08-6.69 13.69-8.57 20.21-4.43 3.98 2.66 5.305 7.74 5.445 12.27v22.54h-6.72v-20.42c-0.14-3.23-0.385-6.88-2.775-9.32-3.49-3.11-9.33-2.11-12.32 1.23-2.67 2.99-3.36 7.16-3.41 11.04v17.47h-6.745z"/>
  <path id="aj" d="m901.67 338.8c5.92-3.24 13.22-4.52 19.61-1.9 4.33 1.78 6.5 6.55 6.63 11.01 0.28 8.19-0.11 16.39 0.34 24.57h-6.23l0.11-4.58c-4.88 6.04-14.29 7.06-20.63 2.85-5.38-3.96-5.28-13.29 0.31-17.04 5.72-4.12 13.1-3.67 19.79-3.48-0.25119-2.91-0.63-6.55-3.56-8.14-5.22-2.62-11.44-0.75-16.05 2.29l-0.32-5.58m5.11 18.83c-2.85 2-2.86 6.67-0.02 8.69 4.35 3.22 11.66 1.37 13.83-3.66 1.04-2.35 0.75-4.99 0.87-7.49-4.93 0-10.43-0.55-14.68 2.46z"/>
 </g>
</svg>
