<?xml version="1.0" encoding="UTF-8"?>
<svg id="svg16" width="800" height="677.26" version="1.1" viewBox="0 0 800 677.26" xmlns="http://www.w3.org/2000/svg" xmlns:cc="http://creativecommons.org/ns#" xmlns:dc="http://purl.org/dc/elements/1.1/" xmlns:rdf="http://www.w3.org/1999/02/22-rdf-syntax-ns#">
 <metadata id="metadata20">
  <rdf:RDF>
   <cc:Work rdf:about="">
    <dc:format>image/svg+xml</dc:format>
    <dc:type rdf:resource="http://purl.org/dc/dcmitype/StillImage"/>
    <dc:title>RCN Nuestra Tele_Color</dc:title>
   </cc:Work>
  </rdf:RDF>
 </metadata>
<!-- Generator: Sketch 43.2 (39069) - http://www.bohemiancoding.com/sketch -->
 <title id="title2">RCN Nuestra Tele_Color</title>
 <desc id="desc4">Created with Sketch.</desc>
 <path id="Fill-1" d="m627.51 0c17.827 0 32.278 14.244 32.278 31.816v446.76c0 17.57-14.451 31.813-32.278 31.813h-453.25c-17.825 0-32.276-14.243-32.276-31.813v-446.76c0-17.572 14.451-31.816 32.276-31.816z" fill="#2561ad" fill-rule="evenodd"/>
 <path id="Combined-Shape" d="m337.25 197.99c-1.6165-2.7979-7.463-10.634-25.796-20.384-28.729-15.291-46.014-14.14-53.485-14.14l-34.692-9e-3v180.27h48.683v-56.641c20.131 42.645 65.66 75.849 128.68 76.046-44.534 5.6194-82.298-5.5441-110.26-27.75v26.506h-85.532v-216.6h60.561c9.7129 0.81058 26.866 0.18102 57.15 17.57 21.629 12.413 29.204 22.94 31.079 26.001 14.054-6.2071 30.342-9.756 47.708-9.756 36.907 0 68.952 16.027 85.094 39.543l-18.989 10.951c-11.768-18.562-36.727-31.392-65.637-31.392-40.104 0-72.617 24.697-72.617 55.165 0 30.469 32.513 55.166 72.617 55.166 29.366 0 54.665-13.238 66.105-32.285l18.774 10.618c-15.95 23.772-48.183 40.026-85.347 40.026-53.02 0-95.997-33.082-95.997-73.896 0-21.849 12.316-41.482 31.896-55.01zm16.393-9.1298c-2.8338 1.2516-5.5768 2.6113-8.2194 4.0718zm126.16 155.47c-24.587-14.117-31.023-25.788-31.553-26.832 5.9044-2.546 11.434-5.5672 16.485-8.9906 0.93704 1.9092 5.9735 10.324 26.166 21.069 28.733 15.284 46.023 14.148 53.489 14.148l34.694 7e-3v-180.27h-48.69v56.643c-20.126-42.654-65.659-75.857-128.68-76.061 44.533-5.6048 82.302 5.5526 110.27 27.757v-26.506h85.526v216.6h-60.558c-9.7153-0.81062-26.861-0.17219-57.142-17.563z" fill="#fefefe" fill-rule="evenodd"/>
 <path id="path10" d="m83.854 674.42-76.132-91.55v91.55h-7.7217v-103.03h7.5689l74.586 89.636v-89.636h7.7217v103.03zm84.515 0v-13.982c-2.5891 4.4151-6.0733 8.1435-10.451 11.184-4.383 3.0406-10.056 4.5634-17.023 4.5634-4.7788 0-9.0619-0.76078-12.844-2.281-3.7826-1.5203-6.9931-3.6543-9.6303-6.4021-2.6397-2.7465-4.6271-6.0107-5.9722-9.7878s-2.0146-7.9236-2.0146-12.437v-45.924h7.3149v44.599c0 7.7534 2.0923 13.96 6.2731 18.619 4.1808 4.6606 10.154 6.9902 17.918 6.9902 3.6815 0 7.1423-0.66109 10.377-1.9858 3.2352-1.3272 6.0474-3.1646 8.4368-5.521 2.3906-2.354 4.256-5.1746 5.6011-8.4632 1.3426-3.2849 2.0146-6.8918 2.0146-10.818v-43.42h7.3186v75.066zm35.446-22.14c1.8333 3.613 4.1216 6.6876 6.8723 9.2276 2.747 2.5387 5.8798 4.4674 9.3923 5.7859 3.5126 1.3174 7.2002 1.976 11.07 1.976 6.1078 0 11.274-1.1289 15.5-3.3845 4.2277-2.2579 7.9683-5.0543 11.228-8.3914l5.1782 4.4151c-3.9638 4.1222-8.4627 7.531-13.502 10.23-5.0389 2.6979-11.271 4.0468-18.702 4.0468-5.0882 0-9.9484-0.93206-14.58-2.7951-4.6284-1.8641-8.7032-4.5135-12.212-7.9479-3.5113-3.4344-6.2866-7.5541-8.3197-12.364-2.038-4.8076-3.0539-10.156-3.0539-16.043v-0.29521c0-5.3958 0.93704-10.473 2.816-15.235 1.8788-4.7578 4.4693-8.9043 7.7686-12.435 3.2993-3.5352 7.1854-6.3291 11.654-8.3914 4.4656-2.0599 9.3406-3.0916 14.622-3.0916 5.4828 0 10.406 1.0075 14.775 3.0175 4.3645 2.0125 8.0953 4.7845 11.195 8.3173 3.0959 3.5328 5.4815 7.6793 7.1571 12.437 1.6756 4.7602 2.5139 9.9348 2.5139 15.528v1.6188c0 0.29407-0.0521 0.73654-0.15179 1.3247h-64.431c0.30698 4.6885 1.3784 8.8387 3.2093 12.449zm53.453-18.924c-0.30699-3.8269-1.0986-7.4812-2.3672-10.964-1.2748-3.483-3.0564-6.5758-5.3459-9.275-2.292-2.6967-5.1178-4.8562-8.4787-6.475-3.3597-1.6188-7.2791-2.4293-11.756-2.4293-3.8714 0-7.4838 0.73654-10.843 2.2069-3.3609 1.4729-6.2903 3.511-8.782 6.1092-2.4954 2.6007-4.5593 5.6923-6.1868 9.2725-1.6274 3.5826-2.5953 7.4326-2.9023 11.555zm72.834 29.685c-1.3451 2.693-3.2105 4.9936-5.5999 6.9052-2.3882 1.9067-5.1758 3.3772-8.3604 4.4054-3.1871 1.0245-6.6207 1.541-10.306 1.541-5.574 0-11.148-1.0281-16.722-3.0832-5.5765-2.0538-10.403-4.7067-14.484-7.9564l4.3312-5.7397c4.1808 3.1415 8.5576 5.5696 13.138 7.2856 4.5778 1.7171 9.3097 2.5752 14.187 2.5752 5.1746 0 9.5317-1.2712 13.064-3.8172 3.5335-2.546 5.304-6.0229 5.304-10.431v-0.29293c0-2.1523-0.55122-4.0141-1.6434-5.5818-1.0986-1.5664-2.5916-2.9373-4.4816-4.1137-1.8902-1.174-4.0292-2.1534-6.4185-2.9361-2.3906-0.7814-4.9292-1.5664-7.6169-2.3491-3.0848-0.88221-6.1954-1.812-9.3319-2.7927-3.1365-0.97941-5.9488-2.2264-8.4368-3.7443-2.4905-1.5179-4.5051-3.4015-6.0475-5.6534-1.5435-2.252-2.3154-5.0446-2.3154-8.3744v-0.29407c0-3.0358 0.62258-5.8017 1.8666-8.2991 1.244-2.4962 2.9614-4.6739 5.1511-6.5357 2.1897-1.8605 4.8269-3.3043 7.9153-4.3324 3.0835-1.0281 6.4703-1.5422 10.154-1.5422 4.5778 0 9.2801 0.75218 14.109 2.2542 4.8269 1.5057 9.1334 3.5498 12.916 6.1347l-3.8812 6.0338c-3.4842-2.2567-7.2434-4.0699-11.273-5.4468-4.0329-1.3709-8.0916-2.0587-12.171-2.0587-5.2769 0-9.4824 1.2481-12.619 3.7467-3.1328 2.4974-4.7023 5.6036-4.7023 9.3248v0.2952c0 2.0562 0.59924 3.8415 1.7914 5.3606 1.1946 1.5179 2.763 2.8182 4.7023 3.8925 1.9443 1.0768 4.2055 2.0306 6.7946 2.8644 2.5891 0.83124 5.2288 1.6405 7.9165 2.4233 3.0835 0.88357 6.1214 1.8376 9.1088 2.8656 2.9849 1.0281 5.6726 2.3491 8.062 3.9642 2.3894 1.6163 4.3066 3.551 5.7491 5.8029 1.4414 2.2506 2.1638 5.041 2.1638 8.3708v0.29407c0 3.3311-0.66948 6.3401-2.0146 9.0343zm49.075 12.042c-1.9407 0.44111-4.1068 0.66109-6.4962 0.66109-2.9849 0-5.7737-0.39262-8.3629-1.1776-2.5891-0.78253-4.8503-2.0343-6.7933-3.754-1.9407-1.7148-3.4583-3.8743-4.5532-6.475-1.0961-2.5983-1.6434-5.6668-1.6434-9.1984v-49.161h-11.049v-6.6232h11.049v-23.992h7.3186v23.992h26.726v6.6232h-26.726v48.312c0 5.3861 1.4167 9.1571 4.2548 11.308 2.8369 2.1534 6.4938 3.2302 10.975 3.2302 1.8902 0 3.6815-0.18578 5.3755-0.55779 1.6904-0.36951 3.6334-1.0172 5.823-1.9457v6.7703c-1.9937 0.88358-3.9576 1.5469-5.8982 1.9883zm63.719-67.48c-4.3818 0-8.5614 0.80949-12.544 2.4269-3.9823 1.6199-7.4912 4.0262-10.527 7.2138-3.0379 3.1901-5.452 7.1142-7.2434 11.775-1.7914 4.6606-2.6878 10.033-2.6878 16.116v30.762h-7.3173v-75.065h7.3173v21.343c1.4944-3.3347 3.3844-6.4251 5.6763-9.2737 2.2871-2.8425 4.8737-5.2719 7.7637-7.2856 2.8875-2.01 6.0474-3.5328 9.4811-4.5622 3.4349-1.0292 7.0412-1.4948 10.826-1.3976v7.9479zm61.893 66.516v-12.511c-1.2946 1.7658-2.8628 3.5097-4.706 5.2257-1.8419 1.7184-3.9552 3.2375-6.3434 4.5621-2.3894 1.3258-5.1042 2.4062-8.1397 3.2387-3.0354 0.83237-6.3446 1.2506-9.9274 1.2506-3.5866 0-7.1188-0.49095-10.604-1.4717-3.4842-0.9794-6.6207-2.4512-9.4071-4.4163-2.7876-1.9602-5.0525-4.4139-6.7946-7.3573-1.7434-2.9446-2.6126-6.379-2.6126-10.304v-0.29407c0-3.9241 0.82104-7.4083 2.4646-10.451 1.6423-3.0406 3.9046-5.5915 6.7946-7.6538 2.8862-2.0599 6.368-3.6276 10.451-4.7092 4.0797-1.0791 8.6094-1.6188 13.588-1.6188 5.3767 0 10.005 0.29407 13.889 0.88358 3.8812 0.58701 7.6638 1.3757 11.348 2.3552v-3.2205c0-7.61-2.2169-13.318-6.6454-17.124-4.4311-3.8038-10.58-5.7081-18.442-5.7081-4.6789 0-8.9571 0.56639-12.842 1.6928-3.88 1.1289-7.5652 2.5752-11.049 4.3434l-2.6865-6.3365c4.1808-2.0053 8.4097-3.6094 12.693-4.8112 4.2782-1.2044 9.0582-1.8048 14.335-1.8048 9.8559 0 17.621 2.4524 23.292 7.3573 5.6751 4.9073 8.5108 12.268 8.5108 22.078v46.806zm0.14953-36.664c-3.1883-0.78276-6.9191-1.5386-11.199-2.2714-4.2831-0.73268-9.1605-1.0999-14.633-1.0999-8.0645 0-14.261 1.5895-18.59 4.7639-4.3312 3.178-6.4974 7.401-6.4974 12.678v0.29158c0 2.7368 0.59924 5.1576 1.7914 7.2552 1.196 2.1024 2.8135 3.884 4.854 5.3496 2.0381 1.4681 4.404 2.5897 7.0917 3.3724 2.6865 0.7814 5.4754 1.1727 8.3628 1.1727 3.8824 0 7.5652-0.56141 11.049-1.6867 3.4854-1.1217 6.5443-2.6858 9.184-4.6885 2.6372-2.0039 4.7258-4.4224 6.2706-7.2564 1.5449-2.8328 2.3154-5.9585 2.3154-9.3807zm71.986 38.019h-18.779v-87.474h-33.62v-17.017h86.019v17.017h-33.62zm50.358-18.138c4.1377 3.4331 9.184 5.1491 15.141 5.1491 4.5457 0 8.4812-0.79363 11.814-2.3868 3.3313-1.5909 6.6121-3.9302 9.8411-7.0158l10.755 9.4026c-3.8381 4.4795-8.4048 8.0621-13.705 10.749-5.3003 2.687-11.639 4.0299-19.005 4.0299-5.7565 0-11.132-0.99527-16.13-2.9859-4.9982-1.9869-9.3381-4.7748-13.023-8.3599-3.6852-3.5814-6.5887-7.8847-8.7068-12.911-2.1194-5.0227-3.1809-10.623-3.1809-16.794 0-5.6717 0.95925-10.995 2.8788-15.972 1.916-4.9741 4.6173-9.3284 8.1002-13.061 3.483-3.7321 7.5972-6.6913 12.341-8.8812 4.7443-2.1888 9.9965-3.2849 15.752-3.2849 6.3594 0 11.938 1.1448 16.733 3.4332 4.796 2.2908 8.7833 5.374 11.964 9.2543 3.1822 3.8816 5.5777 8.4109 7.1916 13.584 1.6151 5.177 2.4239 10.598 2.4239 16.271 0 0.79839-0.0226 1.5945-0.0748 2.388-0.0521 0.79839-0.12914 1.643-0.22678 2.5375h-58.758c1.1072 6.4701 3.7333 11.42 7.8746 14.853zm33.013-26.794c-0.302-2.8863-0.95925-5.5975-1.9677-8.135-1.0109-2.5375-2.3746-4.7262-4.0896-6.5697-1.7175-1.8388-3.7641-3.3056-6.1337-4.403-2.3721-1.0925-5.0734-1.6419-8.1003-1.6419-5.6566 0-10.326 1.9178-14.011 5.7482-3.6852 3.8318-5.9303 8.8326-6.7391 15.001zm30.139 44.931v-108.97h18.474v108.97zm58.381-18.137c4.1377 3.4331 9.1852 5.1491 15.143 5.1491 4.5445 0 8.4812-0.79363 11.813-2.3868 3.3326-1.5909 6.6134-3.9302 9.8424-7.0158l10.755 9.4026c-3.8393 4.4795-8.406 8.0621-13.706 10.749-5.3003 2.687-11.639 4.0299-19.005 4.0299-5.7552 0-11.132-0.99527-16.129-2.9859-4.9982-1.9869-9.3381-4.7748-13.025-8.3599-3.684-3.5814-6.5874-7.8847-8.7068-12.911-2.1194-5.0227-3.1809-10.623-3.1809-16.794 0-5.6717 0.95925-10.995 2.8801-15.972 1.9146-4.9741 4.6173-9.3284 8.1003-13.061 3.483-3.7321 7.596-6.6913 12.341-8.8812 4.7443-2.1888 9.9952-3.2849 15.752-3.2849 6.3594 0 11.937 1.1448 16.732 3.4332 4.7972 2.2908 8.7833 5.374 11.964 9.2543 3.1822 3.8816 5.5789 8.4109 7.1928 13.584 1.6151 5.177 2.4239 10.598 2.4239 16.271 0 0.79839-0.0226 1.5945-0.0748 2.388-0.0498 0.79839-0.12687 1.643-0.22679 2.5375h-58.758c1.1072 6.4701 3.7332 11.42 7.8746 14.853zm33.014-26.794c-0.302-2.8863-0.96038-5.5975-1.969-8.135-1.0109-2.5375-2.3746-4.7262-4.0896-6.5697-1.7175-1.8388-3.7641-3.3056-6.1325-4.403-2.3734-1.0925-5.0734-1.6419-8.1015-1.6419-5.6554 0-10.324 1.9178-14.01 5.7482-3.6864 3.8318-5.9316 8.8326-6.7403 15.001z" fill="#fff" fill-rule="evenodd"/>
</svg>
