<?xml version="1.0" encoding="UTF-8"?>
<svg id="svg43" width="1643.4pt" height="391.5pt" version="1.1" viewBox="0 0 1643.4 391.5" xmlns="http://www.w3.org/2000/svg" xmlns:cc="http://creativecommons.org/ns#" xmlns:dc="http://purl.org/dc/elements/1.1/" xmlns:rdf="http://www.w3.org/1999/02/22-rdf-syntax-ns#">
 <metadata id="metadata49">
  <rdf:RDF>
   <cc:Work rdf:about="">
    <dc:format>image/svg+xml</dc:format>
    <dc:type rdf:resource="http://purl.org/dc/dcmitype/StillImage"/>
    <dc:title/>
   </cc:Work>
  </rdf:RDF>
 </metadata>
 <g id="g1015" transform="matrix(.75138 0 0 .75138 -66.566 -18.343)">
  <g id="g998">
   <g id="#a5a3a4ff" fill="#a5a3a4">
    <path id="path17" d="m572.25 270.08c29.57-0.19 59.15 0 88.72-0.11 8.77-0.08 17.62 1.18 25.87 4.24 10.84 3.97 20.59 11.72 25.65 22.24 5.75 11.57 6.17 25.17 3.34 37.6-2.38 10.98-8.86 21.29-18.52 27.24-3.66 2.34-7.83 3.65-11.68 5.6 9 1.99 17.84 7.05 21.81 15.74 7.55 15.72 5.24 33.69 7.73 50.49 0.93 8.74 3.82 17.21 8.81 24.46-9.29-0.07-18.58-0.14-27.86 0.02-3.47-3.7-3.95-9.02-4.49-13.81-0.77-11.28-0.47-22.66-2.63-33.8-1.54-9.72-3.68-20.64-11.78-27.15-7.45-5.82-17.33-5.51-26.27-5.32-17.87-0.01-35.74 0.01-53.61-0.01-0.24 26.67 0.09 53.36-0.16 80.03-8.3-0.06-16.59 0-24.88-0.03-0.12-62.48-0.04-124.95-0.05-187.43m25.02 21c0 21.72-0.05 43.44 0.03 65.16 17.88-0.07 35.75 0.05 53.62-0.05 10.68-0.38 22.28-1.43 31.01-8.23 7.64-5.73 10.47-15.74 10.35-24.92-0.01-8.5-2.25-17.68-8.72-23.62-6.93-6.84-17.21-8.4-26.55-8.39-19.92-0.02-39.83-0.11-59.74 0.05z"/>
    <path id="path19" d="m1031 270.04c7.5-0.07 15-0.11 22.5 0.02 0.02 62.49 0.04 124.98-0.01 187.47-7.48-0.04-14.95 0-22.43-0.02-0.16-62.49-0.04-124.98-0.06-187.47z"/>
    <path id="path21" d="m1550.9 270.05c7.53-0.09 15.07-0.14 22.61 0.04-0.02 62.48 0.03 124.96-0.03 187.44-7.48-0.03-14.95 0-22.42-0.01-0.13-6.32-0.12-12.63-0.13-18.95-4.51 9.44-13.52 16.02-23.38 18.99-15 4.6-31.7 4.02-46.2-2.05-15.37-6.49-26.55-20.56-31.87-36.11-5.98-17.81-6.34-37.38-1.58-55.51 4.41-16.47 14.9-32.02 30.64-39.42 17.28-8.29 38.49-8.14 55.68 0.37 6.76 3.45 12.61 8.7 16.66 15.14 0.16-23.31 0.15-46.62 0.02-69.93m-46.55 68.52c-6.76 0.59-13.34 3.03-18.79 7.08-7.62 6.02-12.29 15.02-14.58 24.33-3.55 14.75-3.61 30.78 2.09 45.01 3.77 9.38 10.7 17.74 19.99 22.02 8.72 3.94 18.78 4.44 28.05 2.33 11.35-2.69 20.64-11.4 25.12-22.04 6.32-14.66 6.91-31.5 3.09-46.9-2.74-10.53-8.7-20.87-18.34-26.43-7.92-4.78-17.52-6.36-26.63-5.4z"/>
    <path id="path23" d="m1696 270c7.51 0.04 15.02-0.12 22.53 0.11-0.06 9.14 0.01 18.27-0.04 27.41-7.5-0.01-14.99-0.01-22.47 0.01-0.06-9.18-0.04-18.36-0.02-27.53z"/>
    <path id="path25" d="m1851.7 270.08c7.54-0.15 15.09-0.12 22.65-0.03-0.12 62.47-0.09 124.94-0.02 187.41-7.56 0.07-15.12 0.12-22.67-0.01 0.16-6.16 0.15-12.33 0.05-18.49-4.93 9.68-14.48 16.2-24.77 19.07-15.75 4.27-33.23 3.33-47.94-4.01-13.22-6.78-23.03-19.16-28.04-33-6.59-17.97-7.04-37.96-2.39-56.44 4.23-16.55 14.63-32.1 30.21-39.81 16.05-7.99 35.59-8.41 52.2-1.83 8.38 3.41 15.73 9.23 20.71 16.82 0.13-23.22 0.12-46.45 0.01-69.68m-47.22 68.53c-10.49 1.01-20.37 6.89-26.05 15.8-6.7 10.52-8.98 23.3-8.94 35.61-0.14 9.99 1.69 20.17 6.37 29.07 4.04 7.99 10.71 14.82 19.05 18.26 7.85 3.5 16.79 3.85 25.17 2.41 10.16-1.89 19.18-8.44 24.38-17.33 6.5-11.27 8.65-24.6 7.95-37.46-0.74-12.83-4.43-26.34-13.71-35.67-8.74-9.01-22.06-12.02-34.22-10.69z"/>
    <path id="path27" d="m1645.6 327.55c9.06-7.03 20.91-9.62 32.21-9.17 0.94 1.26 0.3 3.13 0.54 4.64-0.05 6.38-0.07 12.77-0.04 19.16-10.51 0.17-21.48 1.77-30.39 7.71-8.05 5.31-13.25 14.04-15.78 23.19-2.4 8.76-2.96 17.9-2.85 26.94 0.06 19.12-0.1 38.25 0.07 57.37-7.55 0.23-15.1 0.17-22.64 0.03 0.06-45.31 0.01-90.61 0.03-135.92 7.07-0.01 14.14 0.05 21.22-0.09 0.25 9.72-0.17 19.46 0.2 29.19 3.91-8.9 9.8-16.99 17.43-23.05z"/>
    <path id="path29" d="m761.01 335.98c11.18-11.36 27.11-17.69 43.01-17.54 14.24-0.37 29 4.09 39.51 13.97 10.02 9.04 16.23 21.63 19.48 34.58 2.43 9.54 3.51 19.46 2.93 29.3-30.3-0.07-60.61-0.02-90.91-0.04-3.48 0.22-7.24-0.55-10.52 0.47-0.23 9.08 1.86 18.35 6.59 26.17 5.74 9.38 16.03 15.48 26.82 17.03 9.69 1.36 20.13 0.82 28.79-4.16 7.98-4.44 13.14-12.85 14.91-21.66 7.49-0.18 14.99-0.1 22.48-0.05-2.8 13.85-9.74 27.39-21.45 35.73-14.13 10.28-32.66 12.27-49.56 9.84-14.09-2-27.57-9-36.47-20.22-10.7-13.34-14.88-30.66-15.83-47.44-0.9-20.26 5.63-41.48 20.22-55.98m17.82 10.83c-8.61 7.27-13.34 18.31-14.25 29.4 25.84 0.05 51.67 0.04 77.5 0.01-0.4-12.07-6.61-23.85-16.45-30.86-13.62-9.88-33.87-9.37-46.8 1.45z"/>
    <path id="path31" d="m898.04 334.11c10.69-11.31 26.89-15.12 41.93-15.62 14.48-0.2 30.28 0.25 42.6 8.87 8.54 5.95 12.64 16.48 12.69 26.63 0.03 24.66 0.03 49.32-0.01 73.98 0.18 3.64-0.23 7.75 1.88 10.92 3.44 2.9 8.26 1.36 12.18 0.47-0.08 5.87-0.04 11.74 0.02 17.61-5.89 3.06-12.68 4.04-19.23 3.42-4.86-0.52-9.92-2.62-12.59-6.91-2.72-3.96-3.23-8.87-3.71-13.51-9.92 12.2-25.32 19.2-40.86 20.3-11.66 0.85-23.9-0.28-34.31-5.97-8.66-4.8-14.89-13.56-16.45-23.35-1.72-10.84-0.75-22.91 5.95-32 4.86-6.77 12.52-10.83 20.2-13.6 15.4-5.38 31.8-6.38 47.71-9.42 6.18-1.27 13.35-3.53 16.04-9.83 2.53-8.26-0.21-18.61-7.91-23.21-6.94-4.16-15.34-4.65-23.24-4.55-8.66 0.27-18.18 1.66-24.63 7.99-4.87 4.48-6.67 11.23-7.09 17.63-7.55 0.09-15.1 0.05-22.65 0 0.57-10.8 3.73-21.96 11.48-29.85m33 62.73c-8.5 1.69-17.93 4.5-22.79 12.29-3.55 6.38-4.13 14.71-0.58 21.23 3.65 6.02 10.63 8.98 17.39 9.8 11.21 1.21 23.1-0.35 32.83-6.34 8.14-5.12 14.68-13.87 14.84-23.77 0.01-7.44-0.01-14.88-0.02-22.32-12.72 7.07-27.8 6.16-41.67 9.11z"/>
    <path id="path33" d="m1109 341.63c7.54-11.79 20.04-20.28 33.92-22.43 12.51-1.84 26.45-0.87 36.86 7 5.08 3.65 8.43 9.11 10.7 14.84 5.89-8.99 14.72-16.08 24.9-19.61 9.42-3.58 19.78-3.53 29.64-2.19 9.8 1.46 19.9 5.56 25.95 13.76 5.18 6.81 7.11 15.56 7.05 24-0.11 33.52 0.12 67.04-0.12 100.55-7.46-0.09-14.92-0.01-22.38-0.03-0.07-29.16-0.05-58.32-0.01-87.48 0.15-8.22-0.49-17.16-5.66-23.95-4.3-5.4-11.46-7.38-18.08-7.74-9.1-0.29-18.73 1.63-25.87 7.57-7.7 6.25-11.78 16.27-11.64 26.08 0.06 28.47-0.1 56.94 0.08 85.41-7.55 0.22-15.1 0.07-22.65 0.1 0.11-28.82 0.05-57.65 0.03-86.48-0.11-8.75-0.45-18.37-6.27-25.45-6.25-7.1-16.71-8.14-25.53-6.69-17.37 2.55-30.42 19.92-29.68 37.17 0.13 27.13-0.05 54.27 0.1 81.41-7.48 0.11-14.96-0.03-22.44 0.1-0.36-45.35-0.1-90.71-0.13-136.06 7.04-0.04 14.08 0.03 21.13-0.06 0.21 6.72 0.07 13.45 0.1 20.18z"/>
    <path id="path35" d="m1320.8 333.8c10.33-10.79 25.8-14.48 40.23-15.27 12.33-0.33 25.11 0 36.69 4.72 8.63 3.44 15.87 10.71 18.34 19.78 2.25 7.11 1.62 14.64 1.69 21.98 0.02 22-0.02 44.01 0.02 66.01 0.18 2.92 0.25 6.48 2.64 8.55 3.53 1.94 7.7 0.57 11.39-0.2-0.08 5.84-0.03 11.68-0.05 17.53-7.75 3.95-17.39 5.03-25.56 1.84-7.37-2.95-9.52-11.49-9.8-18.65-10.3 12.05-25.66 19.27-41.41 20.24-11.84 0.79-24.33-0.45-34.74-6.57-8.22-4.77-14.02-13.28-15.55-22.65-1.61-10.12-0.88-21.13 4.51-30.08 3.96-6.66 10.65-11.14 17.63-14.17 8.38-3.43 17.31-5.22 26.17-6.91 10.44-1.97 21.21-2.41 31.4-5.6 4.81-1.59 9.89-4.95 10.72-10.35 1.31-7.23-0.98-15.57-7.02-20.11-6.58-4.94-15.2-5.46-23.12-5.61-9.25 0.25-19.6 1.41-26.48 8.28-4.73 4.53-6.29 11.19-6.91 17.48-7.46-0.09-14.92 0.03-22.38-0.1 0.27-10.93 3.75-22.25 11.59-30.14m17.87 67.94c-10.92 5.32-14.4 21.15-7.03 30.67 5.09 6.27 13.69 8.01 21.37 8.11 12.53 0.32 26.09-3.25 34.69-12.87 4.98-5.2 7.75-12.42 7.59-19.61-0.01-6.74-0.05-13.47 0.01-20.21-17.57 9.27-39.01 4.77-56.63 13.91z"/>
    <path id="path37" d="m1696 321.49c7.49 0.01 14.98 0 22.47-0.01 0.07 45.35 0.03 90.69 0.02 136.04-7.5-0.01-14.99-0.01-22.47 0.01-0.06-45.35-0.03-90.7-0.02-136.04z"/>
   </g>
   <g id="#000000ff">
    <path id="path40" d="m1964.8 269.96 177.12 0.1 53.55 162.65 54.15-162.65 26.18-0.02-66.64 187.38h-28.39l-66.05-186.94-0.09 20.57-62.21-0.03 0.01 166.41-25.09 0.01 0.04-166.39-62.62-0.1z" fill="#fff"/>
   </g>
  </g>
 </g>
 <g id="g1002" transform="matrix(.6917 0 0 .6917 -.94435 13.285)">
  <path id="path3" d="m338.24 112.26c1.195-1.803 1.917-3.772 1.917-5.778 0-0.564-0.05-1.128-0.149-1.689-0.398-2.248-1.615-4.156-3.393-5.512 0.602-1.272 0.985-2.641 0.985-4.059 0-3.958-2.464-7.482-6.047-8.917 1.584-1.75 2.502-3.987 2.502-6.391 0-4.542-3.124-8.327-7.432-9.319 0.616-1.291 1.034-2.665 1.034-4.112 0-5.297-4.31-9.606-9.605-9.606-0.306 0-0.613 0.094-0.921 0.125 0.218-0.805 0.365-1.625 0.365-2.468 0-5.298-4.31-9.608-9.604-9.608-0.989 0-1.954 0.208-2.892 0.508-0.016-5.286-4.317-9.581-9.607-9.581-1.595 0-3.097 0.489-4.48 1.236-1.342-3.788-4.869-6.492-8.949-6.492-2.912 0-5.573 1.361-7.395 3.597-1.74-1.54-3.968-2.448-6.313-2.448 0 0-0.385 0.044-0.672 0.079 0.147-0.668 0.242-1.346 0.242-2.039 0-5.299-4.311-9.609-9.609-9.609-1.223 0-2.403 0.318-3.538 0.775-0.026-2.53-1.014-4.906-2.804-6.698-1.814-1.815-4.228-2.814-6.795-2.814-1.681 0-3.26 0.542-4.71 1.375-1.347-3.757-4.861-6.439-8.928-6.439-2.193 0-4.246 0.767-5.938 2.109-1.743-2.761-4.742-4.551-8.049-4.551-0.853 0-1.69 0.195-2.521 0.423-1.576-1.67-3.494-3.022-5.651-3.847 0 0-0.507-0.162-0.965-0.309v-4.997h5.609c0.517 0 0.936-0.418 0.936-0.935v-6.65c0-0.516-0.419-0.935-0.936-0.935h-5.609v-4.956c0-0.516-0.418-0.935-0.936-0.935h-7.006c-0.517 0-0.935 0.419-0.935 0.935v4.956h-5.602c-0.517 0-0.935 0.418-0.935 0.935v6.65c0 0.517 0.418 0.935 0.935 0.935h5.602v4.997c-0.47 0.151-0.963 0.309-0.963 0.309-2.156 0.824-4.074 2.175-5.654 3.847-0.83-0.229-1.668-0.424-2.52-0.424-3.308 0-6.307 1.79-8.049 4.551-1.691-1.343-3.747-2.109-5.938-2.109-4.065 0-7.58 2.682-8.928 6.438-1.446-0.832-3.023-1.374-4.71-1.374-5.264 0-9.543 4.259-9.597 9.512-1.138-0.457-2.319-0.775-3.539-0.775-5.299 0-9.61 4.311-9.61 9.609 0 0.689 0.097 1.368 0.246 2.039-0.291-0.034-0.677-0.079-0.677-0.079-2.34 0-4.567 0.908-6.312 2.447-1.815-2.236-4.472-3.597-7.387-3.597-4.094 0-7.618 2.705-8.947 6.493-1.394-0.748-2.899-1.237-4.492-1.237-5.287 0-9.586 4.294-9.603 9.579-0.938-0.3-1.896-0.506-2.886-0.506-5.298 0-9.608 4.311-9.608 9.608 0 0.845 0.145 1.664 0.36 2.468-0.308-0.03-0.615-0.125-0.92-0.125-5.297 0-9.606 4.309-9.606 9.606 0 1.45 0.418 2.824 1.039 4.112-4.309 0.993-7.432 4.777-7.432 9.318 0 2.403 0.917 4.64 2.499 6.391-3.58 1.437-6.042 4.96-6.042 8.917 0 1.417 0.379 2.786 0.975 4.058-1.776 1.357-2.991 3.268-3.389 5.517-0.099 0.56-0.148 1.123-0.148 1.686 0 2.006 0.721 3.975 1.916 5.778-1.277 1.32-1.982 2.985-1.982 4.906 0 0.048 0 0.096 1e-3 0.145 0.065 3.753 2.579 7.405 4.888 9.209 4.331 3.384 9.048 3.848 13.077 1.453 3.792 2.709 8.524 3.689 13.055 2.742-0.045 0.289-0.194 0.563-0.194 0.854 0 0.847 0.187 1.695 0.561 2.487 0.675 1.447 1.846 2.536 3.293 3.062 0.904 0.328 1.859 0.386 2.794 0.23-0.095 0.157-0.175 0.324-0.238 0.5-0.278 0.771-0.222 1.669 0.153 2.464 0.35 0.745 0.969 1.311 1.742 1.59 0.206 0.075 0.415 0.104 0.626 0.121l-1.348 5.506c-0.067 0.275 0.058 0.561 0.305 0.699l5.53 3.078c-0.475 0.601-0.747 1.344-0.747 2.114 0 0.478 0.1 0.962 0.312 1.423 0.839 1.769 2.721 2.511 4.382 1.737 27.567-13.008 57.224-19.602 88.15-19.602 30.928 0 60.586 6.594 88.152 19.6 1.672 0.78 3.552 0.036 4.377-1.73 0.217-0.464 0.32-0.953 0.32-1.435 0-0.768-0.271-1.507-0.749-2.107l5.525-3.079c0.246-0.137 0.371-0.423 0.305-0.697l-1.349-5.535c1-0.121 1.917-0.701 2.379-1.684 0.215-0.458 0.324-0.951 0.324-1.434 0-0.353-0.059-0.7-0.176-1.024-0.086-0.237-0.211-0.451-0.352-0.653 2.505 0.425 5.073-0.738 6.206-3.146 0.369-0.787 0.554-1.63 0.554-2.473 0-0.296-0.15-0.573-0.197-0.867 4.531 0.947 9.268-0.033 13.063-2.741 4.025 2.393 8.741 1.929 13.074-1.452 2.308-1.804 4.82-5.455 4.885-9.208 1e-3 -0.048 1e-3 -0.096 1e-3 -0.144 2e-3 -1.921-0.703-3.586-1.981-4.907zm-218.62-42.108c0 0.216 0.035 0.424 0.05 0.637-4.672 1.038-9.998 2.431-14.328 4.132-3.084 1.214-5.646 2.735-7.733 4.271 4.688-9.978 12.627-16.999 25.632-23.765 0.135 2.178 0.986 4.196 2.438 5.798-3.59 1.433-6.059 4.959-6.059 8.927zm77.064-32.228c-0.836 1.35-1.319 2.873-1.319 4.462 0 1.591 0.483 3.116 1.319 4.467v4.157c-15.288-2.203-34.877-0.735-50.156 7.19 7.303-18.274 24.222-32.74 48.841-31.323 5e-3 1.581 0.484 3.095 1.315 4.437v6.61zm14.4 13.086v-4.157c0.833-1.346 1.317-2.87 1.317-4.467 0-1.596-0.484-3.118-1.317-4.462v-6.61c0.828-1.336 1.308-2.849 1.313-4.437 24.619-1.416 41.537 13.049 48.84 31.323-15.279-7.925-34.867-9.393-50.153-7.19zm91.339 23.911c-4.337-1.703-9.656-3.095-14.321-4.132 0.014-0.213 0.05-0.421 0.05-0.637 0-3.966-2.471-7.493-6.062-8.926 1.451-1.602 2.301-3.62 2.437-5.801 13.004 6.767 20.942 13.787 25.629 23.766-2.087-1.536-4.65-3.056-7.733-4.27z" fill="#00529f"/>
  <path id="path5" d="m313.01 121.98c-1.408 0.08-2.814-0.169-4.067-0.86-2.443-1.346-3.933-3.898-3.933-6.643 0-0.175 0.015-0.352 0.026-0.528 0.896-1.086 1.563-2.312 1.918-3.688 0.208-0.804 0.312-1.618 0.312-2.427 0-1.699-0.455-3.374-1.342-4.877-1.313-2.225-3.415-3.804-5.92-4.447-5.146-1.327-10.418 1.788-11.755 6.944-2e-3 9e-3 -0.148 1.04-0.229 1.616-1.868 2.354-4.91 3.406-7.831 2.656-3.258-0.839-5.462-3.682-5.624-6.957 6.893 1.341 11.112-1.236 12.829-7.928 0.358-1.392 0.537-2.679 0.537-3.863 0-3.609-1.729-6.245-5.096-8.054 2e-3 -0.109 0.011-0.222 0.011-0.33 0-1.356-0.273-2.559-0.693-3.668 2.95-1.226 5.123-3.815 5.771-6.891 4.592 1.023 9.797 2.39 14.033 4.053 3.937 1.549 7.004 3.638 9.274 5.58 2.351 5.904 3.714 12.818 4.411 21.231-2.36 1.016-4.274 3.271-5.648 6.855-0.687 1.81-1.031 3.468-1.031 4.981 0 2.964 1.387 5.346 4.047 7.245z" fill="#ee324e"/>
  <path id="path7" d="m258.35 98.605c-1.727 2.784-5.001 4.222-8.259 3.383-3.229-0.829-5.527-3.718-5.662-7.044 0.726-1.374 1.146-2.896 1.146-4.461 0-5.323-4.329-9.654-9.65-9.654-5.324 0-9.655 4.331-9.655 9.654 0 0.801 0.154 1.582 0.354 2.349-1.019 3.158-3.888 5.281-7.211 5.281-3.362 0-6.144-2.227-7.114-5.354 6.951-0.438 10.385-3.972 10.385-10.854 0-5.855-2.459-9.266-7.455-10.455-0.826-3.489-2.877-5.78-6.07-6.894 1.999-1.592 3.238-4.002 3.238-6.63 0-1.6-0.484-3.121-1.317-4.462v-1.191c15.51-2.273 35.576-0.728 50.825 7.688 1.513 4.186 2.538 8.544 3.036 12.941-1.727 0.859-3.127 2.292-4.177 4.284-5.128-0.085-8.34 2.63-9.799 8.294-0.356 1.387-0.536 2.671-0.536 3.855-1e-3 4.521 2.642 7.564 7.921 9.27z" fill="#ee324e"/>
  <path id="path9" d="m198.6 64.556c-3.193 1.113-5.244 3.406-6.07 6.894-4.998 1.189-7.457 4.6-7.457 10.455 0 6.882 3.434 10.415 10.392 10.854-0.977 3.127-3.76 5.354-7.122 5.354-3.274 0-6.204-2.171-7.202-5.281 0.196-0.772 0.346-1.556 0.346-2.349 0-2.58-1.004-5.004-2.827-6.827-1.823-1.824-4.247-2.828-6.827-2.828-5.325 0-9.656 4.331-9.656 9.654 0 1.547 0.424 3.071 1.153 4.461-0.132 3.326-2.432 6.214-5.665 7.044-3.258 0.84-6.532-0.599-8.255-3.383 5.28-1.706 7.922-4.749 7.922-9.271 0-1.184-0.179-2.468-0.535-3.854-1.461-5.664-4.672-8.379-9.8-8.294-1.044-1.99-2.447-3.422-4.181-4.285 0.499-4.396 1.524-8.754 3.036-12.939 15.25-8.417 35.317-9.961 50.829-7.688v1.191c-0.836 1.347-1.319 2.869-1.319 4.462 1e-3 2.628 1.239 5.037 3.238 6.63z" fill="#ee324e"/>
  <path id="path11" d="m124.92 82.927c-3.365 1.807-5.091 4.441-5.091 8.051 0 1.186 0.18 2.474 0.538 3.866 1.714 6.695 5.933 9.272 12.823 7.928-0.155 3.274-2.361 6.117-5.628 6.957-2.919 0.75-5.965-0.303-7.827-2.656-0.072-0.503-0.229-1.604-0.229-1.604-1.333-5.168-6.606-8.284-11.758-6.956-2.499 0.642-4.598 2.219-5.911 4.441-0.889 1.505-1.344 3.185-1.344 4.887 0 0.807 0.102 1.62 0.30901 2.421 0.351 1.373 1.019 2.599 1.918 3.689 0.012 0.173 0.025 0.346 0.025 0.518 0 2.751-1.488 5.308-3.929 6.652-1.254 0.69-2.662 0.939-4.067 0.861 2.658-1.898 4.044-4.28 4.044-7.241 0-1.514-0.345-3.172-1.033-4.982-1.364-3.584-3.28-5.84-5.652-6.858 0.697-8.411 2.061-15.324 4.411-21.227 2.271-1.943 5.337-4.034 9.276-5.584 4.229-1.661 9.44-3.029 14.038-4.053 0.648 3.076 2.819 5.666 5.769 6.892-0.421 1.115-0.693 2.319-0.693 3.669 0 0.108 9e-3 0.22 0.011 0.329z" fill="#ee324e"/>
  <path id="path13" d="m286.98 118.38c1.935-0.513 3.761-1.331 5.415-2.449 0.87 0.564 1.798 1.018 2.807 1.275 2e-3 0 0.306 0.055 0.611 0.111 0.438 1.915 1.214 3.766 2.268 5.466-3.671-1.563-7.376-3.032-11.101-4.403z" fill="#ee324e"/>
  <path id="path15" d="m203.88 103.6s-2.912 0.054-5.49 0.102c2.504-1.907 4.4-4.446 5.49-7.387 1.091 2.94 2.986 5.479 5.491 7.387-2.578-0.049-5.491-0.102-5.491-0.102z" fill="#ee324e"/>
  <path id="path17-0" d="m109.68 122.79c1.056-1.7 1.831-3.552 2.264-5.465 0.308-0.056 0.615-0.112 0.615-0.112 1.003-0.256 1.934-0.71 2.809-1.275 1.635 1.104 3.478 1.927 5.421 2.445-3.736 1.376-7.442 2.846-11.109 4.407z" fill="#ee324e"/>
  <path id="path19-6" d="m138.83 112.53c1.896-2.455 2.988-5.394 3.301-8.473 1.775 2.576 4.227 4.573 7.109 5.809-3.513 0.814-6.985 1.704-10.41 2.664z" fill="#ee324e"/>
  <path id="path21-9" d="m167.75 106.33c1.85-1.764 3.294-3.888 4.232-6.225 0.674-0.011 1.333-0.144 1.989-0.292 1.497 2.054 3.445 3.767 5.699 5.025-3.976 0.398-7.953 0.895-11.92 1.492z" fill="#ee324e"/>
  <path id="path23-1" d="m228.08 104.84c2.253-1.257 4.204-2.97 5.707-5.025 0.65 0.148 1.306 0.281 1.981 0.292 0.941 2.339 2.386 4.463 4.234 6.225-3.965-0.596-7.943-1.094-11.922-1.492z" fill="#ee324e"/>
  <path id="path25-3" d="m258.52 109.87c2.884-1.236 5.335-3.233 7.108-5.809 0.315 3.079 1.409 6.018 3.305 8.474-3.425-0.96-6.899-1.85-10.413-2.665z" fill="#ee324e"/>
  <path id="path27-0" d="m186.02 13.538c0-2.354 1.918-4.27 4.276-4.27 2.354 0 4.271 1.915 4.271 4.27s-1.916 4.271-4.271 4.271c-2.357 0-4.276-1.916-4.276-4.271z" fill="#fff"/>
  <path id="path29-2" d="m199.61 26.851c0-2.356 1.916-4.272 4.271-4.272s4.271 1.917 4.271 4.272c0 2.354-1.916 4.269-4.271 4.269s-4.271-1.915-4.271-4.269z" fill="#fff"/>
  <path id="path31-6" d="m199.61 42.386c0-2.355 1.916-4.271 4.271-4.271s4.271 1.917 4.271 4.271c0 2.357-1.916 4.274-4.271 4.274s-4.271-1.917-4.271-4.274z" fill="#fff"/>
  <path id="path33-8" d="m199.61 57.925c0-2.354 1.916-4.269 4.271-4.269s4.271 1.915 4.271 4.269-1.916 4.269-4.271 4.269-4.271-1.915-4.271-4.269z" fill="#fff"/>
  <path id="path35-2" d="m172.05 15.983c0-1.141 0.444-2.213 1.251-3.019s1.877-1.25 3.016-1.25c2.354 0 4.27 1.915 4.27 4.269 0 2.353-1.915 4.268-4.27 4.268-2.353 0-4.267-1.915-4.267-4.268z" fill="#fff"/>
  <path id="path37-2" d="m158.4 21.048c0-2.355 1.916-4.271 4.271-4.271 2.354 0 4.269 1.917 4.269 4.271 0 2.353-1.915 4.268-4.269 4.268-2.355-1e-3 -4.271-1.915-4.271-4.268z" fill="#fff"/>
  <path id="path39" d="m145.27 29.786c0-2.355 1.917-4.271 4.273-4.271 1.138 0 2.209 0.445 3.015 1.251 0.807 0.807 1.25 1.879 1.25 3.02 0 2.355-1.914 4.271-4.266 4.271-2.355 0-4.272-1.916-4.272-4.271z" fill="#fff"/>
  <path id="path41" d="m135.23 41.354c0-2.355 1.914-4.272 4.265-4.272 2.355 0 4.272 1.917 4.272 4.272 0 2.352-1.917 4.265-4.272 4.265-2.352 0-4.265-1.914-4.265-4.265z" fill="#fff"/>
  <path id="path43" d="m121.53 40.202c0-2.352 1.917-4.265 4.274-4.265 1.139 0 2.21 0.444 3.016 1.25 0.806 0.805 1.25 1.876 1.25 3.016 0 2.357-1.914 4.275-4.266 4.275-2.357-1e-3 -4.274-1.919-4.274-4.276z" fill="#fff"/>
  <path id="path45" d="m108.09 45.462c0-2.355 1.917-4.272 4.274-4.272 2.352 0 4.265 1.917 4.265 4.272 0 2.354-1.914 4.271-4.265 4.271-2.357-1e-3 -4.274-1.917-4.274-4.271z" fill="#fff"/>
  <path id="path47" d="m95.597 54.534c0-2.354 1.917-4.27 4.275-4.27 2.351 0 4.265 1.916 4.265 4.27 0 2.355-1.914 4.272-4.265 4.272-2.357 0-4.275-1.917-4.275-4.272z" fill="#fff"/>
  <path id="path49" d="m85.439 66.483c0-2.356 1.914-4.273 4.265-4.273 2.356 0 4.274 1.917 4.274 4.273 0 2.354-1.918 4.27-4.274 4.27-2.352-1e-3 -4.265-1.916-4.265-4.27z" fill="#fff"/>
  <path id="path51" d="m79.041 79.913c0-2.352 1.917-4.266 4.274-4.266 2.355 0 4.271 1.914 4.271 4.266 0 2.357-1.917 4.276-4.271 4.276-2.357 0-4.274-1.918-4.274-4.276z" fill="#fff"/>
  <path id="path53" d="m75.496 95.222c0-2.352 1.917-4.265 4.271-4.265s4.269 1.913 4.269 4.265c0 2.355-1.915 4.272-4.269 4.272-2.355 0-4.271-1.917-4.271-4.272z" fill="#fff"/>
  <path id="path55" d="m128.51 54.835c0-1.14 0.445-2.213 1.253-3.021 0.808-0.807 1.879-1.252 3.017-1.252 2.354 0 4.269 1.917 4.269 4.273 0 2.354-1.915 4.27-4.269 4.27-2.354-1e-3 -4.27-1.916-4.27-4.27z" fill="#fff"/>
  <path id="path57" d="m124.95 70.152c0-2.354 1.914-4.269 4.265-4.269 2.355 0 4.271 1.916 4.271 4.269 0 2.354-1.917 4.27-4.271 4.27-2.352 0-4.265-1.915-4.265-4.27z" fill="#fff"/>
  <path id="path59" d="m196.2 80.123c0-4.235 3.444-7.681 7.679-7.681s7.681 3.446 7.681 7.681-3.445 7.682-7.681 7.682c-4.234 0-7.679-3.447-7.679-7.682z" fill="#fff"/>
  <path id="path61" d="m134.23 95.054c-1.768-1.043-3.023-2.714-3.535-4.704-1.052-4.103 1.429-8.298 5.531-9.351 4.101-1.055 8.297 1.425 9.354 5.529 1.056 4.097-1.423 8.291-5.525 9.349-1.99 0.512-4.058 0.22-5.825-0.823z" fill="#fff"/>
  <path id="path63" d="m74.685 118.91c-2.038-3.709-0.682-8.391 3.027-10.434 1.8-0.991 3.879-1.22 5.852-0.647 1.969 0.573 3.598 1.878 4.584 3.674v1e-3c2.042 3.707 0.685 8.386-3.024 10.431-3.708 2.041-8.391 0.684-10.439-3.025z" fill="#fff"/>
  <path id="path65" d="m213.19 13.538c0-1.141 0.444-2.214 1.249-3.021 0.805-0.805 1.874-1.249 3.013-1.249 2.357 0 4.275 1.915 4.275 4.27s-1.918 4.271-4.275 4.271c-2.351 0-4.262-1.916-4.262-4.271z" fill="#fff"/>
  <path id="path67" d="m227.18 15.983c0-2.354 1.911-4.269 4.263-4.269 2.355 0 4.273 1.915 4.273 4.269 0 2.353-1.918 4.268-4.273 4.268-2.352 0-4.263-1.915-4.263-4.268z" fill="#fff"/>
  <path id="path69" d="m240.81 21.048c0-2.355 1.915-4.271 4.268-4.271 2.356 0 4.273 1.917 4.273 4.271 0 2.353-1.917 4.268-4.273 4.268-2.353-1e-3 -4.268-1.915-4.268-4.268z" fill="#fff"/>
  <path id="path71" d="m253.95 29.786c0-2.355 1.915-4.271 4.268-4.271 2.356 0 4.272 1.917 4.272 4.271 0 2.355-1.916 4.271-4.272 4.271-2.353 0-4.268-1.916-4.268-4.271z" fill="#fff"/>
  <path id="path73" d="m263.98 41.354c0-2.355 1.915-4.272 4.271-4.272 1.14 0 2.21 0.444 3.017 1.25 0.806 0.806 1.251 1.88 1.251 3.022 0 2.352-1.915 4.265-4.268 4.265-2.356 0-4.271-1.914-4.271-4.265z" fill="#fff"/>
  <path id="path75" d="m277.69 40.202c0-2.352 1.918-4.265 4.274-4.265 2.353 0 4.268 1.914 4.268 4.265 0 2.357-1.915 4.275-4.268 4.275-2.356 0-4.274-1.918-4.274-4.275z" fill="#fff"/>
  <path id="path77" d="m291.12 45.462c0-2.355 1.913-4.272 4.265-4.272 2.357 0 4.275 1.917 4.275 4.272 0 2.354-1.918 4.271-4.275 4.271-2.352-1e-3 -4.265-1.917-4.265-4.271z" fill="#fff"/>
  <path id="path79" d="m303.61 54.534c0-2.354 1.917-4.27 4.273-4.27 2.353 0 4.266 1.916 4.266 4.27 0 2.355-1.913 4.272-4.266 4.272-2.356 0-4.273-1.917-4.273-4.272z" fill="#fff"/>
  <path id="path81" d="m313.78 66.483c0-2.356 1.917-4.273 4.272-4.273 2.354 0 4.271 1.917 4.271 4.273 0 2.354-1.917 4.27-4.271 4.27-2.355-1e-3 -4.272-1.916-4.272-4.27z" fill="#fff"/>
  <path id="path83" d="m320.18 79.913c0-2.352 1.914-4.266 4.268-4.266s4.271 1.914 4.271 4.266c0 2.357-1.916 4.276-4.271 4.276-2.354 0-4.268-1.918-4.268-4.276z" fill="#fff"/>
  <path id="path85" d="m323.72 95.222c0-2.352 1.918-4.265 4.275-4.265 2.352 0 4.264 1.913 4.264 4.265 0 2.355-1.912 4.272-4.264 4.272-2.357 0-4.275-1.917-4.275-4.272z" fill="#fff"/>
  <path id="path87" d="m270.71 54.835c0-2.356 1.916-4.273 4.271-4.273s4.269 1.917 4.269 4.273c0 2.354-1.914 4.27-4.269 4.27s-4.271-1.916-4.271-4.27z" fill="#fff"/>
  <path id="path89" d="m274.26 70.152c0-2.354 1.916-4.269 4.273-4.269 2.354 0 4.271 1.916 4.271 4.269 0 2.354-1.916 4.27-4.271 4.27-2.357 0-4.273-1.915-4.273-4.27z" fill="#fff"/>
  <path id="path91" d="m267.71 95.877c-1.989-0.512-3.658-1.766-4.7-3.532-1.042-1.764-1.335-3.831-0.823-5.816v-1e-3c0.509-1.987 1.761-3.656 3.524-4.7 1.767-1.046 3.836-1.34 5.824-0.829s3.658 1.765 4.701 3.532c1.044 1.766 1.337 3.832 0.825 5.819-0.513 1.991-1.766 3.663-3.532 4.706-1.765 1.041-3.831 1.333-5.819 0.821z" fill="#fff"/>
  <path id="path93" d="m322.63 121.94c-1.801-0.993-3.107-2.627-3.677-4.601-0.567-1.967-0.335-4.037 0.654-5.829 0 0 1e-3 -1e-3 1e-3 -2e-3 0.985-1.797 2.614-3.102 4.586-3.675 1.973-0.573 4.048-0.343 5.845 0.647 1.798 0.987 3.103 2.614 3.675 4.582 0.573 1.972 0.345 4.051-0.646 5.854-2.043 3.709-6.727 5.066-10.438 3.024z" fill="#fff"/>
  <path id="path95" d="m172.13 126.67c0-1.139 0.445-2.212 1.253-3.019 0.807-0.807 1.878-1.252 3.017-1.252 2.358 0 4.276 1.916 4.276 4.271s-1.918 4.272-4.276 4.272c-2.354 0-4.27-1.916-4.27-4.272z" fill="#fff"/>
  <path id="path97" d="m119.16 140.99c0-1.141 0.444-2.214 1.251-3.021 0.806-0.806 1.877-1.25 3.015-1.25 2.357 0 4.274 1.917 4.274 4.272 0 2.356-1.917 4.273-4.274 4.273-2.353 0-4.266-1.917-4.266-4.274z" fill="#fff"/>
  <path id="path99" d="m203.88 120.19c0.382 0.142 11.163 4.16 13.668 5.093-2.505 0.935-13.286 4.954-13.668 5.097-0.382-0.143-11.159-4.163-13.664-5.097 2.505-0.934 13.282-4.951 13.664-5.093z" fill="#ee324e"/>
  <path id="path101" d="m108.66 141.74c0.989 0.363 4.931 1.813 5.745 2.112-0.217 0.848-1.371 5.363-1.672 6.542-1.053-0.585-4.8-2.671-5.449-3.032 0.176-0.72 1.126-4.602 1.376-5.622z" fill="#ee324e"/>
  <path id="path103" d="m227.09 126.67c0-2.355 1.914-4.271 4.266-4.271 2.358 0 4.279 1.916 4.279 4.271s-1.921 4.272-4.279 4.272c-2.352 0-4.266-1.916-4.266-4.272z" fill="#fff"/>
  <path id="path105" d="m280.06 140.99c0-2.355 1.913-4.272 4.266-4.272 2.352 0 4.266 1.917 4.266 4.272 0 2.356-1.914 4.273-4.266 4.273-2.353 1e-3 -4.266-1.916-4.266-4.273z" fill="#fff"/>
  <path id="path107" d="m300.71 137.94c-30.396-14.323-62.977-21.586-96.838-21.586-33.862 0-66.442 7.263-96.839 21.586-0.248 0.116-0.418 0.3-0.507 0.545-0.11 0.307-0.08 0.683 0.086 1.035 0.139 0.295 0.382 0.518 0.685 0.627 0.302 0.109 0.628 0.093 0.92-0.044 0.225-0.105 0.483-0.117 0.717-0.032 0.234 0.084 0.424 0.259 0.529 0.485l0.083 0.18 5.813 2.137c0.302 0.111 0.472 0.433 0.392 0.745l-1.726 6.752 0.194 0.417c0.217 0.467 0.016 1.021-0.45 1.24-0.757 0.357-1.085 1.27-0.737 2.027 0.335 0.7 1.09 1.21 1.894 0.835 27.815-13.124 57.741-19.778 88.945-19.778 31.205 0 61.133 6.654 88.946 19.777 0.809 0.377 1.563-0.131 1.889-0.83 0.357-0.761 0.028-1.672-0.733-2.031-0.465-0.217-0.666-0.773-0.448-1.24l0.195-0.42-1.727-6.749c-0.08-0.313 0.09-0.634 0.392-0.745l5.811-2.135 0.084-0.182c0.104-0.226 0.295-0.4 0.528-0.485s0.491-0.073 0.717 0.032c0.605 0.285 1.33 0.022 1.614-0.584 0.163-0.347 0.193-0.721 0.082-1.028-0.088-0.248-0.26-0.433-0.511-0.551zm-177.29 8.58c-3.045 0-5.521-2.48-5.521-5.529 0-1.477 0.575-2.865 1.619-3.91 1.043-1.044 2.429-1.618 3.903-1.618 3.049 0 5.53 2.479 5.53 5.528s-2.481 5.529-5.531 5.529zm41.498-17.731-13.529 9.441c-0.124 0.086-0.275 0.125-0.426 0.109l-16.417-1.734c-0.261-0.027-0.478-0.214-0.543-0.468s0.034-0.522 0.25-0.672l13.537-9.436c0.124-0.086 0.275-0.125 0.425-0.109l16.409 1.728c0.261 0.027 0.477 0.214 0.542 0.468s-0.033 0.524-0.248 0.673zm11.475 3.414c-3.047 0-5.525-2.48-5.525-5.528 0-1.475 0.575-2.863 1.621-3.908 1.044-1.044 2.431-1.619 3.905-1.619 3.051 0 5.532 2.479 5.532 5.527-1e-3 3.048-2.483 5.528-5.533 5.528zm43.163-6.327-15.466 5.767c-0.141 0.052-0.297 0.053-0.439 0l-15.461-5.767c-0.246-0.092-0.409-0.326-0.409-0.589 0-0.262 0.163-0.497 0.409-0.589l15.461-5.764c0.142-0.053 0.297-0.052 0.439 0l15.466 5.764c0.246 0.092 0.408 0.327 0.408 0.589 0 0.263-0.162 0.497-0.408 0.589zm11.789 6.327c-3.045 0-5.521-2.48-5.521-5.528 0-3.047 2.477-5.527 5.521-5.527 3.052 0 5.535 2.479 5.535 5.527s-2.483 5.528-5.535 5.528zm41.847 4.403-16.407 1.734c-0.15 0.016-0.301-0.022-0.425-0.109l-13.538-9.441c-0.214-0.149-0.316-0.418-0.25-0.672 0.064-0.254 0.281-0.44 0.542-0.468l16.412-1.728c0.149-0.016 0.3 0.022 0.425 0.109l13.534 9.436c0.215 0.147 0.314 0.417 0.25 0.672-0.065 0.253-0.281 0.44-0.543 0.467zm11.126 9.914c-3.044 0-5.521-2.48-5.521-5.529 0-3.048 2.478-5.528 5.521-5.528 3.045 0 5.521 2.479 5.521 5.528 1e-3 3.049-2.476 5.529-5.521 5.529z" fill="#febe10"/>
  <path id="path109" d="m336.49 113.13c-0.384-0.322-0.446-0.889-0.14-1.286 1.572-2.047 2.215-4.436 1.808-6.727-0.354-1.993-1.484-3.682-3.181-4.753-0.425-0.27-0.562-0.828-0.307-1.263 0.687-1.173 1.05-2.515 1.05-3.882 0-3.637-2.581-6.819-6.138-7.567-0.356-0.075-0.637-0.35-0.719-0.704-0.083-0.354 0.048-0.724 0.335-0.948 1.893-1.479 2.978-3.699 2.978-6.089 0-4.009-3.008-7.317-6.998-7.697-0.326-0.031-0.613-0.231-0.755-0.528s-0.117-0.646 0.064-0.919c0.844-1.273 1.29-2.756 1.29-4.287 0-4.266-3.47-7.736-7.734-7.736-0.67 0-1.354 0.093-2.031 0.277-0.351 0.094-0.724-0.021-0.958-0.298s-0.287-0.664-0.137-0.994c0.464-1.014 0.699-2.09 0.699-3.198 0-4.267-3.469-7.739-7.733-7.739-1.22 0-2.432 0.293-3.504 0.846-0.303 0.156-0.662 0.106-0.945-0.082-0.282-0.189-0.437-0.544-0.409-0.883l0.1-1.215c0-4.268-3.473-7.74-7.74-7.74-1.592 0-3.119 0.484-4.417 1.399-0.255 0.181-0.585 0.22-0.877 0.107s-0.508-0.365-0.574-0.67c-0.779-3.53-3.958-6.092-7.562-6.092-2.639 0-5.072 1.333-6.514 3.567-0.156 0.245-0.42 0.401-0.71 0.425-0.289 0.024-0.573-0.089-0.769-0.304-1.459-1.613-3.543-2.538-5.715-2.538l-1.74 0.204c-0.327 0.038-0.701-0.088-0.902-0.349-0.2-0.259-0.302-0.597-0.183-0.903 0.349-0.889 0.527-1.824 0.527-2.781 0-4.268-3.474-7.74-7.741-7.74-1.435 0-2.85 0.408-4.093 1.18-0.3 0.187-0.678 0.152-0.979-0.034-0.302-0.185-0.468-0.561-0.437-0.914l0.109-1.231c0-2.067-0.805-4.01-2.266-5.472-1.462-1.462-3.404-2.267-5.472-2.267-1.667 0-3.264 0.533-4.618 1.542-0.254 0.189-0.587 0.237-0.885 0.125-0.297-0.11-0.518-0.364-0.587-0.674-0.775-3.51-3.95-6.058-7.548-6.058-2.072 0-4.017 0.808-5.479 2.274-0.216 0.215-0.522 0.313-0.822 0.26-0.301-0.052-0.558-0.248-0.687-0.523-1.271-2.705-4.019-4.453-7-4.453-0.846 0-1.689 0.143-2.51 0.423-0.358 0.122-0.755 0.017-1.004-0.269-1.438-1.639-3.28-2.918-5.325-3.7l-1.467-0.47c-0.388-0.124-0.702-0.499-0.702-0.905v-6.612c0-0.517 0.419-0.935 0.935-0.935h5.609v-4.78h-5.609c-0.516 0-0.935-0.418-0.935-0.935v-4.956h-5.137v4.956c0 0.517-0.418 0.935-0.935 0.935h-5.603v4.78h5.603c0.516 0 0.935 0.418 0.935 0.935v6.612c0 0.407-0.314 0.782-0.702 0.906l-1.465 0.47c-2.046 0.781-3.887 2.061-5.327 3.7-0.252 0.285-0.647 0.391-1.006 0.268-0.818-0.28-1.662-0.423-2.508-0.423-2.982 0-5.73 1.748-7 4.453-0.129 0.275-0.385 0.471-0.686 0.523s-0.607-0.045-0.823-0.26c-1.463-1.466-3.409-2.274-5.479-2.274-3.598 0-6.772 2.548-7.55 6.058-0.069 0.31-0.29 0.564-0.587 0.674-0.298 0.11-0.631 0.062-0.886-0.128-1.347-1.008-2.943-1.54-4.615-1.54-4.266 0-7.736 3.472-7.736 7.738l0.113 1.218c0.033 0.354-0.132 0.734-0.434 0.921-0.301 0.187-0.676 0.227-0.978 0.041-1.251-0.773-2.669-1.181-4.101-1.181-4.268 0-7.74 3.472-7.74 7.74 0 0.95 0.178 1.886 0.528 2.783 0.119 0.306 0.017 0.642-0.184 0.902-0.2 0.26-0.575 0.386-0.901 0.348l-1.745-0.204c-2.168 0-4.251 0.925-5.715 2.539-0.196 0.215-0.48 0.328-0.771 0.303-0.29-0.024-0.552-0.182-0.709-0.427-1.434-2.232-3.864-3.565-6.503-3.565-3.616 0-6.793 2.56-7.554 6.088-0.066 0.306-0.281 0.558-0.572 0.672s-0.621 0.076-0.877-0.104c-1.313-0.916-2.846-1.401-4.435-1.401-4.266 0-7.736 3.472-7.736 7.74l0.106 1.2c0.03 0.338-0.122 0.699-0.403 0.89s-0.639 0.247-0.942 0.093c-1.112-0.563-2.294-0.849-3.514-0.849-4.267 0-7.739 3.472-7.739 7.739 0 1.112 0.233 2.189 0.692 3.201 0.15 0.33 0.095 0.716-0.139 0.992-0.235 0.275-0.608 0.391-0.958 0.296-0.673-0.184-1.355-0.277-2.025-0.277-4.266 0-7.736 3.471-7.736 7.736 0 1.533 0.449 3.014 1.296 4.284 0.183 0.274 0.208 0.624 0.067 0.921-0.142 0.297-0.429 0.499-0.756 0.529-3.99 0.38-7 3.688-7 7.697 0 2.39 1.084 4.609 2.974 6.09 0.286 0.224 0.416 0.594 0.333 0.948-0.082 0.354-0.362 0.628-0.717 0.703-3.554 0.749-6.133 3.931-6.133 7.567 0 1.368 0.36 2.712 1.041 3.885 0.252 0.435 0.116 0.99-0.309 1.259-1.694 1.073-2.822 2.763-3.175 4.757-0.406 2.292 0.236 4.679 1.809 6.724 0.305 0.397 0.243 0.964-0.14 1.286-1.259 1.056-1.883 2.451-1.854 4.146 0.052 3.001 2.137 6.18 4.169 7.769 2.266 1.771 6.771 4.267 11.471 1.087 0.334-0.226 0.775-0.212 1.095 0.034 3.793 2.924 8.785 3.828 13.354 2.42 0.355-0.109 0.74 2e-3 0.98301 0.283s0.29601 0.678 0.136 1.014c-0.50801 1.068-0.50901 2.297 1e-3 3.376 0.46601 0.999 1.261 1.744 2.239 2.099 0.925 0.336 1.939 0.284 2.858-0.145 30.792-14.517 63.819-21.878 98.165-21.878 34.351 0 67.391 7.361 98.209 21.875 1.933 0.779 4.164-0.043 5.062-1.954 0.505-1.073 0.501-2.303-8e-3 -3.375-0.16-0.335-0.105-0.732 0.137-1.013 0.243-0.281 0.628-0.392 0.982-0.283 4.569 1.407 9.564 0.502 13.361-2.42 0.319-0.246 0.76-0.259 1.095-0.034 4.693 3.178 9.2 0.683 11.468-1.087 2.031-1.588 4.115-4.766 4.167-7.766 0.037-1.692-0.587-3.088-1.847-4.144zm-2.983-17.911c0 3.048-2.476 5.528-5.52 5.528-3.051 0-5.531-2.48-5.531-5.528 0-3.044 2.48-5.521 5.531-5.521 3.044 0 5.52 2.477 5.52 5.521zm-9.068-20.83c3.047 0 5.526 2.477 5.526 5.521 0 3.05-2.479 5.532-5.526 5.532-3.046 0-5.523-2.481-5.523-5.532-1e-3 -3.045 2.477-5.521 5.523-5.521zm-6.395-13.438c3.048 0 5.527 2.48 5.527 5.529 0 3.047-2.479 5.525-5.527 5.525-3.049 0-5.528-2.479-5.528-5.525 0-3.049 2.479-5.529 5.528-5.529zm0.46 49.945-1e-3 2e-3zm-10.62-61.89c3.045 0 5.521 2.479 5.521 5.525 0 3.048-2.477 5.528-5.521 5.528-3.049 0-5.529-2.48-5.529-5.528 0-3.047 2.48-5.525 5.529-5.525zm-12.499-9.075c3.05 0 5.531 2.479 5.531 5.528 0 3.047-2.481 5.526-5.531 5.526-3.044 0-5.521-2.479-5.521-5.526 0-3.049 2.477-5.528 5.521-5.528zm-13.43-5.253c3.046 0 5.523 2.477 5.523 5.521 0 3.05-2.478 5.531-5.523 5.531-3.05 0-5.53-2.481-5.53-5.531 0-3.044 2.48-5.521 5.53-5.521zm-6.981 14.625c3.046 0 5.524 2.48 5.524 5.529 0 3.047-2.479 5.525-5.524 5.525-3.048 0-5.526-2.479-5.526-5.525-1e-3 -3.049 2.478-5.529 5.526-5.529zm-9.907 31.44c2.054-1.216 4.461-1.559 6.776-0.964 2.313 0.594 4.255 2.054 5.47 4.109 1.216 2.054 1.555 4.459 0.96 6.772-0.596 2.316-2.056 4.26-4.11 5.474-2.054 1.212-4.459 1.552-6.771 0.956-2.313-0.595-4.255-2.055-5.469-4.11-0.822-1.393-1.243-2.947-1.243-4.524 0-0.748 0.095-1.5 0.285-2.243v-1e-3 1e-3c0.591-2.312 2.048-4.254 4.102-5.47zm13.461-5.068c-3.05 0-5.529-2.479-5.529-5.526 0-3.046 2.479-5.525 5.529-5.525 3.048 0 5.527 2.479 5.527 5.525 1e-3 3.048-2.479 5.526-5.527 5.526zm-10.28-39.852c1.475 0 2.86 0.574 3.905 1.618 1.044 1.044 1.618 2.433 1.618 3.911 0 3.044-2.478 5.521-5.523 5.521-3.048 0-5.527-2.477-5.527-5.521 0-3.049 2.479-5.529 5.527-5.529zm-10.039-11.567c3.049 0 5.528 2.48 5.528 5.527 0 3.048-2.479 5.527-5.528 5.527-3.046 0-5.523-2.479-5.523-5.527 0-3.047 2.477-5.527 5.523-5.527zm-13.137-8.739c3.048 0 5.529 2.479 5.529 5.527 0 3.045-2.481 5.523-5.529 5.523-3.046 0-5.523-2.478-5.523-5.523 0-3.047 2.477-5.527 5.523-5.527zm-13.637-5.062c3.049 0 5.529 2.479 5.529 5.525s-2.48 5.523-5.529 5.523c-3.044 0-5.519-2.478-5.519-5.523 0-3.046 2.475-5.525 5.519-5.525zm-17.888-0.828c1.041-1.043 2.426-1.617 3.9-1.617 3.051 0 5.531 2.479 5.531 5.525 0 3.047-2.48 5.526-5.531 5.526-3.042 0-5.518-2.479-5.518-5.526 1e-3 -1.476 0.575-2.864 1.618-3.908zm-9.675 11.693c3.049 0 5.527 2.48 5.527 5.528 0 3.046-2.479 5.525-5.527 5.525s-5.527-2.479-5.527-5.525c0-3.048 2.479-5.528 5.527-5.528zm-5.527 36.602c0-3.046 2.479-5.525 5.527-5.525 3.049 0 5.527 2.479 5.527 5.525s-2.479 5.524-5.527 5.524c-3.048 1e-3 -5.527-2.477-5.527-5.524zm14.464 22.198c0 4.928-4.008 8.938-8.937 8.938-4.927 0-8.935-4.009-8.935-8.938 0-4.928 4.008-8.937 8.935-8.937 4.929 0 8.937 4.009 8.937 8.937zm-8.937-32.207c-3.048 0-5.527-2.48-5.527-5.53 0-3.048 2.479-5.527 5.527-5.527 3.049 0 5.527 2.479 5.527 5.527 1e-3 3.05-2.478 5.53-5.527 5.53zm-13.576-39.903c3.047 0 5.526 2.479 5.526 5.525 0 3.047-2.479 5.526-5.526 5.526-3.05 0-5.532-2.479-5.532-5.526 0-3.046 2.482-5.525 5.532-5.525zm-17.891 4.063c1.043-1.043 2.43-1.617 3.904-1.617 3.047 0 5.525 2.479 5.525 5.525s-2.479 5.523-5.525 5.523-5.523-2.478-5.523-5.523c0-1.477 0.575-2.865 1.619-3.908zm-9.734 3.444c3.046 0 5.525 2.479 5.525 5.527 0 3.045-2.479 5.523-5.525 5.523-3.048 0-5.527-2.478-5.527-5.523 0-3.047 2.479-5.527 5.527-5.527zm-13.135 8.739c1.474 0 2.861 0.575 3.904 1.619 1.042 1.045 1.617 2.433 1.617 3.908 0 3.048-2.477 5.527-5.521 5.527-3.049 0-5.529-2.479-5.529-5.527-1e-3 -3.047 2.48-5.527 5.529-5.527zm-10.041 11.567c3.048 0 5.528 2.48 5.528 5.528 0 3.044-2.479 5.521-5.528 5.521-3.044 0-5.521-2.477-5.521-5.521 0-3.048 2.476-5.528 5.521-5.528zm-3.59 43.956c4.771-1.228 9.654 1.658 10.883 6.433 1.228 4.768-1.656 9.648-6.428 10.879-2.314 0.596-4.721 0.256-6.777-0.958s-3.517-3.158-4.112-5.473c-1.225-4.774 1.662-9.656 6.434-10.881zm-12.211-9.63c0-3.046 2.477-5.525 5.521-5.525 3.047 0 5.527 2.479 5.527 5.525 0 3.047-2.48 5.526-5.527 5.526-3.044 0-5.521-2.478-5.521-5.526zm9.077-20.846c3.046 0 5.525 2.48 5.525 5.529 0 3.047-2.479 5.525-5.525 5.525-3.047 0-5.526-2.479-5.526-5.525 0-1.476 0.576-2.864 1.621-3.909s2.431-1.62 3.905-1.62zm-6.974-14.625c1.475 0 2.861 0.574 3.904 1.617s1.618 2.429 1.618 3.904c0 3.05-2.477 5.531-5.521 5.531-3.049 0-5.53-2.481-5.53-5.531-1e-3 -3.044 2.479-5.521 5.529-5.521zm-13.439 5.253c3.044 0 5.521 2.479 5.521 5.528 0 3.047-2.477 5.526-5.521 5.526-3.049 0-5.53-2.479-5.53-5.526 0-3.049 2.481-5.528 5.53-5.528zm-12.489 9.075c3.044 0 5.521 2.479 5.521 5.525 0 3.048-2.477 5.528-5.521 5.528-3.05 0-5.531-2.48-5.531-5.528 0-3.047 2.48-5.525 5.531-5.525zm-10.169 11.945c3.049 0 5.53 2.48 5.53 5.529 0 3.047-2.48 5.525-5.53 5.525-3.044 0-5.521-2.479-5.521-5.525 0-3.049 2.476-5.529 5.521-5.529zm-0.454 49.947zm-11.465-30.988c0-3.045 2.48-5.521 5.53-5.521 3.047 0 5.527 2.477 5.527 5.521 0 3.05-2.48 5.532-5.527 5.532-3.05 0-5.53-2.481-5.53-5.532zm1.982 9.788c3.047 0 5.525 2.477 5.525 5.521 0 3.048-2.478 5.528-5.525 5.528s-5.527-2.48-5.527-5.528c0-3.044 2.48-5.521 5.527-5.521zm5.964 33.336c-4.314 2.374-9.763 0.796-12.146-3.519-2.372-4.317-0.793-9.763 3.521-12.141 2.095-1.152 4.513-1.419 6.808-0.752 2.292 0.666 4.187 2.185 5.335 4.276 0.75 1.362 1.105 2.836 1.105 4.292 1e-3 3.153-1.67 6.216-4.623 7.844zm38.882-4.095c-5.841 2.054-11.676 4.369-17.343 6.88-0.406 0.18-0.883 0.05-1.14-0.313-0.258-0.361-0.226-0.854 0.077-1.18 2.079-2.232 3.521-5.07 4.062-7.993 0.071-0.383 0.415-0.688 0.798-0.756 0 0 1.019-0.183 1.021-0.183 0.981-0.251 1.898-0.691 2.724-1.308 0.329-0.246 0.781-0.248 1.112-5e-3 2.401 1.76 5.398 2.84 8.441 3.042 0.443 0.03 0.804 0.366 0.864 0.807 0.061 0.441-0.197 0.862-0.616 1.009zm3.414-7.402c-3.719 0.955-7.611-0.413-9.919-3.482-0.095-0.126-0.165-0.371-0.187-0.526l-0.229-1.607c-1.073-4.16-5.325-6.672-9.478-5.601-2.016 0.518-3.708 1.789-4.767 3.581-1.057 1.791-1.354 3.881-0.834 5.893 0.309 1.207 0.888 2.292 1.724 3.225 0.133 0.148 0.215 0.336 0.234 0.534 0.362 3.768-1.542 7.379-4.854 9.204-2.393 1.317-5.244 1.531-7.821 0.586-0.35-0.128-0.591-0.453-0.612-0.826-0.021-0.372 0.182-0.722 0.516-0.889 4.923-2.46 6.221-5.917 4.212-11.208-1.288-3.382-3.026-5.427-5.168-6.075-0.42-0.127-0.695-0.53-0.661-0.968 2.058-26.301 10.205-38.528 33.53-50.322 0.3-0.152 0.676-0.158 0.956 0.028 0.28 0.187 0.456 0.481 0.433 0.817l-0.065 0.93c0 2.391 1.088 4.611 2.985 6.091 0.287 0.224 0.418 0.595 0.335 0.949-0.083 0.355-0.363 0.629-0.72 0.704-3.566 0.742-6.155 3.927-6.155 7.574 0 3.398 2.276 6.446 5.534 7.413 0.266 0.079 0.483 0.271 0.593 0.526s0.101 0.545-0.024 0.792c-0.631 1.248-0.894 2.757-0.78 4.485 0.025 0.381-0.185 0.739-0.53 0.904-4.123 1.973-5.387 5.09-4.098 10.105 1.547 6.029 5.166 7.988 11.742 6.347 0.266-0.066 0.545-0.014 0.768 0.144 0.223 0.159 0.365 0.405 0.39 0.677 0.425 4.632-2.54 8.835-7.05 9.995zm24.792-0.6c-5.649 1.23-11.26 2.668-16.678 4.272-0.423 0.125-0.876-0.063-1.087-0.451-0.21-0.387-0.122-0.87 0.214-1.157 3.717-3.181 5.617-7.973 5.084-12.818-0.051-0.462 0.246-0.892 0.697-1.008s0.918 0.118 1.096 0.547c1.875 4.513 5.862 7.796 10.664 8.785 0.433 0.089 0.744 0.469 0.747 0.911 1e-3 0.442-0.306 0.826-0.737 0.919zm30.467-4.598c-6.194 0.528-12.465 1.313-18.64 2.332-0.438 0.073-0.867-0.173-1.026-0.587-0.159-0.415-4e-3 -0.884 0.37-1.123 3.031-1.936 5.343-4.812 6.511-8.096 0.137-0.386 0.486-0.639 0.896-0.622l0.431 0.017c0.771 0 1.534-0.112 2.27-0.333 0.392-0.117 0.815 0.033 1.044 0.373 1.954 2.895 4.921 5.104 8.354 6.219 0.423 0.138 0.691 0.554 0.64 0.996-0.052 0.441-0.407 0.786-0.85 0.824zm-4.003-13.098c-0.053-0.175-0.053-0.363 0-0.538 0.218-0.726 0.329-1.474 0.329-2.224 0-2.08-0.81-4.035-2.279-5.505s-3.425-2.28-5.505-2.28c-4.293 0-7.787 3.492-7.787 7.785 0 1.348 0.365 2.692 1.053 3.886 0.085 0.148 0.128 0.317 0.125 0.487-0.092 4.217-3.009 7.895-7.093 8.943-4.505 1.161-9.131-1.088-10.999-5.347-0.11-0.25-0.104-0.536 0.014-0.782 0.119-0.246 0.338-0.428 0.603-0.498 6.552-1.743 8.786-5.201 7.238-11.227-1.293-5.013-3.905-7.134-8.471-6.877-0.382 0.021-0.739-0.192-0.901-0.54-1-2.15-2.359-3.536-4.156-4.236-0.392-0.152-0.633-0.548-0.591-0.966 2.642-25.82 22.571-50.695 55.55-48.28 0.51 0.038 0.892 0.523 0.861 1.034l-0.047 0.771c0 1.339 0.4 2.635 1.157 3.748 0.105 0.155 0.162 0.338 0.162 0.526v6.989c0 0.188-0.057 0.371-0.162 0.526-0.757 1.113-1.157 2.408-1.157 3.746 0 1.341 0.4 2.638 1.157 3.752 0.105 0.155 0.162 0.338 0.162 0.526v6.989c0 0.188-0.057 0.372-0.163 0.527-0.756 1.108-1.156 2.403-1.156 3.745 0 2.628 1.555 5.014 3.961 6.077 0.378 0.167 0.602 0.563 0.55 0.973s-0.367 0.737-0.774 0.805c-3.915 0.649-6.074 2.751-6.796 6.612-0.071 0.375-0.363 0.671-0.739 0.745-4.489 0.884-6.492 3.587-6.492 8.767 0 6.221 3.024 9.019 9.804 9.071 0.273 1e-3 0.532 0.124 0.708 0.332s0.252 0.484 0.208 0.753c-0.751 4.59-4.671 7.921-9.32 7.921-4.139 1e-3 -7.863-2.769-9.054-6.736zm34.264 11.665c-0.101 0.428-0.496 0.727-0.937 0.719l-8.734-0.163-8.735 0.163c-0.44 8e-3 -0.834-0.291-0.936-0.719-0.102-0.429 0.101-0.869 0.498-1.059 4.47-2.138 7.553-6.33 8.248-11.213 0.066-0.46 0.46-0.803 0.926-0.803s0.859 0.342 0.926 0.803c0.694 4.881 3.777 9.072 8.248 11.213 0.396 0.189 0.597 0.63 0.496 1.059zm30.589 3.177c-0.158 0.415-0.586 0.661-1.025 0.588-6.17-1.019-12.443-1.803-18.645-2.332-0.443-0.038-0.8-0.383-0.85-0.825-0.052-0.442 0.217-0.859 0.639-0.996 3.429-1.114 6.398-3.324 8.364-6.221 0.233-0.339 0.655-0.489 1.047-0.37 0.725 0.22 1.484 0.332 2.258 0.332l0.43-0.017c0.408-0.017 0.758 0.235 0.896 0.621 1.173 3.29 3.487 6.166 6.517 8.097 0.373 0.238 0.528 0.708 0.369 1.123zm5.489-4.287c-4.08-1.048-6.997-4.725-7.092-8.942-3e-3 -0.172 0.041-0.343 0.128-0.492 0.683-1.173 1.045-2.516 1.045-3.883 0-4.292-3.492-7.785-7.782-7.785-4.292 0-7.784 3.492-7.784 7.785 0 0.756 0.111 1.501 0.333 2.216 0.056 0.179 0.056 0.369 1e-3 0.548-1.218 4.029-4.859 6.735-9.063 6.735-4.649 0-8.564-3.332-9.312-7.922-0.044-0.27 0.032-0.545 0.208-0.753 0.177-0.209 0.435-0.33 0.707-0.332 6.776-0.052 9.796-2.85 9.796-9.071 0-5.179-2.001-7.883-6.489-8.767-0.377-0.074-0.669-0.37-0.74-0.745-0.722-3.861-2.88-5.962-6.794-6.612-0.407-0.068-0.722-0.395-0.774-0.805s0.171-0.805 0.55-0.973c2.406-1.064 3.961-3.45 3.961-6.077 0-1.349-0.398-2.643-1.153-3.743-0.107-0.156-0.164-0.34-0.164-0.529v-6.989c0-0.188 0.057-0.373 0.164-0.528 0.755-1.106 1.153-2.403 1.153-3.75 0-1.345-0.398-2.64-1.153-3.745-0.107-0.155-0.164-0.339-0.164-0.527v-6.989c0-0.188 0.057-0.373 0.164-0.528 0.755-1.104 1.153-2.4 1.153-3.746l-0.045-0.75c-0.031-0.511 0.349-1.018 0.859-1.055 32.979-2.415 52.908 22.461 55.549 48.28 0.043 0.418-0.199 0.814-0.591 0.966-1.785 0.696-3.145 2.083-4.152 4.238-0.163 0.347-0.519 0.559-0.9 0.538-4.564-0.257-7.178 1.864-8.469 6.876-1.55 6.027 0.683 9.49 7.237 11.228 0.264 0.07 0.484 0.252 0.603 0.499 0.119 0.246 0.124 0.532 0.014 0.782-1.873 4.259-6.5 6.507-11.004 5.347zm23.072 10.964c-0.214 0.389-0.664 0.575-1.087 0.45-5.413-1.604-11.023-3.042-16.675-4.272-0.431-0.094-0.739-0.477-0.736-0.918 3e-3 -0.442 0.313-0.822 0.747-0.911 4.807-0.989 8.791-4.273 10.661-8.784 0.178-0.43 0.645-0.664 1.096-0.548 0.45 0.115 0.747 0.544 0.697 1.007-0.528 4.843 1.372 9.636 5.086 12.819 0.334 0.287 0.421 0.77 0.211 1.157zm28.923 10.746c-0.258 0.361-0.733 0.491-1.14 0.312-5.687-2.518-11.521-4.833-17.343-6.878-0.419-0.147-0.677-0.568-0.617-1.008 0.061-0.44 0.422-0.777 0.865-0.807 3.081-0.204 6.003-1.256 8.448-3.043 0.332-0.243 0.786-0.24 1.114 8e-3 0.817 0.615 1.729 1.054 2.719 1.306l1.019 0.183c0.382 0.068 0.724 0.373 0.795 0.755 0.55 2.926 1.992 5.765 4.063 7.994 0.304 0.324 0.335 0.817 0.077 1.178zm15.286-21.16c-2.129 0.646-3.867 2.69-5.166 6.075-2.008 5.291-0.707 8.748 4.219 11.208 0.334 0.167 0.537 0.516 0.516 0.889s-0.261 0.697-0.611 0.826c-2.584 0.946-5.436 0.731-7.824-0.586-3.316-1.827-5.222-5.44-4.854-9.205 0.019-0.198 0.101-0.384 0.233-0.532 0.83-0.93 1.411-2.016 1.724-3.229 0.521-2.007 0.226-4.097-0.829-5.885-1.059-1.794-2.754-3.068-4.775-3.586-4.149-1.07-8.401 1.443-9.476 5.588l-0.229 1.622c-0.022 0.157-0.093 0.398-0.188 0.524-2.313 3.069-6.205 4.436-9.923 3.481-4.501-1.16-7.467-5.361-7.051-9.991 0.023-0.272 0.166-0.52 0.388-0.679 0.222-0.158 0.504-0.211 0.769-0.145 6.581 1.641 10.206-0.316 11.753-6.347 1.289-5.012 0.023-8.128-4.103-10.105-0.346-0.165-0.555-0.522-0.529-0.904 0.115-1.765-0.141-3.23-0.78-4.482-0.126-0.248-0.136-0.538-0.026-0.794 0.109-0.255 0.327-0.449 0.594-0.528 3.26-0.967 5.536-4.016 5.536-7.413 0-3.646-2.589-6.831-6.155-7.574-0.357-0.074-0.639-0.349-0.723-0.704-0.08-0.354 0.051-0.725 0.338-0.949 1.896-1.477 2.982-3.697 2.982-6.091l-0.063-0.918c-0.022-0.335 0.154-0.637 0.435-0.822 0.28-0.186 0.657-0.186 0.956-0.035 23.321 11.793 31.467 24.021 33.522 50.322 0.035 0.439-0.239 0.842-0.66 0.969zm17.261 15.17c-2.377 4.316-7.824 5.894-12.145 3.518-2.095-1.155-3.613-3.057-4.276-5.353-0.236-0.82-0.354-1.656-0.354-2.487 0-1.487 0.376-2.959 1.115-4.297 1.146-2.092 3.043-3.61 5.336-4.276 2.296-0.667 4.71-0.399 6.801 0.752 2.092 1.148 3.609 3.042 4.275 5.333 0.668 2.294 0.402 4.713-0.752 6.81z" fill="#febe10"/>
  <path id="path111" d="m299.1 141.74c0.249 1.021 1.195 4.903 1.371 5.622-0.648 0.361-4.393 2.446-5.444 3.032-0.302-1.18-1.456-5.693-1.674-6.542 0.814-0.299 4.757-1.748 5.747-2.112z" fill="#ee324e"/>
  <path id="path113" d="m1.3653 344.39c0 111.61 90.845 202.4 202.51 202.4 111.66 0 202.51-90.798 202.51-202.4 0-111.72-90.846-202.61-202.51-202.61-111.66 0-202.51 90.892-202.51 202.61z" fill="#00529f"/>
  <path id="path115" d="m7.1083 344.39c0 54.222 22.062 103.37 57.697 138.99 35.64 35.617 84.815 57.669 139.07 57.669 54.251 0 103.43-22.052 139.07-57.669 35.636-35.619 57.697-84.771 57.697-138.99 0-54.282-22.062-103.49-57.697-139.14-35.641-35.654-84.819-57.728-139.07-57.728-54.252 0-103.43 22.074-139.07 57.728-35.635 35.659-57.699 84.863-57.699 139.14z" fill="#febe10"/>
  <path id="path117" d="m24.351 344.28c4e-3 -98.996 80.528-179.52 179.53-179.52 98.997 5e-3 179.52 80.527 179.52 179.52-4e-3 98.999-80.526 179.52-179.52 179.53-98.997-5e-3 -179.52-80.528-179.53-179.53z" fill="#00529f"/>
  <path id="path119" d="m30.095 344.28c0-95.822 77.958-173.78 173.78-173.78s173.78 77.957 173.78 173.78c0 95.824-77.958 173.78-173.78 173.78s-173.78-77.959-173.78-173.78z" fill="#fff"/>
  <path id="path121" d="m370.45 343.65c0-60.625-33.114-116.65-86.421-146.22l-1.113-0.618s-37.832 39.312-38.785 40.302h-0.198s-0.586 0.586-0.622 0.623c-12.407-4.604-25.651-7.077-39.413-7.272h-2e-3c-14.049 0-28.583 2.603-41.152 7.268-1.386-1.447-38.778-40.498-38.778-40.498l-1.118 0.626c-0.401 0.225-0.791 0.465-1.19 0.692l-0.066-0.069c-30.309 17.201-54.727 43.616-69.426 75.413 0.028 0.029 0.057 0.058 0.085 0.086-9.974 21.533-15.392 45.238-15.392 69.667 0 39.853 14.311 77.017 41.385 107.48l1.18 1.327 22.152-22.633-1.22-1.157c-11.993-11.381-34.073-43.062-34.073-83.156 0-1.097 0.016-2.2 0.05-3.312 0.564-16.099 3.413-31.175 8.508-45.178 6.194 6.314 12.375 12.617 18.536 18.896-1.946 7.679-3.014 15.535-3.113 23.424-6e-3 0.468-9e-3 0.937-9e-3 1.404 0 50.723 35.099 96.193 84.083 109.01v28.525h30.763v-24.942c6.914-0.151 13.831-0.988 20.631-2.445 14.784 15.098 29.643 30.278 44.636 45.611 31.561-13.828 58.056-37.144 75.838-66.331l-0.026-0.027c15.773-25.876 24.27-55.78 24.27-86.497zm-196.11 71.82c-31.515-11.421-51.743-38.621-52.435-70.477 17.518 17.856 34.967 35.645 52.435 53.46v17.017zm29.297-135.55c-1.884-1.924-13.432-13.715-16.608-16.959 5.684-1.093 11.435-1.692 15.268-1.517 6.074 0.188 11.595 0.896 16.838 2.09-2.939 3.108-13.657 14.441-15.498 16.386zm118.63 125.56-98.438-101.54c11.845-12.512 24.7-26.092 25.714-27.162 10.336 7.291 18.725 16.836 24.276 27.725l0.96 1.882 24.738-21.369-0.711-1.193c-6.73-11.291-16.1-21.653-27.076-30.167 2.058-2.107 14.699-15.045 16.385-16.771 25.5 18.32 50.94 59.907 50.94 105.26 1e-3 26.564-6.146 45.791-16.788 63.332z" fill="#00529f"/>
  <path id="path123" d="m283.95 204.03c-6.822 7.091-36.65 38.085-36.65 38.085l-0.719 0.746h-0.26c-0.228 0.227-0.419 0.418-0.419 0.418l-1.116 1.116-1.473-0.562-1.003-0.383c-12.064-4.611-25.006-7.049-38.428-7.241-13.499-5e-3 -28.22 2.656-40.143 7.238l-2.538 0.973-1.118-1.167s-30.25-31.59-37.136-38.782c-49.627 29.026-80.339 82.058-80.336 139.18 7e-3 37.006 12.799 71.536 37.083 100.32 3.517-3.592 10.477-10.702 13.815-14.114-13.053-13.99-32.917-45.195-32.963-84.371 0-1.152 0.018-2.312 0.054-3.485 1.535-44.657 20.111-82.024 54.906-110.48l2.911-2.385 24.701 25.547-3.689 2.783c-26.831 20.23-43.036 50.925-43.413 81.936-5e-3 0.443-8e-3 0.89-8e-3 1.332-0.018 48.522 33.903 92.112 80.98 103.81l3.103 0.77v27.216h19.276v-24.86l4.062-0.022c29.95-0.17 60.276-14.049 79.819-36.258-3.511-3.549-11.359-11.481-15.094-15.256-18.851 20.302-44.958 30.726-62.757 30.782-0.736 0-1.453-0.018-2.155-0.051l-3.876-0.202v-29.415h2.431c0.028 0 23.244 0 31.234 2e-3v-16.71c-7.996 0-31.234 0-31.234 3e-3h-2.431v-23.834h2.431s23.604 0 31.666 3e-3v-14.348h-53.373v81.155l-5.379-1.792c-35.629-11.85-58.597-42.586-58.577-78.425 0-0.557 5e-3 -1.118 0.018-1.68 0.618-28.792 14.41-54.742 37.779-71.039l2.852-1.991 1.44 1.485s36.657 37.819 45.407 46.845c8.514-8.993 43.716-46.177 43.716-46.177l1.422-1.502 2.877 1.955c10.19 6.924 18.653 15.911 24.769 26.185 4.129-3.565 12.08-10.434 15.616-13.489-6.482-10.035-15.109-19.292-25.186-26.844l-3.728-2.796 24.321-24.895 2.841 1.963c27.314 18.967 54.46 62.72 54.528 110.82 0.043 38.286-13.03 63.132-32.474 87.015 3.644 3.646 12.111 12.119 16.084 16.094 23.424-28.57 36.299-64.467 36.297-101.6 1e-3 -57.495-30.873-110.69-80.763-139.62zm-78.5 82.338-1.736 1.832-28.041-28.632 7.138-1.616c6.373-1.438 12.986-2.28 18.008-2.283 0.592 0 1.169 0.011 1.688 0.036 7.531 0.232 14.379 1.188 20.876 2.929l6.624 1.774z" fill="#febe10"/>
 </g>
 <g id="g963" fill="#a5a3a4" stroke-width="1.6111">
  <path id="path6" d="m294.49 110.36 11.681-3e-4v55.576h-11.681v-24.964h-21.347v24.964h-11.681v-55.575h11.681v20.944h21.347z"/>
  <path id="path8" d="m338.65 110.36c1.9468 0.0147 3.8935 0.0236 5.8403 0.0809 6.9761 0.24166 13.888 4.1406 16.965 10.537 4.7206 9.5056 4.4145 20.993 0.85389 30.821-2.6422 7.5078-9.5861 13.614-17.722 14.001-2.092 0.0921-4.1839 0.13693-6.2761 0.13693h-20.066v-55.576zm-9.127 9.5632c-0.0161 12.067 0 24.387 0 36.454h8.2497c2.525 0 5.0323-0.15831 7.4586-0.89006 6.3639-2.8839 7.8139-10.698 8.1039-16.965-0.0322-6.0417-0.49945-13.678-6.2511-17.174-2.8258-1.2063-5.838-1.4249-8.889-1.4249z"/>
 </g>
</svg>
