<svg id="a" version="1.1" viewBox="0 0 559.44 174.37" xml:space="preserve" xmlns="http://www.w3.org/2000/svg"><g id="b" transform="matrix(1.3333 0 0 -1.3333 156.89 656.69)"><g id="c" transform="matrix(23.661 0 0 23.661 202.18 437.34)"><path id="d" d="m0 0-0.607 0.655h-1.883v-0.232l0.082-0.079 0.224-0.08 0.072-0.105v-1.259l-0.072-0.104-0.224-0.08-0.082-0.081v-0.23h1.177v0.23l-0.084 0.081-0.221 0.08-0.074 0.104v0.998l0.037 0.041 0.023-9e-3 1.087-1.264 1.098 1.294 0.032 0.016 0.034-0.043 3e-3 -1.032-0.073-0.105-0.222-0.08-0.084-0.081v-0.23h2.25v0.23l-0.085 0.081-0.221 0.08-0.072 0.105v1.258l0.072 0.105 0.221 0.08 0.085 0.079v0.232h-1.89l-0.56-0.654-0.021-9e-3 -0.022 8e-3m-7.959 0.655h-3.624s-0.136-0.582-0.214-0.855l0.21-0.086 0.1 0.051c0.178 0.364 0.565 0.63 0.946 0.503l-1e-3 -1.368-0.073-0.104-0.222-0.08-0.084-0.081v-0.23h2.298v0.23l-0.084 0.081-0.221 0.08-0.073 0.104v1.368c0.381 0.127 0.768-0.139 0.946-0.503l0.101-0.051 0.208 0.086c-0.078 0.273-0.213 0.855-0.213 0.855m1.278-0.294c-0.272-0.192-0.496-0.454-0.496-0.801 0-0.358 0.186-0.583 0.462-0.779 0.913-0.621 2.324-0.473 3.324-0.131l-0.112 0.413-0.076 0.038c-0.502-0.29-1.133-0.435-1.708-0.298-0.105 0.037-0.153 0.146-0.169 0.244-0.034 0.151-0.034 0.953 0.019 1.067 0.104 0.241 0.387 0.213 0.615 0.239 0.514-9e-3 0.986-0.249 1.134-0.616l0.066-0.019c0.211 0.065 0.224 0.072 0.224 0.072l-0.162 0.978-0.224 0.016s-0.042-0.171-0.174-0.147c-0.924 0.162-1.935 0.228-2.723-0.276m-6.837 1.971h17.733v-5.527h-17.733zm14.808-2.175 0.162 0.063 0.045-0.034v-1.11l-0.045-0.071-0.162-0.065-0.047 0.034v1.113l0.047 0.07m-2.502 0.036-0.015 0.034 0.045 0.047 0.192 1e-3 0.041-0.017 0.574-0.606v-0.088l-0.08-0.092-0.079-1e-3zm-8.422-1.173-0.048-0.071-0.16-0.065-0.047 0.033v1.115l0.047 0.068 0.16 0.064 0.048-0.031zm3.651-0.067c-0.083 7e-3 -0.454 0.252-0.454 0.643 0 0.378 0.373 0.601 0.454 0.607l0.044-0.08c-0.178-0.175-0.188-0.359-0.186-0.545 0-0.157 8e-3 -0.37 0.186-0.542l-0.044-0.083"/></g></g></svg>
