<svg id="b" width="887.62pt" height="106.19pt" version="1.1" viewBox="0 0 887.62 106.19" xmlns="http://www.w3.org/2000/svg" xmlns:xlink="http://www.w3.org/1999/xlink">
 <defs id="c">
  <clipPath id="d">
   <use id="e" width="100%" height="100%" xlink:href="#SVGID_270_"/>
  </clipPath>
  <clipPath id="f">
   <use id="g" width="100%" height="100%" xlink:href="#SVGID_270_"/>
  </clipPath>
 </defs>
 <g id="h" transform="translate(2e-7 214.77)">
  <g id="i">
   <path id="j" d="m655.07-190.8v59.024h-30.717l6.9263-6.9263v-45.172l-6.9265-6.9263z" stroke-width="1.5057"/>
   <path id="k" d="m660.88-131.78h10.167v-58.895h-10.318z" fill="#000906" stroke-width="1.5063"/>
   <path id="l" d="m706.89-190.82v24.703h-20.786l-9.3389 9.6402h30.125l9e-4 24.703h23.648v-59.047zm29.523 0v58.896h17.021l-6.9284-6.9284h0.1503v-45.038l6.9293-6.9293z" stroke-width="1.5063"/>
  </g>
  <g id="m">
   <path id="a" d="m804.99-190.8v59.024h-30.717l6.9263-6.9263v-45.172l-6.9265-6.9263z" stroke-width="1.5057"/>
   <g id="n" transform="matrix(.16336 0 0 .16336 770.4 -218.62)">
    <path id="o" transform="matrix(2.7546 0 0 2.7546 -188.33 1533.4)" d="m203.05-494.86-44.748 0.19922v130.96h50.922c56 0 119.73-11.536 119.65-67.681-0.97768-25.813-14.412-40.904-40.246-49.623 17.186 15.199 24.381 27.71 22.402 49.623-5.5202 45.831-93.55 50.063-130.31 50.213v-94.029h14.998c31.208 0 43.719 13.743 43.719 35.441 0 19.331-5.9886 34.122-20.078 44.455 21.592 0.58042 47.985-5.5891 63.174-15.351 10.031-7.4756 14.853-14.705 14.768-29.504 0-19.938-14.147-35.469-31.725-42.59-20.096-8.6224-40.439-12.117-62.527-12.117z" stroke-width=".36302"/>
   </g>
   <use id="p" transform="translate(3e-5,2e-6)" width="100%" height="100%" xlink:href="#a"/>
  </g>
 </g>
 <use id="q" transform="translate(332.37 736.97)" width="100%" height="100%" xlink:href="##1a1a1aff"/>
 <g id="r" stroke-width="2.5105">
  <path id="s" d="m54.477 20.335h-54.477l15.565-16.067h38.912zm9.7908-16.067h39.414v98.41h-51.213l11.548-11.548v-86.862zm66.025 16.067v70.795l11.548 11.548h-28.368v-98.41h81.088l-15.565 16.067z"/>
  <path id="t" d="m396.15 30.126 16.82 17.322v55.23h-28.368l11.548-11.548zm43.18-25.858 54.728 56.234-26.611 29.623-82.343-85.858zm82.845 0h39.414v98.41h-39.414v-73.556l-21.59 24.1-47.197-48.954h23.096l23.598 24.351zm66.025 86.611 11.548 11.548h-28.368v-98.159h28.619l-11.548 11.548v75.063z"/>
  <path id="u" d="m241.26 45.188c0 22.343 17.322 46.192 52.971 46.192 34.895 0 52.72-17.573 56.736-20.837l9.0377 11.548c-5.7741 4.2678-26.36 24.1-72.552 24.1-35.649 0-90.126-12.552-90.126-53.222 0-32.636 42.176-50.962 72.803-52.469-12.301 3.7657-28.87 17.824-28.87 44.686zm61.506-30.126c-23.598 0-38.41 11.046-38.41 33.64 0 14.059 6.5272 26.611 13.305 32.385-13.054-2.2594-26.611-20.084-26.611-35.9 0-31.13 25.105-45.188 48.201-45.188 15.565 0 28.368 4.5188 44.184 12.05l11.297-10.042v37.908c-12.552-14.059-32.887-24.854-51.967-24.854z"/>
 </g>
</svg>
