<svg id="a" width="260.97pt" height="254.33pt" version="1.1" viewBox="0 0 260.97 254.33" xmlns="http://www.w3.org/2000/svg">
 <g id="b" transform="translate(-17.63,-24.06)" fill="#e2132d">
  <path id="c" d="m115.26 71.27c5.58-18.63 17.265-35.31 32.595-47.21 18.87 14.96 32.425 37.07 35.365 61.14 1.71 15.94-0.06 32.32-5.64 47.38-5.85 15.66-16.055 29.85-29.725 39.58-17.21-11.94-28.685-31.05-33.415-51.26-3.66-16.27-4.01-33.56 0.82-49.63z"/>
  <path id="d" d="m31.79 117.59c14.99-6.65 32.47-8.6 48.23-3.48 15.66 5.12 28.77 16.84 36.72 31.14 9.94 17.82 9.64 40.15 1.58 58.6z"/>
  <path id="e" d="m209.97 116.92c17.16-8.03 37.56-7.04 54.79 0.26l-86.25 86.64c-7.76-17.19-9-37.9-0.8-55.16 6.69-13.84 18.33-25.27 32.26-31.74z"/>
 </g>
 <g id="f" transform="translate(-17.63,-24.06)" fill="#3e3e3e">
  <path id="g" d="m215.46 209.26h5.87l-6.6052 5.7502h-3.0748z"/>
  <path id="h" d="m41.74 215.79 20.03 0.04 0.03 4.01-7.43-0.05-0.03 21.92-4.79 0.02-0.01-21.91-7.8002-0.04z"/>
  <path id="i" d="m65.7 215.84h18.14l0.01 4.26-13.44 0.02 0.01 6.59 11.73-0.01-0.01 3.96-11.72 0.01-0.01 6.93 13.47-0.02-0.01 4.15-18.2-0.03z"/>
  <path id="j" d="m88.79 215.86 4.7-0.04v21.78l13.59-0.01 0.01 4.09-18.33 0.04z"/>
  <path id="k" d="m111.87 215.84 18.31-0.01 0.01 4.28-13.57 0.01-0.01 6.56 11.47 0.03 0.01 3.97h-11.45l-0.03 6.91h13.61l-0.05 4.13-18.29-0.02z"/>
  <path id="l" d="m131.93 215.84 4.91-0.02 6.22 18.93 6.35-18.97 4.83 0.09-9.29 25.8-3.68 0.06z"/>
  <path id="m" d="m157.85 215.87 4.7-0.09 0.06 25.98-4.78-0.1z"/>
  <path id="n" d="m172.02 217.07c4.8-2.61 10.58-1.08 15.13 1.34l-2.53 3.58c-3.1-1.19-6.67-2.82-9.91-1.22-2.15 0.92-1.98 4.43 0.26 5.11 2.68 0.94 5.64 0.7 8.31 1.74 3.19 1.29 5.29 5.02 4.41 8.41-0.53 2.57-2.74 4.48-5.16 5.25-5.39 1.48-11.32 0.37-15.81-2.97l3.19-3.2c3.46 1.98 7.89 3.55 11.71 1.63 1.92-0.91 2.08-3.85 0.21-4.92-3.68-1.33-8.22-0.5-11.25-3.38-3.43-3.08-2.54-9.18 1.44-11.37z"/>
  <path id="o" d="m193.21 215.84h4.6l0.03 25.88-4.67-0.01z"/>
  <path id="p" d="m209.4 216.57c4.76-2.36 11.21-0.25 13.66 4.47 1.13 2.82 1.03 5.95 1.04 8.94-0.16 2.98-0.09 6.44-2.44 8.65-4.5 5.14-14.24 4.22-17.17-2.14-1.37-3.66-0.79-7.69-0.8-11.51-0.09-3.69 2.39-7 5.71-8.41m2.1 4.02c-1.79 0.79-2.99 2.59-3.04 4.55-0.19 3.11-0.42 6.34 0.41 9.38 1.63 4.28 8.88 4.03 10-0.48 0.53-3.24 0.46-6.6 0.13-9.86-0.49-3.37-4.6-5.01-7.5-3.59z"/>
  <path id="q" d="m229.75 215.85 4.28-0.02 12.3 17.61v-17.61l4.81 0.03 0.01 25.87-4.53-0.29-12.2-17.28 0.01 17.58-4.7-0.05z"/>
  <path id="r" d="m17.63 244.22 6.17 0.05 10.03 20.62 9.67-20.64 6.02-0.05v33.96l-6.37 0.03-0.02-18.99-6.91 14.27-5.16-0.06-6.72-14.26-0.1 19.01-6.61 0.02z"/>
  <path id="s" d="m58.86 244.28 6.56-0.08c0.06 7.56-0.14 15.13 0.09 22.69 0.21 5.04 7.02 6.99 10.8 4.39 2.3-1.15 2.79-3.91 2.79-6.25 0.05-6.92 0-13.85-0.01-20.77l6.39-0.08c-0.03 7.92 0.1 15.84-0.02 23.76-0.5 6.51-7.3 10.77-13.44 10.39-5.99 0.21-12.51-4.01-13.01-10.34-0.36-7.9-0.04-15.81-0.15-23.71z"/>
  <path id="t" d="m94.78 244.25c5.7 0.08 11.41-0.21 17.11 0.11 5.57 0.39 10.29 6.15 8.79 11.72-0.55 3.52-3.57 5.76-6.43 7.46l8.48 14.65-7.71-0.04-7.45-14.01-6.22-0.04-0.01 14.09-6.54-0.03-0.02-33.91m6.55 5.49 0.01 8.79c3.48-0.07 7.01 0.29 10.45-0.36 3.75-1.18 4.09-7.51-0.11-8.29-3.44-0.36-6.9-0.09-10.35-0.14z"/>
  <path id="u" d="m130.19 249.16c4.78-6.45 15.45-7.23 20.98-1.33 1.93 1.81 2.8 4.36 3.67 6.79l-6.71-0.04c-1.16-1.55-2.2-3.42-4.1-4.17-3.86-1.95-9.33 1.05-9.39 5.49-0.21 3.68-0.26 7.4 0.07 11.09 0.49 4.14 5.51 6.61 9.21 4.92 1.89-0.74 2.99-2.56 4.26-4.03l6.64 0.02c-1.69 10.19-15.6 13.77-22.82 7.09-4.02-3.03-4.16-8.41-4.13-12.99 0.13-4.31-0.42-9.16 2.32-12.84z"/>
  <path id="v" d="m160.73 244.23 6.57 0.01-0.02 33.93h-6.55z"/>
  <path id="w" d="m186.72 244.19 5.29 0.04 13.57 33.94-6.81 0.01-2.81-7.42-13.09-0.01-2.86 7.41-6.86 0.01 13.57-33.98m2.6 8.89-4.39 12.15 8.96 0.02z"/>
  <path id="x" d="m212.17 244.23 6.05 0.01 15.41 22.26 0.07-22.29 6.59 0.02v33.91l-5.75 0.09-15.88-22.66-0.04 22.62-6.4-0.03z"/>
  <path id="y" d="m259.76 244.19 5.3 0.05 13.54 33.92-6.81 0.01-2.8-7.42-13.09-0.01-2.85 7.42-6.86 0.02 13.57-33.99m2.57 8.91-4.38 12.15 8.96-0.01z"/>
 </g>
</svg>
