<?xml version="1.0" encoding="UTF-8"?>
<svg id="svg16" width="390.88" height="390.91" version="1.1" viewBox="0 0 103.42 103.43" xmlns="http://www.w3.org/2000/svg" xmlns:cc="http://creativecommons.org/ns#" xmlns:dc="http://purl.org/dc/elements/1.1/" xmlns:rdf="http://www.w3.org/1999/02/22-rdf-syntax-ns#">
 <metadata id="metadata22">
  <rdf:RDF>
   <cc:Work rdf:about="">
    <dc:format>image/svg+xml</dc:format>
    <dc:type rdf:resource="http://purl.org/dc/dcmitype/StillImage"/>
    <dc:title/>
   </cc:Work>
  </rdf:RDF>
 </metadata>
 <g id="g14" transform="translate(0 .00033557)" fill="#00a4e0">
  <path id="path2" d="m51.71 95.665c-24.277 0-43.955-19.678-43.955-43.955 0-24.271 19.678-43.955 43.955-43.955s43.955 19.685 43.955 43.955c0 24.277-19.678 43.955-43.955 43.955m0-95.666c-28.563-3.198e-4 -51.71 23.154-51.71 51.71 0 28.563 23.147 51.717 51.71 51.717s51.71-23.154 51.71-51.717c0-28.557-23.147-51.71-51.71-51.71"/>
  <path id="path4" d="m56.718 57.245-9.447-16.307h-6.8729v26.277h6.285l0.08493-15.34 9.1988 15.34h6.8272v-26.277h-6.3242z"/>
  <path id="path6" d="m66.04 46.945h7.7549l-0.0327 20.273h6.6378l0.0327-20.273h8.0424l-0.0392-6.004h-22.424z"/>
  <path id="path8" d="m14.997 40.936 0.03267 6.004h7.7549l-0.03267 20.279h6.6377l0.02613-20.279h8.0424l-0.03267-6.004z"/>
 </g>
</svg>
